<svg width="81" height="20" viewBox="0 0 81 20" fill="none" xmlns="http://www.w3.org/2000/svg">
<rect width="80.034" height="20" rx="3" fill="#555555"/>
<mask id="path-2-inside-1_9_293" fill="white">
<path d="M12.3008 13.7285V10.7051C12.3008 10.4785 12.2598 10.2832 12.1777 10.1191C12.0957 9.95508 11.9707 9.82812 11.8027 9.73828C11.6387 9.64844 11.4316 9.60352 11.1816 9.60352C10.9512 9.60352 10.752 9.64258 10.584 9.7207C10.416 9.79883 10.2852 9.9043 10.1914 10.0371C10.0977 10.1699 10.0508 10.3203 10.0508 10.4883H8.64453C8.64453 10.2383 8.70508 9.99609 8.82617 9.76172C8.94727 9.52734 9.12305 9.31836 9.35352 9.13477C9.58398 8.95117 9.85938 8.80664 10.1797 8.70117C10.5 8.5957 10.8594 8.54297 11.2578 8.54297C11.7344 8.54297 12.1562 8.62305 12.5234 8.7832C12.8945 8.94336 13.1855 9.18555 13.3965 9.50977C13.6113 9.83008 13.7188 10.2324 13.7188 10.7168V13.5352C13.7188 13.8242 13.7383 14.084 13.7773 14.3145C13.8203 14.541 13.8809 14.7383 13.959 14.9062V15H12.5117C12.4453 14.8477 12.3926 14.6543 12.3535 14.4199C12.3184 14.1816 12.3008 13.9512 12.3008 13.7285ZM12.5059 11.1445L12.5176 12.0176H11.5039C11.2422 12.0176 11.0117 12.043 10.8125 12.0938C10.6133 12.1406 10.4473 12.2109 10.3145 12.3047C10.1816 12.3984 10.082 12.5117 10.0156 12.6445C9.94922 12.7773 9.91602 12.9277 9.91602 13.0957C9.91602 13.2637 9.95508 13.418 10.0332 13.5586C10.1113 13.6953 10.2246 13.8027 10.373 13.8809C10.5254 13.959 10.709 13.998 10.9238 13.998C11.2129 13.998 11.4648 13.9395 11.6797 13.8223C11.8984 13.7012 12.0703 13.5547 12.1953 13.3828C12.3203 13.207 12.3867 13.041 12.3945 12.8848L12.8516 13.5117C12.8047 13.6719 12.7246 13.8438 12.6113 14.0273C12.498 14.2109 12.3496 14.3867 12.166 14.5547C11.9863 14.7188 11.7695 14.8535 11.5156 14.959C11.2656 15.0645 10.9766 15.1172 10.6484 15.1172C10.2344 15.1172 9.86523 15.0352 9.54102 14.8711C9.2168 14.7031 8.96289 14.4785 8.7793 14.1973C8.5957 13.9121 8.50391 13.5898 8.50391 13.2305C8.50391 12.8945 8.56641 12.5977 8.69141 12.3398C8.82031 12.0781 9.00781 11.8594 9.25391 11.6836C9.50391 11.5078 9.80859 11.375 10.168 11.2852C10.5273 11.1914 10.9375 11.1445 11.3984 11.1445H12.5059ZM16.7157 10.0137V15H15.3036V8.66016H16.6337L16.7157 10.0137ZM16.4637 11.5957L16.0067 11.5898C16.0106 11.1406 16.0731 10.7285 16.1942 10.3535C16.3192 9.97852 16.4911 9.65625 16.7098 9.38672C16.9325 9.11719 17.1981 8.91016 17.5067 8.76562C17.8153 8.61719 18.1591 8.54297 18.538 8.54297C18.8427 8.54297 19.118 8.58594 19.3641 8.67188C19.6141 8.75391 19.827 8.88867 20.0028 9.07617C20.1825 9.26367 20.3192 9.50781 20.413 9.80859C20.5067 10.1055 20.5536 10.4707 20.5536 10.9043V15H19.1356V10.8984C19.1356 10.5938 19.0907 10.3535 19.0009 10.1777C18.9149 9.99805 18.788 9.87109 18.62 9.79688C18.4559 9.71875 18.2509 9.67969 18.0048 9.67969C17.7626 9.67969 17.5458 9.73047 17.3544 9.83203C17.163 9.93359 17.0009 10.0723 16.868 10.248C16.7391 10.4238 16.6395 10.627 16.5692 10.8574C16.4989 11.0879 16.4637 11.334 16.4637 11.5957ZM26.1755 8.66016H27.4587V14.8242C27.4587 15.3945 27.3377 15.8789 27.0955 16.2773C26.8533 16.6758 26.5154 16.9785 26.0818 17.1855C25.6482 17.3965 25.1462 17.502 24.5759 17.502C24.3337 17.502 24.0642 17.4668 23.7673 17.3965C23.4744 17.3262 23.1892 17.2129 22.9119 17.0566C22.6384 16.9043 22.4099 16.7031 22.2263 16.4531L22.8884 15.6211C23.115 15.8906 23.365 16.0879 23.6384 16.2129C23.9119 16.3379 24.199 16.4004 24.4998 16.4004C24.824 16.4004 25.0994 16.3398 25.3259 16.2188C25.5564 16.1016 25.7341 15.9277 25.8591 15.6973C25.9841 15.4668 26.0466 15.1855 26.0466 14.8535V10.0957L26.1755 8.66016ZM21.8689 11.9004V11.7773C21.8689 11.2969 21.9275 10.8594 22.0447 10.4648C22.1619 10.0664 22.3298 9.72461 22.5486 9.43945C22.7673 9.15039 23.033 8.92969 23.3455 8.77734C23.658 8.62109 24.0115 8.54297 24.406 8.54297C24.8162 8.54297 25.1658 8.61719 25.4548 8.76562C25.7478 8.91406 25.992 9.12695 26.1873 9.4043C26.3826 9.67773 26.5349 10.0059 26.6443 10.3887C26.7576 10.7676 26.8416 11.1895 26.8962 11.6543V12.0469C26.8455 12.5 26.7595 12.9141 26.6384 13.2891C26.5173 13.6641 26.3572 13.9883 26.158 14.2617C25.9587 14.5352 25.7127 14.7461 25.4197 14.8945C25.1306 15.043 24.7888 15.1172 24.3943 15.1172C24.0076 15.1172 23.658 15.0371 23.3455 14.877C23.0369 14.7168 22.7712 14.4922 22.5486 14.2031C22.3298 13.9141 22.1619 13.5742 22.0447 13.1836C21.9275 12.7891 21.8689 12.3613 21.8689 11.9004ZM23.281 11.7773V11.9004C23.281 12.1895 23.3084 12.459 23.363 12.709C23.4216 12.959 23.5095 13.1797 23.6267 13.3711C23.7478 13.5586 23.9002 13.707 24.0837 13.8164C24.2712 13.9219 24.492 13.9746 24.7459 13.9746C25.0779 13.9746 25.3494 13.9043 25.5603 13.7637C25.7752 13.623 25.9392 13.4336 26.0525 13.1953C26.1697 12.9531 26.2517 12.6836 26.2986 12.3867V11.3262C26.2752 11.0957 26.2263 10.8809 26.1521 10.6816C26.0818 10.4824 25.9861 10.3086 25.865 10.1602C25.7439 10.0078 25.5916 9.89062 25.408 9.80859C25.2244 9.72266 25.0076 9.67969 24.7576 9.67969C24.5037 9.67969 24.283 9.73438 24.0955 9.84375C23.908 9.95312 23.7537 10.1035 23.6326 10.2949C23.5154 10.4863 23.4275 10.709 23.3689 10.9629C23.3103 11.2168 23.281 11.4883 23.281 11.7773ZM32.858 13.5059V8.66016H34.276V15H32.9401L32.858 13.5059ZM33.0573 12.1875L33.5319 12.1758C33.5319 12.6016 33.485 12.9941 33.3913 13.3535C33.2975 13.709 33.153 14.0195 32.9577 14.2852C32.7623 14.5469 32.5123 14.752 32.2077 14.9004C31.903 15.0449 31.5377 15.1172 31.112 15.1172C30.8034 15.1172 30.5202 15.0723 30.2623 14.9824C30.0045 14.8926 29.7819 14.7539 29.5944 14.5664C29.4108 14.3789 29.2682 14.1348 29.1666 13.834C29.0651 13.5332 29.0143 13.1738 29.0143 12.7559V8.66016H30.4264V12.7676C30.4264 12.998 30.4538 13.1914 30.5084 13.3477C30.5631 13.5 30.6373 13.623 30.7311 13.7168C30.8248 13.8105 30.9342 13.877 31.0592 13.916C31.1842 13.9551 31.317 13.9746 31.4577 13.9746C31.86 13.9746 32.1764 13.8965 32.4069 13.7402C32.6413 13.5801 32.8073 13.3652 32.9049 13.0957C33.0065 12.8262 33.0573 12.5234 33.0573 12.1875ZM37.355 6V15H35.937V6H37.355ZM42.5961 13.7285V10.7051C42.5961 10.4785 42.5551 10.2832 42.473 10.1191C42.391 9.95508 42.266 9.82812 42.098 9.73828C41.934 9.64844 41.727 9.60352 41.477 9.60352C41.2465 9.60352 41.0473 9.64258 40.8793 9.7207C40.7113 9.79883 40.5805 9.9043 40.4867 10.0371C40.393 10.1699 40.3461 10.3203 40.3461 10.4883H38.9398C38.9398 10.2383 39.0004 9.99609 39.1215 9.76172C39.2426 9.52734 39.4184 9.31836 39.6488 9.13477C39.8793 8.95117 40.1547 8.80664 40.475 8.70117C40.7953 8.5957 41.1547 8.54297 41.5531 8.54297C42.0297 8.54297 42.4516 8.62305 42.8188 8.7832C43.1898 8.94336 43.4809 9.18555 43.6918 9.50977C43.9066 9.83008 44.0141 10.2324 44.0141 10.7168V13.5352C44.0141 13.8242 44.0336 14.084 44.0727 14.3145C44.1156 14.541 44.1762 14.7383 44.2543 14.9062V15H42.807C42.7406 14.8477 42.6879 14.6543 42.6488 14.4199C42.6137 14.1816 42.5961 13.9512 42.5961 13.7285ZM42.8012 11.1445L42.8129 12.0176H41.7992C41.5375 12.0176 41.307 12.043 41.1078 12.0938C40.9086 12.1406 40.7426 12.2109 40.6098 12.3047C40.477 12.3984 40.3773 12.5117 40.3109 12.6445C40.2445 12.7773 40.2113 12.9277 40.2113 13.0957C40.2113 13.2637 40.2504 13.418 40.3285 13.5586C40.4066 13.6953 40.5199 13.8027 40.6684 13.8809C40.8207 13.959 41.0043 13.998 41.2191 13.998C41.5082 13.998 41.7602 13.9395 41.975 13.8223C42.1938 13.7012 42.3656 13.5547 42.4906 13.3828C42.6156 13.207 42.682 13.041 42.6898 12.8848L43.1469 13.5117C43.1 13.6719 43.0199 13.8438 42.9066 14.0273C42.7934 14.2109 42.6449 14.3867 42.4613 14.5547C42.2816 14.7188 42.0648 14.8535 41.8109 14.959C41.5609 15.0645 41.2719 15.1172 40.9438 15.1172C40.5297 15.1172 40.1605 15.0352 39.8363 14.8711C39.5121 14.7031 39.2582 14.4785 39.0746 14.1973C38.891 13.9121 38.7992 13.5898 38.7992 13.2305C38.7992 12.8945 38.8617 12.5977 38.9867 12.3398C39.1156 12.0781 39.3031 11.8594 39.5492 11.6836C39.7992 11.5078 40.1039 11.375 40.4633 11.2852C40.8227 11.1914 41.2328 11.1445 41.6938 11.1445H42.8012ZM47.0286 9.86719V15H45.6165V8.66016H46.9641L47.0286 9.86719ZM48.968 8.61914L48.9563 9.93164C48.8704 9.91602 48.7766 9.9043 48.6751 9.89648C48.5774 9.88867 48.4798 9.88477 48.3821 9.88477C48.1399 9.88477 47.927 9.91992 47.7434 9.99023C47.5598 10.0566 47.4055 10.1543 47.2805 10.2832C47.1595 10.4082 47.0657 10.5605 46.9993 10.7402C46.9329 10.9199 46.8938 11.1211 46.8821 11.3438L46.5598 11.3672C46.5598 10.9688 46.5989 10.5996 46.677 10.2598C46.7552 9.91992 46.8723 9.62109 47.0286 9.36328C47.1888 9.10547 47.388 8.9043 47.6263 8.75977C47.8684 8.61523 48.1477 8.54297 48.4641 8.54297C48.5501 8.54297 48.6419 8.55078 48.7395 8.56641C48.8411 8.58203 48.9173 8.59961 48.968 8.61914Z"/>
</mask>
<path d="M12.3008 13.7285V10.7051C12.3008 10.4785 12.2598 10.2832 12.1777 10.1191C12.0957 9.95508 11.9707 9.82812 11.8027 9.73828C11.6387 9.64844 11.4316 9.60352 11.1816 9.60352C10.9512 9.60352 10.752 9.64258 10.584 9.7207C10.416 9.79883 10.2852 9.9043 10.1914 10.0371C10.0977 10.1699 10.0508 10.3203 10.0508 10.4883H8.64453C8.64453 10.2383 8.70508 9.99609 8.82617 9.76172C8.94727 9.52734 9.12305 9.31836 9.35352 9.13477C9.58398 8.95117 9.85938 8.80664 10.1797 8.70117C10.5 8.5957 10.8594 8.54297 11.2578 8.54297C11.7344 8.54297 12.1562 8.62305 12.5234 8.7832C12.8945 8.94336 13.1855 9.18555 13.3965 9.50977C13.6113 9.83008 13.7188 10.2324 13.7188 10.7168V13.5352C13.7188 13.8242 13.7383 14.084 13.7773 14.3145C13.8203 14.541 13.8809 14.7383 13.959 14.9062V15H12.5117C12.4453 14.8477 12.3926 14.6543 12.3535 14.4199C12.3184 14.1816 12.3008 13.9512 12.3008 13.7285ZM12.5059 11.1445L12.5176 12.0176H11.5039C11.2422 12.0176 11.0117 12.043 10.8125 12.0938C10.6133 12.1406 10.4473 12.2109 10.3145 12.3047C10.1816 12.3984 10.082 12.5117 10.0156 12.6445C9.94922 12.7773 9.91602 12.9277 9.91602 13.0957C9.91602 13.2637 9.95508 13.418 10.0332 13.5586C10.1113 13.6953 10.2246 13.8027 10.373 13.8809C10.5254 13.959 10.709 13.998 10.9238 13.998C11.2129 13.998 11.4648 13.9395 11.6797 13.8223C11.8984 13.7012 12.0703 13.5547 12.1953 13.3828C12.3203 13.207 12.3867 13.041 12.3945 12.8848L12.8516 13.5117C12.8047 13.6719 12.7246 13.8438 12.6113 14.0273C12.498 14.2109 12.3496 14.3867 12.166 14.5547C11.9863 14.7188 11.7695 14.8535 11.5156 14.959C11.2656 15.0645 10.9766 15.1172 10.6484 15.1172C10.2344 15.1172 9.86523 15.0352 9.54102 14.8711C9.2168 14.7031 8.96289 14.4785 8.7793 14.1973C8.5957 13.9121 8.50391 13.5898 8.50391 13.2305C8.50391 12.8945 8.56641 12.5977 8.69141 12.3398C8.82031 12.0781 9.00781 11.8594 9.25391 11.6836C9.50391 11.5078 9.80859 11.375 10.168 11.2852C10.5273 11.1914 10.9375 11.1445 11.3984 11.1445H12.5059ZM16.7157 10.0137V15H15.3036V8.66016H16.6337L16.7157 10.0137ZM16.4637 11.5957L16.0067 11.5898C16.0106 11.1406 16.0731 10.7285 16.1942 10.3535C16.3192 9.97852 16.4911 9.65625 16.7098 9.38672C16.9325 9.11719 17.1981 8.91016 17.5067 8.76562C17.8153 8.61719 18.1591 8.54297 18.538 8.54297C18.8427 8.54297 19.118 8.58594 19.3641 8.67188C19.6141 8.75391 19.827 8.88867 20.0028 9.07617C20.1825 9.26367 20.3192 9.50781 20.413 9.80859C20.5067 10.1055 20.5536 10.4707 20.5536 10.9043V15H19.1356V10.8984C19.1356 10.5938 19.0907 10.3535 19.0009 10.1777C18.9149 9.99805 18.788 9.87109 18.62 9.79688C18.4559 9.71875 18.2509 9.67969 18.0048 9.67969C17.7626 9.67969 17.5458 9.73047 17.3544 9.83203C17.163 9.93359 17.0009 10.0723 16.868 10.248C16.7391 10.4238 16.6395 10.627 16.5692 10.8574C16.4989 11.0879 16.4637 11.334 16.4637 11.5957ZM26.1755 8.66016H27.4587V14.8242C27.4587 15.3945 27.3377 15.8789 27.0955 16.2773C26.8533 16.6758 26.5154 16.9785 26.0818 17.1855C25.6482 17.3965 25.1462 17.502 24.5759 17.502C24.3337 17.502 24.0642 17.4668 23.7673 17.3965C23.4744 17.3262 23.1892 17.2129 22.9119 17.0566C22.6384 16.9043 22.4099 16.7031 22.2263 16.4531L22.8884 15.6211C23.115 15.8906 23.365 16.0879 23.6384 16.2129C23.9119 16.3379 24.199 16.4004 24.4998 16.4004C24.824 16.4004 25.0994 16.3398 25.3259 16.2188C25.5564 16.1016 25.7341 15.9277 25.8591 15.6973C25.9841 15.4668 26.0466 15.1855 26.0466 14.8535V10.0957L26.1755 8.66016ZM21.8689 11.9004V11.7773C21.8689 11.2969 21.9275 10.8594 22.0447 10.4648C22.1619 10.0664 22.3298 9.72461 22.5486 9.43945C22.7673 9.15039 23.033 8.92969 23.3455 8.77734C23.658 8.62109 24.0115 8.54297 24.406 8.54297C24.8162 8.54297 25.1658 8.61719 25.4548 8.76562C25.7478 8.91406 25.992 9.12695 26.1873 9.4043C26.3826 9.67773 26.5349 10.0059 26.6443 10.3887C26.7576 10.7676 26.8416 11.1895 26.8962 11.6543V12.0469C26.8455 12.5 26.7595 12.9141 26.6384 13.2891C26.5173 13.6641 26.3572 13.9883 26.158 14.2617C25.9587 14.5352 25.7127 14.7461 25.4197 14.8945C25.1306 15.043 24.7888 15.1172 24.3943 15.1172C24.0076 15.1172 23.658 15.0371 23.3455 14.877C23.0369 14.7168 22.7712 14.4922 22.5486 14.2031C22.3298 13.9141 22.1619 13.5742 22.0447 13.1836C21.9275 12.7891 21.8689 12.3613 21.8689 11.9004ZM23.281 11.7773V11.9004C23.281 12.1895 23.3084 12.459 23.363 12.709C23.4216 12.959 23.5095 13.1797 23.6267 13.3711C23.7478 13.5586 23.9002 13.707 24.0837 13.8164C24.2712 13.9219 24.492 13.9746 24.7459 13.9746C25.0779 13.9746 25.3494 13.9043 25.5603 13.7637C25.7752 13.623 25.9392 13.4336 26.0525 13.1953C26.1697 12.9531 26.2517 12.6836 26.2986 12.3867V11.3262C26.2752 11.0957 26.2263 10.8809 26.1521 10.6816C26.0818 10.4824 25.9861 10.3086 25.865 10.1602C25.7439 10.0078 25.5916 9.89062 25.408 9.80859C25.2244 9.72266 25.0076 9.67969 24.7576 9.67969C24.5037 9.67969 24.283 9.73438 24.0955 9.84375C23.908 9.95312 23.7537 10.1035 23.6326 10.2949C23.5154 10.4863 23.4275 10.709 23.3689 10.9629C23.3103 11.2168 23.281 11.4883 23.281 11.7773ZM32.858 13.5059V8.66016H34.276V15H32.9401L32.858 13.5059ZM33.0573 12.1875L33.5319 12.1758C33.5319 12.6016 33.485 12.9941 33.3913 13.3535C33.2975 13.709 33.153 14.0195 32.9577 14.2852C32.7623 14.5469 32.5123 14.752 32.2077 14.9004C31.903 15.0449 31.5377 15.1172 31.112 15.1172C30.8034 15.1172 30.5202 15.0723 30.2623 14.9824C30.0045 14.8926 29.7819 14.7539 29.5944 14.5664C29.4108 14.3789 29.2682 14.1348 29.1666 13.834C29.0651 13.5332 29.0143 13.1738 29.0143 12.7559V8.66016H30.4264V12.7676C30.4264 12.998 30.4538 13.1914 30.5084 13.3477C30.5631 13.5 30.6373 13.623 30.7311 13.7168C30.8248 13.8105 30.9342 13.877 31.0592 13.916C31.1842 13.9551 31.317 13.9746 31.4577 13.9746C31.86 13.9746 32.1764 13.8965 32.4069 13.7402C32.6413 13.5801 32.8073 13.3652 32.9049 13.0957C33.0065 12.8262 33.0573 12.5234 33.0573 12.1875ZM37.355 6V15H35.937V6H37.355ZM42.5961 13.7285V10.7051C42.5961 10.4785 42.5551 10.2832 42.473 10.1191C42.391 9.95508 42.266 9.82812 42.098 9.73828C41.934 9.64844 41.727 9.60352 41.477 9.60352C41.2465 9.60352 41.0473 9.64258 40.8793 9.7207C40.7113 9.79883 40.5805 9.9043 40.4867 10.0371C40.393 10.1699 40.3461 10.3203 40.3461 10.4883H38.9398C38.9398 10.2383 39.0004 9.99609 39.1215 9.76172C39.2426 9.52734 39.4184 9.31836 39.6488 9.13477C39.8793 8.95117 40.1547 8.80664 40.475 8.70117C40.7953 8.5957 41.1547 8.54297 41.5531 8.54297C42.0297 8.54297 42.4516 8.62305 42.8188 8.7832C43.1898 8.94336 43.4809 9.18555 43.6918 9.50977C43.9066 9.83008 44.0141 10.2324 44.0141 10.7168V13.5352C44.0141 13.8242 44.0336 14.084 44.0727 14.3145C44.1156 14.541 44.1762 14.7383 44.2543 14.9062V15H42.807C42.7406 14.8477 42.6879 14.6543 42.6488 14.4199C42.6137 14.1816 42.5961 13.9512 42.5961 13.7285ZM42.8012 11.1445L42.8129 12.0176H41.7992C41.5375 12.0176 41.307 12.043 41.1078 12.0938C40.9086 12.1406 40.7426 12.2109 40.6098 12.3047C40.477 12.3984 40.3773 12.5117 40.3109 12.6445C40.2445 12.7773 40.2113 12.9277 40.2113 13.0957C40.2113 13.2637 40.2504 13.418 40.3285 13.5586C40.4066 13.6953 40.5199 13.8027 40.6684 13.8809C40.8207 13.959 41.0043 13.998 41.2191 13.998C41.5082 13.998 41.7602 13.9395 41.975 13.8223C42.1938 13.7012 42.3656 13.5547 42.4906 13.3828C42.6156 13.207 42.682 13.041 42.6898 12.8848L43.1469 13.5117C43.1 13.6719 43.0199 13.8438 42.9066 14.0273C42.7934 14.2109 42.6449 14.3867 42.4613 14.5547C42.2816 14.7188 42.0648 14.8535 41.8109 14.959C41.5609 15.0645 41.2719 15.1172 40.9438 15.1172C40.5297 15.1172 40.1605 15.0352 39.8363 14.8711C39.5121 14.7031 39.2582 14.4785 39.0746 14.1973C38.891 13.9121 38.7992 13.5898 38.7992 13.2305C38.7992 12.8945 38.8617 12.5977 38.9867 12.3398C39.1156 12.0781 39.3031 11.8594 39.5492 11.6836C39.7992 11.5078 40.1039 11.375 40.4633 11.2852C40.8227 11.1914 41.2328 11.1445 41.6938 11.1445H42.8012ZM47.0286 9.86719V15H45.6165V8.66016H46.9641L47.0286 9.86719ZM48.968 8.61914L48.9563 9.93164C48.8704 9.91602 48.7766 9.9043 48.6751 9.89648C48.5774 9.88867 48.4798 9.88477 48.3821 9.88477C48.1399 9.88477 47.927 9.91992 47.7434 9.99023C47.5598 10.0566 47.4055 10.1543 47.2805 10.2832C47.1595 10.4082 47.0657 10.5605 46.9993 10.7402C46.9329 10.9199 46.8938 11.1211 46.8821 11.3438L46.5598 11.3672C46.5598 10.9688 46.5989 10.5996 46.677 10.2598C46.7552 9.91992 46.8723 9.62109 47.0286 9.36328C47.1888 9.10547 47.388 8.9043 47.6263 8.75977C47.8684 8.61523 48.1477 8.54297 48.4641 8.54297C48.5501 8.54297 48.6419 8.55078 48.7395 8.56641C48.8411 8.58203 48.9173 8.59961 48.968 8.61914Z" fill="#010101" fill-opacity="0.3"/>
<path d="M11.8027 9.73828L11.7067 9.91371L11.7084 9.91464L11.8027 9.73828ZM10.0508 10.4883V10.6883H10.2508V10.4883H10.0508ZM8.64453 10.4883H8.44453V10.6883H8.64453V10.4883ZM12.5234 8.7832L12.4435 8.96653L12.4442 8.96683L12.5234 8.7832ZM13.3965 9.50977L13.2288 9.61884L13.2304 9.62117L13.3965 9.50977ZM13.7773 14.3145L13.5801 14.3479L13.5808 14.3517L13.7773 14.3145ZM13.959 14.9062H14.159V14.862L14.1403 14.8219L13.959 14.9062ZM13.959 15V15.2H14.159V15H13.959ZM12.5117 15L12.3284 15.0799L12.3807 15.2H12.5117V15ZM12.3535 14.4199L12.1556 14.4491L12.1562 14.4528L12.3535 14.4199ZM12.5059 11.1445L12.7058 11.1418L12.7032 10.9445H12.5059V11.1445ZM12.5176 12.0176V12.2176H12.7203L12.7176 12.0149L12.5176 12.0176ZM10.8125 12.0938L10.8583 12.2885L10.8619 12.2876L10.8125 12.0938ZM10.0332 13.5586L9.85836 13.6557L9.85955 13.6578L10.0332 13.5586ZM10.373 13.8809L10.2799 14.0579L10.2818 14.0588L10.373 13.8809ZM11.6797 13.8223L11.7755 13.9978L11.7766 13.9972L11.6797 13.8223ZM12.1953 13.3828L12.3571 13.5005L12.3583 13.4987L12.1953 13.3828ZM12.3945 12.8848L12.5561 12.767L12.223 12.31L12.1948 12.8748L12.3945 12.8848ZM12.8516 13.5117L13.0435 13.5679L13.0712 13.4734L13.0132 13.3939L12.8516 13.5117ZM12.166 14.5547L12.3009 14.7024L12.301 14.7022L12.166 14.5547ZM11.5156 14.959L11.4389 14.7743L11.4379 14.7747L11.5156 14.959ZM9.54102 14.8711L9.44901 15.0487L9.45071 15.0495L9.54102 14.8711ZM8.7793 14.1973L8.61113 14.3055L8.61182 14.3066L8.7793 14.1973ZM8.69141 12.3398L8.51198 12.2515L8.51144 12.2526L8.69141 12.3398ZM9.25391 11.6836L9.13887 11.52L9.13766 11.5208L9.25391 11.6836ZM10.168 11.2852L10.2165 11.4792L10.2185 11.4787L10.168 11.2852ZM12.5008 13.7285V10.7051H12.1008V13.7285H12.5008ZM12.5008 10.7051C12.5008 10.4546 12.4554 10.2273 12.3566 10.0297L11.9988 10.2086C12.0641 10.3391 12.1008 10.5024 12.1008 10.7051H12.5008ZM12.3566 10.0297C12.2553 9.82712 12.1 9.67049 11.8971 9.56192L11.7084 9.91464C11.8414 9.98576 11.9361 10.083 11.9988 10.2086L12.3566 10.0297ZM11.8988 9.56286C11.697 9.45237 11.4543 9.40352 11.1816 9.40352V9.80352C11.4089 9.80352 11.5803 9.8445 11.7067 9.9137L11.8988 9.56286ZM11.1816 9.40352C10.929 9.40352 10.6997 9.44633 10.4996 9.53936L10.6683 9.90205C10.8042 9.83883 10.9734 9.80352 11.1816 9.80352V9.40352ZM10.4996 9.53936C10.3045 9.63012 10.1446 9.75665 10.028 9.92177L10.3548 10.1524C10.4257 10.0519 10.5275 9.96753 10.6683 9.90205L10.4996 9.53936ZM10.028 9.92177C9.90961 10.0895 9.85078 10.2805 9.85078 10.4883H10.2508C10.2508 10.3602 10.2857 10.2503 10.3548 10.1524L10.028 9.92177ZM10.0508 10.2883H8.64453V10.6883H10.0508V10.2883ZM8.84453 10.4883C8.84453 10.272 8.89659 10.0611 9.00386 9.85352L8.64849 9.66991C8.51356 9.93106 8.44453 10.2046 8.44453 10.4883H8.84453ZM9.00386 9.85352C9.11058 9.64697 9.26712 9.45929 9.47813 9.2912L9.2289 8.97833C8.97897 9.17743 8.78396 9.40772 8.64849 9.66991L9.00386 9.85352ZM9.47813 9.2912C9.68759 9.12434 9.94123 8.99025 10.2422 8.89114L10.1171 8.5112C9.77752 8.62303 9.48038 8.778 9.2289 8.97833L9.47813 9.2912ZM10.2422 8.89114C10.5391 8.7934 10.8769 8.74297 11.2578 8.74297V8.34297C10.8419 8.34297 10.4609 8.39801 10.1171 8.5112L10.2422 8.89114ZM11.2578 8.74297C11.712 8.74297 12.1058 8.81925 12.4435 8.96652L12.6034 8.59988C12.2067 8.42684 11.7568 8.34297 11.2578 8.34297V8.74297ZM12.4442 8.96683C12.7808 9.11212 13.0404 9.32916 13.2288 9.61883L13.5641 9.4007C13.3307 9.04193 13.0082 8.7746 12.6027 8.59957L12.4442 8.96683ZM13.2304 9.62117C13.4181 9.901 13.5187 10.2619 13.5187 10.7168H13.9188C13.9188 10.2029 13.8046 9.75915 13.5626 9.39836L13.2304 9.62117ZM13.5187 10.7168V13.5352H13.9188V10.7168H13.5187ZM13.5187 13.5352C13.5187 13.8329 13.5388 14.1041 13.5802 14.3479L13.9745 14.281C13.9377 14.0638 13.9188 13.8155 13.9188 13.5352H13.5187ZM13.5808 14.3517C13.6262 14.5908 13.6911 14.8045 13.7776 14.9906L14.1403 14.8219C14.0706 14.6721 14.0144 14.4913 13.9738 14.2772L13.5808 14.3517ZM13.759 14.9062V15H14.159V14.9062H13.759ZM13.959 14.8H12.5117V15.2H13.959V14.8ZM12.6951 14.9201C12.6373 14.7877 12.5882 14.6115 12.5508 14.387L12.1562 14.4528C12.1969 14.6971 12.2533 14.9076 12.3284 15.0799L12.6951 14.9201ZM12.5514 14.3907C12.5175 14.1613 12.5008 13.9406 12.5008 13.7285H12.1008C12.1008 13.9617 12.1192 14.2019 12.1557 14.4491L12.5514 14.3907ZM12.3059 11.1472L12.3176 12.0203L12.7176 12.0149L12.7058 11.1418L12.3059 11.1472ZM12.5176 11.8176H11.5039V12.2176H12.5176V11.8176ZM11.5039 11.8176C11.2298 11.8176 10.9822 11.8441 10.7631 11.8999L10.8619 12.2876C11.0413 12.2418 11.2546 12.2176 11.5039 12.2176V11.8176ZM10.7667 11.8991C10.5487 11.9504 10.3575 12.0295 10.1991 12.1413L10.4298 12.4681C10.537 12.3924 10.6778 12.3309 10.8583 12.2884L10.7667 11.8991ZM10.1991 12.1413C10.042 12.2522 9.91927 12.39 9.83674 12.5551L10.1945 12.734C10.2448 12.6334 10.3213 12.5446 10.4298 12.4681L10.1991 12.1413ZM9.83674 12.5551C9.75472 12.7191 9.71602 12.9008 9.71602 13.0957H10.116C10.116 12.9547 10.1437 12.8356 10.1945 12.734L9.83674 12.5551ZM9.71602 13.0957C9.71602 13.2961 9.763 13.4841 9.85837 13.6557L10.208 13.4615C10.1472 13.3519 10.116 13.2312 10.116 13.0957H9.71602ZM9.85955 13.6578C9.95781 13.8298 10.1001 13.9632 10.2799 14.0578L10.4662 13.7039C10.3491 13.6423 10.2648 13.5608 10.2069 13.4594L9.85955 13.6578ZM10.2818 14.0588C10.4687 14.1547 10.6852 14.198 10.9238 14.198V13.798C10.7328 13.798 10.5821 13.7633 10.4643 13.7029L10.2818 14.0588ZM10.9238 14.198C11.2403 14.198 11.5263 14.1337 11.7755 13.9978L11.5839 13.6467C11.4034 13.7452 11.1855 13.798 10.9238 13.798V14.198ZM11.7766 13.9972C12.0164 13.8645 12.2121 13.6998 12.3571 13.5004L12.0336 13.2652C11.9285 13.4096 11.7805 13.5379 11.5828 13.6473L11.7766 13.9972ZM12.3583 13.4987C12.4973 13.3032 12.584 13.101 12.5943 12.8948L12.1948 12.8748C12.1895 12.9811 12.1433 13.1109 12.0323 13.2669L12.3583 13.4987ZM12.2329 13.0026L12.6899 13.6295L13.0132 13.3939L12.5561 12.767L12.2329 13.0026ZM12.6596 13.4555C12.619 13.5944 12.5476 13.7498 12.4411 13.9223L12.7815 14.1324C12.9016 13.9377 12.9904 13.7494 13.0435 13.5679L12.6596 13.4555ZM12.4411 13.9223C12.3389 14.088 12.203 14.2498 12.031 14.4071L12.301 14.7022C12.4962 14.5237 12.6572 14.3339 12.7815 14.1324L12.4411 13.9223ZM12.0312 14.407C11.8706 14.5536 11.6742 14.6766 11.4389 14.7743L11.5923 15.1437C11.8649 15.0305 12.102 14.8839 12.3009 14.7024L12.0312 14.407ZM11.4379 14.7747C11.2171 14.8679 10.9553 14.9172 10.6484 14.9172V15.3172C10.9978 15.3172 11.3142 15.261 11.5934 15.1433L11.4379 14.7747ZM10.6484 14.9172C10.2613 14.9172 9.92386 14.8407 9.63132 14.6926L9.45071 15.0495C9.80661 15.2296 10.2074 15.3172 10.6484 15.3172V14.9172ZM9.63302 14.6935C9.33667 14.54 9.10989 14.3378 8.94677 14.0879L8.61182 14.3066C8.81589 14.6192 9.09692 14.8663 9.44901 15.0487L9.63302 14.6935ZM8.94746 14.089C8.78591 13.8381 8.70391 13.5538 8.70391 13.2305H8.30391C8.30391 13.6258 8.40549 13.9861 8.61114 14.3055L8.94746 14.089ZM8.70391 13.2305C8.70391 12.9196 8.76165 12.6534 8.87137 12.4271L8.51144 12.2526C8.37117 12.5419 8.30391 12.8695 8.30391 13.2305H8.70391ZM8.87082 12.4282C8.98459 12.1972 9.14991 12.0037 9.37015 11.8463L9.13766 11.5208C8.86571 11.7151 8.65603 11.959 8.51199 12.2515L8.87082 12.4282ZM9.36894 11.8472C9.59506 11.6882 9.87604 11.5643 10.2165 11.4792L10.1195 11.0911C9.74115 11.1857 9.41276 11.3274 9.13887 11.52L9.36894 11.8472ZM10.2185 11.4787C10.5579 11.3901 10.9506 11.3445 11.3984 11.3445V10.9445C10.9244 10.9445 10.4967 10.9927 10.1175 11.0916L10.2185 11.4787ZM11.3984 11.3445H12.5059V10.9445H11.3984V11.3445ZM16.7157 10.0137H16.9161L16.9153 10.0016L16.7157 10.0137ZM16.7157 15V15.2H16.9157V15H16.7157ZM15.3036 15H15.1036V15.2H15.3036V15ZM15.3036 8.66016V8.46016H15.1036V8.66016H15.3036ZM16.6337 8.66016L16.8333 8.64806L16.8219 8.46016H16.6337V8.66016ZM16.4637 11.5957L16.4612 11.7957L16.6637 11.7983V11.5957H16.4637ZM16.0067 11.5898L15.8067 11.5881L15.805 11.7873L16.0042 11.7898L16.0067 11.5898ZM16.1942 10.3535L16.0045 10.2903L16.0039 10.2921L16.1942 10.3535ZM16.7098 9.38672L16.5556 9.25934L16.5546 9.26068L16.7098 9.38672ZM17.5067 8.76562L17.5916 8.94675L17.5934 8.94586L17.5067 8.76562ZM19.3641 8.67188L19.2982 8.86073L19.3018 8.86191L19.3641 8.67188ZM20.0028 9.07617L19.8569 9.21297L19.8584 9.21455L20.0028 9.07617ZM20.413 9.80859L20.222 9.86811L20.2223 9.86882L20.413 9.80859ZM20.5536 15V15.2H20.7536V15H20.5536ZM19.1356 15H18.9356V15.2H19.1356V15ZM19.0009 10.1777L18.8204 10.2641L18.8228 10.2688L19.0009 10.1777ZM18.62 9.79688L18.534 9.97752L18.5392 9.97981L18.62 9.79688ZM16.868 10.248L16.7085 10.1275L16.7068 10.1298L16.868 10.248ZM16.5157 10.0137V15H16.9157V10.0137H16.5157ZM16.7157 14.8H15.3036V15.2H16.7157V14.8ZM15.5036 15V8.66016H15.1036V15H15.5036ZM15.3036 8.86016H16.6337V8.46016H15.3036V8.86016ZM16.434 8.67226L16.5161 10.0258L16.9153 10.0016L16.8333 8.64806L16.434 8.67226ZM16.4663 11.3957L16.0093 11.3899L16.0042 11.7898L16.4612 11.7957L16.4663 11.3957ZM16.2067 11.5916C16.2105 11.1599 16.2705 10.7682 16.3845 10.415L16.0039 10.2921C15.8758 10.6888 15.8108 11.1214 15.8067 11.5881L16.2067 11.5916ZM16.384 10.4168C16.5024 10.0615 16.6635 9.76119 16.8651 9.51275L16.5546 9.26068C16.3187 9.55131 16.136 9.89557 16.0045 10.2903L16.384 10.4168ZM16.864 9.5141C17.0683 9.26678 17.3105 9.07839 17.5915 8.94674L17.4219 8.58451C17.0858 8.74193 16.7967 8.96759 16.5557 9.25934L16.864 9.5141ZM17.5934 8.94586C17.8722 8.81176 18.1858 8.74297 18.538 8.74297V8.34297C18.1323 8.34297 17.7584 8.42261 17.42 8.58539L17.5934 8.94586ZM18.538 8.74297C18.8239 8.74297 19.0765 8.78329 19.2982 8.86069L19.4301 8.48306C19.1595 8.38859 18.8614 8.34297 18.538 8.34297V8.74297ZM19.3018 8.86191C19.5207 8.93374 19.7046 9.05053 19.8569 9.21296L20.1487 8.93938C19.9494 8.72681 19.7076 8.57408 19.4265 8.48184L19.3018 8.86191ZM19.8584 9.21455C20.0126 9.37545 20.1355 9.59065 20.222 9.86811L20.6039 9.74908C20.5029 9.42497 20.3524 9.15189 20.1472 8.93779L19.8584 9.21455ZM20.2223 9.86882C20.308 10.1402 20.3536 10.4838 20.3536 10.9043H20.7536C20.7536 10.4577 20.7055 10.0707 20.6037 9.74837L20.2223 9.86882ZM20.3536 10.9043V15H20.7536V10.9043H20.3536ZM20.5536 14.8H19.1356V15.2H20.5536V14.8ZM19.3356 15V10.8984H18.9356V15H19.3356ZM19.3356 10.8984C19.3356 10.5777 19.2889 10.3019 19.1789 10.0867L18.8228 10.2688C18.8925 10.4052 18.9356 10.6098 18.9356 10.8984H19.3356ZM19.1813 10.0914C19.0766 9.87262 18.9163 9.70914 18.7008 9.61394L18.5392 9.97981C18.6596 10.033 18.7532 10.1235 18.8204 10.264L19.1813 10.0914ZM18.706 9.6163C18.5073 9.52169 18.2706 9.47969 18.0048 9.47969V9.87969C18.2311 9.87969 18.4046 9.91581 18.534 9.97745L18.706 9.6163ZM18.0048 9.47969C17.7338 9.47969 17.4842 9.53675 17.2606 9.65536L17.4481 10.0087C17.6074 9.92419 17.7914 9.87969 18.0048 9.87969V9.47969ZM17.2606 9.65536C17.043 9.77083 16.8586 9.92882 16.7085 10.1275L17.0276 10.3686C17.1431 10.2157 17.2829 10.0964 17.4481 10.0087L17.2606 9.65536ZM16.7068 10.1298C16.5632 10.3255 16.4541 10.5493 16.3779 10.7991L16.7605 10.9158C16.825 10.7046 16.9151 10.5222 17.0293 10.3663L16.7068 10.1298ZM16.3779 10.7991C16.3014 11.05 16.2637 11.3159 16.2637 11.5957H16.6637C16.6637 11.3521 16.6964 11.1258 16.7605 10.9158L16.3779 10.7991ZM26.1755 8.66016V8.46016H25.9927L25.9763 8.64227L26.1755 8.66016ZM27.4587 8.66016H27.6587V8.46016H27.4587V8.66016ZM26.0818 17.1855L25.9956 17.0051L25.9943 17.0057L26.0818 17.1855ZM23.7673 17.3965L23.7207 17.591L23.7213 17.5911L23.7673 17.3965ZM22.9119 17.0566L23.01 16.8824L23.0092 16.8819L22.9119 17.0566ZM22.2263 16.4531L22.0698 16.3286L21.9746 16.4482L22.0651 16.5715L22.2263 16.4531ZM22.8884 15.6211L23.0415 15.4924L22.8842 15.3052L22.7319 15.4966L22.8884 15.6211ZM25.3259 16.2188L25.2353 16.0404L25.2317 16.0424L25.3259 16.2188ZM26.0466 10.0957L25.8474 10.0778L25.8466 10.0867V10.0957H26.0466ZM22.0447 10.4648L22.2364 10.5218L22.2366 10.5213L22.0447 10.4648ZM22.5486 9.43945L22.7073 9.56119L22.7081 9.56014L22.5486 9.43945ZM23.3455 8.77734L23.4331 8.95713L23.4349 8.95623L23.3455 8.77734ZM25.4548 8.76562L25.3635 8.94354L25.3645 8.94403L25.4548 8.76562ZM26.1873 9.4043L26.0237 9.51946L26.0245 9.52054L26.1873 9.4043ZM26.6443 10.3887L26.452 10.4436L26.4527 10.446L26.6443 10.3887ZM26.8962 11.6543H27.0962V11.6426L27.0949 11.6309L26.8962 11.6543ZM26.8962 12.0469L27.095 12.0691L27.0962 12.058V12.0469H26.8962ZM25.4197 14.8945L25.3293 14.7161L25.3283 14.7166L25.4197 14.8945ZM23.3455 14.877L23.2533 15.0545L23.2543 15.0549L23.3455 14.877ZM22.5486 14.2031L22.3891 14.3238L22.3901 14.3252L22.5486 14.2031ZM22.0447 13.1836L21.853 13.2405L21.8531 13.2411L22.0447 13.1836ZM23.363 12.709L23.1676 12.7517L23.1683 12.7546L23.363 12.709ZM23.6267 13.3711L23.4561 13.4756L23.4587 13.4796L23.6267 13.3711ZM24.0837 13.8164L23.9814 13.9883L23.9857 13.9907L24.0837 13.8164ZM25.5603 13.7637L25.4508 13.5963L25.4494 13.5973L25.5603 13.7637ZM26.0525 13.1953L25.8725 13.1082L25.8719 13.1094L26.0525 13.1953ZM26.2986 12.3867L26.4961 12.4179L26.4986 12.4024V12.3867H26.2986ZM26.2986 11.3262H26.4986V11.316L26.4976 11.3059L26.2986 11.3262ZM26.1521 10.6816L25.9635 10.7482L25.9647 10.7515L26.1521 10.6816ZM25.865 10.1602L25.7084 10.2846L25.71 10.2866L25.865 10.1602ZM25.408 9.80859L25.3232 9.98976L25.3264 9.9912L25.408 9.80859ZM23.6326 10.2949L23.4635 10.188L23.462 10.1905L23.6326 10.2949ZM26.1755 8.86016H27.4587V8.46016H26.1755V8.86016ZM27.2587 8.66016V14.8242H27.6587V8.66016H27.2587ZM27.2587 14.8242C27.2587 15.3661 27.1439 15.8126 26.9246 16.1735L27.2664 16.3812C27.5314 15.9452 27.6587 15.423 27.6587 14.8242H27.2587ZM26.9246 16.1735C26.7032 16.5376 26.3953 16.8142 25.9956 17.0051L26.168 17.366C26.6355 17.1428 27.0033 16.8139 27.2664 16.3812L26.9246 16.1735ZM25.9943 17.0057C25.5925 17.2012 25.1214 17.302 24.5759 17.302V17.702C25.1711 17.702 25.7039 17.5918 26.1693 17.3654L25.9943 17.0057ZM24.5759 17.302C24.3527 17.302 24.0989 17.2695 23.8134 17.2019L23.7213 17.5911C24.0295 17.6641 24.3148 17.702 24.5759 17.702V17.302ZM23.814 17.202C23.5401 17.1363 23.2722 17.0301 23.01 16.8824L22.8137 17.2309C23.1063 17.3957 23.4087 17.5161 23.7207 17.591L23.814 17.202ZM23.0092 16.8819C22.7606 16.7434 22.554 16.5614 22.3875 16.3347L22.0651 16.5715C22.2659 16.8449 22.5163 17.0652 22.8145 17.2314L23.0092 16.8819ZM22.3828 16.5777L23.0449 15.7456L22.7319 15.4966L22.0698 16.3286L22.3828 16.5777ZM22.7353 15.7498C22.9777 16.0382 23.2506 16.2555 23.5553 16.3948L23.7216 16.031C23.4794 15.9203 23.2523 15.7431 23.0415 15.4924L22.7353 15.7498ZM23.5553 16.3948C23.8548 16.5317 24.1703 16.6004 24.4998 16.6004V16.2004C24.2277 16.2004 23.9689 16.1441 23.7216 16.031L23.5553 16.3948ZM24.4998 16.6004C24.8484 16.6004 25.158 16.5353 25.4202 16.3951L25.2317 16.0424C25.0407 16.1444 24.7995 16.2004 24.4998 16.2004V16.6004ZM25.4166 16.397C25.6837 16.2612 25.8909 16.0582 26.0349 15.7926L25.6833 15.6019C25.5774 15.7973 25.4291 15.9419 25.2353 16.0405L25.4166 16.397ZM26.0349 15.7926C26.1795 15.5261 26.2466 15.2102 26.2466 14.8535H25.8466C25.8466 15.1609 25.7888 15.4075 25.6833 15.6019L26.0349 15.7926ZM26.2466 14.8535V10.0957H25.8466V14.8535H26.2466ZM26.2458 10.1136L26.3747 8.67804L25.9763 8.64227L25.8474 10.0778L26.2458 10.1136ZM22.0689 11.9004V11.7773H21.6689V11.9004H22.0689ZM22.0689 11.7773C22.0689 11.313 22.1255 10.895 22.2364 10.5218L21.853 10.4079C21.7295 10.8237 21.6689 11.2807 21.6689 11.7773H22.0689ZM22.2366 10.5213C22.3479 10.1428 22.5057 9.82401 22.7073 9.56119L22.3899 9.31772C22.154 9.6252 21.9759 9.98997 21.8528 10.4084L22.2366 10.5213ZM22.7081 9.56014C22.9087 9.29504 23.1501 9.09509 23.4331 8.95712L23.2578 8.59757C22.9159 8.76428 22.626 9.00574 22.3891 9.31876L22.7081 9.56014ZM23.4349 8.95623C23.7162 8.81557 24.0385 8.74297 24.406 8.74297V8.34297C23.9845 8.34297 23.5997 8.42662 23.256 8.59846L23.4349 8.95623ZM24.406 8.74297C24.7925 8.74297 25.1091 8.81292 25.3635 8.94354L25.5462 8.58771C25.2224 8.42145 24.8398 8.34297 24.406 8.34297V8.74297ZM25.3645 8.94403C25.6273 9.07719 25.8466 9.26794 26.0237 9.51945L26.3508 9.28914C26.1373 8.98596 25.8684 8.75094 25.5452 8.58722L25.3645 8.94403ZM26.0245 9.52054C26.2043 9.77231 26.3478 10.0788 26.452 10.4436L26.8366 10.3337C26.7221 9.9329 26.5608 9.58316 26.35 9.28805L26.0245 9.52054ZM26.4527 10.446C26.5621 10.812 26.644 11.2223 26.6976 11.6777L27.0949 11.6309C27.0391 11.1566 26.953 10.7232 26.8359 10.3314L26.4527 10.446ZM26.6962 11.6543V12.0469H27.0962V11.6543H26.6962ZM26.6975 12.0246C26.648 12.4664 26.5645 12.8672 26.4481 13.2276L26.8288 13.3505C26.9546 12.961 27.043 12.5336 27.095 12.0691L26.6975 12.0246ZM26.4481 13.2276C26.3325 13.5857 26.1812 13.8902 25.9963 14.1439L26.3196 14.3795C26.5332 14.0864 26.7022 13.7424 26.8288 13.3505L26.4481 13.2276ZM25.9963 14.1439C25.8151 14.3926 25.5932 14.5824 25.3293 14.7161L25.5101 15.0729C25.8321 14.9098 26.1024 14.6777 26.3196 14.3795L25.9963 14.1439ZM25.3283 14.7166C25.073 14.8478 24.7638 14.9172 24.3943 14.9172V15.3172C24.8139 15.3172 25.1883 15.2382 25.511 15.0724L25.3283 14.7166ZM24.3943 14.9172C24.036 14.9172 23.7182 14.8432 23.4367 14.699L23.2543 15.0549C23.5978 15.231 23.9791 15.3172 24.3943 15.3172V14.9172ZM23.4376 14.6994C23.1562 14.5534 22.9128 14.3482 22.707 14.0811L22.3901 14.3252C22.6297 14.6362 22.9176 14.8802 23.2533 15.0545L23.4376 14.6994ZM22.7081 14.0824C22.5054 13.8146 22.3474 13.4968 22.2363 13.1261L21.8531 13.2411C21.9763 13.6517 22.1543 14.0135 22.3891 14.3238L22.7081 14.0824ZM22.2364 13.1266C22.1253 12.7527 22.0689 12.3443 22.0689 11.9004H21.6689C21.6689 12.3783 21.7297 12.8255 21.853 13.2405L22.2364 13.1266ZM23.081 11.7773V11.9004H23.481V11.7773H23.081ZM23.081 11.9004C23.081 12.202 23.1095 12.486 23.1677 12.7517L23.5584 12.6662C23.5072 12.432 23.481 12.1769 23.481 11.9004H23.081ZM23.1683 12.7546C23.2311 13.0224 23.3264 13.2635 23.4561 13.4755L23.7973 13.2667C23.6927 13.0958 23.6122 12.8955 23.5578 12.6633L23.1683 12.7546ZM23.4587 13.4796C23.5958 13.6918 23.7701 13.8624 23.9814 13.9882L24.1861 13.6446C24.0302 13.5517 23.8999 13.4254 23.7947 13.2626L23.4587 13.4796ZM23.9857 13.9907C24.2081 14.1158 24.4638 14.1746 24.7459 14.1746V13.7746C24.5201 13.7746 24.3344 13.7279 24.1818 13.6421L23.9857 13.9907ZM24.7459 14.1746C25.1053 14.1746 25.4187 14.0985 25.6713 13.9301L25.4494 13.5973C25.2801 13.7101 25.0505 13.7746 24.7459 13.7746V14.1746ZM25.6698 13.931C25.9163 13.7697 26.1045 13.5517 26.2331 13.2812L25.8719 13.1094C25.7739 13.3155 25.634 13.4764 25.4508 13.5963L25.6698 13.931ZM26.2325 13.2824C26.3592 13.0206 26.4466 12.7319 26.4961 12.4179L26.101 12.3555C26.0569 12.6352 25.9802 12.8856 25.8725 13.1082L26.2325 13.2824ZM26.4986 12.3867V11.3262H26.0986V12.3867H26.4986ZM26.4976 11.3059C26.4726 11.06 26.4202 10.8284 26.3395 10.6118L25.9647 10.7515C26.0325 10.9334 26.0778 11.1314 26.0996 11.3464L26.4976 11.3059ZM26.3407 10.6151C26.2635 10.3963 26.1571 10.2018 26.02 10.0337L25.71 10.2866C25.8151 10.4154 25.9001 10.5685 25.9635 10.7482L26.3407 10.6151ZM26.0216 10.0357C25.8798 9.85739 25.7014 9.72066 25.4896 9.62599L25.3264 9.9912C25.4817 10.0606 25.608 10.1582 25.7084 10.2846L26.0216 10.0357ZM25.4928 9.62746C25.2772 9.52655 25.0302 9.47969 24.7576 9.47969V9.87969C24.985 9.87969 25.1716 9.91877 25.3232 9.98973L25.4928 9.62746ZM24.7576 9.47969C24.4743 9.47969 24.2176 9.54095 23.9947 9.67099L24.1962 10.0165C24.3483 9.9278 24.533 9.87969 24.7576 9.87969V9.47969ZM23.9947 9.67099C23.7783 9.79723 23.601 9.97071 23.4636 10.188L23.8016 10.4019C23.9063 10.2363 24.0377 10.109 24.1962 10.0165L23.9947 9.67099ZM23.462 10.1905C23.3319 10.403 23.2367 10.6463 23.174 10.9179L23.5638 11.0079C23.6183 10.7716 23.6989 10.5697 23.8031 10.3994L23.462 10.1905ZM23.174 10.9179C23.1117 11.1881 23.081 11.4748 23.081 11.7773H23.481C23.481 11.5018 23.5089 11.2455 23.5638 11.0079L23.174 10.9179ZM32.858 13.5059H32.6577L32.6583 13.5168L32.858 13.5059ZM32.858 8.66016V8.46016H32.658V8.66016H32.858ZM34.276 8.66016H34.476V8.46016H34.276V8.66016ZM34.276 15V15.2H34.476V15H34.276ZM32.9401 15L32.7404 15.011L32.7508 15.2H32.9401V15ZM33.0573 12.1875L33.0523 11.9876L32.8573 11.9924V12.1875H33.0573ZM33.5319 12.1758H33.7319V11.9708L33.5269 11.9758L33.5319 12.1758ZM33.3913 13.3535L33.5846 13.4045L33.5848 13.404L33.3913 13.3535ZM32.9577 14.2852L33.1179 14.4048L33.1188 14.4036L32.9577 14.2852ZM32.2077 14.9004L32.2934 15.0811L32.2953 15.0802L32.2077 14.9004ZM29.5944 14.5664L29.4515 14.7063L29.453 14.7078L29.5944 14.5664ZM29.0143 8.66016V8.46016H28.8143V8.66016H29.0143ZM30.4264 8.66016H30.6264V8.46016H30.4264V8.66016ZM30.5084 13.3477L30.3197 13.4137L30.3202 13.4152L30.5084 13.3477ZM32.4069 13.7402L32.5191 13.9058L32.5197 13.9054L32.4069 13.7402ZM32.9049 13.0957L32.7178 13.0252L32.7169 13.0276L32.9049 13.0957ZM33.058 13.5059V8.66016H32.658V13.5059H33.058ZM32.858 8.86016H34.276V8.46016H32.858V8.86016ZM34.076 8.66016V15H34.476V8.66016H34.076ZM34.276 14.8H32.9401V15.2H34.276V14.8ZM33.1398 14.989L33.0577 13.4949L32.6583 13.5168L32.7404 15.011L33.1398 14.989ZM33.0622 12.3874L33.5368 12.3757L33.5269 11.9758L33.0523 11.9876L33.0622 12.3874ZM33.3319 12.1758C33.3319 12.587 33.2866 12.9623 33.1977 13.303L33.5848 13.404C33.6834 13.0259 33.7319 12.6162 33.7319 12.1758H33.3319ZM33.1979 13.3025C33.1098 13.6365 32.9753 13.9235 32.7965 14.1667L33.1188 14.4036C33.3306 14.1155 33.4852 13.7815 33.5846 13.4045L33.1979 13.3025ZM32.7974 14.1655C32.6219 14.4007 32.3972 14.5856 32.1201 14.7206L32.2953 15.0802C32.6275 14.9183 32.9028 14.693 33.1179 14.4048L32.7974 14.1655ZM32.1219 14.7197C31.8501 14.8486 31.5156 14.9172 31.112 14.9172V15.3172C31.5598 15.3172 31.9558 15.2412 32.2934 15.0811L32.1219 14.7197ZM31.112 14.9172C30.8229 14.9172 30.5622 14.8751 30.3282 14.7936L30.1965 15.1713C30.4781 15.2694 30.7838 15.3172 31.112 15.3172V14.9172ZM30.3282 14.7936C30.0979 14.7133 29.9013 14.5905 29.7358 14.425L29.453 14.7078C29.6624 14.9173 29.9111 15.0718 30.1965 15.1713L30.3282 14.7936ZM29.7373 14.4265C29.5787 14.2645 29.4501 14.0482 29.3561 13.77L28.9772 13.898C29.0863 14.2214 29.2429 14.4933 29.4515 14.7063L29.7373 14.4265ZM29.3561 13.77C29.2633 13.4952 29.2143 13.1586 29.2143 12.7559H28.8143C28.8143 13.1891 28.8668 13.5712 28.9772 13.898L29.3561 13.77ZM29.2143 12.7559V8.66016H28.8143V12.7559H29.2143ZM29.0143 8.86016H30.4264V8.46016H29.0143V8.86016ZM30.2264 8.66016V12.7676H30.6264V8.66016H30.2264ZM30.2264 12.7676C30.2264 13.0124 30.2553 13.2297 30.3197 13.4137L30.6972 13.2816C30.6522 13.1531 30.6264 12.9837 30.6264 12.7676H30.2264ZM30.3202 13.4152C30.3827 13.5893 30.471 13.7395 30.5897 13.8582L30.8725 13.5754C30.8037 13.5066 30.7436 13.4107 30.6967 13.2801L30.3202 13.4152ZM30.5897 13.8582C30.706 13.9745 30.8433 14.0581 30.9996 14.1069L31.1189 13.7251C31.0251 13.6958 30.9437 13.6466 30.8725 13.5754L30.5897 13.8582ZM30.9996 14.1069C31.1452 14.1524 31.2983 14.1746 31.4577 14.1746V13.7746C31.3358 13.7746 31.2232 13.7577 31.1189 13.7251L30.9996 14.1069ZM31.4577 14.1746C31.883 14.1746 32.2438 14.0924 32.5191 13.9058L32.2946 13.5747C32.109 13.7005 31.837 13.7746 31.4577 13.7746V14.1746ZM32.5197 13.9054C32.7891 13.7213 32.9812 13.4724 33.093 13.1638L32.7169 13.0276C32.6334 13.2581 32.4934 13.4389 32.294 13.5751L32.5197 13.9054ZM33.0921 13.1662C33.2034 12.8707 33.2573 12.5436 33.2573 12.1875H32.8573C32.8573 12.5033 32.8096 12.7816 32.7178 13.0252L33.0921 13.1662ZM37.355 6H37.555V5.8H37.355V6ZM37.355 15V15.2H37.555V15H37.355ZM35.937 15H35.737V15.2H35.937V15ZM35.937 6V5.8H35.737V6H35.937ZM37.155 6V15H37.555V6H37.155ZM37.355 14.8H35.937V15.2H37.355V14.8ZM36.137 15V6H35.737V15H36.137ZM35.937 6.2H37.355V5.8H35.937V6.2ZM42.098 9.73828L42.002 9.91371L42.0037 9.91464L42.098 9.73828ZM40.3461 10.4883V10.6883H40.5461V10.4883H40.3461ZM38.9398 10.4883H38.7398V10.6883H38.9398V10.4883ZM42.8188 8.7832L42.7388 8.96653L42.7395 8.96683L42.8188 8.7832ZM43.6918 9.50977L43.5241 9.61884L43.5257 9.62117L43.6918 9.50977ZM44.0727 14.3145L43.8754 14.3479L43.8762 14.3517L44.0727 14.3145ZM44.2543 14.9062H44.4543V14.862L44.4356 14.8219L44.2543 14.9062ZM44.2543 15V15.2H44.4543V15H44.2543ZM42.807 15L42.6237 15.0799L42.676 15.2H42.807V15ZM42.6488 14.4199L42.4509 14.4491L42.4515 14.4528L42.6488 14.4199ZM42.8012 11.1445L43.0012 11.1418L42.9985 10.9445H42.8012V11.1445ZM42.8129 12.0176V12.2176H43.0156L43.0129 12.0149L42.8129 12.0176ZM41.1078 12.0938L41.1536 12.2885L41.1572 12.2876L41.1078 12.0938ZM40.3285 13.5586L40.1537 13.6557L40.1549 13.6578L40.3285 13.5586ZM40.6684 13.8809L40.5752 14.0579L40.5771 14.0588L40.6684 13.8809ZM41.975 13.8223L42.0708 13.9978L42.0719 13.9972L41.975 13.8223ZM42.4906 13.3828L42.6524 13.5005L42.6536 13.4987L42.4906 13.3828ZM42.6898 12.8848L42.8515 12.767L42.5183 12.31L42.4901 12.8748L42.6898 12.8848ZM43.1469 13.5117L43.3388 13.5679L43.3665 13.4734L43.3085 13.3939L43.1469 13.5117ZM42.4613 14.5547L42.5962 14.7024L42.5963 14.7022L42.4613 14.5547ZM41.8109 14.959L41.7342 14.7743L41.7332 14.7747L41.8109 14.959ZM39.8363 14.8711L39.7443 15.0487L39.746 15.0495L39.8363 14.8711ZM39.0746 14.1973L38.9064 14.3055L38.9071 14.3066L39.0746 14.1973ZM38.9867 12.3398L38.8073 12.2515L38.8068 12.2526L38.9867 12.3398ZM39.5492 11.6836L39.4342 11.52L39.433 11.5208L39.5492 11.6836ZM40.4633 11.2852L40.5118 11.4792L40.5138 11.4787L40.4633 11.2852ZM42.7961 13.7285V10.7051H42.3961V13.7285H42.7961ZM42.7961 10.7051C42.7961 10.4546 42.7507 10.2273 42.6519 10.0297L42.2942 10.2086C42.3594 10.3391 42.3961 10.5024 42.3961 10.7051H42.7961ZM42.6519 10.0297C42.5506 9.82712 42.3954 9.67049 42.1924 9.56192L42.0037 9.91464C42.1367 9.98576 42.2314 10.083 42.2942 10.2086L42.6519 10.0297ZM42.1941 9.56286C41.9923 9.45237 41.7497 9.40352 41.477 9.40352V9.80352C41.7042 9.80352 41.8756 9.8445 42.002 9.9137L42.1941 9.56286ZM41.477 9.40352C41.2243 9.40352 40.995 9.44633 40.795 9.53936L40.9636 9.90205C41.0996 9.83883 41.2687 9.80352 41.477 9.80352V9.40352ZM40.795 9.53936C40.5998 9.63012 40.4399 9.75665 40.3233 9.92177L40.6501 10.1524C40.7211 10.0519 40.8228 9.96753 40.9636 9.90205L40.795 9.53936ZM40.3233 9.92177C40.2049 10.0895 40.1461 10.2805 40.1461 10.4883H40.5461C40.5461 10.3602 40.581 10.2503 40.6501 10.1524L40.3233 9.92177ZM40.3461 10.2883H38.9398V10.6883H40.3461V10.2883ZM39.1398 10.4883C39.1398 10.272 39.1919 10.0611 39.2992 9.85352L38.9438 9.66991C38.8089 9.93106 38.7398 10.2046 38.7398 10.4883H39.1398ZM39.2992 9.85352C39.4059 9.64697 39.5624 9.45929 39.7734 9.2912L39.5242 8.97833C39.2743 9.17743 39.0793 9.40772 38.9438 9.66991L39.2992 9.85352ZM39.7734 9.2912C39.9829 9.12434 40.2365 8.99025 40.5376 8.89114L40.4125 8.5112C40.0728 8.62303 39.7757 8.778 39.5242 8.97833L39.7734 9.2912ZM40.5376 8.89114C40.8344 8.7934 41.1722 8.74297 41.5531 8.74297V8.34297C41.1372 8.34297 40.7562 8.39801 40.4125 8.5112L40.5376 8.89114ZM41.5531 8.74297C42.0073 8.74297 42.4011 8.81925 42.7388 8.96652L42.8987 8.59988C42.502 8.42684 42.0521 8.34297 41.5531 8.34297V8.74297ZM42.7395 8.96683C43.0761 9.11212 43.3357 9.32916 43.5242 9.61883L43.8594 9.4007C43.626 9.04193 43.3035 8.7746 42.898 8.59957L42.7395 8.96683ZM43.5257 9.62117C43.7134 9.901 43.8141 10.2619 43.8141 10.7168H44.2141C44.2141 10.2029 44.0999 9.75915 43.8579 9.39836L43.5257 9.62117ZM43.8141 10.7168V13.5352H44.2141V10.7168H43.8141ZM43.8141 13.5352C43.8141 13.8329 43.8342 14.1041 43.8755 14.3479L44.2698 14.281C44.233 14.0638 44.2141 13.8155 44.2141 13.5352H43.8141ZM43.8762 14.3517C43.9215 14.5908 43.9864 14.8045 44.073 14.9906L44.4356 14.8219C44.366 14.6721 44.3098 14.4913 44.2692 14.2772L43.8762 14.3517ZM44.0543 14.9062V15H44.4543V14.9062H44.0543ZM44.2543 14.8H42.807V15.2H44.2543V14.8ZM42.9904 14.9201C42.9327 14.7877 42.8835 14.6115 42.8461 14.387L42.4515 14.4528C42.4923 14.6971 42.5486 14.9076 42.6237 15.0799L42.9904 14.9201ZM42.8467 14.3907C42.8128 14.1613 42.7961 13.9406 42.7961 13.7285H42.3961C42.3961 13.9617 42.4145 14.2019 42.451 14.4491L42.8467 14.3907ZM42.6012 11.1472L42.6129 12.0203L43.0129 12.0149L43.0012 11.1418L42.6012 11.1472ZM42.8129 11.8176H41.7992V12.2176H42.8129V11.8176ZM41.7992 11.8176C41.5251 11.8176 41.2775 11.8441 41.0584 11.8999L41.1572 12.2876C41.3366 12.2418 41.5499 12.2176 41.7992 12.2176V11.8176ZM41.062 11.8991C40.844 11.9504 40.6529 12.0295 40.4944 12.1413L40.7251 12.4681C40.8323 12.3924 40.9731 12.3309 41.1536 12.2884L41.062 11.8991ZM40.4944 12.1413C40.3373 12.2522 40.2146 12.39 40.1321 12.5551L40.4898 12.734C40.5401 12.6334 40.6166 12.5446 40.7251 12.4681L40.4944 12.1413ZM40.1321 12.5551C40.05 12.7191 40.0113 12.9008 40.0113 13.0957H40.4113C40.4113 12.9547 40.439 12.8356 40.4898 12.734L40.1321 12.5551ZM40.0113 13.0957C40.0113 13.2961 40.0583 13.4841 40.1537 13.6557L40.5033 13.4615C40.4425 13.3519 40.4113 13.2312 40.4113 13.0957H40.0113ZM40.1549 13.6578C40.2531 13.8298 40.3954 13.9632 40.5752 14.0578L40.7615 13.7039C40.6445 13.6423 40.5602 13.5608 40.5022 13.4594L40.1549 13.6578ZM40.5771 14.0588C40.764 14.1547 40.9805 14.198 41.2191 14.198V13.798C41.0281 13.798 40.8774 13.7633 40.7596 13.7029L40.5771 14.0588ZM41.2191 14.198C41.5356 14.198 41.8216 14.1337 42.0708 13.9978L41.8792 13.6467C41.6987 13.7452 41.4808 13.798 41.2191 13.798V14.198ZM42.0719 13.9972C42.3117 13.8645 42.5074 13.6998 42.6524 13.5004L42.3289 13.2652C42.2238 13.4096 42.0758 13.5379 41.8781 13.6473L42.0719 13.9972ZM42.6536 13.4987C42.7926 13.3032 42.8793 13.101 42.8896 12.8948L42.4901 12.8748C42.4848 12.9811 42.4386 13.1109 42.3276 13.2669L42.6536 13.4987ZM42.5282 13.0026L42.9853 13.6295L43.3085 13.3939L42.8515 12.767L42.5282 13.0026ZM42.9549 13.4555C42.9143 13.5944 42.8429 13.7498 42.7364 13.9223L43.0768 14.1324C43.1969 13.9377 43.2857 13.7494 43.3388 13.5679L42.9549 13.4555ZM42.7364 13.9223C42.6342 14.088 42.4983 14.2498 42.3263 14.4071L42.5963 14.7022C42.7915 14.5237 42.9525 14.3339 43.0768 14.1324L42.7364 13.9223ZM42.3265 14.407C42.1659 14.5536 41.9695 14.6766 41.7342 14.7743L41.8877 15.1437C42.1602 15.0305 42.3973 14.8839 42.5962 14.7024L42.3265 14.407ZM41.7332 14.7747C41.5124 14.8679 41.2506 14.9172 40.9438 14.9172V15.3172C41.2931 15.3172 41.6095 15.261 41.8887 15.1433L41.7332 14.7747ZM40.9438 14.9172C40.5567 14.9172 40.2192 14.8407 39.9266 14.6926L39.746 15.0495C40.1019 15.2296 40.5027 15.3172 40.9438 15.3172V14.9172ZM39.9283 14.6935C39.632 14.54 39.4052 14.3378 39.2421 14.0879L38.9071 14.3066C39.1112 14.6192 39.3922 14.8663 39.7443 15.0487L39.9283 14.6935ZM39.2428 14.089C39.0812 13.8381 38.9992 13.5538 38.9992 13.2305H38.5992C38.5992 13.6258 38.7008 13.9861 38.9064 14.3055L39.2428 14.089ZM38.9992 13.2305C38.9992 12.9196 39.057 12.6534 39.1667 12.4271L38.8068 12.2526C38.6665 12.5419 38.5992 12.8695 38.5992 13.2305H38.9992ZM39.1661 12.4282C39.2799 12.1972 39.4452 12.0037 39.6655 11.8463L39.433 11.5208C39.161 11.7151 38.9513 11.959 38.8073 12.2515L39.1661 12.4282ZM39.6643 11.8472C39.8904 11.6882 40.1714 11.5643 40.5118 11.4792L40.4148 11.0911C40.0365 11.1857 39.7081 11.3274 39.4342 11.52L39.6643 11.8472ZM40.5138 11.4787C40.8533 11.3901 41.2459 11.3445 41.6938 11.3445V10.9445C41.2197 10.9445 40.7921 10.9927 40.4128 11.0916L40.5138 11.4787ZM41.6938 11.3445H42.8012V10.9445H41.6938V11.3445ZM47.0286 9.86719H47.2289L47.2283 9.85652L47.0286 9.86719ZM47.0286 15V15.2H47.2286V15H47.0286ZM45.6165 15H45.4165V15.2H45.6165V15ZM45.6165 8.66016V8.46016H45.4165V8.66016H45.6165ZM46.9641 8.66016L47.1639 8.64949L47.1537 8.46016H46.9641V8.66016ZM48.968 8.61914L49.168 8.62093L49.1693 8.48225L49.0398 8.43247L48.968 8.61914ZM48.9563 9.93164L48.9206 10.1284L49.1542 10.1709L49.1563 9.93343L48.9563 9.93164ZM48.6751 9.89648L48.6591 10.0958L48.6597 10.0959L48.6751 9.89648ZM47.7434 9.99023L47.8115 10.1783L47.815 10.177L47.7434 9.99023ZM47.2805 10.2832L47.137 10.144L47.1369 10.144L47.2805 10.2832ZM46.8821 11.3438L46.8966 11.5432L47.0726 11.5304L47.0818 11.3543L46.8821 11.3438ZM46.5598 11.3672H46.3598V11.5823L46.5744 11.5667L46.5598 11.3672ZM47.0286 9.36328L46.8587 9.25774L46.8576 9.25962L47.0286 9.36328ZM47.6263 8.75977L47.5238 8.58802L47.5225 8.58876L47.6263 8.75977ZM48.7395 8.56641L48.7079 8.7639L48.7091 8.76408L48.7395 8.56641ZM46.8286 9.86719V15H47.2286V9.86719H46.8286ZM47.0286 14.8H45.6165V15.2H47.0286V14.8ZM45.8165 15V8.66016H45.4165V15H45.8165ZM45.6165 8.86016H46.9641V8.46016H45.6165V8.86016ZM46.7644 8.67082L46.8289 9.87785L47.2283 9.85652L47.1639 8.64949L46.7644 8.67082ZM48.7681 8.61735L48.7563 9.92985L49.1563 9.93343L49.168 8.62093L48.7681 8.61735ZM48.9921 9.73487C48.8984 9.71783 48.7977 9.70533 48.6904 9.69707L48.6597 10.0959C48.7555 10.1033 48.8424 10.1142 48.9206 10.1284L48.9921 9.73487ZM48.691 9.69712C48.5881 9.68889 48.4851 9.68477 48.3821 9.68477V10.0848C48.4744 10.0848 48.5668 10.0885 48.6591 10.0958L48.691 9.69712ZM48.3821 9.68477C48.121 9.68477 47.8829 9.72264 47.6719 9.80346L47.815 10.177C47.9711 10.1172 48.1589 10.0848 48.3821 10.0848V9.68477ZM47.6754 9.80216C47.4658 9.87798 47.2849 9.9914 47.137 10.144L47.4241 10.4224C47.5262 10.3172 47.6539 10.2353 47.8115 10.1783L47.6754 9.80216ZM47.1369 10.144C46.9946 10.2909 46.8868 10.4678 46.8117 10.6709L47.1869 10.8096C47.2446 10.6533 47.3243 10.5255 47.4242 10.4224L47.1369 10.144ZM46.8117 10.6709C46.7373 10.8723 46.695 11.0937 46.6824 11.3332L47.0818 11.3543C47.0927 11.1485 47.1285 10.9676 47.1869 10.8096L46.8117 10.6709ZM46.8676 11.1443L46.5453 11.1677L46.5744 11.5667L46.8966 11.5432L46.8676 11.1443ZM46.7598 11.3672C46.7598 10.9817 46.7976 10.6278 46.8719 10.3046L46.4821 10.215C46.4002 10.5714 46.3598 10.9558 46.3598 11.3672H46.7598ZM46.8719 10.3046C46.946 9.98231 47.056 9.70393 47.1996 9.46694L46.8576 9.25962C46.6887 9.53825 46.5643 9.85754 46.4821 10.215L46.8719 10.3046ZM47.1985 9.46882C47.3435 9.2353 47.5209 9.05756 47.73 8.93077L47.5225 8.58876C47.255 8.75103 47.034 8.97564 46.8587 9.25774L47.1985 9.46882ZM47.7287 8.93151C47.9363 8.80765 48.1793 8.74297 48.4641 8.74297V8.34297C48.1162 8.34297 47.8006 8.42282 47.5238 8.58802L47.7287 8.93151ZM48.4641 8.74297C48.5381 8.74297 48.6192 8.7497 48.7079 8.76389L48.7711 8.36892C48.6645 8.35187 48.5621 8.34297 48.4641 8.34297V8.74297ZM48.7091 8.76408C48.8067 8.77909 48.8658 8.79411 48.8963 8.80581L49.0398 8.43247C48.9687 8.4051 48.8755 8.38498 48.7699 8.36873L48.7091 8.76408Z" fill="#010101" fill-opacity="0.098" mask="url(#path-2-inside-1_9_293)"/>
<path d="M12.3008 12.7285V9.70508C12.3008 9.47852 12.2598 9.2832 12.1777 9.11914C12.0957 8.95508 11.9707 8.82812 11.8027 8.73828C11.6387 8.64844 11.4316 8.60352 11.1816 8.60352C10.9512 8.60352 10.752 8.64258 10.584 8.7207C10.416 8.79883 10.2852 8.9043 10.1914 9.03711C10.0977 9.16992 10.0508 9.32031 10.0508 9.48828H8.64453C8.64453 9.23828 8.70508 8.99609 8.82617 8.76172C8.94727 8.52734 9.12305 8.31836 9.35352 8.13477C9.58398 7.95117 9.85938 7.80664 10.1797 7.70117C10.5 7.5957 10.8594 7.54297 11.2578 7.54297C11.7344 7.54297 12.1562 7.62305 12.5234 7.7832C12.8945 7.94336 13.1855 8.18555 13.3965 8.50977C13.6113 8.83008 13.7188 9.23242 13.7188 9.7168V12.5352C13.7188 12.8242 13.7383 13.084 13.7773 13.3145C13.8203 13.541 13.8809 13.7383 13.959 13.9062V14H12.5117C12.4453 13.8477 12.3926 13.6543 12.3535 13.4199C12.3184 13.1816 12.3008 12.9512 12.3008 12.7285ZM12.5059 10.1445L12.5176 11.0176H11.5039C11.2422 11.0176 11.0117 11.043 10.8125 11.0938C10.6133 11.1406 10.4473 11.2109 10.3145 11.3047C10.1816 11.3984 10.082 11.5117 10.0156 11.6445C9.94922 11.7773 9.91602 11.9277 9.91602 12.0957C9.91602 12.2637 9.95508 12.418 10.0332 12.5586C10.1113 12.6953 10.2246 12.8027 10.373 12.8809C10.5254 12.959 10.709 12.998 10.9238 12.998C11.2129 12.998 11.4648 12.9395 11.6797 12.8223C11.8984 12.7012 12.0703 12.5547 12.1953 12.3828C12.3203 12.207 12.3867 12.041 12.3945 11.8848L12.8516 12.5117C12.8047 12.6719 12.7246 12.8438 12.6113 13.0273C12.498 13.2109 12.3496 13.3867 12.166 13.5547C11.9863 13.7188 11.7695 13.8535 11.5156 13.959C11.2656 14.0645 10.9766 14.1172 10.6484 14.1172C10.2344 14.1172 9.86523 14.0352 9.54102 13.8711C9.2168 13.7031 8.96289 13.4785 8.7793 13.1973C8.5957 12.9121 8.50391 12.5898 8.50391 12.2305C8.50391 11.8945 8.56641 11.5977 8.69141 11.3398C8.82031 11.0781 9.00781 10.8594 9.25391 10.6836C9.50391 10.5078 9.80859 10.375 10.168 10.2852C10.5273 10.1914 10.9375 10.1445 11.3984 10.1445H12.5059ZM16.7157 9.01367V14H15.3036V7.66016H16.6337L16.7157 9.01367ZM16.4637 10.5957L16.0067 10.5898C16.0106 10.1406 16.0731 9.72852 16.1942 9.35352C16.3192 8.97852 16.4911 8.65625 16.7098 8.38672C16.9325 8.11719 17.1981 7.91016 17.5067 7.76562C17.8153 7.61719 18.1591 7.54297 18.538 7.54297C18.8427 7.54297 19.118 7.58594 19.3641 7.67188C19.6141 7.75391 19.827 7.88867 20.0028 8.07617C20.1825 8.26367 20.3192 8.50781 20.413 8.80859C20.5067 9.10547 20.5536 9.4707 20.5536 9.9043V14H19.1356V9.89844C19.1356 9.59375 19.0907 9.35352 19.0009 9.17773C18.9149 8.99805 18.788 8.87109 18.62 8.79688C18.4559 8.71875 18.2509 8.67969 18.0048 8.67969C17.7626 8.67969 17.5458 8.73047 17.3544 8.83203C17.163 8.93359 17.0009 9.07227 16.868 9.24805C16.7391 9.42383 16.6395 9.62695 16.5692 9.85742C16.4989 10.0879 16.4637 10.334 16.4637 10.5957ZM26.1755 7.66016H27.4587V13.8242C27.4587 14.3945 27.3377 14.8789 27.0955 15.2773C26.8533 15.6758 26.5154 15.9785 26.0818 16.1855C25.6482 16.3965 25.1462 16.502 24.5759 16.502C24.3337 16.502 24.0642 16.4668 23.7673 16.3965C23.4744 16.3262 23.1892 16.2129 22.9119 16.0566C22.6384 15.9043 22.4099 15.7031 22.2263 15.4531L22.8884 14.6211C23.115 14.8906 23.365 15.0879 23.6384 15.2129C23.9119 15.3379 24.199 15.4004 24.4998 15.4004C24.824 15.4004 25.0994 15.3398 25.3259 15.2188C25.5564 15.1016 25.7341 14.9277 25.8591 14.6973C25.9841 14.4668 26.0466 14.1855 26.0466 13.8535V9.0957L26.1755 7.66016ZM21.8689 10.9004V10.7773C21.8689 10.2969 21.9275 9.85938 22.0447 9.46484C22.1619 9.06641 22.3298 8.72461 22.5486 8.43945C22.7673 8.15039 23.033 7.92969 23.3455 7.77734C23.658 7.62109 24.0115 7.54297 24.406 7.54297C24.8162 7.54297 25.1658 7.61719 25.4548 7.76562C25.7478 7.91406 25.992 8.12695 26.1873 8.4043C26.3826 8.67773 26.5349 9.00586 26.6443 9.38867C26.7576 9.76758 26.8416 10.1895 26.8962 10.6543V11.0469C26.8455 11.5 26.7595 11.9141 26.6384 12.2891C26.5173 12.6641 26.3572 12.9883 26.158 13.2617C25.9587 13.5352 25.7127 13.7461 25.4197 13.8945C25.1306 14.043 24.7888 14.1172 24.3943 14.1172C24.0076 14.1172 23.658 14.0371 23.3455 13.877C23.0369 13.7168 22.7712 13.4922 22.5486 13.2031C22.3298 12.9141 22.1619 12.5742 22.0447 12.1836C21.9275 11.7891 21.8689 11.3613 21.8689 10.9004ZM23.281 10.7773V10.9004C23.281 11.1895 23.3084 11.459 23.363 11.709C23.4216 11.959 23.5095 12.1797 23.6267 12.3711C23.7478 12.5586 23.9002 12.707 24.0837 12.8164C24.2712 12.9219 24.492 12.9746 24.7459 12.9746C25.0779 12.9746 25.3494 12.9043 25.5603 12.7637C25.7752 12.623 25.9392 12.4336 26.0525 12.1953C26.1697 11.9531 26.2517 11.6836 26.2986 11.3867V10.3262C26.2752 10.0957 26.2263 9.88086 26.1521 9.68164C26.0818 9.48242 25.9861 9.30859 25.865 9.16016C25.7439 9.00781 25.5916 8.89062 25.408 8.80859C25.2244 8.72266 25.0076 8.67969 24.7576 8.67969C24.5037 8.67969 24.283 8.73438 24.0955 8.84375C23.908 8.95312 23.7537 9.10352 23.6326 9.29492C23.5154 9.48633 23.4275 9.70898 23.3689 9.96289C23.3103 10.2168 23.281 10.4883 23.281 10.7773ZM32.858 12.5059V7.66016H34.276V14H32.9401L32.858 12.5059ZM33.0573 11.1875L33.5319 11.1758C33.5319 11.6016 33.485 11.9941 33.3913 12.3535C33.2975 12.709 33.153 13.0195 32.9577 13.2852C32.7623 13.5469 32.5123 13.752 32.2077 13.9004C31.903 14.0449 31.5377 14.1172 31.112 14.1172C30.8034 14.1172 30.5202 14.0723 30.2623 13.9824C30.0045 13.8926 29.7819 13.7539 29.5944 13.5664C29.4108 13.3789 29.2682 13.1348 29.1666 12.834C29.0651 12.5332 29.0143 12.1738 29.0143 11.7559V7.66016H30.4264V11.7676C30.4264 11.998 30.4538 12.1914 30.5084 12.3477C30.5631 12.5 30.6373 12.623 30.7311 12.7168C30.8248 12.8105 30.9342 12.877 31.0592 12.916C31.1842 12.9551 31.317 12.9746 31.4577 12.9746C31.86 12.9746 32.1764 12.8965 32.4069 12.7402C32.6413 12.5801 32.8073 12.3652 32.9049 12.0957C33.0065 11.8262 33.0573 11.5234 33.0573 11.1875ZM37.355 5V14H35.937V5H37.355ZM42.5961 12.7285V9.70508C42.5961 9.47852 42.5551 9.2832 42.473 9.11914C42.391 8.95508 42.266 8.82812 42.098 8.73828C41.934 8.64844 41.727 8.60352 41.477 8.60352C41.2465 8.60352 41.0473 8.64258 40.8793 8.7207C40.7113 8.79883 40.5805 8.9043 40.4867 9.03711C40.393 9.16992 40.3461 9.32031 40.3461 9.48828H38.9398C38.9398 9.23828 39.0004 8.99609 39.1215 8.76172C39.2426 8.52734 39.4184 8.31836 39.6488 8.13477C39.8793 7.95117 40.1547 7.80664 40.475 7.70117C40.7953 7.5957 41.1547 7.54297 41.5531 7.54297C42.0297 7.54297 42.4516 7.62305 42.8188 7.7832C43.1898 7.94336 43.4809 8.18555 43.6918 8.50977C43.9066 8.83008 44.0141 9.23242 44.0141 9.7168V12.5352C44.0141 12.8242 44.0336 13.084 44.0727 13.3145C44.1156 13.541 44.1762 13.7383 44.2543 13.9062V14H42.807C42.7406 13.8477 42.6879 13.6543 42.6488 13.4199C42.6137 13.1816 42.5961 12.9512 42.5961 12.7285ZM42.8012 10.1445L42.8129 11.0176H41.7992C41.5375 11.0176 41.307 11.043 41.1078 11.0938C40.9086 11.1406 40.7426 11.2109 40.6098 11.3047C40.477 11.3984 40.3773 11.5117 40.3109 11.6445C40.2445 11.7773 40.2113 11.9277 40.2113 12.0957C40.2113 12.2637 40.2504 12.418 40.3285 12.5586C40.4066 12.6953 40.5199 12.8027 40.6684 12.8809C40.8207 12.959 41.0043 12.998 41.2191 12.998C41.5082 12.998 41.7602 12.9395 41.975 12.8223C42.1938 12.7012 42.3656 12.5547 42.4906 12.3828C42.6156 12.207 42.682 12.041 42.6898 11.8848L43.1469 12.5117C43.1 12.6719 43.0199 12.8438 42.9066 13.0273C42.7934 13.2109 42.6449 13.3867 42.4613 13.5547C42.2816 13.7188 42.0648 13.8535 41.8109 13.959C41.5609 14.0645 41.2719 14.1172 40.9438 14.1172C40.5297 14.1172 40.1605 14.0352 39.8363 13.8711C39.5121 13.7031 39.2582 13.4785 39.0746 13.1973C38.891 12.9121 38.7992 12.5898 38.7992 12.2305C38.7992 11.8945 38.8617 11.5977 38.9867 11.3398C39.1156 11.0781 39.3031 10.8594 39.5492 10.6836C39.7992 10.5078 40.1039 10.375 40.4633 10.2852C40.8227 10.1914 41.2328 10.1445 41.6938 10.1445H42.8012ZM47.0286 8.86719V14H45.6165V7.66016H46.9641L47.0286 8.86719ZM48.968 7.61914L48.9563 8.93164C48.8704 8.91602 48.7766 8.9043 48.6751 8.89648C48.5774 8.88867 48.4798 8.88477 48.3821 8.88477C48.1399 8.88477 47.927 8.91992 47.7434 8.99023C47.5598 9.05664 47.4055 9.1543 47.2805 9.2832C47.1595 9.4082 47.0657 9.56055 46.9993 9.74023C46.9329 9.91992 46.8938 10.1211 46.8821 10.3438L46.5598 10.3672C46.5598 9.96875 46.5989 9.59961 46.677 9.25977C46.7552 8.91992 46.8723 8.62109 47.0286 8.36328C47.1888 8.10547 47.388 7.9043 47.6263 7.75977C47.8684 7.61523 48.1477 7.54297 48.4641 7.54297C48.5501 7.54297 48.6419 7.55078 48.7395 7.56641C48.8411 7.58203 48.9173 7.59961 48.968 7.61914Z" fill="white"/>
<path d="M55 0H77.034C78.6909 0 80.034 1.34315 80.034 3V17C80.034 18.6569 78.6909 20 77.034 20H55V0Z" fill="#990022"/>
<path d="M66.327 10.378H67.517H68.707L67.517 7.51501L66.327 10.378Z" fill="white"/>
<path d="M67.517 3L61 5.324L61.994 13.941L67.517 17L73.04 13.941L74.034 5.324L67.517 3ZM71.584 13.682H70.065L69.246 11.638H67.517H65.788L64.969 13.682H63.45L67.517 4.547L71.584 13.682Z" fill="white"/>
<path d="M2 0H78C79.1046 0 80 1.34315 80 3V17C80 18.6569 79.1046 20 78 20H2C0.895431 20 0 18.6569 0 17V3C0 1.34315 0.895431 0 2 0Z" fill="url(#paint0_linear_9_293)"/>
<defs>
<linearGradient id="paint0_linear_9_293" x1="0" y1="0" x2="0" y2="20" gradientUnits="userSpaceOnUse">
<stop stop-color="#BBBBBB" stop-opacity="0.1"/>
<stop offset="1" stop-opacity="0.1"/>
</linearGradient>
</defs>
</svg>
