<svg width="108" height="20" viewBox="0 0 108 20" fill="none" xmlns="http://www.w3.org/2000/svg">
<rect width="108" height="20" rx="3" fill="#007EBB"/>
<g clip-path="url(#clip0_4_1101)">
<path fill-rule="evenodd" clip-rule="evenodd" d="M9.44444 16.5H19.5556C20.3533 16.5 21 15.8533 21 15.0556V4.94444C21 4.1467 20.3533 3.5 19.5556 3.5H9.44444C8.6467 3.5 8 4.1467 8 4.94444V15.0556C8 15.8533 8.6467 16.5 9.44444 16.5Z" fill="white"/>
<path fill-rule="evenodd" clip-rule="evenodd" d="M19.1944 14.6944H17.2653V11.4087C17.2653 10.5078 16.923 10.0044 16.21 10.0044C15.4343 10.0044 15.029 10.5283 15.029 11.4087V14.6944H13.1699V8.43517H15.029V9.27829C15.029 9.27829 15.588 8.24394 16.9163 8.24394C18.2439 8.24394 19.1944 9.05468 19.1944 10.7315V14.6944ZM10.952 7.61557C10.3187 7.61557 9.80556 7.0984 9.80556 6.46056C9.80556 5.82272 10.3187 5.30554 10.952 5.30554C11.5852 5.30554 12.0981 5.82272 12.0981 6.46056C12.0981 7.0984 11.5852 7.61557 10.952 7.61557ZM9.99199 14.6944H11.9306V8.43517H9.99199V14.6944Z" fill="#007EBB"/>
</g>
<mask id="path-4-inside-1_4_1101" fill="white">
<path d="M32.2109 13.834V15H27.9277V13.834H32.2109ZM28.3379 6.46875V15H26.8672V6.46875H28.3379ZM36.122 15.1172C35.6532 15.1172 35.2294 15.041 34.8505 14.8887C34.4755 14.7324 34.1552 14.5156 33.8895 14.2383C33.6278 13.9609 33.4266 13.6348 33.286 13.2598C33.1454 12.8848 33.0751 12.4805 33.0751 12.0469V11.8125C33.0751 11.3164 33.1473 10.8672 33.2919 10.4648C33.4364 10.0625 33.6376 9.71875 33.8954 9.43359C34.1532 9.14453 34.4579 8.92383 34.8095 8.77148C35.161 8.61914 35.5419 8.54297 35.952 8.54297C36.4052 8.54297 36.8016 8.61914 37.1415 8.77148C37.4813 8.92383 37.7626 9.13867 37.9852 9.41602C38.2118 9.68945 38.3798 10.0156 38.4891 10.3945C38.6024 10.7734 38.6591 11.1914 38.6591 11.6484V12.252H33.7606V11.2383H37.2645V11.127C37.2567 10.873 37.2059 10.6348 37.1122 10.4121C37.0223 10.1895 36.8837 10.0098 36.6962 9.87305C36.5087 9.73633 36.2587 9.66797 35.9462 9.66797C35.7118 9.66797 35.5028 9.71875 35.3192 9.82031C35.1395 9.91797 34.9891 10.0605 34.868 10.248C34.747 10.4355 34.6532 10.6621 34.5868 10.9277C34.5243 11.1895 34.493 11.4844 34.493 11.8125V12.0469C34.493 12.3242 34.5302 12.582 34.6044 12.8203C34.6825 13.0547 34.7958 13.2598 34.9442 13.4355C35.0927 13.6113 35.2723 13.75 35.4833 13.8516C35.6942 13.9492 35.9345 13.998 36.204 13.998C36.5438 13.998 36.8466 13.9297 37.1122 13.793C37.3778 13.6562 37.6083 13.4629 37.8036 13.2129L38.5477 13.9336C38.411 14.1328 38.2333 14.3242 38.0145 14.5078C37.7958 14.6875 37.5282 14.834 37.2118 14.9473C36.8993 15.0605 36.536 15.1172 36.122 15.1172ZM42.7869 8.66016V9.69141H39.2127V8.66016H42.7869ZM40.2439 7.10742H41.656V13.248C41.656 13.4434 41.6834 13.5938 41.738 13.6992C41.7966 13.8008 41.8767 13.8691 41.9783 13.9043C42.0798 13.9395 42.199 13.957 42.3357 13.957C42.4334 13.957 42.5271 13.9512 42.617 13.9395C42.7068 13.9277 42.7791 13.916 42.8337 13.9043L42.8396 14.9824C42.7224 15.0176 42.5857 15.0488 42.4295 15.0762C42.2771 15.1035 42.1013 15.1172 41.9021 15.1172C41.5779 15.1172 41.2908 15.0605 41.0408 14.9473C40.7908 14.8301 40.5955 14.6406 40.4548 14.3789C40.3142 14.1172 40.2439 13.7695 40.2439 13.3359V7.10742ZM45.3854 6V6.82617C45.3854 7.07227 45.3405 7.32812 45.2506 7.59375C45.1647 7.85547 45.0436 8.10742 44.8873 8.34961C44.7311 8.58789 44.5514 8.79492 44.3483 8.9707L43.6393 8.52539C43.7995 8.2832 43.9284 8.02734 44.026 7.75781C44.1276 7.48438 44.1784 7.17773 44.1784 6.83789V6H45.3854ZM49.396 13.2832C49.396 13.1426 49.3609 13.0156 49.2905 12.9023C49.2202 12.7852 49.0855 12.6797 48.8862 12.5859C48.6909 12.4922 48.4019 12.4062 48.0191 12.3281C47.6831 12.2539 47.3745 12.166 47.0933 12.0645C46.8159 11.959 46.5777 11.832 46.3784 11.6836C46.1792 11.5352 46.0249 11.3594 45.9155 11.1562C45.8062 10.9531 45.7515 10.7188 45.7515 10.4531C45.7515 10.1953 45.8081 9.95117 45.9214 9.7207C46.0347 9.49023 46.1968 9.28711 46.4077 9.11133C46.6187 8.93555 46.8745 8.79688 47.1753 8.69531C47.48 8.59375 47.8198 8.54297 48.1948 8.54297C48.7261 8.54297 49.1812 8.63281 49.5601 8.8125C49.9429 8.98828 50.2359 9.22852 50.439 9.5332C50.6421 9.83398 50.7437 10.1738 50.7437 10.5527H49.3316C49.3316 10.3848 49.2886 10.2285 49.2027 10.084C49.1206 9.93555 48.9956 9.81641 48.8277 9.72656C48.6597 9.63281 48.4487 9.58594 48.1948 9.58594C47.9527 9.58594 47.7515 9.625 47.5913 9.70312C47.4351 9.77734 47.3179 9.875 47.2398 9.99609C47.1655 10.1172 47.1284 10.25 47.1284 10.3945C47.1284 10.5 47.148 10.5957 47.187 10.6816C47.23 10.7637 47.3003 10.8398 47.398 10.9102C47.4956 10.9766 47.6284 11.0391 47.7964 11.0977C47.9683 11.1562 48.1831 11.2129 48.4409 11.2676C48.9253 11.3691 49.3413 11.5 49.689 11.6602C50.0405 11.8164 50.3101 12.0195 50.4976 12.2695C50.6851 12.5156 50.7788 12.8281 50.7788 13.207C50.7788 13.4883 50.7183 13.7461 50.5972 13.9805C50.48 14.2109 50.3081 14.4121 50.0816 14.584C49.855 14.752 49.5835 14.8828 49.2671 14.9766C48.9546 15.0703 48.603 15.1172 48.2124 15.1172C47.6382 15.1172 47.1519 15.0156 46.7534 14.8125C46.355 14.6055 46.0523 14.3418 45.8452 14.0215C45.6421 13.6973 45.5405 13.3613 45.5405 13.0137H46.9058C46.9214 13.2754 46.9937 13.4844 47.1226 13.6406C47.2554 13.793 47.4195 13.9043 47.6148 13.9746C47.814 14.041 48.0191 14.0742 48.23 14.0742C48.4839 14.0742 48.6968 14.041 48.8687 13.9746C49.0405 13.9043 49.1714 13.8105 49.2612 13.6934C49.3511 13.5723 49.396 13.4355 49.396 13.2832ZM60.4231 12.2227H61.888C61.8411 12.7812 61.6848 13.2793 61.4192 13.7168C61.1536 14.1504 60.7805 14.4922 60.3001 14.7422C59.8196 14.9922 59.2356 15.1172 58.5481 15.1172C58.0208 15.1172 57.5462 15.0234 57.1243 14.8359C56.7024 14.6445 56.3411 14.375 56.0403 14.0273C55.7395 13.6758 55.5091 13.252 55.3489 12.7559C55.1927 12.2598 55.1145 11.7051 55.1145 11.0918V10.3828C55.1145 9.76953 55.1946 9.21484 55.3548 8.71875C55.5188 8.22266 55.7532 7.79883 56.0579 7.44727C56.3626 7.0918 56.7278 6.82031 57.1536 6.63281C57.5833 6.44531 58.0657 6.35156 58.6009 6.35156C59.2805 6.35156 59.8548 6.47656 60.3235 6.72656C60.7923 6.97656 61.1555 7.32227 61.4134 7.76367C61.6751 8.20508 61.8352 8.71094 61.8938 9.28125H60.429C60.3899 8.91406 60.304 8.59961 60.1712 8.33789C60.0423 8.07617 59.8509 7.87695 59.597 7.74023C59.343 7.59961 59.011 7.5293 58.6009 7.5293C58.2649 7.5293 57.972 7.5918 57.722 7.7168C57.472 7.8418 57.263 8.02539 57.095 8.26758C56.927 8.50977 56.8001 8.80859 56.7141 9.16406C56.6321 9.51562 56.5911 9.91797 56.5911 10.3711V11.0918C56.5911 11.5215 56.6282 11.9121 56.7024 12.2637C56.7805 12.6113 56.8977 12.9102 57.054 13.1602C57.2141 13.4102 57.4173 13.6035 57.6634 13.7402C57.9095 13.877 58.2044 13.9453 58.5481 13.9453C58.9661 13.9453 59.304 13.8789 59.5618 13.7461C59.8235 13.6133 60.0208 13.4199 60.1536 13.166C60.2903 12.9082 60.3802 12.5938 60.4231 12.2227ZM62.9338 11.9004V11.7656C62.9338 11.3086 63.0002 10.8848 63.133 10.4941C63.2658 10.0996 63.4572 9.75781 63.7072 9.46875C63.9611 9.17578 64.2697 8.94922 64.633 8.78906C65.0002 8.625 65.4142 8.54297 65.8752 8.54297C66.34 8.54297 66.7541 8.625 67.1173 8.78906C67.4845 8.94922 67.7951 9.17578 68.049 9.46875C68.3029 9.75781 68.4963 10.0996 68.6291 10.4941C68.7619 10.8848 68.8283 11.3086 68.8283 11.7656V11.9004C68.8283 12.3574 68.7619 12.7812 68.6291 13.1719C68.4963 13.5625 68.3029 13.9043 68.049 14.1973C67.7951 14.4863 67.4865 14.7129 67.1232 14.877C66.7599 15.0371 66.3478 15.1172 65.8869 15.1172C65.422 15.1172 65.006 15.0371 64.6388 14.877C64.2755 14.7129 63.967 14.4863 63.713 14.1973C63.4591 13.9043 63.2658 13.5625 63.133 13.1719C63.0002 12.7812 62.9338 12.3574 62.9338 11.9004ZM64.3459 11.7656V11.9004C64.3459 12.1855 64.3752 12.4551 64.4338 12.709C64.4923 12.9629 64.5841 13.1855 64.7091 13.377C64.8341 13.5684 64.9943 13.7188 65.1896 13.8281C65.3849 13.9375 65.6173 13.9922 65.8869 13.9922C66.1486 13.9922 66.3752 13.9375 66.5666 13.8281C66.7619 13.7188 66.922 13.5684 67.047 13.377C67.172 13.1855 67.2638 12.9629 67.3224 12.709C67.3849 12.4551 67.4162 12.1855 67.4162 11.9004V11.7656C67.4162 11.4844 67.3849 11.2188 67.3224 10.9688C67.2638 10.7148 67.1701 10.4902 67.0412 10.2949C66.9162 10.0996 66.756 9.94727 66.5607 9.83789C66.3693 9.72461 66.1408 9.66797 65.8752 9.66797C65.6095 9.66797 65.3791 9.72461 65.1838 9.83789C64.9923 9.94727 64.8341 10.0996 64.7091 10.2949C64.5841 10.4902 64.4923 10.7148 64.4338 10.9688C64.3752 11.2188 64.3459 11.4844 64.3459 11.7656ZM71.5323 10.0137V15H70.1202V8.66016H71.4502L71.5323 10.0137ZM71.2803 11.5957L70.8233 11.5898C70.8272 11.1406 70.8897 10.7285 71.0108 10.3535C71.1358 9.97852 71.3077 9.65625 71.5264 9.38672C71.7491 9.11719 72.0147 8.91016 72.3233 8.76562C72.6319 8.61719 72.9756 8.54297 73.3545 8.54297C73.6592 8.54297 73.9346 8.58594 74.1807 8.67188C74.4307 8.75391 74.6436 8.88867 74.8194 9.07617C74.9991 9.26367 75.1358 9.50781 75.2295 9.80859C75.3233 10.1055 75.3702 10.4707 75.3702 10.9043V15H73.9522V10.8984C73.9522 10.5938 73.9073 10.3535 73.8174 10.1777C73.7315 9.99805 73.6045 9.87109 73.4366 9.79688C73.2725 9.71875 73.0674 9.67969 72.8213 9.67969C72.5791 9.67969 72.3623 9.73047 72.1709 9.83203C71.9795 9.93359 71.8174 10.0723 71.6846 10.248C71.5557 10.4238 71.4561 10.627 71.3858 10.8574C71.3155 11.0879 71.2803 11.334 71.2803 11.5957ZM78.332 10.0137V15H76.9198V8.66016H78.2499L78.332 10.0137ZM78.08 11.5957L77.623 11.5898C77.6269 11.1406 77.6894 10.7285 77.8105 10.3535C77.9355 9.97852 78.1073 9.65625 78.3261 9.38672C78.5488 9.11719 78.8144 8.91016 79.123 8.76562C79.4316 8.61719 79.7753 8.54297 80.1542 8.54297C80.4589 8.54297 80.7343 8.58594 80.9804 8.67188C81.2304 8.75391 81.4433 8.88867 81.6191 9.07617C81.7988 9.26367 81.9355 9.50781 82.0292 9.80859C82.123 10.1055 82.1698 10.4707 82.1698 10.9043V15H80.7519V10.8984C80.7519 10.5938 80.707 10.3535 80.6171 10.1777C80.5312 9.99805 80.4042 9.87109 80.2363 9.79688C80.0722 9.71875 79.8671 9.67969 79.621 9.67969C79.3788 9.67969 79.162 9.73047 78.9706 9.83203C78.7792 9.93359 78.6171 10.0723 78.4843 10.248C78.3554 10.4238 78.2558 10.627 78.1855 10.8574C78.1152 11.0879 78.08 11.334 78.08 11.5957ZM86.5262 15.1172C86.0574 15.1172 85.6336 15.041 85.2547 14.8887C84.8797 14.7324 84.5594 14.5156 84.2938 14.2383C84.032 13.9609 83.8309 13.6348 83.6902 13.2598C83.5496 12.8848 83.4793 12.4805 83.4793 12.0469V11.8125C83.4793 11.3164 83.5516 10.8672 83.6961 10.4648C83.8406 10.0625 84.0418 9.71875 84.2996 9.43359C84.5574 9.14453 84.8621 8.92383 85.2137 8.77148C85.5652 8.61914 85.9461 8.54297 86.3563 8.54297C86.8094 8.54297 87.2059 8.61914 87.5457 8.77148C87.8855 8.92383 88.1668 9.13867 88.3895 9.41602C88.616 9.68945 88.784 10.0156 88.8934 10.3945C89.0066 10.7734 89.0633 11.1914 89.0633 11.6484V12.252H84.1648V11.2383H87.6688V11.127C87.6609 10.873 87.6102 10.6348 87.5164 10.4121C87.4266 10.1895 87.2879 10.0098 87.1004 9.87305C86.9129 9.73633 86.6629 9.66797 86.3504 9.66797C86.116 9.66797 85.907 9.71875 85.7234 9.82031C85.5438 9.91797 85.3934 10.0605 85.2723 10.248C85.1512 10.4355 85.0574 10.6621 84.991 10.9277C84.9285 11.1895 84.8973 11.4844 84.8973 11.8125V12.0469C84.8973 12.3242 84.9344 12.582 85.0086 12.8203C85.0867 13.0547 85.2 13.2598 85.3484 13.4355C85.4969 13.6113 85.6766 13.75 85.8875 13.8516C86.0984 13.9492 86.3387 13.998 86.6082 13.998C86.948 13.998 87.2508 13.9297 87.5164 13.793C87.782 13.6562 88.0125 13.4629 88.2078 13.2129L88.952 13.9336C88.8152 14.1328 88.6375 14.3242 88.4188 14.5078C88.2 14.6875 87.9324 14.834 87.616 14.9473C87.3035 15.0605 86.9402 15.1172 86.5262 15.1172ZM92.8747 13.9922C93.1052 13.9922 93.3122 13.9473 93.4958 13.8574C93.6833 13.7637 93.8337 13.6348 93.947 13.4707C94.0641 13.3066 94.1286 13.1172 94.1403 12.9023H95.4704C95.4626 13.3125 95.3415 13.6855 95.1071 14.0215C94.8727 14.3574 94.5622 14.625 94.1755 14.8242C93.7887 15.0195 93.361 15.1172 92.8923 15.1172C92.4079 15.1172 91.986 15.0352 91.6266 14.8711C91.2673 14.7031 90.9684 14.4727 90.7302 14.1797C90.4919 13.8867 90.3122 13.5488 90.1911 13.166C90.0739 12.7832 90.0153 12.373 90.0153 11.9355V11.7305C90.0153 11.293 90.0739 10.8828 90.1911 10.5C90.3122 10.1133 90.4919 9.77344 90.7302 9.48047C90.9684 9.1875 91.2673 8.95898 91.6266 8.79492C91.986 8.62695 92.4059 8.54297 92.8864 8.54297C93.3942 8.54297 93.8395 8.64453 94.2223 8.84766C94.6052 9.04688 94.9059 9.32617 95.1247 9.68555C95.3473 10.041 95.4626 10.4551 95.4704 10.9277H94.1403C94.1286 10.6934 94.07 10.4824 93.9645 10.2949C93.863 10.1035 93.7184 9.95117 93.5309 9.83789C93.3473 9.72461 93.1266 9.66797 92.8688 9.66797C92.5837 9.66797 92.3473 9.72656 92.1598 9.84375C91.9723 9.95703 91.8259 10.1133 91.7204 10.3125C91.6149 10.5078 91.5387 10.7285 91.4919 10.9746C91.4489 11.2168 91.4274 11.4688 91.4274 11.7305V11.9355C91.4274 12.1973 91.4489 12.4512 91.4919 12.6973C91.5348 12.9434 91.6091 13.1641 91.7145 13.3594C91.8239 13.5508 91.9723 13.7051 92.1598 13.8223C92.3473 13.9355 92.5856 13.9922 92.8747 13.9922ZM99.5806 8.66016V9.69141H96.0064V8.66016H99.5806ZM97.0377 7.10742H98.4498V13.248C98.4498 13.4434 98.4771 13.5938 98.5318 13.6992C98.5904 13.8008 98.6705 13.8691 98.772 13.9043C98.8736 13.9395 98.9927 13.957 99.1295 13.957C99.2271 13.957 99.3209 13.9512 99.4107 13.9395C99.5005 13.9277 99.5728 13.916 99.6275 13.9043L99.6334 14.9824C99.5162 15.0176 99.3795 15.0488 99.2232 15.0762C99.0709 15.1035 98.8951 15.1172 98.6959 15.1172C98.3716 15.1172 98.0845 15.0605 97.8345 14.9473C97.5845 14.8301 97.3892 14.6406 97.2486 14.3789C97.108 14.1172 97.0377 13.7695 97.0377 13.3359V7.10742Z"/>
</mask>
<path d="M32.2109 13.834V15H27.9277V13.834H32.2109ZM28.3379 6.46875V15H26.8672V6.46875H28.3379ZM36.122 15.1172C35.6532 15.1172 35.2294 15.041 34.8505 14.8887C34.4755 14.7324 34.1552 14.5156 33.8895 14.2383C33.6278 13.9609 33.4266 13.6348 33.286 13.2598C33.1454 12.8848 33.0751 12.4805 33.0751 12.0469V11.8125C33.0751 11.3164 33.1473 10.8672 33.2919 10.4648C33.4364 10.0625 33.6376 9.71875 33.8954 9.43359C34.1532 9.14453 34.4579 8.92383 34.8095 8.77148C35.161 8.61914 35.5419 8.54297 35.952 8.54297C36.4052 8.54297 36.8016 8.61914 37.1415 8.77148C37.4813 8.92383 37.7626 9.13867 37.9852 9.41602C38.2118 9.68945 38.3798 10.0156 38.4891 10.3945C38.6024 10.7734 38.6591 11.1914 38.6591 11.6484V12.252H33.7606V11.2383H37.2645V11.127C37.2567 10.873 37.2059 10.6348 37.1122 10.4121C37.0223 10.1895 36.8837 10.0098 36.6962 9.87305C36.5087 9.73633 36.2587 9.66797 35.9462 9.66797C35.7118 9.66797 35.5028 9.71875 35.3192 9.82031C35.1395 9.91797 34.9891 10.0605 34.868 10.248C34.747 10.4355 34.6532 10.6621 34.5868 10.9277C34.5243 11.1895 34.493 11.4844 34.493 11.8125V12.0469C34.493 12.3242 34.5302 12.582 34.6044 12.8203C34.6825 13.0547 34.7958 13.2598 34.9442 13.4355C35.0927 13.6113 35.2723 13.75 35.4833 13.8516C35.6942 13.9492 35.9345 13.998 36.204 13.998C36.5438 13.998 36.8466 13.9297 37.1122 13.793C37.3778 13.6562 37.6083 13.4629 37.8036 13.2129L38.5477 13.9336C38.411 14.1328 38.2333 14.3242 38.0145 14.5078C37.7958 14.6875 37.5282 14.834 37.2118 14.9473C36.8993 15.0605 36.536 15.1172 36.122 15.1172ZM42.7869 8.66016V9.69141H39.2127V8.66016H42.7869ZM40.2439 7.10742H41.656V13.248C41.656 13.4434 41.6834 13.5938 41.738 13.6992C41.7966 13.8008 41.8767 13.8691 41.9783 13.9043C42.0798 13.9395 42.199 13.957 42.3357 13.957C42.4334 13.957 42.5271 13.9512 42.617 13.9395C42.7068 13.9277 42.7791 13.916 42.8337 13.9043L42.8396 14.9824C42.7224 15.0176 42.5857 15.0488 42.4295 15.0762C42.2771 15.1035 42.1013 15.1172 41.9021 15.1172C41.5779 15.1172 41.2908 15.0605 41.0408 14.9473C40.7908 14.8301 40.5955 14.6406 40.4548 14.3789C40.3142 14.1172 40.2439 13.7695 40.2439 13.3359V7.10742ZM45.3854 6V6.82617C45.3854 7.07227 45.3405 7.32812 45.2506 7.59375C45.1647 7.85547 45.0436 8.10742 44.8873 8.34961C44.7311 8.58789 44.5514 8.79492 44.3483 8.9707L43.6393 8.52539C43.7995 8.2832 43.9284 8.02734 44.026 7.75781C44.1276 7.48438 44.1784 7.17773 44.1784 6.83789V6H45.3854ZM49.396 13.2832C49.396 13.1426 49.3609 13.0156 49.2905 12.9023C49.2202 12.7852 49.0855 12.6797 48.8862 12.5859C48.6909 12.4922 48.4019 12.4062 48.0191 12.3281C47.6831 12.2539 47.3745 12.166 47.0933 12.0645C46.8159 11.959 46.5777 11.832 46.3784 11.6836C46.1792 11.5352 46.0249 11.3594 45.9155 11.1562C45.8062 10.9531 45.7515 10.7188 45.7515 10.4531C45.7515 10.1953 45.8081 9.95117 45.9214 9.7207C46.0347 9.49023 46.1968 9.28711 46.4077 9.11133C46.6187 8.93555 46.8745 8.79688 47.1753 8.69531C47.48 8.59375 47.8198 8.54297 48.1948 8.54297C48.7261 8.54297 49.1812 8.63281 49.5601 8.8125C49.9429 8.98828 50.2359 9.22852 50.439 9.5332C50.6421 9.83398 50.7437 10.1738 50.7437 10.5527H49.3316C49.3316 10.3848 49.2886 10.2285 49.2027 10.084C49.1206 9.93555 48.9956 9.81641 48.8277 9.72656C48.6597 9.63281 48.4487 9.58594 48.1948 9.58594C47.9527 9.58594 47.7515 9.625 47.5913 9.70312C47.4351 9.77734 47.3179 9.875 47.2398 9.99609C47.1655 10.1172 47.1284 10.25 47.1284 10.3945C47.1284 10.5 47.148 10.5957 47.187 10.6816C47.23 10.7637 47.3003 10.8398 47.398 10.9102C47.4956 10.9766 47.6284 11.0391 47.7964 11.0977C47.9683 11.1562 48.1831 11.2129 48.4409 11.2676C48.9253 11.3691 49.3413 11.5 49.689 11.6602C50.0405 11.8164 50.3101 12.0195 50.4976 12.2695C50.6851 12.5156 50.7788 12.8281 50.7788 13.207C50.7788 13.4883 50.7183 13.7461 50.5972 13.9805C50.48 14.2109 50.3081 14.4121 50.0816 14.584C49.855 14.752 49.5835 14.8828 49.2671 14.9766C48.9546 15.0703 48.603 15.1172 48.2124 15.1172C47.6382 15.1172 47.1519 15.0156 46.7534 14.8125C46.355 14.6055 46.0523 14.3418 45.8452 14.0215C45.6421 13.6973 45.5405 13.3613 45.5405 13.0137H46.9058C46.9214 13.2754 46.9937 13.4844 47.1226 13.6406C47.2554 13.793 47.4195 13.9043 47.6148 13.9746C47.814 14.041 48.0191 14.0742 48.23 14.0742C48.4839 14.0742 48.6968 14.041 48.8687 13.9746C49.0405 13.9043 49.1714 13.8105 49.2612 13.6934C49.3511 13.5723 49.396 13.4355 49.396 13.2832ZM60.4231 12.2227H61.888C61.8411 12.7812 61.6848 13.2793 61.4192 13.7168C61.1536 14.1504 60.7805 14.4922 60.3001 14.7422C59.8196 14.9922 59.2356 15.1172 58.5481 15.1172C58.0208 15.1172 57.5462 15.0234 57.1243 14.8359C56.7024 14.6445 56.3411 14.375 56.0403 14.0273C55.7395 13.6758 55.5091 13.252 55.3489 12.7559C55.1927 12.2598 55.1145 11.7051 55.1145 11.0918V10.3828C55.1145 9.76953 55.1946 9.21484 55.3548 8.71875C55.5188 8.22266 55.7532 7.79883 56.0579 7.44727C56.3626 7.0918 56.7278 6.82031 57.1536 6.63281C57.5833 6.44531 58.0657 6.35156 58.6009 6.35156C59.2805 6.35156 59.8548 6.47656 60.3235 6.72656C60.7923 6.97656 61.1555 7.32227 61.4134 7.76367C61.6751 8.20508 61.8352 8.71094 61.8938 9.28125H60.429C60.3899 8.91406 60.304 8.59961 60.1712 8.33789C60.0423 8.07617 59.8509 7.87695 59.597 7.74023C59.343 7.59961 59.011 7.5293 58.6009 7.5293C58.2649 7.5293 57.972 7.5918 57.722 7.7168C57.472 7.8418 57.263 8.02539 57.095 8.26758C56.927 8.50977 56.8001 8.80859 56.7141 9.16406C56.6321 9.51562 56.5911 9.91797 56.5911 10.3711V11.0918C56.5911 11.5215 56.6282 11.9121 56.7024 12.2637C56.7805 12.6113 56.8977 12.9102 57.054 13.1602C57.2141 13.4102 57.4173 13.6035 57.6634 13.7402C57.9095 13.877 58.2044 13.9453 58.5481 13.9453C58.9661 13.9453 59.304 13.8789 59.5618 13.7461C59.8235 13.6133 60.0208 13.4199 60.1536 13.166C60.2903 12.9082 60.3802 12.5938 60.4231 12.2227ZM62.9338 11.9004V11.7656C62.9338 11.3086 63.0002 10.8848 63.133 10.4941C63.2658 10.0996 63.4572 9.75781 63.7072 9.46875C63.9611 9.17578 64.2697 8.94922 64.633 8.78906C65.0002 8.625 65.4142 8.54297 65.8752 8.54297C66.34 8.54297 66.7541 8.625 67.1173 8.78906C67.4845 8.94922 67.7951 9.17578 68.049 9.46875C68.3029 9.75781 68.4963 10.0996 68.6291 10.4941C68.7619 10.8848 68.8283 11.3086 68.8283 11.7656V11.9004C68.8283 12.3574 68.7619 12.7812 68.6291 13.1719C68.4963 13.5625 68.3029 13.9043 68.049 14.1973C67.7951 14.4863 67.4865 14.7129 67.1232 14.877C66.7599 15.0371 66.3478 15.1172 65.8869 15.1172C65.422 15.1172 65.006 15.0371 64.6388 14.877C64.2755 14.7129 63.967 14.4863 63.713 14.1973C63.4591 13.9043 63.2658 13.5625 63.133 13.1719C63.0002 12.7812 62.9338 12.3574 62.9338 11.9004ZM64.3459 11.7656V11.9004C64.3459 12.1855 64.3752 12.4551 64.4338 12.709C64.4923 12.9629 64.5841 13.1855 64.7091 13.377C64.8341 13.5684 64.9943 13.7188 65.1896 13.8281C65.3849 13.9375 65.6173 13.9922 65.8869 13.9922C66.1486 13.9922 66.3752 13.9375 66.5666 13.8281C66.7619 13.7188 66.922 13.5684 67.047 13.377C67.172 13.1855 67.2638 12.9629 67.3224 12.709C67.3849 12.4551 67.4162 12.1855 67.4162 11.9004V11.7656C67.4162 11.4844 67.3849 11.2188 67.3224 10.9688C67.2638 10.7148 67.1701 10.4902 67.0412 10.2949C66.9162 10.0996 66.756 9.94727 66.5607 9.83789C66.3693 9.72461 66.1408 9.66797 65.8752 9.66797C65.6095 9.66797 65.3791 9.72461 65.1838 9.83789C64.9923 9.94727 64.8341 10.0996 64.7091 10.2949C64.5841 10.4902 64.4923 10.7148 64.4338 10.9688C64.3752 11.2188 64.3459 11.4844 64.3459 11.7656ZM71.5323 10.0137V15H70.1202V8.66016H71.4502L71.5323 10.0137ZM71.2803 11.5957L70.8233 11.5898C70.8272 11.1406 70.8897 10.7285 71.0108 10.3535C71.1358 9.97852 71.3077 9.65625 71.5264 9.38672C71.7491 9.11719 72.0147 8.91016 72.3233 8.76562C72.6319 8.61719 72.9756 8.54297 73.3545 8.54297C73.6592 8.54297 73.9346 8.58594 74.1807 8.67188C74.4307 8.75391 74.6436 8.88867 74.8194 9.07617C74.9991 9.26367 75.1358 9.50781 75.2295 9.80859C75.3233 10.1055 75.3702 10.4707 75.3702 10.9043V15H73.9522V10.8984C73.9522 10.5938 73.9073 10.3535 73.8174 10.1777C73.7315 9.99805 73.6045 9.87109 73.4366 9.79688C73.2725 9.71875 73.0674 9.67969 72.8213 9.67969C72.5791 9.67969 72.3623 9.73047 72.1709 9.83203C71.9795 9.93359 71.8174 10.0723 71.6846 10.248C71.5557 10.4238 71.4561 10.627 71.3858 10.8574C71.3155 11.0879 71.2803 11.334 71.2803 11.5957ZM78.332 10.0137V15H76.9198V8.66016H78.2499L78.332 10.0137ZM78.08 11.5957L77.623 11.5898C77.6269 11.1406 77.6894 10.7285 77.8105 10.3535C77.9355 9.97852 78.1073 9.65625 78.3261 9.38672C78.5488 9.11719 78.8144 8.91016 79.123 8.76562C79.4316 8.61719 79.7753 8.54297 80.1542 8.54297C80.4589 8.54297 80.7343 8.58594 80.9804 8.67188C81.2304 8.75391 81.4433 8.88867 81.6191 9.07617C81.7988 9.26367 81.9355 9.50781 82.0292 9.80859C82.123 10.1055 82.1698 10.4707 82.1698 10.9043V15H80.7519V10.8984C80.7519 10.5938 80.707 10.3535 80.6171 10.1777C80.5312 9.99805 80.4042 9.87109 80.2363 9.79688C80.0722 9.71875 79.8671 9.67969 79.621 9.67969C79.3788 9.67969 79.162 9.73047 78.9706 9.83203C78.7792 9.93359 78.6171 10.0723 78.4843 10.248C78.3554 10.4238 78.2558 10.627 78.1855 10.8574C78.1152 11.0879 78.08 11.334 78.08 11.5957ZM86.5262 15.1172C86.0574 15.1172 85.6336 15.041 85.2547 14.8887C84.8797 14.7324 84.5594 14.5156 84.2938 14.2383C84.032 13.9609 83.8309 13.6348 83.6902 13.2598C83.5496 12.8848 83.4793 12.4805 83.4793 12.0469V11.8125C83.4793 11.3164 83.5516 10.8672 83.6961 10.4648C83.8406 10.0625 84.0418 9.71875 84.2996 9.43359C84.5574 9.14453 84.8621 8.92383 85.2137 8.77148C85.5652 8.61914 85.9461 8.54297 86.3563 8.54297C86.8094 8.54297 87.2059 8.61914 87.5457 8.77148C87.8855 8.92383 88.1668 9.13867 88.3895 9.41602C88.616 9.68945 88.784 10.0156 88.8934 10.3945C89.0066 10.7734 89.0633 11.1914 89.0633 11.6484V12.252H84.1648V11.2383H87.6688V11.127C87.6609 10.873 87.6102 10.6348 87.5164 10.4121C87.4266 10.1895 87.2879 10.0098 87.1004 9.87305C86.9129 9.73633 86.6629 9.66797 86.3504 9.66797C86.116 9.66797 85.907 9.71875 85.7234 9.82031C85.5438 9.91797 85.3934 10.0605 85.2723 10.248C85.1512 10.4355 85.0574 10.6621 84.991 10.9277C84.9285 11.1895 84.8973 11.4844 84.8973 11.8125V12.0469C84.8973 12.3242 84.9344 12.582 85.0086 12.8203C85.0867 13.0547 85.2 13.2598 85.3484 13.4355C85.4969 13.6113 85.6766 13.75 85.8875 13.8516C86.0984 13.9492 86.3387 13.998 86.6082 13.998C86.948 13.998 87.2508 13.9297 87.5164 13.793C87.782 13.6562 88.0125 13.4629 88.2078 13.2129L88.952 13.9336C88.8152 14.1328 88.6375 14.3242 88.4188 14.5078C88.2 14.6875 87.9324 14.834 87.616 14.9473C87.3035 15.0605 86.9402 15.1172 86.5262 15.1172ZM92.8747 13.9922C93.1052 13.9922 93.3122 13.9473 93.4958 13.8574C93.6833 13.7637 93.8337 13.6348 93.947 13.4707C94.0641 13.3066 94.1286 13.1172 94.1403 12.9023H95.4704C95.4626 13.3125 95.3415 13.6855 95.1071 14.0215C94.8727 14.3574 94.5622 14.625 94.1755 14.8242C93.7887 15.0195 93.361 15.1172 92.8923 15.1172C92.4079 15.1172 91.986 15.0352 91.6266 14.8711C91.2673 14.7031 90.9684 14.4727 90.7302 14.1797C90.4919 13.8867 90.3122 13.5488 90.1911 13.166C90.0739 12.7832 90.0153 12.373 90.0153 11.9355V11.7305C90.0153 11.293 90.0739 10.8828 90.1911 10.5C90.3122 10.1133 90.4919 9.77344 90.7302 9.48047C90.9684 9.1875 91.2673 8.95898 91.6266 8.79492C91.986 8.62695 92.4059 8.54297 92.8864 8.54297C93.3942 8.54297 93.8395 8.64453 94.2223 8.84766C94.6052 9.04688 94.9059 9.32617 95.1247 9.68555C95.3473 10.041 95.4626 10.4551 95.4704 10.9277H94.1403C94.1286 10.6934 94.07 10.4824 93.9645 10.2949C93.863 10.1035 93.7184 9.95117 93.5309 9.83789C93.3473 9.72461 93.1266 9.66797 92.8688 9.66797C92.5837 9.66797 92.3473 9.72656 92.1598 9.84375C91.9723 9.95703 91.8259 10.1133 91.7204 10.3125C91.6149 10.5078 91.5387 10.7285 91.4919 10.9746C91.4489 11.2168 91.4274 11.4688 91.4274 11.7305V11.9355C91.4274 12.1973 91.4489 12.4512 91.4919 12.6973C91.5348 12.9434 91.6091 13.1641 91.7145 13.3594C91.8239 13.5508 91.9723 13.7051 92.1598 13.8223C92.3473 13.9355 92.5856 13.9922 92.8747 13.9922ZM99.5806 8.66016V9.69141H96.0064V8.66016H99.5806ZM97.0377 7.10742H98.4498V13.248C98.4498 13.4434 98.4771 13.5938 98.5318 13.6992C98.5904 13.8008 98.6705 13.8691 98.772 13.9043C98.8736 13.9395 98.9927 13.957 99.1295 13.957C99.2271 13.957 99.3209 13.9512 99.4107 13.9395C99.5005 13.9277 99.5728 13.916 99.6275 13.9043L99.6334 14.9824C99.5162 15.0176 99.3795 15.0488 99.2232 15.0762C99.0709 15.1035 98.8951 15.1172 98.6959 15.1172C98.3716 15.1172 98.0845 15.0605 97.8345 14.9473C97.5845 14.8301 97.3892 14.6406 97.2486 14.3789C97.108 14.1172 97.0377 13.7695 97.0377 13.3359V7.10742Z" fill="#010101" fill-opacity="0.3"/>
<path d="M32.2109 13.834H32.4109V13.634H32.2109V13.834ZM32.2109 15V15.2H32.4109V15H32.2109ZM27.9277 15H27.7277V15.2H27.9277V15ZM27.9277 13.834V13.634H27.7277V13.834H27.9277ZM28.3379 6.46875H28.5379V6.26875H28.3379V6.46875ZM28.3379 15V15.2H28.5379V15H28.3379ZM26.8672 15H26.6672V15.2H26.8672V15ZM26.8672 6.46875V6.26875H26.6672V6.46875H26.8672ZM32.0109 13.834V15H32.4109V13.834H32.0109ZM32.2109 14.8H27.9277V15.2H32.2109V14.8ZM28.1277 15V13.834H27.7277V15H28.1277ZM27.9277 14.034H32.2109V13.634H27.9277V14.034ZM28.1379 6.46875V15H28.5379V6.46875H28.1379ZM28.3379 14.8H26.8672V15.2H28.3379V14.8ZM27.0672 15V6.46875H26.6672V15H27.0672ZM26.8672 6.66875H28.3379V6.26875H26.8672V6.66875ZM34.8505 14.8887L34.7735 15.0733L34.7759 15.0742L34.8505 14.8887ZM33.8895 14.2383L33.7441 14.3755L33.7451 14.3766L33.8895 14.2383ZM33.8954 9.43359L34.0437 9.56773L34.0446 9.56672L33.8954 9.43359ZM37.9852 9.41602L37.8293 9.54124L37.8312 9.54362L37.9852 9.41602ZM38.4891 10.3945L38.297 10.45L38.2975 10.4518L38.4891 10.3945ZM38.6591 12.252V12.452H38.8591V12.252H38.6591ZM33.7606 12.252H33.5606V12.452H33.7606V12.252ZM33.7606 11.2383V11.0383H33.5606V11.2383H33.7606ZM37.2645 11.2383V11.4383H37.4645V11.2383H37.2645ZM37.2645 11.127H37.4646L37.4644 11.1208L37.2645 11.127ZM37.1122 10.4121L36.9267 10.487L36.9279 10.4897L37.1122 10.4121ZM35.3192 9.82031L35.4147 9.99604L35.416 9.99532L35.3192 9.82031ZM34.5868 10.9277L34.3928 10.8792L34.3923 10.8813L34.5868 10.9277ZM34.6044 12.8203L34.4134 12.8798L34.4146 12.8836L34.6044 12.8203ZM35.4833 13.8516L35.3965 14.0318L35.3993 14.0331L35.4833 13.8516ZM37.8036 13.2129L37.9427 13.0692L37.7829 12.9145L37.646 13.0898L37.8036 13.2129ZM38.5477 13.9336L38.7126 14.0468L38.8082 13.9075L38.6869 13.7899L38.5477 13.9336ZM38.0145 14.5078L38.1415 14.6624L38.1431 14.661L38.0145 14.5078ZM37.2118 14.9473L37.1444 14.759L37.1436 14.7592L37.2118 14.9473ZM36.122 14.9172C35.675 14.9172 35.277 14.8446 34.9251 14.7031L34.7759 15.0742C35.1817 15.2374 35.6314 15.3172 36.122 15.3172V14.9172ZM34.9274 14.7041C34.5763 14.5578 34.2794 14.3562 34.034 14.0999L33.7451 14.3766C34.0309 14.675 34.3746 14.9071 34.7735 15.0733L34.9274 14.7041ZM34.035 14.101C33.7924 13.844 33.605 13.5409 33.4733 13.1895L33.0987 13.33C33.2482 13.7286 33.4632 14.0779 33.7441 14.3755L34.035 14.101ZM33.4733 13.1895C33.3417 12.8388 33.2751 12.4585 33.2751 12.0469H32.8751C32.8751 12.5025 32.949 12.9307 33.0987 13.33L33.4733 13.1895ZM33.2751 12.0469V11.8125H32.8751V12.0469H33.2751ZM33.2751 11.8125C33.2751 11.3358 33.3445 10.9099 33.4801 10.5325L33.1037 10.3972C32.9502 10.8244 32.8751 11.297 32.8751 11.8125H33.2751ZM33.4801 10.5325C33.6168 10.1519 33.8053 9.83146 34.0437 9.56772L33.747 9.29946C33.4699 9.60604 33.256 9.97308 33.1037 10.3972L33.4801 10.5325ZM34.0446 9.56672C34.2834 9.29907 34.5643 9.09567 34.889 8.955L34.7299 8.58797C34.3514 8.75198 34.023 8.99 33.7461 9.30047L34.0446 9.56672ZM34.889 8.955C35.2137 8.81428 35.5673 8.74297 35.952 8.74297V8.34297C35.5165 8.34297 35.1083 8.424 34.7299 8.58797L34.889 8.955ZM35.952 8.74297C36.3829 8.74297 36.7505 8.8154 37.0597 8.95399L37.2233 8.58898C36.8528 8.42289 36.4274 8.34297 35.952 8.34297V8.74297ZM37.0597 8.95399C37.372 9.094 37.6274 9.28975 37.8293 9.54122L38.1412 9.29081C37.8978 8.98759 37.5906 8.75365 37.2233 8.58898L37.0597 8.95399ZM37.8312 9.54362C38.0384 9.79366 38.1944 10.0946 38.297 10.45L38.6813 10.3391C38.5651 9.93668 38.3852 9.58525 38.1392 9.28841L37.8312 9.54362ZM38.2975 10.4518C38.4045 10.8095 38.4591 11.2079 38.4591 11.6484H38.8591C38.8591 11.175 38.8004 10.7374 38.6808 10.3372L38.2975 10.4518ZM38.4591 11.6484V12.252H38.8591V11.6484H38.4591ZM38.6591 12.052H33.7606V12.452H38.6591V12.052ZM33.9606 12.252V11.2383H33.5606V12.252H33.9606ZM33.7606 11.4383H37.2645V11.0383H33.7606V11.4383ZM37.4645 11.2383V11.127H37.0645V11.2383H37.4645ZM37.4644 11.1208C37.4559 10.8436 37.4003 10.581 37.2965 10.3345L36.9279 10.4897C37.0116 10.6886 37.0575 10.9025 37.0646 11.1331L37.4644 11.1208ZM37.2977 10.3373C37.1943 10.0812 37.0328 9.87098 36.814 9.71145L36.5783 10.0346C36.7345 10.1485 36.8504 10.2977 36.9267 10.4869L37.2977 10.3373ZM36.814 9.71145C36.5822 9.54241 36.2865 9.46797 35.9462 9.46797V9.86797C36.2308 9.86797 36.4352 9.93024 36.5783 10.0346L36.814 9.71145ZM35.9462 9.46797C35.682 9.46797 35.439 9.5255 35.2224 9.64531L35.416 9.99532C35.5666 9.912 35.7416 9.86797 35.9462 9.86797V9.46797ZM35.2237 9.64459C35.012 9.75966 34.8376 9.92655 34.7 10.1395L35.0361 10.3566C35.1407 10.1945 35.2671 10.0763 35.4147 9.99604L35.2237 9.64459ZM34.7 10.1395C34.5647 10.3491 34.4633 10.597 34.3928 10.8792L34.7808 10.9762C34.8431 10.7273 34.9292 10.522 35.0361 10.3566L34.7 10.1395ZM34.3923 10.8813C34.3254 11.1611 34.293 11.472 34.293 11.8125H34.693C34.693 11.4967 34.7232 11.2178 34.7813 10.9742L34.3923 10.8813ZM34.293 11.8125V12.0469H34.693V11.8125H34.293ZM34.293 12.0469C34.293 12.3422 34.3326 12.6202 34.4134 12.8798L34.7953 12.7608C34.7277 12.5438 34.693 12.3063 34.693 12.0469H34.293ZM34.4146 12.8836C34.5002 13.1402 34.6254 13.368 34.7914 13.5646L35.097 13.3065C34.9661 13.1515 34.8648 12.9692 34.7941 12.7571L34.4146 12.8836ZM34.7914 13.5646C34.9583 13.7623 35.1607 13.9182 35.3965 14.0318L35.57 13.6714C35.384 13.5818 35.227 13.4604 35.097 13.3065L34.7914 13.5646ZM35.3993 14.0331C35.6404 14.1447 35.91 14.198 36.204 14.198V13.798C35.9589 13.798 35.748 13.7537 35.5673 13.6701L35.3993 14.0331ZM36.204 14.198C36.5713 14.198 36.9061 14.124 37.2037 13.9708L37.0207 13.6151C36.787 13.7354 36.5164 13.798 36.204 13.798V14.198ZM37.2037 13.9708C37.4966 13.82 37.7492 13.6074 37.9612 13.336L37.646 13.0898C37.4674 13.3184 37.259 13.4925 37.0207 13.6151L37.2037 13.9708ZM37.6645 13.3566L38.4086 14.0773L38.6869 13.7899L37.9427 13.0692L37.6645 13.3566ZM38.3828 13.8204C38.258 14.0023 38.0933 14.1806 37.886 14.3546L38.1431 14.661C38.3733 14.4678 38.564 14.2633 38.7126 14.0468L38.3828 13.8204ZM37.8876 14.3533C37.6896 14.5159 37.4431 14.652 37.1444 14.759L37.2792 15.1356C37.6133 15.0159 37.902 14.8591 38.1415 14.6624L37.8876 14.3533ZM37.1436 14.7592C36.8576 14.8629 36.5183 14.9172 36.122 14.9172V15.3172C36.5538 15.3172 36.941 15.2582 37.28 15.1353L37.1436 14.7592ZM42.7869 8.66016H42.9869V8.46016H42.7869V8.66016ZM42.7869 9.69141V9.89141H42.9869V9.69141H42.7869ZM39.2127 9.69141H39.0127V9.89141H39.2127V9.69141ZM39.2127 8.66016V8.46016H39.0127V8.66016H39.2127ZM40.2439 7.10742V6.90742H40.0439V7.10742H40.2439ZM41.656 7.10742H41.856V6.90742H41.656V7.10742ZM41.738 13.6992L41.5603 13.7914L41.5648 13.7992L41.738 13.6992ZM42.8337 13.9043L43.0337 13.9032L43.0324 13.6572L42.7918 13.7087L42.8337 13.9043ZM42.8396 14.9824L42.8971 15.174L43.0404 15.131L43.0396 14.9813L42.8396 14.9824ZM42.4295 15.0762L42.395 14.8792L42.3941 14.8793L42.4295 15.0762ZM41.0408 14.9473L40.9559 15.1284L40.9582 15.1294L41.0408 14.9473ZM42.5869 8.66016V9.69141H42.9869V8.66016H42.5869ZM42.7869 9.49141H39.2127V9.89141H42.7869V9.49141ZM39.4127 9.69141V8.66016H39.0127V9.69141H39.4127ZM39.2127 8.86016H42.7869V8.46016H39.2127V8.86016ZM40.2439 7.30742H41.656V6.90742H40.2439V7.30742ZM41.456 7.10742V13.248H41.856V7.10742H41.456ZM41.456 13.248C41.456 13.4571 41.4845 13.6447 41.5605 13.7913L41.9156 13.6072C41.8822 13.5428 41.856 13.4296 41.856 13.248H41.456ZM41.5648 13.7992C41.6451 13.9383 41.7615 14.0409 41.9129 14.0933L42.0437 13.7153C41.9919 13.6974 41.9482 13.6632 41.9113 13.5993L41.5648 13.7992ZM41.9129 14.0933C42.0403 14.1374 42.1825 14.157 42.3357 14.157V13.757C42.2155 13.757 42.1194 13.7415 42.0437 13.7153L41.9129 14.0933ZM42.3357 14.157C42.4413 14.157 42.5438 14.1507 42.6428 14.1378L42.5911 13.7411C42.5105 13.7517 42.4254 13.757 42.3357 13.757V14.157ZM42.6428 14.1378C42.7352 14.1257 42.8134 14.1132 42.8757 14.0999L42.7918 13.7087C42.7447 13.7188 42.6784 13.7297 42.5911 13.7411L42.6428 14.1378ZM42.6338 13.9054L42.6396 14.9835L43.0396 14.9813L43.0337 13.9032L42.6338 13.9054ZM42.7821 14.7909C42.6743 14.8232 42.5456 14.8528 42.395 14.8792L42.4639 15.2732C42.6258 15.2448 42.7705 15.212 42.8971 15.174L42.7821 14.7909ZM42.3941 14.8793C42.2562 14.9041 42.0927 14.9172 41.9021 14.9172V15.3172C42.11 15.3172 42.298 15.303 42.4648 15.273L42.3941 14.8793ZM41.9021 14.9172C41.6013 14.9172 41.3431 14.8647 41.1233 14.7651L40.9582 15.1294C41.2384 15.2564 41.5545 15.3172 41.9021 15.3172V14.9172ZM41.1257 14.7662C40.9176 14.6687 40.7529 14.5111 40.631 14.2842L40.2787 14.4736C40.438 14.7701 40.6639 14.9915 40.9559 15.1284L41.1257 14.7662ZM40.631 14.2842C40.5116 14.0619 40.4439 13.7506 40.4439 13.3359H40.0439C40.0439 13.7885 40.1169 14.1724 40.2787 14.4736L40.631 14.2842ZM40.4439 13.3359V7.10742H40.0439V13.3359H40.4439ZM45.3854 6H45.5854V5.8H45.3854V6ZM45.2506 7.59375L45.0612 7.52967L45.0606 7.53136L45.2506 7.59375ZM44.8873 8.34961L45.0546 8.45928L45.0554 8.45803L44.8873 8.34961ZM44.3483 8.9707L44.2419 9.14007L44.3672 9.21879L44.4792 9.12194L44.3483 8.9707ZM43.6393 8.52539L43.4725 8.41507L43.3595 8.58585L43.5329 8.69475L43.6393 8.52539ZM44.026 7.75781L43.8385 7.68817L43.838 7.68968L44.026 7.75781ZM44.1784 6V5.8H43.9784V6H44.1784ZM45.1854 6V6.82617H45.5854V6H45.1854ZM45.1854 6.82617C45.1854 7.04767 45.145 7.28185 45.0612 7.52967L45.4401 7.65783C45.5359 7.3744 45.5854 7.09686 45.5854 6.82617H45.1854ZM45.0606 7.53136C44.9802 7.77612 44.8667 8.01268 44.7193 8.24118L45.0554 8.45803C45.2205 8.20217 45.3491 7.93482 45.4406 7.65614L45.0606 7.53136ZM44.7201 8.23994C44.5734 8.46369 44.4057 8.65651 44.2174 8.81947L44.4792 9.12194C44.6971 8.93334 44.8888 8.71209 45.0546 8.45928L44.7201 8.23994ZM44.4547 8.80134L43.7457 8.35603L43.5329 8.69475L44.2419 9.14007L44.4547 8.80134ZM43.8061 8.63571C43.9749 8.38052 44.1109 8.11052 44.2141 7.82594L43.838 7.68968C43.7458 7.94417 43.624 8.18589 43.4725 8.41507L43.8061 8.63571ZM44.2135 7.82745C44.3246 7.52838 44.3784 7.19765 44.3784 6.83789H43.9784C43.9784 7.15782 43.9306 7.44037 43.8385 7.68818L44.2135 7.82745ZM44.3784 6.83789V6H43.9784V6.83789H44.3784ZM44.1784 6.2H45.3854V5.8H44.1784V6.2ZM49.2905 12.9023L49.119 13.0053L49.1206 13.0078L49.2905 12.9023ZM48.8862 12.5859L48.7997 12.7662L48.8011 12.7669L48.8862 12.5859ZM48.0191 12.3281L47.9759 12.5234L47.9791 12.5241L48.0191 12.3281ZM47.0933 12.0645L47.0222 12.2514L47.0254 12.2526L47.0933 12.0645ZM47.1753 8.69531L47.1121 8.50557L47.1113 8.50582L47.1753 8.69531ZM49.5601 8.8125L49.4744 8.99322L49.4766 8.99425L49.5601 8.8125ZM50.439 9.5332L50.2726 9.64415L50.2732 9.64513L50.439 9.5332ZM50.7437 10.5527V10.7527H50.9437V10.5527H50.7437ZM49.3316 10.5527H49.1316V10.7527H49.3316V10.5527ZM49.2027 10.084L49.0275 10.1808L49.0307 10.1862L49.2027 10.084ZM48.8277 9.72656L48.7302 9.90123L48.7333 9.90292L48.8277 9.72656ZM47.5913 9.70312L47.6771 9.88379L47.679 9.88288L47.5913 9.70312ZM47.2398 9.99609L47.0717 9.88764L47.0692 9.89158L47.2398 9.99609ZM47.187 10.6816L47.0047 10.7645L47.0099 10.7744L47.187 10.6816ZM47.398 10.9102L47.2811 11.0725L47.2855 11.0755L47.398 10.9102ZM47.7964 11.0977L47.7305 11.2865L47.7319 11.287L47.7964 11.0977ZM48.4409 11.2676L48.3994 11.4632L48.3999 11.4633L48.4409 11.2676ZM49.689 11.6602L49.6053 11.8418L49.6078 11.8429L49.689 11.6602ZM50.4976 12.2695L50.3376 12.3895L50.3385 12.3907L50.4976 12.2695ZM50.5972 13.9805L50.4195 13.8887L50.4189 13.8898L50.5972 13.9805ZM50.0816 14.584L50.2007 14.7447L50.2024 14.7433L50.0816 14.584ZM49.2671 14.9766L49.2103 14.7848L49.2096 14.785L49.2671 14.9766ZM46.7534 14.8125L46.6612 14.99L46.6626 14.9907L46.7534 14.8125ZM45.8452 14.0215L45.6757 14.1277L45.6773 14.13L45.8452 14.0215ZM45.5405 13.0137V12.8137H45.3405V13.0137H45.5405ZM46.9058 13.0137L47.1054 13.0018L47.0942 12.8137H46.9058V13.0137ZM47.1226 13.6406L46.9682 13.7679L46.9718 13.7721L47.1226 13.6406ZM47.6148 13.9746L47.547 14.1628L47.5515 14.1643L47.6148 13.9746ZM48.8687 13.9746L48.9408 14.1612L48.9444 14.1597L48.8687 13.9746ZM49.2612 13.6934L49.42 13.8151L49.4219 13.8125L49.2612 13.6934ZM49.596 13.2832C49.596 13.1074 49.5515 12.9436 49.4605 12.7969L49.1206 13.0078C49.1702 13.0877 49.196 13.1777 49.196 13.2832H49.596ZM49.462 12.7994C49.3623 12.6333 49.1865 12.5062 48.9714 12.405L48.8011 12.7669C48.9844 12.8532 49.0781 12.937 49.119 13.0052L49.462 12.7994ZM48.9728 12.4056C48.7553 12.3012 48.4473 12.2114 48.0591 12.1322L47.9791 12.5241C48.3564 12.6011 48.6266 12.6831 48.7997 12.7662L48.9728 12.4056ZM48.0622 12.1328C47.7335 12.0602 47.4333 11.9746 47.1612 11.8763L47.0254 12.2526C47.3158 12.3574 47.6328 12.4476 47.9759 12.5234L48.0622 12.1328ZM47.1644 11.8775C46.9011 11.7774 46.6798 11.6587 46.4979 11.5232L46.2589 11.844C46.4755 12.0054 46.7308 12.1406 47.0222 12.2514L47.1644 11.8775ZM46.4979 11.5232C46.3203 11.3909 46.1861 11.2369 46.0916 11.0614L45.7395 11.2511C45.8637 11.4819 46.0381 11.6794 46.2589 11.844L46.4979 11.5232ZM46.0916 11.0614C46.0002 10.8916 45.9515 10.6907 45.9515 10.4531H45.5515C45.5515 10.7468 45.6122 11.0147 45.7395 11.2511L46.0916 11.0614ZM45.9515 10.4531C45.9515 10.2258 46.0012 10.0118 46.1009 9.80893L45.7419 9.63248C45.6151 9.89051 45.5515 10.1648 45.5515 10.4531H45.9515ZM46.1009 9.80893C46.201 9.60534 46.3449 9.42406 46.5358 9.26497L46.2797 8.95768C46.0487 9.15016 45.8684 9.37512 45.7419 9.63248L46.1009 9.80893ZM46.5358 9.26497C46.725 9.10725 46.9583 8.97969 47.2393 8.8848L47.1113 8.50582C46.7908 8.61406 46.5123 8.76384 46.2797 8.95768L46.5358 9.26497ZM47.2386 8.88505C47.5198 8.79131 47.8378 8.74297 48.1948 8.74297V8.34297C47.8019 8.34297 47.4402 8.39619 47.1121 8.50558L47.2386 8.88505ZM48.1948 8.74297C48.7041 8.74297 49.1284 8.82914 49.4744 8.99321L49.6458 8.63179C49.2339 8.43648 48.7481 8.34297 48.1948 8.34297V8.74297ZM49.4766 8.99425C49.8309 9.15694 50.0929 9.3747 50.2726 9.64414L50.6054 9.42226C50.3788 9.08233 50.0549 8.81962 49.6435 8.63075L49.4766 8.99425ZM50.2732 9.64513C50.453 9.91135 50.5437 10.2119 50.5437 10.5527H50.9437C50.9437 10.1358 50.8312 9.75662 50.6047 9.42127L50.2732 9.64513ZM50.7437 10.3527H49.3316V10.7527H50.7437V10.3527ZM49.5316 10.5527C49.5316 10.3487 49.4789 10.1572 49.3746 9.98177L49.0307 10.1862C49.0983 10.2998 49.1316 10.4208 49.1316 10.5527H49.5316ZM49.3777 9.98725C49.2748 9.80099 49.1197 9.65593 48.922 9.55021L48.7333 9.90292C48.8716 9.97688 48.9665 10.0701 49.0276 10.1807L49.3777 9.98725ZM48.9251 9.55192C48.7193 9.43706 48.4723 9.38594 48.1948 9.38594V9.78594C48.4252 9.78594 48.6 9.82857 48.7302 9.9012L48.9251 9.55192ZM48.1948 9.38594C47.9326 9.38594 47.6991 9.42803 47.5036 9.52337L47.679 9.88288C47.8039 9.82197 47.9727 9.78594 48.1948 9.78594V9.38594ZM47.5055 9.52247C47.3224 9.60943 47.1737 9.72956 47.0717 9.88767L47.4078 10.1045C47.4621 10.0204 47.5477 9.94526 47.6771 9.88378L47.5055 9.52247ZM47.0692 9.89158C46.9754 10.0447 46.9284 10.2138 46.9284 10.3945H47.3284C47.3284 10.2862 47.3557 10.1897 47.4103 10.1006L47.0692 9.89158ZM46.9284 10.3945C46.9284 10.5252 46.9528 10.6496 47.005 10.7644L47.3691 10.5989C47.3432 10.5418 47.3284 10.4748 47.3284 10.3945H46.9284ZM47.0099 10.7744C47.0709 10.891 47.1655 10.9892 47.2811 11.0725L47.5148 10.7478C47.4351 10.6905 47.3891 10.6363 47.3642 10.5888L47.0099 10.7744ZM47.2855 11.0755C47.4029 11.1554 47.5535 11.2247 47.7305 11.2865L47.8623 10.9088C47.7034 10.8534 47.5883 10.7977 47.5104 10.7448L47.2855 11.0755ZM47.7319 11.287C47.9138 11.349 48.137 11.4076 48.3994 11.4632L48.4824 11.0719C48.2293 11.0182 48.0227 10.9635 47.8609 10.9084L47.7319 11.287ZM48.3999 11.4633C48.8736 11.5626 49.2746 11.6895 49.6053 11.8418L49.7727 11.4785C49.4081 11.3105 48.977 11.1756 48.482 11.0718L48.3999 11.4633ZM49.6078 11.8429C49.9353 11.9885 50.1748 12.1725 50.3376 12.3895L50.6576 12.1495C50.4454 11.8666 50.1458 11.6443 49.7702 11.4774L49.6078 11.8429ZM50.3385 12.3907C50.4939 12.5948 50.5788 12.8618 50.5788 13.207H50.9788C50.9788 12.7944 50.8762 12.4365 50.6567 12.1483L50.3385 12.3907ZM50.5788 13.207C50.5788 13.4585 50.525 13.6845 50.4195 13.8887L50.7749 14.0723C50.9116 13.8077 50.9788 13.5181 50.9788 13.207H50.5788ZM50.4189 13.8898C50.3167 14.0907 50.1656 14.2692 49.9607 14.4246L50.2024 14.7433C50.4506 14.555 50.6433 14.3311 50.7755 14.0711L50.4189 13.8898ZM49.9625 14.4233C49.7576 14.5752 49.508 14.6966 49.2103 14.7848L49.3239 15.1683C49.659 15.069 49.9524 14.9287 50.2007 14.7446L49.9625 14.4233ZM49.2096 14.785C48.919 14.8722 48.5873 14.9172 48.2124 14.9172V15.3172C48.6188 15.3172 48.9902 15.2684 49.3246 15.1681L49.2096 14.785ZM48.2124 14.9172C47.6611 14.9172 47.2077 14.8196 46.8443 14.6343L46.6626 14.9907C47.096 15.2116 47.6153 15.3172 48.2124 15.3172V14.9172ZM46.8457 14.635C46.4725 14.4411 46.1983 14.1993 46.0132 13.9129L45.6773 14.13C45.9062 14.4843 46.2375 14.7698 46.6612 14.99L46.8457 14.635ZM46.0147 13.9153C45.8295 13.6196 45.7405 13.32 45.7405 13.0137H45.3405C45.3405 13.4026 45.4548 13.7749 45.6757 14.1277L46.0147 13.9153ZM45.5405 13.2137H46.9058V12.8137H45.5405V13.2137ZM46.7061 13.0256C46.7235 13.3171 46.8055 13.5705 46.9683 13.7679L47.2769 13.5133C47.1819 13.3982 47.1193 13.2336 47.1054 13.0018L46.7061 13.0256ZM46.9718 13.7721C47.1276 13.9508 47.3206 14.0813 47.547 14.1628L47.6825 13.7864C47.5183 13.7273 47.3831 13.6351 47.2733 13.5092L46.9718 13.7721ZM47.5515 14.1643C47.7712 14.2376 47.9977 14.2742 48.23 14.2742V13.8742C48.0405 13.8742 47.8567 13.8445 47.678 13.7849L47.5515 14.1643ZM48.23 14.2742C48.4999 14.2742 48.739 14.2391 48.9408 14.1612L48.7966 13.788C48.6546 13.8429 48.4679 13.8742 48.23 13.8742V14.2742ZM48.9444 14.1597C49.1407 14.0794 49.3037 13.9667 49.42 13.815L49.1025 13.5717C49.0391 13.6544 48.9404 13.7292 48.7929 13.7895L48.9444 14.1597ZM49.4219 13.8125C49.5376 13.6566 49.596 13.478 49.596 13.2832H49.196C49.196 13.3931 49.1646 13.4879 49.1006 13.5742L49.4219 13.8125ZM60.4231 12.2227V12.0227H60.2449L60.2245 12.1997L60.4231 12.2227ZM61.888 12.2227L62.0873 12.2394L62.1055 12.0227H61.888V12.2227ZM61.4192 13.7168L61.5898 13.8213L61.5902 13.8206L61.4192 13.7168ZM57.1243 14.8359L57.0417 15.0181L57.0431 15.0187L57.1243 14.8359ZM56.0403 14.0273L55.8883 14.1574L55.8891 14.1582L56.0403 14.0273ZM55.3489 12.7559L55.1581 12.8159L55.1586 12.8173L55.3489 12.7559ZM55.3548 8.71875L55.1649 8.65595L55.1644 8.65731L55.3548 8.71875ZM56.0579 7.44727L56.209 7.57825L56.2097 7.57742L56.0579 7.44727ZM57.1536 6.63281L57.0736 6.4495L57.073 6.44977L57.1536 6.63281ZM61.4134 7.76367L61.2407 7.86454L61.2413 7.86567L61.4134 7.76367ZM61.8938 9.28125V9.48125H62.1154L62.0928 9.26081L61.8938 9.28125ZM60.429 9.28125L60.2301 9.30241L60.2491 9.48125H60.429V9.28125ZM60.1712 8.33789L59.9917 8.42627L59.9928 8.4284L60.1712 8.33789ZM59.597 7.74023L59.5 7.9152L59.5021 7.91633L59.597 7.74023ZM56.7141 9.16406L56.5197 9.11706L56.5194 9.11862L56.7141 9.16406ZM56.7024 12.2637L56.5067 12.305L56.5073 12.3075L56.7024 12.2637ZM57.054 13.1602L56.8844 13.2662L56.8856 13.268L57.054 13.1602ZM59.5618 13.7461L59.4713 13.5677L59.4702 13.5683L59.5618 13.7461ZM60.1536 13.166L59.9769 13.0723L59.9764 13.0733L60.1536 13.166ZM60.4231 12.4227H61.888V12.0227H60.4231V12.4227ZM61.6887 12.2059C61.6441 12.7367 61.4963 13.2044 61.2483 13.613L61.5902 13.8206C61.8733 13.3542 62.0381 12.8258 62.0873 12.2394L61.6887 12.2059ZM61.2487 13.6123C61.0033 14.0129 60.6582 14.3304 60.2078 14.5648L60.3924 14.9196C60.9029 14.654 61.3039 14.2879 61.5898 13.8213L61.2487 13.6123ZM60.2078 14.5648C59.7625 14.7965 59.2119 14.9172 58.5481 14.9172V15.3172C59.2593 15.3172 59.8768 15.1879 60.3924 14.9196L60.2078 14.5648ZM58.5481 14.9172C58.0448 14.9172 57.5984 14.8278 57.2055 14.6532L57.0431 15.0187C57.4939 15.2191 57.9968 15.3172 58.5481 15.3172V14.9172ZM57.2069 14.6538C56.8112 14.4742 56.4733 14.2221 56.1916 13.8965L55.8891 14.1582C56.2089 14.5279 56.5937 14.8148 57.0417 15.0181L57.2069 14.6538ZM56.1923 13.8973C55.9107 13.5683 55.6923 13.1685 55.5392 12.6944L55.1586 12.8173C55.3258 13.3354 55.5683 13.7833 55.8883 14.1574L56.1923 13.8973ZM55.5397 12.6958C55.3905 12.2222 55.3145 11.6882 55.3145 11.0918H54.9145C54.9145 11.7219 54.9948 12.2973 55.1581 12.8159L55.5397 12.6958ZM55.3145 11.0918V10.3828H54.9145V11.0918H55.3145ZM55.3145 10.3828C55.3145 9.78681 55.3924 9.25329 55.5451 8.78019L55.1644 8.65731C54.9969 9.1764 54.9145 9.75225 54.9145 10.3828H55.3145ZM55.5447 8.78155C55.7014 8.30744 55.9236 7.90755 56.209 7.57825L55.9068 7.31628C55.5828 7.69011 55.3362 8.13788 55.1649 8.65595L55.5447 8.78155ZM56.2097 7.57742C56.4951 7.24454 56.836 6.9912 57.2342 6.81585L57.073 6.44977C56.6196 6.64942 56.2301 6.93905 55.906 7.31711L56.2097 7.57742ZM57.2336 6.81612C57.6347 6.64108 58.0893 6.55156 58.6009 6.55156V6.15156C58.0421 6.15156 57.5319 6.24954 57.0736 6.4495L57.2336 6.81612ZM58.6009 6.55156C59.2567 6.55156 59.7966 6.6722 60.2294 6.90303L60.4176 6.55009C59.9129 6.28092 59.3044 6.15156 58.6009 6.15156V6.55156ZM60.2294 6.90303C60.6668 7.13632 61.0023 7.45642 61.2407 7.86454L61.5861 7.6628C61.3088 7.18811 60.9177 6.81681 60.4176 6.55009L60.2294 6.90303ZM61.2413 7.86567C61.4866 8.27938 61.6389 8.7568 61.6949 9.30169L62.0928 9.26081C62.0316 8.66508 61.8635 8.13077 61.5854 7.66167L61.2413 7.86567ZM61.8938 9.08125H60.429V9.48125H61.8938V9.08125ZM60.6279 9.26009C60.5869 8.87472 60.4958 8.53557 60.3495 8.24738L59.9928 8.4284C60.1122 8.66365 60.193 8.9534 60.2301 9.30241L60.6279 9.26009ZM60.3506 8.24952C60.2035 7.95094 59.9828 7.72083 59.6918 7.56414L59.5021 7.91633C59.7189 8.03307 59.881 8.2014 59.9918 8.42626L60.3506 8.24952ZM59.6939 7.56528C59.4006 7.40283 59.0317 7.3293 58.6009 7.3293V7.7293C58.9903 7.7293 59.2855 7.79639 59.5001 7.91519L59.6939 7.56528ZM58.6009 7.3293C58.2401 7.3293 57.9153 7.3965 57.6325 7.53791L57.8114 7.89568C58.0286 7.7871 58.2898 7.7293 58.6009 7.7293V7.3293ZM57.6325 7.53791C57.3508 7.67874 57.1167 7.88539 56.9307 8.1536L57.2593 8.38156C57.4093 8.16539 57.5931 8.00485 57.8114 7.89568L57.6325 7.53791ZM56.9307 8.1536C56.7457 8.4203 56.6101 8.74318 56.5197 9.11706L56.9085 9.21106C56.99 8.87401 57.1084 8.59923 57.2593 8.38156L56.9307 8.1536ZM56.5194 9.11862C56.4331 9.48829 56.3911 9.90636 56.3911 10.3711H56.7911C56.7911 9.92957 56.8311 9.54296 56.9089 9.20951L56.5194 9.11862ZM56.3911 10.3711V11.0918H56.7911V10.3711H56.3911ZM56.3911 11.0918C56.3911 11.5328 56.4292 11.9375 56.5067 12.305L56.8981 12.2224C56.8272 11.8867 56.7911 11.5102 56.7911 11.0918H56.3911ZM56.5073 12.3075C56.5894 12.6727 56.714 12.9935 56.8844 13.2662L57.2236 13.0542C57.0815 12.8268 56.9717 12.5499 56.8976 12.2198L56.5073 12.3075ZM56.8856 13.268C57.0626 13.5443 57.2896 13.7614 57.5662 13.9151L57.7605 13.5654C57.5449 13.4456 57.3657 13.276 57.2224 13.0523L56.8856 13.268ZM57.5662 13.9151C57.8479 14.0716 58.1778 14.1453 58.5481 14.1453V13.7453C58.2309 13.7453 57.971 13.6823 57.7605 13.5654L57.5662 13.9151ZM58.5481 14.1453C58.9849 14.1453 59.3575 14.0763 59.6534 13.9239L59.4702 13.5683C59.2504 13.6815 58.9473 13.7453 58.5481 13.7453V14.1453ZM59.6523 13.9244C59.9502 13.7733 60.1782 13.5504 60.3308 13.2587L59.9764 13.0733C59.8633 13.2894 59.6969 13.4533 59.4713 13.5677L59.6523 13.9244ZM60.3303 13.2597C60.4814 12.9747 60.5767 12.6349 60.6218 12.2457L60.2245 12.1997C60.1836 12.5526 60.0992 12.8417 59.9769 13.0723L60.3303 13.2597ZM63.133 10.4941L63.3223 10.5585L63.3225 10.5579L63.133 10.4941ZM63.7072 9.46875L63.556 9.33776L63.5559 9.33792L63.7072 9.46875ZM64.633 8.78906L64.7136 8.97207L64.7146 8.97166L64.633 8.78906ZM67.1173 8.78906L67.035 8.97135L67.0374 8.97238L67.1173 8.78906ZM68.049 9.46875L67.8978 9.59974L67.8987 9.60074L68.049 9.46875ZM68.6291 10.4941L68.4395 10.5579L68.4397 10.5585L68.6291 10.4941ZM68.049 14.1973L68.1993 14.3293L68.2001 14.3283L68.049 14.1973ZM67.1232 14.877L67.2039 15.06L67.2055 15.0592L67.1232 14.877ZM64.6388 14.877L64.5565 15.0592L64.5589 15.0603L64.6388 14.877ZM63.713 14.1973L63.5619 14.3283L63.5628 14.3293L63.713 14.1973ZM66.5666 13.8281L66.4688 13.6536L66.4673 13.6545L66.5666 13.8281ZM67.3224 12.709L67.1282 12.6612L67.1275 12.664L67.3224 12.709ZM67.3224 10.9688L67.1275 11.0137L67.1284 11.0173L67.3224 10.9688ZM67.0412 10.2949L66.8727 10.4027L66.8743 10.4051L67.0412 10.2949ZM66.5607 9.83789L66.4588 10.0101L66.463 10.0124L66.5607 9.83789ZM65.1838 9.83789L65.283 10.0115L65.2841 10.0109L65.1838 9.83789ZM64.4338 10.9688L64.6285 11.0144L64.6286 11.0137L64.4338 10.9688ZM63.1338 11.9004V11.7656H62.7338V11.9004H63.1338ZM63.1338 11.7656C63.1338 11.3281 63.1973 10.9263 63.3223 10.5585L62.9436 10.4298C62.803 10.8432 62.7338 11.289 62.7338 11.7656H63.1338ZM63.3225 10.5579C63.4478 10.1858 63.6269 9.86731 63.8585 9.59958L63.5559 9.33792C63.2875 9.64832 63.0838 10.0134 62.9434 10.4303L63.3225 10.5579ZM63.8583 9.59974C64.0924 9.32965 64.3767 9.1206 64.7136 8.97207L64.5523 8.60606C64.1626 8.77784 63.8298 9.02192 63.556 9.33776L63.8583 9.59974ZM64.7146 8.97166C65.0526 8.82063 65.4382 8.74297 65.8752 8.74297V8.34297C65.3902 8.34297 64.9477 8.42937 64.5514 8.60646L64.7146 8.97166ZM65.8752 8.74297C66.3163 8.74297 66.7016 8.82074 67.035 8.97134L67.1997 8.60679C66.8066 8.42926 66.3637 8.34297 65.8752 8.34297V8.74297ZM67.0374 8.97238C67.3782 9.12103 67.6641 9.33006 67.8978 9.59974L68.2001 9.33776C67.926 9.0215 67.5909 8.77741 67.1973 8.60574L67.0374 8.97238ZM67.8987 9.60074C68.1338 9.86832 68.3145 10.1864 68.4395 10.5579L68.8186 10.4303C68.678 10.0128 68.472 9.64731 68.1992 9.33676L67.8987 9.60074ZM68.4397 10.5585C68.5648 10.9263 68.6283 11.3281 68.6283 11.7656H69.0283C69.0283 11.289 68.959 10.8432 68.8184 10.4298L68.4397 10.5585ZM68.6283 11.7656V11.9004H69.0283V11.7656H68.6283ZM68.6283 11.9004C68.6283 12.3379 68.5648 12.7397 68.4397 13.1075L68.8184 13.2363C68.959 12.8228 69.0283 12.377 69.0283 11.9004H68.6283ZM68.4397 13.1075C68.3147 13.4752 68.1338 13.7941 67.8978 14.0663L68.2001 14.3283C68.472 14.0145 68.6778 13.6498 68.8184 13.2363L68.4397 13.1075ZM67.8987 14.0653C67.6643 14.3322 67.3792 14.5419 67.0409 14.6947L67.2055 15.0592C67.5938 14.8839 67.9259 14.6405 68.1992 14.3293L67.8987 14.0653ZM67.0425 14.6939C66.7084 14.8412 66.3245 14.9172 65.8869 14.9172V15.3172C66.3712 15.3172 66.8114 15.233 67.2039 15.06L67.0425 14.6939ZM65.8869 14.9172C65.4452 14.9172 65.057 14.8412 64.7188 14.6936L64.5589 15.0603C64.955 15.2331 65.3989 15.3172 65.8869 15.3172V14.9172ZM64.7211 14.6947C64.3829 14.5419 64.0977 14.3322 63.8633 14.0653L63.5628 14.3293C63.8362 14.6405 64.1682 14.8839 64.5565 15.0592L64.7211 14.6947ZM63.8642 14.0663C63.6283 13.7941 63.4474 13.4752 63.3223 13.1075L62.9436 13.2363C63.0842 13.6498 63.29 14.0145 63.5619 14.3283L63.8642 14.0663ZM63.3223 13.1075C63.1973 12.7397 63.1338 12.3379 63.1338 11.9004H62.7338C62.7338 12.377 62.803 12.8228 62.9436 13.2363L63.3223 13.1075ZM64.1459 11.7656V11.9004H64.5459V11.7656H64.1459ZM64.1459 11.9004C64.1459 12.1993 64.1766 12.484 64.2389 12.754L64.6286 12.664C64.5737 12.4262 64.5459 12.1718 64.5459 11.9004H64.1459ZM64.2389 12.754C64.302 13.0276 64.4022 13.2727 64.5417 13.4863L64.8766 13.2676C64.7661 13.0984 64.6827 12.8982 64.6286 12.664L64.2389 12.754ZM64.5417 13.4863C64.6839 13.7041 64.8678 13.8771 65.0919 14.0026L65.2873 13.6536C65.1208 13.5604 64.9843 13.4326 64.8766 13.2676L64.5417 13.4863ZM65.0919 14.0026C65.3226 14.1318 65.5901 14.1922 65.8869 14.1922V13.7922C65.6446 13.7922 65.4472 13.7432 65.2873 13.6536L65.0919 14.0026ZM65.8869 14.1922C66.1769 14.1922 66.439 14.1314 66.6658 14.0018L66.4673 13.6545C66.3114 13.7436 66.1203 13.7922 65.8869 13.7922V14.1922ZM66.6643 14.0026C66.8884 13.8771 67.0722 13.7041 67.2145 13.4863L66.8796 13.2676C66.7718 13.4326 66.6354 13.5604 66.4688 13.6536L66.6643 14.0026ZM67.2145 13.4863C67.354 13.2727 67.4542 13.0276 67.5173 12.754L67.1275 12.664C67.0735 12.8982 66.9901 13.0984 66.8796 13.2676L67.2145 13.4863ZM67.5166 12.7568C67.5833 12.4859 67.6162 12.2002 67.6162 11.9004H67.2162C67.2162 12.1709 67.1865 12.4243 67.1282 12.6612L67.5166 12.7568ZM67.6162 11.9004V11.7656H67.2162V11.9004H67.6162ZM67.6162 11.7656C67.6162 11.4695 67.5833 11.1875 67.5165 10.9202L67.1284 11.0173C67.1866 11.25 67.2162 11.4993 67.2162 11.7656H67.6162ZM67.5173 10.9238C67.454 10.6493 67.3515 10.4021 67.2081 10.1848L66.8743 10.4051C66.9886 10.5784 67.0737 10.7804 67.1275 11.0137L67.5173 10.9238ZM67.2096 10.1871C67.0676 9.96512 66.8835 9.78943 66.6584 9.66339L66.463 10.0124C66.6285 10.1051 66.7648 10.2341 66.8727 10.4027L67.2096 10.1871ZM66.6626 9.66578C66.4348 9.53098 66.1696 9.46797 65.8752 9.46797V9.86797C66.1119 9.86797 66.3038 9.91824 66.4588 10.01L66.6626 9.66578ZM65.8752 9.46797C65.5806 9.46797 65.3142 9.53102 65.0834 9.66488L65.2841 10.0109C65.4439 9.9182 65.6385 9.86797 65.8752 9.86797V9.46797ZM65.0845 9.66424C64.8636 9.79048 64.6822 9.96604 64.5407 10.1871L64.8776 10.4027C64.9861 10.2332 65.1211 10.104 65.283 10.0115L65.0845 9.66424ZM64.5407 10.1871C64.4019 10.4039 64.302 10.6503 64.2389 10.9238L64.6286 11.0137C64.6827 10.7794 64.7664 10.5765 64.8776 10.4027L64.5407 10.1871ZM64.239 10.9231C64.1766 11.1894 64.1459 11.4705 64.1459 11.7656H64.5459C64.5459 11.4983 64.5737 11.2481 64.6285 11.0144L64.239 10.9231ZM71.5323 10.0137H71.7326L71.7319 10.0016L71.5323 10.0137ZM71.5323 15V15.2H71.7323V15H71.5323ZM70.1202 15H69.9202V15.2H70.1202V15ZM70.1202 8.66016V8.46016H69.9202V8.66016H70.1202ZM71.4502 8.66016L71.6499 8.64806L71.6385 8.46016H71.4502V8.66016ZM71.2803 11.5957L71.2777 11.7957L71.4803 11.7983V11.5957H71.2803ZM70.8233 11.5898L70.6233 11.5881L70.6216 11.7873L70.8207 11.7898L70.8233 11.5898ZM71.0108 10.3535L70.821 10.2903L70.8205 10.2921L71.0108 10.3535ZM71.5264 9.38672L71.3722 9.25934L71.3711 9.26068L71.5264 9.38672ZM72.3233 8.76562L72.4081 8.94675L72.41 8.94586L72.3233 8.76562ZM74.1807 8.67188L74.1148 8.86073L74.1183 8.86191L74.1807 8.67188ZM74.8194 9.07617L74.6735 9.21297L74.675 9.21455L74.8194 9.07617ZM75.2295 9.80859L75.0386 9.86811L75.0388 9.86882L75.2295 9.80859ZM75.3702 15V15.2H75.5702V15H75.3702ZM73.9522 15H73.7522V15.2H73.9522V15ZM73.8174 10.1777L73.6369 10.2641L73.6393 10.2688L73.8174 10.1777ZM73.4366 9.79688L73.3505 9.97752L73.3557 9.97981L73.4366 9.79688ZM71.6846 10.248L71.525 10.1275L71.5233 10.1298L71.6846 10.248ZM71.3323 10.0137V15H71.7323V10.0137H71.3323ZM71.5323 14.8H70.1202V15.2H71.5323V14.8ZM70.3202 15V8.66016H69.9202V15H70.3202ZM70.1202 8.86016H71.4502V8.46016H70.1202V8.86016ZM71.2506 8.67226L71.3326 10.0258L71.7319 10.0016L71.6499 8.64806L71.2506 8.67226ZM71.2829 11.3957L70.8258 11.3899L70.8207 11.7898L71.2777 11.7957L71.2829 11.3957ZM71.0233 11.5916C71.027 11.1599 71.087 10.7682 71.2011 10.415L70.8205 10.2921C70.6923 10.6888 70.6273 11.1214 70.6233 11.5881L71.0233 11.5916ZM71.2005 10.4168C71.319 10.0615 71.4801 9.76119 71.6817 9.51275L71.3711 9.26068C71.1352 9.55131 70.9526 9.89557 70.821 10.2903L71.2005 10.4168ZM71.6806 9.5141C71.8849 9.26678 72.127 9.07839 72.4081 8.94674L72.2385 8.58451C71.9023 8.74193 71.6132 8.96759 71.3722 9.25934L71.6806 9.5141ZM72.41 8.94586C72.6888 8.81176 73.0024 8.74297 73.3545 8.74297V8.34297C72.9488 8.34297 72.575 8.42261 72.2366 8.58539L72.41 8.94586ZM73.3545 8.74297C73.6405 8.74297 73.8931 8.78329 74.1148 8.86069L74.2466 8.48306C73.9761 8.38859 73.678 8.34297 73.3545 8.34297V8.74297ZM74.1183 8.86191C74.3373 8.93374 74.5212 9.05053 74.6735 9.21296L74.9653 8.93938C74.766 8.72681 74.5241 8.57408 74.2431 8.48184L74.1183 8.86191ZM74.675 9.21455C74.8292 9.37545 74.9521 9.59065 75.0386 9.86811L75.4205 9.74908C75.3194 9.42497 75.1689 9.15189 74.9638 8.93779L74.675 9.21455ZM75.0388 9.86882C75.1245 10.1402 75.1702 10.4838 75.1702 10.9043H75.5702C75.5702 10.4577 75.522 10.0707 75.4202 9.74837L75.0388 9.86882ZM75.1702 10.9043V15H75.5702V10.9043H75.1702ZM75.3702 14.8H73.9522V15.2H75.3702V14.8ZM74.1522 15V10.8984H73.7522V15H74.1522ZM74.1522 10.8984C74.1522 10.5777 74.1055 10.3019 73.9955 10.0867L73.6393 10.2688C73.709 10.4052 73.7522 10.6098 73.7522 10.8984H74.1522ZM73.9978 10.0914C73.8932 9.87262 73.7329 9.70914 73.5174 9.61394L73.3557 9.97981C73.4762 10.033 73.5698 10.1235 73.637 10.264L73.9978 10.0914ZM73.5225 9.6163C73.3239 9.52169 73.0872 9.47969 72.8213 9.47969V9.87969C73.0477 9.87969 73.2211 9.91581 73.3506 9.97745L73.5225 9.6163ZM72.8213 9.47969C72.5504 9.47969 72.3007 9.53675 72.0772 9.65536L72.2647 10.0087C72.4239 9.92419 72.6079 9.87969 72.8213 9.87969V9.47969ZM72.0772 9.65536C71.8596 9.77083 71.6751 9.92882 71.525 10.1275L71.8442 10.3686C71.9597 10.2157 72.0995 10.0964 72.2647 10.0087L72.0772 9.65536ZM71.5233 10.1298C71.3798 10.3255 71.2707 10.5493 71.1945 10.7991L71.5771 10.9158C71.6415 10.7046 71.7316 10.5222 71.8459 10.3663L71.5233 10.1298ZM71.1945 10.7991C71.1179 11.05 71.0803 11.3159 71.0803 11.5957H71.4803C71.4803 11.3521 71.513 11.1258 71.5771 10.9158L71.1945 10.7991ZM78.332 10.0137H78.5323L78.5316 10.0016L78.332 10.0137ZM78.332 15V15.2H78.532V15H78.332ZM76.9198 15H76.7198V15.2H76.9198V15ZM76.9198 8.66016V8.46016H76.7198V8.66016H76.9198ZM78.2499 8.66016L78.4496 8.64806L78.4382 8.46016H78.2499V8.66016ZM78.08 11.5957L78.0774 11.7957L78.28 11.7983V11.5957H78.08ZM77.623 11.5898L77.423 11.5881L77.4212 11.7873L77.6204 11.7898L77.623 11.5898ZM77.8105 10.3535L77.6207 10.2903L77.6201 10.2921L77.8105 10.3535ZM78.3261 9.38672L78.1719 9.25934L78.1708 9.26068L78.3261 9.38672ZM79.123 8.76562L79.2078 8.94675L79.2097 8.94586L79.123 8.76562ZM80.9804 8.67188L80.9144 8.86073L80.918 8.86191L80.9804 8.67188ZM81.6191 9.07617L81.4731 9.21297L81.4747 9.21455L81.6191 9.07617ZM82.0292 9.80859L81.8383 9.86811L81.8385 9.86882L82.0292 9.80859ZM82.1698 15V15.2H82.3698V15H82.1698ZM80.7519 15H80.5519V15.2H80.7519V15ZM80.6171 10.1777L80.4366 10.2641L80.439 10.2688L80.6171 10.1777ZM80.2363 9.79688L80.1502 9.97752L80.1554 9.97981L80.2363 9.79688ZM78.4843 10.248L78.3247 10.1275L78.323 10.1298L78.4843 10.248ZM78.132 10.0137V15H78.532V10.0137H78.132ZM78.332 14.8H76.9198V15.2H78.332V14.8ZM77.1198 15V8.66016H76.7198V15H77.1198ZM76.9198 8.86016H78.2499V8.46016H76.9198V8.86016ZM78.0503 8.67226L78.1323 10.0258L78.5316 10.0016L78.4496 8.64806L78.0503 8.67226ZM78.0826 11.3957L77.6255 11.3899L77.6204 11.7898L78.0774 11.7957L78.0826 11.3957ZM77.823 11.5916C77.8267 11.1599 77.8867 10.7682 78.0008 10.415L77.6201 10.2921C77.492 10.6888 77.427 11.1214 77.423 11.5881L77.823 11.5916ZM78.0002 10.4168C78.1186 10.0615 78.2798 9.76119 78.4814 9.51275L78.1708 9.26068C77.9349 9.55131 77.7523 9.89557 77.6207 10.2903L78.0002 10.4168ZM78.4803 9.5141C78.6846 9.26678 78.9267 9.07839 79.2078 8.94674L79.0381 8.58451C78.702 8.74193 78.4129 8.96759 78.1719 9.25934L78.4803 9.5141ZM79.2097 8.94586C79.4884 8.81176 79.8021 8.74297 80.1542 8.74297V8.34297C79.7485 8.34297 79.3747 8.42261 79.0363 8.58539L79.2097 8.94586ZM80.1542 8.74297C80.4402 8.74297 80.6928 8.78329 80.9145 8.86069L81.0463 8.48306C80.7758 8.38859 80.4776 8.34297 80.1542 8.34297V8.74297ZM80.918 8.86191C81.137 8.93374 81.3209 9.05053 81.4732 9.21296L81.765 8.93938C81.5657 8.72681 81.3238 8.57408 81.0427 8.48184L80.918 8.86191ZM81.4747 9.21455C81.6289 9.37545 81.7518 9.59065 81.8383 9.86811L82.2202 9.74908C82.1191 9.42497 81.9686 9.15189 81.7635 8.93779L81.4747 9.21455ZM81.8385 9.86882C81.9242 10.1402 81.9698 10.4838 81.9698 10.9043H82.3698C82.3698 10.4577 82.3217 10.0707 82.2199 9.74837L81.8385 9.86882ZM81.9698 10.9043V15H82.3698V10.9043H81.9698ZM82.1698 14.8H80.7519V15.2H82.1698V14.8ZM80.9519 15V10.8984H80.5519V15H80.9519ZM80.9519 10.8984C80.9519 10.5777 80.9052 10.3019 80.7952 10.0867L80.439 10.2688C80.5087 10.4052 80.5519 10.6098 80.5519 10.8984H80.9519ZM80.7975 10.0914C80.6929 9.87262 80.5325 9.70914 80.3171 9.61394L80.1554 9.97981C80.2759 10.033 80.3695 10.1235 80.4367 10.264L80.7975 10.0914ZM80.3222 9.6163C80.1236 9.52169 79.8869 9.47969 79.621 9.47969V9.87969C79.8473 9.87969 80.0208 9.91581 80.1503 9.97745L80.3222 9.6163ZM79.621 9.47969C79.3501 9.47969 79.1004 9.53675 78.8769 9.65536L79.0644 10.0087C79.2236 9.92419 79.4076 9.87969 79.621 9.87969V9.47969ZM78.8769 9.65536C78.6593 9.77083 78.4748 9.92882 78.3247 10.1275L78.6439 10.3686C78.7594 10.2157 78.8992 10.0964 79.0644 10.0087L78.8769 9.65536ZM78.323 10.1298C78.1795 10.3255 78.0704 10.5493 77.9942 10.7991L78.3768 10.9158C78.4412 10.7046 78.5313 10.5222 78.6456 10.3663L78.323 10.1298ZM77.9942 10.7991C77.9176 11.05 77.88 11.3159 77.88 11.5957H78.28C78.28 11.3521 78.3127 11.1258 78.3768 10.9158L77.9942 10.7991ZM85.2547 14.8887L85.1778 15.0733L85.1801 15.0742L85.2547 14.8887ZM84.2938 14.2383L84.1483 14.3755L84.1493 14.3766L84.2938 14.2383ZM84.2996 9.43359L84.448 9.56773L84.4489 9.56672L84.2996 9.43359ZM88.3895 9.41602L88.2335 9.54124L88.2354 9.54362L88.3895 9.41602ZM88.8934 10.3945L88.7012 10.45L88.7017 10.4518L88.8934 10.3945ZM89.0633 12.252V12.452H89.2633V12.252H89.0633ZM84.1648 12.252H83.9648V12.452H84.1648V12.252ZM84.1648 11.2383V11.0383H83.9648V11.2383H84.1648ZM87.6688 11.2383V11.4383H87.8688V11.2383H87.6688ZM87.6688 11.127H87.8688L87.8687 11.1208L87.6688 11.127ZM87.5164 10.4121L87.3309 10.487L87.3321 10.4897L87.5164 10.4121ZM85.7234 9.82031L85.8189 9.99604L85.8203 9.99532L85.7234 9.82031ZM84.991 10.9277L84.797 10.8792L84.7965 10.8813L84.991 10.9277ZM85.0086 12.8203L84.8176 12.8798L84.8189 12.8836L85.0086 12.8203ZM85.8875 13.8516L85.8007 14.0318L85.8035 14.0331L85.8875 13.8516ZM88.2078 13.2129L88.347 13.0692L88.1872 12.9145L88.0502 13.0898L88.2078 13.2129ZM88.952 13.9336L89.1169 14.0468L89.2125 13.9075L89.0911 13.7899L88.952 13.9336ZM88.4188 14.5078L88.5457 14.6624L88.5473 14.661L88.4188 14.5078ZM87.616 14.9473L87.5486 14.759L87.5479 14.7592L87.616 14.9473ZM86.5262 14.9172C86.0792 14.9172 85.6812 14.8446 85.3293 14.7031L85.1801 15.0742C85.5859 15.2374 86.0356 15.3172 86.5262 15.3172V14.9172ZM85.3316 14.7041C84.9806 14.5578 84.6836 14.3562 84.4382 14.0999L84.1493 14.3766C84.4351 14.675 84.7788 14.9071 85.1778 15.0733L85.3316 14.7041ZM84.4392 14.101C84.1967 13.844 84.0093 13.5409 83.8775 13.1895L83.503 13.33C83.6525 13.7286 83.8674 14.0779 84.1483 14.3755L84.4392 14.101ZM83.8775 13.1895C83.746 12.8388 83.6793 12.4585 83.6793 12.0469H83.2793C83.2793 12.5025 83.3533 12.9307 83.503 13.33L83.8775 13.1895ZM83.6793 12.0469V11.8125H83.2793V12.0469H83.6793ZM83.6793 11.8125C83.6793 11.3358 83.7487 10.9099 83.8843 10.5325L83.5079 10.3972C83.3544 10.8244 83.2793 11.297 83.2793 11.8125H83.6793ZM83.8843 10.5325C84.021 10.1519 84.2095 9.83146 84.448 9.56772L84.1513 9.29946C83.8741 9.60604 83.6602 9.97308 83.5079 10.3972L83.8843 10.5325ZM84.4489 9.56672C84.6876 9.29907 84.9686 9.09567 85.2932 8.955L85.1342 8.58797C84.7557 8.75198 84.4273 8.99 84.1504 9.30047L84.4489 9.56672ZM85.2932 8.955C85.6179 8.81428 85.9715 8.74297 86.3563 8.74297V8.34297C85.9207 8.34297 85.5125 8.424 85.1342 8.58797L85.2932 8.955ZM86.3563 8.74297C86.7872 8.74297 87.1547 8.8154 87.4639 8.95399L87.6275 8.58898C87.257 8.42289 86.8316 8.34297 86.3563 8.34297V8.74297ZM87.4639 8.95399C87.7762 9.094 88.0316 9.28975 88.2335 9.54122L88.5454 9.29081C88.302 8.98759 87.9949 8.75365 87.6275 8.58898L87.4639 8.95399ZM88.2354 9.54362C88.4426 9.79366 88.5986 10.0946 88.7012 10.45L89.0855 10.3391C88.9694 9.93668 88.7894 9.58525 88.5435 9.28841L88.2354 9.54362ZM88.7017 10.4518C88.8087 10.8095 88.8633 11.2079 88.8633 11.6484H89.2633C89.2633 11.175 89.2046 10.7374 89.085 10.3372L88.7017 10.4518ZM88.8633 11.6484V12.252H89.2633V11.6484H88.8633ZM89.0633 12.052H84.1648V12.452H89.0633V12.052ZM84.3648 12.252V11.2383H83.9648V12.252H84.3648ZM84.1648 11.4383H87.6688V11.0383H84.1648V11.4383ZM87.8688 11.2383V11.127H87.4688V11.2383H87.8688ZM87.8687 11.1208C87.8601 10.8436 87.8045 10.581 87.7007 10.3345L87.3321 10.4897C87.4158 10.6886 87.4617 10.9025 87.4688 11.1331L87.8687 11.1208ZM87.7019 10.3373C87.5986 10.0812 87.437 9.87098 87.2182 9.71145L86.9826 10.0346C87.1388 10.1485 87.2546 10.2977 87.3309 10.4869L87.7019 10.3373ZM87.2182 9.71145C86.9864 9.54241 86.6908 9.46797 86.3504 9.46797V9.86797C86.635 9.86797 86.8394 9.93024 86.9826 10.0346L87.2182 9.71145ZM86.3504 9.46797C86.0862 9.46797 85.8432 9.5255 85.6266 9.64531L85.8203 9.99532C85.9709 9.912 86.1458 9.86797 86.3504 9.86797V9.46797ZM85.6279 9.64459C85.4162 9.75966 85.2418 9.92655 85.1043 10.1395L85.4403 10.3566C85.5449 10.1945 85.6713 10.0763 85.8189 9.99604L85.6279 9.64459ZM85.1043 10.1395C84.9689 10.3491 84.8676 10.597 84.797 10.8792L85.185 10.9762C85.2473 10.7273 85.3334 10.522 85.4403 10.3566L85.1043 10.1395ZM84.7965 10.8813C84.7297 11.1611 84.6973 11.472 84.6973 11.8125H85.0973C85.0973 11.4967 85.1274 11.2178 85.1855 10.9742L84.7965 10.8813ZM84.6973 11.8125V12.0469H85.0973V11.8125H84.6973ZM84.6973 12.0469C84.6973 12.3422 84.7368 12.6202 84.8176 12.8798L85.1995 12.7608C85.132 12.5438 85.0973 12.3063 85.0973 12.0469H84.6973ZM84.8189 12.8836C84.9044 13.1402 85.0296 13.368 85.1956 13.5646L85.5012 13.3065C85.3704 13.1515 85.269 12.9692 85.1983 12.7571L84.8189 12.8836ZM85.1956 13.5646C85.3626 13.7623 85.5649 13.9182 85.8007 14.0318L85.9743 13.6714C85.7882 13.5818 85.6312 13.4604 85.5012 13.3065L85.1956 13.5646ZM85.8035 14.0331C86.0446 14.1447 86.3143 14.198 86.6082 14.198V13.798C86.3631 13.798 86.1522 13.7537 85.9715 13.6701L85.8035 14.0331ZM86.6082 14.198C86.9755 14.198 87.3103 14.124 87.6079 13.9708L87.4249 13.6151C87.1912 13.7354 86.9206 13.798 86.6082 13.798V14.198ZM87.6079 13.9708C87.9009 13.82 88.1534 13.6074 88.3654 13.336L88.0502 13.0898C87.8716 13.3184 87.6632 13.4925 87.4249 13.6151L87.6079 13.9708ZM88.0687 13.3566L88.8128 14.0773L89.0911 13.7899L88.347 13.0692L88.0687 13.3566ZM88.7871 13.8204C88.6622 14.0023 88.4975 14.1806 88.2902 14.3546L88.5473 14.661C88.7775 14.4678 88.9682 14.2633 89.1169 14.0468L88.7871 13.8204ZM88.2918 14.3533C88.0938 14.5159 87.8473 14.652 87.5486 14.759L87.6834 15.1356C88.0175 15.0159 88.3062 14.8591 88.5457 14.6624L88.2918 14.3533ZM87.5479 14.7592C87.2618 14.8629 86.9225 14.9172 86.5262 14.9172V15.3172C86.958 15.3172 87.3452 15.2582 87.6842 15.1353L87.5479 14.7592ZM93.4958 13.8574L93.5837 14.0371L93.5852 14.0363L93.4958 13.8574ZM93.947 13.4707L93.7842 13.3544L93.7824 13.3571L93.947 13.4707ZM94.1403 12.9023V12.7023H93.9509L93.9406 12.8915L94.1403 12.9023ZM95.4704 12.9023L95.6704 12.9062L95.6742 12.7023H95.4704V12.9023ZM94.1755 14.8242L94.2656 15.0027L94.2671 15.002L94.1755 14.8242ZM91.6266 14.8711L91.542 15.0523L91.5436 15.053L91.6266 14.8711ZM90.1911 13.166L89.9998 13.2246L90.0004 13.2263L90.1911 13.166ZM90.1911 10.5L90.0002 10.4402L89.9999 10.4415L90.1911 10.5ZM91.6266 8.79492L91.7097 8.97687L91.7113 8.97611L91.6266 8.79492ZM94.2223 8.84766L94.1286 9.02433L94.13 9.02507L94.2223 8.84766ZM95.1247 9.68555L94.9538 9.78954L94.9552 9.79171L95.1247 9.68555ZM95.4704 10.9277V11.1277H95.6737L95.6704 10.9244L95.4704 10.9277ZM94.1403 10.9277L93.9406 10.9377L93.9501 11.1277H94.1403V10.9277ZM93.9645 10.2949L93.7878 10.3887L93.7902 10.393L93.9645 10.2949ZM93.5309 9.83789L93.4259 10.0081L93.4275 10.0091L93.5309 9.83789ZM92.1598 9.84375L92.2633 10.015L92.2658 10.0133L92.1598 9.84375ZM91.7204 10.3125L91.8964 10.4075L91.8971 10.4061L91.7204 10.3125ZM91.4919 10.9746L91.2954 10.9372L91.295 10.9397L91.4919 10.9746ZM91.7145 13.3594L91.5385 13.4544L91.5409 13.4586L91.7145 13.3594ZM92.1598 13.8223L92.0538 13.9919L92.0564 13.9934L92.1598 13.8223ZM92.8747 14.1922C93.1317 14.1922 93.3694 14.1419 93.5837 14.0371L93.4079 13.6778C93.255 13.7526 93.0786 13.7922 92.8747 13.7922V14.1922ZM93.5852 14.0363C93.8013 13.9283 93.9781 13.7776 94.1115 13.5843L93.7824 13.3571C93.6892 13.492 93.5653 13.5991 93.4063 13.6785L93.5852 14.0363ZM94.1097 13.587C94.2505 13.3899 94.3264 13.1633 94.34 12.9132L93.9406 12.8915C93.9308 13.071 93.8778 13.2234 93.7842 13.3545L94.1097 13.587ZM94.1403 13.1023H95.4704V12.7023H94.1403V13.1023ZM95.2704 12.8985C95.2634 13.2691 95.1547 13.6037 94.9431 13.907L95.2711 14.1359C95.5282 13.7674 95.6618 13.3559 95.6704 12.9062L95.2704 12.8985ZM94.9431 13.907C94.7285 14.2146 94.4435 14.4612 94.0839 14.6464L94.2671 15.002C94.6809 14.7888 95.017 14.5002 95.2711 14.1359L94.9431 13.907ZM94.0853 14.6457C93.7288 14.8258 93.3323 14.9172 92.8923 14.9172V15.3172C93.3897 15.3172 93.8487 15.2133 94.2656 15.0027L94.0853 14.6457ZM92.8923 14.9172C92.4302 14.9172 92.0378 14.8389 91.7097 14.6892L91.5436 15.053C91.9342 15.2314 92.3856 15.3172 92.8923 15.3172V14.9172ZM91.7113 14.6899C91.3779 14.5341 91.1036 14.3219 90.8853 14.0535L90.575 14.3059C90.8333 14.6234 91.1567 14.8722 91.542 15.0523L91.7113 14.6899ZM90.8853 14.0535C90.6639 13.7813 90.4958 13.466 90.3818 13.1057L90.0004 13.2263C90.1286 13.6316 90.3198 13.9922 90.575 14.3059L90.8853 14.0535ZM90.3823 13.1075C90.2715 12.7453 90.2153 12.355 90.2153 11.9355H89.8153C89.8153 12.3911 89.8763 12.8211 89.9999 13.2246L90.3823 13.1075ZM90.2153 11.9355V11.7305H89.8153V11.9355H90.2153ZM90.2153 11.7305C90.2153 11.311 90.2715 10.9207 90.3823 10.5585L89.9999 10.4415C89.8763 10.8449 89.8153 11.275 89.8153 11.7305H90.2153ZM90.382 10.5598C90.496 10.1955 90.6642 9.87855 90.8853 9.60667L90.575 9.35427C90.3196 9.66832 90.1283 10.0311 90.0002 10.4402L90.382 10.5598ZM90.8853 9.60667C91.1033 9.33869 91.377 9.12874 91.7097 8.97686L91.5436 8.61298C91.1575 8.78922 90.8336 9.03631 90.575 9.35427L90.8853 9.60667ZM91.7113 8.97611C92.0392 8.82287 92.4291 8.74297 92.8864 8.74297V8.34297C92.3827 8.34297 91.9328 8.43104 91.542 8.61374L91.7113 8.97611ZM92.8864 8.74297C93.3672 8.74297 93.7792 8.83896 94.1286 9.02433L94.3161 8.67099C93.8998 8.45011 93.4213 8.34297 92.8864 8.34297V8.74297ZM94.13 9.02507C94.4813 9.20789 94.7546 9.46218 94.9538 9.78954L95.2955 9.58156C95.0573 9.19017 94.729 8.88586 94.3147 8.67024L94.13 9.02507ZM94.9552 9.79171C95.1561 10.1125 95.2631 10.4901 95.2704 10.931L95.6704 10.9244C95.662 10.4201 95.5385 9.9695 95.2942 9.57938L94.9552 9.79171ZM95.4704 10.7277H94.1403V11.1277H95.4704V10.7277ZM94.3401 10.9177C94.3269 10.6553 94.2608 10.4137 94.1388 10.1969L93.7902 10.393C93.8792 10.5511 93.9302 10.7314 93.9406 10.9377L94.3401 10.9177ZM94.1412 10.2012C94.0225 9.97744 93.8525 9.79848 93.6344 9.66671L93.4275 10.0091C93.5844 10.1039 93.7035 10.2296 93.7879 10.3887L94.1412 10.2012ZM93.636 9.66768C93.4151 9.53142 93.1564 9.46797 92.8688 9.46797V9.86797C93.0968 9.86797 93.2796 9.9178 93.4259 10.0081L93.636 9.66768ZM92.8688 9.46797C92.5569 9.46797 92.2811 9.5321 92.0538 9.67415L92.2658 10.0133C92.4136 9.92102 92.6105 9.86797 92.8688 9.86797V9.46797ZM92.0564 9.67257C91.837 9.80516 91.6655 9.98864 91.5436 10.2189L91.8971 10.4061C91.9862 10.2379 92.1077 10.1089 92.2633 10.0149L92.0564 9.67257ZM91.5444 10.2175C91.428 10.433 91.3456 10.6735 91.2954 10.9372L91.6883 11.012C91.7319 10.7835 91.8018 10.5827 91.8964 10.4075L91.5444 10.2175ZM91.295 10.9397C91.2498 11.1941 91.2274 11.4578 91.2274 11.7305H91.6274C91.6274 11.4797 91.648 11.2395 91.6888 11.0095L91.295 10.9397ZM91.2274 11.7305V11.9355H91.6274V11.7305H91.2274ZM91.2274 11.9355C91.2274 12.2083 91.2498 12.4737 91.2949 12.7317L91.6889 12.6629C91.648 12.4287 91.6274 12.1863 91.6274 11.9355H91.2274ZM91.2949 12.7317C91.3411 12.9963 91.4217 13.2379 91.5385 13.4544L91.8905 13.2643C91.7965 13.0902 91.7286 12.8904 91.6889 12.6629L91.2949 12.7317ZM91.5409 13.4586C91.6667 13.6788 91.8384 13.8572 92.0538 13.9919L92.2658 13.6527C92.1063 13.5529 91.9811 13.4228 91.8882 13.2601L91.5409 13.4586ZM92.0564 13.9934C92.2836 14.1307 92.5605 14.1922 92.8747 14.1922V13.7922C92.6107 13.7922 92.4111 13.7404 92.2633 13.6511L92.0564 13.9934ZM99.5806 8.66016H99.7806V8.46016H99.5806V8.66016ZM99.5806 9.69141V9.89141H99.7806V9.69141H99.5806ZM96.0064 9.69141H95.8064V9.89141H96.0064V9.69141ZM96.0064 8.66016V8.46016H95.8064V8.66016H96.0064ZM97.0377 7.10742V6.90742H96.8377V7.10742H97.0377ZM98.4498 7.10742H98.6498V6.90742H98.4498V7.10742ZM98.5318 13.6992L98.3541 13.7914L98.3586 13.7992L98.5318 13.6992ZM99.6275 13.9043L99.8275 13.9032L99.8262 13.6572L99.5856 13.7087L99.6275 13.9043ZM99.6334 14.9824L99.6908 15.174L99.8342 15.131L99.8334 14.9813L99.6334 14.9824ZM99.2232 15.0762L99.1887 14.8792L99.1879 14.8793L99.2232 15.0762ZM97.8345 14.9473L97.7496 15.1284L97.752 15.1294L97.8345 14.9473ZM99.3806 8.66016V9.69141H99.7806V8.66016H99.3806ZM99.5806 9.49141H96.0064V9.89141H99.5806V9.49141ZM96.2064 9.69141V8.66016H95.8064V9.69141H96.2064ZM96.0064 8.86016H99.5806V8.46016H96.0064V8.86016ZM97.0377 7.30742H98.4498V6.90742H97.0377V7.30742ZM98.2498 7.10742V13.248H98.6498V7.10742H98.2498ZM98.2498 13.248C98.2498 13.4571 98.2782 13.6447 98.3542 13.7913L98.7094 13.6072C98.676 13.5428 98.6498 13.4296 98.6498 13.248H98.2498ZM98.3586 13.7992C98.4388 13.9383 98.5553 14.0409 98.7066 14.0933L98.8375 13.7153C98.7856 13.6974 98.7419 13.6632 98.705 13.5993L98.3586 13.7992ZM98.7066 14.0933C98.8341 14.1374 98.9762 14.157 99.1295 14.157V13.757C99.0092 13.757 98.9131 13.7415 98.8375 13.7153L98.7066 14.0933ZM99.1295 14.157C99.2351 14.157 99.3375 14.1507 99.4366 14.1378L99.3848 13.7411C99.3042 13.7517 99.2191 13.757 99.1295 13.757V14.157ZM99.4366 14.1378C99.5289 14.1257 99.6072 14.1132 99.6694 14.0999L99.5856 13.7087C99.5384 13.7188 99.4722 13.7297 99.3848 13.7411L99.4366 14.1378ZM99.4275 13.9054L99.4334 14.9835L99.8334 14.9813L99.8275 13.9032L99.4275 13.9054ZM99.5759 14.7909C99.4681 14.8232 99.3394 14.8528 99.1887 14.8792L99.2577 15.2732C99.4196 15.2448 99.5643 15.212 99.6908 15.174L99.5759 14.7909ZM99.1879 14.8793C99.05 14.9041 98.8864 14.9172 98.6959 14.9172V15.3172C98.9037 15.3172 99.0918 15.303 99.2585 15.273L99.1879 14.8793ZM98.6959 14.9172C98.395 14.9172 98.1369 14.8647 97.9171 14.7651L97.752 15.1294C98.0322 15.2564 98.3483 15.3172 98.6959 15.3172V14.9172ZM97.9194 14.7662C97.7114 14.6687 97.5467 14.5111 97.4248 14.2842L97.0724 14.4736C97.2318 14.7701 97.4577 14.9915 97.7496 15.1284L97.9194 14.7662ZM97.4248 14.2842C97.3053 14.0619 97.2377 13.7506 97.2377 13.3359H96.8377C96.8377 13.7885 96.9106 14.1724 97.0724 14.4736L97.4248 14.2842ZM97.2377 13.3359V7.10742H96.8377V13.3359H97.2377Z" fill="#010101" fill-opacity="0.098" mask="url(#path-4-inside-1_4_1101)"/>
<path d="M32.2109 12.834V14H27.9277V12.834H32.2109ZM28.3379 5.46875V14H26.8672V5.46875H28.3379ZM36.122 14.1172C35.6532 14.1172 35.2294 14.041 34.8505 13.8887C34.4755 13.7324 34.1552 13.5156 33.8895 13.2383C33.6278 12.9609 33.4266 12.6348 33.286 12.2598C33.1454 11.8848 33.0751 11.4805 33.0751 11.0469V10.8125C33.0751 10.3164 33.1473 9.86719 33.2919 9.46484C33.4364 9.0625 33.6376 8.71875 33.8954 8.43359C34.1532 8.14453 34.4579 7.92383 34.8095 7.77148C35.161 7.61914 35.5419 7.54297 35.952 7.54297C36.4052 7.54297 36.8016 7.61914 37.1415 7.77148C37.4813 7.92383 37.7626 8.13867 37.9852 8.41602C38.2118 8.68945 38.3798 9.01562 38.4891 9.39453C38.6024 9.77344 38.6591 10.1914 38.6591 10.6484V11.252H33.7606V10.2383H37.2645V10.127C37.2567 9.87305 37.2059 9.63477 37.1122 9.41211C37.0223 9.18945 36.8837 9.00977 36.6962 8.87305C36.5087 8.73633 36.2587 8.66797 35.9462 8.66797C35.7118 8.66797 35.5028 8.71875 35.3192 8.82031C35.1395 8.91797 34.9891 9.06055 34.868 9.24805C34.747 9.43555 34.6532 9.66211 34.5868 9.92773C34.5243 10.1895 34.493 10.4844 34.493 10.8125V11.0469C34.493 11.3242 34.5302 11.582 34.6044 11.8203C34.6825 12.0547 34.7958 12.2598 34.9442 12.4355C35.0927 12.6113 35.2723 12.75 35.4833 12.8516C35.6942 12.9492 35.9345 12.998 36.204 12.998C36.5438 12.998 36.8466 12.9297 37.1122 12.793C37.3778 12.6562 37.6083 12.4629 37.8036 12.2129L38.5477 12.9336C38.411 13.1328 38.2333 13.3242 38.0145 13.5078C37.7958 13.6875 37.5282 13.834 37.2118 13.9473C36.8993 14.0605 36.536 14.1172 36.122 14.1172ZM42.7869 7.66016V8.69141H39.2127V7.66016H42.7869ZM40.2439 6.10742H41.656V12.248C41.656 12.4434 41.6834 12.5938 41.738 12.6992C41.7966 12.8008 41.8767 12.8691 41.9783 12.9043C42.0798 12.9395 42.199 12.957 42.3357 12.957C42.4334 12.957 42.5271 12.9512 42.617 12.9395C42.7068 12.9277 42.7791 12.916 42.8337 12.9043L42.8396 13.9824C42.7224 14.0176 42.5857 14.0488 42.4295 14.0762C42.2771 14.1035 42.1013 14.1172 41.9021 14.1172C41.5779 14.1172 41.2908 14.0605 41.0408 13.9473C40.7908 13.8301 40.5955 13.6406 40.4548 13.3789C40.3142 13.1172 40.2439 12.7695 40.2439 12.3359V6.10742ZM45.3854 5V5.82617C45.3854 6.07227 45.3405 6.32812 45.2506 6.59375C45.1647 6.85547 45.0436 7.10742 44.8873 7.34961C44.7311 7.58789 44.5514 7.79492 44.3483 7.9707L43.6393 7.52539C43.7995 7.2832 43.9284 7.02734 44.026 6.75781C44.1276 6.48438 44.1784 6.17773 44.1784 5.83789V5H45.3854ZM49.396 12.2832C49.396 12.1426 49.3609 12.0156 49.2905 11.9023C49.2202 11.7852 49.0855 11.6797 48.8862 11.5859C48.6909 11.4922 48.4019 11.4062 48.0191 11.3281C47.6831 11.2539 47.3745 11.166 47.0933 11.0645C46.8159 10.959 46.5777 10.832 46.3784 10.6836C46.1792 10.5352 46.0249 10.3594 45.9155 10.1562C45.8062 9.95312 45.7515 9.71875 45.7515 9.45312C45.7515 9.19531 45.8081 8.95117 45.9214 8.7207C46.0347 8.49023 46.1968 8.28711 46.4077 8.11133C46.6187 7.93555 46.8745 7.79688 47.1753 7.69531C47.48 7.59375 47.8198 7.54297 48.1948 7.54297C48.7261 7.54297 49.1812 7.63281 49.5601 7.8125C49.9429 7.98828 50.2359 8.22852 50.439 8.5332C50.6421 8.83398 50.7437 9.17383 50.7437 9.55273H49.3316C49.3316 9.38477 49.2886 9.22852 49.2027 9.08398C49.1206 8.93555 48.9956 8.81641 48.8277 8.72656C48.6597 8.63281 48.4487 8.58594 48.1948 8.58594C47.9527 8.58594 47.7515 8.625 47.5913 8.70312C47.4351 8.77734 47.3179 8.875 47.2398 8.99609C47.1655 9.11719 47.1284 9.25 47.1284 9.39453C47.1284 9.5 47.148 9.5957 47.187 9.68164C47.23 9.76367 47.3003 9.83984 47.398 9.91016C47.4956 9.97656 47.6284 10.0391 47.7964 10.0977C47.9683 10.1562 48.1831 10.2129 48.4409 10.2676C48.9253 10.3691 49.3413 10.5 49.689 10.6602C50.0405 10.8164 50.3101 11.0195 50.4976 11.2695C50.6851 11.5156 50.7788 11.8281 50.7788 12.207C50.7788 12.4883 50.7183 12.7461 50.5972 12.9805C50.48 13.2109 50.3081 13.4121 50.0816 13.584C49.855 13.752 49.5835 13.8828 49.2671 13.9766C48.9546 14.0703 48.603 14.1172 48.2124 14.1172C47.6382 14.1172 47.1519 14.0156 46.7534 13.8125C46.355 13.6055 46.0523 13.3418 45.8452 13.0215C45.6421 12.6973 45.5405 12.3613 45.5405 12.0137H46.9058C46.9214 12.2754 46.9937 12.4844 47.1226 12.6406C47.2554 12.793 47.4195 12.9043 47.6148 12.9746C47.814 13.041 48.0191 13.0742 48.23 13.0742C48.4839 13.0742 48.6968 13.041 48.8687 12.9746C49.0405 12.9043 49.1714 12.8105 49.2612 12.6934C49.3511 12.5723 49.396 12.4355 49.396 12.2832ZM60.4231 11.2227H61.888C61.8411 11.7812 61.6848 12.2793 61.4192 12.7168C61.1536 13.1504 60.7805 13.4922 60.3001 13.7422C59.8196 13.9922 59.2356 14.1172 58.5481 14.1172C58.0208 14.1172 57.5462 14.0234 57.1243 13.8359C56.7024 13.6445 56.3411 13.375 56.0403 13.0273C55.7395 12.6758 55.5091 12.252 55.3489 11.7559C55.1927 11.2598 55.1145 10.7051 55.1145 10.0918V9.38281C55.1145 8.76953 55.1946 8.21484 55.3548 7.71875C55.5188 7.22266 55.7532 6.79883 56.0579 6.44727C56.3626 6.0918 56.7278 5.82031 57.1536 5.63281C57.5833 5.44531 58.0657 5.35156 58.6009 5.35156C59.2805 5.35156 59.8548 5.47656 60.3235 5.72656C60.7923 5.97656 61.1555 6.32227 61.4134 6.76367C61.6751 7.20508 61.8352 7.71094 61.8938 8.28125H60.429C60.3899 7.91406 60.304 7.59961 60.1712 7.33789C60.0423 7.07617 59.8509 6.87695 59.597 6.74023C59.343 6.59961 59.011 6.5293 58.6009 6.5293C58.2649 6.5293 57.972 6.5918 57.722 6.7168C57.472 6.8418 57.263 7.02539 57.095 7.26758C56.927 7.50977 56.8001 7.80859 56.7141 8.16406C56.6321 8.51562 56.5911 8.91797 56.5911 9.37109V10.0918C56.5911 10.5215 56.6282 10.9121 56.7024 11.2637C56.7805 11.6113 56.8977 11.9102 57.054 12.1602C57.2141 12.4102 57.4173 12.6035 57.6634 12.7402C57.9095 12.877 58.2044 12.9453 58.5481 12.9453C58.9661 12.9453 59.304 12.8789 59.5618 12.7461C59.8235 12.6133 60.0208 12.4199 60.1536 12.166C60.2903 11.9082 60.3802 11.5938 60.4231 11.2227ZM62.9338 10.9004V10.7656C62.9338 10.3086 63.0002 9.88477 63.133 9.49414C63.2658 9.09961 63.4572 8.75781 63.7072 8.46875C63.9611 8.17578 64.2697 7.94922 64.633 7.78906C65.0002 7.625 65.4142 7.54297 65.8752 7.54297C66.34 7.54297 66.7541 7.625 67.1173 7.78906C67.4845 7.94922 67.7951 8.17578 68.049 8.46875C68.3029 8.75781 68.4963 9.09961 68.6291 9.49414C68.7619 9.88477 68.8283 10.3086 68.8283 10.7656V10.9004C68.8283 11.3574 68.7619 11.7812 68.6291 12.1719C68.4963 12.5625 68.3029 12.9043 68.049 13.1973C67.7951 13.4863 67.4865 13.7129 67.1232 13.877C66.7599 14.0371 66.3478 14.1172 65.8869 14.1172C65.422 14.1172 65.006 14.0371 64.6388 13.877C64.2755 13.7129 63.967 13.4863 63.713 13.1973C63.4591 12.9043 63.2658 12.5625 63.133 12.1719C63.0002 11.7812 62.9338 11.3574 62.9338 10.9004ZM64.3459 10.7656V10.9004C64.3459 11.1855 64.3752 11.4551 64.4338 11.709C64.4923 11.9629 64.5841 12.1855 64.7091 12.377C64.8341 12.5684 64.9943 12.7188 65.1896 12.8281C65.3849 12.9375 65.6173 12.9922 65.8869 12.9922C66.1486 12.9922 66.3752 12.9375 66.5666 12.8281C66.7619 12.7188 66.922 12.5684 67.047 12.377C67.172 12.1855 67.2638 11.9629 67.3224 11.709C67.3849 11.4551 67.4162 11.1855 67.4162 10.9004V10.7656C67.4162 10.4844 67.3849 10.2188 67.3224 9.96875C67.2638 9.71484 67.1701 9.49023 67.0412 9.29492C66.9162 9.09961 66.756 8.94727 66.5607 8.83789C66.3693 8.72461 66.1408 8.66797 65.8752 8.66797C65.6095 8.66797 65.3791 8.72461 65.1838 8.83789C64.9923 8.94727 64.8341 9.09961 64.7091 9.29492C64.5841 9.49023 64.4923 9.71484 64.4338 9.96875C64.3752 10.2188 64.3459 10.4844 64.3459 10.7656ZM71.5323 9.01367V14H70.1202V7.66016H71.4502L71.5323 9.01367ZM71.2803 10.5957L70.8233 10.5898C70.8272 10.1406 70.8897 9.72852 71.0108 9.35352C71.1358 8.97852 71.3077 8.65625 71.5264 8.38672C71.7491 8.11719 72.0147 7.91016 72.3233 7.76562C72.6319 7.61719 72.9756 7.54297 73.3545 7.54297C73.6592 7.54297 73.9346 7.58594 74.1807 7.67188C74.4307 7.75391 74.6436 7.88867 74.8194 8.07617C74.9991 8.26367 75.1358 8.50781 75.2295 8.80859C75.3233 9.10547 75.3702 9.4707 75.3702 9.9043V14H73.9522V9.89844C73.9522 9.59375 73.9073 9.35352 73.8174 9.17773C73.7315 8.99805 73.6045 8.87109 73.4366 8.79688C73.2725 8.71875 73.0674 8.67969 72.8213 8.67969C72.5791 8.67969 72.3623 8.73047 72.1709 8.83203C71.9795 8.93359 71.8174 9.07227 71.6846 9.24805C71.5557 9.42383 71.4561 9.62695 71.3858 9.85742C71.3155 10.0879 71.2803 10.334 71.2803 10.5957ZM78.332 9.01367V14H76.9198V7.66016H78.2499L78.332 9.01367ZM78.08 10.5957L77.623 10.5898C77.6269 10.1406 77.6894 9.72852 77.8105 9.35352C77.9355 8.97852 78.1073 8.65625 78.3261 8.38672C78.5488 8.11719 78.8144 7.91016 79.123 7.76562C79.4316 7.61719 79.7753 7.54297 80.1542 7.54297C80.4589 7.54297 80.7343 7.58594 80.9804 7.67188C81.2304 7.75391 81.4433 7.88867 81.6191 8.07617C81.7988 8.26367 81.9355 8.50781 82.0292 8.80859C82.123 9.10547 82.1698 9.4707 82.1698 9.9043V14H80.7519V9.89844C80.7519 9.59375 80.707 9.35352 80.6171 9.17773C80.5312 8.99805 80.4042 8.87109 80.2363 8.79688C80.0722 8.71875 79.8671 8.67969 79.621 8.67969C79.3788 8.67969 79.162 8.73047 78.9706 8.83203C78.7792 8.93359 78.6171 9.07227 78.4843 9.24805C78.3554 9.42383 78.2558 9.62695 78.1855 9.85742C78.1152 10.0879 78.08 10.334 78.08 10.5957ZM86.5262 14.1172C86.0574 14.1172 85.6336 14.041 85.2547 13.8887C84.8797 13.7324 84.5594 13.5156 84.2938 13.2383C84.032 12.9609 83.8309 12.6348 83.6902 12.2598C83.5496 11.8848 83.4793 11.4805 83.4793 11.0469V10.8125C83.4793 10.3164 83.5516 9.86719 83.6961 9.46484C83.8406 9.0625 84.0418 8.71875 84.2996 8.43359C84.5574 8.14453 84.8621 7.92383 85.2137 7.77148C85.5652 7.61914 85.9461 7.54297 86.3563 7.54297C86.8094 7.54297 87.2059 7.61914 87.5457 7.77148C87.8855 7.92383 88.1668 8.13867 88.3895 8.41602C88.616 8.68945 88.784 9.01562 88.8934 9.39453C89.0066 9.77344 89.0633 10.1914 89.0633 10.6484V11.252H84.1648V10.2383H87.6688V10.127C87.6609 9.87305 87.6102 9.63477 87.5164 9.41211C87.4266 9.18945 87.2879 9.00977 87.1004 8.87305C86.9129 8.73633 86.6629 8.66797 86.3504 8.66797C86.116 8.66797 85.907 8.71875 85.7234 8.82031C85.5438 8.91797 85.3934 9.06055 85.2723 9.24805C85.1512 9.43555 85.0574 9.66211 84.991 9.92773C84.9285 10.1895 84.8973 10.4844 84.8973 10.8125V11.0469C84.8973 11.3242 84.9344 11.582 85.0086 11.8203C85.0867 12.0547 85.2 12.2598 85.3484 12.4355C85.4969 12.6113 85.6766 12.75 85.8875 12.8516C86.0984 12.9492 86.3387 12.998 86.6082 12.998C86.948 12.998 87.2508 12.9297 87.5164 12.793C87.782 12.6562 88.0125 12.4629 88.2078 12.2129L88.952 12.9336C88.8152 13.1328 88.6375 13.3242 88.4188 13.5078C88.2 13.6875 87.9324 13.834 87.616 13.9473C87.3035 14.0605 86.9402 14.1172 86.5262 14.1172ZM92.8747 12.9922C93.1052 12.9922 93.3122 12.9473 93.4958 12.8574C93.6833 12.7637 93.8337 12.6348 93.947 12.4707C94.0641 12.3066 94.1286 12.1172 94.1403 11.9023H95.4704C95.4626 12.3125 95.3415 12.6855 95.1071 13.0215C94.8727 13.3574 94.5622 13.625 94.1755 13.8242C93.7887 14.0195 93.361 14.1172 92.8923 14.1172C92.4079 14.1172 91.986 14.0352 91.6266 13.8711C91.2673 13.7031 90.9684 13.4727 90.7302 13.1797C90.4919 12.8867 90.3122 12.5488 90.1911 12.166C90.0739 11.7832 90.0153 11.373 90.0153 10.9355V10.7305C90.0153 10.293 90.0739 9.88281 90.1911 9.5C90.3122 9.11328 90.4919 8.77344 90.7302 8.48047C90.9684 8.1875 91.2673 7.95898 91.6266 7.79492C91.986 7.62695 92.4059 7.54297 92.8864 7.54297C93.3942 7.54297 93.8395 7.64453 94.2223 7.84766C94.6052 8.04688 94.9059 8.32617 95.1247 8.68555C95.3473 9.04102 95.4626 9.45508 95.4704 9.92773H94.1403C94.1286 9.69336 94.07 9.48242 93.9645 9.29492C93.863 9.10352 93.7184 8.95117 93.5309 8.83789C93.3473 8.72461 93.1266 8.66797 92.8688 8.66797C92.5837 8.66797 92.3473 8.72656 92.1598 8.84375C91.9723 8.95703 91.8259 9.11328 91.7204 9.3125C91.6149 9.50781 91.5387 9.72852 91.4919 9.97461C91.4489 10.2168 91.4274 10.4688 91.4274 10.7305V10.9355C91.4274 11.1973 91.4489 11.4512 91.4919 11.6973C91.5348 11.9434 91.6091 12.1641 91.7145 12.3594C91.8239 12.5508 91.9723 12.7051 92.1598 12.8223C92.3473 12.9355 92.5856 12.9922 92.8747 12.9922ZM99.5806 7.66016V8.69141H96.0064V7.66016H99.5806ZM97.0377 6.10742H98.4498V12.248C98.4498 12.4434 98.4771 12.5938 98.5318 12.6992C98.5904 12.8008 98.6705 12.8691 98.772 12.9043C98.8736 12.9395 98.9927 12.957 99.1295 12.957C99.2271 12.957 99.3209 12.9512 99.4107 12.9395C99.5005 12.9277 99.5728 12.916 99.6275 12.9043L99.6334 13.9824C99.5162 14.0176 99.3795 14.0488 99.2232 14.0762C99.0709 14.1035 98.8951 14.1172 98.6959 14.1172C98.3716 14.1172 98.0845 14.0605 97.8345 13.9473C97.5845 13.8301 97.3892 13.6406 97.2486 13.3789C97.108 13.1172 97.0377 12.7695 97.0377 12.3359V6.10742Z" fill="white"/>
<path d="M2 0H78C79.1046 0 80 1.34315 80 3V17C80 18.6569 79.1046 20 78 20H2C0.895431 20 0 18.6569 0 17V3C0 1.34315 0.895431 0 2 0Z" fill="url(#paint0_linear_4_1101)"/>
<defs>
<linearGradient id="paint0_linear_4_1101" x1="0" y1="0" x2="0" y2="20" gradientUnits="userSpaceOnUse">
<stop stop-color="#BBBBBB" stop-opacity="0.1"/>
<stop offset="1" stop-opacity="0.1"/>
</linearGradient>
<clipPath id="clip0_4_1101">
<rect width="13" height="13" fill="white" transform="translate(8 3.5)"/>
</clipPath>
</defs>
</svg>
