<svg width="101" height="20" viewBox="0 0 101 20" fill="none" xmlns="http://www.w3.org/2000/svg">
<rect width="101" height="20" rx="3" fill="#555555"/>
<mask id="path-2-inside-1_8_116" fill="white">
<path d="M11.5215 15.1172C11.0527 15.1172 10.6289 15.041 10.25 14.8887C9.875 14.7324 9.55469 14.5156 9.28906 14.2383C9.02734 13.9609 8.82617 13.6348 8.68555 13.2598C8.54492 12.8848 8.47461 12.4805 8.47461 12.0469V11.8125C8.47461 11.3164 8.54688 10.8672 8.69141 10.4648C8.83594 10.0625 9.03711 9.71875 9.29492 9.43359C9.55273 9.14453 9.85742 8.92383 10.209 8.77148C10.5605 8.61914 10.9414 8.54297 11.3516 8.54297C11.8047 8.54297 12.2012 8.61914 12.541 8.77148C12.8809 8.92383 13.1621 9.13867 13.3848 9.41602C13.6113 9.68945 13.7793 10.0156 13.8887 10.3945C14.002 10.7734 14.0586 11.1914 14.0586 11.6484V12.252H9.16016V11.2383H12.6641V11.127C12.6562 10.873 12.6055 10.6348 12.5117 10.4121C12.4219 10.1895 12.2832 10.0098 12.0957 9.87305C11.9082 9.73633 11.6582 9.66797 11.3457 9.66797C11.1113 9.66797 10.9023 9.71875 10.7188 9.82031C10.5391 9.91797 10.3887 10.0605 10.2676 10.248C10.1465 10.4355 10.0527 10.6621 9.98633 10.9277C9.92383 11.1895 9.89258 11.4844 9.89258 11.8125V12.0469C9.89258 12.3242 9.92969 12.582 10.0039 12.8203C10.082 13.0547 10.1953 13.2598 10.3438 13.4355C10.4922 13.6113 10.6719 13.75 10.8828 13.8516C11.0938 13.9492 11.334 13.998 11.6035 13.998C11.9434 13.998 12.2461 13.9297 12.5117 13.793C12.7773 13.6562 13.0078 13.4629 13.2031 13.2129L13.9473 13.9336C13.8105 14.1328 13.6328 14.3242 13.4141 14.5078C13.1953 14.6875 12.9277 14.834 12.6113 14.9473C12.2988 15.0605 11.9355 15.1172 11.5215 15.1172ZM16.3583 8.66016L17.5653 10.7637L18.7958 8.66016H20.3485L18.4266 11.7715L20.4247 15H18.872L17.5829 12.8086L16.2938 15H14.7352L16.7274 11.7715L14.8114 8.66016H16.3583ZM22.8533 9.87891V17.4375H21.4412V8.66016H22.742L22.8533 9.87891ZM26.9841 11.7715V11.8945C26.9841 12.3555 26.9295 12.7832 26.8201 13.1777C26.7146 13.5684 26.5564 13.9102 26.3455 14.2031C26.1384 14.4922 25.8826 14.7168 25.5779 14.877C25.2732 15.0371 24.9216 15.1172 24.5232 15.1172C24.1287 15.1172 23.783 15.0449 23.4861 14.9004C23.1931 14.752 22.9451 14.543 22.742 14.2734C22.5388 14.0039 22.3748 13.6875 22.2498 13.3242C22.1287 12.957 22.0427 12.5547 21.992 12.1172V11.6426C22.0427 11.1777 22.1287 10.7559 22.2498 10.377C22.3748 9.99805 22.5388 9.67188 22.742 9.39844C22.9451 9.125 23.1931 8.91406 23.4861 8.76562C23.7791 8.61719 24.1209 8.54297 24.5115 8.54297C24.9099 8.54297 25.2634 8.62109 25.572 8.77734C25.8806 8.92969 26.1404 9.14844 26.3513 9.43359C26.5623 9.71484 26.7205 10.0547 26.8259 10.4531C26.9314 10.8477 26.9841 11.2871 26.9841 11.7715ZM25.572 11.8945V11.7715C25.572 11.4785 25.5447 11.207 25.49 10.957C25.4353 10.7031 25.3494 10.4805 25.2322 10.2891C25.115 10.0977 24.9646 9.94922 24.781 9.84375C24.6013 9.73438 24.3845 9.67969 24.1306 9.67969C23.8806 9.67969 23.6658 9.72266 23.4861 9.80859C23.3064 9.89062 23.156 10.0059 23.0349 10.1543C22.9138 10.3027 22.8201 10.4766 22.7537 10.6758C22.6873 10.8711 22.6404 11.084 22.613 11.3145V12.4512C22.6599 12.7324 22.74 12.9902 22.8533 13.2246C22.9666 13.459 23.1267 13.6465 23.3337 13.7871C23.5447 13.9238 23.8142 13.9922 24.1423 13.9922C24.3962 13.9922 24.613 13.9375 24.7927 13.8281C24.9724 13.7188 25.1189 13.5684 25.2322 13.377C25.3494 13.1816 25.4353 12.957 25.49 12.7031C25.5447 12.4492 25.572 12.1797 25.572 11.8945ZM31.1002 15.1172C30.6315 15.1172 30.2077 15.041 29.8288 14.8887C29.4538 14.7324 29.1334 14.5156 28.8678 14.2383C28.6061 13.9609 28.4049 13.6348 28.2643 13.2598C28.1237 12.8848 28.0534 12.4805 28.0534 12.0469V11.8125C28.0534 11.3164 28.1256 10.8672 28.2702 10.4648C28.4147 10.0625 28.6159 9.71875 28.8737 9.43359C29.1315 9.14453 29.4362 8.92383 29.7877 8.77148C30.1393 8.61914 30.5202 8.54297 30.9303 8.54297C31.3834 8.54297 31.7799 8.61914 32.1198 8.77148C32.4596 8.92383 32.7409 9.13867 32.9635 9.41602C33.1901 9.68945 33.358 10.0156 33.4674 10.3945C33.5807 10.7734 33.6373 11.1914 33.6373 11.6484V12.252H28.7389V11.2383H32.2428V11.127C32.235 10.873 32.1842 10.6348 32.0905 10.4121C32.0006 10.1895 31.862 10.0098 31.6745 9.87305C31.487 9.73633 31.237 9.66797 30.9245 9.66797C30.6901 9.66797 30.4811 9.71875 30.2975 9.82031C30.1178 9.91797 29.9674 10.0605 29.8463 10.248C29.7252 10.4355 29.6315 10.6621 29.5651 10.9277C29.5026 11.1895 29.4713 11.4844 29.4713 11.8125V12.0469C29.4713 12.3242 29.5084 12.582 29.5827 12.8203C29.6608 13.0547 29.7741 13.2598 29.9225 13.4355C30.0709 13.6113 30.2506 13.75 30.4616 13.8516C30.6725 13.9492 30.9127 13.998 31.1823 13.998C31.5221 13.998 31.8248 13.9297 32.0905 13.793C32.3561 13.6562 32.5866 13.4629 32.7819 13.2129L33.526 13.9336C33.3893 14.1328 33.2116 14.3242 32.9928 14.5078C32.7741 14.6875 32.5065 14.834 32.1901 14.9473C31.8776 15.0605 31.5143 15.1172 31.1002 15.1172ZM36.2769 9.86719V15H34.8648V8.66016H36.2124L36.2769 9.86719ZM38.2163 8.61914L38.2046 9.93164C38.1187 9.91602 38.0249 9.9043 37.9234 9.89648C37.8257 9.88867 37.728 9.88477 37.6304 9.88477C37.3882 9.88477 37.1753 9.91992 36.9917 9.99023C36.8081 10.0566 36.6538 10.1543 36.5288 10.2832C36.4077 10.4082 36.314 10.5605 36.2476 10.7402C36.1812 10.9199 36.1421 11.1211 36.1304 11.3438L35.8081 11.3672C35.8081 10.9688 35.8472 10.5996 35.9253 10.2598C36.0034 9.91992 36.1206 9.62109 36.2769 9.36328C36.437 9.10547 36.6362 8.9043 36.8745 8.75977C37.1167 8.61523 37.396 8.54297 37.7124 8.54297C37.7984 8.54297 37.8902 8.55078 37.9878 8.56641C38.0894 8.58203 38.1655 8.59961 38.2163 8.61914ZM40.7328 8.66016V15H39.3148V8.66016H40.7328ZM39.2211 6.99609C39.2211 6.78125 39.2914 6.60352 39.432 6.46289C39.5766 6.31836 39.7758 6.24609 40.0297 6.24609C40.2797 6.24609 40.477 6.31836 40.6215 6.46289C40.766 6.60352 40.8383 6.78125 40.8383 6.99609C40.8383 7.20703 40.766 7.38281 40.6215 7.52344C40.477 7.66406 40.2797 7.73438 40.0297 7.73438C39.7758 7.73438 39.5766 7.66406 39.432 7.52344C39.2914 7.38281 39.2211 7.20703 39.2211 6.99609ZM45.9739 13.7285V10.7051C45.9739 10.4785 45.9329 10.2832 45.8509 10.1191C45.7688 9.95508 45.6438 9.82812 45.4759 9.73828C45.3118 9.64844 45.1048 9.60352 44.8548 9.60352C44.6243 9.60352 44.4251 9.64258 44.2571 9.7207C44.0891 9.79883 43.9583 9.9043 43.8645 10.0371C43.7708 10.1699 43.7239 10.3203 43.7239 10.4883H42.3177C42.3177 10.2383 42.3782 9.99609 42.4993 9.76172C42.6204 9.52734 42.7962 9.31836 43.0266 9.13477C43.2571 8.95117 43.5325 8.80664 43.8528 8.70117C44.1731 8.5957 44.5325 8.54297 44.9309 8.54297C45.4075 8.54297 45.8294 8.62305 46.1966 8.7832C46.5677 8.94336 46.8587 9.18555 47.0696 9.50977C47.2845 9.83008 47.3919 10.2324 47.3919 10.7168V13.5352C47.3919 13.8242 47.4114 14.084 47.4505 14.3145C47.4934 14.541 47.554 14.7383 47.6321 14.9062V15H46.1848C46.1184 14.8477 46.0657 14.6543 46.0266 14.4199C45.9915 14.1816 45.9739 13.9512 45.9739 13.7285ZM46.179 11.1445L46.1907 12.0176H45.177C44.9153 12.0176 44.6848 12.043 44.4856 12.0938C44.2864 12.1406 44.1204 12.2109 43.9876 12.3047C43.8548 12.3984 43.7552 12.5117 43.6888 12.6445C43.6223 12.7773 43.5891 12.9277 43.5891 13.0957C43.5891 13.2637 43.6282 13.418 43.7063 13.5586C43.7845 13.6953 43.8977 13.8027 44.0462 13.8809C44.1985 13.959 44.3821 13.998 44.597 13.998C44.886 13.998 45.138 13.9395 45.3528 13.8223C45.5716 13.7012 45.7434 13.5547 45.8684 13.3828C45.9934 13.207 46.0598 13.041 46.0677 12.8848L46.5247 13.5117C46.4778 13.6719 46.3977 13.8438 46.2845 14.0273C46.1712 14.2109 46.0227 14.3867 45.8391 14.5547C45.6595 14.7188 45.4427 14.8535 45.1888 14.959C44.9388 15.0645 44.6497 15.1172 44.3216 15.1172C43.9075 15.1172 43.5384 15.0352 43.2141 14.8711C42.8899 14.7031 42.636 14.4785 42.4524 14.1973C42.2688 13.9121 42.177 13.5898 42.177 13.2305C42.177 12.8945 42.2395 12.5977 42.3645 12.3398C42.4934 12.0781 42.6809 11.8594 42.927 11.6836C43.177 11.5078 43.4817 11.375 43.8411 11.2852C44.2005 11.1914 44.6106 11.1445 45.0716 11.1445H46.179ZM50.3888 10.0137V15H48.9767V8.66016H50.3068L50.3888 10.0137ZM50.1369 11.5957L49.6798 11.5898C49.6838 11.1406 49.7463 10.7285 49.8673 10.3535C49.9923 9.97852 50.1642 9.65625 50.383 9.38672C50.6056 9.11719 50.8713 8.91016 51.1798 8.76562C51.4884 8.61719 51.8322 8.54297 52.2111 8.54297C52.5158 8.54297 52.7912 8.58594 53.0373 8.67188C53.2873 8.75391 53.5002 8.88867 53.6759 9.07617C53.8556 9.26367 53.9923 9.50781 54.0861 9.80859C54.1798 10.1055 54.2267 10.4707 54.2267 10.9043V15H52.8088V10.8984C52.8088 10.5938 52.7638 10.3535 52.674 10.1777C52.588 9.99805 52.4611 9.87109 52.2931 9.79688C52.1291 9.71875 51.924 9.67969 51.6779 9.67969C51.4357 9.67969 51.2189 9.73047 51.0275 9.83203C50.8361 9.93359 50.674 10.0723 50.5412 10.248C50.4123 10.4238 50.3127 10.627 50.2423 10.8574C50.172 11.0879 50.1369 11.334 50.1369 11.5957ZM58.378 13.9922C58.6084 13.9922 58.8155 13.9473 58.9991 13.8574C59.1866 13.7637 59.337 13.6348 59.4502 13.4707C59.5674 13.3066 59.6319 13.1172 59.6436 12.9023H60.9737C60.9659 13.3125 60.8448 13.6855 60.6104 14.0215C60.376 14.3574 60.0655 14.625 59.6787 14.8242C59.292 15.0195 58.8643 15.1172 58.3955 15.1172C57.9112 15.1172 57.4893 15.0352 57.1299 14.8711C56.7705 14.7031 56.4717 14.4727 56.2334 14.1797C55.9952 13.8867 55.8155 13.5488 55.6944 13.166C55.5772 12.7832 55.5186 12.373 55.5186 11.9355V11.7305C55.5186 11.293 55.5772 10.8828 55.6944 10.5C55.8155 10.1133 55.9952 9.77344 56.2334 9.48047C56.4717 9.1875 56.7705 8.95898 57.1299 8.79492C57.4893 8.62695 57.9092 8.54297 58.3897 8.54297C58.8975 8.54297 59.3428 8.64453 59.7256 8.84766C60.1084 9.04688 60.4092 9.32617 60.628 9.68555C60.8506 10.041 60.9659 10.4551 60.9737 10.9277H59.6436C59.6319 10.6934 59.5733 10.4824 59.4678 10.2949C59.3662 10.1035 59.2217 9.95117 59.0342 9.83789C58.8506 9.72461 58.6299 9.66797 58.3721 9.66797C58.087 9.66797 57.8506 9.72656 57.6631 9.84375C57.4756 9.95703 57.3291 10.1133 57.2237 10.3125C57.1182 10.5078 57.042 10.7285 56.9952 10.9746C56.9522 11.2168 56.9307 11.4688 56.9307 11.7305V11.9355C56.9307 12.1973 56.9522 12.4512 56.9952 12.6973C57.0381 12.9434 57.1123 13.1641 57.2178 13.3594C57.3272 13.5508 57.4756 13.7051 57.6631 13.8223C57.8506 13.9355 58.0889 13.9922 58.378 13.9922ZM64.9726 15.1172C64.5038 15.1172 64.08 15.041 63.7011 14.8887C63.3261 14.7324 63.0058 14.5156 62.7402 14.2383C62.4784 13.9609 62.2773 13.6348 62.1366 13.2598C61.996 12.8848 61.9257 12.4805 61.9257 12.0469V11.8125C61.9257 11.3164 61.998 10.8672 62.1425 10.4648C62.287 10.0625 62.4882 9.71875 62.746 9.43359C63.0038 9.14453 63.3085 8.92383 63.6601 8.77148C64.0116 8.61914 64.3925 8.54297 64.8027 8.54297C65.2558 8.54297 65.6523 8.61914 65.9921 8.77148C66.332 8.92383 66.6132 9.13867 66.8359 9.41602C67.0624 9.68945 67.2304 10.0156 67.3398 10.3945C67.453 10.7734 67.5097 11.1914 67.5097 11.6484V12.252H62.6113V11.2383H66.1152V11.127C66.1073 10.873 66.0566 10.6348 65.9628 10.4121C65.873 10.1895 65.7343 10.0098 65.5468 9.87305C65.3593 9.73633 65.1093 9.66797 64.7968 9.66797C64.5624 9.66797 64.3534 9.71875 64.1698 9.82031C63.9902 9.91797 63.8398 10.0605 63.7187 10.248C63.5976 10.4355 63.5038 10.6621 63.4374 10.9277C63.3749 11.1895 63.3437 11.4844 63.3437 11.8125V12.0469C63.3437 12.3242 63.3808 12.582 63.455 12.8203C63.5331 13.0547 63.6464 13.2598 63.7948 13.4355C63.9433 13.6113 64.123 13.75 64.3339 13.8516C64.5448 13.9492 64.7851 13.998 65.0546 13.998C65.3945 13.998 65.6972 13.9297 65.9628 13.793C66.2284 13.6562 66.4589 13.4629 66.6542 13.2129L67.3984 13.9336C67.2616 14.1328 67.0839 14.3242 66.8652 14.5078C66.6464 14.6875 66.3788 14.834 66.0624 14.9473C65.7499 15.0605 65.3866 15.1172 64.9726 15.1172Z"/>
</mask>
<path d="M11.5215 15.1172C11.0527 15.1172 10.6289 15.041 10.25 14.8887C9.875 14.7324 9.55469 14.5156 9.28906 14.2383C9.02734 13.9609 8.82617 13.6348 8.68555 13.2598C8.54492 12.8848 8.47461 12.4805 8.47461 12.0469V11.8125C8.47461 11.3164 8.54688 10.8672 8.69141 10.4648C8.83594 10.0625 9.03711 9.71875 9.29492 9.43359C9.55273 9.14453 9.85742 8.92383 10.209 8.77148C10.5605 8.61914 10.9414 8.54297 11.3516 8.54297C11.8047 8.54297 12.2012 8.61914 12.541 8.77148C12.8809 8.92383 13.1621 9.13867 13.3848 9.41602C13.6113 9.68945 13.7793 10.0156 13.8887 10.3945C14.002 10.7734 14.0586 11.1914 14.0586 11.6484V12.252H9.16016V11.2383H12.6641V11.127C12.6562 10.873 12.6055 10.6348 12.5117 10.4121C12.4219 10.1895 12.2832 10.0098 12.0957 9.87305C11.9082 9.73633 11.6582 9.66797 11.3457 9.66797C11.1113 9.66797 10.9023 9.71875 10.7188 9.82031C10.5391 9.91797 10.3887 10.0605 10.2676 10.248C10.1465 10.4355 10.0527 10.6621 9.98633 10.9277C9.92383 11.1895 9.89258 11.4844 9.89258 11.8125V12.0469C9.89258 12.3242 9.92969 12.582 10.0039 12.8203C10.082 13.0547 10.1953 13.2598 10.3438 13.4355C10.4922 13.6113 10.6719 13.75 10.8828 13.8516C11.0938 13.9492 11.334 13.998 11.6035 13.998C11.9434 13.998 12.2461 13.9297 12.5117 13.793C12.7773 13.6562 13.0078 13.4629 13.2031 13.2129L13.9473 13.9336C13.8105 14.1328 13.6328 14.3242 13.4141 14.5078C13.1953 14.6875 12.9277 14.834 12.6113 14.9473C12.2988 15.0605 11.9355 15.1172 11.5215 15.1172ZM16.3583 8.66016L17.5653 10.7637L18.7958 8.66016H20.3485L18.4266 11.7715L20.4247 15H18.872L17.5829 12.8086L16.2938 15H14.7352L16.7274 11.7715L14.8114 8.66016H16.3583ZM22.8533 9.87891V17.4375H21.4412V8.66016H22.742L22.8533 9.87891ZM26.9841 11.7715V11.8945C26.9841 12.3555 26.9295 12.7832 26.8201 13.1777C26.7146 13.5684 26.5564 13.9102 26.3455 14.2031C26.1384 14.4922 25.8826 14.7168 25.5779 14.877C25.2732 15.0371 24.9216 15.1172 24.5232 15.1172C24.1287 15.1172 23.783 15.0449 23.4861 14.9004C23.1931 14.752 22.9451 14.543 22.742 14.2734C22.5388 14.0039 22.3748 13.6875 22.2498 13.3242C22.1287 12.957 22.0427 12.5547 21.992 12.1172V11.6426C22.0427 11.1777 22.1287 10.7559 22.2498 10.377C22.3748 9.99805 22.5388 9.67188 22.742 9.39844C22.9451 9.125 23.1931 8.91406 23.4861 8.76562C23.7791 8.61719 24.1209 8.54297 24.5115 8.54297C24.9099 8.54297 25.2634 8.62109 25.572 8.77734C25.8806 8.92969 26.1404 9.14844 26.3513 9.43359C26.5623 9.71484 26.7205 10.0547 26.8259 10.4531C26.9314 10.8477 26.9841 11.2871 26.9841 11.7715ZM25.572 11.8945V11.7715C25.572 11.4785 25.5447 11.207 25.49 10.957C25.4353 10.7031 25.3494 10.4805 25.2322 10.2891C25.115 10.0977 24.9646 9.94922 24.781 9.84375C24.6013 9.73438 24.3845 9.67969 24.1306 9.67969C23.8806 9.67969 23.6658 9.72266 23.4861 9.80859C23.3064 9.89062 23.156 10.0059 23.0349 10.1543C22.9138 10.3027 22.8201 10.4766 22.7537 10.6758C22.6873 10.8711 22.6404 11.084 22.613 11.3145V12.4512C22.6599 12.7324 22.74 12.9902 22.8533 13.2246C22.9666 13.459 23.1267 13.6465 23.3337 13.7871C23.5447 13.9238 23.8142 13.9922 24.1423 13.9922C24.3962 13.9922 24.613 13.9375 24.7927 13.8281C24.9724 13.7188 25.1189 13.5684 25.2322 13.377C25.3494 13.1816 25.4353 12.957 25.49 12.7031C25.5447 12.4492 25.572 12.1797 25.572 11.8945ZM31.1002 15.1172C30.6315 15.1172 30.2077 15.041 29.8288 14.8887C29.4538 14.7324 29.1334 14.5156 28.8678 14.2383C28.6061 13.9609 28.4049 13.6348 28.2643 13.2598C28.1237 12.8848 28.0534 12.4805 28.0534 12.0469V11.8125C28.0534 11.3164 28.1256 10.8672 28.2702 10.4648C28.4147 10.0625 28.6159 9.71875 28.8737 9.43359C29.1315 9.14453 29.4362 8.92383 29.7877 8.77148C30.1393 8.61914 30.5202 8.54297 30.9303 8.54297C31.3834 8.54297 31.7799 8.61914 32.1198 8.77148C32.4596 8.92383 32.7409 9.13867 32.9635 9.41602C33.1901 9.68945 33.358 10.0156 33.4674 10.3945C33.5807 10.7734 33.6373 11.1914 33.6373 11.6484V12.252H28.7389V11.2383H32.2428V11.127C32.235 10.873 32.1842 10.6348 32.0905 10.4121C32.0006 10.1895 31.862 10.0098 31.6745 9.87305C31.487 9.73633 31.237 9.66797 30.9245 9.66797C30.6901 9.66797 30.4811 9.71875 30.2975 9.82031C30.1178 9.91797 29.9674 10.0605 29.8463 10.248C29.7252 10.4355 29.6315 10.6621 29.5651 10.9277C29.5026 11.1895 29.4713 11.4844 29.4713 11.8125V12.0469C29.4713 12.3242 29.5084 12.582 29.5827 12.8203C29.6608 13.0547 29.7741 13.2598 29.9225 13.4355C30.0709 13.6113 30.2506 13.75 30.4616 13.8516C30.6725 13.9492 30.9127 13.998 31.1823 13.998C31.5221 13.998 31.8248 13.9297 32.0905 13.793C32.3561 13.6562 32.5866 13.4629 32.7819 13.2129L33.526 13.9336C33.3893 14.1328 33.2116 14.3242 32.9928 14.5078C32.7741 14.6875 32.5065 14.834 32.1901 14.9473C31.8776 15.0605 31.5143 15.1172 31.1002 15.1172ZM36.2769 9.86719V15H34.8648V8.66016H36.2124L36.2769 9.86719ZM38.2163 8.61914L38.2046 9.93164C38.1187 9.91602 38.0249 9.9043 37.9234 9.89648C37.8257 9.88867 37.728 9.88477 37.6304 9.88477C37.3882 9.88477 37.1753 9.91992 36.9917 9.99023C36.8081 10.0566 36.6538 10.1543 36.5288 10.2832C36.4077 10.4082 36.314 10.5605 36.2476 10.7402C36.1812 10.9199 36.1421 11.1211 36.1304 11.3438L35.8081 11.3672C35.8081 10.9688 35.8472 10.5996 35.9253 10.2598C36.0034 9.91992 36.1206 9.62109 36.2769 9.36328C36.437 9.10547 36.6362 8.9043 36.8745 8.75977C37.1167 8.61523 37.396 8.54297 37.7124 8.54297C37.7984 8.54297 37.8902 8.55078 37.9878 8.56641C38.0894 8.58203 38.1655 8.59961 38.2163 8.61914ZM40.7328 8.66016V15H39.3148V8.66016H40.7328ZM39.2211 6.99609C39.2211 6.78125 39.2914 6.60352 39.432 6.46289C39.5766 6.31836 39.7758 6.24609 40.0297 6.24609C40.2797 6.24609 40.477 6.31836 40.6215 6.46289C40.766 6.60352 40.8383 6.78125 40.8383 6.99609C40.8383 7.20703 40.766 7.38281 40.6215 7.52344C40.477 7.66406 40.2797 7.73438 40.0297 7.73438C39.7758 7.73438 39.5766 7.66406 39.432 7.52344C39.2914 7.38281 39.2211 7.20703 39.2211 6.99609ZM45.9739 13.7285V10.7051C45.9739 10.4785 45.9329 10.2832 45.8509 10.1191C45.7688 9.95508 45.6438 9.82812 45.4759 9.73828C45.3118 9.64844 45.1048 9.60352 44.8548 9.60352C44.6243 9.60352 44.4251 9.64258 44.2571 9.7207C44.0891 9.79883 43.9583 9.9043 43.8645 10.0371C43.7708 10.1699 43.7239 10.3203 43.7239 10.4883H42.3177C42.3177 10.2383 42.3782 9.99609 42.4993 9.76172C42.6204 9.52734 42.7962 9.31836 43.0266 9.13477C43.2571 8.95117 43.5325 8.80664 43.8528 8.70117C44.1731 8.5957 44.5325 8.54297 44.9309 8.54297C45.4075 8.54297 45.8294 8.62305 46.1966 8.7832C46.5677 8.94336 46.8587 9.18555 47.0696 9.50977C47.2845 9.83008 47.3919 10.2324 47.3919 10.7168V13.5352C47.3919 13.8242 47.4114 14.084 47.4505 14.3145C47.4934 14.541 47.554 14.7383 47.6321 14.9062V15H46.1848C46.1184 14.8477 46.0657 14.6543 46.0266 14.4199C45.9915 14.1816 45.9739 13.9512 45.9739 13.7285ZM46.179 11.1445L46.1907 12.0176H45.177C44.9153 12.0176 44.6848 12.043 44.4856 12.0938C44.2864 12.1406 44.1204 12.2109 43.9876 12.3047C43.8548 12.3984 43.7552 12.5117 43.6888 12.6445C43.6223 12.7773 43.5891 12.9277 43.5891 13.0957C43.5891 13.2637 43.6282 13.418 43.7063 13.5586C43.7845 13.6953 43.8977 13.8027 44.0462 13.8809C44.1985 13.959 44.3821 13.998 44.597 13.998C44.886 13.998 45.138 13.9395 45.3528 13.8223C45.5716 13.7012 45.7434 13.5547 45.8684 13.3828C45.9934 13.207 46.0598 13.041 46.0677 12.8848L46.5247 13.5117C46.4778 13.6719 46.3977 13.8438 46.2845 14.0273C46.1712 14.2109 46.0227 14.3867 45.8391 14.5547C45.6595 14.7188 45.4427 14.8535 45.1888 14.959C44.9388 15.0645 44.6497 15.1172 44.3216 15.1172C43.9075 15.1172 43.5384 15.0352 43.2141 14.8711C42.8899 14.7031 42.636 14.4785 42.4524 14.1973C42.2688 13.9121 42.177 13.5898 42.177 13.2305C42.177 12.8945 42.2395 12.5977 42.3645 12.3398C42.4934 12.0781 42.6809 11.8594 42.927 11.6836C43.177 11.5078 43.4817 11.375 43.8411 11.2852C44.2005 11.1914 44.6106 11.1445 45.0716 11.1445H46.179ZM50.3888 10.0137V15H48.9767V8.66016H50.3068L50.3888 10.0137ZM50.1369 11.5957L49.6798 11.5898C49.6838 11.1406 49.7463 10.7285 49.8673 10.3535C49.9923 9.97852 50.1642 9.65625 50.383 9.38672C50.6056 9.11719 50.8713 8.91016 51.1798 8.76562C51.4884 8.61719 51.8322 8.54297 52.2111 8.54297C52.5158 8.54297 52.7912 8.58594 53.0373 8.67188C53.2873 8.75391 53.5002 8.88867 53.6759 9.07617C53.8556 9.26367 53.9923 9.50781 54.0861 9.80859C54.1798 10.1055 54.2267 10.4707 54.2267 10.9043V15H52.8088V10.8984C52.8088 10.5938 52.7638 10.3535 52.674 10.1777C52.588 9.99805 52.4611 9.87109 52.2931 9.79688C52.1291 9.71875 51.924 9.67969 51.6779 9.67969C51.4357 9.67969 51.2189 9.73047 51.0275 9.83203C50.8361 9.93359 50.674 10.0723 50.5412 10.248C50.4123 10.4238 50.3127 10.627 50.2423 10.8574C50.172 11.0879 50.1369 11.334 50.1369 11.5957ZM58.378 13.9922C58.6084 13.9922 58.8155 13.9473 58.9991 13.8574C59.1866 13.7637 59.337 13.6348 59.4502 13.4707C59.5674 13.3066 59.6319 13.1172 59.6436 12.9023H60.9737C60.9659 13.3125 60.8448 13.6855 60.6104 14.0215C60.376 14.3574 60.0655 14.625 59.6787 14.8242C59.292 15.0195 58.8643 15.1172 58.3955 15.1172C57.9112 15.1172 57.4893 15.0352 57.1299 14.8711C56.7705 14.7031 56.4717 14.4727 56.2334 14.1797C55.9952 13.8867 55.8155 13.5488 55.6944 13.166C55.5772 12.7832 55.5186 12.373 55.5186 11.9355V11.7305C55.5186 11.293 55.5772 10.8828 55.6944 10.5C55.8155 10.1133 55.9952 9.77344 56.2334 9.48047C56.4717 9.1875 56.7705 8.95898 57.1299 8.79492C57.4893 8.62695 57.9092 8.54297 58.3897 8.54297C58.8975 8.54297 59.3428 8.64453 59.7256 8.84766C60.1084 9.04688 60.4092 9.32617 60.628 9.68555C60.8506 10.041 60.9659 10.4551 60.9737 10.9277H59.6436C59.6319 10.6934 59.5733 10.4824 59.4678 10.2949C59.3662 10.1035 59.2217 9.95117 59.0342 9.83789C58.8506 9.72461 58.6299 9.66797 58.3721 9.66797C58.087 9.66797 57.8506 9.72656 57.6631 9.84375C57.4756 9.95703 57.3291 10.1133 57.2237 10.3125C57.1182 10.5078 57.042 10.7285 56.9952 10.9746C56.9522 11.2168 56.9307 11.4688 56.9307 11.7305V11.9355C56.9307 12.1973 56.9522 12.4512 56.9952 12.6973C57.0381 12.9434 57.1123 13.1641 57.2178 13.3594C57.3272 13.5508 57.4756 13.7051 57.6631 13.8223C57.8506 13.9355 58.0889 13.9922 58.378 13.9922ZM64.9726 15.1172C64.5038 15.1172 64.08 15.041 63.7011 14.8887C63.3261 14.7324 63.0058 14.5156 62.7402 14.2383C62.4784 13.9609 62.2773 13.6348 62.1366 13.2598C61.996 12.8848 61.9257 12.4805 61.9257 12.0469V11.8125C61.9257 11.3164 61.998 10.8672 62.1425 10.4648C62.287 10.0625 62.4882 9.71875 62.746 9.43359C63.0038 9.14453 63.3085 8.92383 63.6601 8.77148C64.0116 8.61914 64.3925 8.54297 64.8027 8.54297C65.2558 8.54297 65.6523 8.61914 65.9921 8.77148C66.332 8.92383 66.6132 9.13867 66.8359 9.41602C67.0624 9.68945 67.2304 10.0156 67.3398 10.3945C67.453 10.7734 67.5097 11.1914 67.5097 11.6484V12.252H62.6113V11.2383H66.1152V11.127C66.1073 10.873 66.0566 10.6348 65.9628 10.4121C65.873 10.1895 65.7343 10.0098 65.5468 9.87305C65.3593 9.73633 65.1093 9.66797 64.7968 9.66797C64.5624 9.66797 64.3534 9.71875 64.1698 9.82031C63.9902 9.91797 63.8398 10.0605 63.7187 10.248C63.5976 10.4355 63.5038 10.6621 63.4374 10.9277C63.3749 11.1895 63.3437 11.4844 63.3437 11.8125V12.0469C63.3437 12.3242 63.3808 12.582 63.455 12.8203C63.5331 13.0547 63.6464 13.2598 63.7948 13.4355C63.9433 13.6113 64.123 13.75 64.3339 13.8516C64.5448 13.9492 64.7851 13.998 65.0546 13.998C65.3945 13.998 65.6972 13.9297 65.9628 13.793C66.2284 13.6562 66.4589 13.4629 66.6542 13.2129L67.3984 13.9336C67.2616 14.1328 67.0839 14.3242 66.8652 14.5078C66.6464 14.6875 66.3788 14.834 66.0624 14.9473C65.7499 15.0605 65.3866 15.1172 64.9726 15.1172Z" fill="#010101" fill-opacity="0.3"/>
<path d="M10.25 14.8887L10.1731 15.0733L10.1754 15.0742L10.25 14.8887ZM9.28906 14.2383L9.1436 14.3755L9.14462 14.3766L9.28906 14.2383ZM9.29492 9.43359L9.44328 9.56773L9.44418 9.56672L9.29492 9.43359ZM13.3848 9.41602L13.2288 9.54124L13.2308 9.54362L13.3848 9.41602ZM13.8887 10.3945L13.6965 10.45L13.6971 10.4518L13.8887 10.3945ZM14.0586 12.252V12.452H14.2586V12.252H14.0586ZM9.16016 12.252H8.96016V12.452H9.16016V12.252ZM9.16016 11.2383V11.0383H8.96016V11.2383H9.16016ZM12.6641 11.2383V11.4383H12.8641V11.2383H12.6641ZM12.6641 11.127H12.8642L12.864 11.1208L12.6641 11.127ZM12.5117 10.4121L12.3262 10.487L12.3274 10.4897L12.5117 10.4121ZM10.7188 9.82031L10.8143 9.99604L10.8156 9.99532L10.7188 9.82031ZM9.98633 10.9277L9.79229 10.8792L9.7918 10.8813L9.98633 10.9277ZM10.0039 12.8203L9.81292 12.8798L9.81417 12.8836L10.0039 12.8203ZM10.8828 13.8516L10.796 14.0318L10.7988 14.0331L10.8828 13.8516ZM13.2031 13.2129L13.3423 13.0692L13.1825 12.9145L13.0455 13.0898L13.2031 13.2129ZM13.9473 13.9336L14.1122 14.0468L14.2078 13.9075L14.0864 13.7899L13.9473 13.9336ZM13.4141 14.5078L13.541 14.6624L13.5426 14.661L13.4141 14.5078ZM12.6113 14.9473L12.5439 14.759L12.5432 14.7592L12.6113 14.9473ZM11.5215 14.9172C11.0746 14.9172 10.6766 14.8446 10.3246 14.7031L10.1754 15.0742C10.5813 15.2374 11.0309 15.3172 11.5215 15.3172V14.9172ZM10.3269 14.7041C9.97588 14.5578 9.67896 14.3562 9.4335 14.0999L9.14462 14.3766C9.43041 14.675 9.77412 14.9071 10.1731 15.0733L10.3269 14.7041ZM9.43452 14.101C9.19197 13.844 9.00458 13.5409 8.87281 13.1895L8.49828 13.33C8.64777 13.7286 8.86272 14.0779 9.1436 14.3755L9.43452 14.101ZM8.87281 13.1895C8.74128 12.8388 8.67461 12.4585 8.67461 12.0469H8.27461C8.27461 12.5025 8.34856 12.9307 8.49828 13.33L8.87281 13.1895ZM8.67461 12.0469V11.8125H8.27461V12.0469H8.67461ZM8.67461 11.8125C8.67461 11.3358 8.74403 10.9099 8.87963 10.5325L8.50318 10.3972C8.34972 10.8244 8.27461 11.297 8.27461 11.8125H8.67461ZM8.87963 10.5325C9.01633 10.1519 9.20483 9.83146 9.44328 9.56772L9.14657 9.29946C8.86939 9.60604 8.65555 9.97308 8.50318 10.3972L8.87963 10.5325ZM9.44418 9.56672C9.6829 9.29907 9.96387 9.09567 10.2885 8.955L10.1295 8.58797C9.75098 8.75198 9.42257 8.99 9.14566 9.30047L9.44418 9.56672ZM10.2885 8.955C10.6132 8.81428 10.9668 8.74297 11.3516 8.74297V8.34297C10.916 8.34297 10.5079 8.424 10.1295 8.58797L10.2885 8.955ZM11.3516 8.74297C11.7825 8.74297 12.15 8.8154 12.4592 8.95399L12.6228 8.58898C12.2523 8.42289 11.8269 8.34297 11.3516 8.34297V8.74297ZM12.4592 8.95399C12.7715 9.094 13.0269 9.28975 13.2288 9.54122L13.5407 9.29081C13.2973 8.98759 12.9902 8.75365 12.6228 8.58898L12.4592 8.95399ZM13.2308 9.54362C13.4379 9.79366 13.5939 10.0946 13.6965 10.45L14.0808 10.3391C13.9647 9.93668 13.7847 9.58525 13.5388 9.28841L13.2308 9.54362ZM13.6971 10.4518C13.804 10.8095 13.8586 11.2079 13.8586 11.6484H14.2586C14.2586 11.175 14.1999 10.7374 14.0803 10.3372L13.6971 10.4518ZM13.8586 11.6484V12.252H14.2586V11.6484H13.8586ZM14.0586 12.052H9.16016V12.452H14.0586V12.052ZM9.36016 12.252V11.2383H8.96016V12.252H9.36016ZM9.16016 11.4383H12.6641V11.0383H9.16016V11.4383ZM12.8641 11.2383V11.127H12.4641V11.2383H12.8641ZM12.864 11.1208C12.8554 10.8436 12.7998 10.581 12.696 10.3345L12.3274 10.4897C12.4111 10.6886 12.4571 10.9025 12.4642 11.1331L12.864 11.1208ZM12.6972 10.3373C12.5939 10.0812 12.4323 9.87098 12.2135 9.71145L11.9779 10.0346C12.1341 10.1485 12.2499 10.2977 12.3262 10.4869L12.6972 10.3373ZM12.2135 9.71145C11.9817 9.54241 11.6861 9.46797 11.3457 9.46797V9.86797C11.6303 9.86797 11.8347 9.93024 11.9779 10.0346L12.2135 9.71145ZM11.3457 9.46797C11.0815 9.46797 10.8385 9.5255 10.6219 9.64531L10.8156 9.99532C10.9662 9.912 11.1412 9.86797 11.3457 9.86797V9.46797ZM10.6232 9.64459C10.4115 9.75966 10.2371 9.92655 10.0996 10.1395L10.4356 10.3566C10.5402 10.1945 10.6666 10.0763 10.8143 9.99604L10.6232 9.64459ZM10.0996 10.1395C9.96422 10.3491 9.86287 10.597 9.7923 10.8792L10.1804 10.9762C10.2426 10.7273 10.3287 10.522 10.4356 10.3566L10.0996 10.1395ZM9.7918 10.8813C9.72497 11.1611 9.69258 11.472 9.69258 11.8125H10.0926C10.0926 11.4967 10.1227 11.2178 10.1809 10.9742L9.7918 10.8813ZM9.69258 11.8125V12.0469H10.0926V11.8125H9.69258ZM9.69258 12.0469C9.69258 12.3422 9.73211 12.6202 9.81295 12.8798L10.1949 12.7608C10.1273 12.5438 10.0926 12.3063 10.0926 12.0469H9.69258ZM9.81417 12.8836C9.89972 13.1402 10.025 13.368 10.1909 13.5646L10.4966 13.3065C10.3657 13.1515 10.2643 12.9692 10.1936 12.7571L9.81417 12.8836ZM10.1909 13.5646C10.3579 13.7623 10.5602 13.9182 10.796 14.0318L10.9696 13.6714C10.7835 13.5818 10.6265 13.4604 10.4966 13.3065L10.1909 13.5646ZM10.7988 14.0331C11.0399 14.1447 11.3096 14.198 11.6035 14.198V13.798C11.3584 13.798 11.1476 13.7537 10.9668 13.6701L10.7988 14.0331ZM11.6035 14.198C11.9708 14.198 12.3056 14.124 12.6032 13.9708L12.4202 13.6151C12.1866 13.7354 11.9159 13.798 11.6035 13.798V14.198ZM12.6032 13.9708C12.8962 13.82 13.1487 13.6074 13.3607 13.336L13.0455 13.0898C12.8669 13.3184 12.6585 13.4925 12.4202 13.6151L12.6032 13.9708ZM13.064 13.3566L13.8081 14.0773L14.0864 13.7899L13.3423 13.0692L13.064 13.3566ZM13.7824 13.8204C13.6575 14.0023 13.4928 14.1806 13.2855 14.3546L13.5426 14.661C13.7728 14.4678 13.9635 14.2633 14.1122 14.0468L13.7824 13.8204ZM13.2871 14.3533C13.0891 14.5159 12.8426 14.652 12.5439 14.759L12.6787 15.1356C13.0128 15.0159 13.3015 14.8591 13.541 14.6624L13.2871 14.3533ZM12.5432 14.7592C12.2571 14.8629 11.9178 14.9172 11.5215 14.9172V15.3172C11.9533 15.3172 12.3405 15.2582 12.6795 15.1353L12.5432 14.7592ZM16.3583 8.66016L16.5318 8.56062L16.4741 8.46016H16.3583V8.66016ZM17.5653 10.7637L17.3918 10.8632L17.5636 11.1626L17.7379 10.8647L17.5653 10.7637ZM18.7958 8.66016V8.46016H18.6811L18.6231 8.55917L18.7958 8.66016ZM20.3485 8.66016L20.5187 8.76526L20.7071 8.46016H20.3485V8.66016ZM18.4266 11.7715L18.2565 11.6664L18.1915 11.7716L18.2566 11.8767L18.4266 11.7715ZM20.4247 15V15.2H20.7837L20.5948 14.8948L20.4247 15ZM18.872 15L18.6996 15.1014L18.7576 15.2H18.872V15ZM17.5829 12.8086L17.7553 12.7072L17.5829 12.4141L17.4105 12.7072L17.5829 12.8086ZM16.2938 15V15.2H16.4082L16.4662 15.1014L16.2938 15ZM14.7352 15L14.565 14.895L14.3768 15.2H14.7352V15ZM16.7274 11.7715L16.8976 11.8765L16.9624 11.7716L16.8977 11.6666L16.7274 11.7715ZM14.8114 8.66016V8.46016H14.4534L14.6411 8.76503L14.8114 8.66016ZM16.1848 8.7597L17.3918 10.8632L17.7388 10.6641L16.5318 8.56062L16.1848 8.7597ZM17.7379 10.8647L18.9684 8.76114L18.6231 8.55917L17.3927 10.6627L17.7379 10.8647ZM18.7958 8.86016H20.3485V8.46016H18.7958V8.86016ZM20.1784 8.55505L18.2565 11.6664L18.5968 11.8766L20.5187 8.76526L20.1784 8.55505ZM18.2566 11.8767L20.2546 15.1052L20.5948 14.8948L18.5967 11.6662L18.2566 11.8767ZM20.4247 14.8H18.872V15.2H20.4247V14.8ZM19.0443 14.8986L17.7553 12.7072L17.4105 12.91L18.6996 15.1014L19.0443 14.8986ZM17.4105 12.7072L16.1214 14.8986L16.4662 15.1014L17.7553 12.91L17.4105 12.7072ZM16.2938 14.8H14.7352V15.2H16.2938V14.8ZM14.9054 15.105L16.8976 11.8765L16.5572 11.6665L14.565 14.895L14.9054 15.105ZM16.8977 11.6666L14.9817 8.55528L14.6411 8.76503L16.5571 11.8764L16.8977 11.6666ZM14.8114 8.86016H16.3583V8.46016H14.8114V8.86016ZM22.8533 9.87891H23.0533V9.86979L23.0525 9.86071L22.8533 9.87891ZM22.8533 17.4375V17.6375H23.0533V17.4375H22.8533ZM21.4412 17.4375H21.2412V17.6375H21.4412V17.4375ZM21.4412 8.66016V8.46016H21.2412V8.66016H21.4412ZM22.742 8.66016L22.9411 8.64196L22.9245 8.46016H22.742V8.66016ZM26.8201 13.1777L26.6273 13.1243L26.627 13.1256L26.8201 13.1777ZM26.3455 14.2031L26.1832 14.0863L26.1829 14.0867L26.3455 14.2031ZM23.4861 14.9004L23.3957 15.0788L23.3985 15.0802L23.4861 14.9004ZM22.2498 13.3242L22.0598 13.3869L22.0606 13.3893L22.2498 13.3242ZM21.992 12.1172H21.792V12.1288L21.7933 12.1402L21.992 12.1172ZM21.992 11.6426L21.7931 11.6209L21.792 11.6317V11.6426H21.992ZM22.2498 10.377L22.0598 10.3143L22.0593 10.3161L22.2498 10.377ZM25.572 8.77734L25.4817 8.95578L25.4835 8.95668L25.572 8.77734ZM26.3513 9.43359L26.1905 9.55254L26.1913 9.55359L26.3513 9.43359ZM26.8259 10.4531L26.6326 10.5043L26.6327 10.5048L26.8259 10.4531ZM25.49 10.957L25.2945 10.9991L25.2946 10.9998L25.49 10.957ZM24.781 9.84375L24.677 10.0146L24.6814 10.0172L24.781 9.84375ZM23.4861 9.80859L23.5692 9.99056L23.5724 9.98902L23.4861 9.80859ZM22.7537 10.6758L22.943 10.7402L22.9434 10.739L22.7537 10.6758ZM22.613 11.3145L22.4144 11.2909L22.413 11.3026V11.3145H22.613ZM22.613 12.4512H22.413V12.4677L22.4158 12.4841L22.613 12.4512ZM23.3337 13.7871L23.2213 13.9526L23.225 13.9549L23.3337 13.7871ZM25.2322 13.377L25.0607 13.2741L25.0601 13.2751L25.2322 13.377ZM22.6533 9.87891V17.4375H23.0533V9.87891H22.6533ZM22.8533 17.2375H21.4412V17.6375H22.8533V17.2375ZM21.6412 17.4375V8.66016H21.2412V17.4375H21.6412ZM21.4412 8.86016H22.742V8.46016H21.4412V8.86016ZM22.5428 8.67835L22.6541 9.8971L23.0525 9.86071L22.9411 8.64196L22.5428 8.67835ZM26.7841 11.7715V11.8945H27.1841V11.7715H26.7841ZM26.7841 11.8945C26.7841 12.3396 26.7313 12.7492 26.6273 13.1243L27.0128 13.2312C27.1276 12.8172 27.1841 12.3713 27.1841 11.8945H26.7841ZM26.627 13.1256C26.527 13.4958 26.3784 13.8151 26.1832 14.0863L26.5078 14.32C26.7344 14.0053 26.9022 13.641 27.0132 13.2299L26.627 13.1256ZM26.1829 14.0867C25.9934 14.3513 25.761 14.5547 25.4848 14.6999L25.6709 15.054C26.0041 14.8788 26.2835 14.6331 26.5081 14.3196L26.1829 14.0867ZM25.4848 14.6999C25.2131 14.8428 24.8943 14.9172 24.5232 14.9172V15.3172C24.9489 15.3172 25.3333 15.2314 25.6709 15.054L25.4848 14.6999ZM24.5232 14.9172C24.1532 14.9172 23.8384 14.8495 23.5736 14.7206L23.3985 15.0802C23.7275 15.2404 24.1042 15.3172 24.5232 15.3172V14.9172ZM23.5765 14.722C23.3115 14.5877 23.0869 14.3989 22.9017 14.1531L22.5822 14.3938C22.8032 14.687 23.0747 14.9162 23.3957 15.0788L23.5765 14.722ZM22.9017 14.1531C22.7128 13.9025 22.558 13.6053 22.4389 13.2591L22.0606 13.3893C22.1916 13.7697 22.3649 14.1054 22.5822 14.3938L22.9017 14.1531ZM22.4397 13.2616C22.3234 12.9089 22.2401 12.52 22.1906 12.0941L21.7933 12.1402C21.8454 12.5894 21.934 13.0052 22.0598 13.3869L22.4397 13.2616ZM22.192 12.1172V11.6426H21.792V12.1172H22.192ZM22.1908 11.6643C22.2403 11.2105 22.3239 10.802 22.4403 10.4378L22.0593 10.3161C21.9335 10.7097 21.8451 11.145 21.7931 11.6209L22.1908 11.6643ZM22.4397 10.4396C22.5591 10.0776 22.7141 9.77131 22.9025 9.5177L22.5814 9.27917C22.3635 9.57244 22.1904 9.91847 22.0598 10.3143L22.4397 10.4396ZM22.9025 9.5177C23.0878 9.2682 23.3122 9.07793 23.5765 8.94403L23.3957 8.58722C23.074 8.75019 22.8023 8.9818 22.5814 9.27917L22.9025 9.5177ZM23.5765 8.94403C23.8366 8.81224 24.1464 8.74297 24.5115 8.74297V8.34297C24.0954 8.34297 23.7215 8.42214 23.3957 8.58722L23.5765 8.94403ZM24.5115 8.74297C24.8833 8.74297 25.2051 8.81572 25.4817 8.95578L25.6624 8.59891C25.3218 8.42647 24.9365 8.34297 24.5115 8.34297V8.74297ZM25.4835 8.95668C25.7626 9.09449 25.9979 9.29216 26.1905 9.55253L26.5121 9.31465C26.2828 9.00471 25.9986 8.76488 25.6606 8.59801L25.4835 8.95668ZM26.1913 9.55359C26.3844 9.81104 26.5326 10.1265 26.6326 10.5043L27.0193 10.4019C26.9083 9.98286 26.7401 9.61865 26.5113 9.31359L26.1913 9.55359ZM26.6327 10.5048C26.7329 10.8797 26.7841 11.3014 26.7841 11.7715H27.1841C27.1841 11.2728 27.1299 10.8156 27.0192 10.4015L26.6327 10.5048ZM25.772 11.8945V11.7715H25.372V11.8945H25.772ZM25.772 11.7715C25.772 11.4662 25.7435 11.1802 25.6854 10.9143L25.2946 10.9998C25.3458 11.2339 25.372 11.4909 25.372 11.7715H25.772ZM25.6855 10.9149C25.6268 10.6424 25.5334 10.398 25.4028 10.1846L25.0616 10.3935C25.1653 10.5629 25.2438 10.7639 25.2945 10.9991L25.6855 10.9149ZM25.4028 10.1846C25.2692 9.96642 25.095 9.79349 24.8806 9.67033L24.6814 10.0172C24.8342 10.1049 24.9608 10.2289 25.0616 10.3935L25.4028 10.1846ZM24.885 9.67291C24.6681 9.54085 24.4136 9.47969 24.1306 9.47969V9.87969C24.3555 9.87969 24.5346 9.9279 24.677 10.0146L24.885 9.67291ZM24.1306 9.47969C23.8582 9.47969 23.6124 9.52649 23.3998 9.62817L23.5724 9.98902C23.7192 9.91882 23.9031 9.87969 24.1306 9.87969V9.47969ZM23.403 9.62666C23.1963 9.72102 23.0211 9.85491 22.8799 10.0279L23.1899 10.2807C23.291 10.1568 23.4165 10.0602 23.5692 9.99053L23.403 9.62666ZM22.8799 10.0279C22.7421 10.1968 22.6373 10.3925 22.5639 10.6125L22.9434 10.739C23.0029 10.5606 23.0855 10.4087 23.1899 10.2807L22.8799 10.0279ZM22.5643 10.6114C22.4929 10.8215 22.4432 11.0482 22.4144 11.2909L22.8117 11.338C22.8376 11.1197 22.8816 10.9207 22.943 10.7402L22.5643 10.6114ZM22.413 11.3145V12.4512H22.813V11.3145H22.413ZM22.4158 12.4841C22.4655 12.7823 22.5509 13.0586 22.6732 13.3116L23.0334 13.1376C22.9291 12.9219 22.8544 12.6825 22.8103 12.4183L22.4158 12.4841ZM22.6732 13.3116C22.8011 13.5763 22.9841 13.7914 23.2214 13.9526L23.4461 13.6217C23.2693 13.5016 23.132 13.3416 23.0334 13.1376L22.6732 13.3116ZM23.225 13.9549C23.4768 14.1182 23.7872 14.1922 24.1423 14.1922V13.7922C23.8412 13.7922 23.6125 13.7295 23.4425 13.6193L23.225 13.9549ZM24.1423 14.1922C24.4253 14.1922 24.6798 14.131 24.8967 13.999L24.6887 13.6573C24.5463 13.744 24.3672 13.7922 24.1423 13.7922V14.1922ZM24.8967 13.999C25.106 13.8716 25.2753 13.6968 25.4043 13.4788L25.0601 13.2751C24.9625 13.4399 24.8388 13.5659 24.6887 13.6573L24.8967 13.999ZM25.4037 13.4799C25.5336 13.2633 25.6268 13.0176 25.6855 12.7452L25.2945 12.661C25.2438 12.8964 25.1651 13.1 25.0607 13.2741L25.4037 13.4799ZM25.6855 12.7452C25.7435 12.4762 25.772 12.1925 25.772 11.8945H25.372C25.372 12.1669 25.3459 12.4222 25.2945 12.661L25.6855 12.7452ZM29.8288 14.8887L29.7518 15.0733L29.7541 15.0742L29.8288 14.8887ZM28.8678 14.2383L28.7223 14.3755L28.7234 14.3766L28.8678 14.2383ZM28.8737 9.43359L29.022 9.56773L29.0229 9.56672L28.8737 9.43359ZM32.9635 9.41602L32.8075 9.54124L32.8095 9.54362L32.9635 9.41602ZM33.4674 10.3945L33.2753 10.45L33.2758 10.4518L33.4674 10.3945ZM33.6373 12.252V12.452H33.8373V12.252H33.6373ZM28.7389 12.252H28.5389V12.452H28.7389V12.252ZM28.7389 11.2383V11.0383H28.5389V11.2383H28.7389ZM32.2428 11.2383V11.4383H32.4428V11.2383H32.2428ZM32.2428 11.127H32.4429L32.4427 11.1208L32.2428 11.127ZM32.0905 10.4121L31.905 10.487L31.9061 10.4897L32.0905 10.4121ZM30.2975 9.82031L30.393 9.99604L30.3943 9.99532L30.2975 9.82031ZM29.5651 10.9277L29.371 10.8792L29.3705 10.8813L29.5651 10.9277ZM29.5827 12.8203L29.3917 12.8798L29.3929 12.8836L29.5827 12.8203ZM30.4616 13.8516L30.3748 14.0318L30.3775 14.0331L30.4616 13.8516ZM32.7819 13.2129L32.921 13.0692L32.7612 12.9145L32.6243 13.0898L32.7819 13.2129ZM33.526 13.9336L33.6909 14.0468L33.7865 13.9075L33.6652 13.7899L33.526 13.9336ZM32.9928 14.5078L33.1198 14.6624L33.1214 14.661L32.9928 14.5078ZM32.1901 14.9473L32.1227 14.759L32.1219 14.7592L32.1901 14.9473ZM31.1002 14.9172C30.6533 14.9172 30.2553 14.8446 29.9034 14.7031L29.7541 15.0742C30.16 15.2374 30.6097 15.3172 31.1002 15.3172V14.9172ZM29.9057 14.7041C29.5546 14.5578 29.2577 14.3562 29.0123 14.0999L28.7234 14.3766C29.0092 14.675 29.3529 14.9071 29.7518 15.0733L29.9057 14.7041ZM29.0133 14.101C28.7707 13.844 28.5833 13.5409 28.4516 13.1895L28.077 13.33C28.2265 13.7286 28.4415 14.0779 28.7224 14.3755L29.0133 14.101ZM28.4516 13.1895C28.32 12.8388 28.2534 12.4585 28.2534 12.0469H27.8534C27.8534 12.5025 27.9273 12.9307 28.077 13.33L28.4516 13.1895ZM28.2534 12.0469V11.8125H27.8534V12.0469H28.2534ZM28.2534 11.8125C28.2534 11.3358 28.3228 10.9099 28.4584 10.5325L28.0819 10.3972C27.9285 10.8244 27.8534 11.297 27.8534 11.8125H28.2534ZM28.4584 10.5325C28.5951 10.1519 28.7836 9.83146 29.022 9.56772L28.7253 9.29946C28.4481 9.60604 28.2343 9.97308 28.0819 10.3972L28.4584 10.5325ZM29.0229 9.56672C29.2616 9.29907 29.5426 9.09567 29.8673 8.955L29.7082 8.58797C29.3297 8.75198 29.0013 8.99 28.7244 9.30047L29.0229 9.56672ZM29.8673 8.955C30.192 8.81428 30.5456 8.74297 30.9303 8.74297V8.34297C30.4948 8.34297 30.0866 8.424 29.7082 8.58797L29.8673 8.955ZM30.9303 8.74297C31.3612 8.74297 31.7288 8.8154 32.038 8.95399L32.2016 8.58898C31.8311 8.42289 31.4057 8.34297 30.9303 8.34297V8.74297ZM32.038 8.95399C32.3503 9.094 32.6057 9.28975 32.8076 9.54122L33.1195 9.29081C32.876 8.98759 32.5689 8.75365 32.2016 8.58898L32.038 8.95399ZM32.8095 9.54362C33.0167 9.79366 33.1727 10.0946 33.2753 10.45L33.6596 10.3391C33.5434 9.93668 33.3635 9.58525 33.1175 9.28841L32.8095 9.54362ZM33.2758 10.4518C33.3827 10.8095 33.4373 11.2079 33.4373 11.6484H33.8373C33.8373 11.175 33.7787 10.7374 33.659 10.3372L33.2758 10.4518ZM33.4373 11.6484V12.252H33.8373V11.6484H33.4373ZM33.6373 12.052H28.7389V12.452H33.6373V12.052ZM28.9389 12.252V11.2383H28.5389V12.252H28.9389ZM28.7389 11.4383H32.2428V11.0383H28.7389V11.4383ZM32.4428 11.2383V11.127H32.0428V11.2383H32.4428ZM32.4427 11.1208C32.4342 10.8436 32.3786 10.581 32.2748 10.3345L31.9061 10.4897C31.9899 10.6886 32.0358 10.9025 32.0429 11.1331L32.4427 11.1208ZM32.2759 10.3373C32.1726 10.0812 32.0111 9.87098 31.7923 9.71145L31.5566 10.0346C31.7128 10.1485 31.8286 10.2977 31.905 10.4869L32.2759 10.3373ZM31.7923 9.71145C31.5605 9.54241 31.2648 9.46797 30.9245 9.46797V9.86797C31.2091 9.86797 31.4134 9.93024 31.5566 10.0346L31.7923 9.71145ZM30.9245 9.46797C30.6603 9.46797 30.4173 9.5255 30.2007 9.64531L30.3943 9.99532C30.5449 9.912 30.7199 9.86797 30.9245 9.86797V9.46797ZM30.202 9.64459C29.9903 9.75966 29.8159 9.92655 29.6783 10.1395L30.0143 10.3566C30.119 10.1945 30.2454 10.0763 30.393 9.99604L30.202 9.64459ZM29.6783 10.1395C29.543 10.3491 29.4416 10.597 29.3711 10.8792L29.7591 10.9762C29.8214 10.7273 29.9075 10.522 30.0143 10.3566L29.6783 10.1395ZM29.3705 10.8813C29.3037 11.1611 29.2713 11.472 29.2713 11.8125H29.6713C29.6713 11.4967 29.7014 11.2178 29.7596 10.9742L29.3705 10.8813ZM29.2713 11.8125V12.0469H29.6713V11.8125H29.2713ZM29.2713 12.0469C29.2713 12.3422 29.3109 12.6202 29.3917 12.8798L29.7736 12.7608C29.706 12.5438 29.6713 12.3063 29.6713 12.0469H29.2713ZM29.3929 12.8836C29.4785 13.1402 29.6037 13.368 29.7697 13.5646L30.0753 13.3065C29.9444 13.1515 29.8431 12.9692 29.7724 12.7571L29.3929 12.8836ZM29.7697 13.5646C29.9366 13.7623 30.139 13.9182 30.3748 14.0318L30.5483 13.6714C30.3623 13.5818 30.2053 13.4604 30.0753 13.3065L29.7697 13.5646ZM30.3775 14.0331C30.6187 14.1447 30.8883 14.198 31.1823 14.198V13.798C30.9371 13.798 30.7263 13.7537 30.5456 13.6701L30.3775 14.0331ZM31.1823 14.198C31.5495 14.198 31.8844 14.124 32.182 13.9708L31.9989 13.6151C31.7653 13.7354 31.4947 13.798 31.1823 13.798V14.198ZM32.182 13.9708C32.4749 13.82 32.7275 13.6074 32.9395 13.336L32.6243 13.0898C32.4456 13.3184 32.2373 13.4925 31.9989 13.6151L32.182 13.9708ZM32.6427 13.3566L33.3869 14.0773L33.6652 13.7899L32.921 13.0692L32.6427 13.3566ZM33.3611 13.8204C33.2363 14.0023 33.0716 14.1806 32.8642 14.3546L33.1214 14.661C33.3516 14.4678 33.5423 14.2633 33.6909 14.0468L33.3611 13.8204ZM32.8659 14.3533C32.6678 14.5159 32.4214 14.652 32.1227 14.759L32.2575 15.1356C32.5916 15.0159 32.8803 14.8591 33.1198 14.6624L32.8659 14.3533ZM32.1219 14.7592C31.8359 14.8629 31.4965 14.9172 31.1002 14.9172V15.3172C31.5321 15.3172 31.9193 15.2582 32.2582 15.1353L32.1219 14.7592ZM36.2769 9.86719H36.4772L36.4766 9.85652L36.2769 9.86719ZM36.2769 15V15.2H36.4769V15H36.2769ZM34.8648 15H34.6648V15.2H34.8648V15ZM34.8648 8.66016V8.46016H34.6648V8.66016H34.8648ZM36.2124 8.66016L36.4121 8.64949L36.402 8.46016H36.2124V8.66016ZM38.2163 8.61914L38.4163 8.62093L38.4176 8.48225L38.2881 8.43247L38.2163 8.61914ZM38.2046 9.93164L38.1688 10.1284L38.4025 10.1709L38.4046 9.93343L38.2046 9.93164ZM37.9234 9.89648L37.9074 10.0958L37.908 10.0959L37.9234 9.89648ZM36.9917 9.99023L37.0598 10.1783L37.0632 10.177L36.9917 9.99023ZM36.5288 10.2832L36.3852 10.144L36.3852 10.144L36.5288 10.2832ZM36.1304 11.3438L36.1449 11.5432L36.3208 11.5304L36.3301 11.3543L36.1304 11.3438ZM35.8081 11.3672H35.6081V11.5823L35.8226 11.5667L35.8081 11.3672ZM36.2769 9.36328L36.107 9.25774L36.1058 9.25962L36.2769 9.36328ZM36.8745 8.75977L36.772 8.58802L36.7708 8.58876L36.8745 8.75977ZM37.9878 8.56641L37.9562 8.7639L37.9574 8.76408L37.9878 8.56641ZM36.0769 9.86719V15H36.4769V9.86719H36.0769ZM36.2769 14.8H34.8648V15.2H36.2769V14.8ZM35.0648 15V8.66016H34.6648V15H35.0648ZM34.8648 8.86016H36.2124V8.46016H34.8648V8.86016ZM36.0127 8.67082L36.0772 9.87785L36.4766 9.85652L36.4121 8.64949L36.0127 8.67082ZM38.0163 8.61735L38.0046 9.92985L38.4046 9.93343L38.4163 8.62093L38.0163 8.61735ZM38.2404 9.73487C38.1467 9.71783 38.046 9.70533 37.9387 9.69707L37.908 10.0959C38.0038 10.1033 38.0907 10.1142 38.1688 10.1284L38.2404 9.73487ZM37.9393 9.69712C37.8364 9.68889 37.7334 9.68477 37.6304 9.68477V10.0848C37.7227 10.0848 37.815 10.0885 37.9074 10.0958L37.9393 9.69712ZM37.6304 9.68477C37.3692 9.68477 37.1312 9.72264 36.9202 9.80346L37.0632 10.177C37.2194 10.1172 37.4072 10.0848 37.6304 10.0848V9.68477ZM36.9237 9.80216C36.7141 9.87798 36.5332 9.9914 36.3852 10.144L36.6724 10.4224C36.7745 10.3172 36.9022 10.2353 37.0597 10.1783L36.9237 9.80216ZM36.3852 10.144C36.2429 10.2909 36.135 10.4678 36.06 10.6709L36.4352 10.8096C36.4929 10.6533 36.5726 10.5255 36.6725 10.4224L36.3852 10.144ZM36.06 10.6709C35.9856 10.8723 35.9433 11.0937 35.9307 11.3332L36.3301 11.3543C36.3409 11.1485 36.3768 10.9676 36.4352 10.8096L36.06 10.6709ZM36.1159 11.1443L35.7936 11.1677L35.8226 11.5667L36.1449 11.5432L36.1159 11.1443ZM36.0081 11.3672C36.0081 10.9817 36.0459 10.6278 36.1202 10.3046L35.7304 10.215C35.6485 10.5714 35.6081 10.9558 35.6081 11.3672H36.0081ZM36.1202 10.3046C36.1943 9.98231 36.3043 9.70393 36.4479 9.46694L36.1058 9.25962C35.937 9.53825 35.8126 9.85754 35.7304 10.215L36.1202 10.3046ZM36.4468 9.46882C36.5918 9.2353 36.7692 9.05756 36.9783 8.93077L36.7708 8.58876C36.5033 8.75103 36.2822 8.97564 36.107 9.25774L36.4468 9.46882ZM36.977 8.93151C37.1846 8.80765 37.4276 8.74297 37.7124 8.74297V8.34297C37.3644 8.34297 37.0489 8.42282 36.772 8.58802L36.977 8.93151ZM37.7124 8.74297C37.7863 8.74297 37.8675 8.7497 37.9562 8.76389L38.0194 8.36892C37.9128 8.35187 37.8104 8.34297 37.7124 8.34297V8.74297ZM37.9574 8.76408C38.0549 8.77909 38.1141 8.79411 38.1445 8.80581L38.2881 8.43247C38.217 8.4051 38.1238 8.38498 38.0182 8.36873L37.9574 8.76408ZM40.7328 8.66016H40.9328V8.46016H40.7328V8.66016ZM40.7328 15V15.2H40.9328V15H40.7328ZM39.3148 15H39.1148V15.2H39.3148V15ZM39.3148 8.66016V8.46016H39.1148V8.66016H39.3148ZM40.6215 6.46289L40.4801 6.60433L40.482 6.60624L40.6215 6.46289ZM39.432 7.52344L39.2906 7.66487L39.2926 7.66678L39.432 7.52344ZM40.5328 8.66016V15H40.9328V8.66016H40.5328ZM40.7328 14.8H39.3148V15.2H40.7328V14.8ZM39.5148 15V8.66016H39.1148V15H39.5148ZM39.3148 8.86016H40.7328V8.46016H39.3148V8.86016ZM39.4211 6.99609C39.4211 6.82959 39.4735 6.70423 39.5735 6.60431L39.2906 6.32147C39.1093 6.5028 39.0211 6.73291 39.0211 6.99609H39.4211ZM39.5735 6.60431C39.6718 6.50592 39.8152 6.44609 40.0297 6.44609V6.04609C39.7363 6.04609 39.4813 6.1308 39.2906 6.32147L39.5735 6.60431ZM40.0297 6.44609C40.2392 6.44609 40.3811 6.50534 40.4801 6.60431L40.7629 6.32147C40.5728 6.13138 40.3201 6.04609 40.0297 6.04609V6.44609ZM40.482 6.60624C40.5851 6.70655 40.6383 6.83131 40.6383 6.99609H41.0383C41.0383 6.73119 40.9469 6.50048 40.761 6.31955L40.482 6.60624ZM40.6383 6.99609C40.6383 7.15582 40.5859 7.27902 40.482 7.38009L40.761 7.66678C40.9461 7.48661 41.0383 7.25824 41.0383 6.99609H40.6383ZM40.482 7.38009C40.3833 7.47614 40.2408 7.53437 40.0297 7.53437V7.93438C40.3186 7.93438 40.5706 7.85199 40.761 7.66678L40.482 7.38009ZM40.0297 7.53437C39.8137 7.53437 39.6696 7.47558 39.5715 7.38009L39.2926 7.66678C39.4835 7.85254 39.7379 7.93438 40.0297 7.93438V7.53437ZM39.5735 7.38202C39.4728 7.28135 39.4211 7.15756 39.4211 6.99609H39.0211C39.0211 7.2565 39.11 7.48427 39.2906 7.66486L39.5735 7.38202ZM45.4759 9.73828L45.3798 9.91371L45.3815 9.91464L45.4759 9.73828ZM43.7239 10.4883V10.6883H43.9239V10.4883H43.7239ZM42.3177 10.4883H42.1177V10.6883H42.3177V10.4883ZM46.1966 8.7832L46.1166 8.96653L46.1173 8.96683L46.1966 8.7832ZM47.0696 9.50977L46.902 9.61884L46.9035 9.62117L47.0696 9.50977ZM47.4505 14.3145L47.2532 14.3479L47.254 14.3517L47.4505 14.3145ZM47.6321 14.9062H47.8321V14.862L47.8135 14.8219L47.6321 14.9062ZM47.6321 15V15.2H47.8321V15H47.6321ZM46.1848 15L46.0015 15.0799L46.0538 15.2H46.1848V15ZM46.0266 14.4199L45.8287 14.4491L45.8294 14.4528L46.0266 14.4199ZM46.179 11.1445L46.379 11.1418L46.3763 10.9445H46.179V11.1445ZM46.1907 12.0176V12.2176H46.3934L46.3907 12.0149L46.1907 12.0176ZM44.4856 12.0938L44.5314 12.2885L44.535 12.2876L44.4856 12.0938ZM43.7063 13.5586L43.5315 13.6557L43.5327 13.6578L43.7063 13.5586ZM44.0462 13.8809L43.953 14.0579L43.9549 14.0588L44.0462 13.8809ZM45.3528 13.8223L45.4486 13.9978L45.4497 13.9972L45.3528 13.8223ZM45.8684 13.3828L46.0302 13.5005L46.0314 13.4987L45.8684 13.3828ZM46.0677 12.8848L46.2293 12.767L45.8961 12.31L45.8679 12.8748L46.0677 12.8848ZM46.5247 13.5117L46.7166 13.5679L46.7443 13.4734L46.6863 13.3939L46.5247 13.5117ZM45.8391 14.5547L45.974 14.7024L45.9741 14.7022L45.8391 14.5547ZM45.1888 14.959L45.112 14.7743L45.111 14.7747L45.1888 14.959ZM43.2141 14.8711L43.1221 15.0487L43.1238 15.0495L43.2141 14.8711ZM42.4524 14.1973L42.2843 14.3055L42.2849 14.3066L42.4524 14.1973ZM42.3645 12.3398L42.1851 12.2515L42.1846 12.2526L42.3645 12.3398ZM42.927 11.6836L42.812 11.52L42.8108 11.5208L42.927 11.6836ZM43.8411 11.2852L43.8896 11.4792L43.8916 11.4787L43.8411 11.2852ZM46.1739 13.7285V10.7051H45.7739V13.7285H46.1739ZM46.1739 10.7051C46.1739 10.4546 46.1285 10.2273 46.0297 10.0297L45.672 10.2086C45.7372 10.3391 45.7739 10.5024 45.7739 10.7051H46.1739ZM46.0297 10.0297C45.9285 9.82712 45.7732 9.67049 45.5702 9.56192L45.3815 9.91464C45.5145 9.98576 45.6092 10.083 45.672 10.2086L46.0297 10.0297ZM45.5719 9.56286C45.3702 9.45237 45.1275 9.40352 44.8548 9.40352V9.80352C45.0821 9.80352 45.2534 9.8445 45.3798 9.9137L45.5719 9.56286ZM44.8548 9.40352C44.6021 9.40352 44.3728 9.44633 44.1728 9.53936L44.3415 9.90205C44.4774 9.83883 44.6465 9.80352 44.8548 9.80352V9.40352ZM44.1728 9.53936C43.9776 9.63012 43.8177 9.75665 43.7011 9.92177L44.0279 10.1524C44.0989 10.0519 44.2007 9.96753 44.3415 9.90205L44.1728 9.53936ZM43.7011 9.92177C43.5827 10.0895 43.5239 10.2805 43.5239 10.4883H43.9239C43.9239 10.3602 43.9588 10.2503 44.0279 10.1524L43.7011 9.92177ZM43.7239 10.2883H42.3177V10.6883H43.7239V10.2883ZM42.5177 10.4883C42.5177 10.272 42.5697 10.0611 42.677 9.85352L42.3216 9.66991C42.1867 9.93106 42.1177 10.2046 42.1177 10.4883H42.5177ZM42.677 9.85352C42.7837 9.64697 42.9402 9.45929 43.1513 9.2912L42.902 8.97833C42.6521 9.17743 42.4571 9.40772 42.3216 9.66991L42.677 9.85352ZM43.1513 9.2912C43.3607 9.12434 43.6144 8.99025 43.9154 8.89114L43.7903 8.5112C43.4506 8.62303 43.1535 8.778 42.902 8.97833L43.1513 9.2912ZM43.9154 8.89114C44.2122 8.7934 44.55 8.74297 44.9309 8.74297V8.34297C44.515 8.34297 44.134 8.39801 43.7903 8.5112L43.9154 8.89114ZM44.9309 8.74297C45.3851 8.74297 45.779 8.81925 46.1166 8.96652L46.2765 8.59988C45.8798 8.42684 45.4299 8.34297 44.9309 8.34297V8.74297ZM46.1173 8.96683C46.454 9.11212 46.7135 9.32916 46.902 9.61883L47.2373 9.4007C47.0038 9.04193 46.6814 8.7746 46.2758 8.59957L46.1173 8.96683ZM46.9035 9.62117C47.0912 9.901 47.1919 10.2619 47.1919 10.7168H47.5919C47.5919 10.2029 47.4777 9.75915 47.2357 9.39836L46.9035 9.62117ZM47.1919 10.7168V13.5352H47.5919V10.7168H47.1919ZM47.1919 13.5352C47.1919 13.8329 47.212 14.1041 47.2533 14.3479L47.6477 14.281C47.6108 14.0638 47.5919 13.8155 47.5919 13.5352H47.1919ZM47.254 14.3517C47.2993 14.5908 47.3642 14.8045 47.4508 14.9906L47.8135 14.8219C47.7438 14.6721 47.6876 14.4913 47.647 14.2772L47.254 14.3517ZM47.4321 14.9062V15H47.8321V14.9062H47.4321ZM47.6321 14.8H46.1848V15.2H47.6321V14.8ZM46.3682 14.9201C46.3105 14.7877 46.2613 14.6115 46.2239 14.387L45.8294 14.4528C45.8701 14.6971 45.9264 14.9076 46.0015 15.0799L46.3682 14.9201ZM46.2245 14.3907C46.1907 14.1613 46.1739 13.9406 46.1739 13.7285H45.7739C45.7739 13.9617 45.7923 14.2019 45.8288 14.4491L46.2245 14.3907ZM45.979 11.1472L45.9907 12.0203L46.3907 12.0149L46.379 11.1418L45.979 11.1472ZM46.1907 11.8176H45.177V12.2176H46.1907V11.8176ZM45.177 11.8176C44.9029 11.8176 44.6553 11.8441 44.4362 11.8999L44.535 12.2876C44.7144 12.2418 44.9277 12.2176 45.177 12.2176V11.8176ZM44.4398 11.8991C44.2219 11.9504 44.0307 12.0295 43.8722 12.1413L44.1029 12.4681C44.2101 12.3924 44.351 12.3309 44.5314 12.2884L44.4398 11.8991ZM43.8722 12.1413C43.7151 12.2522 43.5924 12.39 43.5099 12.5551L43.8676 12.734C43.9179 12.6334 43.9944 12.5446 44.1029 12.4681L43.8722 12.1413ZM43.5099 12.5551C43.4278 12.7191 43.3891 12.9008 43.3891 13.0957H43.7891C43.7891 12.9547 43.8168 12.8356 43.8676 12.734L43.5099 12.5551ZM43.3891 13.0957C43.3891 13.2961 43.4361 13.4841 43.5315 13.6557L43.8812 13.4615C43.8203 13.3519 43.7891 13.2312 43.7891 13.0957H43.3891ZM43.5327 13.6578C43.6309 13.8298 43.7732 13.9632 43.953 14.0578L44.1393 13.7039C44.0223 13.6423 43.938 13.5608 43.88 13.4594L43.5327 13.6578ZM43.9549 14.0588C44.1418 14.1547 44.3583 14.198 44.597 14.198V13.798C44.4059 13.798 44.2553 13.7633 44.1374 13.7029L43.9549 14.0588ZM44.597 14.198C44.9134 14.198 45.1995 14.1337 45.4486 13.9978L45.257 13.6467C45.0765 13.7452 44.8586 13.798 44.597 13.798V14.198ZM45.4497 13.9972C45.6895 13.8645 45.8852 13.6998 46.0302 13.5004L45.7067 13.2652C45.6016 13.4096 45.4536 13.5379 45.256 13.6473L45.4497 13.9972ZM46.0314 13.4987C46.1705 13.3032 46.2571 13.101 46.2674 12.8948L45.8679 12.8748C45.8626 12.9811 45.8164 13.1109 45.7054 13.2669L46.0314 13.4987ZM45.906 13.0026L46.3631 13.6295L46.6863 13.3939L46.2293 12.767L45.906 13.0026ZM46.3327 13.4555C46.2921 13.5944 46.2207 13.7498 46.1142 13.9223L46.4547 14.1324C46.5748 13.9377 46.6635 13.7494 46.7166 13.5679L46.3327 13.4555ZM46.1142 13.9223C46.012 14.088 45.8761 14.2498 45.7041 14.4071L45.9741 14.7022C46.1693 14.5237 46.3303 14.3339 46.4547 14.1324L46.1142 13.9223ZM45.7043 14.407C45.5438 14.5536 45.3473 14.6766 45.112 14.7743L45.2655 15.1437C45.538 15.0305 45.7751 14.8839 45.974 14.7024L45.7043 14.407ZM45.111 14.7747C44.8902 14.8679 44.6284 14.9172 44.3216 14.9172V15.3172C44.6709 15.3172 44.9873 15.261 45.2665 15.1433L45.111 14.7747ZM44.3216 14.9172C43.9345 14.9172 43.597 14.8407 43.3044 14.6926L43.1238 15.0495C43.4797 15.2296 43.8805 15.3172 44.3216 15.3172V14.9172ZM43.3061 14.6935C43.0098 14.54 42.783 14.3378 42.6199 14.0879L42.2849 14.3066C42.489 14.6192 42.77 14.8663 43.1221 15.0487L43.3061 14.6935ZM42.6206 14.089C42.459 13.8381 42.377 13.5538 42.377 13.2305H41.977C41.977 13.6258 42.0786 13.9861 42.2843 14.3055L42.6206 14.089ZM42.377 13.2305C42.377 12.9196 42.4348 12.6534 42.5445 12.4271L42.1846 12.2526C42.0443 12.5419 41.977 12.8695 41.977 13.2305H42.377ZM42.544 12.4282C42.6577 12.1972 42.823 12.0037 43.0433 11.8463L42.8108 11.5208C42.5388 11.7151 42.3292 11.959 42.1851 12.2515L42.544 12.4282ZM43.0421 11.8472C43.2682 11.6882 43.5492 11.5643 43.8896 11.4792L43.7926 11.0911C43.4143 11.1857 43.0859 11.3274 42.812 11.52L43.0421 11.8472ZM43.8916 11.4787C44.2311 11.3901 44.6238 11.3445 45.0716 11.3445V10.9445C44.5975 10.9445 44.1699 10.9927 43.7906 11.0916L43.8916 11.4787ZM45.0716 11.3445H46.179V10.9445H45.0716V11.3445ZM50.3888 10.0137H50.5892L50.5885 10.0016L50.3888 10.0137ZM50.3888 15V15.2H50.5888V15H50.3888ZM48.9767 15H48.7767V15.2H48.9767V15ZM48.9767 8.66016V8.46016H48.7767V8.66016H48.9767ZM50.3068 8.66016L50.5064 8.64806L50.495 8.46016H50.3068V8.66016ZM50.1369 11.5957L50.1343 11.7957L50.3369 11.7983V11.5957H50.1369ZM49.6798 11.5898L49.4799 11.5881L49.4781 11.7873L49.6773 11.7898L49.6798 11.5898ZM49.8673 10.3535L49.6776 10.2903L49.677 10.2921L49.8673 10.3535ZM50.383 9.38672L50.2288 9.25934L50.2277 9.26068L50.383 9.38672ZM51.1798 8.76562L51.2647 8.94675L51.2665 8.94586L51.1798 8.76562ZM53.0373 8.67188L52.9713 8.86073L52.9749 8.86191L53.0373 8.67188ZM53.6759 9.07617L53.53 9.21297L53.5315 9.21455L53.6759 9.07617ZM54.0861 9.80859L53.8952 9.86811L53.8954 9.86882L54.0861 9.80859ZM54.2267 15V15.2H54.4267V15H54.2267ZM52.8088 15H52.6088V15.2H52.8088V15ZM52.674 10.1777L52.4935 10.2641L52.4959 10.2688L52.674 10.1777ZM52.2931 9.79688L52.2071 9.97752L52.2123 9.97981L52.2931 9.79688ZM50.5412 10.248L50.3816 10.1275L50.3799 10.1298L50.5412 10.248ZM50.1888 10.0137V15H50.5888V10.0137H50.1888ZM50.3888 14.8H48.9767V15.2H50.3888V14.8ZM49.1767 15V8.66016H48.7767V15H49.1767ZM48.9767 8.86016H50.3068V8.46016H48.9767V8.86016ZM50.1072 8.67226L50.1892 10.0258L50.5885 10.0016L50.5064 8.64806L50.1072 8.67226ZM50.1394 11.3957L49.6824 11.3899L49.6773 11.7898L50.1343 11.7957L50.1394 11.3957ZM49.8798 11.5916C49.8836 11.1599 49.9436 10.7682 50.0577 10.415L49.677 10.2921C49.5489 10.6888 49.4839 11.1214 49.4799 11.5881L49.8798 11.5916ZM50.0571 10.4168C50.1755 10.0615 50.3366 9.76119 50.5383 9.51275L50.2277 9.26068C49.9918 9.55131 49.8092 9.89557 49.6776 10.2903L50.0571 10.4168ZM50.5372 9.5141C50.7415 9.26678 50.9836 9.07839 51.2647 8.94674L51.095 8.58451C50.7589 8.74193 50.4698 8.96759 50.2288 9.25934L50.5372 9.5141ZM51.2665 8.94586C51.5453 8.81176 51.859 8.74297 52.2111 8.74297V8.34297C51.8054 8.34297 51.4316 8.42261 51.0931 8.58539L51.2665 8.94586ZM52.2111 8.74297C52.497 8.74297 52.7497 8.78329 52.9713 8.86069L53.1032 8.48306C52.8327 8.38859 52.5345 8.34297 52.2111 8.34297V8.74297ZM52.9749 8.86191C53.1938 8.93374 53.3778 9.05053 53.53 9.21296L53.8218 8.93938C53.6226 8.72681 53.3807 8.57408 53.0996 8.48184L52.9749 8.86191ZM53.5315 9.21455C53.6857 9.37545 53.8087 9.59065 53.8952 9.86811L54.277 9.74908C54.176 9.42497 54.0255 9.15189 53.8203 8.93779L53.5315 9.21455ZM53.8954 9.86882C53.9811 10.1402 54.0267 10.4838 54.0267 10.9043H54.4267C54.4267 10.4577 54.3786 10.0707 54.2768 9.74837L53.8954 9.86882ZM54.0267 10.9043V15H54.4267V10.9043H54.0267ZM54.2267 14.8H52.8088V15.2H54.2267V14.8ZM53.0088 15V10.8984H52.6088V15H53.0088ZM53.0088 10.8984C53.0088 10.5777 52.962 10.3019 52.8521 10.0867L52.4959 10.2688C52.5656 10.4052 52.6088 10.6098 52.6088 10.8984H53.0088ZM52.8544 10.0914C52.7498 9.87262 52.5894 9.70914 52.374 9.61394L52.2123 9.97981C52.3328 10.033 52.4263 10.1235 52.4936 10.264L52.8544 10.0914ZM52.3791 9.6163C52.1804 9.52169 51.9437 9.47969 51.6779 9.47969V9.87969C51.9042 9.87969 52.0777 9.91581 52.2071 9.97745L52.3791 9.6163ZM51.6779 9.47969C51.4069 9.47969 51.1573 9.53675 50.9338 9.65536L51.1212 10.0087C51.2805 9.92419 51.4645 9.87969 51.6779 9.87969V9.47969ZM50.9338 9.65536C50.7161 9.77083 50.5317 9.92882 50.3816 10.1275L50.7007 10.3686C50.8163 10.2157 50.9561 10.0964 51.1212 10.0087L50.9338 9.65536ZM50.3799 10.1298C50.2364 10.3255 50.1272 10.5493 50.051 10.7991L50.4336 10.9158C50.4981 10.7046 50.5882 10.5222 50.7025 10.3663L50.3799 10.1298ZM50.051 10.7991C49.9745 11.05 49.9369 11.3159 49.9369 11.5957H50.3369C50.3369 11.3521 50.3696 11.1258 50.4336 10.9158L50.051 10.7991ZM58.9991 13.8574L59.087 14.0371L59.0885 14.0363L58.9991 13.8574ZM59.4502 13.4707L59.2875 13.3544L59.2857 13.3571L59.4502 13.4707ZM59.6436 12.9023V12.7023H59.4542L59.4439 12.8915L59.6436 12.9023ZM60.9737 12.9023L61.1736 12.9062L61.1775 12.7023H60.9737V12.9023ZM59.6787 14.8242L59.7689 15.0027L59.7703 15.002L59.6787 14.8242ZM57.1299 14.8711L57.0452 15.0523L57.0469 15.053L57.1299 14.8711ZM55.6944 13.166L55.5031 13.2246L55.5037 13.2263L55.6944 13.166ZM55.6944 10.5L55.5035 10.4402L55.5031 10.4415L55.6944 10.5ZM57.1299 8.79492L57.213 8.97687L57.2146 8.97611L57.1299 8.79492ZM59.7256 8.84766L59.6319 9.02433L59.6333 9.02507L59.7256 8.84766ZM60.628 9.68555L60.4571 9.78954L60.4585 9.79171L60.628 9.68555ZM60.9737 10.9277V11.1277H61.177L61.1736 10.9244L60.9737 10.9277ZM59.6436 10.9277L59.4438 10.9377L59.4533 11.1277H59.6436V10.9277ZM59.4678 10.2949L59.2911 10.3887L59.2935 10.393L59.4678 10.2949ZM59.0342 9.83789L58.9292 10.0081L58.9308 10.0091L59.0342 9.83789ZM57.6631 9.84375L57.7666 10.015L57.7691 10.0133L57.6631 9.84375ZM57.2237 10.3125L57.3997 10.4075L57.4004 10.4061L57.2237 10.3125ZM56.9952 10.9746L56.7987 10.9372L56.7982 10.9397L56.9952 10.9746ZM57.2178 13.3594L57.0418 13.4544L57.0442 13.4586L57.2178 13.3594ZM57.6631 13.8223L57.5571 13.9919L57.5597 13.9934L57.6631 13.8223ZM58.378 14.1922C58.635 14.1922 58.8727 14.1419 59.087 14.0371L58.9112 13.6778C58.7582 13.7526 58.5819 13.7922 58.378 13.7922V14.1922ZM59.0885 14.0363C59.3045 13.9283 59.4814 13.7776 59.6148 13.5843L59.2857 13.3571C59.1925 13.492 59.0686 13.5991 58.9096 13.6785L59.0885 14.0363ZM59.613 13.587C59.7537 13.3899 59.8297 13.1633 59.8433 12.9132L59.4439 12.8915C59.4341 13.071 59.3811 13.2234 59.2875 13.3545L59.613 13.587ZM59.6436 13.1023H60.9737V12.7023H59.6436V13.1023ZM60.7737 12.8985C60.7666 13.2691 60.658 13.6037 60.4464 13.907L60.7744 14.1359C61.0315 13.7674 61.1651 13.3559 61.1736 12.9062L60.7737 12.8985ZM60.4464 13.907C60.2318 14.2146 59.9468 14.4612 59.5872 14.6464L59.7703 15.002C60.1842 14.7888 60.5203 14.5002 60.7744 14.1359L60.4464 13.907ZM59.5886 14.6457C59.2321 14.8258 58.8356 14.9172 58.3955 14.9172V15.3172C58.893 15.3172 59.352 15.2133 59.7689 15.0027L59.5886 14.6457ZM58.3955 14.9172C57.9335 14.9172 57.5411 14.8389 57.213 14.6892L57.0469 15.053C57.4375 15.2314 57.8888 15.3172 58.3955 15.3172V14.9172ZM57.2146 14.6899C56.8812 14.5341 56.6069 14.3219 56.3886 14.0535L56.0783 14.3059C56.3366 14.6234 56.6599 14.8722 57.0452 15.0523L57.2146 14.6899ZM56.3886 14.0535C56.1672 13.7813 55.999 13.466 55.8851 13.1057L55.5037 13.2263C55.6319 13.6316 55.8231 13.9922 56.0783 14.3059L56.3886 14.0535ZM55.8856 13.1075C55.7747 12.7453 55.7186 12.355 55.7186 11.9355H55.3186C55.3186 12.3911 55.3796 12.8211 55.5031 13.2246L55.8856 13.1075ZM55.7186 11.9355V11.7305H55.3186V11.9355H55.7186ZM55.7186 11.7305C55.7186 11.311 55.7747 10.9207 55.8856 10.5585L55.5031 10.4415C55.3796 10.8449 55.3186 11.275 55.3186 11.7305H55.7186ZM55.8852 10.5598C55.9993 10.1955 56.1675 9.87855 56.3886 9.60667L56.0783 9.35427C55.8229 9.66832 55.6316 10.0311 55.5035 10.4402L55.8852 10.5598ZM56.3886 9.60667C56.6066 9.33869 56.8803 9.12874 57.213 8.97686L57.0469 8.61298C56.6608 8.78922 56.3369 9.03631 56.0783 9.35427L56.3886 9.60667ZM57.2146 8.97611C57.5425 8.82287 57.9324 8.74297 58.3897 8.74297V8.34297C57.886 8.34297 57.4361 8.43104 57.0452 8.61374L57.2146 8.97611ZM58.3897 8.74297C58.8704 8.74297 59.2825 8.83896 59.6319 9.02433L59.8194 8.67099C59.4031 8.45011 58.9246 8.34297 58.3897 8.34297V8.74297ZM59.6333 9.02507C59.9846 9.20789 60.2579 9.46218 60.4571 9.78954L60.7988 9.58156C60.5606 9.19017 60.2323 8.88586 59.818 8.67024L59.6333 9.02507ZM60.4585 9.79171C60.6594 10.1125 60.7664 10.4901 60.7737 10.931L61.1736 10.9244C61.1653 10.4201 61.0418 9.9695 60.7975 9.57938L60.4585 9.79171ZM60.9737 10.7277H59.6436V11.1277H60.9737V10.7277ZM59.8433 10.9177C59.8302 10.6553 59.7641 10.4137 59.6421 10.1969L59.2935 10.393C59.3824 10.5511 59.4335 10.7314 59.4438 10.9377L59.8433 10.9177ZM59.6445 10.2012C59.5258 9.97744 59.3558 9.79848 59.1376 9.66671L58.9308 10.0091C59.0877 10.1039 59.2067 10.2296 59.2911 10.3887L59.6445 10.2012ZM59.1392 9.66768C58.9184 9.53142 58.6597 9.46797 58.3721 9.46797V9.86797C58.6001 9.86797 58.7829 9.9178 58.9292 10.0081L59.1392 9.66768ZM58.3721 9.46797C58.0602 9.46797 57.7844 9.5321 57.5571 9.67415L57.7691 10.0133C57.9168 9.92102 58.1137 9.86797 58.3721 9.86797V9.46797ZM57.5597 9.67257C57.3402 9.80516 57.1688 9.98864 57.0469 10.2189L57.4004 10.4061C57.4895 10.2379 57.611 10.1089 57.7665 10.0149L57.5597 9.67257ZM57.0477 10.2175C56.9313 10.433 56.8489 10.6735 56.7987 10.9372L57.1916 11.012C57.2351 10.7835 57.3051 10.5827 57.3997 10.4075L57.0477 10.2175ZM56.7982 10.9397C56.7531 11.1941 56.7307 11.4578 56.7307 11.7305H57.1307C57.1307 11.4797 57.1513 11.2395 57.1921 11.0095L56.7982 10.9397ZM56.7307 11.7305V11.9355H57.1307V11.7305H56.7307ZM56.7307 11.9355C56.7307 12.2083 56.7531 12.4737 56.7981 12.7317L57.1922 12.6629C57.1513 12.4287 57.1307 12.1863 57.1307 11.9355H56.7307ZM56.7981 12.7317C56.8443 12.9963 56.9249 13.2379 57.0418 13.4544L57.3938 13.2643C57.2997 13.0902 57.2319 12.8904 57.1922 12.6629L56.7981 12.7317ZM57.0442 13.4586C57.17 13.6788 57.3417 13.8572 57.5571 13.9919L57.7691 13.6527C57.6096 13.5529 57.4844 13.4228 57.3915 13.2601L57.0442 13.4586ZM57.5597 13.9934C57.7869 14.1307 58.0638 14.1922 58.378 14.1922V13.7922C58.114 13.7922 57.9144 13.7404 57.7665 13.6511L57.5597 13.9934ZM63.7011 14.8887L63.6242 15.0733L63.6265 15.0742L63.7011 14.8887ZM62.7402 14.2383L62.5947 14.3755L62.5957 14.3766L62.7402 14.2383ZM62.746 9.43359L62.8944 9.56773L62.8953 9.56672L62.746 9.43359ZM66.8359 9.41602L66.6799 9.54124L66.6819 9.54362L66.8359 9.41602ZM67.3398 10.3945L67.1476 10.45L67.1481 10.4518L67.3398 10.3945ZM67.5097 12.252V12.452H67.7097V12.252H67.5097ZM62.6113 12.252H62.4113V12.452H62.6113V12.252ZM62.6113 11.2383V11.0383H62.4113V11.2383H62.6113ZM66.1152 11.2383V11.4383H66.3152V11.2383H66.1152ZM66.1152 11.127H66.3153L66.3151 11.1208L66.1152 11.127ZM65.9628 10.4121L65.7773 10.487L65.7785 10.4897L65.9628 10.4121ZM64.1698 9.82031L64.2654 9.99604L64.2667 9.99532L64.1698 9.82031ZM63.4374 10.9277L63.2434 10.8792L63.2429 10.8813L63.4374 10.9277ZM63.455 12.8203L63.264 12.8798L63.2653 12.8836L63.455 12.8203ZM64.3339 13.8516L64.2471 14.0318L64.2499 14.0331L64.3339 13.8516ZM66.6542 13.2129L66.7934 13.0692L66.6336 12.9145L66.4966 13.0898L66.6542 13.2129ZM67.3984 13.9336L67.5633 14.0468L67.6589 13.9075L67.5375 13.7899L67.3984 13.9336ZM66.8652 14.5078L66.9921 14.6624L66.9937 14.661L66.8652 14.5078ZM66.0624 14.9473L65.995 14.759L65.9943 14.7592L66.0624 14.9473ZM64.9726 14.9172C64.5257 14.9172 64.1277 14.8446 63.7757 14.7031L63.6265 15.0742C64.0324 15.2374 64.482 15.3172 64.9726 15.3172V14.9172ZM63.778 14.7041C63.427 14.5578 63.1301 14.3562 62.8846 14.0999L62.5957 14.3766C62.8815 14.675 63.2252 14.9071 63.6242 15.0733L63.778 14.7041ZM62.8856 14.101C62.6431 13.844 62.4557 13.5409 62.3239 13.1895L61.9494 13.33C62.0989 13.7286 62.3138 14.0779 62.5947 14.3755L62.8856 14.101ZM62.3239 13.1895C62.1924 12.8388 62.1257 12.4585 62.1257 12.0469H61.7257C61.7257 12.5025 61.7997 12.9307 61.9494 13.33L62.3239 13.1895ZM62.1257 12.0469V11.8125H61.7257V12.0469H62.1257ZM62.1257 11.8125C62.1257 11.3358 62.1951 10.9099 62.3307 10.5325L61.9543 10.3972C61.8008 10.8244 61.7257 11.297 61.7257 11.8125H62.1257ZM62.3307 10.5325C62.4674 10.1519 62.6559 9.83146 62.8944 9.56772L62.5977 9.29946C62.3205 9.60604 62.1066 9.97308 61.9543 10.3972L62.3307 10.5325ZM62.8953 9.56672C63.134 9.29907 63.415 9.09567 63.7396 8.955L63.5806 8.58797C63.2021 8.75198 62.8737 8.99 62.5968 9.30047L62.8953 9.56672ZM63.7396 8.955C64.0643 8.81428 64.4179 8.74297 64.8027 8.74297V8.34297C64.3671 8.34297 63.959 8.424 63.5806 8.58797L63.7396 8.955ZM64.8027 8.74297C65.2336 8.74297 65.6011 8.8154 65.9103 8.95399L66.0739 8.58898C65.7034 8.42289 65.278 8.34297 64.8027 8.34297V8.74297ZM65.9103 8.95399C66.2226 9.094 66.478 9.28975 66.6799 9.54122L66.9918 9.29081C66.7484 8.98759 66.4413 8.75365 66.0739 8.58898L65.9103 8.95399ZM66.6819 9.54362C66.889 9.79366 67.045 10.0946 67.1476 10.45L67.5319 10.3391C67.4158 9.93668 67.2358 9.58525 66.9899 9.28841L66.6819 9.54362ZM67.1481 10.4518C67.2551 10.8095 67.3097 11.2079 67.3097 11.6484H67.7097C67.7097 11.175 67.651 10.7374 67.5314 10.3372L67.1481 10.4518ZM67.3097 11.6484V12.252H67.7097V11.6484H67.3097ZM67.5097 12.052H62.6113V12.452H67.5097V12.052ZM62.8113 12.252V11.2383H62.4113V12.252H62.8113ZM62.6113 11.4383H66.1152V11.0383H62.6113V11.4383ZM66.3152 11.2383V11.127H65.9152V11.2383H66.3152ZM66.3151 11.1208C66.3065 10.8436 66.2509 10.581 66.1471 10.3345L65.7785 10.4897C65.8622 10.6886 65.9082 10.9025 65.9153 11.1331L66.3151 11.1208ZM66.1483 10.3373C66.045 10.0812 65.8834 9.87098 65.6646 9.71145L65.429 10.0346C65.5852 10.1485 65.701 10.2977 65.7773 10.4869L66.1483 10.3373ZM65.6646 9.71145C65.4328 9.54241 65.1372 9.46797 64.7968 9.46797V9.86797C65.0814 9.86797 65.2858 9.93024 65.429 10.0346L65.6646 9.71145ZM64.7968 9.46797C64.5326 9.46797 64.2896 9.5255 64.073 9.64531L64.2667 9.99532C64.4173 9.912 64.5923 9.86797 64.7968 9.86797V9.46797ZM64.0743 9.64459C63.8626 9.75966 63.6882 9.92655 63.5507 10.1395L63.8867 10.3566C63.9913 10.1945 64.1177 10.0763 64.2653 9.99604L64.0743 9.64459ZM63.5507 10.1395C63.4153 10.3491 63.314 10.597 63.2434 10.8792L63.6315 10.9762C63.6937 10.7273 63.7798 10.522 63.8867 10.3566L63.5507 10.1395ZM63.2429 10.8813C63.1761 11.1611 63.1437 11.472 63.1437 11.8125H63.5437C63.5437 11.4967 63.5738 11.2178 63.632 10.9742L63.2429 10.8813ZM63.1437 11.8125V12.0469H63.5437V11.8125H63.1437ZM63.1437 12.0469C63.1437 12.3422 63.1832 12.6202 63.2641 12.8798L63.646 12.7608C63.5784 12.5438 63.5437 12.3063 63.5437 12.0469H63.1437ZM63.2653 12.8836C63.3508 13.1402 63.4761 13.368 63.642 13.5646L63.9477 13.3065C63.8168 13.1515 63.7154 12.9692 63.6447 12.7571L63.2653 12.8836ZM63.642 13.5646C63.809 13.7623 64.0113 13.9182 64.2471 14.0318L64.4207 13.6714C64.2346 13.5818 64.0776 13.4604 63.9477 13.3065L63.642 13.5646ZM64.2499 14.0331C64.491 14.1447 64.7607 14.198 65.0546 14.198V13.798C64.8095 13.798 64.5987 13.7537 64.4179 13.6701L64.2499 14.0331ZM65.0546 14.198C65.4219 14.198 65.7567 14.124 66.0543 13.9708L65.8713 13.6151C65.6377 13.7354 65.367 13.798 65.0546 13.798V14.198ZM66.0543 13.9708C66.3473 13.82 66.5998 13.6074 66.8118 13.336L66.4966 13.0898C66.318 13.3184 66.1096 13.4925 65.8713 13.6151L66.0543 13.9708ZM66.5151 13.3566L67.2592 14.0773L67.5375 13.7899L66.7934 13.0692L66.5151 13.3566ZM67.2335 13.8204C67.1086 14.0023 66.9439 14.1806 66.7366 14.3546L66.9937 14.661C67.2239 14.4678 67.4146 14.2633 67.5633 14.0468L67.2335 13.8204ZM66.7382 14.3533C66.5402 14.5159 66.2937 14.652 65.995 14.759L66.1298 15.1356C66.4639 15.0159 66.7526 14.8591 66.9921 14.6624L66.7382 14.3533ZM65.9943 14.7592C65.7082 14.8629 65.3689 14.9172 64.9726 14.9172V15.3172C65.4044 15.3172 65.7916 15.2582 66.1306 15.1353L65.9943 14.7592Z" fill="#010101" fill-opacity="0.098" mask="url(#path-2-inside-1_8_116)"/>
<path d="M11.5215 14.1172C11.0527 14.1172 10.6289 14.041 10.25 13.8887C9.875 13.7324 9.55469 13.5156 9.28906 13.2383C9.02734 12.9609 8.82617 12.6348 8.68555 12.2598C8.54492 11.8848 8.47461 11.4805 8.47461 11.0469V10.8125C8.47461 10.3164 8.54688 9.86719 8.69141 9.46484C8.83594 9.0625 9.03711 8.71875 9.29492 8.43359C9.55273 8.14453 9.85742 7.92383 10.209 7.77148C10.5605 7.61914 10.9414 7.54297 11.3516 7.54297C11.8047 7.54297 12.2012 7.61914 12.541 7.77148C12.8809 7.92383 13.1621 8.13867 13.3848 8.41602C13.6113 8.68945 13.7793 9.01562 13.8887 9.39453C14.002 9.77344 14.0586 10.1914 14.0586 10.6484V11.252H9.16016V10.2383H12.6641V10.127C12.6562 9.87305 12.6055 9.63477 12.5117 9.41211C12.4219 9.18945 12.2832 9.00977 12.0957 8.87305C11.9082 8.73633 11.6582 8.66797 11.3457 8.66797C11.1113 8.66797 10.9023 8.71875 10.7188 8.82031C10.5391 8.91797 10.3887 9.06055 10.2676 9.24805C10.1465 9.43555 10.0527 9.66211 9.98633 9.92773C9.92383 10.1895 9.89258 10.4844 9.89258 10.8125V11.0469C9.89258 11.3242 9.92969 11.582 10.0039 11.8203C10.082 12.0547 10.1953 12.2598 10.3438 12.4355C10.4922 12.6113 10.6719 12.75 10.8828 12.8516C11.0938 12.9492 11.334 12.998 11.6035 12.998C11.9434 12.998 12.2461 12.9297 12.5117 12.793C12.7773 12.6562 13.0078 12.4629 13.2031 12.2129L13.9473 12.9336C13.8105 13.1328 13.6328 13.3242 13.4141 13.5078C13.1953 13.6875 12.9277 13.834 12.6113 13.9473C12.2988 14.0605 11.9355 14.1172 11.5215 14.1172ZM16.3583 7.66016L17.5653 9.76367L18.7958 7.66016H20.3485L18.4266 10.7715L20.4247 14H18.872L17.5829 11.8086L16.2938 14H14.7352L16.7274 10.7715L14.8114 7.66016H16.3583ZM22.8533 8.87891V16.4375H21.4412V7.66016H22.742L22.8533 8.87891ZM26.9841 10.7715V10.8945C26.9841 11.3555 26.9295 11.7832 26.8201 12.1777C26.7146 12.5684 26.5564 12.9102 26.3455 13.2031C26.1384 13.4922 25.8826 13.7168 25.5779 13.877C25.2732 14.0371 24.9216 14.1172 24.5232 14.1172C24.1287 14.1172 23.783 14.0449 23.4861 13.9004C23.1931 13.752 22.9451 13.543 22.742 13.2734C22.5388 13.0039 22.3748 12.6875 22.2498 12.3242C22.1287 11.957 22.0427 11.5547 21.992 11.1172V10.6426C22.0427 10.1777 22.1287 9.75586 22.2498 9.37695C22.3748 8.99805 22.5388 8.67188 22.742 8.39844C22.9451 8.125 23.1931 7.91406 23.4861 7.76562C23.7791 7.61719 24.1209 7.54297 24.5115 7.54297C24.9099 7.54297 25.2634 7.62109 25.572 7.77734C25.8806 7.92969 26.1404 8.14844 26.3513 8.43359C26.5623 8.71484 26.7205 9.05469 26.8259 9.45312C26.9314 9.84766 26.9841 10.2871 26.9841 10.7715ZM25.572 10.8945V10.7715C25.572 10.4785 25.5447 10.207 25.49 9.95703C25.4353 9.70312 25.3494 9.48047 25.2322 9.28906C25.115 9.09766 24.9646 8.94922 24.781 8.84375C24.6013 8.73438 24.3845 8.67969 24.1306 8.67969C23.8806 8.67969 23.6658 8.72266 23.4861 8.80859C23.3064 8.89062 23.156 9.00586 23.0349 9.1543C22.9138 9.30273 22.8201 9.47656 22.7537 9.67578C22.6873 9.87109 22.6404 10.084 22.613 10.3145V11.4512C22.6599 11.7324 22.74 11.9902 22.8533 12.2246C22.9666 12.459 23.1267 12.6465 23.3337 12.7871C23.5447 12.9238 23.8142 12.9922 24.1423 12.9922C24.3962 12.9922 24.613 12.9375 24.7927 12.8281C24.9724 12.7188 25.1189 12.5684 25.2322 12.377C25.3494 12.1816 25.4353 11.957 25.49 11.7031C25.5447 11.4492 25.572 11.1797 25.572 10.8945ZM31.1002 14.1172C30.6315 14.1172 30.2077 14.041 29.8288 13.8887C29.4538 13.7324 29.1334 13.5156 28.8678 13.2383C28.6061 12.9609 28.4049 12.6348 28.2643 12.2598C28.1237 11.8848 28.0534 11.4805 28.0534 11.0469V10.8125C28.0534 10.3164 28.1256 9.86719 28.2702 9.46484C28.4147 9.0625 28.6159 8.71875 28.8737 8.43359C29.1315 8.14453 29.4362 7.92383 29.7877 7.77148C30.1393 7.61914 30.5202 7.54297 30.9303 7.54297C31.3834 7.54297 31.7799 7.61914 32.1198 7.77148C32.4596 7.92383 32.7409 8.13867 32.9635 8.41602C33.1901 8.68945 33.358 9.01562 33.4674 9.39453C33.5807 9.77344 33.6373 10.1914 33.6373 10.6484V11.252H28.7389V10.2383H32.2428V10.127C32.235 9.87305 32.1842 9.63477 32.0905 9.41211C32.0006 9.18945 31.862 9.00977 31.6745 8.87305C31.487 8.73633 31.237 8.66797 30.9245 8.66797C30.6901 8.66797 30.4811 8.71875 30.2975 8.82031C30.1178 8.91797 29.9674 9.06055 29.8463 9.24805C29.7252 9.43555 29.6315 9.66211 29.5651 9.92773C29.5026 10.1895 29.4713 10.4844 29.4713 10.8125V11.0469C29.4713 11.3242 29.5084 11.582 29.5827 11.8203C29.6608 12.0547 29.7741 12.2598 29.9225 12.4355C30.0709 12.6113 30.2506 12.75 30.4616 12.8516C30.6725 12.9492 30.9127 12.998 31.1823 12.998C31.5221 12.998 31.8248 12.9297 32.0905 12.793C32.3561 12.6562 32.5866 12.4629 32.7819 12.2129L33.526 12.9336C33.3893 13.1328 33.2116 13.3242 32.9928 13.5078C32.7741 13.6875 32.5065 13.834 32.1901 13.9473C31.8776 14.0605 31.5143 14.1172 31.1002 14.1172ZM36.2769 8.86719V14H34.8648V7.66016H36.2124L36.2769 8.86719ZM38.2163 7.61914L38.2046 8.93164C38.1187 8.91602 38.0249 8.9043 37.9234 8.89648C37.8257 8.88867 37.728 8.88477 37.6304 8.88477C37.3882 8.88477 37.1753 8.91992 36.9917 8.99023C36.8081 9.05664 36.6538 9.1543 36.5288 9.2832C36.4077 9.4082 36.314 9.56055 36.2476 9.74023C36.1812 9.91992 36.1421 10.1211 36.1304 10.3438L35.8081 10.3672C35.8081 9.96875 35.8472 9.59961 35.9253 9.25977C36.0034 8.91992 36.1206 8.62109 36.2769 8.36328C36.437 8.10547 36.6362 7.9043 36.8745 7.75977C37.1167 7.61523 37.396 7.54297 37.7124 7.54297C37.7984 7.54297 37.8902 7.55078 37.9878 7.56641C38.0894 7.58203 38.1655 7.59961 38.2163 7.61914ZM40.7328 7.66016V14H39.3148V7.66016H40.7328ZM39.2211 5.99609C39.2211 5.78125 39.2914 5.60352 39.432 5.46289C39.5766 5.31836 39.7758 5.24609 40.0297 5.24609C40.2797 5.24609 40.477 5.31836 40.6215 5.46289C40.766 5.60352 40.8383 5.78125 40.8383 5.99609C40.8383 6.20703 40.766 6.38281 40.6215 6.52344C40.477 6.66406 40.2797 6.73438 40.0297 6.73438C39.7758 6.73438 39.5766 6.66406 39.432 6.52344C39.2914 6.38281 39.2211 6.20703 39.2211 5.99609ZM45.9739 12.7285V9.70508C45.9739 9.47852 45.9329 9.2832 45.8509 9.11914C45.7688 8.95508 45.6438 8.82812 45.4759 8.73828C45.3118 8.64844 45.1048 8.60352 44.8548 8.60352C44.6243 8.60352 44.4251 8.64258 44.2571 8.7207C44.0891 8.79883 43.9583 8.9043 43.8645 9.03711C43.7708 9.16992 43.7239 9.32031 43.7239 9.48828H42.3177C42.3177 9.23828 42.3782 8.99609 42.4993 8.76172C42.6204 8.52734 42.7962 8.31836 43.0266 8.13477C43.2571 7.95117 43.5325 7.80664 43.8528 7.70117C44.1731 7.5957 44.5325 7.54297 44.9309 7.54297C45.4075 7.54297 45.8294 7.62305 46.1966 7.7832C46.5677 7.94336 46.8587 8.18555 47.0696 8.50977C47.2845 8.83008 47.3919 9.23242 47.3919 9.7168V12.5352C47.3919 12.8242 47.4114 13.084 47.4505 13.3145C47.4934 13.541 47.554 13.7383 47.6321 13.9062V14H46.1848C46.1184 13.8477 46.0657 13.6543 46.0266 13.4199C45.9915 13.1816 45.9739 12.9512 45.9739 12.7285ZM46.179 10.1445L46.1907 11.0176H45.177C44.9153 11.0176 44.6848 11.043 44.4856 11.0938C44.2864 11.1406 44.1204 11.2109 43.9876 11.3047C43.8548 11.3984 43.7552 11.5117 43.6888 11.6445C43.6223 11.7773 43.5891 11.9277 43.5891 12.0957C43.5891 12.2637 43.6282 12.418 43.7063 12.5586C43.7845 12.6953 43.8977 12.8027 44.0462 12.8809C44.1985 12.959 44.3821 12.998 44.597 12.998C44.886 12.998 45.138 12.9395 45.3528 12.8223C45.5716 12.7012 45.7434 12.5547 45.8684 12.3828C45.9934 12.207 46.0598 12.041 46.0677 11.8848L46.5247 12.5117C46.4778 12.6719 46.3977 12.8438 46.2845 13.0273C46.1712 13.2109 46.0227 13.3867 45.8391 13.5547C45.6595 13.7188 45.4427 13.8535 45.1888 13.959C44.9388 14.0645 44.6497 14.1172 44.3216 14.1172C43.9075 14.1172 43.5384 14.0352 43.2141 13.8711C42.8899 13.7031 42.636 13.4785 42.4524 13.1973C42.2688 12.9121 42.177 12.5898 42.177 12.2305C42.177 11.8945 42.2395 11.5977 42.3645 11.3398C42.4934 11.0781 42.6809 10.8594 42.927 10.6836C43.177 10.5078 43.4817 10.375 43.8411 10.2852C44.2005 10.1914 44.6106 10.1445 45.0716 10.1445H46.179ZM50.3888 9.01367V14H48.9767V7.66016H50.3068L50.3888 9.01367ZM50.1369 10.5957L49.6798 10.5898C49.6838 10.1406 49.7463 9.72852 49.8673 9.35352C49.9923 8.97852 50.1642 8.65625 50.383 8.38672C50.6056 8.11719 50.8713 7.91016 51.1798 7.76562C51.4884 7.61719 51.8322 7.54297 52.2111 7.54297C52.5158 7.54297 52.7912 7.58594 53.0373 7.67188C53.2873 7.75391 53.5002 7.88867 53.6759 8.07617C53.8556 8.26367 53.9923 8.50781 54.0861 8.80859C54.1798 9.10547 54.2267 9.4707 54.2267 9.9043V14H52.8088V9.89844C52.8088 9.59375 52.7638 9.35352 52.674 9.17773C52.588 8.99805 52.4611 8.87109 52.2931 8.79688C52.1291 8.71875 51.924 8.67969 51.6779 8.67969C51.4357 8.67969 51.2189 8.73047 51.0275 8.83203C50.8361 8.93359 50.674 9.07227 50.5412 9.24805C50.4123 9.42383 50.3127 9.62695 50.2423 9.85742C50.172 10.0879 50.1369 10.334 50.1369 10.5957ZM58.378 12.9922C58.6084 12.9922 58.8155 12.9473 58.9991 12.8574C59.1866 12.7637 59.337 12.6348 59.4502 12.4707C59.5674 12.3066 59.6319 12.1172 59.6436 11.9023H60.9737C60.9659 12.3125 60.8448 12.6855 60.6104 13.0215C60.376 13.3574 60.0655 13.625 59.6787 13.8242C59.292 14.0195 58.8643 14.1172 58.3955 14.1172C57.9112 14.1172 57.4893 14.0352 57.1299 13.8711C56.7705 13.7031 56.4717 13.4727 56.2334 13.1797C55.9952 12.8867 55.8155 12.5488 55.6944 12.166C55.5772 11.7832 55.5186 11.373 55.5186 10.9355V10.7305C55.5186 10.293 55.5772 9.88281 55.6944 9.5C55.8155 9.11328 55.9952 8.77344 56.2334 8.48047C56.4717 8.1875 56.7705 7.95898 57.1299 7.79492C57.4893 7.62695 57.9092 7.54297 58.3897 7.54297C58.8975 7.54297 59.3428 7.64453 59.7256 7.84766C60.1084 8.04688 60.4092 8.32617 60.628 8.68555C60.8506 9.04102 60.9659 9.45508 60.9737 9.92773H59.6436C59.6319 9.69336 59.5733 9.48242 59.4678 9.29492C59.3662 9.10352 59.2217 8.95117 59.0342 8.83789C58.8506 8.72461 58.6299 8.66797 58.3721 8.66797C58.087 8.66797 57.8506 8.72656 57.6631 8.84375C57.4756 8.95703 57.3291 9.11328 57.2237 9.3125C57.1182 9.50781 57.042 9.72852 56.9952 9.97461C56.9522 10.2168 56.9307 10.4688 56.9307 10.7305V10.9355C56.9307 11.1973 56.9522 11.4512 56.9952 11.6973C57.0381 11.9434 57.1123 12.1641 57.2178 12.3594C57.3272 12.5508 57.4756 12.7051 57.6631 12.8223C57.8506 12.9355 58.0889 12.9922 58.378 12.9922ZM64.9726 14.1172C64.5038 14.1172 64.08 14.041 63.7011 13.8887C63.3261 13.7324 63.0058 13.5156 62.7402 13.2383C62.4784 12.9609 62.2773 12.6348 62.1366 12.2598C61.996 11.8848 61.9257 11.4805 61.9257 11.0469V10.8125C61.9257 10.3164 61.998 9.86719 62.1425 9.46484C62.287 9.0625 62.4882 8.71875 62.746 8.43359C63.0038 8.14453 63.3085 7.92383 63.6601 7.77148C64.0116 7.61914 64.3925 7.54297 64.8027 7.54297C65.2558 7.54297 65.6523 7.61914 65.9921 7.77148C66.332 7.92383 66.6132 8.13867 66.8359 8.41602C67.0624 8.68945 67.2304 9.01562 67.3398 9.39453C67.453 9.77344 67.5097 10.1914 67.5097 10.6484V11.252H62.6113V10.2383H66.1152V10.127C66.1073 9.87305 66.0566 9.63477 65.9628 9.41211C65.873 9.18945 65.7343 9.00977 65.5468 8.87305C65.3593 8.73633 65.1093 8.66797 64.7968 8.66797C64.5624 8.66797 64.3534 8.71875 64.1698 8.82031C63.9902 8.91797 63.8398 9.06055 63.7187 9.24805C63.5976 9.43555 63.5038 9.66211 63.4374 9.92773C63.3749 10.1895 63.3437 10.4844 63.3437 10.8125V11.0469C63.3437 11.3242 63.3808 11.582 63.455 11.8203C63.5331 12.0547 63.6464 12.2598 63.7948 12.4355C63.9433 12.6113 64.123 12.75 64.3339 12.8516C64.5448 12.9492 64.7851 12.998 65.0546 12.998C65.3945 12.998 65.6972 12.9297 65.9628 12.793C66.2284 12.6562 66.4589 12.4629 66.6542 12.2129L67.3984 12.9336C67.2616 13.1328 67.0839 13.3242 66.8652 13.5078C66.6464 13.6875 66.3788 13.834 66.0624 13.9473C65.7499 14.0605 65.3866 14.1172 64.9726 14.1172Z" fill="white"/>
<path d="M73 0H98C99.6569 0 101 1.34315 101 3V17C101 18.6569 99.6569 20 98 20H73V0Z" fill="#9D21C9"/>
<mask id="path-6-inside-2_8_116" fill="white">
<path d="M84.6543 6.46875H86.1191V12.1699C86.1191 12.8184 85.9785 13.3613 85.6973 13.7988C85.416 14.2363 85.0332 14.5664 84.5488 14.7891C84.0684 15.0078 83.5312 15.1172 82.9375 15.1172C82.3242 15.1172 81.7773 15.0078 81.2969 14.7891C80.8164 14.5664 80.4375 14.2363 80.1602 13.7988C79.8867 13.3613 79.75 12.8184 79.75 12.1699V6.46875H81.2148V12.1699C81.2148 12.5801 81.2852 12.918 81.4258 13.1836C81.5664 13.4453 81.7656 13.6387 82.0234 13.7637C82.2812 13.8887 82.5859 13.9512 82.9375 13.9512C83.2891 13.9512 83.5918 13.8887 83.8457 13.7637C84.1035 13.6387 84.3027 13.4453 84.4434 13.1836C84.584 12.918 84.6543 12.5801 84.6543 12.1699V6.46875ZM88.9579 6.46875L90.7684 9.58008L92.579 6.46875H94.2723L91.6942 10.6934L94.3368 15H92.6259L90.7684 11.8301L88.911 15H87.1942L89.8427 10.6934L87.2587 6.46875H88.9579Z"/>
</mask>
<path d="M84.6543 6.46875H86.1191V12.1699C86.1191 12.8184 85.9785 13.3613 85.6973 13.7988C85.416 14.2363 85.0332 14.5664 84.5488 14.7891C84.0684 15.0078 83.5312 15.1172 82.9375 15.1172C82.3242 15.1172 81.7773 15.0078 81.2969 14.7891C80.8164 14.5664 80.4375 14.2363 80.1602 13.7988C79.8867 13.3613 79.75 12.8184 79.75 12.1699V6.46875H81.2148V12.1699C81.2148 12.5801 81.2852 12.918 81.4258 13.1836C81.5664 13.4453 81.7656 13.6387 82.0234 13.7637C82.2812 13.8887 82.5859 13.9512 82.9375 13.9512C83.2891 13.9512 83.5918 13.8887 83.8457 13.7637C84.1035 13.6387 84.3027 13.4453 84.4434 13.1836C84.584 12.918 84.6543 12.5801 84.6543 12.1699V6.46875ZM88.9579 6.46875L90.7684 9.58008L92.579 6.46875H94.2723L91.6942 10.6934L94.3368 15H92.6259L90.7684 11.8301L88.911 15H87.1942L89.8427 10.6934L87.2587 6.46875H88.9579Z" fill="#010101" fill-opacity="0.3"/>
<path d="M84.6543 6.46875V6.26875H84.4543V6.46875H84.6543ZM86.1191 6.46875H86.3191V6.26875H86.1191V6.46875ZM84.5488 14.7891L84.6317 14.9711L84.6324 14.9708L84.5488 14.7891ZM81.2969 14.7891L81.2128 14.9705L81.214 14.9711L81.2969 14.7891ZM80.1602 13.7988L79.9906 13.9048L79.9912 13.9059L80.1602 13.7988ZM79.75 6.46875V6.26875H79.55V6.46875H79.75ZM81.2148 6.46875H81.4148V6.26875H81.2148V6.46875ZM81.4258 13.1836L81.249 13.2772L81.2496 13.2783L81.4258 13.1836ZM83.8457 13.7637L83.7584 13.5837L83.7574 13.5842L83.8457 13.7637ZM84.4434 13.1836L84.6195 13.2783L84.6201 13.2772L84.4434 13.1836ZM84.6543 6.66875H86.1191V6.26875H84.6543V6.66875ZM85.9191 6.46875V12.1699H86.3191V6.46875H85.9191ZM85.9191 12.1699C85.9191 12.7895 85.785 13.2926 85.529 13.6907L85.8655 13.907C86.1721 13.4301 86.3191 12.8473 86.3191 12.1699H85.9191ZM85.529 13.6907C85.269 14.0952 84.9159 14.4002 84.4653 14.6073L84.6324 14.9708C85.1505 14.7326 85.5631 14.3774 85.8655 13.907L85.529 13.6907ZM84.466 14.607C84.0146 14.8125 83.5062 14.9172 82.9375 14.9172V15.3172C83.5563 15.3172 84.1221 15.2031 84.6317 14.9711L84.466 14.607ZM82.9375 14.9172C82.3482 14.9172 81.8303 14.8122 81.3797 14.607L81.214 14.9711C81.7244 15.2034 82.3002 15.3172 82.9375 15.3172V14.9172ZM81.381 14.6076C80.9345 14.4007 80.5854 14.0961 80.3291 13.6917L79.9912 13.9059C80.2896 14.3766 80.6983 14.7321 81.2128 14.9705L81.381 14.6076ZM80.3298 13.6928C80.0807 13.2944 79.95 12.7904 79.95 12.1699H79.55C79.55 12.8463 79.6927 13.4283 79.9906 13.9048L80.3298 13.6928ZM79.95 12.1699V6.46875H79.55V12.1699H79.95ZM79.75 6.66875H81.2148V6.26875H79.75V6.66875ZM81.0148 6.46875V12.1699H81.4148V6.46875H81.0148ZM81.0148 12.1699C81.0148 12.6014 81.0886 12.9741 81.249 13.2772L81.6025 13.09C81.4817 12.8618 81.4148 12.5588 81.4148 12.1699H81.0148ZM81.2496 13.2783C81.4094 13.5756 81.639 13.7996 81.9362 13.9436L82.1107 13.5837C81.8922 13.4778 81.7234 13.315 81.602 13.0889L81.2496 13.2783ZM81.9362 13.9436C82.2267 14.0845 82.5624 14.1512 82.9375 14.1512V13.7512C82.6094 13.7512 82.3358 13.6929 82.1107 13.5837L81.9362 13.9436ZM82.9375 14.1512C83.3124 14.1512 83.6468 14.0845 83.934 13.9431L83.7574 13.5842C83.5368 13.6928 83.2657 13.7512 82.9375 13.7512V14.1512ZM83.933 13.9436C84.2301 13.7996 84.4598 13.5756 84.6195 13.2783L84.2672 13.0889C84.1457 13.315 83.9769 13.4778 83.7584 13.5837L83.933 13.9436ZM84.6201 13.2772C84.7805 12.9741 84.8543 12.6014 84.8543 12.1699H84.4543C84.4543 12.5588 84.3874 12.8618 84.2666 13.09L84.6201 13.2772ZM84.8543 12.1699V6.46875H84.4543V12.1699H84.8543ZM88.9579 6.46875L89.1308 6.36816L89.0729 6.26875H88.9579V6.46875ZM90.7684 9.58008L90.5956 9.68067L90.7684 9.97772L90.9413 9.68067L90.7684 9.58008ZM92.579 6.46875V6.26875H92.464L92.4061 6.36816L92.579 6.46875ZM94.2723 6.46875L94.4431 6.57293L94.6287 6.26875H94.2723V6.46875ZM91.6942 10.6934L91.5235 10.5892L91.4597 10.6936L91.5238 10.798L91.6942 10.6934ZM94.3368 15V15.2H94.6942L94.5073 14.8954L94.3368 15ZM92.6259 15L92.4533 15.1011L92.5112 15.2H92.6259V15ZM90.7684 11.8301L90.941 11.729L90.7684 11.4345L90.5959 11.729L90.7684 11.8301ZM88.911 15V15.2H89.0256L89.0836 15.1011L88.911 15ZM87.1942 15L87.0239 14.8952L86.8364 15.2H87.1942V15ZM89.8427 10.6934L90.013 10.7981L90.0773 10.6936L90.0133 10.589L89.8427 10.6934ZM87.2587 6.46875V6.26875H86.9019L87.0881 6.57311L87.2587 6.46875ZM88.785 6.56934L90.5956 9.68067L90.9413 9.47949L89.1308 6.36816L88.785 6.56934ZM90.9413 9.68067L92.7518 6.56934L92.4061 6.36816L90.5956 9.47949L90.9413 9.68067ZM92.579 6.66875H94.2723V6.26875H92.579V6.66875ZM94.1016 6.36457L91.5235 10.5892L91.8649 10.7975L94.4431 6.57293L94.1016 6.36457ZM91.5238 10.798L94.1663 15.1046L94.5073 14.8954L91.8647 10.5888L91.5238 10.798ZM94.3368 14.8H92.6259V15.2H94.3368V14.8ZM92.7984 14.8989L90.941 11.729L90.5959 11.9312L92.4533 15.1011L92.7984 14.8989ZM90.5959 11.729L88.7385 14.8989L89.0836 15.1011L90.941 11.9312L90.5959 11.729ZM88.911 14.8H87.1942V15.2H88.911V14.8ZM87.3646 15.1048L90.013 10.7981L89.6723 10.5886L87.0239 14.8952L87.3646 15.1048ZM90.0133 10.589L87.4293 6.36439L87.0881 6.57311L89.672 10.7977L90.0133 10.589ZM87.2587 6.66875H88.9579V6.26875H87.2587V6.66875Z" fill="#010101" fill-opacity="0.098" mask="url(#path-6-inside-2_8_116)"/>
<path d="M84.6543 5.46875H86.1191V11.1699C86.1191 11.8184 85.9785 12.3613 85.6973 12.7988C85.416 13.2363 85.0332 13.5664 84.5488 13.7891C84.0684 14.0078 83.5312 14.1172 82.9375 14.1172C82.3242 14.1172 81.7773 14.0078 81.2969 13.7891C80.8164 13.5664 80.4375 13.2363 80.1602 12.7988C79.8867 12.3613 79.75 11.8184 79.75 11.1699V5.46875H81.2148V11.1699C81.2148 11.5801 81.2852 11.918 81.4258 12.1836C81.5664 12.4453 81.7656 12.6387 82.0234 12.7637C82.2812 12.8887 82.5859 12.9512 82.9375 12.9512C83.2891 12.9512 83.5918 12.8887 83.8457 12.7637C84.1035 12.6387 84.3027 12.4453 84.4434 12.1836C84.584 11.918 84.6543 11.5801 84.6543 11.1699V5.46875ZM88.9579 5.46875L90.7684 8.58008L92.579 5.46875H94.2723L91.6942 9.69336L94.3368 14H92.6259L90.7684 10.8301L88.911 14H87.1942L89.8427 9.69336L87.2587 5.46875H88.9579Z" fill="white"/>
<path d="M2.525 0H98.475C99.8695 0 101 1.34315 101 3V17C101 18.6569 99.8695 20 98.475 20H2.525C1.13048 20 0 18.6569 0 17V3C0 1.34315 1.13048 0 2.525 0Z" fill="url(#paint0_linear_8_116)"/>
<defs>
<linearGradient id="paint0_linear_8_116" x1="0" y1="0" x2="0" y2="20" gradientUnits="userSpaceOnUse">
<stop stop-color="#BBBBBB" stop-opacity="0.1"/>
<stop offset="1" stop-opacity="0.1"/>
</linearGradient>
</defs>
</svg>
