<svg width="67" height="20" viewBox="0 0 67 20" fill="none" xmlns="http://www.w3.org/2000/svg">
<rect width="66.3352" height="20" rx="3" fill="#555555"/>
<mask id="path-2-inside-1_11_340" fill="white">
<path d="M10.543 15H9.125V8.25C9.125 7.73828 9.22656 7.30664 9.42969 6.95508C9.63672 6.60352 9.93164 6.33594 10.3145 6.15234C10.7012 5.96875 11.1602 5.87695 11.6914 5.87695C12.0039 5.87695 12.3047 5.91016 12.5938 5.97656C12.8867 6.04297 13.1895 6.12695 13.502 6.22852L13.2852 7.37695C13.0859 7.31055 12.8652 7.24805 12.623 7.18945C12.3809 7.12695 12.1016 7.0957 11.7852 7.0957C11.3594 7.0957 11.0449 7.19336 10.8418 7.38867C10.6426 7.58008 10.543 7.86719 10.543 8.25V15ZM11.8145 8.66016V9.69141H8.15234V8.66016H11.8145ZM14.1699 8.66016V15H12.7578V8.66016H14.1699ZM19.9266 8.66016H21.2098V14.8242C21.2098 15.3945 21.0887 15.8789 20.8466 16.2773C20.6044 16.6758 20.2665 16.9785 19.8329 17.1855C19.3993 17.3965 18.8973 17.502 18.327 17.502C18.0848 17.502 17.8153 17.4668 17.5184 17.3965C17.2255 17.3262 16.9403 17.2129 16.663 17.0566C16.3895 16.9043 16.161 16.7031 15.9774 16.4531L16.6395 15.6211C16.8661 15.8906 17.1161 16.0879 17.3895 16.2129C17.663 16.3379 17.9501 16.4004 18.2509 16.4004C18.5751 16.4004 18.8505 16.3398 19.077 16.2188C19.3075 16.1016 19.4852 15.9277 19.6102 15.6973C19.7352 15.4668 19.7977 15.1855 19.7977 14.8535V10.0957L19.9266 8.66016ZM15.62 11.9004V11.7773C15.62 11.2969 15.6786 10.8594 15.7958 10.4648C15.913 10.0664 16.0809 9.72461 16.2997 9.43945C16.5184 9.15039 16.7841 8.92969 17.0966 8.77734C17.4091 8.62109 17.7626 8.54297 18.1571 8.54297C18.5673 8.54297 18.9169 8.61719 19.2059 8.76562C19.4989 8.91406 19.743 9.12695 19.9384 9.4043C20.1337 9.67773 20.286 10.0059 20.3954 10.3887C20.5087 10.7676 20.5927 11.1895 20.6473 11.6543V12.0469C20.5966 12.5 20.5106 12.9141 20.3895 13.2891C20.2684 13.6641 20.1083 13.9883 19.9091 14.2617C19.7098 14.5352 19.4637 14.7461 19.1708 14.8945C18.8817 15.043 18.5399 15.1172 18.1454 15.1172C17.7587 15.1172 17.4091 15.0371 17.0966 14.877C16.788 14.7168 16.5223 14.4922 16.2997 14.2031C16.0809 13.9141 15.913 13.5742 15.7958 13.1836C15.6786 12.7891 15.62 12.3613 15.62 11.9004ZM17.0321 11.7773V11.9004C17.0321 12.1895 17.0595 12.459 17.1141 12.709C17.1727 12.959 17.2606 13.1797 17.3778 13.3711C17.4989 13.5586 17.6512 13.707 17.8348 13.8164C18.0223 13.9219 18.243 13.9746 18.497 13.9746C18.829 13.9746 19.1005 13.9043 19.3114 13.7637C19.5262 13.623 19.6903 13.4336 19.8036 13.1953C19.9208 12.9531 20.0028 12.6836 20.0497 12.3867V11.3262C20.0262 11.0957 19.9774 10.8809 19.9032 10.6816C19.8329 10.4824 19.7372 10.3086 19.6161 10.1602C19.495 10.0078 19.3427 9.89062 19.1591 9.80859C18.9755 9.72266 18.7587 9.67969 18.5087 9.67969C18.2548 9.67969 18.0341 9.73438 17.8466 9.84375C17.6591 9.95312 17.5048 10.1035 17.3837 10.2949C17.2665 10.4863 17.1786 10.709 17.12 10.9629C17.0614 11.2168 17.0321 11.4883 17.0321 11.7773ZM24.2068 9.94922V15H22.7947V8.66016H24.1248L24.2068 9.94922ZM23.9783 11.5957L23.4978 11.5898C23.4978 11.1523 23.5525 10.748 23.6619 10.377C23.7712 10.0059 23.9314 9.68359 24.1423 9.41016C24.3533 9.13281 24.615 8.91992 24.9275 8.77148C25.2439 8.61914 25.6091 8.54297 26.0232 8.54297C26.3123 8.54297 26.5759 8.58594 26.8142 8.67188C27.0564 8.75391 27.2654 8.88477 27.4412 9.06445C27.6209 9.24414 27.7576 9.47461 27.8513 9.75586C27.949 10.0371 27.9978 10.377 27.9978 10.7754V15H26.5857V10.8984C26.5857 10.5898 26.5388 10.3477 26.4451 10.1719C26.3552 9.99609 26.2244 9.87109 26.0525 9.79688C25.8845 9.71875 25.6834 9.67969 25.449 9.67969C25.1834 9.67969 24.9568 9.73047 24.7693 9.83203C24.5857 9.93359 24.4353 10.0723 24.3181 10.248C24.2009 10.4238 24.115 10.627 24.0603 10.8574C24.0056 11.0879 23.9783 11.334 23.9783 11.5957ZM27.9099 11.2207L27.2478 11.3672C27.2478 10.9844 27.3005 10.623 27.406 10.2832C27.5154 9.93945 27.6736 9.63867 27.8806 9.38086C28.0916 9.11914 28.3513 8.91406 28.6599 8.76562C28.9685 8.61719 29.322 8.54297 29.7205 8.54297C30.0447 8.54297 30.3337 8.58789 30.5877 8.67773C30.8455 8.76367 31.0642 8.90039 31.2439 9.08789C31.4236 9.27539 31.5603 9.51953 31.6541 9.82031C31.7478 10.1172 31.7947 10.4766 31.7947 10.8984V15H30.3767V10.8926C30.3767 10.5723 30.3298 10.3242 30.2361 10.1484C30.1462 9.97266 30.0173 9.85156 29.8494 9.78516C29.6814 9.71484 29.4802 9.67969 29.2459 9.67969C29.0271 9.67969 28.8337 9.7207 28.6658 9.80273C28.5017 9.88086 28.363 9.99219 28.2498 10.1367C28.1365 10.2773 28.0505 10.4395 27.992 10.623C27.9373 10.8066 27.9099 11.0059 27.9099 11.2207ZM36.942 13.7285V10.7051C36.942 10.4785 36.901 10.2832 36.819 10.1191C36.737 9.95508 36.612 9.82812 36.444 9.73828C36.2799 9.64844 36.0729 9.60352 35.8229 9.60352C35.5924 9.60352 35.3932 9.64258 35.2252 9.7207C35.0573 9.79883 34.9264 9.9043 34.8327 10.0371C34.7389 10.1699 34.692 10.3203 34.692 10.4883H33.2858C33.2858 10.2383 33.3463 9.99609 33.4674 9.76172C33.5885 9.52734 33.7643 9.31836 33.9948 9.13477C34.2252 8.95117 34.5006 8.80664 34.8209 8.70117C35.1413 8.5957 35.5006 8.54297 35.8991 8.54297C36.3756 8.54297 36.7975 8.62305 37.1647 8.7832C37.5358 8.94336 37.8268 9.18555 38.0377 9.50977C38.2526 9.83008 38.36 10.2324 38.36 10.7168V13.5352C38.36 13.8242 38.3795 14.084 38.4186 14.3145C38.4616 14.541 38.5221 14.7383 38.6002 14.9062V15H37.153C37.0866 14.8477 37.0338 14.6543 36.9948 14.4199C36.9596 14.1816 36.942 13.9512 36.942 13.7285ZM37.1471 11.1445L37.1588 12.0176H36.1452C35.8834 12.0176 35.653 12.043 35.4538 12.0938C35.2545 12.1406 35.0885 12.2109 34.9557 12.3047C34.8229 12.3984 34.7233 12.5117 34.6569 12.6445C34.5905 12.7773 34.5573 12.9277 34.5573 13.0957C34.5573 13.2637 34.5963 13.418 34.6745 13.5586C34.7526 13.6953 34.8659 13.8027 35.0143 13.8809C35.1666 13.959 35.3502 13.998 35.5651 13.998C35.8541 13.998 36.1061 13.9395 36.3209 13.8223C36.5397 13.7012 36.7116 13.5547 36.8366 13.3828C36.9616 13.207 37.028 13.041 37.0358 12.8848L37.4928 13.5117C37.4459 13.6719 37.3659 13.8438 37.2526 14.0273C37.1393 14.2109 36.9909 14.3867 36.8073 14.5547C36.6276 14.7188 36.4108 14.8535 36.1569 14.959C35.9069 15.0645 35.6178 15.1172 35.2897 15.1172C34.8756 15.1172 34.5065 15.0352 34.1823 14.8711C33.858 14.7031 33.6041 14.4785 33.4205 14.1973C33.237 13.9121 33.1452 13.5898 33.1452 13.2305C33.1452 12.8945 33.2077 12.5977 33.3327 12.3398C33.4616 12.0781 33.6491 11.8594 33.8952 11.6836C34.1452 11.5078 34.4498 11.375 34.8092 11.2852C35.1686 11.1914 35.5788 11.1445 36.0397 11.1445H37.1471Z"/>
</mask>
<path d="M10.543 15H9.125V8.25C9.125 7.73828 9.22656 7.30664 9.42969 6.95508C9.63672 6.60352 9.93164 6.33594 10.3145 6.15234C10.7012 5.96875 11.1602 5.87695 11.6914 5.87695C12.0039 5.87695 12.3047 5.91016 12.5938 5.97656C12.8867 6.04297 13.1895 6.12695 13.502 6.22852L13.2852 7.37695C13.0859 7.31055 12.8652 7.24805 12.623 7.18945C12.3809 7.12695 12.1016 7.0957 11.7852 7.0957C11.3594 7.0957 11.0449 7.19336 10.8418 7.38867C10.6426 7.58008 10.543 7.86719 10.543 8.25V15ZM11.8145 8.66016V9.69141H8.15234V8.66016H11.8145ZM14.1699 8.66016V15H12.7578V8.66016H14.1699ZM19.9266 8.66016H21.2098V14.8242C21.2098 15.3945 21.0887 15.8789 20.8466 16.2773C20.6044 16.6758 20.2665 16.9785 19.8329 17.1855C19.3993 17.3965 18.8973 17.502 18.327 17.502C18.0848 17.502 17.8153 17.4668 17.5184 17.3965C17.2255 17.3262 16.9403 17.2129 16.663 17.0566C16.3895 16.9043 16.161 16.7031 15.9774 16.4531L16.6395 15.6211C16.8661 15.8906 17.1161 16.0879 17.3895 16.2129C17.663 16.3379 17.9501 16.4004 18.2509 16.4004C18.5751 16.4004 18.8505 16.3398 19.077 16.2188C19.3075 16.1016 19.4852 15.9277 19.6102 15.6973C19.7352 15.4668 19.7977 15.1855 19.7977 14.8535V10.0957L19.9266 8.66016ZM15.62 11.9004V11.7773C15.62 11.2969 15.6786 10.8594 15.7958 10.4648C15.913 10.0664 16.0809 9.72461 16.2997 9.43945C16.5184 9.15039 16.7841 8.92969 17.0966 8.77734C17.4091 8.62109 17.7626 8.54297 18.1571 8.54297C18.5673 8.54297 18.9169 8.61719 19.2059 8.76562C19.4989 8.91406 19.743 9.12695 19.9384 9.4043C20.1337 9.67773 20.286 10.0059 20.3954 10.3887C20.5087 10.7676 20.5927 11.1895 20.6473 11.6543V12.0469C20.5966 12.5 20.5106 12.9141 20.3895 13.2891C20.2684 13.6641 20.1083 13.9883 19.9091 14.2617C19.7098 14.5352 19.4637 14.7461 19.1708 14.8945C18.8817 15.043 18.5399 15.1172 18.1454 15.1172C17.7587 15.1172 17.4091 15.0371 17.0966 14.877C16.788 14.7168 16.5223 14.4922 16.2997 14.2031C16.0809 13.9141 15.913 13.5742 15.7958 13.1836C15.6786 12.7891 15.62 12.3613 15.62 11.9004ZM17.0321 11.7773V11.9004C17.0321 12.1895 17.0595 12.459 17.1141 12.709C17.1727 12.959 17.2606 13.1797 17.3778 13.3711C17.4989 13.5586 17.6512 13.707 17.8348 13.8164C18.0223 13.9219 18.243 13.9746 18.497 13.9746C18.829 13.9746 19.1005 13.9043 19.3114 13.7637C19.5262 13.623 19.6903 13.4336 19.8036 13.1953C19.9208 12.9531 20.0028 12.6836 20.0497 12.3867V11.3262C20.0262 11.0957 19.9774 10.8809 19.9032 10.6816C19.8329 10.4824 19.7372 10.3086 19.6161 10.1602C19.495 10.0078 19.3427 9.89062 19.1591 9.80859C18.9755 9.72266 18.7587 9.67969 18.5087 9.67969C18.2548 9.67969 18.0341 9.73438 17.8466 9.84375C17.6591 9.95312 17.5048 10.1035 17.3837 10.2949C17.2665 10.4863 17.1786 10.709 17.12 10.9629C17.0614 11.2168 17.0321 11.4883 17.0321 11.7773ZM24.2068 9.94922V15H22.7947V8.66016H24.1248L24.2068 9.94922ZM23.9783 11.5957L23.4978 11.5898C23.4978 11.1523 23.5525 10.748 23.6619 10.377C23.7712 10.0059 23.9314 9.68359 24.1423 9.41016C24.3533 9.13281 24.615 8.91992 24.9275 8.77148C25.2439 8.61914 25.6091 8.54297 26.0232 8.54297C26.3123 8.54297 26.5759 8.58594 26.8142 8.67188C27.0564 8.75391 27.2654 8.88477 27.4412 9.06445C27.6209 9.24414 27.7576 9.47461 27.8513 9.75586C27.949 10.0371 27.9978 10.377 27.9978 10.7754V15H26.5857V10.8984C26.5857 10.5898 26.5388 10.3477 26.4451 10.1719C26.3552 9.99609 26.2244 9.87109 26.0525 9.79688C25.8845 9.71875 25.6834 9.67969 25.449 9.67969C25.1834 9.67969 24.9568 9.73047 24.7693 9.83203C24.5857 9.93359 24.4353 10.0723 24.3181 10.248C24.2009 10.4238 24.115 10.627 24.0603 10.8574C24.0056 11.0879 23.9783 11.334 23.9783 11.5957ZM27.9099 11.2207L27.2478 11.3672C27.2478 10.9844 27.3005 10.623 27.406 10.2832C27.5154 9.93945 27.6736 9.63867 27.8806 9.38086C28.0916 9.11914 28.3513 8.91406 28.6599 8.76562C28.9685 8.61719 29.322 8.54297 29.7205 8.54297C30.0447 8.54297 30.3337 8.58789 30.5877 8.67773C30.8455 8.76367 31.0642 8.90039 31.2439 9.08789C31.4236 9.27539 31.5603 9.51953 31.6541 9.82031C31.7478 10.1172 31.7947 10.4766 31.7947 10.8984V15H30.3767V10.8926C30.3767 10.5723 30.3298 10.3242 30.2361 10.1484C30.1462 9.97266 30.0173 9.85156 29.8494 9.78516C29.6814 9.71484 29.4802 9.67969 29.2459 9.67969C29.0271 9.67969 28.8337 9.7207 28.6658 9.80273C28.5017 9.88086 28.363 9.99219 28.2498 10.1367C28.1365 10.2773 28.0505 10.4395 27.992 10.623C27.9373 10.8066 27.9099 11.0059 27.9099 11.2207ZM36.942 13.7285V10.7051C36.942 10.4785 36.901 10.2832 36.819 10.1191C36.737 9.95508 36.612 9.82812 36.444 9.73828C36.2799 9.64844 36.0729 9.60352 35.8229 9.60352C35.5924 9.60352 35.3932 9.64258 35.2252 9.7207C35.0573 9.79883 34.9264 9.9043 34.8327 10.0371C34.7389 10.1699 34.692 10.3203 34.692 10.4883H33.2858C33.2858 10.2383 33.3463 9.99609 33.4674 9.76172C33.5885 9.52734 33.7643 9.31836 33.9948 9.13477C34.2252 8.95117 34.5006 8.80664 34.8209 8.70117C35.1413 8.5957 35.5006 8.54297 35.8991 8.54297C36.3756 8.54297 36.7975 8.62305 37.1647 8.7832C37.5358 8.94336 37.8268 9.18555 38.0377 9.50977C38.2526 9.83008 38.36 10.2324 38.36 10.7168V13.5352C38.36 13.8242 38.3795 14.084 38.4186 14.3145C38.4616 14.541 38.5221 14.7383 38.6002 14.9062V15H37.153C37.0866 14.8477 37.0338 14.6543 36.9948 14.4199C36.9596 14.1816 36.942 13.9512 36.942 13.7285ZM37.1471 11.1445L37.1588 12.0176H36.1452C35.8834 12.0176 35.653 12.043 35.4538 12.0938C35.2545 12.1406 35.0885 12.2109 34.9557 12.3047C34.8229 12.3984 34.7233 12.5117 34.6569 12.6445C34.5905 12.7773 34.5573 12.9277 34.5573 13.0957C34.5573 13.2637 34.5963 13.418 34.6745 13.5586C34.7526 13.6953 34.8659 13.8027 35.0143 13.8809C35.1666 13.959 35.3502 13.998 35.5651 13.998C35.8541 13.998 36.1061 13.9395 36.3209 13.8223C36.5397 13.7012 36.7116 13.5547 36.8366 13.3828C36.9616 13.207 37.028 13.041 37.0358 12.8848L37.4928 13.5117C37.4459 13.6719 37.3659 13.8438 37.2526 14.0273C37.1393 14.2109 36.9909 14.3867 36.8073 14.5547C36.6276 14.7188 36.4108 14.8535 36.1569 14.959C35.9069 15.0645 35.6178 15.1172 35.2897 15.1172C34.8756 15.1172 34.5065 15.0352 34.1823 14.8711C33.858 14.7031 33.6041 14.4785 33.4205 14.1973C33.237 13.9121 33.1452 13.5898 33.1452 13.2305C33.1452 12.8945 33.2077 12.5977 33.3327 12.3398C33.4616 12.0781 33.6491 11.8594 33.8952 11.6836C34.1452 11.5078 34.4498 11.375 34.8092 11.2852C35.1686 11.1914 35.5788 11.1445 36.0397 11.1445H37.1471Z" fill="#010101" fill-opacity="0.3"/>
<path d="M10.543 15V15.2H10.743V15H10.543ZM9.125 15H8.925V15.2H9.125V15ZM9.42969 6.95508L9.25734 6.85359L9.25651 6.85502L9.42969 6.95508ZM10.3145 6.15234L10.2287 5.97167L10.228 5.97201L10.3145 6.15234ZM12.5938 5.97656L12.549 6.17149L12.5495 6.17161L12.5938 5.97656ZM13.502 6.22852L13.6985 6.26562L13.7311 6.0927L13.5638 6.03831L13.502 6.22852ZM13.2852 7.37695L13.2219 7.56669L13.4392 7.63912L13.4817 7.41405L13.2852 7.37695ZM12.623 7.18945L12.5731 7.38313L12.576 7.38384L12.623 7.18945ZM10.8418 7.38867L10.9804 7.53289L10.9804 7.53284L10.8418 7.38867ZM11.8145 8.66016H12.0145V8.46016H11.8145V8.66016ZM11.8145 9.69141V9.89141H12.0145V9.69141H11.8145ZM8.15234 9.69141H7.95234V9.89141H8.15234V9.69141ZM8.15234 8.66016V8.46016H7.95234V8.66016H8.15234ZM14.1699 8.66016H14.3699V8.46016H14.1699V8.66016ZM14.1699 15V15.2H14.3699V15H14.1699ZM12.7578 15H12.5578V15.2H12.7578V15ZM12.7578 8.66016V8.46016H12.5578V8.66016H12.7578ZM10.543 14.8H9.125V15.2H10.543V14.8ZM9.325 15V8.25H8.925V15H9.325ZM9.325 8.25C9.325 7.7644 9.42133 7.36933 9.60286 7.05513L9.25651 6.85502C9.0318 7.24396 8.925 7.71216 8.925 8.25H9.325ZM9.60203 7.05657C9.78805 6.74067 10.0524 6.49983 10.4009 6.33268L10.228 5.97201C9.81088 6.17204 9.48538 6.46636 9.25735 6.85359L9.60203 7.05657ZM10.4002 6.33302C10.7545 6.16484 11.1828 6.07695 11.6914 6.07695V5.67695C11.1375 5.67695 10.6479 5.77266 10.2287 5.97167L10.4002 6.33302ZM11.6914 6.07695C11.9896 6.07695 12.2754 6.10863 12.549 6.17149L12.6385 5.78164C12.334 5.71168 12.0182 5.67695 11.6914 5.67695V6.07695ZM12.5495 6.17161C12.836 6.23656 13.1329 6.31887 13.4401 6.41872L13.5638 6.03831C13.246 5.93504 12.9374 5.84938 12.638 5.78151L12.5495 6.17161ZM13.3054 6.19142L13.0886 7.33985L13.4817 7.41405L13.6985 6.26562L13.3054 6.19142ZM13.3484 7.18722C13.143 7.11874 12.9168 7.05474 12.6701 6.99506L12.576 7.38384C12.8137 7.44135 13.0289 7.50235 13.2219 7.56669L13.3484 7.18722ZM12.673 6.9958C12.4109 6.92815 12.1142 6.8957 11.7852 6.8957V7.2957C12.0889 7.2957 12.3508 7.32576 12.5731 7.38311L12.673 6.9958ZM11.7852 6.8957C11.3336 6.8957 10.9588 6.99874 10.7032 7.24451L10.9804 7.53284C11.1311 7.38797 11.3852 7.2957 11.7852 7.2957V6.8957ZM10.7032 7.24445C10.4516 7.48625 10.343 7.83428 10.343 8.25H10.743C10.743 7.9001 10.8336 7.67391 10.9804 7.53289L10.7032 7.24445ZM10.343 8.25V15H10.743V8.25H10.343ZM11.6145 8.66016V9.69141H12.0145V8.66016H11.6145ZM11.8145 9.49141H8.15234V9.89141H11.8145V9.49141ZM8.35234 9.69141V8.66016H7.95234V9.69141H8.35234ZM8.15234 8.86016H11.8145V8.46016H8.15234V8.86016ZM13.9699 8.66016V15H14.3699V8.66016H13.9699ZM14.1699 14.8H12.7578V15.2H14.1699V14.8ZM12.9578 15V8.66016H12.5578V15H12.9578ZM12.7578 8.86016H14.1699V8.46016H12.7578V8.86016ZM19.9266 8.66016V8.46016H19.7438L19.7274 8.64227L19.9266 8.66016ZM21.2098 8.66016H21.4098V8.46016H21.2098V8.66016ZM19.8329 17.1855L19.7467 17.0051L19.7454 17.0057L19.8329 17.1855ZM17.5184 17.3965L17.4718 17.591L17.4723 17.5911L17.5184 17.3965ZM16.663 17.0566L16.7611 16.8824L16.7603 16.8819L16.663 17.0566ZM15.9774 16.4531L15.8209 16.3286L15.7257 16.4482L15.8162 16.5715L15.9774 16.4531ZM16.6395 15.6211L16.7926 15.4924L16.6353 15.3052L16.483 15.4966L16.6395 15.6211ZM19.077 16.2188L18.9864 16.0404L18.9828 16.0424L19.077 16.2188ZM19.7977 10.0957L19.5985 10.0778L19.5977 10.0867V10.0957H19.7977ZM15.7958 10.4648L15.9875 10.5218L15.9877 10.5213L15.7958 10.4648ZM16.2997 9.43945L16.4584 9.56119L16.4592 9.56014L16.2997 9.43945ZM17.0966 8.77734L17.1842 8.95713L17.186 8.95623L17.0966 8.77734ZM19.2059 8.76562L19.1146 8.94354L19.1155 8.94403L19.2059 8.76562ZM19.9384 9.4043L19.7748 9.51946L19.7756 9.52054L19.9384 9.4043ZM20.3954 10.3887L20.2031 10.4436L20.2038 10.446L20.3954 10.3887ZM20.6473 11.6543H20.8473V11.6426L20.846 11.6309L20.6473 11.6543ZM20.6473 12.0469L20.8461 12.0691L20.8473 12.058V12.0469H20.6473ZM19.1708 14.8945L19.0804 14.7161L19.0794 14.7166L19.1708 14.8945ZM17.0966 14.877L17.0044 15.0545L17.0053 15.0549L17.0966 14.877ZM16.2997 14.2031L16.1402 14.3238L16.1412 14.3252L16.2997 14.2031ZM15.7958 13.1836L15.6041 13.2405L15.6042 13.2411L15.7958 13.1836ZM17.1141 12.709L16.9187 12.7517L16.9194 12.7546L17.1141 12.709ZM17.3778 13.3711L17.2072 13.4756L17.2098 13.4796L17.3778 13.3711ZM17.8348 13.8164L17.7325 13.9883L17.7368 13.9907L17.8348 13.8164ZM19.3114 13.7637L19.2019 13.5963L19.2005 13.5973L19.3114 13.7637ZM19.8036 13.1953L19.6236 13.1082L19.623 13.1094L19.8036 13.1953ZM20.0497 12.3867L20.2472 12.4179L20.2497 12.4024V12.3867H20.0497ZM20.0497 11.3262H20.2497V11.316L20.2487 11.3059L20.0497 11.3262ZM19.9032 10.6816L19.7146 10.7482L19.7158 10.7515L19.9032 10.6816ZM19.6161 10.1602L19.4595 10.2846L19.4611 10.2866L19.6161 10.1602ZM19.1591 9.80859L19.0743 9.98976L19.0775 9.9912L19.1591 9.80859ZM17.3837 10.2949L17.2146 10.188L17.2131 10.1905L17.3837 10.2949ZM19.9266 8.86016H21.2098V8.46016H19.9266V8.86016ZM21.0098 8.66016V14.8242H21.4098V8.66016H21.0098ZM21.0098 14.8242C21.0098 15.3661 20.895 15.8126 20.6757 16.1735L21.0175 16.3812C21.2825 15.9452 21.4098 15.423 21.4098 14.8242H21.0098ZM20.6757 16.1735C20.4543 16.5376 20.1464 16.8142 19.7467 17.0051L19.9191 17.366C20.3866 17.1428 20.7544 16.8139 21.0175 16.3812L20.6757 16.1735ZM19.7454 17.0057C19.3436 17.2012 18.8725 17.302 18.327 17.302V17.702C18.9222 17.702 19.455 17.5918 19.9204 17.3654L19.7454 17.0057ZM18.327 17.302C18.1038 17.302 17.85 17.2695 17.5645 17.2019L17.4723 17.5911C17.7806 17.6641 18.0659 17.702 18.327 17.702V17.302ZM17.5651 17.202C17.2912 17.1363 17.0232 17.0301 16.7611 16.8824L16.5648 17.2309C16.8574 17.3957 17.1598 17.5161 17.4718 17.591L17.5651 17.202ZM16.7603 16.8819C16.5117 16.7434 16.3051 16.5614 16.1386 16.3347L15.8162 16.5715C16.017 16.8449 16.2673 17.0652 16.5656 17.2314L16.7603 16.8819ZM16.1339 16.5777L16.796 15.7456L16.483 15.4966L15.8209 16.3286L16.1339 16.5777ZM16.4864 15.7498C16.7288 16.0382 17.0017 16.2555 17.3064 16.3948L17.4727 16.031C17.2305 15.9203 17.0034 15.7431 16.7926 15.4924L16.4864 15.7498ZM17.3064 16.3948C17.6059 16.5317 17.9214 16.6004 18.2509 16.6004V16.2004C17.9788 16.2004 17.72 16.1441 17.4727 16.031L17.3064 16.3948ZM18.2509 16.6004C18.5995 16.6004 18.9091 16.5353 19.1713 16.3951L18.9828 16.0424C18.7918 16.1444 18.5506 16.2004 18.2509 16.2004V16.6004ZM19.1677 16.397C19.4348 16.2612 19.642 16.0582 19.786 15.7926L19.4344 15.6019C19.3285 15.7973 19.1802 15.9419 18.9864 16.0405L19.1677 16.397ZM19.786 15.7926C19.9306 15.5261 19.9977 15.2102 19.9977 14.8535H19.5977C19.5977 15.1609 19.5399 15.4075 19.4344 15.6019L19.786 15.7926ZM19.9977 14.8535V10.0957H19.5977V14.8535H19.9977ZM19.9969 10.1136L20.1258 8.67804L19.7274 8.64227L19.5985 10.0778L19.9969 10.1136ZM15.82 11.9004V11.7773H15.42V11.9004H15.82ZM15.82 11.7773C15.82 11.313 15.8766 10.895 15.9875 10.5218L15.6041 10.4079C15.4806 10.8237 15.42 11.2807 15.42 11.7773H15.82ZM15.9877 10.5213C16.099 10.1428 16.2568 9.82401 16.4584 9.56119L16.141 9.31772C15.9051 9.6252 15.727 9.98997 15.6039 10.4084L15.9877 10.5213ZM16.4592 9.56014C16.6598 9.29504 16.9012 9.09509 17.1842 8.95712L17.0089 8.59757C16.6669 8.76428 16.3771 9.00574 16.1402 9.31876L16.4592 9.56014ZM17.186 8.95623C17.4673 8.81557 17.7896 8.74297 18.1571 8.74297V8.34297C17.7356 8.34297 17.3508 8.42662 17.0071 8.59846L17.186 8.95623ZM18.1571 8.74297C18.5436 8.74297 18.8602 8.81292 19.1146 8.94354L19.2973 8.58771C18.9735 8.42145 18.5909 8.34297 18.1571 8.34297V8.74297ZM19.1155 8.94403C19.3784 9.07719 19.5977 9.26794 19.7748 9.51945L20.1019 9.28914C19.8884 8.98596 19.6195 8.75094 19.2963 8.58722L19.1155 8.94403ZM19.7756 9.52054C19.9554 9.77231 20.0989 10.0788 20.2031 10.4436L20.5877 10.3337C20.4732 9.9329 20.3119 9.58316 20.1011 9.28805L19.7756 9.52054ZM20.2038 10.446C20.3132 10.812 20.3951 11.2223 20.4487 11.6777L20.846 11.6309C20.7902 11.1566 20.7041 10.7232 20.587 10.3314L20.2038 10.446ZM20.4473 11.6543V12.0469H20.8473V11.6543H20.4473ZM20.4486 12.0246C20.3991 12.4664 20.3156 12.8672 20.1992 13.2276L20.5799 13.3505C20.7056 12.961 20.7941 12.5336 20.8461 12.0691L20.4486 12.0246ZM20.1992 13.2276C20.0836 13.5857 19.9323 13.8902 19.7474 14.1439L20.0707 14.3795C20.2843 14.0864 20.4533 13.7424 20.5799 13.3505L20.1992 13.2276ZM19.7474 14.1439C19.5662 14.3926 19.3443 14.5824 19.0804 14.7161L19.2612 15.0729C19.5832 14.9098 19.8534 14.6777 20.0707 14.3795L19.7474 14.1439ZM19.0794 14.7166C18.8241 14.8478 18.5149 14.9172 18.1454 14.9172V15.3172C18.565 15.3172 18.9394 15.2382 19.2621 15.0724L19.0794 14.7166ZM18.1454 14.9172C17.7871 14.9172 17.4693 14.8432 17.1878 14.699L17.0053 15.0549C17.3488 15.231 17.7302 15.3172 18.1454 15.3172V14.9172ZM17.1887 14.6994C16.9073 14.5534 16.6639 14.3482 16.4581 14.0811L16.1412 14.3252C16.3808 14.6362 16.6687 14.8802 17.0044 15.0545L17.1887 14.6994ZM16.4592 14.0824C16.2565 13.8146 16.0985 13.4968 15.9873 13.1261L15.6042 13.2411C15.7274 13.6517 15.9054 14.0135 16.1402 14.3238L16.4592 14.0824ZM15.9875 13.1266C15.8764 12.7527 15.82 12.3443 15.82 11.9004H15.42C15.42 12.3783 15.4808 12.8255 15.6041 13.2405L15.9875 13.1266ZM16.8321 11.7773V11.9004H17.2321V11.7773H16.8321ZM16.8321 11.9004C16.8321 12.202 16.8606 12.486 16.9188 12.7517L17.3095 12.6662C17.2583 12.432 17.2321 12.1769 17.2321 11.9004H16.8321ZM16.9194 12.7546C16.9822 13.0224 17.0774 13.2635 17.2072 13.4755L17.5484 13.2667C17.4438 13.0958 17.3633 12.8955 17.3089 12.6633L16.9194 12.7546ZM17.2098 13.4796C17.3468 13.6918 17.5212 13.8624 17.7325 13.9882L17.9372 13.6446C17.7813 13.5517 17.651 13.4254 17.5458 13.2626L17.2098 13.4796ZM17.7368 13.9907C17.9592 14.1158 18.2149 14.1746 18.497 14.1746V13.7746C18.2712 13.7746 18.0855 13.7279 17.9329 13.6421L17.7368 13.9907ZM18.497 14.1746C18.8564 14.1746 19.1698 14.0985 19.4223 13.9301L19.2005 13.5973C19.0312 13.7101 18.8016 13.7746 18.497 13.7746V14.1746ZM19.4209 13.931C19.6674 13.7697 19.8556 13.5517 19.9842 13.2812L19.623 13.1094C19.525 13.3155 19.3851 13.4764 19.2019 13.5963L19.4209 13.931ZM19.9836 13.2824C20.1103 13.0206 20.1977 12.7319 20.2472 12.4179L19.8521 12.3555C19.808 12.6352 19.7313 12.8856 19.6236 13.1082L19.9836 13.2824ZM20.2497 12.3867V11.3262H19.8497V12.3867H20.2497ZM20.2487 11.3059C20.2237 11.06 20.1713 10.8284 20.0906 10.6118L19.7158 10.7515C19.7836 10.9334 19.8288 11.1314 19.8507 11.3464L20.2487 11.3059ZM20.0918 10.6151C20.0146 10.3963 19.9082 10.2018 19.7711 10.0337L19.4611 10.2866C19.5662 10.4154 19.6512 10.5685 19.7146 10.7482L20.0918 10.6151ZM19.7727 10.0357C19.6309 9.85739 19.4525 9.72066 19.2407 9.62599L19.0775 9.9912C19.2328 10.0606 19.3591 10.1582 19.4595 10.2846L19.7727 10.0357ZM19.2439 9.62746C19.0283 9.52655 18.7813 9.47969 18.5087 9.47969V9.87969C18.736 9.87969 18.9227 9.91877 19.0743 9.98973L19.2439 9.62746ZM18.5087 9.47969C18.2254 9.47969 17.9687 9.54095 17.7458 9.67099L17.9473 10.0165C18.0994 9.9278 18.2841 9.87969 18.5087 9.87969V9.47969ZM17.7458 9.67099C17.5294 9.79723 17.3521 9.97071 17.2147 10.188L17.5527 10.4019C17.6574 10.2363 17.7887 10.109 17.9473 10.0165L17.7458 9.67099ZM17.2131 10.1905C17.083 10.403 16.9878 10.6463 16.9251 10.9179L17.3149 11.0079C17.3694 10.7716 17.45 10.5697 17.5542 10.3994L17.2131 10.1905ZM16.9251 10.9179C16.8628 11.1881 16.8321 11.4748 16.8321 11.7773H17.2321C17.2321 11.5018 17.26 11.2455 17.3149 11.0079L16.9251 10.9179ZM24.2068 9.94922H24.4072L24.4064 9.93652L24.2068 9.94922ZM24.2068 15V15.2H24.4068V15H24.2068ZM22.7947 15H22.5947V15.2H22.7947V15ZM22.7947 8.66016V8.46016H22.5947V8.66016H22.7947ZM24.1248 8.66016L24.3244 8.64745L24.3124 8.46016H24.1248V8.66016ZM23.9783 11.5957L23.9758 11.7957L24.1783 11.7982V11.5957H23.9783ZM23.4978 11.5898H23.2978V11.7874L23.4954 11.7898L23.4978 11.5898ZM24.1423 9.41016L24.3007 9.53232L24.3015 9.53123L24.1423 9.41016ZM24.9275 8.77148L25.0133 8.95214L25.0143 8.95168L24.9275 8.77148ZM26.8142 8.67188L26.7464 8.86005L26.7501 8.8613L26.8142 8.67188ZM27.4412 9.06445L27.2982 9.20432L27.2998 9.20587L27.4412 9.06445ZM27.8513 9.75586L27.6616 9.81911L27.6624 9.82146L27.8513 9.75586ZM27.9978 15V15.2H28.1978V15H27.9978ZM26.5857 15H26.3857V15.2H26.5857V15ZM26.4451 10.1719L26.267 10.2629L26.2686 10.266L26.4451 10.1719ZM26.0525 9.79688L25.9681 9.97829L25.9732 9.98049L26.0525 9.79688ZM24.7693 9.83203L24.674 9.65617L24.6725 9.65702L24.7693 9.83203ZM27.9099 11.2207L27.9531 11.416L28.1099 11.3813V11.2207H27.9099ZM27.2478 11.3672H27.0478V11.6163L27.291 11.5625L27.2478 11.3672ZM27.406 10.2832L27.2154 10.2226L27.215 10.2239L27.406 10.2832ZM27.8806 9.38086L27.7249 9.25535L27.7247 9.25563L27.8806 9.38086ZM30.5877 8.67773L30.5209 8.86631L30.5244 8.86747L30.5877 8.67773ZM31.6541 9.82031L31.4631 9.87983L31.4633 9.88054L31.6541 9.82031ZM31.7947 15V15.2H31.9947V15H31.7947ZM30.3767 15H30.1767V15.2H30.3767V15ZM30.2361 10.1484L30.058 10.2395L30.0596 10.2426L30.2361 10.1484ZM29.8494 9.78516L29.7721 9.96968L29.7758 9.97115L29.8494 9.78516ZM28.6658 9.80273L28.7518 9.98332L28.7535 9.98245L28.6658 9.80273ZM28.2498 10.1367L28.4055 10.2622L28.4072 10.2601L28.2498 10.1367ZM27.992 10.623L27.8014 10.5622L27.8003 10.566L27.992 10.623ZM24.0068 9.94922V15H24.4068V9.94922H24.0068ZM24.2068 14.8H22.7947V15.2H24.2068V14.8ZM22.9947 15V8.66016H22.5947V15H22.9947ZM22.7947 8.86016H24.1248V8.46016H22.7947V8.86016ZM23.9252 8.67286L24.0072 9.96192L24.4064 9.93652L24.3244 8.64745L23.9252 8.67286ZM23.9807 11.3957L23.5003 11.3899L23.4954 11.7898L23.9758 11.7957L23.9807 11.3957ZM23.6978 11.5898C23.6978 11.169 23.7504 10.784 23.8537 10.4335L23.47 10.3204C23.3546 10.7121 23.2978 11.1357 23.2978 11.5898H23.6978ZM23.8537 10.4335C23.9569 10.0833 24.1066 9.78393 24.3007 9.53232L23.984 9.288C23.7562 9.58326 23.5856 9.9284 23.47 10.3204L23.8537 10.4335ZM24.3015 9.53123C24.4933 9.27913 24.7299 9.08676 25.0133 8.95214L24.8417 8.59083C24.5001 8.75308 24.2133 8.98649 23.9832 9.28908L24.3015 9.53123ZM25.0143 8.95168C25.2992 8.81451 25.6338 8.74297 26.0232 8.74297V8.34297C25.5844 8.34297 25.1886 8.42377 24.8407 8.59128L25.0143 8.95168ZM26.0232 8.74297C26.2924 8.74297 26.5327 8.78295 26.7464 8.86001L26.8821 8.48374C26.6192 8.38893 26.3322 8.34297 26.0232 8.34297V8.74297ZM26.7501 8.8613C26.963 8.93342 27.1448 9.04752 27.2982 9.20431L27.5841 8.92459C27.386 8.72202 27.1498 8.57439 26.8784 8.48245L26.7501 8.8613ZM27.2998 9.20587C27.4541 9.36023 27.576 9.56241 27.6616 9.8191L28.0411 9.69261C27.9391 9.38681 27.7876 9.12806 27.5826 8.92303L27.2998 9.20587ZM27.6624 9.82146C27.7507 10.0758 27.7978 10.3922 27.7978 10.7754H28.1978C28.1978 10.3617 28.1473 9.99838 28.0403 9.69026L27.6624 9.82146ZM27.7978 10.7754V15H28.1978V10.7754H27.7978ZM27.9978 14.8H26.5857V15.2H27.9978V14.8ZM26.7857 15V10.8984H26.3857V15H26.7857ZM26.7857 10.8984C26.7857 10.5734 26.737 10.2941 26.6215 10.0778L26.2686 10.266C26.3407 10.4012 26.3857 10.6063 26.3857 10.8984H26.7857ZM26.6232 10.0809C26.5134 9.8661 26.3488 9.70698 26.1318 9.61326L25.9732 9.98049C26.0999 10.0352 26.1971 10.1261 26.267 10.2629L26.6232 10.0809ZM26.1368 9.61553C25.9364 9.52231 25.705 9.47969 25.449 9.47969V9.87969C25.6617 9.87969 25.8326 9.91519 25.9682 9.97822L26.1368 9.61553ZM25.449 9.47969C25.1581 9.47969 24.8971 9.53533 24.674 9.65617L24.8646 10.0079C25.0165 9.9256 25.2086 9.87969 25.449 9.87969V9.47969ZM24.6725 9.65702C24.4607 9.77418 24.2865 9.9349 24.1517 10.1371L24.4845 10.359C24.5841 10.2096 24.7107 10.093 24.8661 10.007L24.6725 9.65702ZM24.1517 10.1371C24.0199 10.3349 23.9252 10.5605 23.8657 10.8112L24.2549 10.9036C24.3048 10.6934 24.382 10.5128 24.4845 10.359L24.1517 10.1371ZM23.8657 10.8112C23.8071 11.0583 23.7783 11.32 23.7783 11.5957H24.1783C24.1783 11.3479 24.2042 11.1175 24.2549 10.9036L23.8657 10.8112ZM27.8667 11.0254L27.2046 11.1719L27.291 11.5625L27.9531 11.416L27.8667 11.0254ZM27.4478 11.3672C27.4478 11.003 27.498 10.6617 27.597 10.3425L27.215 10.2239C27.1031 10.5844 27.0478 10.9658 27.0478 11.3672H27.4478ZM27.5966 10.3438C27.6992 10.0214 27.8463 9.74301 28.0366 9.50609L27.7247 9.25563C27.5009 9.53433 27.3316 9.85748 27.2154 10.2226L27.5966 10.3438ZM28.0363 9.50636C28.2283 9.26824 28.4643 9.08166 28.7466 8.94586L28.5732 8.58539C28.2384 8.74647 27.9549 8.97005 27.7249 9.25535L28.0363 9.50636ZM28.7466 8.94586C29.0241 8.8124 29.3472 8.74297 29.7205 8.74297V8.34297C29.2969 8.34297 28.913 8.42198 28.5732 8.58539L28.7466 8.94586ZM29.7205 8.74297C30.0265 8.74297 30.2923 8.78538 30.5209 8.86628L30.6544 8.48919C30.3752 8.3904 30.0629 8.34297 29.7205 8.34297V8.74297ZM30.5244 8.86747C30.7529 8.94363 30.9434 9.06333 31.0995 9.22627L31.3883 8.94951C31.1851 8.73745 30.9381 8.58372 30.6509 8.488L30.5244 8.86747ZM31.0995 9.22627C31.2537 9.38717 31.3766 9.60237 31.4631 9.87983L31.845 9.7608C31.744 9.43669 31.5935 9.16361 31.3883 8.94951L31.0995 9.22627ZM31.4633 9.88054C31.5492 10.1524 31.5947 10.4903 31.5947 10.8984H31.9947C31.9947 10.4629 31.9464 10.082 31.8448 9.76009L31.4633 9.88054ZM31.5947 10.8984V15H31.9947V10.8984H31.5947ZM31.7947 14.8H30.3767V15.2H31.7947V14.8ZM30.5767 15V10.8926H30.1767V15H30.5767ZM30.5767 10.8926C30.5767 10.5573 30.5284 10.2715 30.4126 10.0543L30.0596 10.2426C30.1313 10.3769 30.1767 10.5872 30.1767 10.8926H30.5767ZM30.4142 10.0574C30.3044 9.84266 30.1405 9.68517 29.9229 9.59916L29.7758 9.97115C29.8942 10.018 29.9881 10.1026 30.058 10.2395L30.4142 10.0574ZM29.9266 9.60067C29.7282 9.51764 29.4995 9.47969 29.2459 9.47969V9.87969C29.461 9.87969 29.6346 9.91205 29.7721 9.96964L29.9266 9.60067ZM29.2459 9.47969C29.0018 9.47969 28.7776 9.52555 28.578 9.62302L28.7535 9.98245C28.8899 9.91586 29.0524 9.87969 29.2459 9.87969V9.47969ZM28.5798 9.62216C28.3875 9.71372 28.2245 9.84475 28.0924 10.0133L28.4072 10.2601C28.5016 10.1396 28.6159 10.048 28.7518 9.98331L28.5798 9.62216ZM28.094 10.0113C27.9642 10.1724 27.867 10.3567 27.8014 10.5622L28.1825 10.6839C28.2341 10.5222 28.3087 10.3823 28.4055 10.2622L28.094 10.0113ZM27.8003 10.566C27.7394 10.7702 27.7099 10.9888 27.7099 11.2207H28.1099C28.1099 11.0229 28.1351 10.8431 28.1836 10.6801L27.8003 10.566ZM36.444 9.73828L36.3479 9.91371L36.3497 9.91464L36.444 9.73828ZM34.692 10.4883V10.6883H34.892V10.4883H34.692ZM33.2858 10.4883H33.0858V10.6883H33.2858V10.4883ZM37.1647 8.7832L37.0847 8.96653L37.0854 8.96683L37.1647 8.7832ZM38.0377 9.50977L37.8701 9.61884L37.8716 9.62117L38.0377 9.50977ZM38.4186 14.3145L38.2214 14.3479L38.2221 14.3517L38.4186 14.3145ZM38.6002 14.9062H38.8002V14.862L38.7816 14.8219L38.6002 14.9062ZM38.6002 15V15.2H38.8002V15H38.6002ZM37.153 15L36.9696 15.0799L37.022 15.2H37.153V15ZM36.9948 14.4199L36.7969 14.4491L36.7975 14.4528L36.9948 14.4199ZM37.1471 11.1445L37.3471 11.1418L37.3444 10.9445H37.1471V11.1445ZM37.1588 12.0176V12.2176H37.3615L37.3588 12.0149L37.1588 12.0176ZM35.4538 12.0938L35.4996 12.2885L35.5032 12.2876L35.4538 12.0938ZM34.6745 13.5586L34.4996 13.6557L34.5008 13.6578L34.6745 13.5586ZM35.0143 13.8809L34.9211 14.0579L34.923 14.0588L35.0143 13.8809ZM36.3209 13.8223L36.4167 13.9978L36.4178 13.9972L36.3209 13.8223ZM36.8366 13.3828L36.9983 13.5005L36.9996 13.4987L36.8366 13.3828ZM37.0358 12.8848L37.1974 12.767L36.8643 12.31L36.836 12.8748L37.0358 12.8848ZM37.4928 13.5117L37.6848 13.5679L37.7124 13.4734L37.6544 13.3939L37.4928 13.5117ZM36.8073 14.5547L36.9421 14.7024L36.9423 14.7022L36.8073 14.5547ZM36.1569 14.959L36.0802 14.7743L36.0791 14.7747L36.1569 14.959ZM34.1823 14.8711L34.0903 15.0487L34.092 15.0495L34.1823 14.8711ZM33.4205 14.1973L33.2524 14.3055L33.2531 14.3066L33.4205 14.1973ZM33.3327 12.3398L33.1532 12.2515L33.1527 12.2526L33.3327 12.3398ZM33.8952 11.6836L33.7801 11.52L33.7789 11.5208L33.8952 11.6836ZM34.8092 11.2852L34.8577 11.4792L34.8597 11.4787L34.8092 11.2852ZM37.142 13.7285V10.7051H36.742V13.7285H37.142ZM37.142 10.7051C37.142 10.4546 37.0967 10.2273 36.9979 10.0297L36.6401 10.2086C36.7054 10.3391 36.742 10.5024 36.742 10.7051H37.142ZM36.9979 10.0297C36.8966 9.82712 36.7413 9.67049 36.5383 9.56192L36.3497 9.91464C36.4826 9.98576 36.5773 10.083 36.6401 10.2086L36.9979 10.0297ZM36.54 9.56286C36.3383 9.45237 36.0956 9.40352 35.8229 9.40352V9.80352C36.0502 9.80352 36.2216 9.8445 36.3479 9.9137L36.54 9.56286ZM35.8229 9.40352C35.5702 9.40352 35.3409 9.44633 35.1409 9.53936L35.3096 9.90205C35.4455 9.83883 35.6146 9.80352 35.8229 9.80352V9.40352ZM35.1409 9.53936C34.9457 9.63012 34.7858 9.75665 34.6693 9.92177L34.9961 10.1524C35.067 10.0519 35.1688 9.96753 35.3096 9.90205L35.1409 9.53936ZM34.6693 9.92177C34.5509 10.0895 34.492 10.2805 34.492 10.4883H34.892C34.892 10.3602 34.9269 10.2503 34.9961 10.1524L34.6693 9.92177ZM34.692 10.2883H33.2858V10.6883H34.692V10.2883ZM33.4858 10.4883C33.4858 10.272 33.5378 10.0611 33.6451 9.85352L33.2897 9.66991C33.1548 9.93106 33.0858 10.2046 33.0858 10.4883H33.4858ZM33.6451 9.85352C33.7518 9.64697 33.9084 9.45929 34.1194 9.2912L33.8702 8.97833C33.6202 9.17743 33.4252 9.40772 33.2897 9.66991L33.6451 9.85352ZM34.1194 9.2912C34.3288 9.12434 34.5825 8.99025 34.8835 8.89114L34.7584 8.5112C34.4188 8.62303 34.1216 8.778 33.8702 8.97833L34.1194 9.2912ZM34.8835 8.89114C35.1803 8.7934 35.5181 8.74297 35.8991 8.74297V8.34297C35.4831 8.34297 35.1022 8.39801 34.7584 8.5112L34.8835 8.89114ZM35.8991 8.74297C36.3532 8.74297 36.7471 8.81925 37.0847 8.96652L37.2446 8.59988C36.8479 8.42684 36.398 8.34297 35.8991 8.34297V8.74297ZM37.0854 8.96683C37.4221 9.11212 37.6816 9.32916 37.8701 9.61883L38.2054 9.4007C37.972 9.04193 37.6495 8.7746 37.2439 8.59957L37.0854 8.96683ZM37.8716 9.62117C38.0593 9.901 38.16 10.2619 38.16 10.7168H38.56C38.56 10.2029 38.4458 9.75915 38.2038 9.39836L37.8716 9.62117ZM38.16 10.7168V13.5352H38.56V10.7168H38.16ZM38.16 13.5352C38.16 13.8329 38.1801 14.1041 38.2214 14.3479L38.6158 14.281C38.579 14.0638 38.56 13.8155 38.56 13.5352H38.16ZM38.2221 14.3517C38.2674 14.5908 38.3323 14.8045 38.4189 14.9906L38.7816 14.8219C38.7119 14.6721 38.6557 14.4913 38.6151 14.2772L38.2221 14.3517ZM38.4002 14.9062V15H38.8002V14.9062H38.4002ZM38.6002 14.8H37.153V15.2H38.6002V14.8ZM37.3363 14.9201C37.2786 14.7877 37.2295 14.6115 37.192 14.387L36.7975 14.4528C36.8382 14.6971 36.8945 14.9076 36.9696 15.0799L37.3363 14.9201ZM37.1926 14.3907C37.1588 14.1613 37.142 13.9406 37.142 13.7285H36.742C36.742 13.9617 36.7604 14.2019 36.7969 14.4491L37.1926 14.3907ZM36.9471 11.1472L36.9588 12.0203L37.3588 12.0149L37.3471 11.1418L36.9471 11.1472ZM37.1588 11.8176H36.1452V12.2176H37.1588V11.8176ZM36.1452 11.8176C35.8711 11.8176 35.6234 11.8441 35.4043 11.8999L35.5032 12.2876C35.6825 12.2418 35.8958 12.2176 36.1452 12.2176V11.8176ZM35.4079 11.8991C35.19 11.9504 34.9988 12.0295 34.8404 12.1413L35.071 12.4681C35.1782 12.3924 35.3191 12.3309 35.4996 12.2884L35.4079 11.8991ZM34.8404 12.1413C34.6832 12.2522 34.5605 12.39 34.478 12.5551L34.8358 12.734C34.886 12.6334 34.9626 12.5446 35.071 12.4681L34.8404 12.1413ZM34.478 12.5551C34.396 12.7191 34.3573 12.9008 34.3573 13.0957H34.7573C34.7573 12.9547 34.785 12.8356 34.8358 12.734L34.478 12.5551ZM34.3573 13.0957C34.3573 13.2961 34.4043 13.4841 34.4996 13.6557L34.8493 13.4615C34.7884 13.3519 34.7573 13.2312 34.7573 13.0957H34.3573ZM34.5008 13.6578C34.5991 13.8298 34.7413 13.9632 34.9211 14.0578L35.1074 13.7039C34.9904 13.6423 34.9061 13.5608 34.8481 13.4594L34.5008 13.6578ZM34.923 14.0588C35.1099 14.1547 35.3264 14.198 35.5651 14.198V13.798C35.3741 13.798 35.2234 13.7633 35.1056 13.7029L34.923 14.0588ZM35.5651 14.198C35.8815 14.198 36.1676 14.1337 36.4167 13.9978L36.2252 13.6467C36.0446 13.7452 35.8267 13.798 35.5651 13.798V14.198ZM36.4178 13.9972C36.6576 13.8645 36.8534 13.6998 36.9983 13.5004L36.6748 13.2652C36.5698 13.4096 36.4217 13.5379 36.2241 13.6473L36.4178 13.9972ZM36.9996 13.4987C37.1386 13.3032 37.2252 13.101 37.2355 12.8948L36.836 12.8748C36.8307 12.9811 36.7845 13.1109 36.6736 13.2669L36.9996 13.4987ZM36.8742 13.0026L37.3312 13.6295L37.6544 13.3939L37.1974 12.767L36.8742 13.0026ZM37.3009 13.4555C37.2602 13.5944 37.1888 13.7498 37.0824 13.9223L37.4228 14.1324C37.5429 13.9377 37.6316 13.7494 37.6848 13.5679L37.3009 13.4555ZM37.0824 13.9223C36.9802 14.088 36.8443 14.2498 36.6723 14.4071L36.9423 14.7022C37.1375 14.5237 37.2984 14.3339 37.4228 14.1324L37.0824 13.9223ZM36.6724 14.407C36.5119 14.5536 36.3154 14.6766 36.0802 14.7743L36.2336 15.1437C36.5061 15.0305 36.7433 14.8839 36.9421 14.7024L36.6724 14.407ZM36.0791 14.7747C35.8583 14.8679 35.5966 14.9172 35.2897 14.9172V15.3172C35.6391 15.3172 35.9554 15.261 36.2346 15.1433L36.0791 14.7747ZM35.2897 14.9172C34.9026 14.9172 34.5651 14.8407 34.2726 14.6926L34.092 15.0495C34.4479 15.2296 34.8487 15.3172 35.2897 15.3172V14.9172ZM34.2743 14.6935C33.9779 14.54 33.7511 14.3378 33.588 14.0879L33.2531 14.3066C33.4571 14.6192 33.7382 14.8663 34.0903 15.0487L34.2743 14.6935ZM33.5887 14.089C33.4272 13.8381 33.3452 13.5538 33.3452 13.2305H32.9452C32.9452 13.6258 33.0467 13.9861 33.2524 14.3055L33.5887 14.089ZM33.3452 13.2305C33.3452 12.9196 33.4029 12.6534 33.5126 12.4271L33.1527 12.2526C33.0124 12.5419 32.9452 12.8695 32.9452 13.2305H33.3452ZM33.5121 12.4282C33.6258 12.1972 33.7912 12.0037 34.0114 11.8463L33.7789 11.5208C33.507 11.7151 33.2973 11.959 33.1532 12.2515L33.5121 12.4282ZM34.0102 11.8472C34.2363 11.6882 34.5173 11.5643 34.8577 11.4792L34.7607 11.0911C34.3824 11.1857 34.054 11.3274 33.7801 11.52L34.0102 11.8472ZM34.8597 11.4787C35.1992 11.3901 35.5919 11.3445 36.0397 11.3445V10.9445C35.5656 10.9445 35.138 10.9927 34.7587 11.0916L34.8597 11.4787ZM36.0397 11.3445H37.1471V10.9445H36.0397V11.3445Z" fill="#010101" fill-opacity="0.098" mask="url(#path-2-inside-1_11_340)"/>
<path d="M10.543 14H9.125V7.25C9.125 6.73828 9.22656 6.30664 9.42969 5.95508C9.63672 5.60352 9.93164 5.33594 10.3145 5.15234C10.7012 4.96875 11.1602 4.87695 11.6914 4.87695C12.0039 4.87695 12.3047 4.91016 12.5938 4.97656C12.8867 5.04297 13.1895 5.12695 13.502 5.22852L13.2852 6.37695C13.0859 6.31055 12.8652 6.24805 12.623 6.18945C12.3809 6.12695 12.1016 6.0957 11.7852 6.0957C11.3594 6.0957 11.0449 6.19336 10.8418 6.38867C10.6426 6.58008 10.543 6.86719 10.543 7.25V14ZM11.8145 7.66016V8.69141H8.15234V7.66016H11.8145ZM14.1699 7.66016V14H12.7578V7.66016H14.1699ZM19.9266 7.66016H21.2098V13.8242C21.2098 14.3945 21.0887 14.8789 20.8466 15.2773C20.6044 15.6758 20.2665 15.9785 19.8329 16.1855C19.3993 16.3965 18.8973 16.502 18.327 16.502C18.0848 16.502 17.8153 16.4668 17.5184 16.3965C17.2255 16.3262 16.9403 16.2129 16.663 16.0566C16.3895 15.9043 16.161 15.7031 15.9774 15.4531L16.6395 14.6211C16.8661 14.8906 17.1161 15.0879 17.3895 15.2129C17.663 15.3379 17.9501 15.4004 18.2509 15.4004C18.5751 15.4004 18.8505 15.3398 19.077 15.2188C19.3075 15.1016 19.4852 14.9277 19.6102 14.6973C19.7352 14.4668 19.7977 14.1855 19.7977 13.8535V9.0957L19.9266 7.66016ZM15.62 10.9004V10.7773C15.62 10.2969 15.6786 9.85938 15.7958 9.46484C15.913 9.06641 16.0809 8.72461 16.2997 8.43945C16.5184 8.15039 16.7841 7.92969 17.0966 7.77734C17.4091 7.62109 17.7626 7.54297 18.1571 7.54297C18.5673 7.54297 18.9169 7.61719 19.2059 7.76562C19.4989 7.91406 19.743 8.12695 19.9384 8.4043C20.1337 8.67773 20.286 9.00586 20.3954 9.38867C20.5087 9.76758 20.5927 10.1895 20.6473 10.6543V11.0469C20.5966 11.5 20.5106 11.9141 20.3895 12.2891C20.2684 12.6641 20.1083 12.9883 19.9091 13.2617C19.7098 13.5352 19.4637 13.7461 19.1708 13.8945C18.8817 14.043 18.5399 14.1172 18.1454 14.1172C17.7587 14.1172 17.4091 14.0371 17.0966 13.877C16.788 13.7168 16.5223 13.4922 16.2997 13.2031C16.0809 12.9141 15.913 12.5742 15.7958 12.1836C15.6786 11.7891 15.62 11.3613 15.62 10.9004ZM17.0321 10.7773V10.9004C17.0321 11.1895 17.0595 11.459 17.1141 11.709C17.1727 11.959 17.2606 12.1797 17.3778 12.3711C17.4989 12.5586 17.6512 12.707 17.8348 12.8164C18.0223 12.9219 18.243 12.9746 18.497 12.9746C18.829 12.9746 19.1005 12.9043 19.3114 12.7637C19.5262 12.623 19.6903 12.4336 19.8036 12.1953C19.9208 11.9531 20.0028 11.6836 20.0497 11.3867V10.3262C20.0262 10.0957 19.9774 9.88086 19.9032 9.68164C19.8329 9.48242 19.7372 9.30859 19.6161 9.16016C19.495 9.00781 19.3427 8.89062 19.1591 8.80859C18.9755 8.72266 18.7587 8.67969 18.5087 8.67969C18.2548 8.67969 18.0341 8.73438 17.8466 8.84375C17.6591 8.95312 17.5048 9.10352 17.3837 9.29492C17.2665 9.48633 17.1786 9.70898 17.12 9.96289C17.0614 10.2168 17.0321 10.4883 17.0321 10.7773ZM24.2068 8.94922V14H22.7947V7.66016H24.1248L24.2068 8.94922ZM23.9783 10.5957L23.4978 10.5898C23.4978 10.1523 23.5525 9.74805 23.6619 9.37695C23.7712 9.00586 23.9314 8.68359 24.1423 8.41016C24.3533 8.13281 24.615 7.91992 24.9275 7.77148C25.2439 7.61914 25.6091 7.54297 26.0232 7.54297C26.3123 7.54297 26.5759 7.58594 26.8142 7.67188C27.0564 7.75391 27.2654 7.88477 27.4412 8.06445C27.6209 8.24414 27.7576 8.47461 27.8513 8.75586C27.949 9.03711 27.9978 9.37695 27.9978 9.77539V14H26.5857V9.89844C26.5857 9.58984 26.5388 9.34766 26.4451 9.17188C26.3552 8.99609 26.2244 8.87109 26.0525 8.79688C25.8845 8.71875 25.6834 8.67969 25.449 8.67969C25.1834 8.67969 24.9568 8.73047 24.7693 8.83203C24.5857 8.93359 24.4353 9.07227 24.3181 9.24805C24.2009 9.42383 24.115 9.62695 24.0603 9.85742C24.0056 10.0879 23.9783 10.334 23.9783 10.5957ZM27.9099 10.2207L27.2478 10.3672C27.2478 9.98438 27.3005 9.62305 27.406 9.2832C27.5154 8.93945 27.6736 8.63867 27.8806 8.38086C28.0916 8.11914 28.3513 7.91406 28.6599 7.76562C28.9685 7.61719 29.322 7.54297 29.7205 7.54297C30.0447 7.54297 30.3337 7.58789 30.5877 7.67773C30.8455 7.76367 31.0642 7.90039 31.2439 8.08789C31.4236 8.27539 31.5603 8.51953 31.6541 8.82031C31.7478 9.11719 31.7947 9.47656 31.7947 9.89844V14H30.3767V9.89258C30.3767 9.57227 30.3298 9.32422 30.2361 9.14844C30.1462 8.97266 30.0173 8.85156 29.8494 8.78516C29.6814 8.71484 29.4802 8.67969 29.2459 8.67969C29.0271 8.67969 28.8337 8.7207 28.6658 8.80273C28.5017 8.88086 28.363 8.99219 28.2498 9.13672C28.1365 9.27734 28.0505 9.43945 27.992 9.62305C27.9373 9.80664 27.9099 10.0059 27.9099 10.2207ZM36.942 12.7285V9.70508C36.942 9.47852 36.901 9.2832 36.819 9.11914C36.737 8.95508 36.612 8.82812 36.444 8.73828C36.2799 8.64844 36.0729 8.60352 35.8229 8.60352C35.5924 8.60352 35.3932 8.64258 35.2252 8.7207C35.0573 8.79883 34.9264 8.9043 34.8327 9.03711C34.7389 9.16992 34.692 9.32031 34.692 9.48828H33.2858C33.2858 9.23828 33.3463 8.99609 33.4674 8.76172C33.5885 8.52734 33.7643 8.31836 33.9948 8.13477C34.2252 7.95117 34.5006 7.80664 34.8209 7.70117C35.1413 7.5957 35.5006 7.54297 35.8991 7.54297C36.3756 7.54297 36.7975 7.62305 37.1647 7.7832C37.5358 7.94336 37.8268 8.18555 38.0377 8.50977C38.2526 8.83008 38.36 9.23242 38.36 9.7168V12.5352C38.36 12.8242 38.3795 13.084 38.4186 13.3145C38.4616 13.541 38.5221 13.7383 38.6002 13.9062V14H37.153C37.0866 13.8477 37.0338 13.6543 36.9948 13.4199C36.9596 13.1816 36.942 12.9512 36.942 12.7285ZM37.1471 10.1445L37.1588 11.0176H36.1452C35.8834 11.0176 35.653 11.043 35.4538 11.0938C35.2545 11.1406 35.0885 11.2109 34.9557 11.3047C34.8229 11.3984 34.7233 11.5117 34.6569 11.6445C34.5905 11.7773 34.5573 11.9277 34.5573 12.0957C34.5573 12.2637 34.5963 12.418 34.6745 12.5586C34.7526 12.6953 34.8659 12.8027 35.0143 12.8809C35.1666 12.959 35.3502 12.998 35.5651 12.998C35.8541 12.998 36.1061 12.9395 36.3209 12.8223C36.5397 12.7012 36.7116 12.5547 36.8366 12.3828C36.9616 12.207 37.028 12.041 37.0358 11.8848L37.4928 12.5117C37.4459 12.6719 37.3659 12.8438 37.2526 13.0273C37.1393 13.2109 36.9909 13.3867 36.8073 13.5547C36.6276 13.7188 36.4108 13.8535 36.1569 13.959C35.9069 14.0645 35.6178 14.1172 35.2897 14.1172C34.8756 14.1172 34.5065 14.0352 34.1823 13.8711C33.858 13.7031 33.6041 13.4785 33.4205 13.1973C33.237 12.9121 33.1452 12.5898 33.1452 12.2305C33.1452 11.8945 33.2077 11.5977 33.3327 11.3398C33.4616 11.0781 33.6491 10.8594 33.8952 10.6836C34.1452 10.5078 34.4498 10.375 34.8092 10.2852C35.1686 10.1914 35.5788 10.1445 36.0397 10.1445H37.1471Z" fill="white"/>
<path d="M45 0H63.3352C64.9921 0 66.3352 1.34315 66.3352 3V17C66.3352 18.6569 64.9921 20 63.3352 20H45V0Z" fill="#1E1E1E"/>
<g clip-path="url(#clip0_11_340)">
<path d="M53.3343 17C54.6223 17 55.6676 15.9547 55.6676 14.6667V12.3333H53.3343C52.0463 12.3333 51.001 13.3787 51.001 14.6667C51.001 15.9547 52.0463 17 53.3343 17Z" fill="#0ACF83"/>
<path d="M51.001 10C51.001 8.712 52.0463 7.66666 53.3343 7.66666H55.6676V12.3333H53.3343C52.0463 12.3333 51.001 11.288 51.001 10Z" fill="#A259FF"/>
<path d="M51.0009 5.33333C51.0009 4.04533 52.0462 3 53.3342 3H55.6675V7.66667H53.3342C52.0462 7.66667 51.0009 6.62133 51.0009 5.33333Z" fill="#F24E1E"/>
<path d="M55.6676 3H58.0009C59.2889 3 60.3343 4.04533 60.3343 5.33333C60.3343 6.62133 59.2889 7.66667 58.0009 7.66667H55.6676V3Z" fill="#FF7262"/>
<path d="M60.3343 10C60.3343 11.288 59.2889 12.3333 58.0009 12.3333C56.7129 12.3333 55.6676 11.288 55.6676 10C55.6676 8.712 56.7129 7.66666 58.0009 7.66666C59.2889 7.66666 60.3343 8.712 60.3343 10Z" fill="#1ABCFE"/>
</g>
<path d="M1.65 0H64.35C65.2613 0 66 1.34315 66 3V17C66 18.6569 65.2613 20 64.35 20H1.65C0.73873 20 0 18.6569 0 17V3C0 1.34315 0.73873 0 1.65 0Z" fill="url(#paint0_linear_11_340)"/>
<defs>
<linearGradient id="paint0_linear_11_340" x1="0" y1="0" x2="0" y2="20" gradientUnits="userSpaceOnUse">
<stop stop-color="#BBBBBB" stop-opacity="0.1"/>
<stop offset="1" stop-opacity="0.1"/>
</linearGradient>
<clipPath id="clip0_11_340">
<rect width="9.3352" height="14" fill="white" transform="translate(51 3)"/>
</clipPath>
</defs>
</svg>
