<svg width="86" height="20" viewBox="0 0 86 20" fill="none" xmlns="http://www.w3.org/2000/svg">
<rect width="86" height="20" rx="3" fill="#555555"/>
<mask id="path-2-inside-1_8_107" fill="white">
<path d="M10.2383 8.66016V15H8.82031V8.66016H10.2383ZM8.72656 6.99609C8.72656 6.78125 8.79688 6.60352 8.9375 6.46289C9.08203 6.31836 9.28125 6.24609 9.53516 6.24609C9.78516 6.24609 9.98242 6.31836 10.127 6.46289C10.2715 6.60352 10.3438 6.78125 10.3438 6.99609C10.3438 7.20703 10.2715 7.38281 10.127 7.52344C9.98242 7.66406 9.78516 7.73438 9.53516 7.73438C9.28125 7.73438 9.08203 7.66406 8.9375 7.52344C8.79688 7.38281 8.72656 7.20703 8.72656 6.99609ZM13.3055 10.0137V15H11.8934V8.66016H13.2235L13.3055 10.0137ZM13.0536 11.5957L12.5966 11.5898C12.6005 11.1406 12.663 10.7285 12.7841 10.3535C12.9091 9.97852 13.0809 9.65625 13.2997 9.38672C13.5223 9.11719 13.788 8.91016 14.0966 8.76562C14.4052 8.61719 14.7489 8.54297 15.1278 8.54297C15.4325 8.54297 15.7079 8.58594 15.954 8.67188C16.204 8.75391 16.4169 8.88867 16.5927 9.07617C16.7723 9.26367 16.9091 9.50781 17.0028 9.80859C17.0966 10.1055 17.1434 10.4707 17.1434 10.9043V15H15.7255V10.8984C15.7255 10.5938 15.6805 10.3535 15.5907 10.1777C15.5048 9.99805 15.3778 9.87109 15.2098 9.79688C15.0458 9.71875 14.8407 9.67969 14.5946 9.67969C14.3524 9.67969 14.1356 9.73047 13.9442 9.83203C13.7528 9.93359 13.5907 10.0723 13.4579 10.248C13.329 10.4238 13.2294 10.627 13.1591 10.8574C13.0887 11.0879 13.0536 11.334 13.0536 11.5957ZM21.6111 8.66016V9.69141H18.0369V8.66016H21.6111ZM19.0681 7.10742H20.4802V13.248C20.4802 13.4434 20.5076 13.5938 20.5623 13.6992C20.6209 13.8008 20.7009 13.8691 20.8025 13.9043C20.9041 13.9395 21.0232 13.957 21.1599 13.957C21.2576 13.957 21.3513 13.9512 21.4412 13.9395C21.531 13.9277 21.6033 13.916 21.658 13.9043L21.6638 14.9824C21.5466 15.0176 21.4099 15.0488 21.2537 15.0762C21.1013 15.1035 20.9255 15.1172 20.7263 15.1172C20.4021 15.1172 20.115 15.0605 19.865 14.9473C19.615 14.8301 19.4197 14.6406 19.2791 14.3789C19.1384 14.1172 19.0681 13.7695 19.0681 13.3359V7.10742ZM25.6159 15.1172C25.1471 15.1172 24.7233 15.041 24.3444 14.8887C23.9694 14.7324 23.6491 14.5156 23.3834 14.2383C23.1217 13.9609 22.9205 13.6348 22.7799 13.2598C22.6393 12.8848 22.569 12.4805 22.569 12.0469V11.8125C22.569 11.3164 22.6412 10.8672 22.7858 10.4648C22.9303 10.0625 23.1315 9.71875 23.3893 9.43359C23.6471 9.14453 23.9518 8.92383 24.3034 8.77148C24.6549 8.61914 25.0358 8.54297 25.4459 8.54297C25.8991 8.54297 26.2955 8.61914 26.6354 8.77148C26.9752 8.92383 27.2565 9.13867 27.4791 9.41602C27.7057 9.68945 27.8737 10.0156 27.983 10.3945C28.0963 10.7734 28.153 11.1914 28.153 11.6484V12.252H23.2545V11.2383H26.7584V11.127C26.7506 10.873 26.6998 10.6348 26.6061 10.4121C26.5162 10.1895 26.3776 10.0098 26.1901 9.87305C26.0026 9.73633 25.7526 9.66797 25.4401 9.66797C25.2057 9.66797 24.9967 9.71875 24.8131 9.82031C24.6334 9.91797 24.483 10.0605 24.362 10.248C24.2409 10.4355 24.1471 10.6621 24.0807 10.9277C24.0182 11.1895 23.987 11.4844 23.987 11.8125V12.0469C23.987 12.3242 24.0241 12.582 24.0983 12.8203C24.1764 13.0547 24.2897 13.2598 24.4381 13.4355C24.5866 13.6113 24.7662 13.75 24.9772 13.8516C25.1881 13.9492 25.4284 13.998 25.6979 13.998C26.0377 13.998 26.3405 13.9297 26.6061 13.793C26.8717 13.6562 27.1022 13.4629 27.2975 13.2129L28.0416 13.9336C27.9049 14.1328 27.7272 14.3242 27.5084 14.5078C27.2897 14.6875 27.0221 14.834 26.7057 14.9473C26.3932 15.0605 26.0299 15.1172 25.6159 15.1172ZM30.7925 9.86719V15H29.3804V8.66016H30.728L30.7925 9.86719ZM32.732 8.61914L32.7202 9.93164C32.6343 9.91602 32.5405 9.9043 32.439 9.89648C32.3413 9.88867 32.2437 9.88477 32.146 9.88477C31.9038 9.88477 31.6909 9.91992 31.5073 9.99023C31.3237 10.0566 31.1695 10.1543 31.0445 10.2832C30.9234 10.4082 30.8296 10.5605 30.7632 10.7402C30.6968 10.9199 30.6577 11.1211 30.646 11.3438L30.3237 11.3672C30.3237 10.9688 30.3628 10.5996 30.4409 10.2598C30.5191 9.91992 30.6362 9.62109 30.7925 9.36328C30.9527 9.10547 31.1519 8.9043 31.3902 8.75977C31.6323 8.61523 31.9116 8.54297 32.228 8.54297C32.314 8.54297 32.4058 8.55078 32.5034 8.56641C32.605 8.58203 32.6812 8.59961 32.732 8.61914ZM35.7523 15H34.3402V8.05078C34.3402 7.57812 34.4281 7.18164 34.6039 6.86133C34.7836 6.53711 35.0395 6.29297 35.3715 6.12891C35.7035 5.96094 36.0961 5.87695 36.5492 5.87695C36.6898 5.87695 36.8285 5.88672 36.9652 5.90625C37.102 5.92188 37.2348 5.94727 37.3637 5.98242L37.3285 7.07227C37.2504 7.05273 37.1645 7.03906 37.0707 7.03125C36.9809 7.02344 36.8832 7.01953 36.7777 7.01953C36.5629 7.01953 36.3773 7.06055 36.2211 7.14258C36.0688 7.2207 35.9516 7.33594 35.8695 7.48828C35.7914 7.64062 35.7523 7.82812 35.7523 8.05078V15ZM37.059 8.66016V9.69141H33.3676V8.66016H37.059ZM41.7786 13.7285V10.7051C41.7786 10.4785 41.7376 10.2832 41.6555 10.1191C41.5735 9.95508 41.4485 9.82812 41.2805 9.73828C41.1165 9.64844 40.9095 9.60352 40.6595 9.60352C40.429 9.60352 40.2298 9.64258 40.0618 9.7207C39.8938 9.79883 39.763 9.9043 39.6692 10.0371C39.5755 10.1699 39.5286 10.3203 39.5286 10.4883H38.1223C38.1223 10.2383 38.1829 9.99609 38.304 9.76172C38.4251 9.52734 38.6009 9.31836 38.8313 9.13477C39.0618 8.95117 39.3372 8.80664 39.6575 8.70117C39.9778 8.5957 40.3372 8.54297 40.7356 8.54297C41.2122 8.54297 41.6341 8.62305 42.0012 8.7832C42.3723 8.94336 42.6634 9.18555 42.8743 9.50977C43.0891 9.83008 43.1966 10.2324 43.1966 10.7168V13.5352C43.1966 13.8242 43.2161 14.084 43.2552 14.3145C43.2981 14.541 43.3587 14.7383 43.4368 14.9062V15H41.9895C41.9231 14.8477 41.8704 14.6543 41.8313 14.4199C41.7962 14.1816 41.7786 13.9512 41.7786 13.7285ZM41.9837 11.1445L41.9954 12.0176H40.9817C40.72 12.0176 40.4895 12.043 40.2903 12.0938C40.0911 12.1406 39.9251 12.2109 39.7923 12.3047C39.6595 12.3984 39.5598 12.5117 39.4934 12.6445C39.427 12.7773 39.3938 12.9277 39.3938 13.0957C39.3938 13.2637 39.4329 13.418 39.511 13.5586C39.5891 13.6953 39.7024 13.8027 39.8509 13.8809C40.0032 13.959 40.1868 13.998 40.4016 13.998C40.6907 13.998 40.9427 13.9395 41.1575 13.8223C41.3762 13.7012 41.5481 13.5547 41.6731 13.3828C41.7981 13.207 41.8645 13.041 41.8723 12.8848L42.3294 13.5117C42.2825 13.6719 42.2024 13.8438 42.0891 14.0273C41.9759 14.2109 41.8274 14.3867 41.6438 14.5547C41.4641 14.7188 41.2473 14.8535 40.9934 14.959C40.7434 15.0645 40.4544 15.1172 40.1262 15.1172C39.7122 15.1172 39.343 15.0352 39.0188 14.8711C38.6946 14.7031 38.4407 14.4785 38.2571 14.1973C38.0735 13.9121 37.9817 13.5898 37.9817 13.2305C37.9817 12.8945 38.0442 12.5977 38.1692 12.3398C38.2981 12.0781 38.4856 11.8594 38.7317 11.6836C38.9817 11.5078 39.2864 11.375 39.6458 11.2852C40.0052 11.1914 40.4153 11.1445 40.8762 11.1445H41.9837ZM47.383 13.9922C47.6134 13.9922 47.8205 13.9473 48.0041 13.8574C48.1916 13.7637 48.342 13.6348 48.4552 13.4707C48.5724 13.3066 48.6369 13.1172 48.6486 12.9023H49.9787C49.9709 13.3125 49.8498 13.6855 49.6154 14.0215C49.381 14.3574 49.0705 14.625 48.6838 14.8242C48.297 15.0195 47.8693 15.1172 47.4005 15.1172C46.9162 15.1172 46.4943 15.0352 46.1349 14.8711C45.7755 14.7031 45.4767 14.4727 45.2384 14.1797C45.0002 13.8867 44.8205 13.5488 44.6994 13.166C44.5822 12.7832 44.5236 12.373 44.5236 11.9355V11.7305C44.5236 11.293 44.5822 10.8828 44.6994 10.5C44.8205 10.1133 45.0002 9.77344 45.2384 9.48047C45.4767 9.1875 45.7755 8.95898 46.1349 8.79492C46.4943 8.62695 46.9142 8.54297 47.3947 8.54297C47.9025 8.54297 48.3478 8.64453 48.7306 8.84766C49.1134 9.04688 49.4142 9.32617 49.633 9.68555C49.8556 10.041 49.9709 10.4551 49.9787 10.9277H48.6486C48.6369 10.6934 48.5783 10.4824 48.4728 10.2949C48.3713 10.1035 48.2267 9.95117 48.0392 9.83789C47.8556 9.72461 47.6349 9.66797 47.3771 9.66797C47.092 9.66797 46.8556 9.72656 46.6681 9.84375C46.4806 9.95703 46.3341 10.1133 46.2287 10.3125C46.1232 10.5078 46.047 10.7285 46.0002 10.9746C45.9572 11.2168 45.9357 11.4688 45.9357 11.7305V11.9355C45.9357 12.1973 45.9572 12.4512 46.0002 12.6973C46.0431 12.9434 46.1173 13.1641 46.2228 13.3594C46.3322 13.5508 46.4806 13.7051 46.6681 13.8223C46.8556 13.9355 47.0939 13.9922 47.383 13.9922ZM53.9776 15.1172C53.5088 15.1172 53.085 15.041 52.7061 14.8887C52.3311 14.7324 52.0108 14.5156 51.7452 14.2383C51.4834 13.9609 51.2823 13.6348 51.1416 13.2598C51.001 12.8848 50.9307 12.4805 50.9307 12.0469V11.8125C50.9307 11.3164 51.003 10.8672 51.1475 10.4648C51.292 10.0625 51.4932 9.71875 51.751 9.43359C52.0088 9.14453 52.3135 8.92383 52.6651 8.77148C53.0166 8.61914 53.3975 8.54297 53.8077 8.54297C54.2608 8.54297 54.6573 8.61914 54.9971 8.77148C55.337 8.92383 55.6182 9.13867 55.8409 9.41602C56.0674 9.68945 56.2354 10.0156 56.3448 10.3945C56.458 10.7734 56.5147 11.1914 56.5147 11.6484V12.252H51.6162V11.2383H55.1202V11.127C55.1123 10.873 55.0616 10.6348 54.9678 10.4121C54.878 10.1895 54.7393 10.0098 54.5518 9.87305C54.3643 9.73633 54.1143 9.66797 53.8018 9.66797C53.5674 9.66797 53.3584 9.71875 53.1748 9.82031C52.9952 9.91797 52.8448 10.0605 52.7237 10.248C52.6026 10.4355 52.5088 10.6621 52.4424 10.9277C52.3799 11.1895 52.3487 11.4844 52.3487 11.8125V12.0469C52.3487 12.3242 52.3858 12.582 52.46 12.8203C52.5381 13.0547 52.6514 13.2598 52.7998 13.4355C52.9483 13.6113 53.128 13.75 53.3389 13.8516C53.5498 13.9492 53.7901 13.998 54.0596 13.998C54.3995 13.998 54.7022 13.9297 54.9678 13.793C55.2334 13.6562 55.4639 13.4629 55.6592 13.2129L56.4034 13.9336C56.2666 14.1328 56.0889 14.3242 55.8702 14.5078C55.6514 14.6875 55.3838 14.834 55.0674 14.9473C54.7549 15.0605 54.3916 15.1172 53.9776 15.1172Z"/>
</mask>
<path d="M10.2383 8.66016V15H8.82031V8.66016H10.2383ZM8.72656 6.99609C8.72656 6.78125 8.79688 6.60352 8.9375 6.46289C9.08203 6.31836 9.28125 6.24609 9.53516 6.24609C9.78516 6.24609 9.98242 6.31836 10.127 6.46289C10.2715 6.60352 10.3438 6.78125 10.3438 6.99609C10.3438 7.20703 10.2715 7.38281 10.127 7.52344C9.98242 7.66406 9.78516 7.73438 9.53516 7.73438C9.28125 7.73438 9.08203 7.66406 8.9375 7.52344C8.79688 7.38281 8.72656 7.20703 8.72656 6.99609ZM13.3055 10.0137V15H11.8934V8.66016H13.2235L13.3055 10.0137ZM13.0536 11.5957L12.5966 11.5898C12.6005 11.1406 12.663 10.7285 12.7841 10.3535C12.9091 9.97852 13.0809 9.65625 13.2997 9.38672C13.5223 9.11719 13.788 8.91016 14.0966 8.76562C14.4052 8.61719 14.7489 8.54297 15.1278 8.54297C15.4325 8.54297 15.7079 8.58594 15.954 8.67188C16.204 8.75391 16.4169 8.88867 16.5927 9.07617C16.7723 9.26367 16.9091 9.50781 17.0028 9.80859C17.0966 10.1055 17.1434 10.4707 17.1434 10.9043V15H15.7255V10.8984C15.7255 10.5938 15.6805 10.3535 15.5907 10.1777C15.5048 9.99805 15.3778 9.87109 15.2098 9.79688C15.0458 9.71875 14.8407 9.67969 14.5946 9.67969C14.3524 9.67969 14.1356 9.73047 13.9442 9.83203C13.7528 9.93359 13.5907 10.0723 13.4579 10.248C13.329 10.4238 13.2294 10.627 13.1591 10.8574C13.0887 11.0879 13.0536 11.334 13.0536 11.5957ZM21.6111 8.66016V9.69141H18.0369V8.66016H21.6111ZM19.0681 7.10742H20.4802V13.248C20.4802 13.4434 20.5076 13.5938 20.5623 13.6992C20.6209 13.8008 20.7009 13.8691 20.8025 13.9043C20.9041 13.9395 21.0232 13.957 21.1599 13.957C21.2576 13.957 21.3513 13.9512 21.4412 13.9395C21.531 13.9277 21.6033 13.916 21.658 13.9043L21.6638 14.9824C21.5466 15.0176 21.4099 15.0488 21.2537 15.0762C21.1013 15.1035 20.9255 15.1172 20.7263 15.1172C20.4021 15.1172 20.115 15.0605 19.865 14.9473C19.615 14.8301 19.4197 14.6406 19.2791 14.3789C19.1384 14.1172 19.0681 13.7695 19.0681 13.3359V7.10742ZM25.6159 15.1172C25.1471 15.1172 24.7233 15.041 24.3444 14.8887C23.9694 14.7324 23.6491 14.5156 23.3834 14.2383C23.1217 13.9609 22.9205 13.6348 22.7799 13.2598C22.6393 12.8848 22.569 12.4805 22.569 12.0469V11.8125C22.569 11.3164 22.6412 10.8672 22.7858 10.4648C22.9303 10.0625 23.1315 9.71875 23.3893 9.43359C23.6471 9.14453 23.9518 8.92383 24.3034 8.77148C24.6549 8.61914 25.0358 8.54297 25.4459 8.54297C25.8991 8.54297 26.2955 8.61914 26.6354 8.77148C26.9752 8.92383 27.2565 9.13867 27.4791 9.41602C27.7057 9.68945 27.8737 10.0156 27.983 10.3945C28.0963 10.7734 28.153 11.1914 28.153 11.6484V12.252H23.2545V11.2383H26.7584V11.127C26.7506 10.873 26.6998 10.6348 26.6061 10.4121C26.5162 10.1895 26.3776 10.0098 26.1901 9.87305C26.0026 9.73633 25.7526 9.66797 25.4401 9.66797C25.2057 9.66797 24.9967 9.71875 24.8131 9.82031C24.6334 9.91797 24.483 10.0605 24.362 10.248C24.2409 10.4355 24.1471 10.6621 24.0807 10.9277C24.0182 11.1895 23.987 11.4844 23.987 11.8125V12.0469C23.987 12.3242 24.0241 12.582 24.0983 12.8203C24.1764 13.0547 24.2897 13.2598 24.4381 13.4355C24.5866 13.6113 24.7662 13.75 24.9772 13.8516C25.1881 13.9492 25.4284 13.998 25.6979 13.998C26.0377 13.998 26.3405 13.9297 26.6061 13.793C26.8717 13.6562 27.1022 13.4629 27.2975 13.2129L28.0416 13.9336C27.9049 14.1328 27.7272 14.3242 27.5084 14.5078C27.2897 14.6875 27.0221 14.834 26.7057 14.9473C26.3932 15.0605 26.0299 15.1172 25.6159 15.1172ZM30.7925 9.86719V15H29.3804V8.66016H30.728L30.7925 9.86719ZM32.732 8.61914L32.7202 9.93164C32.6343 9.91602 32.5405 9.9043 32.439 9.89648C32.3413 9.88867 32.2437 9.88477 32.146 9.88477C31.9038 9.88477 31.6909 9.91992 31.5073 9.99023C31.3237 10.0566 31.1695 10.1543 31.0445 10.2832C30.9234 10.4082 30.8296 10.5605 30.7632 10.7402C30.6968 10.9199 30.6577 11.1211 30.646 11.3438L30.3237 11.3672C30.3237 10.9688 30.3628 10.5996 30.4409 10.2598C30.5191 9.91992 30.6362 9.62109 30.7925 9.36328C30.9527 9.10547 31.1519 8.9043 31.3902 8.75977C31.6323 8.61523 31.9116 8.54297 32.228 8.54297C32.314 8.54297 32.4058 8.55078 32.5034 8.56641C32.605 8.58203 32.6812 8.59961 32.732 8.61914ZM35.7523 15H34.3402V8.05078C34.3402 7.57812 34.4281 7.18164 34.6039 6.86133C34.7836 6.53711 35.0395 6.29297 35.3715 6.12891C35.7035 5.96094 36.0961 5.87695 36.5492 5.87695C36.6898 5.87695 36.8285 5.88672 36.9652 5.90625C37.102 5.92188 37.2348 5.94727 37.3637 5.98242L37.3285 7.07227C37.2504 7.05273 37.1645 7.03906 37.0707 7.03125C36.9809 7.02344 36.8832 7.01953 36.7777 7.01953C36.5629 7.01953 36.3773 7.06055 36.2211 7.14258C36.0688 7.2207 35.9516 7.33594 35.8695 7.48828C35.7914 7.64062 35.7523 7.82812 35.7523 8.05078V15ZM37.059 8.66016V9.69141H33.3676V8.66016H37.059ZM41.7786 13.7285V10.7051C41.7786 10.4785 41.7376 10.2832 41.6555 10.1191C41.5735 9.95508 41.4485 9.82812 41.2805 9.73828C41.1165 9.64844 40.9095 9.60352 40.6595 9.60352C40.429 9.60352 40.2298 9.64258 40.0618 9.7207C39.8938 9.79883 39.763 9.9043 39.6692 10.0371C39.5755 10.1699 39.5286 10.3203 39.5286 10.4883H38.1223C38.1223 10.2383 38.1829 9.99609 38.304 9.76172C38.4251 9.52734 38.6009 9.31836 38.8313 9.13477C39.0618 8.95117 39.3372 8.80664 39.6575 8.70117C39.9778 8.5957 40.3372 8.54297 40.7356 8.54297C41.2122 8.54297 41.6341 8.62305 42.0012 8.7832C42.3723 8.94336 42.6634 9.18555 42.8743 9.50977C43.0891 9.83008 43.1966 10.2324 43.1966 10.7168V13.5352C43.1966 13.8242 43.2161 14.084 43.2552 14.3145C43.2981 14.541 43.3587 14.7383 43.4368 14.9062V15H41.9895C41.9231 14.8477 41.8704 14.6543 41.8313 14.4199C41.7962 14.1816 41.7786 13.9512 41.7786 13.7285ZM41.9837 11.1445L41.9954 12.0176H40.9817C40.72 12.0176 40.4895 12.043 40.2903 12.0938C40.0911 12.1406 39.9251 12.2109 39.7923 12.3047C39.6595 12.3984 39.5598 12.5117 39.4934 12.6445C39.427 12.7773 39.3938 12.9277 39.3938 13.0957C39.3938 13.2637 39.4329 13.418 39.511 13.5586C39.5891 13.6953 39.7024 13.8027 39.8509 13.8809C40.0032 13.959 40.1868 13.998 40.4016 13.998C40.6907 13.998 40.9427 13.9395 41.1575 13.8223C41.3762 13.7012 41.5481 13.5547 41.6731 13.3828C41.7981 13.207 41.8645 13.041 41.8723 12.8848L42.3294 13.5117C42.2825 13.6719 42.2024 13.8438 42.0891 14.0273C41.9759 14.2109 41.8274 14.3867 41.6438 14.5547C41.4641 14.7188 41.2473 14.8535 40.9934 14.959C40.7434 15.0645 40.4544 15.1172 40.1262 15.1172C39.7122 15.1172 39.343 15.0352 39.0188 14.8711C38.6946 14.7031 38.4407 14.4785 38.2571 14.1973C38.0735 13.9121 37.9817 13.5898 37.9817 13.2305C37.9817 12.8945 38.0442 12.5977 38.1692 12.3398C38.2981 12.0781 38.4856 11.8594 38.7317 11.6836C38.9817 11.5078 39.2864 11.375 39.6458 11.2852C40.0052 11.1914 40.4153 11.1445 40.8762 11.1445H41.9837ZM47.383 13.9922C47.6134 13.9922 47.8205 13.9473 48.0041 13.8574C48.1916 13.7637 48.342 13.6348 48.4552 13.4707C48.5724 13.3066 48.6369 13.1172 48.6486 12.9023H49.9787C49.9709 13.3125 49.8498 13.6855 49.6154 14.0215C49.381 14.3574 49.0705 14.625 48.6838 14.8242C48.297 15.0195 47.8693 15.1172 47.4005 15.1172C46.9162 15.1172 46.4943 15.0352 46.1349 14.8711C45.7755 14.7031 45.4767 14.4727 45.2384 14.1797C45.0002 13.8867 44.8205 13.5488 44.6994 13.166C44.5822 12.7832 44.5236 12.373 44.5236 11.9355V11.7305C44.5236 11.293 44.5822 10.8828 44.6994 10.5C44.8205 10.1133 45.0002 9.77344 45.2384 9.48047C45.4767 9.1875 45.7755 8.95898 46.1349 8.79492C46.4943 8.62695 46.9142 8.54297 47.3947 8.54297C47.9025 8.54297 48.3478 8.64453 48.7306 8.84766C49.1134 9.04688 49.4142 9.32617 49.633 9.68555C49.8556 10.041 49.9709 10.4551 49.9787 10.9277H48.6486C48.6369 10.6934 48.5783 10.4824 48.4728 10.2949C48.3713 10.1035 48.2267 9.95117 48.0392 9.83789C47.8556 9.72461 47.6349 9.66797 47.3771 9.66797C47.092 9.66797 46.8556 9.72656 46.6681 9.84375C46.4806 9.95703 46.3341 10.1133 46.2287 10.3125C46.1232 10.5078 46.047 10.7285 46.0002 10.9746C45.9572 11.2168 45.9357 11.4688 45.9357 11.7305V11.9355C45.9357 12.1973 45.9572 12.4512 46.0002 12.6973C46.0431 12.9434 46.1173 13.1641 46.2228 13.3594C46.3322 13.5508 46.4806 13.7051 46.6681 13.8223C46.8556 13.9355 47.0939 13.9922 47.383 13.9922ZM53.9776 15.1172C53.5088 15.1172 53.085 15.041 52.7061 14.8887C52.3311 14.7324 52.0108 14.5156 51.7452 14.2383C51.4834 13.9609 51.2823 13.6348 51.1416 13.2598C51.001 12.8848 50.9307 12.4805 50.9307 12.0469V11.8125C50.9307 11.3164 51.003 10.8672 51.1475 10.4648C51.292 10.0625 51.4932 9.71875 51.751 9.43359C52.0088 9.14453 52.3135 8.92383 52.6651 8.77148C53.0166 8.61914 53.3975 8.54297 53.8077 8.54297C54.2608 8.54297 54.6573 8.61914 54.9971 8.77148C55.337 8.92383 55.6182 9.13867 55.8409 9.41602C56.0674 9.68945 56.2354 10.0156 56.3448 10.3945C56.458 10.7734 56.5147 11.1914 56.5147 11.6484V12.252H51.6162V11.2383H55.1202V11.127C55.1123 10.873 55.0616 10.6348 54.9678 10.4121C54.878 10.1895 54.7393 10.0098 54.5518 9.87305C54.3643 9.73633 54.1143 9.66797 53.8018 9.66797C53.5674 9.66797 53.3584 9.71875 53.1748 9.82031C52.9952 9.91797 52.8448 10.0605 52.7237 10.248C52.6026 10.4355 52.5088 10.6621 52.4424 10.9277C52.3799 11.1895 52.3487 11.4844 52.3487 11.8125V12.0469C52.3487 12.3242 52.3858 12.582 52.46 12.8203C52.5381 13.0547 52.6514 13.2598 52.7998 13.4355C52.9483 13.6113 53.128 13.75 53.3389 13.8516C53.5498 13.9492 53.7901 13.998 54.0596 13.998C54.3995 13.998 54.7022 13.9297 54.9678 13.793C55.2334 13.6562 55.4639 13.4629 55.6592 13.2129L56.4034 13.9336C56.2666 14.1328 56.0889 14.3242 55.8702 14.5078C55.6514 14.6875 55.3838 14.834 55.0674 14.9473C54.7549 15.0605 54.3916 15.1172 53.9776 15.1172Z" fill="#010101" fill-opacity="0.3"/>
<path d="M10.2383 8.66016H10.4383V8.46016H10.2383V8.66016ZM10.2383 15V15.2H10.4383V15H10.2383ZM8.82031 15H8.62031V15.2H8.82031V15ZM8.82031 8.66016V8.46016H8.62031V8.66016H8.82031ZM10.127 6.46289L9.98552 6.60433L9.98748 6.60624L10.127 6.46289ZM8.9375 7.52344L8.79607 7.66487L8.79803 7.66678L8.9375 7.52344ZM10.0383 8.66016V15H10.4383V8.66016H10.0383ZM10.2383 14.8H8.82031V15.2H10.2383V14.8ZM9.02031 15V8.66016H8.62031V15H9.02031ZM8.82031 8.86016H10.2383V8.46016H8.82031V8.86016ZM8.92656 6.99609C8.92656 6.82959 8.979 6.70423 9.07892 6.60431L8.79608 6.32147C8.61475 6.5028 8.52656 6.73291 8.52656 6.99609H8.92656ZM9.07892 6.60431C9.17731 6.50592 9.32069 6.44609 9.53516 6.44609V6.04609C9.24181 6.04609 8.98675 6.1308 8.79608 6.32147L9.07892 6.60431ZM9.53516 6.44609C9.7447 6.44609 9.88656 6.50534 9.98553 6.60431L10.2684 6.32147C10.0783 6.13138 9.82561 6.04609 9.53516 6.04609V6.44609ZM9.98748 6.60624C10.0906 6.70655 10.1437 6.83131 10.1437 6.99609H10.5438C10.5438 6.73119 10.4524 6.50048 10.2664 6.31955L9.98748 6.60624ZM10.1437 6.99609C10.1437 7.15582 10.0914 7.27902 9.98748 7.38009L10.2664 7.66678C10.4516 7.48661 10.5438 7.25824 10.5438 6.99609H10.1437ZM9.98748 7.38009C9.88877 7.47614 9.74623 7.53437 9.53516 7.53437V7.93438C9.82408 7.93438 10.0761 7.85199 10.2664 7.66678L9.98748 7.38009ZM9.53516 7.53437C9.31918 7.53437 9.17511 7.47558 9.07697 7.38009L8.79803 7.66678C8.98895 7.85254 9.24332 7.93438 9.53516 7.93438V7.53437ZM9.07892 7.38202C8.97826 7.28135 8.92656 7.15756 8.92656 6.99609H8.52656C8.52656 7.2565 8.61549 7.48427 8.79608 7.66486L9.07892 7.38202ZM13.3055 10.0137H13.5059L13.5052 10.0016L13.3055 10.0137ZM13.3055 15V15.2H13.5055V15H13.3055ZM11.8934 15H11.6934V15.2H11.8934V15ZM11.8934 8.66016V8.46016H11.6934V8.66016H11.8934ZM13.2235 8.66016L13.4231 8.64806L13.4118 8.46016H13.2235V8.66016ZM13.0536 11.5957L13.051 11.7957L13.2536 11.7983V11.5957H13.0536ZM12.5966 11.5898L12.3966 11.5881L12.3948 11.7873L12.594 11.7898L12.5966 11.5898ZM12.7841 10.3535L12.5943 10.2903L12.5937 10.2921L12.7841 10.3535ZM13.2997 9.38672L13.1455 9.25934L13.1444 9.26068L13.2997 9.38672ZM14.0966 8.76562L14.1814 8.94675L14.1833 8.94586L14.0966 8.76562ZM15.954 8.67188L15.888 8.86073L15.8916 8.86191L15.954 8.67188ZM16.5927 9.07617L16.4467 9.21297L16.4483 9.21455L16.5927 9.07617ZM17.0028 9.80859L16.8119 9.86811L16.8121 9.86882L17.0028 9.80859ZM17.1434 15V15.2H17.3434V15H17.1434ZM15.7255 15H15.5255V15.2H15.7255V15ZM15.5907 10.1777L15.4102 10.2641L15.4126 10.2688L15.5907 10.1777ZM15.2098 9.79688L15.1238 9.97752L15.129 9.97981L15.2098 9.79688ZM13.4579 10.248L13.2983 10.1275L13.2966 10.1298L13.4579 10.248ZM13.1055 10.0137V15H13.5055V10.0137H13.1055ZM13.3055 14.8H11.8934V15.2H13.3055V14.8ZM12.0934 15V8.66016H11.6934V15H12.0934ZM11.8934 8.86016H13.2235V8.46016H11.8934V8.86016ZM13.0239 8.67226L13.1059 10.0258L13.5052 10.0016L13.4231 8.64806L13.0239 8.67226ZM13.0562 11.3957L12.5991 11.3899L12.594 11.7898L13.051 11.7957L13.0562 11.3957ZM12.7966 11.5916C12.8003 11.1599 12.8603 10.7682 12.9744 10.415L12.5937 10.2921C12.4656 10.6888 12.4006 11.1214 12.3966 11.5881L12.7966 11.5916ZM12.9738 10.4168C13.0922 10.0615 13.2533 9.76119 13.455 9.51275L13.1444 9.26068C12.9085 9.55131 12.7259 9.89557 12.5943 10.2903L12.9738 10.4168ZM13.4539 9.5141C13.6582 9.26678 13.9003 9.07839 14.1814 8.94674L14.0117 8.58451C13.6756 8.74193 13.3865 8.96759 13.1455 9.25934L13.4539 9.5141ZM14.1833 8.94586C14.462 8.81176 14.7757 8.74297 15.1278 8.74297V8.34297C14.7221 8.34297 14.3483 8.42261 14.0099 8.58539L14.1833 8.94586ZM15.1278 8.74297C15.4138 8.74297 15.6664 8.78329 15.888 8.86069L16.0199 8.48306C15.7494 8.38859 15.4512 8.34297 15.1278 8.34297V8.74297ZM15.8916 8.86191C16.1105 8.93374 16.2945 9.05053 16.4467 9.21296L16.7386 8.93938C16.5393 8.72681 16.2974 8.57408 16.0163 8.48184L15.8916 8.86191ZM16.4483 9.21455C16.6025 9.37545 16.7254 9.59065 16.8119 9.86811L17.1938 9.74908C17.0927 9.42497 16.9422 9.15189 16.7371 8.93779L16.4483 9.21455ZM16.8121 9.86882C16.8978 10.1402 16.9434 10.4838 16.9434 10.9043H17.3434C17.3434 10.4577 17.2953 10.0707 17.1935 9.74837L16.8121 9.86882ZM16.9434 10.9043V15H17.3434V10.9043H16.9434ZM17.1434 14.8H15.7255V15.2H17.1434V14.8ZM15.9255 15V10.8984H15.5255V15H15.9255ZM15.9255 10.8984C15.9255 10.5777 15.8788 10.3019 15.7688 10.0867L15.4126 10.2688C15.4823 10.4052 15.5255 10.6098 15.5255 10.8984H15.9255ZM15.7711 10.0914C15.6665 9.87262 15.5061 9.70914 15.2907 9.61394L15.129 9.97981C15.2495 10.033 15.3431 10.1235 15.4103 10.264L15.7711 10.0914ZM15.2958 9.6163C15.0972 9.52169 14.8605 9.47969 14.5946 9.47969V9.87969C14.8209 9.87969 14.9944 9.91581 15.1239 9.97745L15.2958 9.6163ZM14.5946 9.47969C14.3236 9.47969 14.074 9.53675 13.8505 9.65536L14.038 10.0087C14.1972 9.92419 14.3812 9.87969 14.5946 9.87969V9.47969ZM13.8505 9.65536C13.6329 9.77083 13.4484 9.92882 13.2983 10.1275L13.6175 10.3686C13.733 10.2157 13.8728 10.0964 14.038 10.0087L13.8505 9.65536ZM13.2966 10.1298C13.1531 10.3255 13.044 10.5493 12.9678 10.7991L13.3504 10.9158C13.4148 10.7046 13.5049 10.5222 13.6192 10.3663L13.2966 10.1298ZM12.9678 10.7991C12.8912 11.05 12.8536 11.3159 12.8536 11.5957H13.2536C13.2536 11.3521 13.2863 11.1258 13.3504 10.9158L12.9678 10.7991ZM21.6111 8.66016H21.8111V8.46016H21.6111V8.66016ZM21.6111 9.69141V9.89141H21.8111V9.69141H21.6111ZM18.0369 9.69141H17.8369V9.89141H18.0369V9.69141ZM18.0369 8.66016V8.46016H17.8369V8.66016H18.0369ZM19.0681 7.10742V6.90742H18.8681V7.10742H19.0681ZM20.4802 7.10742H20.6802V6.90742H20.4802V7.10742ZM20.5623 13.6992L20.3845 13.7914L20.389 13.7992L20.5623 13.6992ZM21.658 13.9043L21.858 13.9032L21.8566 13.6572L21.6161 13.7087L21.658 13.9043ZM21.6638 14.9824L21.7213 15.174L21.8646 15.131L21.8638 14.9813L21.6638 14.9824ZM21.2537 15.0762L21.2192 14.8792L21.2183 14.8793L21.2537 15.0762ZM19.865 14.9473L19.7801 15.1284L19.7825 15.1294L19.865 14.9473ZM21.4111 8.66016V9.69141H21.8111V8.66016H21.4111ZM21.6111 9.49141H18.0369V9.89141H21.6111V9.49141ZM18.2369 9.69141V8.66016H17.8369V9.69141H18.2369ZM18.0369 8.86016H21.6111V8.46016H18.0369V8.86016ZM19.0681 7.30742H20.4802V6.90742H19.0681V7.30742ZM20.2802 7.10742V13.248H20.6802V7.10742H20.2802ZM20.2802 13.248C20.2802 13.4571 20.3087 13.6447 20.3847 13.7913L20.7398 13.6072C20.7065 13.5428 20.6802 13.4296 20.6802 13.248H20.2802ZM20.389 13.7992C20.4693 13.9383 20.5858 14.0409 20.7371 14.0933L20.8679 13.7153C20.8161 13.6974 20.7724 13.6632 20.7355 13.5993L20.389 13.7992ZM20.7371 14.0933C20.8645 14.1374 21.0067 14.157 21.1599 14.157V13.757C21.0397 13.757 20.9436 13.7415 20.8679 13.7153L20.7371 14.0933ZM21.1599 14.157C21.2656 14.157 21.368 14.1507 21.467 14.1378L21.4153 13.7411C21.3347 13.7517 21.2496 13.757 21.1599 13.757V14.157ZM21.467 14.1378C21.5594 14.1257 21.6377 14.1132 21.6999 14.0999L21.6161 13.7087C21.5689 13.7188 21.5026 13.7297 21.4153 13.7411L21.467 14.1378ZM21.458 13.9054L21.4638 14.9835L21.8638 14.9813L21.858 13.9032L21.458 13.9054ZM21.6064 14.7909C21.4986 14.8232 21.3698 14.8528 21.2192 14.8792L21.2881 15.2732C21.45 15.2448 21.5947 15.212 21.7213 15.174L21.6064 14.7909ZM21.2183 14.8793C21.0804 14.9041 20.9169 14.9172 20.7263 14.9172V15.3172C20.9342 15.3172 21.1222 15.303 21.289 15.273L21.2183 14.8793ZM20.7263 14.9172C20.4255 14.9172 20.1673 14.8647 19.9475 14.7651L19.7825 15.1294C20.0627 15.2564 20.3787 15.3172 20.7263 15.3172V14.9172ZM19.9499 14.7662C19.7418 14.6687 19.5772 14.5111 19.4552 14.2842L19.1029 14.4736C19.2622 14.7701 19.4882 14.9915 19.7801 15.1284L19.9499 14.7662ZM19.4552 14.2842C19.3358 14.0619 19.2681 13.7506 19.2681 13.3359H18.8681C18.8681 13.7885 18.9411 14.1724 19.1029 14.4736L19.4552 14.2842ZM19.2681 13.3359V7.10742H18.8681V13.3359H19.2681ZM24.3444 14.8887L24.2674 15.0733L24.2698 15.0742L24.3444 14.8887ZM23.3834 14.2383L23.238 14.3755L23.239 14.3766L23.3834 14.2383ZM23.3893 9.43359L23.5377 9.56773L23.5386 9.56672L23.3893 9.43359ZM27.4791 9.41602L27.3232 9.54124L27.3251 9.54362L27.4791 9.41602ZM27.983 10.3945L27.7909 10.45L27.7914 10.4518L27.983 10.3945ZM28.153 12.252V12.452H28.353V12.252H28.153ZM23.2545 12.252H23.0545V12.452H23.2545V12.252ZM23.2545 11.2383V11.0383H23.0545V11.2383H23.2545ZM26.7584 11.2383V11.4383H26.9584V11.2383H26.7584ZM26.7584 11.127H26.9585L26.9583 11.1208L26.7584 11.127ZM26.6061 10.4121L26.4206 10.487L26.4218 10.4897L26.6061 10.4121ZM24.8131 9.82031L24.9086 9.99604L24.9099 9.99532L24.8131 9.82031ZM24.0807 10.9277L23.8867 10.8792L23.8862 10.8813L24.0807 10.9277ZM24.0983 12.8203L23.9073 12.8798L23.9085 12.8836L24.0983 12.8203ZM24.9772 13.8516L24.8904 14.0318L24.8932 14.0331L24.9772 13.8516ZM27.2975 13.2129L27.4366 13.0692L27.2768 12.9145L27.1399 13.0898L27.2975 13.2129ZM28.0416 13.9336L28.2065 14.0468L28.3021 13.9075L28.1808 13.7899L28.0416 13.9336ZM27.5084 14.5078L27.6354 14.6624L27.637 14.661L27.5084 14.5078ZM26.7057 14.9473L26.6383 14.759L26.6375 14.7592L26.7057 14.9473ZM25.6159 14.9172C25.1689 14.9172 24.7709 14.8446 24.419 14.7031L24.2698 15.0742C24.6756 15.2374 25.1253 15.3172 25.6159 15.3172V14.9172ZM24.4213 14.7041C24.0703 14.5578 23.7733 14.3562 23.5279 14.0999L23.239 14.3766C23.5248 14.675 23.8685 14.9071 24.2675 15.0733L24.4213 14.7041ZM23.5289 14.101C23.2863 13.844 23.099 13.5409 22.9672 13.1895L22.5927 13.33C22.7421 13.7286 22.9571 14.0779 23.238 14.3755L23.5289 14.101ZM22.9672 13.1895C22.8357 12.8388 22.769 12.4585 22.769 12.0469H22.369C22.369 12.5025 22.4429 12.9307 22.5927 13.33L22.9672 13.1895ZM22.769 12.0469V11.8125H22.369V12.0469H22.769ZM22.769 11.8125C22.769 11.3358 22.8384 10.9099 22.974 10.5325L22.5976 10.3972C22.4441 10.8244 22.369 11.297 22.369 11.8125H22.769ZM22.974 10.5325C23.1107 10.1519 23.2992 9.83146 23.5377 9.56772L23.2409 9.29946C22.9638 9.60604 22.7499 9.97308 22.5976 10.3972L22.974 10.5325ZM23.5386 9.56672C23.7773 9.29907 24.0582 9.09567 24.3829 8.955L24.2238 8.58797C23.8454 8.75198 23.5169 8.99 23.24 9.30047L23.5386 9.56672ZM24.3829 8.955C24.7076 8.81428 25.0612 8.74297 25.4459 8.74297V8.34297C25.0104 8.34297 24.6022 8.424 24.2238 8.58797L24.3829 8.955ZM25.4459 8.74297C25.8768 8.74297 26.2444 8.8154 26.5536 8.95399L26.7172 8.58898C26.3467 8.42289 25.9213 8.34297 25.4459 8.34297V8.74297ZM26.5536 8.95399C26.8659 9.094 27.1213 9.28975 27.3232 9.54122L27.6351 9.29081C27.3917 8.98759 27.0845 8.75365 26.7172 8.58898L26.5536 8.95399ZM27.3251 9.54362C27.5323 9.79366 27.6883 10.0946 27.7909 10.45L28.1752 10.3391C28.059 9.93668 27.8791 9.58525 27.6331 9.28841L27.3251 9.54362ZM27.7914 10.4518C27.8984 10.8095 27.953 11.2079 27.953 11.6484H28.353C28.353 11.175 28.2943 10.7374 28.1747 10.3372L27.7914 10.4518ZM27.953 11.6484V12.252H28.353V11.6484H27.953ZM28.153 12.052H23.2545V12.452H28.153V12.052ZM23.4545 12.252V11.2383H23.0545V12.252H23.4545ZM23.2545 11.4383H26.7584V11.0383H23.2545V11.4383ZM26.9584 11.2383V11.127H26.5584V11.2383H26.9584ZM26.9583 11.1208C26.9498 10.8436 26.8942 10.581 26.7904 10.3345L26.4218 10.4897C26.5055 10.6886 26.5514 10.9025 26.5585 11.1331L26.9583 11.1208ZM26.7916 10.3373C26.6882 10.0812 26.5267 9.87098 26.3079 9.71145L26.0722 10.0346C26.2284 10.1485 26.3443 10.2977 26.4206 10.4869L26.7916 10.3373ZM26.3079 9.71145C26.0761 9.54241 25.7804 9.46797 25.4401 9.46797V9.86797C25.7247 9.86797 25.9291 9.93024 26.0722 10.0346L26.3079 9.71145ZM25.4401 9.46797C25.1759 9.46797 24.9329 9.5255 24.7163 9.64531L24.9099 9.99532C25.0606 9.912 25.2355 9.86797 25.4401 9.86797V9.46797ZM24.7176 9.64459C24.5059 9.75966 24.3315 9.92655 24.1939 10.1395L24.53 10.3566C24.6346 10.1945 24.761 10.0763 24.9086 9.99604L24.7176 9.64459ZM24.1939 10.1395C24.0586 10.3491 23.9572 10.597 23.8867 10.8792L24.2747 10.9762C24.337 10.7273 24.4231 10.522 24.53 10.3566L24.1939 10.1395ZM23.8862 10.8813C23.8193 11.1611 23.787 11.472 23.787 11.8125H24.187C24.187 11.4967 24.2171 11.2178 24.2752 10.9742L23.8862 10.8813ZM23.787 11.8125V12.0469H24.187V11.8125H23.787ZM23.787 12.0469C23.787 12.3422 23.8265 12.6202 23.9073 12.8798L24.2892 12.7608C24.2216 12.5438 24.187 12.3063 24.187 12.0469H23.787ZM23.9085 12.8836C23.9941 13.1402 24.1193 13.368 24.2853 13.5646L24.5909 13.3065C24.46 13.1515 24.3587 12.9692 24.288 12.7571L23.9085 12.8836ZM24.2853 13.5646C24.4522 13.7623 24.6546 13.9182 24.8904 14.0318L25.064 13.6714C24.8779 13.5818 24.7209 13.4604 24.5909 13.3065L24.2853 13.5646ZM24.8932 14.0331C25.1343 14.1447 25.4039 14.198 25.6979 14.198V13.798C25.4528 13.798 25.2419 13.7537 25.0612 13.6701L24.8932 14.0331ZM25.6979 14.198C26.0652 14.198 26.4 14.124 26.6976 13.9708L26.5146 13.6151C26.2809 13.7354 26.0103 13.798 25.6979 13.798V14.198ZM26.6976 13.9708C26.9905 13.82 27.2431 13.6074 27.4551 13.336L27.1399 13.0898C26.9613 13.3184 26.7529 13.4925 26.5146 13.6151L26.6976 13.9708ZM27.1584 13.3566L27.9025 14.0773L28.1808 13.7899L27.4366 13.0692L27.1584 13.3566ZM27.8767 13.8204C27.7519 14.0023 27.5872 14.1806 27.3799 14.3546L27.637 14.661C27.8672 14.4678 28.0579 14.2633 28.2065 14.0468L27.8767 13.8204ZM27.3815 14.3533C27.1835 14.5159 26.937 14.652 26.6383 14.759L26.7731 15.1356C27.1072 15.0159 27.3959 14.8591 27.6354 14.6624L27.3815 14.3533ZM26.6375 14.7592C26.3515 14.8629 26.0122 14.9172 25.6159 14.9172V15.3172C26.0477 15.3172 26.4349 15.2582 26.7739 15.1353L26.6375 14.7592ZM30.7925 9.86719H30.9928L30.9922 9.85652L30.7925 9.86719ZM30.7925 15V15.2H30.9925V15H30.7925ZM29.3804 15H29.1804V15.2H29.3804V15ZM29.3804 8.66016V8.46016H29.1804V8.66016H29.3804ZM30.728 8.66016L30.9278 8.64949L30.9177 8.46016H30.728V8.66016ZM32.732 8.61914L32.9319 8.62093L32.9332 8.48225L32.8037 8.43247L32.732 8.61914ZM32.7202 9.93164L32.6845 10.1284L32.9181 10.1709L32.9202 9.93343L32.7202 9.93164ZM32.439 9.89648L32.423 10.0958L32.4236 10.0959L32.439 9.89648ZM31.5073 9.99023L31.5754 10.1783L31.5789 10.177L31.5073 9.99023ZM31.0445 10.2832L30.9009 10.144L30.9008 10.144L31.0445 10.2832ZM30.646 11.3438L30.6605 11.5432L30.8365 11.5304L30.8457 11.3543L30.646 11.3438ZM30.3237 11.3672H30.1237V11.5823L30.3383 11.5667L30.3237 11.3672ZM30.7925 9.36328L30.6226 9.25774L30.6215 9.25962L30.7925 9.36328ZM31.3902 8.75977L31.2877 8.58802L31.2864 8.58876L31.3902 8.75977ZM32.5034 8.56641L32.4718 8.7639L32.473 8.76408L32.5034 8.56641ZM30.5925 9.86719V15H30.9925V9.86719H30.5925ZM30.7925 14.8H29.3804V15.2H30.7925V14.8ZM29.5804 15V8.66016H29.1804V15H29.5804ZM29.3804 8.86016H30.728V8.46016H29.3804V8.86016ZM30.5283 8.67082L30.5928 9.87785L30.9922 9.85652L30.9278 8.64949L30.5283 8.67082ZM32.532 8.61735L32.5202 9.92985L32.9202 9.93343L32.9319 8.62093L32.532 8.61735ZM32.756 9.73487C32.6623 9.71783 32.5616 9.70533 32.4543 9.69707L32.4236 10.0959C32.5194 10.1033 32.6063 10.1142 32.6845 10.1284L32.756 9.73487ZM32.4549 9.69712C32.352 9.68889 32.249 9.68477 32.146 9.68477V10.0848C32.2383 10.0848 32.3307 10.0885 32.423 10.0958L32.4549 9.69712ZM32.146 9.68477C31.8849 9.68477 31.6469 9.72264 31.4358 9.80346L31.5789 10.177C31.735 10.1172 31.9228 10.0848 32.146 10.0848V9.68477ZM31.4393 9.80216C31.2297 9.87798 31.0488 9.9914 30.9009 10.144L31.188 10.4224C31.2901 10.3172 31.4178 10.2353 31.5754 10.1783L31.4393 9.80216ZM30.9008 10.144C30.7585 10.2909 30.6507 10.4678 30.5756 10.6709L30.9508 10.8096C31.0085 10.6533 31.0882 10.5255 31.1881 10.4224L30.9008 10.144ZM30.5756 10.6709C30.5012 10.8723 30.4589 11.0937 30.4463 11.3332L30.8457 11.3543C30.8566 11.1485 30.8924 10.9676 30.9508 10.8096L30.5756 10.6709ZM30.6315 11.1443L30.3092 11.1677L30.3383 11.5667L30.6605 11.5432L30.6315 11.1443ZM30.5237 11.3672C30.5237 10.9817 30.5615 10.6278 30.6359 10.3046L30.246 10.215C30.1641 10.5714 30.1237 10.9558 30.1237 11.3672H30.5237ZM30.6359 10.3046C30.7099 9.98231 30.8199 9.70393 30.9635 9.46694L30.6215 9.25962C30.4526 9.53825 30.3282 9.85754 30.246 10.215L30.6359 10.3046ZM30.9624 9.46882C31.1075 9.2353 31.2848 9.05756 31.4939 8.93077L31.2864 8.58876C31.0189 8.75103 30.7979 8.97564 30.6226 9.25774L30.9624 9.46882ZM31.4926 8.93151C31.7002 8.80765 31.9432 8.74297 32.228 8.74297V8.34297C31.8801 8.34297 31.5645 8.42282 31.2877 8.58802L31.4926 8.93151ZM32.228 8.74297C32.302 8.74297 32.3831 8.7497 32.4718 8.76389L32.535 8.36892C32.4285 8.35187 32.326 8.34297 32.228 8.34297V8.74297ZM32.473 8.76408C32.5706 8.77909 32.6297 8.79411 32.6602 8.80581L32.8037 8.43247C32.7326 8.4051 32.6394 8.38498 32.5338 8.36873L32.473 8.76408ZM35.7523 15V15.2H35.9523V15H35.7523ZM34.3402 15H34.1402V15.2H34.3402V15ZM34.6039 6.86133L34.429 6.76438L34.4286 6.76511L34.6039 6.86133ZM35.3715 6.12891L35.4601 6.30822L35.4618 6.30737L35.3715 6.12891ZM36.9652 5.90625L36.9369 6.10432L36.9425 6.10496L36.9652 5.90625ZM37.3637 5.98242L37.5636 5.98887L37.5687 5.83102L37.4163 5.78947L37.3637 5.98242ZM37.3285 7.07227L37.28 7.26629L37.5204 7.3264L37.5284 7.07871L37.3285 7.07227ZM37.0707 7.03125L37.0534 7.2305L37.0541 7.23056L37.0707 7.03125ZM36.2211 7.14258L36.3124 7.32055L36.3141 7.31966L36.2211 7.14258ZM35.8695 7.48828L35.6934 7.39344L35.6916 7.39702L35.8695 7.48828ZM37.059 8.66016H37.259V8.46016H37.059V8.66016ZM37.059 9.69141V9.89141H37.259V9.69141H37.059ZM33.3676 9.69141H33.1676V9.89141H33.3676V9.69141ZM33.3676 8.66016V8.46016H33.1676V8.66016H33.3676ZM35.7523 14.8H34.3402V15.2H35.7523V14.8ZM34.5402 15V8.05078H34.1402V15H34.5402ZM34.5402 8.05078C34.5402 7.60215 34.6237 7.24096 34.7792 6.95755L34.4286 6.76511C34.2325 7.12232 34.1402 7.5541 34.1402 8.05078H34.5402ZM34.7788 6.95828C34.9388 6.66962 35.1646 6.45423 35.4601 6.30821L35.2829 5.9496C34.9143 6.13171 34.6284 6.4046 34.429 6.76438L34.7788 6.95828ZM35.4618 6.30737C35.7604 6.15632 36.1207 6.07695 36.5492 6.07695V5.67695C36.0715 5.67695 35.6467 5.76556 35.2812 5.95044L35.4618 6.30737ZM36.5492 6.07695C36.6806 6.07695 36.8098 6.08607 36.937 6.10424L36.9935 5.70826C36.8473 5.68737 36.6991 5.67695 36.5492 5.67695V6.07695ZM36.9425 6.10496C37.0694 6.11946 37.1922 6.14297 37.311 6.17537L37.4163 5.78947C37.2773 5.75156 37.1345 5.72429 36.9879 5.70754L36.9425 6.10496ZM37.1638 5.97597L37.1286 7.06582L37.5284 7.07871L37.5636 5.98887L37.1638 5.97597ZM37.377 6.87824C37.2869 6.8557 37.1901 6.8405 37.0873 6.83194L37.0541 7.23056C37.1388 7.23762 37.2139 7.24977 37.28 7.26629L37.377 6.87824ZM37.088 6.832C36.9916 6.82361 36.888 6.81953 36.7777 6.81953V7.21953C36.8784 7.21953 36.9702 7.22326 37.0534 7.2305L37.088 6.832ZM36.7777 6.81953C36.5375 6.81953 36.3186 6.86548 36.1281 6.9655L36.3141 7.31966C36.436 7.25562 36.5883 7.21953 36.7777 7.21953V6.81953ZM36.1298 6.96461C35.941 7.06143 35.7945 7.20586 35.6934 7.39346L36.0456 7.5831C36.1087 7.46602 36.1965 7.37997 36.3124 7.32054L36.1298 6.96461ZM35.6916 7.39702C35.5953 7.5848 35.5523 7.8056 35.5523 8.05078H35.9523C35.9523 7.85065 35.9875 7.69645 36.0475 7.57954L35.6916 7.39702ZM35.5523 8.05078V15H35.9523V8.05078H35.5523ZM36.859 8.66016V9.69141H37.259V8.66016H36.859ZM37.059 9.49141H33.3676V9.89141H37.059V9.49141ZM33.5676 9.69141V8.66016H33.1676V9.69141H33.5676ZM33.3676 8.86016H37.059V8.46016H33.3676V8.86016ZM41.2805 9.73828L41.1845 9.91371L41.1862 9.91464L41.2805 9.73828ZM39.5286 10.4883V10.6883H39.7286V10.4883H39.5286ZM38.1223 10.4883H37.9223V10.6883H38.1223V10.4883ZM42.0012 8.7832L41.9213 8.96653L41.922 8.96683L42.0012 8.7832ZM42.8743 9.50977L42.7066 9.61884L42.7082 9.62117L42.8743 9.50977ZM43.2552 14.3145L43.0579 14.3479L43.0587 14.3517L43.2552 14.3145ZM43.4368 14.9062H43.6368V14.862L43.6181 14.8219L43.4368 14.9062ZM43.4368 15V15.2H43.6368V15H43.4368ZM41.9895 15L41.8062 15.0799L41.8585 15.2H41.9895V15ZM41.8313 14.4199L41.6334 14.4491L41.634 14.4528L41.8313 14.4199ZM41.9837 11.1445L42.1837 11.1418L42.181 10.9445H41.9837V11.1445ZM41.9954 12.0176V12.2176H42.1981L42.1954 12.0149L41.9954 12.0176ZM40.2903 12.0938L40.3361 12.2885L40.3397 12.2876L40.2903 12.0938ZM39.511 13.5586L39.3362 13.6557L39.3374 13.6578L39.511 13.5586ZM39.8509 13.8809L39.7577 14.0579L39.7596 14.0588L39.8509 13.8809ZM41.1575 13.8223L41.2533 13.9978L41.2544 13.9972L41.1575 13.8223ZM41.6731 13.3828L41.8349 13.5005L41.8361 13.4987L41.6731 13.3828ZM41.8723 12.8848L42.034 12.767L41.7008 12.31L41.6726 12.8748L41.8723 12.8848ZM42.3294 13.5117L42.5213 13.5679L42.549 13.4734L42.491 13.3939L42.3294 13.5117ZM41.6438 14.5547L41.7787 14.7024L41.7788 14.7022L41.6438 14.5547ZM40.9934 14.959L40.9167 14.7743L40.9157 14.7747L40.9934 14.959ZM39.0188 14.8711L38.9268 15.0487L38.9285 15.0495L39.0188 14.8711ZM38.2571 14.1973L38.0889 14.3055L38.0896 14.3066L38.2571 14.1973ZM38.1692 12.3398L37.9898 12.2515L37.9893 12.2526L38.1692 12.3398ZM38.7317 11.6836L38.6167 11.52L38.6155 11.5208L38.7317 11.6836ZM39.6458 11.2852L39.6943 11.4792L39.6963 11.4787L39.6458 11.2852ZM41.9786 13.7285V10.7051H41.5786V13.7285H41.9786ZM41.9786 10.7051C41.9786 10.4546 41.9332 10.2273 41.8344 10.0297L41.4767 10.2086C41.5419 10.3391 41.5786 10.5024 41.5786 10.7051H41.9786ZM41.8344 10.0297C41.7331 9.82712 41.5778 9.67049 41.3749 9.56192L41.1862 9.91464C41.3192 9.98576 41.4139 10.083 41.4767 10.2086L41.8344 10.0297ZM41.3766 9.56286C41.1748 9.45237 40.9322 9.40352 40.6595 9.40352V9.80352C40.8867 9.80352 41.0581 9.8445 41.1845 9.9137L41.3766 9.56286ZM40.6595 9.40352C40.4068 9.40352 40.1775 9.44633 39.9775 9.53936L40.1461 9.90205C40.2821 9.83883 40.4512 9.80352 40.6595 9.80352V9.40352ZM39.9775 9.53936C39.7823 9.63012 39.6224 9.75665 39.5058 9.92177L39.8326 10.1524C39.9036 10.0519 40.0053 9.96753 40.1461 9.90205L39.9775 9.53936ZM39.5058 9.92177C39.3874 10.0895 39.3286 10.2805 39.3286 10.4883H39.7286C39.7286 10.3602 39.7635 10.2503 39.8326 10.1524L39.5058 9.92177ZM39.5286 10.2883H38.1223V10.6883H39.5286V10.2883ZM38.3223 10.4883C38.3223 10.272 38.3744 10.0611 38.4817 9.85352L38.1263 9.66991C37.9914 9.93106 37.9223 10.2046 37.9223 10.4883H38.3223ZM38.4817 9.85352C38.5884 9.64697 38.7449 9.45929 38.9559 9.2912L38.7067 8.97833C38.4568 9.17743 38.2618 9.40772 38.1263 9.66991L38.4817 9.85352ZM38.9559 9.2912C39.1654 9.12434 39.419 8.99025 39.72 8.89114L39.5949 8.5112C39.2553 8.62303 38.9582 8.778 38.7067 8.97833L38.9559 9.2912ZM39.72 8.89114C40.0169 8.7934 40.3547 8.74297 40.7356 8.74297V8.34297C40.3197 8.34297 39.9387 8.39801 39.5949 8.5112L39.72 8.89114ZM40.7356 8.74297C41.1898 8.74297 41.5836 8.81925 41.9213 8.96652L42.0812 8.59988C41.6845 8.42684 41.2346 8.34297 40.7356 8.34297V8.74297ZM41.922 8.96683C42.2586 9.11212 42.5182 9.32916 42.7067 9.61883L43.0419 9.4007C42.8085 9.04193 42.486 8.7746 42.0805 8.59957L41.922 8.96683ZM42.7082 9.62117C42.8959 9.901 42.9966 10.2619 42.9966 10.7168H43.3966C43.3966 10.2029 43.2824 9.75915 43.0404 9.39836L42.7082 9.62117ZM42.9966 10.7168V13.5352H43.3966V10.7168H42.9966ZM42.9966 13.5352C42.9966 13.8329 43.0167 14.1041 43.058 14.3479L43.4523 14.281C43.4155 14.0638 43.3966 13.8155 43.3966 13.5352H42.9966ZM43.0587 14.3517C43.104 14.5908 43.1689 14.8045 43.2555 14.9906L43.6181 14.8219C43.5485 14.6721 43.4923 14.4913 43.4517 14.2772L43.0587 14.3517ZM43.2368 14.9062V15H43.6368V14.9062H43.2368ZM43.4368 14.8H41.9895V15.2H43.4368V14.8ZM42.1729 14.9201C42.1152 14.7877 42.066 14.6115 42.0286 14.387L41.634 14.4528C41.6748 14.6971 41.7311 14.9076 41.8062 15.0799L42.1729 14.9201ZM42.0292 14.3907C41.9953 14.1613 41.9786 13.9406 41.9786 13.7285H41.5786C41.5786 13.9617 41.597 14.2019 41.6335 14.4491L42.0292 14.3907ZM41.7837 11.1472L41.7954 12.0203L42.1954 12.0149L42.1837 11.1418L41.7837 11.1472ZM41.9954 11.8176H40.9817V12.2176H41.9954V11.8176ZM40.9817 11.8176C40.7076 11.8176 40.46 11.8441 40.2409 11.8999L40.3397 12.2876C40.5191 12.2418 40.7324 12.2176 40.9817 12.2176V11.8176ZM40.2445 11.8991C40.0265 11.9504 39.8354 12.0295 39.6769 12.1413L39.9076 12.4681C40.0148 12.3924 40.1556 12.3309 40.3361 12.2884L40.2445 11.8991ZM39.6769 12.1413C39.5198 12.2522 39.3971 12.39 39.3146 12.5551L39.6723 12.734C39.7226 12.6334 39.7991 12.5446 39.9076 12.4681L39.6769 12.1413ZM39.3146 12.5551C39.2325 12.7191 39.1938 12.9008 39.1938 13.0957H39.5938C39.5938 12.9547 39.6215 12.8356 39.6723 12.734L39.3146 12.5551ZM39.1938 13.0957C39.1938 13.2961 39.2408 13.4841 39.3362 13.6557L39.6858 13.4615C39.625 13.3519 39.5938 13.2312 39.5938 13.0957H39.1938ZM39.3374 13.6578C39.4356 13.8298 39.5779 13.9632 39.7577 14.0578L39.944 13.7039C39.827 13.6423 39.7427 13.5608 39.6847 13.4594L39.3374 13.6578ZM39.7596 14.0588C39.9465 14.1547 40.163 14.198 40.4016 14.198V13.798C40.2106 13.798 40.0599 13.7633 39.9421 13.7029L39.7596 14.0588ZM40.4016 14.198C40.7181 14.198 41.0041 14.1337 41.2533 13.9978L41.0617 13.6467C40.8812 13.7452 40.6633 13.798 40.4016 13.798V14.198ZM41.2544 13.9972C41.4942 13.8645 41.6899 13.6998 41.8349 13.5004L41.5114 13.2652C41.4063 13.4096 41.2583 13.5379 41.0606 13.6473L41.2544 13.9972ZM41.8361 13.4987C41.9751 13.3032 42.0618 13.101 42.0721 12.8948L41.6726 12.8748C41.6673 12.9811 41.6211 13.1109 41.5101 13.2669L41.8361 13.4987ZM41.7107 13.0026L42.1678 13.6295L42.491 13.3939L42.034 12.767L41.7107 13.0026ZM42.1374 13.4555C42.0968 13.5944 42.0254 13.7498 41.9189 13.9223L42.2593 14.1324C42.3794 13.9377 42.4682 13.7494 42.5213 13.5679L42.1374 13.4555ZM41.9189 13.9223C41.8167 14.088 41.6808 14.2498 41.5088 14.4071L41.7788 14.7022C41.974 14.5237 42.135 14.3339 42.2593 14.1324L41.9189 13.9223ZM41.509 14.407C41.3484 14.5536 41.152 14.6766 40.9167 14.7743L41.0702 15.1437C41.3427 15.0305 41.5798 14.8839 41.7787 14.7024L41.509 14.407ZM40.9157 14.7747C40.6949 14.8679 40.4331 14.9172 40.1262 14.9172V15.3172C40.4756 15.3172 40.792 15.261 41.0712 15.1433L40.9157 14.7747ZM40.1262 14.9172C39.7392 14.9172 39.4017 14.8407 39.1091 14.6926L38.9285 15.0495C39.2844 15.2296 39.6852 15.3172 40.1262 15.3172V14.9172ZM39.1108 14.6935C38.8145 14.54 38.5877 14.3378 38.4246 14.0879L38.0896 14.3066C38.2937 14.6192 38.5747 14.8663 38.9268 15.0487L39.1108 14.6935ZM38.4253 14.089C38.2637 13.8381 38.1817 13.5538 38.1817 13.2305H37.7817C37.7817 13.6258 37.8833 13.9861 38.0889 14.3055L38.4253 14.089ZM38.1817 13.2305C38.1817 12.9196 38.2395 12.6534 38.3492 12.4271L37.9893 12.2526C37.849 12.5419 37.7817 12.8695 37.7817 13.2305H38.1817ZM38.3486 12.4282C38.4624 12.1972 38.6277 12.0037 38.848 11.8463L38.6155 11.5208C38.3435 11.7151 38.1338 11.959 37.9898 12.2515L38.3486 12.4282ZM38.8468 11.8472C39.0729 11.6882 39.3539 11.5643 39.6943 11.4792L39.5973 11.0911C39.219 11.1857 38.8906 11.3274 38.6167 11.52L38.8468 11.8472ZM39.6963 11.4787C40.0358 11.3901 40.4284 11.3445 40.8762 11.3445V10.9445C40.4022 10.9445 39.9746 10.9927 39.5953 11.0916L39.6963 11.4787ZM40.8762 11.3445H41.9837V10.9445H40.8762V11.3445ZM48.0041 13.8574L48.092 14.0371L48.0935 14.0363L48.0041 13.8574ZM48.4552 13.4707L48.2925 13.3544L48.2907 13.3571L48.4552 13.4707ZM48.6486 12.9023V12.7023H48.4592L48.4489 12.8915L48.6486 12.9023ZM49.9787 12.9023L50.1786 12.9062L50.1825 12.7023H49.9787V12.9023ZM48.6838 14.8242L48.7739 15.0027L48.7753 15.002L48.6838 14.8242ZM46.1349 14.8711L46.0502 15.0523L46.0519 15.053L46.1349 14.8711ZM44.6994 13.166L44.5081 13.2246L44.5087 13.2263L44.6994 13.166ZM44.6994 10.5L44.5085 10.4402L44.5081 10.4415L44.6994 10.5ZM46.1349 8.79492L46.218 8.97687L46.2196 8.97611L46.1349 8.79492ZM48.7306 8.84766L48.6369 9.02433L48.6383 9.02507L48.7306 8.84766ZM49.633 9.68555L49.4621 9.78954L49.4635 9.79171L49.633 9.68555ZM49.9787 10.9277V11.1277H50.182L50.1786 10.9244L49.9787 10.9277ZM48.6486 10.9277L48.4488 10.9377L48.4583 11.1277H48.6486V10.9277ZM48.4728 10.2949L48.2961 10.3887L48.2985 10.393L48.4728 10.2949ZM48.0392 9.83789L47.9342 10.0081L47.9358 10.0091L48.0392 9.83789ZM46.6681 9.84375L46.7716 10.015L46.7741 10.0133L46.6681 9.84375ZM46.2287 10.3125L46.4047 10.4075L46.4054 10.4061L46.2287 10.3125ZM46.0002 10.9746L45.8037 10.9372L45.8032 10.9397L46.0002 10.9746ZM46.2228 13.3594L46.0468 13.4544L46.0492 13.4586L46.2228 13.3594ZM46.6681 13.8223L46.5621 13.9919L46.5647 13.9934L46.6681 13.8223ZM47.383 14.1922C47.64 14.1922 47.8777 14.1419 48.092 14.0371L47.9162 13.6778C47.7632 13.7526 47.5869 13.7922 47.383 13.7922V14.1922ZM48.0935 14.0363C48.3095 13.9283 48.4864 13.7776 48.6198 13.5843L48.2907 13.3571C48.1975 13.492 48.0736 13.5991 47.9146 13.6785L48.0935 14.0363ZM48.618 13.587C48.7587 13.3899 48.8347 13.1633 48.8483 12.9132L48.4489 12.8915C48.4391 13.071 48.3861 13.2234 48.2925 13.3545L48.618 13.587ZM48.6486 13.1023H49.9787V12.7023H48.6486V13.1023ZM49.7787 12.8985C49.7716 13.2691 49.663 13.6037 49.4514 13.907L49.7794 14.1359C50.0365 13.7674 50.1701 13.3559 50.1786 12.9062L49.7787 12.8985ZM49.4514 13.907C49.2368 14.2146 48.9518 14.4612 48.5922 14.6464L48.7753 15.002C49.1892 14.7888 49.5253 14.5002 49.7794 14.1359L49.4514 13.907ZM48.5936 14.6457C48.2371 14.8258 47.8406 14.9172 47.4005 14.9172V15.3172C47.898 15.3172 48.357 15.2133 48.7739 15.0027L48.5936 14.6457ZM47.4005 14.9172C46.9385 14.9172 46.5461 14.8389 46.218 14.6892L46.0519 15.053C46.4425 15.2314 46.8938 15.3172 47.4005 15.3172V14.9172ZM46.2196 14.6899C45.8862 14.5341 45.6119 14.3219 45.3936 14.0535L45.0833 14.3059C45.3416 14.6234 45.6649 14.8722 46.0502 15.0523L46.2196 14.6899ZM45.3936 14.0535C45.1722 13.7813 45.004 13.466 44.8901 13.1057L44.5087 13.2263C44.6369 13.6316 44.8281 13.9922 45.0833 14.3059L45.3936 14.0535ZM44.8906 13.1075C44.7797 12.7453 44.7236 12.355 44.7236 11.9355H44.3236C44.3236 12.3911 44.3846 12.8211 44.5081 13.2246L44.8906 13.1075ZM44.7236 11.9355V11.7305H44.3236V11.9355H44.7236ZM44.7236 11.7305C44.7236 11.311 44.7797 10.9207 44.8906 10.5585L44.5081 10.4415C44.3846 10.8449 44.3236 11.275 44.3236 11.7305H44.7236ZM44.8902 10.5598C45.0043 10.1955 45.1725 9.87855 45.3936 9.60667L45.0833 9.35427C44.8279 9.66832 44.6366 10.0311 44.5085 10.4402L44.8902 10.5598ZM45.3936 9.60667C45.6116 9.33869 45.8853 9.12874 46.218 8.97686L46.0519 8.61298C45.6658 8.78922 45.3419 9.03631 45.0833 9.35427L45.3936 9.60667ZM46.2196 8.97611C46.5475 8.82287 46.9374 8.74297 47.3947 8.74297V8.34297C46.891 8.34297 46.4411 8.43104 46.0502 8.61374L46.2196 8.97611ZM47.3947 8.74297C47.8754 8.74297 48.2875 8.83896 48.6369 9.02433L48.8244 8.67099C48.4081 8.45011 47.9296 8.34297 47.3947 8.34297V8.74297ZM48.6383 9.02507C48.9896 9.20789 49.2629 9.46218 49.4621 9.78954L49.8038 9.58156C49.5656 9.19017 49.2373 8.88586 48.823 8.67024L48.6383 9.02507ZM49.4635 9.79171C49.6644 10.1125 49.7714 10.4901 49.7787 10.931L50.1786 10.9244C50.1703 10.4201 50.0468 9.9695 49.8025 9.57938L49.4635 9.79171ZM49.9787 10.7277H48.6486V11.1277H49.9787V10.7277ZM48.8483 10.9177C48.8352 10.6553 48.7691 10.4137 48.6471 10.1969L48.2985 10.393C48.3874 10.5511 48.4385 10.7314 48.4488 10.9377L48.8483 10.9177ZM48.6495 10.2012C48.5308 9.97744 48.3608 9.79848 48.1426 9.66671L47.9358 10.0091C48.0927 10.1039 48.2117 10.2296 48.2961 10.3887L48.6495 10.2012ZM48.1442 9.66768C47.9234 9.53142 47.6647 9.46797 47.3771 9.46797V9.86797C47.6051 9.86797 47.7879 9.9178 47.9342 10.0081L48.1442 9.66768ZM47.3771 9.46797C47.0652 9.46797 46.7894 9.5321 46.5621 9.67415L46.7741 10.0133C46.9218 9.92102 47.1187 9.86797 47.3771 9.86797V9.46797ZM46.5647 9.67257C46.3452 9.80516 46.1738 9.98864 46.0519 10.2189L46.4054 10.4061C46.4945 10.2379 46.616 10.1089 46.7715 10.0149L46.5647 9.67257ZM46.0527 10.2175C45.9363 10.433 45.8539 10.6735 45.8037 10.9372L46.1966 11.012C46.2401 10.7835 46.3101 10.5827 46.4047 10.4075L46.0527 10.2175ZM45.8032 10.9397C45.7581 11.1941 45.7357 11.4578 45.7357 11.7305H46.1357C46.1357 11.4797 46.1563 11.2395 46.1971 11.0095L45.8032 10.9397ZM45.7357 11.7305V11.9355H46.1357V11.7305H45.7357ZM45.7357 11.9355C45.7357 12.2083 45.7581 12.4737 45.8031 12.7317L46.1972 12.6629C46.1563 12.4287 46.1357 12.1863 46.1357 11.9355H45.7357ZM45.8031 12.7317C45.8494 12.9963 45.9299 13.2379 46.0468 13.4544L46.3988 13.2643C46.3048 13.0902 46.2369 12.8904 46.1972 12.6629L45.8031 12.7317ZM46.0492 13.4586C46.175 13.6788 46.3467 13.8572 46.5621 13.9919L46.7741 13.6527C46.6146 13.5529 46.4894 13.4228 46.3965 13.2601L46.0492 13.4586ZM46.5647 13.9934C46.7919 14.1307 47.0688 14.1922 47.383 14.1922V13.7922C47.119 13.7922 46.9194 13.7404 46.7715 13.6511L46.5647 13.9934ZM52.7061 14.8887L52.6292 15.0733L52.6315 15.0742L52.7061 14.8887ZM51.7452 14.2383L51.5997 14.3755L51.6007 14.3766L51.7452 14.2383ZM51.751 9.43359L51.8994 9.56773L51.9003 9.56672L51.751 9.43359ZM55.8409 9.41602L55.6849 9.54124L55.6869 9.54362L55.8409 9.41602ZM56.3448 10.3945L56.1526 10.45L56.1531 10.4518L56.3448 10.3945ZM56.5147 12.252V12.452H56.7147V12.252H56.5147ZM51.6162 12.252H51.4162V12.452H51.6162V12.252ZM51.6162 11.2383V11.0383H51.4162V11.2383H51.6162ZM55.1202 11.2383V11.4383H55.3202V11.2383H55.1202ZM55.1202 11.127H55.3202L55.3201 11.1208L55.1202 11.127ZM54.9678 10.4121L54.7823 10.487L54.7835 10.4897L54.9678 10.4121ZM53.1748 9.82031L53.2703 9.99604L53.2717 9.99532L53.1748 9.82031ZM52.4424 10.9277L52.2484 10.8792L52.2479 10.8813L52.4424 10.9277ZM52.46 12.8203L52.269 12.8798L52.2703 12.8836L52.46 12.8203ZM53.3389 13.8516L53.2521 14.0318L53.2549 14.0331L53.3389 13.8516ZM55.6592 13.2129L55.7984 13.0692L55.6386 12.9145L55.5016 13.0898L55.6592 13.2129ZM56.4034 13.9336L56.5683 14.0468L56.6639 13.9075L56.5425 13.7899L56.4034 13.9336ZM55.8702 14.5078L55.9971 14.6624L55.9987 14.661L55.8702 14.5078ZM55.0674 14.9473L55 14.759L54.9993 14.7592L55.0674 14.9473ZM53.9776 14.9172C53.5306 14.9172 53.1326 14.8446 52.7807 14.7031L52.6315 15.0742C53.0373 15.2374 53.487 15.3172 53.9776 15.3172V14.9172ZM52.783 14.7041C52.432 14.5578 52.1351 14.3562 51.8896 14.0999L51.6007 14.3766C51.8865 14.675 52.2302 14.9071 52.6292 15.0733L52.783 14.7041ZM51.8906 14.101C51.6481 13.844 51.4607 13.5409 51.3289 13.1895L50.9544 13.33C51.1039 13.7286 51.3188 14.0779 51.5997 14.3755L51.8906 14.101ZM51.3289 13.1895C51.1974 12.8388 51.1307 12.4585 51.1307 12.0469H50.7307C50.7307 12.5025 50.8047 12.9307 50.9544 13.33L51.3289 13.1895ZM51.1307 12.0469V11.8125H50.7307V12.0469H51.1307ZM51.1307 11.8125C51.1307 11.3358 51.2001 10.9099 51.3357 10.5325L50.9593 10.3972C50.8058 10.8244 50.7307 11.297 50.7307 11.8125H51.1307ZM51.3357 10.5325C51.4724 10.1519 51.6609 9.83146 51.8994 9.56772L51.6027 9.29946C51.3255 9.60604 51.1116 9.97308 50.9593 10.3972L51.3357 10.5325ZM51.9003 9.56672C52.139 9.29907 52.42 9.09567 52.7446 8.955L52.5856 8.58797C52.2071 8.75198 51.8787 8.99 51.6018 9.30047L51.9003 9.56672ZM52.7446 8.955C53.0693 8.81428 53.4229 8.74297 53.8077 8.74297V8.34297C53.3721 8.34297 52.964 8.424 52.5856 8.58797L52.7446 8.955ZM53.8077 8.74297C54.2386 8.74297 54.6061 8.8154 54.9153 8.95399L55.0789 8.58898C54.7084 8.42289 54.283 8.34297 53.8077 8.34297V8.74297ZM54.9153 8.95399C55.2276 9.094 55.483 9.28975 55.6849 9.54122L55.9968 9.29081C55.7534 8.98759 55.4463 8.75365 55.0789 8.58898L54.9153 8.95399ZM55.6869 9.54362C55.894 9.79366 56.05 10.0946 56.1526 10.45L56.5369 10.3391C56.4208 9.93668 56.2408 9.58525 55.9949 9.28841L55.6869 9.54362ZM56.1531 10.4518C56.2601 10.8095 56.3147 11.2079 56.3147 11.6484H56.7147C56.7147 11.175 56.656 10.7374 56.5364 10.3372L56.1531 10.4518ZM56.3147 11.6484V12.252H56.7147V11.6484H56.3147ZM56.5147 12.052H51.6162V12.452H56.5147V12.052ZM51.8162 12.252V11.2383H51.4162V12.252H51.8162ZM51.6162 11.4383H55.1202V11.0383H51.6162V11.4383ZM55.3202 11.2383V11.127H54.9202V11.2383H55.3202ZM55.3201 11.1208C55.3115 10.8436 55.2559 10.581 55.1521 10.3345L54.7835 10.4897C54.8672 10.6886 54.9132 10.9025 54.9202 11.1331L55.3201 11.1208ZM55.1533 10.3373C55.05 10.0812 54.8884 9.87098 54.6696 9.71145L54.434 10.0346C54.5902 10.1485 54.706 10.2977 54.7823 10.4869L55.1533 10.3373ZM54.6696 9.71145C54.4378 9.54241 54.1422 9.46797 53.8018 9.46797V9.86797C54.0864 9.86797 54.2908 9.93024 54.434 10.0346L54.6696 9.71145ZM53.8018 9.46797C53.5376 9.46797 53.2946 9.5255 53.078 9.64531L53.2717 9.99532C53.4223 9.912 53.5972 9.86797 53.8018 9.86797V9.46797ZM53.0793 9.64459C52.8676 9.75966 52.6932 9.92655 52.5557 10.1395L52.8917 10.3566C52.9963 10.1945 53.1227 10.0763 53.2703 9.99604L53.0793 9.64459ZM52.5557 10.1395C52.4203 10.3491 52.319 10.597 52.2484 10.8792L52.6364 10.9762C52.6987 10.7273 52.7848 10.522 52.8917 10.3566L52.5557 10.1395ZM52.2479 10.8813C52.1811 11.1611 52.1487 11.472 52.1487 11.8125H52.5487C52.5487 11.4967 52.5788 11.2178 52.637 10.9742L52.2479 10.8813ZM52.1487 11.8125V12.0469H52.5487V11.8125H52.1487ZM52.1487 12.0469C52.1487 12.3422 52.1882 12.6202 52.269 12.8798L52.651 12.7608C52.5834 12.5438 52.5487 12.3063 52.5487 12.0469H52.1487ZM52.2703 12.8836C52.3558 13.1402 52.4811 13.368 52.647 13.5646L52.9526 13.3065C52.8218 13.1515 52.7204 12.9692 52.6497 12.7571L52.2703 12.8836ZM52.647 13.5646C52.814 13.7623 53.0163 13.9182 53.2521 14.0318L53.4257 13.6714C53.2396 13.5818 53.0826 13.4604 52.9526 13.3065L52.647 13.5646ZM53.2549 14.0331C53.496 14.1447 53.7657 14.198 54.0596 14.198V13.798C53.8145 13.798 53.6037 13.7537 53.4229 13.6701L53.2549 14.0331ZM54.0596 14.198C54.4269 14.198 54.7617 14.124 55.0593 13.9708L54.8763 13.6151C54.6426 13.7354 54.372 13.798 54.0596 13.798V14.198ZM55.0593 13.9708C55.3523 13.82 55.6048 13.6074 55.8168 13.336L55.5016 13.0898C55.323 13.3184 55.1146 13.4925 54.8763 13.6151L55.0593 13.9708ZM55.5201 13.3566L56.2642 14.0773L56.5425 13.7899L55.7984 13.0692L55.5201 13.3566ZM56.2385 13.8204C56.1136 14.0023 55.9489 14.1806 55.7416 14.3546L55.9987 14.661C56.2289 14.4678 56.4196 14.2633 56.5683 14.0468L56.2385 13.8204ZM55.7432 14.3533C55.5452 14.5159 55.2987 14.652 55 14.759L55.1348 15.1356C55.4689 15.0159 55.7576 14.8591 55.9971 14.6624L55.7432 14.3533ZM54.9993 14.7592C54.7132 14.8629 54.3739 14.9172 53.9776 14.9172V15.3172C54.4094 15.3172 54.7966 15.2582 55.1356 15.1353L54.9993 14.7592Z" fill="#010101" fill-opacity="0.098" mask="url(#path-2-inside-1_8_107)"/>
<path d="M10.2383 7.66016V14H8.82031V7.66016H10.2383ZM8.72656 5.99609C8.72656 5.78125 8.79688 5.60352 8.9375 5.46289C9.08203 5.31836 9.28125 5.24609 9.53516 5.24609C9.78516 5.24609 9.98242 5.31836 10.127 5.46289C10.2715 5.60352 10.3438 5.78125 10.3438 5.99609C10.3438 6.20703 10.2715 6.38281 10.127 6.52344C9.98242 6.66406 9.78516 6.73438 9.53516 6.73438C9.28125 6.73438 9.08203 6.66406 8.9375 6.52344C8.79688 6.38281 8.72656 6.20703 8.72656 5.99609ZM13.3055 9.01367V14H11.8934V7.66016H13.2235L13.3055 9.01367ZM13.0536 10.5957L12.5966 10.5898C12.6005 10.1406 12.663 9.72852 12.7841 9.35352C12.9091 8.97852 13.0809 8.65625 13.2997 8.38672C13.5223 8.11719 13.788 7.91016 14.0966 7.76562C14.4052 7.61719 14.7489 7.54297 15.1278 7.54297C15.4325 7.54297 15.7079 7.58594 15.954 7.67188C16.204 7.75391 16.4169 7.88867 16.5927 8.07617C16.7723 8.26367 16.9091 8.50781 17.0028 8.80859C17.0966 9.10547 17.1434 9.4707 17.1434 9.9043V14H15.7255V9.89844C15.7255 9.59375 15.6805 9.35352 15.5907 9.17773C15.5048 8.99805 15.3778 8.87109 15.2098 8.79688C15.0458 8.71875 14.8407 8.67969 14.5946 8.67969C14.3524 8.67969 14.1356 8.73047 13.9442 8.83203C13.7528 8.93359 13.5907 9.07227 13.4579 9.24805C13.329 9.42383 13.2294 9.62695 13.1591 9.85742C13.0887 10.0879 13.0536 10.334 13.0536 10.5957ZM21.6111 7.66016V8.69141H18.0369V7.66016H21.6111ZM19.0681 6.10742H20.4802V12.248C20.4802 12.4434 20.5076 12.5938 20.5623 12.6992C20.6209 12.8008 20.7009 12.8691 20.8025 12.9043C20.9041 12.9395 21.0232 12.957 21.1599 12.957C21.2576 12.957 21.3513 12.9512 21.4412 12.9395C21.531 12.9277 21.6033 12.916 21.658 12.9043L21.6638 13.9824C21.5466 14.0176 21.4099 14.0488 21.2537 14.0762C21.1013 14.1035 20.9255 14.1172 20.7263 14.1172C20.4021 14.1172 20.115 14.0605 19.865 13.9473C19.615 13.8301 19.4197 13.6406 19.2791 13.3789C19.1384 13.1172 19.0681 12.7695 19.0681 12.3359V6.10742ZM25.6159 14.1172C25.1471 14.1172 24.7233 14.041 24.3444 13.8887C23.9694 13.7324 23.6491 13.5156 23.3834 13.2383C23.1217 12.9609 22.9205 12.6348 22.7799 12.2598C22.6393 11.8848 22.569 11.4805 22.569 11.0469V10.8125C22.569 10.3164 22.6412 9.86719 22.7858 9.46484C22.9303 9.0625 23.1315 8.71875 23.3893 8.43359C23.6471 8.14453 23.9518 7.92383 24.3034 7.77148C24.6549 7.61914 25.0358 7.54297 25.4459 7.54297C25.8991 7.54297 26.2955 7.61914 26.6354 7.77148C26.9752 7.92383 27.2565 8.13867 27.4791 8.41602C27.7057 8.68945 27.8737 9.01562 27.983 9.39453C28.0963 9.77344 28.153 10.1914 28.153 10.6484V11.252H23.2545V10.2383H26.7584V10.127C26.7506 9.87305 26.6998 9.63477 26.6061 9.41211C26.5162 9.18945 26.3776 9.00977 26.1901 8.87305C26.0026 8.73633 25.7526 8.66797 25.4401 8.66797C25.2057 8.66797 24.9967 8.71875 24.8131 8.82031C24.6334 8.91797 24.483 9.06055 24.362 9.24805C24.2409 9.43555 24.1471 9.66211 24.0807 9.92773C24.0182 10.1895 23.987 10.4844 23.987 10.8125V11.0469C23.987 11.3242 24.0241 11.582 24.0983 11.8203C24.1764 12.0547 24.2897 12.2598 24.4381 12.4355C24.5866 12.6113 24.7662 12.75 24.9772 12.8516C25.1881 12.9492 25.4284 12.998 25.6979 12.998C26.0377 12.998 26.3405 12.9297 26.6061 12.793C26.8717 12.6562 27.1022 12.4629 27.2975 12.2129L28.0416 12.9336C27.9049 13.1328 27.7272 13.3242 27.5084 13.5078C27.2897 13.6875 27.0221 13.834 26.7057 13.9473C26.3932 14.0605 26.0299 14.1172 25.6159 14.1172ZM30.7925 8.86719V14H29.3804V7.66016H30.728L30.7925 8.86719ZM32.732 7.61914L32.7202 8.93164C32.6343 8.91602 32.5405 8.9043 32.439 8.89648C32.3413 8.88867 32.2437 8.88477 32.146 8.88477C31.9038 8.88477 31.6909 8.91992 31.5073 8.99023C31.3237 9.05664 31.1695 9.1543 31.0445 9.2832C30.9234 9.4082 30.8296 9.56055 30.7632 9.74023C30.6968 9.91992 30.6577 10.1211 30.646 10.3438L30.3237 10.3672C30.3237 9.96875 30.3628 9.59961 30.4409 9.25977C30.5191 8.91992 30.6362 8.62109 30.7925 8.36328C30.9527 8.10547 31.1519 7.9043 31.3902 7.75977C31.6323 7.61523 31.9116 7.54297 32.228 7.54297C32.314 7.54297 32.4058 7.55078 32.5034 7.56641C32.605 7.58203 32.6812 7.59961 32.732 7.61914ZM35.7523 14H34.3402V7.05078C34.3402 6.57812 34.4281 6.18164 34.6039 5.86133C34.7836 5.53711 35.0395 5.29297 35.3715 5.12891C35.7035 4.96094 36.0961 4.87695 36.5492 4.87695C36.6898 4.87695 36.8285 4.88672 36.9652 4.90625C37.102 4.92188 37.2348 4.94727 37.3637 4.98242L37.3285 6.07227C37.2504 6.05273 37.1645 6.03906 37.0707 6.03125C36.9809 6.02344 36.8832 6.01953 36.7777 6.01953C36.5629 6.01953 36.3773 6.06055 36.2211 6.14258C36.0688 6.2207 35.9516 6.33594 35.8695 6.48828C35.7914 6.64062 35.7523 6.82812 35.7523 7.05078V14ZM37.059 7.66016V8.69141H33.3676V7.66016H37.059ZM41.7786 12.7285V9.70508C41.7786 9.47852 41.7376 9.2832 41.6555 9.11914C41.5735 8.95508 41.4485 8.82812 41.2805 8.73828C41.1165 8.64844 40.9095 8.60352 40.6595 8.60352C40.429 8.60352 40.2298 8.64258 40.0618 8.7207C39.8938 8.79883 39.763 8.9043 39.6692 9.03711C39.5755 9.16992 39.5286 9.32031 39.5286 9.48828H38.1223C38.1223 9.23828 38.1829 8.99609 38.304 8.76172C38.4251 8.52734 38.6009 8.31836 38.8313 8.13477C39.0618 7.95117 39.3372 7.80664 39.6575 7.70117C39.9778 7.5957 40.3372 7.54297 40.7356 7.54297C41.2122 7.54297 41.6341 7.62305 42.0012 7.7832C42.3723 7.94336 42.6634 8.18555 42.8743 8.50977C43.0891 8.83008 43.1966 9.23242 43.1966 9.7168V12.5352C43.1966 12.8242 43.2161 13.084 43.2552 13.3145C43.2981 13.541 43.3587 13.7383 43.4368 13.9062V14H41.9895C41.9231 13.8477 41.8704 13.6543 41.8313 13.4199C41.7962 13.1816 41.7786 12.9512 41.7786 12.7285ZM41.9837 10.1445L41.9954 11.0176H40.9817C40.72 11.0176 40.4895 11.043 40.2903 11.0938C40.0911 11.1406 39.9251 11.2109 39.7923 11.3047C39.6595 11.3984 39.5598 11.5117 39.4934 11.6445C39.427 11.7773 39.3938 11.9277 39.3938 12.0957C39.3938 12.2637 39.4329 12.418 39.511 12.5586C39.5891 12.6953 39.7024 12.8027 39.8509 12.8809C40.0032 12.959 40.1868 12.998 40.4016 12.998C40.6907 12.998 40.9427 12.9395 41.1575 12.8223C41.3762 12.7012 41.5481 12.5547 41.6731 12.3828C41.7981 12.207 41.8645 12.041 41.8723 11.8848L42.3294 12.5117C42.2825 12.6719 42.2024 12.8438 42.0891 13.0273C41.9759 13.2109 41.8274 13.3867 41.6438 13.5547C41.4641 13.7188 41.2473 13.8535 40.9934 13.959C40.7434 14.0645 40.4544 14.1172 40.1262 14.1172C39.7122 14.1172 39.343 14.0352 39.0188 13.8711C38.6946 13.7031 38.4407 13.4785 38.2571 13.1973C38.0735 12.9121 37.9817 12.5898 37.9817 12.2305C37.9817 11.8945 38.0442 11.5977 38.1692 11.3398C38.2981 11.0781 38.4856 10.8594 38.7317 10.6836C38.9817 10.5078 39.2864 10.375 39.6458 10.2852C40.0052 10.1914 40.4153 10.1445 40.8762 10.1445H41.9837ZM47.383 12.9922C47.6134 12.9922 47.8205 12.9473 48.0041 12.8574C48.1916 12.7637 48.342 12.6348 48.4552 12.4707C48.5724 12.3066 48.6369 12.1172 48.6486 11.9023H49.9787C49.9709 12.3125 49.8498 12.6855 49.6154 13.0215C49.381 13.3574 49.0705 13.625 48.6838 13.8242C48.297 14.0195 47.8693 14.1172 47.4005 14.1172C46.9162 14.1172 46.4943 14.0352 46.1349 13.8711C45.7755 13.7031 45.4767 13.4727 45.2384 13.1797C45.0002 12.8867 44.8205 12.5488 44.6994 12.166C44.5822 11.7832 44.5236 11.373 44.5236 10.9355V10.7305C44.5236 10.293 44.5822 9.88281 44.6994 9.5C44.8205 9.11328 45.0002 8.77344 45.2384 8.48047C45.4767 8.1875 45.7755 7.95898 46.1349 7.79492C46.4943 7.62695 46.9142 7.54297 47.3947 7.54297C47.9025 7.54297 48.3478 7.64453 48.7306 7.84766C49.1134 8.04688 49.4142 8.32617 49.633 8.68555C49.8556 9.04102 49.9709 9.45508 49.9787 9.92773H48.6486C48.6369 9.69336 48.5783 9.48242 48.4728 9.29492C48.3713 9.10352 48.2267 8.95117 48.0392 8.83789C47.8556 8.72461 47.6349 8.66797 47.3771 8.66797C47.092 8.66797 46.8556 8.72656 46.6681 8.84375C46.4806 8.95703 46.3341 9.11328 46.2287 9.3125C46.1232 9.50781 46.047 9.72852 46.0002 9.97461C45.9572 10.2168 45.9357 10.4688 45.9357 10.7305V10.9355C45.9357 11.1973 45.9572 11.4512 46.0002 11.6973C46.0431 11.9434 46.1173 12.1641 46.2228 12.3594C46.3322 12.5508 46.4806 12.7051 46.6681 12.8223C46.8556 12.9355 47.0939 12.9922 47.383 12.9922ZM53.9776 14.1172C53.5088 14.1172 53.085 14.041 52.7061 13.8887C52.3311 13.7324 52.0108 13.5156 51.7452 13.2383C51.4834 12.9609 51.2823 12.6348 51.1416 12.2598C51.001 11.8848 50.9307 11.4805 50.9307 11.0469V10.8125C50.9307 10.3164 51.003 9.86719 51.1475 9.46484C51.292 9.0625 51.4932 8.71875 51.751 8.43359C52.0088 8.14453 52.3135 7.92383 52.6651 7.77148C53.0166 7.61914 53.3975 7.54297 53.8077 7.54297C54.2608 7.54297 54.6573 7.61914 54.9971 7.77148C55.337 7.92383 55.6182 8.13867 55.8409 8.41602C56.0674 8.68945 56.2354 9.01562 56.3448 9.39453C56.458 9.77344 56.5147 10.1914 56.5147 10.6484V11.252H51.6162V10.2383H55.1202V10.127C55.1123 9.87305 55.0616 9.63477 54.9678 9.41211C54.878 9.18945 54.7393 9.00977 54.5518 8.87305C54.3643 8.73633 54.1143 8.66797 53.8018 8.66797C53.5674 8.66797 53.3584 8.71875 53.1748 8.82031C52.9952 8.91797 52.8448 9.06055 52.7237 9.24805C52.6026 9.43555 52.5088 9.66211 52.4424 9.92773C52.3799 10.1895 52.3487 10.4844 52.3487 10.8125V11.0469C52.3487 11.3242 52.3858 11.582 52.46 11.8203C52.5381 12.0547 52.6514 12.2598 52.7998 12.4355C52.9483 12.6113 53.128 12.75 53.3389 12.8516C53.5498 12.9492 53.7901 12.998 54.0596 12.998C54.3995 12.998 54.7022 12.9297 54.9678 12.793C55.2334 12.6562 55.4639 12.4629 55.6592 12.2129L56.4034 12.9336C56.2666 13.1328 56.0889 13.3242 55.8702 13.5078C55.6514 13.6875 55.3838 13.834 55.0674 13.9473C54.7549 14.0605 54.3916 14.1172 53.9776 14.1172Z" fill="white"/>
<path d="M62 0H83C84.6569 0 86 1.34315 86 3V17C86 18.6569 84.6569 20 83 20H62V0Z" fill="#21C9A1"/>
<mask id="path-6-inside-2_8_107" fill="white">
<path d="M73.6543 6.46875H75.1191V12.1699C75.1191 12.8184 74.9785 13.3613 74.6973 13.7988C74.416 14.2363 74.0332 14.5664 73.5488 14.7891C73.0684 15.0078 72.5312 15.1172 71.9375 15.1172C71.3242 15.1172 70.7773 15.0078 70.2969 14.7891C69.8164 14.5664 69.4375 14.2363 69.1602 13.7988C68.8867 13.3613 68.75 12.8184 68.75 12.1699V6.46875H70.2148V12.1699C70.2148 12.5801 70.2852 12.918 70.4258 13.1836C70.5664 13.4453 70.7656 13.6387 71.0234 13.7637C71.2812 13.8887 71.5859 13.9512 71.9375 13.9512C72.2891 13.9512 72.5918 13.8887 72.8457 13.7637C73.1035 13.6387 73.3027 13.4453 73.4434 13.1836C73.584 12.918 73.6543 12.5801 73.6543 12.1699V6.46875ZM78.4091 6.46875V15H76.9384V6.46875H78.4091Z"/>
</mask>
<path d="M73.6543 6.46875H75.1191V12.1699C75.1191 12.8184 74.9785 13.3613 74.6973 13.7988C74.416 14.2363 74.0332 14.5664 73.5488 14.7891C73.0684 15.0078 72.5312 15.1172 71.9375 15.1172C71.3242 15.1172 70.7773 15.0078 70.2969 14.7891C69.8164 14.5664 69.4375 14.2363 69.1602 13.7988C68.8867 13.3613 68.75 12.8184 68.75 12.1699V6.46875H70.2148V12.1699C70.2148 12.5801 70.2852 12.918 70.4258 13.1836C70.5664 13.4453 70.7656 13.6387 71.0234 13.7637C71.2812 13.8887 71.5859 13.9512 71.9375 13.9512C72.2891 13.9512 72.5918 13.8887 72.8457 13.7637C73.1035 13.6387 73.3027 13.4453 73.4434 13.1836C73.584 12.918 73.6543 12.5801 73.6543 12.1699V6.46875ZM78.4091 6.46875V15H76.9384V6.46875H78.4091Z" fill="#010101" fill-opacity="0.3"/>
<path d="M73.6543 6.46875V6.26875H73.4543V6.46875H73.6543ZM75.1191 6.46875H75.3191V6.26875H75.1191V6.46875ZM73.5488 14.7891L73.6317 14.9711L73.6324 14.9708L73.5488 14.7891ZM70.2969 14.7891L70.2128 14.9705L70.214 14.9711L70.2969 14.7891ZM69.1602 13.7988L68.9906 13.9048L68.9912 13.9059L69.1602 13.7988ZM68.75 6.46875V6.26875H68.55V6.46875H68.75ZM70.2148 6.46875H70.4148V6.26875H70.2148V6.46875ZM70.4258 13.1836L70.249 13.2772L70.2496 13.2783L70.4258 13.1836ZM72.8457 13.7637L72.7584 13.5837L72.7574 13.5842L72.8457 13.7637ZM73.4434 13.1836L73.6195 13.2783L73.6201 13.2772L73.4434 13.1836ZM73.6543 6.66875H75.1191V6.26875H73.6543V6.66875ZM74.9191 6.46875V12.1699H75.3191V6.46875H74.9191ZM74.9191 12.1699C74.9191 12.7895 74.785 13.2926 74.529 13.6907L74.8655 13.907C75.1721 13.4301 75.3191 12.8473 75.3191 12.1699H74.9191ZM74.529 13.6907C74.269 14.0952 73.9159 14.4002 73.4653 14.6073L73.6324 14.9708C74.1505 14.7326 74.5631 14.3774 74.8655 13.907L74.529 13.6907ZM73.466 14.607C73.0146 14.8125 72.5062 14.9172 71.9375 14.9172V15.3172C72.5563 15.3172 73.1221 15.2031 73.6317 14.9711L73.466 14.607ZM71.9375 14.9172C71.3482 14.9172 70.8303 14.8122 70.3797 14.607L70.214 14.9711C70.7244 15.2034 71.3002 15.3172 71.9375 15.3172V14.9172ZM70.381 14.6076C69.9345 14.4007 69.5854 14.0961 69.3291 13.6917L68.9912 13.9059C69.2896 14.3766 69.6983 14.7321 70.2128 14.9705L70.381 14.6076ZM69.3298 13.6928C69.0807 13.2944 68.95 12.7904 68.95 12.1699H68.55C68.55 12.8463 68.6927 13.4283 68.9906 13.9048L69.3298 13.6928ZM68.95 12.1699V6.46875H68.55V12.1699H68.95ZM68.75 6.66875H70.2148V6.26875H68.75V6.66875ZM70.0148 6.46875V12.1699H70.4148V6.46875H70.0148ZM70.0148 12.1699C70.0148 12.6014 70.0886 12.9741 70.249 13.2772L70.6025 13.09C70.4817 12.8618 70.4148 12.5588 70.4148 12.1699H70.0148ZM70.2496 13.2783C70.4094 13.5756 70.639 13.7996 70.9362 13.9436L71.1107 13.5837C70.8922 13.4778 70.7234 13.315 70.602 13.0889L70.2496 13.2783ZM70.9362 13.9436C71.2267 14.0845 71.5624 14.1512 71.9375 14.1512V13.7512C71.6094 13.7512 71.3358 13.6929 71.1107 13.5837L70.9362 13.9436ZM71.9375 14.1512C72.3124 14.1512 72.6468 14.0845 72.934 13.9431L72.7574 13.5842C72.5368 13.6928 72.2657 13.7512 71.9375 13.7512V14.1512ZM72.933 13.9436C73.2301 13.7996 73.4598 13.5756 73.6195 13.2783L73.2672 13.0889C73.1457 13.315 72.9769 13.4778 72.7584 13.5837L72.933 13.9436ZM73.6201 13.2772C73.7805 12.9741 73.8543 12.6014 73.8543 12.1699H73.4543C73.4543 12.5588 73.3874 12.8618 73.2666 13.09L73.6201 13.2772ZM73.8543 12.1699V6.46875H73.4543V12.1699H73.8543ZM78.4091 6.46875H78.6091V6.26875H78.4091V6.46875ZM78.4091 15V15.2H78.6091V15H78.4091ZM76.9384 15H76.7384V15.2H76.9384V15ZM76.9384 6.46875V6.26875H76.7384V6.46875H76.9384ZM78.2091 6.46875V15H78.6091V6.46875H78.2091ZM78.4091 14.8H76.9384V15.2H78.4091V14.8ZM77.1384 15V6.46875H76.7384V15H77.1384ZM76.9384 6.66875H78.4091V6.26875H76.9384V6.66875Z" fill="#010101" fill-opacity="0.098" mask="url(#path-6-inside-2_8_107)"/>
<path d="M73.6543 5.46875H75.1191V11.1699C75.1191 11.8184 74.9785 12.3613 74.6973 12.7988C74.416 13.2363 74.0332 13.5664 73.5488 13.7891C73.0684 14.0078 72.5312 14.1172 71.9375 14.1172C71.3242 14.1172 70.7773 14.0078 70.2969 13.7891C69.8164 13.5664 69.4375 13.2363 69.1602 12.7988C68.8867 12.3613 68.75 11.8184 68.75 11.1699V5.46875H70.2148V11.1699C70.2148 11.5801 70.2852 11.918 70.4258 12.1836C70.5664 12.4453 70.7656 12.6387 71.0234 12.7637C71.2812 12.8887 71.5859 12.9512 71.9375 12.9512C72.2891 12.9512 72.5918 12.8887 72.8457 12.7637C73.1035 12.6387 73.3027 12.4453 73.4434 12.1836C73.584 11.918 73.6543 11.5801 73.6543 11.1699V5.46875ZM78.4091 5.46875V14H76.9384V5.46875H78.4091Z" fill="white"/>
<path d="M2.15 0H83.85C85.0374 0 86 1.34315 86 3V17C86 18.6569 85.0374 20 83.85 20H2.15C0.962588 20 0 18.6569 0 17V3C0 1.34315 0.962588 0 2.15 0Z" fill="url(#paint0_linear_8_107)"/>
<defs>
<linearGradient id="paint0_linear_8_107" x1="0" y1="0" x2="0" y2="20" gradientUnits="userSpaceOnUse">
<stop stop-color="#BBBBBB" stop-opacity="0.1"/>
<stop offset="1" stop-opacity="0.1"/>
</linearGradient>
</defs>
</svg>
