<svg width="65" height="20" viewBox="0 0 65 20" fill="none" xmlns="http://www.w3.org/2000/svg">
<rect width="65" height="20" rx="3" fill="#555555"/>
<mask id="path-2-inside-1_2_606" fill="white">
<path d="M10.2383 6V15H8.82031V6H10.2383ZM13.4169 8.66016V15H11.9989V8.66016H13.4169ZM11.9052 6.99609C11.9052 6.78125 11.9755 6.60352 12.1161 6.46289C12.2606 6.31836 12.4598 6.24609 12.7137 6.24609C12.9637 6.24609 13.161 6.31836 13.3055 6.46289C13.4501 6.60352 13.5223 6.78125 13.5223 6.99609C13.5223 7.20703 13.4501 7.38281 13.3055 7.52344C13.161 7.66406 12.9637 7.73438 12.7137 7.73438C12.4598 7.73438 12.2606 7.66406 12.1161 7.52344C11.9755 7.38281 11.9052 7.20703 11.9052 6.99609ZM16.4841 10.0137V15H15.072V8.66016H16.4021L16.4841 10.0137ZM16.2322 11.5957L15.7752 11.5898C15.7791 11.1406 15.8416 10.7285 15.9627 10.3535C16.0877 9.97852 16.2595 9.65625 16.4783 9.38672C16.7009 9.11719 16.9666 8.91016 17.2752 8.76562C17.5837 8.61719 17.9275 8.54297 18.3064 8.54297C18.6111 8.54297 18.8865 8.58594 19.1326 8.67188C19.3826 8.75391 19.5955 8.88867 19.7712 9.07617C19.9509 9.26367 20.0877 9.50781 20.1814 9.80859C20.2752 10.1055 20.322 10.4707 20.322 10.9043V15H18.9041V10.8984C18.9041 10.5938 18.8591 10.3535 18.7693 10.1777C18.6834 9.99805 18.5564 9.87109 18.3884 9.79688C18.2244 9.71875 18.0193 9.67969 17.7732 9.67969C17.531 9.67969 17.3142 9.73047 17.1228 9.83203C16.9314 9.93359 16.7693 10.0723 16.6365 10.248C16.5076 10.4238 16.408 10.627 16.3377 10.8574C16.2673 11.0879 16.2322 11.334 16.2322 11.5957ZM25.6979 13.5059V8.66016H27.1159V15H25.7799L25.6979 13.5059ZM25.8971 12.1875L26.3717 12.1758C26.3717 12.6016 26.3248 12.9941 26.2311 13.3535C26.1373 13.709 25.9928 14.0195 25.7975 14.2852C25.6022 14.5469 25.3522 14.752 25.0475 14.9004C24.7428 15.0449 24.3776 15.1172 23.9518 15.1172C23.6432 15.1172 23.36 15.0723 23.1022 14.9824C22.8444 14.8926 22.6217 14.7539 22.4342 14.5664C22.2506 14.3789 22.108 14.1348 22.0065 13.834C21.9049 13.5332 21.8541 13.1738 21.8541 12.7559V8.66016H23.2662V12.7676C23.2662 12.998 23.2936 13.1914 23.3483 13.3477C23.403 13.5 23.4772 13.623 23.5709 13.7168C23.6647 13.8105 23.7741 13.877 23.8991 13.916C24.0241 13.9551 24.1569 13.9746 24.2975 13.9746C24.6998 13.9746 25.0162 13.8965 25.2467 13.7402C25.4811 13.5801 25.6471 13.3652 25.7448 13.0957C25.8463 12.8262 25.8971 12.5234 25.8971 12.1875ZM29.7612 8.66016L30.9683 10.7637L32.1987 8.66016H33.7515L31.8296 11.7715L33.8277 15H32.2749L30.9859 12.8086L29.6968 15H28.1382L30.1304 11.7715L28.2144 8.66016H29.7612Z"/>
</mask>
<path d="M10.2383 6V15H8.82031V6H10.2383ZM13.4169 8.66016V15H11.9989V8.66016H13.4169ZM11.9052 6.99609C11.9052 6.78125 11.9755 6.60352 12.1161 6.46289C12.2606 6.31836 12.4598 6.24609 12.7137 6.24609C12.9637 6.24609 13.161 6.31836 13.3055 6.46289C13.4501 6.60352 13.5223 6.78125 13.5223 6.99609C13.5223 7.20703 13.4501 7.38281 13.3055 7.52344C13.161 7.66406 12.9637 7.73438 12.7137 7.73438C12.4598 7.73438 12.2606 7.66406 12.1161 7.52344C11.9755 7.38281 11.9052 7.20703 11.9052 6.99609ZM16.4841 10.0137V15H15.072V8.66016H16.4021L16.4841 10.0137ZM16.2322 11.5957L15.7752 11.5898C15.7791 11.1406 15.8416 10.7285 15.9627 10.3535C16.0877 9.97852 16.2595 9.65625 16.4783 9.38672C16.7009 9.11719 16.9666 8.91016 17.2752 8.76562C17.5837 8.61719 17.9275 8.54297 18.3064 8.54297C18.6111 8.54297 18.8865 8.58594 19.1326 8.67188C19.3826 8.75391 19.5955 8.88867 19.7712 9.07617C19.9509 9.26367 20.0877 9.50781 20.1814 9.80859C20.2752 10.1055 20.322 10.4707 20.322 10.9043V15H18.9041V10.8984C18.9041 10.5938 18.8591 10.3535 18.7693 10.1777C18.6834 9.99805 18.5564 9.87109 18.3884 9.79688C18.2244 9.71875 18.0193 9.67969 17.7732 9.67969C17.531 9.67969 17.3142 9.73047 17.1228 9.83203C16.9314 9.93359 16.7693 10.0723 16.6365 10.248C16.5076 10.4238 16.408 10.627 16.3377 10.8574C16.2673 11.0879 16.2322 11.334 16.2322 11.5957ZM25.6979 13.5059V8.66016H27.1159V15H25.7799L25.6979 13.5059ZM25.8971 12.1875L26.3717 12.1758C26.3717 12.6016 26.3248 12.9941 26.2311 13.3535C26.1373 13.709 25.9928 14.0195 25.7975 14.2852C25.6022 14.5469 25.3522 14.752 25.0475 14.9004C24.7428 15.0449 24.3776 15.1172 23.9518 15.1172C23.6432 15.1172 23.36 15.0723 23.1022 14.9824C22.8444 14.8926 22.6217 14.7539 22.4342 14.5664C22.2506 14.3789 22.108 14.1348 22.0065 13.834C21.9049 13.5332 21.8541 13.1738 21.8541 12.7559V8.66016H23.2662V12.7676C23.2662 12.998 23.2936 13.1914 23.3483 13.3477C23.403 13.5 23.4772 13.623 23.5709 13.7168C23.6647 13.8105 23.7741 13.877 23.8991 13.916C24.0241 13.9551 24.1569 13.9746 24.2975 13.9746C24.6998 13.9746 25.0162 13.8965 25.2467 13.7402C25.4811 13.5801 25.6471 13.3652 25.7448 13.0957C25.8463 12.8262 25.8971 12.5234 25.8971 12.1875ZM29.7612 8.66016L30.9683 10.7637L32.1987 8.66016H33.7515L31.8296 11.7715L33.8277 15H32.2749L30.9859 12.8086L29.6968 15H28.1382L30.1304 11.7715L28.2144 8.66016H29.7612Z" fill="#010101" fill-opacity="0.3"/>
<path d="M10.2383 6H10.4383V5.8H10.2383V6ZM10.2383 15V15.2H10.4383V15H10.2383ZM8.82031 15H8.62031V15.2H8.82031V15ZM8.82031 6V5.8H8.62031V6H8.82031ZM10.0383 6V15H10.4383V6H10.0383ZM10.2383 14.8H8.82031V15.2H10.2383V14.8ZM9.02031 15V6H8.62031V15H9.02031ZM8.82031 6.2H10.2383V5.8H8.82031V6.2ZM13.4169 8.66016H13.6169V8.46016H13.4169V8.66016ZM13.4169 15V15.2H13.6169V15H13.4169ZM11.9989 15H11.7989V15.2H11.9989V15ZM11.9989 8.66016V8.46016H11.7989V8.66016H11.9989ZM13.3055 6.46289L13.1641 6.60433L13.1661 6.60624L13.3055 6.46289ZM12.1161 7.52344L11.9747 7.66487L11.9766 7.66678L12.1161 7.52344ZM13.2169 8.66016V15H13.6169V8.66016H13.2169ZM13.4169 14.8H11.9989V15.2H13.4169V14.8ZM12.1989 15V8.66016H11.7989V15H12.1989ZM11.9989 8.86016H13.4169V8.46016H11.9989V8.86016ZM12.1052 6.99609C12.1052 6.82959 12.1576 6.70423 12.2575 6.60431L11.9747 6.32147C11.7933 6.5028 11.7052 6.73291 11.7052 6.99609H12.1052ZM12.2575 6.60431C12.3559 6.50592 12.4993 6.44609 12.7137 6.44609V6.04609C12.4204 6.04609 12.1653 6.1308 11.9747 6.32147L12.2575 6.60431ZM12.7137 6.44609C12.9233 6.44609 13.0652 6.50534 13.1641 6.60431L13.447 6.32147C13.2569 6.13138 13.0042 6.04609 12.7137 6.04609V6.44609ZM13.1661 6.60624C13.2692 6.70655 13.3223 6.83131 13.3223 6.99609H13.7223C13.7223 6.73119 13.631 6.50048 13.445 6.31955L13.1661 6.60624ZM13.3223 6.99609C13.3223 7.15582 13.27 7.27902 13.1661 7.38009L13.445 7.66678C13.6302 7.48661 13.7223 7.25824 13.7223 6.99609H13.3223ZM13.1661 7.38009C13.0674 7.47614 12.9248 7.53437 12.7137 7.53437V7.93438C13.0027 7.93438 13.2547 7.85199 13.445 7.66678L13.1661 7.38009ZM12.7137 7.53437C12.4978 7.53437 12.3537 7.47558 12.2556 7.38009L11.9766 7.66678C12.1675 7.85254 12.4219 7.93438 12.7137 7.93438V7.53437ZM12.2575 7.38202C12.1568 7.28135 12.1052 7.15756 12.1052 6.99609H11.7052C11.7052 7.2565 11.7941 7.48427 11.9747 7.66486L12.2575 7.38202ZM16.4841 10.0137H16.6845L16.6838 10.0016L16.4841 10.0137ZM16.4841 15V15.2H16.6841V15H16.4841ZM15.072 15H14.872V15.2H15.072V15ZM15.072 8.66016V8.46016H14.872V8.66016H15.072ZM16.4021 8.66016L16.6017 8.64806L16.5904 8.46016H16.4021V8.66016ZM16.2322 11.5957L16.2296 11.7957L16.4322 11.7983V11.5957H16.2322ZM15.7752 11.5898L15.5752 11.5881L15.5734 11.7873L15.7726 11.7898L15.7752 11.5898ZM15.9627 10.3535L15.7729 10.2903L15.7723 10.2921L15.9627 10.3535ZM16.4783 9.38672L16.3241 9.25934L16.323 9.26068L16.4783 9.38672ZM17.2752 8.76562L17.36 8.94675L17.3619 8.94586L17.2752 8.76562ZM19.1326 8.67188L19.0666 8.86073L19.0702 8.86191L19.1326 8.67188ZM19.7712 9.07617L19.6253 9.21297L19.6269 9.21455L19.7712 9.07617ZM20.1814 9.80859L19.9905 9.86811L19.9907 9.86882L20.1814 9.80859ZM20.322 15V15.2H20.522V15H20.322ZM18.9041 15H18.7041V15.2H18.9041V15ZM18.7693 10.1777L18.5888 10.2641L18.5912 10.2688L18.7693 10.1777ZM18.3884 9.79688L18.3024 9.97752L18.3076 9.97981L18.3884 9.79688ZM16.6365 10.248L16.4769 10.1275L16.4752 10.1298L16.6365 10.248ZM16.2841 10.0137V15H16.6841V10.0137H16.2841ZM16.4841 14.8H15.072V15.2H16.4841V14.8ZM15.272 15V8.66016H14.872V15H15.272ZM15.072 8.86016H16.4021V8.46016H15.072V8.86016ZM16.2025 8.67226L16.2845 10.0258L16.6838 10.0016L16.6017 8.64806L16.2025 8.67226ZM16.2348 11.3957L15.7777 11.3899L15.7726 11.7898L16.2296 11.7957L16.2348 11.3957ZM15.9751 11.5916C15.9789 11.1599 16.0389 10.7682 16.153 10.415L15.7723 10.2921C15.6442 10.6888 15.5792 11.1214 15.5752 11.5881L15.9751 11.5916ZM16.1524 10.4168C16.2708 10.0615 16.4319 9.76119 16.6336 9.51275L16.323 9.26068C16.0871 9.55131 15.9045 9.89557 15.7729 10.2903L16.1524 10.4168ZM16.6325 9.5141C16.8368 9.26678 17.0789 9.07839 17.36 8.94674L17.1903 8.58451C16.8542 8.74193 16.5651 8.96759 16.3241 9.25934L16.6325 9.5141ZM17.3619 8.94586C17.6406 8.81176 17.9543 8.74297 18.3064 8.74297V8.34297C17.9007 8.34297 17.5269 8.42261 17.1885 8.58539L17.3619 8.94586ZM18.3064 8.74297C18.5924 8.74297 18.845 8.78329 19.0666 8.86069L19.1985 8.48306C18.928 8.38859 18.6298 8.34297 18.3064 8.34297V8.74297ZM19.0702 8.86191C19.2891 8.93374 19.4731 9.05053 19.6253 9.21296L19.9172 8.93938C19.7179 8.72681 19.476 8.57408 19.1949 8.48184L19.0702 8.86191ZM19.6269 9.21455C19.781 9.37545 19.904 9.59065 19.9905 9.86811L20.3723 9.74908C20.2713 9.42497 20.1208 9.15189 19.9156 8.93779L19.6269 9.21455ZM19.9907 9.86882C20.0764 10.1402 20.122 10.4838 20.122 10.9043H20.522C20.522 10.4577 20.4739 10.0707 20.3721 9.74837L19.9907 9.86882ZM20.122 10.9043V15H20.522V10.9043H20.122ZM20.322 14.8H18.9041V15.2H20.322V14.8ZM19.1041 15V10.8984H18.7041V15H19.1041ZM19.1041 10.8984C19.1041 10.5777 19.0574 10.3019 18.9474 10.0867L18.5912 10.2688C18.6609 10.4052 18.7041 10.6098 18.7041 10.8984H19.1041ZM18.9497 10.0914C18.8451 9.87262 18.6847 9.70914 18.4693 9.61394L18.3076 9.97981C18.4281 10.033 18.5217 10.1235 18.5889 10.264L18.9497 10.0914ZM18.4744 9.6163C18.2757 9.52169 18.0391 9.47969 17.7732 9.47969V9.87969C17.9995 9.87969 18.173 9.91581 18.3025 9.97745L18.4744 9.6163ZM17.7732 9.47969C17.5022 9.47969 17.2526 9.53675 17.0291 9.65536L17.2166 10.0087C17.3758 9.92419 17.5598 9.87969 17.7732 9.87969V9.47969ZM17.0291 9.65536C16.8114 9.77083 16.627 9.92882 16.4769 10.1275L16.7961 10.3686C16.9116 10.2157 17.0514 10.0964 17.2166 10.0087L17.0291 9.65536ZM16.4752 10.1298C16.3317 10.3255 16.2225 10.5493 16.1464 10.7991L16.529 10.9158C16.5934 10.7046 16.6835 10.5222 16.7978 10.3663L16.4752 10.1298ZM16.1464 10.7991C16.0698 11.05 16.0322 11.3159 16.0322 11.5957H16.4322C16.4322 11.3521 16.4649 11.1258 16.529 10.9158L16.1464 10.7991ZM25.6979 13.5059H25.4976L25.4982 13.5168L25.6979 13.5059ZM25.6979 8.66016V8.46016H25.4979V8.66016H25.6979ZM27.1159 8.66016H27.3159V8.46016H27.1159V8.66016ZM27.1159 15V15.2H27.3159V15H27.1159ZM25.7799 15L25.5802 15.011L25.5906 15.2H25.7799V15ZM25.8971 12.1875L25.8922 11.9876L25.6971 11.9924V12.1875H25.8971ZM26.3717 12.1758H26.5717V11.9708L26.3668 11.9758L26.3717 12.1758ZM26.2311 13.3535L26.4245 13.4045L26.4246 13.404L26.2311 13.3535ZM25.7975 14.2852L25.9578 14.4048L25.9586 14.4036L25.7975 14.2852ZM25.0475 14.9004L25.1332 15.0811L25.1351 15.0802L25.0475 14.9004ZM22.4342 14.5664L22.2913 14.7063L22.2928 14.7078L22.4342 14.5664ZM21.8541 8.66016V8.46016H21.6541V8.66016H21.8541ZM23.2662 8.66016H23.4662V8.46016H23.2662V8.66016ZM23.3483 13.3477L23.1595 13.4137L23.16 13.4152L23.3483 13.3477ZM25.2467 13.7402L25.359 13.9058L25.3596 13.9054L25.2467 13.7402ZM25.7448 13.0957L25.5576 13.0252L25.5567 13.0276L25.7448 13.0957ZM25.8979 13.5059V8.66016H25.4979V13.5059H25.8979ZM25.6979 8.86016H27.1159V8.46016H25.6979V8.86016ZM26.9159 8.66016V15H27.3159V8.66016H26.9159ZM27.1159 14.8H25.7799V15.2H27.1159V14.8ZM25.9796 14.989L25.8976 13.4949L25.4982 13.5168L25.5802 15.011L25.9796 14.989ZM25.902 12.3874L26.3767 12.3757L26.3668 11.9758L25.8922 11.9876L25.902 12.3874ZM26.1717 12.1758C26.1717 12.587 26.1264 12.9623 26.0376 13.303L26.4246 13.404C26.5232 13.0259 26.5717 12.6162 26.5717 12.1758H26.1717ZM26.0377 13.3025C25.9496 13.6365 25.8152 13.9235 25.6364 14.1667L25.9586 14.4036C26.1705 14.1155 26.3251 13.7815 26.4245 13.4045L26.0377 13.3025ZM25.6372 14.1655C25.4617 14.4007 25.237 14.5856 24.9599 14.7206L25.1351 15.0802C25.4673 14.9183 25.7427 14.693 25.9578 14.4048L25.6372 14.1655ZM24.9618 14.7197C24.69 14.8486 24.3555 14.9172 23.9518 14.9172V15.3172C24.3997 15.3172 24.7957 15.2412 25.1332 15.0811L24.9618 14.7197ZM23.9518 14.9172C23.6627 14.9172 23.4021 14.8751 23.168 14.7936L23.0364 15.1713C23.3179 15.2694 23.6237 15.3172 23.9518 15.3172V14.9172ZM23.168 14.7936C22.9378 14.7133 22.7412 14.5905 22.5756 14.425L22.2928 14.7078C22.5022 14.9173 22.751 15.0718 23.0364 15.1713L23.168 14.7936ZM22.5771 14.4265C22.4185 14.2645 22.2899 14.0482 22.196 13.77L21.817 13.898C21.9262 14.2214 22.0827 14.4933 22.2913 14.7063L22.5771 14.4265ZM22.196 13.77C22.1032 13.4952 22.0541 13.1586 22.0541 12.7559H21.6541C21.6541 13.1891 21.7067 13.5712 21.817 13.898L22.196 13.77ZM22.0541 12.7559V8.66016H21.6541V12.7559H22.0541ZM21.8541 8.86016H23.2662V8.46016H21.8541V8.86016ZM23.0662 8.66016V12.7676H23.4662V8.66016H23.0662ZM23.0662 12.7676C23.0662 13.0124 23.0951 13.2297 23.1595 13.4137L23.5371 13.2816C23.4921 13.1531 23.4662 12.9837 23.4662 12.7676H23.0662ZM23.16 13.4152C23.2225 13.5893 23.3108 13.7395 23.4295 13.8582L23.7124 13.5754C23.6436 13.5066 23.5834 13.4107 23.5365 13.2801L23.16 13.4152ZM23.4295 13.8582C23.5458 13.9745 23.6832 14.0581 23.8394 14.1069L23.9587 13.7251C23.865 13.6958 23.7835 13.6466 23.7124 13.5754L23.4295 13.8582ZM23.8394 14.1069C23.9851 14.1524 24.1381 14.1746 24.2975 14.1746V13.7746C24.1756 13.7746 24.063 13.7577 23.9587 13.7251L23.8394 14.1069ZM24.2975 14.1746C24.7229 14.1746 25.0836 14.0924 25.359 13.9058L25.1345 13.5747C24.9488 13.7005 24.6768 13.7746 24.2975 13.7746V14.1746ZM25.3596 13.9054C25.6289 13.7213 25.821 13.4724 25.9328 13.1638L25.5567 13.0276C25.4732 13.2581 25.3333 13.4389 25.1339 13.5751L25.3596 13.9054ZM25.9319 13.1662C26.0433 12.8707 26.0971 12.5436 26.0971 12.1875H25.6971C25.6971 12.5033 25.6494 12.7816 25.5576 13.0252L25.9319 13.1662ZM29.7612 8.66016L29.9347 8.56062L29.8771 8.46016H29.7612V8.66016ZM30.9683 10.7637L30.7948 10.8632L30.9666 11.1626L31.1409 10.8647L30.9683 10.7637ZM32.1987 8.66016V8.46016H32.084L32.0261 8.55917L32.1987 8.66016ZM33.7515 8.66016L33.9216 8.76526L34.1101 8.46016H33.7515V8.66016ZM31.8296 11.7715L31.6595 11.6664L31.5945 11.7716L31.6595 11.8767L31.8296 11.7715ZM33.8277 15V15.2H34.1866L33.9977 14.8948L33.8277 15ZM32.2749 15L32.1025 15.1014L32.1605 15.2H32.2749V15ZM30.9859 12.8086L31.1582 12.7072L30.9859 12.4141L30.8135 12.7072L30.9859 12.8086ZM29.6968 15V15.2H29.8112L29.8692 15.1014L29.6968 15ZM28.1382 15L27.968 14.895L27.7798 15.2H28.1382V15ZM30.1304 11.7715L30.3006 11.8765L30.3653 11.7716L30.3007 11.6666L30.1304 11.7715ZM28.2144 8.66016V8.46016H27.8563L28.0441 8.76503L28.2144 8.66016ZM29.5878 8.7597L30.7948 10.8632L31.1418 10.6641L29.9347 8.56062L29.5878 8.7597ZM31.1409 10.8647L32.3714 8.76114L32.0261 8.55917L30.7956 10.6627L31.1409 10.8647ZM32.1987 8.86016H33.7515V8.46016H32.1987V8.86016ZM33.5813 8.55505L31.6595 11.6664L31.9998 11.8766L33.9216 8.76526L33.5813 8.55505ZM31.6595 11.8767L33.6576 15.1052L33.9977 14.8948L31.9997 11.6662L31.6595 11.8767ZM33.8277 14.8H32.2749V15.2H33.8277V14.8ZM32.4473 14.8986L31.1582 12.7072L30.8135 12.91L32.1025 15.1014L32.4473 14.8986ZM30.8135 12.7072L29.5244 14.8986L29.8692 15.1014L31.1582 12.91L30.8135 12.7072ZM29.6968 14.8H28.1382V15.2H29.6968V14.8ZM28.3084 15.105L30.3006 11.8765L29.9602 11.6665L27.968 14.895L28.3084 15.105ZM30.3007 11.6666L28.3847 8.55528L28.0441 8.76503L29.9601 11.8764L30.3007 11.6666ZM28.2144 8.86016H29.7612V8.46016H28.2144V8.86016Z" fill="#010101" fill-opacity="0.098" mask="url(#path-2-inside-1_2_606)"/>
<path d="M10.2383 5V14H8.82031V5H10.2383ZM13.4169 7.66016V14H11.9989V7.66016H13.4169ZM11.9052 5.99609C11.9052 5.78125 11.9755 5.60352 12.1161 5.46289C12.2606 5.31836 12.4598 5.24609 12.7137 5.24609C12.9637 5.24609 13.161 5.31836 13.3055 5.46289C13.4501 5.60352 13.5223 5.78125 13.5223 5.99609C13.5223 6.20703 13.4501 6.38281 13.3055 6.52344C13.161 6.66406 12.9637 6.73438 12.7137 6.73438C12.4598 6.73438 12.2606 6.66406 12.1161 6.52344C11.9755 6.38281 11.9052 6.20703 11.9052 5.99609ZM16.4841 9.01367V14H15.072V7.66016H16.4021L16.4841 9.01367ZM16.2322 10.5957L15.7752 10.5898C15.7791 10.1406 15.8416 9.72852 15.9627 9.35352C16.0877 8.97852 16.2595 8.65625 16.4783 8.38672C16.7009 8.11719 16.9666 7.91016 17.2752 7.76562C17.5837 7.61719 17.9275 7.54297 18.3064 7.54297C18.6111 7.54297 18.8865 7.58594 19.1326 7.67188C19.3826 7.75391 19.5955 7.88867 19.7712 8.07617C19.9509 8.26367 20.0877 8.50781 20.1814 8.80859C20.2752 9.10547 20.322 9.4707 20.322 9.9043V14H18.9041V9.89844C18.9041 9.59375 18.8591 9.35352 18.7693 9.17773C18.6834 8.99805 18.5564 8.87109 18.3884 8.79688C18.2244 8.71875 18.0193 8.67969 17.7732 8.67969C17.531 8.67969 17.3142 8.73047 17.1228 8.83203C16.9314 8.93359 16.7693 9.07227 16.6365 9.24805C16.5076 9.42383 16.408 9.62695 16.3377 9.85742C16.2673 10.0879 16.2322 10.334 16.2322 10.5957ZM25.6979 12.5059V7.66016H27.1159V14H25.7799L25.6979 12.5059ZM25.8971 11.1875L26.3717 11.1758C26.3717 11.6016 26.3248 11.9941 26.2311 12.3535C26.1373 12.709 25.9928 13.0195 25.7975 13.2852C25.6022 13.5469 25.3522 13.752 25.0475 13.9004C24.7428 14.0449 24.3776 14.1172 23.9518 14.1172C23.6432 14.1172 23.36 14.0723 23.1022 13.9824C22.8444 13.8926 22.6217 13.7539 22.4342 13.5664C22.2506 13.3789 22.108 13.1348 22.0065 12.834C21.9049 12.5332 21.8541 12.1738 21.8541 11.7559V7.66016H23.2662V11.7676C23.2662 11.998 23.2936 12.1914 23.3483 12.3477C23.403 12.5 23.4772 12.623 23.5709 12.7168C23.6647 12.8105 23.7741 12.877 23.8991 12.916C24.0241 12.9551 24.1569 12.9746 24.2975 12.9746C24.6998 12.9746 25.0162 12.8965 25.2467 12.7402C25.4811 12.5801 25.6471 12.3652 25.7448 12.0957C25.8463 11.8262 25.8971 11.5234 25.8971 11.1875ZM29.7612 7.66016L30.9683 9.76367L32.1987 7.66016H33.7515L31.8296 10.7715L33.8277 14H32.2749L30.9859 11.8086L29.6968 14H28.1382L30.1304 10.7715L28.2144 7.66016H29.7612Z" fill="white"/>
<path d="M39 0H62C63.6569 0 65 1.34315 65 3V17C65 18.6569 63.6569 20 62 20H39V0Z" fill="#D7D7D7"/>
<g clip-path="url(#clip0_2_606)">
<path d="M54.8983 7.95552C55.0508 8.28778 55.2211 8.61174 55.3725 8.9446C55.6638 9.58521 55.885 10.2616 55.9769 10.9592C56.0688 11.6569 56.0289 12.3773 55.811 13.0462C55.5645 13.8013 55.0968 14.4731 54.5236 15.0228C53.8456 15.6733 52.9753 16.1747 52.0365 16.2117C51.4247 16.2358 50.8157 16.0609 50.274 15.7758C49.8187 15.5362 49.4031 15.2169 49.0715 14.8235C48.7399 14.4302 48.4937 13.9619 48.3797 13.4602C48.2393 12.8424 48.3028 12.1865 48.5153 11.5897C48.6672 11.1629 48.8925 10.7655 49.0529 10.3418C49.2281 9.87876 49.326 9.38436 49.5582 8.94713C49.7686 8.55068 50.0843 8.21205 50.2519 7.79572C50.3521 7.54707 50.3955 7.28 50.4602 7.01982C50.5249 6.75964 50.6154 6.49759 50.7915 6.29547C51.0038 6.05193 51.3231 5.91992 51.6439 5.88285C51.9648 5.84578 52.2896 5.89583 52.6045 5.96767C52.8552 6.02484 53.1029 6.09584 53.3452 6.18202C53.552 6.25559 53.7569 6.34126 53.9358 6.46853C54.1794 6.64193 54.365 6.88608 54.5129 7.14607C54.6607 7.40606 54.7739 7.68382 54.8987 7.95557L54.8983 7.95552Z" fill="#020204"/>
<path d="M52.2042 16.2176C52.462 16.2326 52.7193 16.2577 52.9747 16.2962C53.1992 16.3303 53.4222 16.3743 53.6429 16.428C53.9886 16.5118 54.3331 16.6186 54.6887 16.6288C54.7823 16.6314 54.8761 16.6273 54.968 16.6069C55.0598 16.5866 55.148 16.5495 55.2213 16.4912C55.3305 16.4042 55.3994 16.2729 55.4255 16.1356C55.4516 15.9984 55.4352 15.8556 55.395 15.7218C55.3146 15.4544 55.1419 15.2263 54.9996 14.9863C54.9179 14.8489 54.845 14.706 54.7564 14.573C54.6678 14.4399 54.5619 14.3152 54.4274 14.2285C54.2415 14.1086 54.0109 14.0696 53.7908 14.0915C53.5707 14.1134 53.3597 14.193 53.1632 14.2947C52.8879 14.4372 52.6287 14.633 52.4786 14.9044C52.4263 14.9988 52.3884 15.1003 52.344 15.1987C52.2996 15.2971 52.2476 15.3939 52.1725 15.4713C52.0886 15.5576 51.9798 15.6158 51.893 15.6992C51.8497 15.7414 51.8117 15.7894 51.7899 15.8453C51.7681 15.9012 51.7622 15.9651 51.7824 16.0218C51.7964 16.0607 51.8218 16.0948 51.8532 16.1216C51.8846 16.1484 51.9217 16.168 51.9606 16.1816C52.0384 16.2089 52.1223 16.213 52.2047 16.2177L52.2042 16.2176Z" fill="#020204"/>
<path d="M51.4381 16.201C51.2232 16.206 51.0107 16.2444 50.8007 16.2879C50.5996 16.3295 50.3994 16.3758 50.2007 16.4279C49.8655 16.5159 49.5298 16.6213 49.1832 16.6287C49.092 16.6305 49.0002 16.6256 48.9113 16.6051C48.8224 16.5845 48.7364 16.5479 48.665 16.491C48.5561 16.4041 48.4868 16.2731 48.4612 16.1361C48.4355 15.9992 48.4512 15.8567 48.4909 15.7231C48.5705 15.456 48.741 15.2273 48.8806 14.9861C48.96 14.8491 49.03 14.7066 49.1158 14.5734C49.2016 14.4403 49.3049 14.3154 49.4373 14.2283C49.6176 14.1098 49.8425 14.0696 50.0573 14.0907C50.272 14.1119 50.4779 14.191 50.6673 14.2945C50.9347 14.4406 51.1789 14.6416 51.3335 14.9037C51.442 15.0879 51.5045 15.2985 51.6313 15.4707C51.6996 15.5634 51.786 15.6434 51.8422 15.7435C51.8706 15.7936 51.8914 15.8487 51.8962 15.9061C51.9011 15.9636 51.8892 16.0232 51.8569 16.0709C51.8355 16.1024 51.8059 16.1279 51.7728 16.1467C51.7398 16.1655 51.7033 16.1779 51.666 16.1856C51.591 16.2011 51.5146 16.1987 51.4385 16.2006L51.4381 16.201ZM50.2377 7.25568C50.2076 6.8925 50.2143 6.5273 50.2012 6.16309C50.1882 5.81288 50.1559 5.46287 50.1677 5.11262C50.1797 4.75646 50.2394 4.39562 50.398 4.07555C50.5565 3.75548 50.8141 3.48471 51.1283 3.31535C51.4235 3.15602 51.764 3.08793 52.0999 3.09159C52.5554 3.09655 53.0121 3.23414 53.3809 3.50135C53.6121 3.66874 53.8066 3.88454 53.9601 4.12528C54.0909 4.33077 54.1926 4.55519 54.2565 4.79072C54.3873 5.2734 54.3563 5.78177 54.3818 6.28076C54.4059 6.75369 54.4816 7.2255 54.4558 7.69834C54.4502 7.80144 54.4391 7.90613 54.3933 7.99826C54.3487 8.088 54.273 8.16017 54.186 8.20994C54.099 8.25971 54.001 8.28801 53.902 8.30329C53.7039 8.33384 53.5013 8.31369 53.3018 8.3322C53.0122 8.35906 52.7359 8.46647 52.4485 8.51094C52.1064 8.56389 51.757 8.5264 51.4106 8.51253C51.2719 8.507 51.1327 8.50527 50.995 8.48797C50.8573 8.47068 50.7199 8.43736 50.5974 8.37204C50.5225 8.33183 50.4525 8.27948 50.3962 8.21505C50.3398 8.15061 50.2968 8.07446 50.2754 7.99119C50.2432 7.86686 50.2602 7.73597 50.2606 7.60752C50.2611 7.49009 50.2474 7.37307 50.2372 7.25606L50.2377 7.25568Z" fill="#020204"/>
<path d="M50.7828 7.11575C50.7338 7.17714 50.7019 7.25104 50.6825 7.32729C50.6632 7.40353 50.6562 7.48231 50.6532 7.56085C50.6472 7.71798 50.6567 7.87811 50.6152 8.02976C50.5707 8.1919 50.4711 8.3323 50.3735 8.46923C50.2046 8.70635 50.0337 8.94957 49.9505 9.22849C49.9 9.39743 49.8832 9.57635 49.9014 9.75171C49.7123 10.0294 49.5485 10.3244 49.4129 10.6318C49.2074 11.0977 49.0663 11.5937 49.0167 12.1005C48.9559 12.721 49.0353 13.3593 49.2804 13.9326C49.4575 14.3472 49.7217 14.7267 50.0623 15.022C50.2355 15.1722 50.4278 15.3004 50.634 15.4015C51.347 15.7519 52.228 15.7525 52.929 15.379C53.2954 15.1838 53.6047 14.8983 53.9028 14.6094C54.0824 14.4355 54.2611 14.2574 54.398 14.0482C54.6617 13.6456 54.7536 13.1561 54.8107 12.6782C54.9105 11.8425 54.9137 10.9598 54.5473 10.2021C54.4208 9.94074 54.2534 9.70122 54.0514 9.49256C53.9978 9.12797 53.8918 8.77102 53.7378 8.43619C53.6268 8.19462 53.491 7.96466 53.3878 7.71967C53.3454 7.61905 53.3081 7.51605 53.2616 7.41755C53.215 7.31904 53.1566 7.22424 53.0777 7.14879C52.9969 7.07147 52.8963 7.01673 52.7901 6.98168C52.6839 6.94663 52.5722 6.93074 52.4607 6.92512C52.2374 6.91387 52.0136 6.94306 51.7903 6.93421C51.6124 6.92718 51.4352 6.89597 51.2575 6.90646C51.1686 6.91171 51.0798 6.92755 50.9974 6.96106C50.9149 6.99457 50.8389 7.04621 50.7834 7.11571L50.7828 7.11575Z" fill="#FDFDFB"/>
<g filter="url(#filter0_f_2_606)">
<path d="M50.6733 7.94925C50.7531 8.18065 50.9137 8.37813 51.1038 8.5324C51.1671 8.58372 51.2342 8.631 51.3084 8.66441C51.3826 8.69783 51.4645 8.7169 51.5456 8.70996C51.625 8.70322 51.7006 8.67201 51.7701 8.63283C51.8396 8.59365 51.9039 8.54627 51.9713 8.50363C52.0867 8.43052 52.2103 8.37148 52.3301 8.30587C52.4745 8.22681 52.6145 8.13717 52.7362 8.02657C52.7918 7.97572 52.8437 7.92029 52.9052 7.87661C52.9667 7.83293 53.0403 7.80135 53.1155 7.80646C53.172 7.8103 53.2249 7.83429 53.2801 7.8462C53.3082 7.85215 53.3364 7.8551 53.3643 7.85079C53.3923 7.84648 53.4196 7.83467 53.4392 7.81424C53.4632 7.78926 53.4737 7.75332 53.472 7.71864C53.4703 7.68396 53.4587 7.65055 53.4425 7.6199C53.4102 7.5586 53.3612 7.50579 53.3394 7.44004C53.32 7.38146 53.3239 7.3182 53.3256 7.25662C53.3273 7.19504 53.326 7.13056 53.2975 7.07587C53.2759 7.03417 53.2396 7.00113 53.1981 6.97915C53.1566 6.95717 53.11 6.94635 53.0633 6.94147C52.9698 6.93271 52.8761 6.95084 52.7824 6.95614C52.6579 6.96317 52.533 6.94761 52.4086 6.95511C52.2535 6.96448 52.1013 7.00947 51.9459 7.00975C51.7684 7.01008 51.5912 6.95202 51.4159 6.97976C51.3407 6.99166 51.269 7.01903 51.1968 7.04312C51.1246 7.0672 51.05 7.08843 50.9739 7.08735C50.8875 7.08609 50.8038 7.05619 50.7176 7.05C50.6744 7.04691 50.6303 7.05 50.5898 7.06514C50.5493 7.08028 50.5127 7.10844 50.4929 7.14682C50.4815 7.16885 50.4759 7.19354 50.4748 7.21829C50.4737 7.24303 50.4771 7.26782 50.4831 7.29186C50.4951 7.33994 50.5171 7.38479 50.5347 7.4309C50.6 7.59745 50.614 7.77993 50.6723 7.94901L50.6733 7.94925Z" fill="black" fill-opacity="0.26"/>
</g>
<g opacity="0.3" filter="url(#filter1_f_2_606)">
<path d="M50.4508 7.28973C50.6059 7.38556 50.745 7.50314 50.8618 7.6373C50.9702 7.76179 51.0624 7.90294 51.2039 7.99514C51.3039 8.06023 51.4239 8.09692 51.5457 8.10806C51.6888 8.12114 51.8335 8.09999 51.9713 8.06265C52.0991 8.02803 52.2227 7.97934 52.336 7.91502C52.5515 7.79261 52.7315 7.61317 52.9687 7.53271C53.0205 7.51514 53.0746 7.50258 53.1246 7.48091C53.1746 7.45924 53.2216 7.42678 53.2455 7.38085C53.2689 7.33674 53.2675 7.2858 53.275 7.23733C53.283 7.18553 53.301 7.13537 53.3108 7.08383C53.3206 7.0323 53.3218 6.97713 53.2977 6.92973C53.2776 6.89045 53.2412 6.85946 53.1993 6.83974C53.1573 6.82001 53.1102 6.81107 53.0632 6.80892C52.9692 6.8046 52.8763 6.82683 52.7826 6.83473C52.6584 6.84517 52.5334 6.83041 52.4087 6.83386C52.2537 6.83818 52.101 6.87056 51.946 6.87725C51.7693 6.88493 51.593 6.8592 51.4161 6.8535C51.3396 6.851 51.2626 6.85221 51.1872 6.86443C51.1118 6.87664 51.0378 6.89991 50.974 6.93893C50.9121 6.97678 50.8617 7.02815 50.805 7.07231C50.7766 7.09441 50.7465 7.11483 50.7134 7.13037C50.6803 7.14591 50.644 7.15648 50.607 7.15812C50.588 7.15899 50.5687 7.15747 50.5499 7.16015C50.5341 7.1626 50.5189 7.1679 50.5054 7.17576C50.4918 7.18362 50.4801 7.19387 50.4708 7.20593C50.4616 7.21799 50.455 7.23162 50.4515 7.24602C50.448 7.26043 50.4477 7.27533 50.4505 7.28986L50.4508 7.28973Z" fill="black"/>
</g>
<path d="M50.8544 5.17321C50.771 5.17776 50.6911 5.21632 50.63 5.27335C50.569 5.33039 50.526 5.40513 50.4995 5.48442C50.4465 5.643 50.4584 5.8149 50.4704 5.98116C50.4813 6.13215 50.4924 6.286 50.549 6.42645C50.5772 6.49665 50.6169 6.56235 50.6699 6.6169C50.7228 6.67145 50.7895 6.71259 50.8629 6.73096C50.9318 6.74821 51.0052 6.74465 51.073 6.72337C51.1407 6.70209 51.2025 6.66339 51.2532 6.61381C51.3272 6.5414 51.377 6.44669 51.4056 6.34716C51.4342 6.24762 51.4424 6.14321 51.4409 6.03974C51.439 5.91021 51.4221 5.78012 51.3815 5.65716C51.341 5.53419 51.2763 5.41802 51.186 5.32509C51.1423 5.2801 51.0924 5.2405 51.036 5.21276C50.9797 5.18502 50.9169 5.16941 50.8542 5.17279L50.8544 5.17321Z" fill="url(#paint0_radial_2_606)"/>
<path d="M52.3314 5.17322C52.2011 5.26225 52.0919 5.38761 52.0385 5.5364C51.9712 5.72394 51.997 5.93379 52.0619 6.12218C52.1285 6.31511 52.2397 6.49895 52.4078 6.6148C52.4918 6.67272 52.5891 6.71241 52.6904 6.72445C52.7917 6.7365 52.897 6.72 52.9875 6.6729C53.0977 6.61545 53.1819 6.51484 53.2341 6.40204C53.2863 6.28924 53.3086 6.16445 53.3155 6.04026C53.3249 5.8821 53.309 5.72132 53.2569 5.57164C53.2005 5.40903 53.0976 5.25907 52.9536 5.16548C52.8814 5.11871 52.7993 5.08657 52.7141 5.0748C52.6289 5.06304 52.5405 5.07185 52.4603 5.10302C52.4146 5.12082 52.3719 5.14552 52.3315 5.17331L52.3314 5.17322Z" fill="url(#paint1_radial_2_606)"/>
<g opacity="0.3" filter="url(#filter2_f_2_606)">
<path d="M50.8266 6.52247L50.586 6.74202C50.5436 6.78467 50.5011 6.83031 50.4822 6.8873C50.4653 6.93791 50.4685 6.99288 50.4601 7.04569C50.4573 7.06378 50.4531 7.08178 50.453 7.10005C50.4529 7.10921 50.4541 7.11835 50.4567 7.12714C50.4593 7.1359 50.4637 7.14415 50.47 7.15085C50.4804 7.16196 50.4952 7.168 50.5101 7.171C50.525 7.174 50.5404 7.17438 50.5555 7.17602C50.6237 7.18337 50.6866 7.21646 50.7431 7.25545L50.9095 7.37659C51.0374 7.45785 51.1903 7.49398 51.3419 7.49974C51.4934 7.50551 51.6445 7.4824 51.7931 7.45265C51.9112 7.42903 52.029 7.4011 52.1411 7.35686C52.3127 7.28919 52.4674 7.18501 52.6152 7.07465C52.6824 7.02451 52.7486 6.97282 52.8089 6.91462C52.8294 6.89484 52.8492 6.87432 52.8712 6.85623C52.8931 6.83814 52.9175 6.82239 52.9445 6.81368C52.9858 6.80042 53.0306 6.80421 53.0733 6.81133C53.1055 6.81672 53.1378 6.82399 53.1704 6.82258C53.1867 6.82193 53.2031 6.81911 53.2182 6.81302C53.2334 6.80693 53.2474 6.79756 53.2577 6.7849C53.2712 6.76799 53.2786 6.74695 53.2784 6.72529C53.2785 6.70383 53.2719 6.68265 53.2611 6.66414C53.2393 6.62712 53.2017 6.60214 53.1625 6.58471C53.1088 6.56081 53.0506 6.54909 52.9935 6.53522C52.818 6.49286 52.6474 6.43025 52.4857 6.34993C52.4053 6.31 52.3271 6.26576 52.248 6.2234C52.1666 6.17982 52.0837 6.13792 51.9954 6.11116C51.798 6.05132 51.5821 6.07096 51.3873 6.13862C51.1708 6.21379 50.975 6.34777 50.8265 6.52233L50.8266 6.52247Z" fill="black"/>
</g>
<path d="M51.2466 6.27448C51.3294 6.18136 51.386 6.06781 51.4656 5.97189C51.5054 5.92395 51.5513 5.88027 51.6053 5.84925C51.6594 5.81822 51.7221 5.80051 51.7842 5.80585C51.8533 5.81185 51.918 5.84625 51.9686 5.89372C52.0191 5.94119 52.0567 6.0015 52.0867 6.0636C52.1153 6.12349 52.1381 6.18731 52.1795 6.23933C52.2235 6.29481 52.2854 6.33268 52.3411 6.37631C52.3691 6.3981 52.3958 6.42177 52.4179 6.44941C52.44 6.47706 52.4573 6.50921 52.4643 6.54394C52.4712 6.57947 52.4682 6.61623 52.4556 6.65017C52.4433 6.68391 52.4225 6.71447 52.3966 6.7394C52.3447 6.78931 52.2741 6.81625 52.2028 6.82633C52.0604 6.84648 51.9163 6.80402 51.7725 6.80805C51.6269 6.81203 51.4846 6.86354 51.3391 6.85819C51.2663 6.85552 51.1925 6.83776 51.1327 6.7962C51.1025 6.77554 51.0771 6.74878 51.0579 6.71765C51.0391 6.68649 51.0276 6.65064 51.0264 6.61428C51.0252 6.5796 51.0333 6.54492 51.0472 6.51305C51.061 6.48119 51.0806 6.45204 51.1026 6.42514C51.1466 6.37134 51.2004 6.32645 51.2465 6.27452L51.2466 6.27448Z" fill="url(#paint2_radial_2_606)"/>
<g filter="url(#filter3_f_2_606)">
<path d="M52.87 3.69645C52.7498 3.78123 52.8023 3.88706 52.854 3.99332C52.9057 4.09958 52.7404 4.40585 52.7386 4.41902C52.7368 4.4322 53.0639 4.26378 53.1531 4.15434C53.2584 4.02512 53.5244 4.32917 53.51 4.28284C53.5101 4.20007 52.9902 3.61168 52.87 3.69645H52.87Z" fill="#7C7C7C"/>
</g>
<path d="M52.6319 5.56662C52.5829 5.57013 52.5352 5.58686 52.4936 5.61348C52.4521 5.6401 52.4166 5.67511 52.3888 5.71564C52.3332 5.79662 52.3087 5.89592 52.3048 5.994C52.3018 6.06767 52.3099 6.14232 52.3344 6.21191C52.3589 6.2815 52.4 6.34594 52.4568 6.39294C52.515 6.44107 52.5888 6.46999 52.6642 6.47355C52.7396 6.47711 52.816 6.45541 52.8779 6.4123C52.9273 6.37795 52.967 6.33066 52.9954 6.27766C53.0237 6.22466 53.0408 6.16599 53.0486 6.10638C53.0624 6.00108 53.0468 5.89114 52.9981 5.79676C52.9494 5.70238 52.8669 5.62464 52.7672 5.58794C52.7241 5.57201 52.6777 5.56376 52.6319 5.56704V5.56662Z" fill="#020204"/>
<g filter="url(#filter4_f_2_606)">
<path d="M52.7488 5.88786C52.7082 5.90389 52.6439 5.89382 52.6262 5.93365C52.6156 5.95727 52.6305 5.99612 52.6544 6.00582C52.7028 6.0255 52.7778 5.98988 52.7974 5.94138C52.8058 5.92029 52.793 5.88702 52.7721 5.87812C52.7643 5.87484 52.7566 5.88468 52.7488 5.88777L52.7488 5.88786Z" fill="#141413"/>
</g>
<g filter="url(#filter5_f_2_606)">
<path d="M52.9348 5.9933C52.9891 5.93894 52.896 5.7946 52.8235 5.73556C52.7709 5.69277 52.6177 5.64792 52.6243 5.69455C52.6308 5.74118 52.6993 5.80074 52.7459 5.84625C52.8027 5.90225 52.909 6.01917 52.9348 5.9933Z" fill="url(#paint3_linear_2_606)"/>
</g>
<mask id="mask0_2_606" style="mask-type:luminance" maskUnits="userSpaceOnUse" x="51" y="5" width="3" height="2">
<path d="M52.3314 5.17321C52.212 5.27289 52.0873 5.38878 52.0385 5.53639C51.9771 5.72197 51.962 5.95427 52.0619 6.12217C52.2456 6.43062 52.6423 6.77122 52.9875 6.67281C53.2159 6.60767 53.2737 6.27448 53.3155 6.04016C53.3432 5.88519 53.3434 5.70308 53.2569 5.57154C53.0877 5.31413 52.7683 5.10788 52.4603 5.10292C52.4114 5.10212 52.3689 5.14181 52.3314 5.17321Z" fill="white"/>
</mask>
<g mask="url(#mask0_2_606)">
<path d="M51.8394 5.64769C51.9515 5.55467 52.0808 5.48461 52.22 5.4415C52.5052 5.3534 52.8292 5.38822 53.0812 5.54811C53.1682 5.60331 53.2458 5.67192 53.3268 5.73575C53.4078 5.79957 53.4936 5.85946 53.5909 5.89367C53.6434 5.91214 53.6995 5.92287 53.7549 5.9171C53.805 5.91186 53.8533 5.89311 53.8948 5.86462C53.9362 5.83613 53.9709 5.79817 53.9969 5.7551C54.049 5.66902 54.0658 5.56461 54.0568 5.46442C54.0389 5.26398 53.9258 5.08703 53.831 4.90956C53.8014 4.85399 53.7731 4.79742 53.7373 4.74555C53.6275 4.5864 53.4527 4.48143 53.2694 4.41995C53.0861 4.35846 52.8923 4.33625 52.7005 4.31207C52.6149 4.30129 52.5283 4.29004 52.4427 4.30035C52.3443 4.31221 52.2517 4.3519 52.1557 4.3765C52.1101 4.38822 52.0637 4.39642 52.0185 4.4095C51.9733 4.42257 51.9288 4.44089 51.8921 4.47023C51.8384 4.51316 51.8047 4.57754 51.7901 4.6447C51.7755 4.71185 51.7788 4.78172 51.7895 4.84958C51.811 4.98529 51.8617 5.11782 51.8569 5.25513C51.8536 5.34941 51.824 5.44201 51.8276 5.5363C51.8287 5.56442 51.8326 5.59146 51.8393 5.61831" fill="url(#paint4_linear_2_606)"/>
</g>
<g filter="url(#filter6_f_2_606)">
<path d="M52.7839 4.78721C52.7616 4.81533 52.7414 4.84588 52.7253 4.87953C52.8259 4.90118 52.9222 4.9426 53.0079 4.99964C53.174 5.10995 53.3002 5.27125 53.3887 5.45069C53.4093 5.42782 53.4281 5.40326 53.4444 5.37599C53.3554 5.1891 53.2267 5.02007 53.0548 4.90596C52.9723 4.85113 52.8803 4.8097 52.784 4.7874L52.7839 4.78721Z" fill="url(#paint5_linear_2_606)"/>
</g>
<g filter="url(#filter7_f_2_606)">
<path d="M50.845 4.87882C50.8336 4.87859 50.8226 4.87962 50.8112 4.88014L50.7892 4.88145C50.8554 4.88745 50.9212 4.90525 50.981 4.93206C51.0626 4.96861 51.1345 5.02077 51.1978 5.08014C51.3151 5.19004 51.4023 5.3257 51.4614 5.46957C51.447 5.36086 51.4143 5.25536 51.3647 5.15751C51.3416 5.1308 51.3176 5.10456 51.2915 5.08019C51.2283 5.02086 51.1563 4.96875 51.0748 4.93211C51.0036 4.9001 50.9242 4.88018 50.8449 4.87878L50.845 4.87882Z" fill="url(#paint6_linear_2_606)"/>
</g>
<path d="M50.6533 5.86443C50.6358 5.96968 50.6352 6.08009 50.6714 6.18042C50.6948 6.24669 50.7346 6.30681 50.7825 6.3585C50.8139 6.39234 50.8494 6.42308 50.891 6.44299C50.9327 6.46291 50.9808 6.47139 51.0255 6.46019C51.0668 6.44988 51.103 6.42317 51.1296 6.39004C51.1562 6.35691 51.174 6.31726 51.1867 6.27663C51.224 6.15667 51.2181 6.02536 51.1809 5.9053C51.1539 5.8178 51.1091 5.7334 51.0391 5.6744C51.0057 5.64629 50.9665 5.62426 50.924 5.61409C50.8815 5.60392 50.8355 5.60636 50.7957 5.6244C50.7516 5.64446 50.7174 5.68265 50.695 5.72563C50.6726 5.7686 50.6611 5.81654 50.6532 5.86434L50.6533 5.86443Z" fill="#020204"/>
<g filter="url(#filter8_f_2_606)">
<path d="M50.8758 5.78828C50.8871 5.81799 50.9252 5.82877 50.9461 5.85272C50.9664 5.87601 50.9877 5.90005 50.9988 5.92887C51.0201 5.98398 50.9777 6.06571 51.0222 6.1046C51.0362 6.11679 51.0642 6.11707 51.0779 6.1046C51.1316 6.05577 51.1196 5.95727 51.0984 5.88787C51.0792 5.82488 51.0316 5.76527 50.9728 5.73533C50.9457 5.7215 50.9049 5.71002 50.8817 5.72971C50.8667 5.74236 50.8688 5.77001 50.8758 5.78828Z" fill="url(#paint7_linear_2_606)"/>
</g>
<path d="M50.457 7.17283C50.4598 7.18666 50.4651 7.20001 50.4723 7.2122C50.4848 7.23305 50.503 7.24997 50.5226 7.26421C50.5422 7.27846 50.5635 7.29046 50.5841 7.30334C50.6935 7.37209 50.7825 7.46877 50.8617 7.57079C50.968 7.70772 51.0619 7.85969 51.2038 7.95928C51.304 8.02957 51.4239 8.06964 51.5457 8.08187C51.6886 8.09625 51.8334 8.07315 51.9713 8.03257C52.099 7.99494 52.2226 7.94212 52.3359 7.8723C52.5515 7.7394 52.7315 7.54459 52.9686 7.45724C53.0205 7.43817 53.0745 7.42453 53.1244 7.401C53.1744 7.37748 53.2215 7.34224 53.2454 7.29238C53.2688 7.24448 53.2674 7.18919 53.2749 7.13656C53.2828 7.08032 53.3008 7.02587 53.3107 6.96992C53.3205 6.91396 53.3217 6.85407 53.2976 6.80262C53.2775 6.75997 53.2411 6.72633 53.1991 6.70491C53.1572 6.68349 53.1101 6.67379 53.0631 6.67145C52.9691 6.66676 52.8762 6.6909 52.7824 6.69947C52.6583 6.71082 52.5332 6.69488 52.4086 6.69854C52.2536 6.70322 52.1008 6.73814 51.9459 6.74563C51.7691 6.75421 51.5928 6.72689 51.416 6.71986C51.3394 6.71677 51.2623 6.71752 51.1867 6.7304C51.1112 6.74329 51.037 6.76902 50.974 6.81255C50.9126 6.85501 50.8636 6.91284 50.8071 6.96176C50.7789 6.98623 50.7486 7.00863 50.715 7.02489C50.6815 7.04115 50.6444 7.05132 50.607 7.05052C50.5883 7.05005 50.5682 7.04691 50.5499 7.05272C50.5384 7.05633 50.5283 7.06336 50.5197 7.07175C50.5111 7.08014 50.504 7.08989 50.4973 7.09987C50.4817 7.12301 50.4681 7.14744 50.4567 7.17288L50.457 7.17283Z" fill="url(#paint8_radial_2_606)"/>
<g filter="url(#filter9_f_2_606)">
<path d="M51.1508 7.36333C51.1333 7.43896 51.1444 7.5184 51.182 7.58631C51.2196 7.65422 51.2811 7.70579 51.3545 7.73106C51.4472 7.76199 51.5516 7.74681 51.6382 7.70163C51.6884 7.67539 51.7343 7.63855 51.7633 7.58991C51.778 7.56559 51.7877 7.53856 51.7917 7.51043C51.7954 7.48231 51.7929 7.45326 51.783 7.42678C51.7722 7.39773 51.753 7.37205 51.7293 7.35199C51.7056 7.33193 51.6775 7.31741 51.6481 7.30766C51.5892 7.28816 51.5258 7.28779 51.4637 7.29079C51.3697 7.2953 51.2762 7.3071 51.184 7.32608" fill="#D9B30D"/>
</g>
<g filter="url(#filter10_f_2_606)">
<path d="M50.8466 6.78144L50.6639 6.90154C50.6331 6.92338 50.6014 6.947 50.5852 6.98102C50.5737 7.00516 50.571 7.03257 50.5711 7.05928C50.5712 7.08599 50.5725 7.11289 50.569 7.13895C50.5666 7.15704 50.5618 7.17485 50.5609 7.19307C50.5605 7.20221 50.5612 7.21135 50.5636 7.22026C50.5658 7.22914 50.5703 7.23733 50.5764 7.24411C50.5845 7.25268 50.5956 7.25798 50.6069 7.26145C50.6182 7.26491 50.6299 7.2666 50.6414 7.26941C50.6965 7.28235 50.7443 7.31614 50.7864 7.35395L50.9101 7.46998C51.029 7.56671 51.1866 7.60682 51.3394 7.60931C51.4921 7.61179 51.6442 7.57978 51.7937 7.54604L52.1416 7.45026C52.3152 7.38629 52.4762 7.28942 52.6158 7.16805C52.6791 7.11303 52.7384 7.05258 52.8095 7.00801C52.8723 6.96856 52.9427 6.9425 53.0066 6.90478C53.0123 6.9014 53.018 6.89794 53.0231 6.89367C53.0282 6.88941 53.0327 6.88439 53.0357 6.87844C53.0409 6.86813 53.0409 6.85595 53.0376 6.84489C53.0343 6.83383 53.028 6.82408 53.0207 6.81518C53.0128 6.80533 53.0037 6.79634 52.994 6.78809C52.9273 6.73092 52.8367 6.7102 52.7491 6.70327C52.6615 6.69633 52.5729 6.70125 52.4867 6.68677C52.4051 6.67271 52.3277 6.64272 52.249 6.61756C52.1665 6.59086 52.082 6.57034 51.9965 6.55617C51.7952 6.52336 51.588 6.52964 51.3883 6.57116C51.1982 6.61076 51.0148 6.68223 50.8475 6.78111L50.8466 6.78144Z" fill="#604405"/>
</g>
<path d="M50.8267 6.56934C50.7362 6.63026 50.6549 6.70444 50.586 6.78889C50.5466 6.83715 50.5108 6.88964 50.491 6.94878C50.4754 6.99527 50.4701 7.04447 50.4602 7.09251C50.4565 7.1105 50.4523 7.12859 50.4523 7.14687C50.4523 7.15605 50.4535 7.16528 50.4563 7.17405C50.4591 7.18281 50.4637 7.19101 50.4701 7.19762C50.4806 7.20858 50.4954 7.21449 50.5103 7.21758C50.5252 7.22067 50.5405 7.2211 50.5556 7.22283C50.6237 7.23056 50.6865 7.26369 50.743 7.30259L50.9096 7.4234C51.0377 7.50447 51.1905 7.54046 51.342 7.54632C51.4934 7.55218 51.6445 7.52917 51.7932 7.49946C51.9113 7.47589 52.0291 7.44791 52.1412 7.40367C52.3128 7.336 52.4675 7.23183 52.6153 7.12147C52.6825 7.07132 52.7487 7.01964 52.809 6.96143C52.8295 6.94166 52.8493 6.92113 52.8713 6.90304C52.8932 6.88495 52.9176 6.86921 52.9446 6.86049C52.9859 6.84723 53.0307 6.85102 53.0734 6.85815C53.1056 6.86354 53.1379 6.8708 53.1705 6.86939C53.1868 6.86874 53.2032 6.86593 53.2183 6.85983C53.2335 6.85374 53.2475 6.84437 53.2578 6.83172C53.2713 6.8148 53.2787 6.79376 53.2785 6.77211C53.2786 6.75065 53.272 6.72946 53.2612 6.71095C53.2394 6.67393 53.2018 6.64895 53.1626 6.63152C53.1089 6.60762 53.0507 6.59591 52.9936 6.58203C52.8181 6.53967 52.6475 6.47706 52.4858 6.39674C52.4054 6.35681 52.3272 6.31258 52.2481 6.27021C52.1667 6.22663 52.0838 6.18474 51.9955 6.15798C51.7981 6.09813 51.5822 6.11777 51.3874 6.18544C51.1709 6.26061 50.9751 6.39458 50.8266 6.56915L50.8267 6.56934Z" fill="url(#paint9_linear_2_606)"/>
<g filter="url(#filter11_f_2_606)">
<path d="M52.2138 6.61274C52.2032 6.59933 52.188 6.58987 52.1716 6.58509C52.1552 6.58031 52.1376 6.5804 52.1208 6.58274C52.0871 6.58851 52.0569 6.60618 52.0287 6.62609C51.9485 6.6812 51.8778 6.74925 51.816 6.82432C51.7343 6.92367 51.6668 7.03857 51.6442 7.16524C51.6404 7.18657 51.6378 7.20836 51.6405 7.22991C51.6432 7.25147 51.6514 7.27279 51.6667 7.28816C51.6801 7.30166 51.6984 7.30991 51.7173 7.31263C51.7361 7.31534 51.7555 7.31272 51.7735 7.30663C51.8096 7.29444 51.8396 7.26914 51.8679 7.24383C52.0242 7.10395 52.1656 6.93604 52.2222 6.73397C52.2278 6.71368 52.2327 6.69292 52.2325 6.67188C52.2323 6.65083 52.2268 6.62923 52.2138 6.61274Z" fill="#F6DA4A"/>
</g>
<g opacity="0.8" filter="url(#filter12_f_2_606)">
<path d="M51.8393 6.32312C51.8501 6.3579 51.9063 6.35218 51.9387 6.36882C51.9671 6.38344 51.99 6.41554 52.022 6.41647C52.0524 6.41741 52.1 6.40593 52.104 6.3757C52.1092 6.33573 52.0508 6.31033 52.0133 6.29566C51.965 6.27682 51.903 6.26726 51.8577 6.29248C51.8473 6.29824 51.836 6.31178 51.8395 6.32317L51.8393 6.32312Z" fill="url(#paint10_radial_2_606)"/>
</g>
<g opacity="0.8" filter="url(#filter13_f_2_606)">
<path d="M51.3041 6.30297C51.2625 6.28938 51.1936 6.36281 51.2161 6.40044C51.2222 6.41075 51.2411 6.42388 51.2538 6.41685C51.273 6.4063 51.2887 6.36858 51.3095 6.35382C51.3233 6.34398 51.3202 6.30827 51.304 6.30302L51.3041 6.30297Z" fill="url(#paint11_radial_2_606)"/>
</g>
<g filter="url(#filter14_f_2_606)">
<path d="M53.1391 7.01728C53.213 7.01728 53.2813 6.94313 53.2915 6.85166C53.3018 6.76019 53.2502 6.68604 53.1762 6.68604C53.1022 6.68604 53.034 6.76019 53.0237 6.85166C53.0135 6.94313 53.0651 7.01728 53.1391 7.01728Z" fill="url(#paint12_linear_2_606)"/>
</g>
<mask id="mask1_2_606" style="mask-type:luminance" maskUnits="userSpaceOnUse" x="50" y="5" width="2" height="2">
<path d="M50.8544 5.17321C50.6767 5.39768 50.4552 5.72103 50.4705 5.98159C50.4857 6.24214 50.6514 6.63462 50.8629 6.73139C51.0745 6.82816 51.1326 6.732 51.2533 6.61423C51.374 6.49647 51.4342 6.26989 51.441 6.04017C51.4479 5.81045 51.2988 5.48157 51.1861 5.32552C51.0734 5.16946 51.0321 4.94874 50.8543 5.17321H50.8544Z" fill="white"/>
</mask>
<g mask="url(#mask1_2_606)">
<path d="M50.6745 5.50898C50.8003 5.43401 50.9535 5.41667 51.0994 5.43044C51.2452 5.44422 51.3864 5.48705 51.5277 5.52557C51.6314 5.55379 51.7363 5.57993 51.8335 5.62577C51.9306 5.6716 52.0209 5.73899 52.0744 5.8321L52.0997 5.87718C52.1088 5.8918 52.1196 5.90577 52.1333 5.91608C52.147 5.92639 52.1641 5.93314 52.1813 5.9322C52.1899 5.93173 52.1984 5.92939 52.2058 5.92498C52.2132 5.92058 52.2196 5.9142 52.2236 5.90661C52.2281 5.89785 52.2296 5.88768 52.229 5.87775C52.2283 5.86786 52.2264 5.85809 52.2236 5.8486C52.1882 5.71958 52.1048 5.61016 52.0413 5.49244L51.9336 5.27706C51.8015 5.03525 51.5847 4.84518 51.3384 4.72188C51.0921 4.59859 50.817 4.53931 50.5419 4.52319C50.2232 4.50454 49.9036 4.5424 49.5892 4.5977C49.4528 4.62169 49.3146 4.64995 49.1939 4.71776C49.1335 4.75164 49.0782 4.79541 49.0351 4.84944C48.9919 4.90348 48.9612 4.96824 48.9513 5.03675C48.9417 5.10283 48.9518 5.17078 48.9747 5.23339C48.9977 5.296 49.0337 5.35326 49.0758 5.405C49.16 5.50847 49.2679 5.58935 49.3674 5.67821C49.4668 5.76706 49.5595 5.86528 49.6703 5.9389C49.7258 5.97569 49.7861 6.00615 49.8504 6.02405C49.9146 6.04195 49.983 6.04701 50.0483 6.03361C50.116 6.01974 50.1787 5.98651 50.2336 5.94448C50.2885 5.90244 50.336 5.85169 50.3811 5.7993C50.4713 5.69451 50.5556 5.5797 50.6743 5.50894L50.6745 5.50898Z" fill="url(#paint13_radial_2_606)"/>
</g>
<path d="M55.1128 10.0042C55.3979 10.2336 55.5789 10.5799 55.6348 10.9416C55.6785 11.2237 55.6501 11.513 55.5866 11.7913C55.523 12.0695 55.4248 12.3384 55.3273 12.6067C55.2884 12.7137 55.2494 12.8216 55.234 12.9344C55.2185 13.0471 55.2283 13.1665 55.2827 13.2665C55.345 13.3812 55.4614 13.4601 55.5865 13.4972C55.7099 13.5339 55.8433 13.5331 55.9683 13.502C56.0933 13.4709 56.21 13.41 56.3117 13.331C56.5702 13.1303 56.7262 12.8178 56.7865 12.4963C56.8469 12.1747 56.8191 11.8425 56.7631 11.5201C56.6866 11.0805 56.5577 10.6508 56.3938 10.2357C56.2732 9.9304 56.1321 9.63025 55.935 9.36782C55.7421 9.11101 55.4989 8.89484 55.3099 8.63512C55.1785 8.4547 55.0733 8.2532 54.916 8.09499C54.8372 8.01589 54.7454 7.94822 54.6413 7.90777C54.5373 7.86733 54.4205 7.85548 54.3131 7.88575C54.1715 7.92558 54.0553 8.03711 53.9943 8.17077C53.9332 8.30442 53.922 8.4577 53.9459 8.60284C53.9768 8.79005 54.0624 8.96382 54.1589 9.12723C54.268 9.31172 54.3943 9.48933 54.559 9.6265C54.7308 9.76966 54.9386 9.86409 55.1129 10.0042L55.1128 10.0042Z" fill="#020204"/>
<mask id="mask2_2_606" style="mask-type:luminance" maskUnits="userSpaceOnUse" x="53" y="7" width="4" height="7">
<path d="M55.1128 10.0042C55.3998 10.2349 55.5792 10.5814 55.6349 10.9416C55.7219 11.5053 55.5229 12.0698 55.3273 12.6067C55.2884 12.7138 55.2491 12.8223 55.2336 12.9345C55.2181 13.0468 55.2279 13.1664 55.2827 13.2666C55.3449 13.3802 55.4608 13.4599 55.5865 13.4973C55.7101 13.534 55.8438 13.5329 55.9689 13.5016C56.0939 13.4703 56.2103 13.4094 56.3118 13.331C56.5732 13.1295 56.7296 12.8162 56.7889 12.4948C56.8481 12.1734 56.8194 11.842 56.7626 11.5202C56.6852 11.0811 56.557 10.6513 56.3934 10.2358C56.2732 9.93083 56.1325 9.63077 55.9345 9.36787C55.7415 9.11153 55.4974 8.89456 55.3093 8.63517C55.179 8.45504 55.0756 8.25418 54.9185 8.09588C54.84 8.01668 54.7479 7.94897 54.6432 7.90843C54.5386 7.8679 54.4207 7.85576 54.3125 7.88584C54.2407 7.90581 54.1745 7.94381 54.1198 7.99363C54.0651 8.04344 54.0219 8.10497 53.9913 8.17185C53.9303 8.30554 53.9209 8.45827 53.9453 8.60289C53.9768 8.78954 54.0619 8.9634 54.1584 9.12728C54.2669 9.31154 54.393 9.48905 54.5584 9.62655C54.7301 9.76934 54.9382 9.86433 55.1123 10.0043" fill="white"/>
</mask>
<g mask="url(#mask2_2_606)">
<g filter="url(#filter15_f_2_606)">
<path d="M54.4417 9.56216L54.5132 9.62659C54.6882 9.76976 54.7813 9.93049 54.9587 10.0707C55.249 10.3001 55.5436 10.696 55.6006 11.0576C55.6451 11.3397 55.5863 11.493 55.5145 11.8256C55.4427 12.1582 55.2392 12.6292 55.1293 12.9499C55.0854 13.0779 55.218 13.0251 55.2007 13.1599C55.1919 13.2261 55.1914 13.2931 55.199 13.3595L55.2023 13.3209C55.2235 13.1371 55.2798 12.9603 55.3412 12.7869C55.4592 12.4532 55.5947 12.1262 55.6881 11.7837C55.7815 11.4412 55.7711 11.1949 55.7225 10.9006C55.6611 10.5306 55.4459 10.1889 55.141 9.96339C54.9254 9.80392 54.6712 9.70167 54.4418 9.56216H54.4417Z" fill="#838384"/>
</g>
</g>
<g opacity="0.25" filter="url(#filter16_f_2_606)">
<path d="M49.9961 9.35478C50.0437 9.4262 49.9665 9.67242 51.076 9.51482C51.076 9.51482 50.8812 9.53624 50.6891 9.58061C50.3905 9.68057 50.1303 9.79229 49.9296 9.94028C49.7308 10.0866 49.5852 10.2776 49.4028 10.4416C49.4028 10.4416 49.6982 9.90172 49.7719 9.73924C49.8455 9.57677 49.7595 9.5846 49.8178 9.34494C49.8761 9.10529 50.0187 8.87599 50.0187 8.87599C50.0187 8.87599 49.9023 9.21387 49.9961 9.35474V9.35478Z" fill="url(#paint14_radial_2_606)"/>
</g>
<g opacity="0.42" filter="url(#filter17_f_2_606)">
<path d="M53.5639 9.29036C53.3378 9.44781 53.2053 9.42921 52.9309 9.46C52.6566 9.49079 51.9141 9.47968 51.9141 9.47968C51.9141 9.47968 52.0216 9.47766 52.2599 9.52204C52.4981 9.56642 52.984 9.60883 53.2577 9.71301C53.5313 9.81718 53.6311 9.84689 53.7974 9.95201C54.034 10.1017 54.2078 10.3361 54.4341 10.5002C54.4341 10.5002 54.4451 10.2825 54.3537 10.12C54.2623 9.95749 54.0163 9.70129 53.9445 9.46206C53.8727 9.22283 53.8379 8.75294 53.8379 8.75294C53.8379 8.75294 53.7901 9.13276 53.564 9.29026L53.5639 9.29036Z" fill="url(#paint15_radial_2_606)"/>
</g>
<g opacity="0.2" filter="url(#filter18_f_2_606)">
<path d="M51.4373 8.95397L51.4046 9.15755C51.3981 9.19082 51.3908 9.22409 51.3784 9.25563C51.366 9.28717 51.3482 9.31711 51.3231 9.33979C51.3011 9.35966 51.2742 9.37335 51.2472 9.38572C51.1418 9.43399 51.0291 9.46599 50.9141 9.48038L51.0516 9.49294C51.0804 9.49608 51.1093 9.49959 51.1375 9.50681C51.1656 9.51403 51.193 9.52556 51.2164 9.54219C51.2421 9.56094 51.2622 9.58662 51.2773 9.61464C51.3073 9.6705 51.3173 9.73475 51.3229 9.7974C51.3299 9.87815 51.3305 9.95955 51.3244 10.0403C51.3299 9.98626 51.3412 9.93274 51.3582 9.8811C51.3888 9.78803 51.438 9.70077 51.5044 9.6287C51.5307 9.60011 51.5597 9.57387 51.5916 9.55147C51.6903 9.48259 51.8113 9.45315 51.9306 9.46895C51.8096 9.47388 51.6905 9.43692 51.5935 9.3643C51.5447 9.32752 51.5021 9.28168 51.4726 9.22817C51.4268 9.1443 51.4142 9.04623 51.4374 8.95351L51.4373 8.95397Z" fill="url(#paint16_radial_2_606)"/>
</g>
<g opacity="0.1" filter="url(#filter19_f_2_606)">
<path d="M51.1482 10.5492C51.0905 10.7686 51.0509 10.9924 51.0298 11.2182C50.9999 11.5375 51.0071 11.8589 50.9899 12.1791C50.9759 12.4508 50.9436 12.7254 50.9907 12.9933C51.0132 13.1211 51.0536 13.2457 51.1104 13.3624C51.1194 13.3178 51.126 13.2728 51.1302 13.2276C51.1502 13.0103 51.1136 12.7924 51.1012 12.5746C51.0796 12.1928 51.1325 11.8107 51.154 11.4293C51.1705 11.1361 51.1685 10.8422 51.1481 10.5492L51.1482 10.5492Z" fill="black"/>
</g>
<g filter="url(#filter20_f_2_606)">
<path d="M53.7813 7.25859C53.68 7.35091 53.8288 7.48953 53.8994 7.65242C53.9432 7.75364 54.0646 7.89634 54.182 7.87352C54.2704 7.85632 54.3252 7.72918 54.3168 7.63967C54.3007 7.46675 54.1548 7.42631 54.0489 7.36694C53.965 7.31989 53.8524 7.19383 53.7813 7.25868L53.7813 7.25859Z" fill="#838384"/>
</g>
<g opacity="0.2" filter="url(#filter21_f_2_606)">
<path d="M57.032 14.8161C57.0097 14.8893 56.9765 14.959 56.9334 15.0228C56.8381 15.1639 56.6998 15.2702 56.5615 15.3682C56.3257 15.5353 56.0802 15.6886 55.8607 15.879C55.7137 16.0062 55.5797 16.1489 55.4554 16.2991C55.3491 16.4275 55.2492 16.5625 55.1282 16.6767C55.0059 16.7919 54.862 16.8851 54.707 16.9358C54.5184 16.9975 54.3192 16.9945 54.1376 16.948C54.0103 16.9154 53.8862 16.8586 53.8074 16.756C53.7282 16.653 53.7026 16.5146 53.6934 16.3787C53.6772 16.1383 53.7059 15.8927 53.7321 15.6488C53.7538 15.446 53.7739 15.2432 53.7821 15.0409C53.7966 14.6729 53.7726 14.3081 53.7228 13.9502C53.7145 13.8903 53.7054 13.8299 53.7105 13.7681C53.7155 13.7064 53.7362 13.6422 53.7796 13.5945C53.8196 13.5505 53.8755 13.5244 53.9312 13.5116C53.9868 13.4987 54.0433 13.4975 54.0993 13.4966C54.2311 13.4931 54.3637 13.4853 54.4936 13.4969C54.5756 13.5042 54.6559 13.5191 54.7377 13.527C54.8743 13.5401 55.0159 13.5332 55.1529 13.4931C55.3003 13.4499 55.4409 13.3688 55.5908 13.3465C55.6523 13.3374 55.714 13.3384 55.7737 13.3468C55.8346 13.3553 55.8953 13.3722 55.9422 13.4094C55.9778 13.4377 56.0039 13.4766 56.0243 13.518C56.0546 13.5797 56.0734 13.6478 56.084 13.7176C56.0934 13.7795 56.0968 13.8432 56.1127 13.9031C56.139 14.0015 56.1984 14.0852 56.2699 14.1533C56.3415 14.2214 56.4251 14.2752 56.5086 14.3283C56.5919 14.3811 56.6755 14.4336 56.7644 14.4771C56.8061 14.4976 56.849 14.516 56.8888 14.5396C56.9287 14.5632 56.9658 14.5921 56.9923 14.6303C57.0282 14.6821 57.0426 14.7499 57.0319 14.8165" fill="url(#paint17_linear_2_606)"/>
</g>
<mask id="mask3_2_606" style="mask-type:luminance" maskUnits="userSpaceOnUse" x="53" y="12" width="5" height="6">
<path d="M57.9669 14.9915C58.0095 15.0664 57.8933 15.1503 57.8349 15.2136C57.7064 15.3529 57.5327 15.4433 57.3712 15.5425C57.094 15.7129 56.7798 15.8192 56.508 15.9979C56.326 16.1175 56.1646 16.266 55.9991 16.4076C55.8574 16.5287 55.7422 16.6829 55.5852 16.7833C55.4282 16.8837 55.2551 16.978 55.0702 17.0012C54.846 17.0293 54.6075 16.9892 54.4 16.8998C54.255 16.8373 54.1113 16.7414 54.0269 16.6079C53.9419 16.4736 53.9303 16.3015 53.9222 16.1428C53.9078 15.8588 53.9861 15.5776 54.0243 15.2959C54.0561 15.0615 54.1111 14.8299 54.1302 14.5941C54.1649 14.1657 54.0936 13.7315 54.1452 13.3048C54.1618 13.1671 54.1368 12.9927 54.2395 12.8997C54.335 12.8132 54.4939 12.8472 54.6228 12.8499C54.7796 12.8532 54.9336 12.8944 55.0863 12.9303C55.1826 12.953 55.2736 12.9964 55.3708 13.0152C55.532 13.0462 55.6973 13.0651 55.8613 13.0598C56.0387 13.054 56.2098 12.9756 56.3873 12.9771C56.46 12.9777 56.5337 12.9903 56.6022 13.0146C56.6717 13.0392 56.7423 13.0711 56.7954 13.1221C56.836 13.161 56.8625 13.2138 56.8835 13.266C56.915 13.3439 56.9254 13.429 56.9382 13.512C56.9496 13.5858 56.9311 13.6652 56.9576 13.7351C57.0434 13.96 57.219 14.144 57.3899 14.3135C57.4716 14.4042 57.5788 14.4791 57.6789 14.5397C57.7853 14.6041 57.8836 14.6545 57.9349 14.7654C57.9659 14.835 57.9095 14.9416 57.967 14.9916L57.9669 14.9915Z" fill="white"/>
</mask>
<g mask="url(#mask3_2_606)">
<path d="M57.9669 14.9915C57.9355 15.0721 57.8907 15.1474 57.835 15.2136C57.712 15.3595 57.5412 15.4558 57.3712 15.5425C57.0811 15.6903 56.7807 15.8201 56.508 15.9979C56.3253 16.117 56.1567 16.2569 55.9991 16.4076C55.8643 16.5364 55.7364 16.6741 55.5852 16.7833C55.4326 16.8934 55.2562 16.9733 55.0702 17.0012C54.8438 17.0352 54.61 16.9912 54.4001 16.8998C54.253 16.8358 54.1116 16.7441 54.0269 16.6079C53.9419 16.4711 53.9225 16.3038 53.9222 16.1428C53.9219 15.858 53.9746 15.5758 54.0243 15.2959C54.0655 15.0629 54.1049 14.8293 54.1302 14.5941C54.1763 14.1662 54.176 13.734 54.1452 13.3048C54.1405 13.2329 54.1341 13.1603 54.1448 13.089C54.1556 13.0177 54.1849 12.9467 54.2395 12.8997C54.29 12.8563 54.3576 12.8371 54.4241 12.8334C54.4907 12.8298 54.5569 12.8403 54.6228 12.8499C54.7781 12.8726 54.9346 12.8905 55.0863 12.9304C55.182 12.9556 55.2753 12.9894 55.3709 13.0152C55.5303 13.0583 55.6973 13.0789 55.8614 13.0598C56.038 13.0392 56.2095 12.9728 56.3873 12.9771C56.4603 12.9789 56.5326 12.9927 56.6023 13.0146C56.6733 13.037 56.7433 13.0691 56.7955 13.1221C56.8351 13.1624 56.8628 13.2133 56.8836 13.266C56.9145 13.3445 56.9311 13.428 56.9383 13.512C56.9446 13.5865 56.9436 13.6617 56.9577 13.7351C56.9809 13.8558 57.0442 13.9658 57.123 14.0601C57.2018 14.1544 57.2964 14.2344 57.3899 14.3135C57.4836 14.3923 57.5778 14.4708 57.6789 14.5398C57.7263 14.5722 57.7753 14.6026 57.8203 14.6382C57.8653 14.6738 57.9068 14.7154 57.9349 14.7654C57.9731 14.8334 57.9847 14.9158 57.9669 14.9916L57.9669 14.9915Z" fill="url(#paint18_linear_2_606)"/>
</g>
<mask id="mask4_2_606" style="mask-type:luminance" maskUnits="userSpaceOnUse" x="53" y="12" width="5" height="6">
<path d="M57.9669 14.9915C58.0095 15.0664 57.8933 15.1503 57.8349 15.2136C57.7064 15.3529 57.5327 15.4433 57.3712 15.5425C57.094 15.7129 56.7798 15.8192 56.508 15.9979C56.326 16.1175 56.1646 16.266 55.9991 16.4076C55.8574 16.5287 55.7422 16.6829 55.5852 16.7833C55.4282 16.8837 55.2551 16.978 55.0702 17.0012C54.846 17.0293 54.6075 16.9892 54.4 16.8998C54.255 16.8373 54.1113 16.7414 54.0269 16.6079C53.9419 16.4736 53.9303 16.3015 53.9222 16.1428C53.9078 15.8588 53.9861 15.5776 54.0243 15.2959C54.0561 15.0615 54.1111 14.8299 54.1302 14.5941C54.1649 14.1657 54.0936 13.7315 54.1452 13.3048C54.1618 13.1671 54.1368 12.9927 54.2395 12.8997C54.335 12.8132 54.4939 12.8472 54.6228 12.8499C54.7796 12.8532 54.9336 12.8944 55.0863 12.9303C55.1826 12.953 55.2736 12.9964 55.3708 13.0152C55.532 13.0462 55.6973 13.0651 55.8613 13.0598C56.0387 13.054 56.2098 12.9756 56.3873 12.9771C56.46 12.9777 56.5337 12.9903 56.6022 13.0146C56.6717 13.0392 56.7423 13.0711 56.7954 13.1221C56.836 13.161 56.8625 13.2138 56.8835 13.266C56.915 13.3439 56.9254 13.429 56.9382 13.512C56.9496 13.5858 56.9311 13.6652 56.9576 13.7351C57.0434 13.96 57.219 14.144 57.3899 14.3135C57.4716 14.4042 57.5788 14.4791 57.6789 14.5397C57.7853 14.6041 57.8836 14.6545 57.9349 14.7654C57.9659 14.835 57.9095 14.9416 57.967 14.9916L57.9669 14.9915Z" fill="white"/>
</mask>
<g mask="url(#mask4_2_606)">
<g filter="url(#filter22_f_2_606)">
<path d="M57.8209 14.8438C57.7919 14.9165 57.7512 14.9839 57.7004 15.0435C57.5878 15.1753 57.4319 15.2616 57.2769 15.3392C57.012 15.4718 56.7378 15.5884 56.4886 15.7485C56.3221 15.8555 56.1681 15.9812 56.0239 16.1168C55.9006 16.2327 55.7837 16.3566 55.6459 16.4546C55.5062 16.554 55.3451 16.6255 55.1755 16.6505C54.9689 16.681 54.7556 16.6415 54.5636 16.5593C54.4297 16.5021 54.3004 16.4201 54.2228 16.2969C54.1457 16.1742 54.1277 16.0237 54.1272 15.8788C54.1266 15.6227 54.1749 15.3694 54.2205 15.1174C54.2583 14.9079 54.2943 14.698 54.3172 14.4865C54.3589 14.1018 54.3569 13.7133 54.3309 13.3273C54.3265 13.2626 54.3215 13.1973 54.3314 13.1333C54.3414 13.0693 54.3679 13.0055 54.417 12.9632C54.4631 12.9235 54.5249 12.9061 54.5857 12.9029C54.6465 12.8997 54.7069 12.9096 54.7671 12.9184C54.9087 12.9392 55.0516 12.9549 55.1902 12.9907C55.2776 13.0133 55.3629 13.0437 55.4501 13.067C55.5958 13.1059 55.7482 13.1244 55.8981 13.1071C56.0593 13.0885 56.2161 13.0288 56.3784 13.0327C56.445 13.0344 56.511 13.0468 56.5748 13.0665C56.6395 13.0864 56.7036 13.1149 56.7512 13.1632C56.7871 13.1995 56.8119 13.2453 56.8316 13.2925C56.861 13.3626 56.88 13.4376 56.8816 13.5137C56.8832 13.5931 56.8658 13.6728 56.8766 13.7514C56.8853 13.8153 56.9124 13.8755 56.9469 13.93C56.9814 13.9844 57.0235 14.0335 57.0651 14.0827C57.1456 14.1779 57.2264 14.2747 57.3272 14.3477C57.4422 14.4309 57.5785 14.4794 57.6972 14.5571C57.7326 14.5802 57.7669 14.6064 57.7918 14.6405C57.8126 14.6696 57.8261 14.7032 57.8312 14.7386C57.8363 14.774 57.8328 14.8101 57.821 14.8438H57.8209Z" fill="#CD8907"/>
</g>
</g>
<mask id="mask5_2_606" style="mask-type:luminance" maskUnits="userSpaceOnUse" x="53" y="12" width="5" height="6">
<path d="M57.9669 14.9915C58.0095 15.0664 57.8933 15.1503 57.8349 15.2136C57.7063 15.3529 57.5326 15.4433 57.371 15.5426C57.0939 15.7129 56.7797 15.8198 56.5078 15.9979C56.3259 16.1176 56.1645 16.2661 55.9989 16.4076C55.8573 16.5287 55.742 16.683 55.585 16.7833C55.4279 16.8835 55.2549 16.9779 55.0699 17.0012C54.8457 17.0294 54.6073 16.9892 54.4004 16.8998C54.2553 16.8373 54.1111 16.7414 54.0272 16.6079C53.9423 16.4736 53.9306 16.3016 53.9226 16.1429C53.9081 15.8589 53.9864 15.5777 54.0247 15.2959C54.0565 15.0615 54.1115 14.8299 54.1306 14.5942C54.1652 14.1658 54.094 13.7315 54.1456 13.3048C54.1616 13.1672 54.1371 12.9927 54.2398 12.8997C54.3353 12.8133 54.4943 12.8478 54.6231 12.85C54.7799 12.8533 54.934 12.8946 55.0866 12.9304C55.183 12.953 55.2739 12.9965 55.3711 13.0153C55.5318 13.0464 55.6975 13.0653 55.8617 13.0599C56.0391 13.0541 56.2101 12.9757 56.3876 12.9772C56.4604 12.9778 56.534 12.9905 56.6026 13.0147C56.6721 13.0393 56.7426 13.0713 56.7958 13.1223C56.8363 13.1612 56.8627 13.214 56.8838 13.2666C56.9153 13.3446 56.9257 13.4296 56.9385 13.5126C56.9498 13.5864 56.9313 13.666 56.9579 13.7357C57.0436 13.9606 57.2193 14.1446 57.3902 14.3141C57.4719 14.4047 57.579 14.4797 57.6792 14.5403C57.7855 14.6047 57.8838 14.6551 57.9352 14.766C57.9661 14.8356 57.9097 14.9423 57.9673 14.9922L57.9669 14.9915Z" fill="white"/>
</mask>
<g mask="url(#mask5_2_606)">
<g filter="url(#filter23_f_2_606)">
<path d="M57.8044 14.762C57.7721 14.835 57.7304 14.9031 57.6807 14.9635C57.5653 15.1037 57.4096 15.2003 57.2456 15.2622C56.9755 15.3642 56.6807 15.3779 56.4156 15.4941C56.2541 15.5649 56.1087 15.6716 55.9614 15.7725C55.8424 15.8539 55.7208 15.9324 55.5901 15.9894C55.4425 16.0538 55.2856 16.0899 55.1281 16.1153C55.0279 16.1314 54.9265 16.1432 54.8253 16.1376C54.7242 16.132 54.6227 16.1083 54.5334 16.0568C54.4657 16.0176 54.4049 15.9613 54.3687 15.8883C54.3285 15.8071 54.3215 15.7118 54.3225 15.6197C54.325 15.3745 54.3775 15.132 54.3759 14.8868C54.3745 14.6733 54.3322 14.4626 54.32 14.2496C54.2966 13.8398 54.3846 13.423 54.3072 13.0211C54.2949 12.9568 54.2782 12.8925 54.279 12.8268C54.2794 12.7938 54.2843 12.7609 54.2958 12.7305C54.3073 12.7001 54.326 12.6725 54.3507 12.6532C54.3716 12.6371 54.3963 12.6272 54.4216 12.6228C54.4469 12.6183 54.4729 12.6192 54.4983 12.6232C54.5491 12.6311 54.5975 12.651 54.6469 12.6658C54.7884 12.7079 54.9379 12.707 55.0817 12.7388C55.172 12.7588 55.2594 12.7914 55.3487 12.8158C55.4986 12.8563 55.655 12.8743 55.8089 12.8563C55.9744 12.8369 56.136 12.7769 56.3023 12.7812C56.3705 12.7829 56.4382 12.7956 56.504 12.8153C56.5698 12.8349 56.6355 12.8626 56.6852 12.9129C56.7211 12.9491 56.7468 12.9954 56.7678 13.0434C56.7984 13.1134 56.8196 13.1895 56.8192 13.2667C56.8189 13.307 56.8127 13.3469 56.8091 13.3869C56.8056 13.4268 56.8044 13.4679 56.814 13.5068C56.8235 13.5457 56.8436 13.5811 56.8666 13.6131C56.8896 13.645 56.9156 13.6743 56.9393 13.7056C57.0059 13.7932 57.0534 13.8953 57.1052 13.9937C57.157 14.0922 57.2151 14.1897 57.297 14.2605C57.4084 14.3571 57.5529 14.3957 57.6771 14.4719C57.7135 14.4943 57.7487 14.5204 57.7742 14.5562C57.7947 14.585 57.8082 14.6189 57.8135 14.6548C57.8187 14.6906 57.8155 14.7274 57.8043 14.7616L57.8044 14.762Z" fill="#F5C021"/>
</g>
</g>
<g filter="url(#filter24_f_2_606)">
<path d="M54.2791 13.0596C54.4326 13.018 54.5633 13.1344 54.6747 13.2223C54.7466 13.2837 54.8505 13.2682 54.9388 13.2711C55.085 13.2658 55.2305 13.2956 55.3769 13.2775C55.6648 13.2531 55.9471 13.1824 56.2364 13.1697C56.3746 13.161 56.5298 13.153 56.6492 13.2337C56.6976 13.2672 56.7685 13.4089 56.8163 13.3558C56.7966 13.2068 56.6861 13.0626 56.5379 13.0229C56.4219 13.0047 56.3036 13.0365 56.1869 13.0262C55.8391 13.0179 55.4937 12.9533 55.145 12.9719C54.9024 12.974 54.6601 12.9627 54.4179 12.9533C54.3228 12.9338 54.2892 13.0184 54.2375 13.0507" fill="url(#paint19_linear_2_606)"/>
</g>
<g opacity="0.75" filter="url(#filter25_f_2_606)">
<path d="M54.9673 10.2278C55.0229 10.2192 55.3664 10.5112 55.3194 10.6202C55.2725 10.7292 55.1843 10.6633 55.1211 10.664C55.058 10.6647 54.8854 10.7431 54.8565 10.6937C54.8276 10.6442 54.9328 10.5287 54.9879 10.4322C55.0323 10.3545 54.9116 10.237 54.9673 10.2284L54.9673 10.2278Z" fill="#7C7C7C"/>
</g>
<g opacity="0.25" filter="url(#filter26_f_2_606)">
<path d="M50.1206 8.38992C50.115 8.32263 50.019 8.31257 49.9761 8.3461C49.9399 8.37448 49.906 8.47126 49.9372 8.50915C49.988 8.57053 50.1282 8.48221 50.1206 8.39001L50.1206 8.38992Z" fill="#7C7C7C"/>
</g>
<g opacity="0.35" filter="url(#filter27_f_2_606)">
<path d="M56.3491 13.2934C56.3227 13.2418 56.2748 13.2032 56.2212 13.1808C56.1676 13.1585 56.1089 13.1513 56.0509 13.1518C55.9349 13.1527 55.8196 13.1829 55.7041 13.1729C55.6065 13.1644 55.5138 13.1277 55.4183 13.1046C55.32 13.0811 55.2157 13.0718 55.1181 13.0979C55.0138 13.1263 54.9217 13.196 54.8641 13.2874C54.8133 13.368 54.7891 13.4633 54.7816 13.5583C54.7741 13.6533 54.7822 13.7488 54.7918 13.8437C54.7988 13.9123 54.8066 13.981 54.8231 14.048C54.8397 14.115 54.8655 14.1803 54.9059 14.2362C54.964 14.3166 55.0504 14.3739 55.1435 14.4084C55.2973 14.4646 55.4665 14.4616 55.6183 14.4001C55.8835 14.2849 56.108 14.0784 56.2449 13.8237C56.2938 13.7325 56.3319 13.6353 56.3565 13.5348C56.3662 13.4948 56.3739 13.4541 56.3743 13.4129C56.3747 13.3718 56.3674 13.33 56.3487 13.2934H56.3491Z" fill="url(#paint20_radial_2_606)"/>
</g>
<g opacity="0.35" filter="url(#filter28_f_2_606)">
<path d="M56.3491 13.2393C56.3227 13.2019 56.2748 13.174 56.2212 13.1579C56.1676 13.1417 56.1089 13.1365 56.0509 13.1369C55.9349 13.1375 55.8196 13.1593 55.7041 13.1521C55.6065 13.146 55.5138 13.1195 55.4183 13.1027C55.32 13.0858 55.2157 13.079 55.1181 13.0979C55.0138 13.1184 54.9217 13.1688 54.8641 13.2349C54.8133 13.2932 54.7891 13.3621 54.7816 13.4307C54.7741 13.4994 54.7822 13.5685 54.7918 13.6371C54.7988 13.6867 54.8066 13.7363 54.8231 13.7848C54.8397 13.8332 54.8655 13.8804 54.9059 13.9208C54.964 13.9789 55.0504 14.0204 55.1435 14.0453C55.2973 14.0859 55.4665 14.0838 55.6183 14.0393C55.8835 13.9561 56.108 13.8068 56.2449 13.6226C56.2938 13.5567 56.3319 13.4864 56.3565 13.4137C56.3662 13.3848 56.3739 13.3554 56.3743 13.3257C56.3747 13.2959 56.3674 13.2657 56.3487 13.2393H56.3491Z" fill="url(#paint21_radial_2_606)"/>
</g>
<path d="M56.5696 12.8102C56.5506 12.7585 56.5172 12.7126 56.4763 12.6757C56.4355 12.6388 56.3873 12.6105 56.3365 12.5889C56.2351 12.5458 56.1247 12.5299 56.0164 12.5094L55.7105 12.4496C55.6041 12.4315 55.4941 12.42 55.3888 12.4437C55.2966 12.4645 55.2114 12.5121 55.1417 12.5759C55.072 12.6396 55.0175 12.7191 54.9784 12.8055C54.9094 12.9569 54.8877 13.1272 54.9009 13.293C54.9107 13.4164 54.9419 13.5435 55.0232 13.637C55.0888 13.7124 55.1819 13.7595 55.2778 13.7879C55.443 13.8368 55.6231 13.8342 55.7868 13.7806C56.059 13.6886 56.2944 13.5115 56.4583 13.2755C56.5117 13.1982 56.5573 13.1139 56.5779 13.0223C56.5937 12.952 56.5942 12.878 56.5696 12.8107V12.8102Z" fill="#020204"/>
<mask id="mask6_2_606" style="mask-type:luminance" maskUnits="userSpaceOnUse" x="54" y="12" width="3" height="2">
<path d="M56.5696 12.8102C56.5506 12.7585 56.5172 12.7126 56.4763 12.6757C56.4355 12.6388 56.3873 12.6105 56.3365 12.5889C56.2351 12.5458 56.1247 12.5299 56.0164 12.5094L55.7105 12.4496C55.6041 12.4315 55.4941 12.42 55.3888 12.4437C55.2966 12.4645 55.2114 12.5121 55.1417 12.5759C55.072 12.6396 55.0175 12.7191 54.9784 12.8055C54.9094 12.9569 54.8877 13.1272 54.9009 13.293C54.9107 13.4164 54.9419 13.5435 55.0232 13.637C55.0888 13.7124 55.1819 13.7595 55.2778 13.7879C55.443 13.8368 55.6231 13.8342 55.7868 13.7806C56.059 13.6886 56.2944 13.5115 56.4583 13.2755C56.5117 13.1982 56.5573 13.1139 56.5779 13.0223C56.5937 12.952 56.5942 12.878 56.5696 12.8107" fill="white"/>
</mask>
<g mask="url(#mask6_2_606)">
<g filter="url(#filter29_f_2_606)">
<path d="M55.4464 12.3944C55.4209 12.3958 55.3954 12.3988 55.3703 12.4032C55.2076 12.4322 55.0588 12.5349 54.9749 12.6771C54.9157 12.7785 54.8886 12.8954 54.8973 13.0124C54.9007 12.9308 54.9221 12.8509 54.9617 12.7795C55.0289 12.6585 55.1507 12.5673 55.2868 12.5423C55.3712 12.527 55.457 12.5362 55.5417 12.5467C55.6229 12.5569 55.7048 12.5675 55.7848 12.5848C55.9085 12.6116 56.031 12.6528 56.1349 12.7254C56.159 12.7423 56.1817 12.7615 56.2007 12.784C56.2198 12.8065 56.2346 12.8326 56.2403 12.8616C56.2486 12.904 56.2365 12.9484 56.2155 12.9861C56.1944 13.0237 56.1656 13.0567 56.1349 13.0871C56.11 13.1117 56.0835 13.1356 56.0573 13.1588C56.1772 13.1356 56.2987 13.1027 56.3984 13.0329C56.4406 13.0034 56.4788 12.968 56.5039 12.923C56.5289 12.8781 56.5396 12.8237 56.5273 12.7737C56.519 12.7399 56.5006 12.7089 56.4775 12.6829C56.4545 12.6569 56.4269 12.6355 56.3985 12.6156C56.2729 12.5276 56.126 12.4712 55.9738 12.453C55.8763 12.435 55.7779 12.4199 55.6795 12.4075C55.6025 12.3978 55.5239 12.39 55.4466 12.3944L55.4464 12.3944Z" fill="url(#paint22_radial_2_606)"/>
</g>
</g>
<mask id="mask7_2_606" style="mask-type:luminance" maskUnits="userSpaceOnUse" x="54" y="12" width="3" height="2">
<path d="M56.5696 12.8102C56.5506 12.7585 56.5172 12.7126 56.4763 12.6757C56.4355 12.6388 56.3873 12.6105 56.3365 12.5889C56.2351 12.5458 56.1247 12.5299 56.0164 12.5094L55.7105 12.4496C55.6041 12.4315 55.4941 12.42 55.3888 12.4437C55.2966 12.4645 55.2114 12.5121 55.1417 12.5759C55.072 12.6396 55.0175 12.7191 54.9784 12.8055C54.9094 12.9569 54.8877 13.1272 54.9009 13.293C54.9107 13.4164 54.9419 13.5435 55.0232 13.637C55.0888 13.7124 55.1819 13.7595 55.2778 13.7879C55.443 13.8368 55.6231 13.8342 55.7868 13.7806C56.059 13.6886 56.2944 13.5115 56.4583 13.2755C56.5117 13.1982 56.5573 13.1139 56.5779 13.0223C56.5937 12.952 56.5942 12.878 56.5696 12.8107" fill="white"/>
</mask>
<g mask="url(#mask7_2_606)">
<g filter="url(#filter30_f_2_606)">
<path d="M55.4464 12.3944C55.4209 12.3958 55.3954 12.3988 55.3703 12.4032C55.2076 12.4322 55.0588 12.5349 54.9749 12.6771C54.9157 12.7785 54.8886 12.8954 54.8973 13.0124C54.9007 12.9308 54.9221 12.8509 54.9617 12.7795C55.0289 12.6585 55.1507 12.5673 55.2868 12.5423C55.3712 12.527 55.457 12.5362 55.5417 12.5467C55.6229 12.5569 55.7048 12.5675 55.7848 12.5848C55.9085 12.6116 56.031 12.6528 56.1349 12.7254C56.159 12.7423 56.1817 12.7615 56.2007 12.784C56.2198 12.8065 56.2346 12.8326 56.2403 12.8616C56.2486 12.904 56.2365 12.9484 56.2155 12.9861C56.1944 13.0237 56.1656 13.0567 56.1349 13.0871C56.11 13.1117 56.0835 13.1356 56.0573 13.1588C56.1772 13.1356 56.2987 13.1027 56.3984 13.0329C56.4406 13.0034 56.4788 12.968 56.5039 12.923C56.5289 12.8781 56.5396 12.8237 56.5273 12.7737C56.519 12.7399 56.5006 12.7089 56.4775 12.6829C56.4545 12.6569 56.4269 12.6355 56.3985 12.6156C56.2729 12.5276 56.126 12.4712 55.9738 12.453C55.8763 12.435 55.7779 12.4199 55.6795 12.4075C55.6025 12.3978 55.5239 12.39 55.4466 12.3944L55.4464 12.3944Z" fill="url(#paint23_linear_2_606)"/>
</g>
</g>
<path d="M50.1171 8.08163L49.3241 9.07446C49.1585 9.27972 48.989 9.48657 48.8812 9.72725C48.7886 9.93406 48.7449 10.1587 48.6814 10.3763C48.6093 10.6234 48.5115 10.8623 48.4016 11.095C48.3002 11.3098 48.1884 11.5197 48.0764 11.7293C47.9949 11.8818 47.9121 12.0377 47.8839 12.2082C47.8616 12.343 47.8745 12.4821 47.9089 12.6144C47.9433 12.7466 47.9979 12.8726 48.0606 12.9942C48.3262 13.5132 48.7247 13.9606 49.1967 14.3028C49.4108 14.4582 49.6403 14.5925 49.881 14.7024C50.0113 14.7619 50.1487 14.8151 50.292 14.8175C50.3637 14.8188 50.4361 14.807 50.5017 14.7782C50.5673 14.7494 50.6259 14.703 50.6649 14.6429C50.7129 14.5689 50.7291 14.4771 50.7195 14.3895C50.7099 14.3019 50.6757 14.2183 50.6299 14.143C50.5174 13.9592 50.341 13.8262 50.1708 13.6944C49.8034 13.4097 49.448 13.1095 49.1079 12.7928C49.0118 12.7032 48.9158 12.611 48.8487 12.4983C48.7834 12.3884 48.7481 12.2633 48.7242 12.1378C48.6586 11.7933 48.6754 11.4309 48.7926 11.1006C48.8384 10.9713 48.899 10.8479 48.9574 10.7238C49.0587 10.5087 49.1546 10.2896 49.2878 10.0927C49.4536 9.8476 49.6752 9.64 49.8103 9.37672C49.9244 9.1546 49.9706 8.90472 50.0148 8.65888L50.1171 8.08163Z" fill="#020204"/>
<mask id="mask8_2_606" style="mask-type:luminance" maskUnits="userSpaceOnUse" x="47" y="8" width="4" height="7">
<path d="M50.0965 8.09039C50.0965 8.09039 49.8572 8.38773 49.7265 8.57059C49.5957 8.75345 49.4576 8.88223 49.324 9.07436C49.1905 9.2665 48.9789 9.51637 48.8812 9.72716C48.7835 9.93794 48.7725 10.1506 48.6813 10.3762C48.5902 10.6018 48.5079 10.8749 48.4016 11.0949C48.2952 11.3149 48.1499 11.5487 48.0763 11.7292C48.0028 11.9097 47.8978 11.9974 47.8838 12.2081C47.8699 12.4188 47.8568 12.5979 48.0606 12.9941C48.2644 13.3903 48.8683 14.0254 49.1966 14.3028C49.5249 14.5801 49.6367 14.6413 49.8809 14.7023C50.1252 14.7633 50.5302 14.8428 50.6649 14.6428C50.7996 14.4428 50.7714 14.3633 50.6298 14.143C50.4882 13.9227 50.4037 13.8945 50.1707 13.6943C49.9378 13.4942 49.2973 12.9974 49.1078 12.7927C48.9182 12.5881 48.7747 12.6328 48.8486 12.4982C48.9225 12.3636 48.7452 12.3103 48.7241 12.1377C48.6883 11.8451 48.7683 11.2614 48.7925 11.1005C48.8167 10.9396 48.8498 10.9635 48.9573 10.7237C49.0648 10.484 49.1506 10.3196 49.2877 10.0926C49.4248 9.86568 49.6919 9.61801 49.8102 9.37667C49.9286 9.13533 49.9744 8.87431 50.0147 8.65883C50.0549 8.44336 50.0965 8.09039 50.0965 8.09039Z" fill="white"/>
</mask>
<g mask="url(#mask8_2_606)">
<g opacity="0.95" filter="url(#filter31_f_2_606)">
<path d="M49.3594 9.94886C49.2504 10.0492 49.1565 10.1647 49.0804 10.2918C48.9554 10.5008 48.8817 10.7355 48.7909 10.9615C48.7232 11.1297 48.6444 11.2985 48.635 11.4796C48.6301 11.5725 48.6439 11.6654 48.647 11.7585C48.6502 11.8516 48.6415 11.9483 48.5955 12.0295C48.5574 12.0975 48.494 12.1509 48.4205 12.1769C48.5203 12.2105 48.6075 12.2737 48.6705 12.358C48.7228 12.4283 48.7562 12.5105 48.8016 12.5853C48.8385 12.6461 48.8837 12.7024 48.9395 12.7467C48.9953 12.791 49.0618 12.8226 49.1324 12.8317C49.181 12.8376 49.2303 12.8329 49.2769 12.818C49.3235 12.8031 49.3664 12.7783 49.4026 12.7454C49.3124 11.9002 49.395 11.0369 49.6439 10.2242C49.6596 10.1729 49.6761 10.1212 49.68 10.0677C49.6839 10.0141 49.6739 9.95762 49.6414 9.91498C49.6241 9.89225 49.6007 9.87421 49.5744 9.86305C49.548 9.8519 49.5188 9.84782 49.4905 9.85124C49.4622 9.85466 49.4347 9.86558 49.4118 9.88264C49.3888 9.8997 49.3704 9.9228 49.359 9.94895L49.3594 9.94886Z" fill="#7C7C7C"/>
</g>
</g>
<mask id="mask9_2_606" style="mask-type:luminance" maskUnits="userSpaceOnUse" x="46" y="12" width="5" height="5">
<path d="M48.1994 12.6083C48.2744 12.5772 48.3587 12.5716 48.4384 12.5863C48.5182 12.601 48.5935 12.6355 48.6607 12.681C48.7949 12.7722 48.8944 12.9049 48.9898 13.0363C49.2087 13.3378 49.4195 13.6456 49.6105 13.9655C49.7654 14.2251 49.9078 14.4931 50.0868 14.7366C50.2037 14.8955 50.3355 15.043 50.4529 15.2015C50.5704 15.36 50.6745 15.5322 50.7266 15.7225C50.7943 15.9698 50.7681 16.2423 50.6504 16.4701C50.5676 16.6304 50.4406 16.7678 50.2862 16.8609C50.1317 16.9541 49.9502 17.0022 49.7699 16.9954C49.4834 16.9846 49.2216 16.8415 48.9553 16.7353C48.4126 16.5192 47.8231 16.4514 47.2637 16.283C47.0917 16.2313 46.9227 16.1701 46.7496 16.1225C46.6727 16.1014 46.5945 16.0827 46.5218 16.0498C46.4492 16.0169 46.3813 15.9678 46.3409 15.8991C46.3097 15.8459 46.2964 15.7833 46.2973 15.7217C46.2981 15.66 46.3126 15.5991 46.3336 15.5411C46.3755 15.4252 46.4433 15.3202 46.4891 15.2057C46.5639 15.0188 46.5773 14.8127 46.5673 14.6115C46.5572 14.4104 46.5246 14.2111 46.5108 14.0103C46.5047 13.9206 46.5023 13.8297 46.5195 13.7415C46.5366 13.6532 46.5746 13.5669 46.6393 13.5046C46.699 13.4471 46.7783 13.413 46.8594 13.396C46.9405 13.3791 47.0241 13.3784 47.107 13.3802C47.1899 13.382 47.2729 13.3865 47.3556 13.3797C47.4382 13.373 47.5211 13.3544 47.5932 13.3133C47.6616 13.2742 47.7175 13.216 47.7639 13.1523C47.8103 13.0886 47.8478 13.019 47.8862 12.9502C47.9247 12.8814 47.9644 12.8128 48.0147 12.7521C48.0651 12.6915 48.1267 12.6386 48.1995 12.6084" fill="white"/>
</mask>
<g mask="url(#mask9_2_606)">
<path d="M48.1994 12.6083C48.2744 12.5772 48.3587 12.5716 48.4384 12.5863C48.5182 12.601 48.5935 12.6355 48.6607 12.681C48.7949 12.7722 48.8944 12.9049 48.9898 13.0362C49.2087 13.3378 49.4195 13.6456 49.6105 13.9655C49.7654 14.2251 49.9078 14.4931 50.0868 14.7366C50.2037 14.8955 50.3355 15.043 50.4529 15.2015C50.5704 15.36 50.6745 15.5322 50.7266 15.7225C50.7943 15.9698 50.7681 16.2423 50.6504 16.4701C50.5676 16.6304 50.4406 16.7678 50.2862 16.8609C50.1317 16.9541 49.9502 17.0022 49.7699 16.9954C49.4834 16.9846 49.2216 16.8415 48.9553 16.7353C48.4126 16.5192 47.8231 16.4513 47.2637 16.283C47.0917 16.2313 46.9227 16.1701 46.7496 16.1225C46.6727 16.1014 46.5945 16.0827 46.5218 16.0498C46.4492 16.0169 46.3813 15.9678 46.3409 15.8991C46.3097 15.8459 46.2964 15.7833 46.2973 15.7216C46.2981 15.66 46.3126 15.5991 46.3336 15.5411C46.3755 15.4252 46.4433 15.3202 46.4891 15.2057C46.5639 15.0188 46.5773 14.8127 46.5673 14.6115C46.5572 14.4104 46.5246 14.2111 46.5108 14.0103C46.5047 13.9206 46.5023 13.8297 46.5195 13.7415C46.5366 13.6532 46.5746 13.5669 46.6393 13.5046C46.699 13.4471 46.7783 13.413 46.8594 13.396C46.9405 13.379 47.0241 13.3783 47.107 13.3802C47.1899 13.382 47.2729 13.3864 47.3556 13.3797C47.4382 13.373 47.5211 13.3544 47.5932 13.3133C47.6616 13.2742 47.7175 13.216 47.7639 13.1523C47.8103 13.0886 47.8478 13.019 47.8862 12.9502C47.9247 12.8814 47.9644 12.8128 48.0147 12.7521C48.0651 12.6915 48.1267 12.6386 48.1995 12.6084L48.1994 12.6083Z" fill="url(#paint24_linear_2_606)"/>
<g filter="url(#filter32_f_2_606)">
<path d="M48.3177 12.7376C48.3858 12.7102 48.4626 12.7072 48.5343 12.7234C48.606 12.7396 48.6725 12.7749 48.7306 12.8193C48.8467 12.909 48.9274 13.0355 49.0049 13.16C49.1909 13.4615 49.3728 13.7661 49.5446 14.077C49.6747 14.311 49.7988 14.55 49.9587 14.7649C50.0648 14.9075 50.1858 15.0381 50.2941 15.179C50.4024 15.32 50.4989 15.4734 50.5469 15.6445C50.6085 15.8651 50.5835 16.1085 50.4768 16.3115C50.3995 16.4579 50.2829 16.5799 50.14 16.6636C49.9968 16.7468 49.8328 16.7873 49.6673 16.7802C49.405 16.7681 49.1654 16.6371 48.9185 16.5482C48.445 16.3764 47.9319 16.3534 47.4462 16.2192C47.2722 16.172 47.1024 16.109 46.9275 16.0649C46.8501 16.0453 46.7713 16.0294 46.6978 15.9983C46.6242 15.9673 46.555 15.9191 46.5151 15.85C46.4854 15.7986 46.4736 15.7381 46.4754 15.6788C46.4772 15.6194 46.4923 15.5616 46.5129 15.5057C46.5552 15.3947 46.6216 15.2948 46.6643 15.1835C46.7289 15.016 46.7369 14.8318 46.7249 14.6527C46.7129 14.4736 46.6818 14.2961 46.6709 14.1169C46.666 14.0368 46.6652 13.9557 46.6815 13.8772C46.6977 13.7986 46.7319 13.7225 46.789 13.6657C46.8509 13.6043 46.9362 13.5709 47.0222 13.5577C47.1083 13.5446 47.1959 13.5503 47.2826 13.5581C47.3692 13.5658 47.4562 13.5755 47.5431 13.5703C47.63 13.5651 47.7182 13.544 47.7901 13.495C47.8555 13.4507 47.9047 13.3861 47.9421 13.3171C47.9795 13.248 48.0062 13.1739 48.0347 13.1007C48.0632 13.0275 48.0941 12.9544 48.1388 12.8898C48.1836 12.8252 48.2436 12.7677 48.3172 12.7382" fill="#D99A03"/>
</g>
<g filter="url(#filter33_f_2_606)">
<path d="M48.2545 12.5673C48.3206 12.5345 48.3984 12.5278 48.4708 12.5426C48.5433 12.5574 48.6104 12.5928 48.6675 12.6391C48.7816 12.7311 48.854 12.8634 48.9215 12.9927C49.0763 13.2898 49.2206 13.5933 49.4059 13.873C49.5404 14.0755 49.6955 14.265 49.8315 14.4669C50.016 14.7407 50.1659 15.042 50.2278 15.3647C50.2694 15.5817 50.2681 15.8157 50.1635 16.0116C50.0946 16.1403 49.9831 16.2463 49.8513 16.3119C49.7194 16.3775 49.5681 16.4047 49.4206 16.3917C49.1884 16.3712 48.9776 16.2571 48.759 16.1775C48.3713 16.0362 47.9522 16.0025 47.5531 15.8958C47.3848 15.8509 47.2204 15.793 47.0493 15.7578C46.974 15.742 46.8973 15.7306 46.8254 15.7035C46.7536 15.6763 46.6855 15.6314 46.6488 15.5649C46.623 15.5182 46.6142 15.4635 46.6181 15.4104C46.622 15.3574 46.6378 15.3057 46.6587 15.2566C46.7003 15.1584 46.7618 15.0684 46.7946 14.9669C46.842 14.8177 46.8225 14.6559 46.7869 14.5036C46.7512 14.3512 46.6999 14.2017 46.6841 14.0461C46.677 13.9768 46.6772 13.9062 46.693 13.8383C46.7088 13.7704 46.7411 13.7052 46.7918 13.6565C46.8571 13.5939 46.9486 13.5627 47.0394 13.5539C47.1303 13.5452 47.2218 13.5571 47.3122 13.57C47.4025 13.5829 47.4934 13.5976 47.5847 13.593C47.6759 13.5884 47.7687 13.565 47.8402 13.5091C47.9109 13.4539 47.9553 13.3716 47.9808 13.2865C48.0063 13.2014 48.0145 13.1125 48.025 13.0244C48.0354 12.9363 48.0484 12.8474 48.0826 12.7653C48.1168 12.6832 48.1745 12.6075 48.2551 12.5675L48.2545 12.5673Z" fill="#F5BD0C"/>
</g>
<g filter="url(#filter34_f_2_606)">
<path d="M49.0818 13.3089C49.204 13.5298 49.2785 13.7832 49.3996 14.006C49.511 14.2109 49.6378 14.4218 49.751 14.6108C49.8014 14.6949 49.919 14.8242 50.0378 15.0249C50.1455 15.2067 50.2543 15.4606 50.3151 15.5458C50.2802 15.446 50.2083 15.1781 50.1225 14.9871C50.0429 14.8085 49.9491 14.7068 49.8916 14.6108C49.7784 14.4218 49.6565 14.252 49.5402 14.0719C49.3797 13.8234 49.2573 13.5454 49.0818 13.3089V13.3089Z" fill="url(#paint25_linear_2_606)"/>
</g>
</g>
</g>
<path d="M1.625 0H63.375C64.2725 0 65 1.34315 65 3V17C65 18.6569 64.2725 20 63.375 20H1.625C0.727537 20 0 18.6569 0 17V3C0 1.34315 0.727537 0 1.625 0Z" fill="url(#paint26_linear_2_606)"/>
<defs>
<filter id="filter0_f_2_606" x="49.6023" y="6.06678" width="4.74229" height="3.51694" filterUnits="userSpaceOnUse" color-interpolation-filters="sRGB">
<feFlood flood-opacity="0" result="BackgroundImageFix"/>
<feBlend mode="normal" in="SourceGraphic" in2="BackgroundImageFix" result="shape"/>
<feGaussianBlur stdDeviation="0.436168" result="effect1_foregroundBlur_2_606"/>
</filter>
<filter id="filter1_f_2_606" x="50.0654" y="6.42512" width="3.63527" height="2.07007" filterUnits="userSpaceOnUse" color-interpolation-filters="sRGB">
<feFlood flood-opacity="0" result="BackgroundImageFix"/>
<feBlend mode="normal" in="SourceGraphic" in2="BackgroundImageFix" result="shape"/>
<feGaussianBlur stdDeviation="0.191623" result="effect1_foregroundBlur_2_606"/>
</filter>
<filter id="filter2_f_2_606" x="49.8699" y="5.49234" width="3.9917" height="2.59141" filterUnits="userSpaceOnUse" color-interpolation-filters="sRGB">
<feFlood flood-opacity="0" result="BackgroundImageFix"/>
<feBlend mode="normal" in="SourceGraphic" in2="BackgroundImageFix" result="shape"/>
<feGaussianBlur stdDeviation="0.291564" result="effect1_foregroundBlur_2_606"/>
</filter>
<filter id="filter3_f_2_606" x="51.8796" y="2.82913" width="2.48995" height="2.4496" filterUnits="userSpaceOnUse" color-interpolation-filters="sRGB">
<feFlood flood-opacity="0" result="BackgroundImageFix"/>
<feBlend mode="normal" in="SourceGraphic" in2="BackgroundImageFix" result="shape"/>
<feGaussianBlur stdDeviation="0.429496" result="effect1_foregroundBlur_2_606"/>
</filter>
<filter id="filter4_f_2_606" x="52.5161" y="5.77077" width="0.390617" height="0.347252" filterUnits="userSpaceOnUse" color-interpolation-filters="sRGB">
<feFlood flood-opacity="0" result="BackgroundImageFix"/>
<feBlend mode="normal" in="SourceGraphic" in2="BackgroundImageFix" result="shape"/>
<feGaussianBlur stdDeviation="0.0533428" result="effect1_foregroundBlur_2_606"/>
</filter>
<filter id="filter5_f_2_606" x="52.4017" y="5.45239" width="0.771703" height="0.766957" filterUnits="userSpaceOnUse" color-interpolation-filters="sRGB">
<feFlood flood-opacity="0" result="BackgroundImageFix"/>
<feBlend mode="normal" in="SourceGraphic" in2="BackgroundImageFix" result="shape"/>
<feGaussianBlur stdDeviation="0.111184" result="effect1_foregroundBlur_2_606"/>
</filter>
<filter id="filter6_f_2_606" x="52.6619" y="4.7238" width="0.845817" height="0.790298" filterUnits="userSpaceOnUse" color-interpolation-filters="sRGB">
<feFlood flood-opacity="0" result="BackgroundImageFix"/>
<feBlend mode="normal" in="SourceGraphic" in2="BackgroundImageFix" result="shape"/>
<feGaussianBlur stdDeviation="0.0317057" result="effect1_foregroundBlur_2_606"/>
</filter>
<filter id="filter7_f_2_606" x="50.7313" y="4.82093" width="0.787863" height="0.706481" filterUnits="userSpaceOnUse" color-interpolation-filters="sRGB">
<feFlood flood-opacity="0" result="BackgroundImageFix"/>
<feBlend mode="normal" in="SourceGraphic" in2="BackgroundImageFix" result="shape"/>
<feGaussianBlur stdDeviation="0.0289208" result="effect1_foregroundBlur_2_606"/>
</filter>
<filter id="filter8_f_2_606" x="50.6506" y="5.49939" width="0.685507" height="0.834257" filterUnits="userSpaceOnUse" color-interpolation-filters="sRGB">
<feFlood flood-opacity="0" result="BackgroundImageFix"/>
<feBlend mode="normal" in="SourceGraphic" in2="BackgroundImageFix" result="shape"/>
<feGaussianBlur stdDeviation="0.109899" result="effect1_foregroundBlur_2_606"/>
</filter>
<filter id="filter9_f_2_606" x="50.7575" y="6.90422" width="1.421" height="1.22824" filterUnits="userSpaceOnUse" color-interpolation-filters="sRGB">
<feFlood flood-opacity="0" result="BackgroundImageFix"/>
<feBlend mode="normal" in="SourceGraphic" in2="BackgroundImageFix" result="shape"/>
<feGaussianBlur stdDeviation="0.192591" result="effect1_foregroundBlur_2_606"/>
</filter>
<filter id="filter10_f_2_606" x="50.236" y="6.21046" width="3.1286" height="1.72376" filterUnits="userSpaceOnUse" color-interpolation-filters="sRGB">
<feFlood flood-opacity="0" result="BackgroundImageFix"/>
<feBlend mode="normal" in="SourceGraphic" in2="BackgroundImageFix" result="shape"/>
<feGaussianBlur stdDeviation="0.162385" result="effect1_foregroundBlur_2_606"/>
</filter>
<filter id="filter11_f_2_606" x="51.2756" y="6.21742" width="1.3206" height="1.46004" filterUnits="userSpaceOnUse" color-interpolation-filters="sRGB">
<feFlood flood-opacity="0" result="BackgroundImageFix"/>
<feBlend mode="normal" in="SourceGraphic" in2="BackgroundImageFix" result="shape"/>
<feGaussianBlur stdDeviation="0.18188" result="effect1_foregroundBlur_2_606"/>
</filter>
<filter id="filter12_f_2_606" x="51.7917" y="6.23008" width="0.359702" height="0.233573" filterUnits="userSpaceOnUse" color-interpolation-filters="sRGB">
<feFlood flood-opacity="0" result="BackgroundImageFix"/>
<feBlend mode="normal" in="SourceGraphic" in2="BackgroundImageFix" result="shape"/>
<feGaussianBlur stdDeviation="0.0235651" result="effect1_foregroundBlur_2_606"/>
</filter>
<filter id="filter13_f_2_606" x="51.1645" y="6.25419" width="0.200828" height="0.211776" filterUnits="userSpaceOnUse" color-interpolation-filters="sRGB">
<feFlood flood-opacity="0" result="BackgroundImageFix"/>
<feBlend mode="normal" in="SourceGraphic" in2="BackgroundImageFix" result="shape"/>
<feGaussianBlur stdDeviation="0.0235651" result="effect1_foregroundBlur_2_606"/>
</filter>
<filter id="filter14_f_2_606" x="52.8761" y="6.5397" width="0.563058" height="0.623917" filterUnits="userSpaceOnUse" color-interpolation-filters="sRGB">
<feFlood flood-opacity="0" result="BackgroundImageFix"/>
<feBlend mode="normal" in="SourceGraphic" in2="BackgroundImageFix" result="shape"/>
<feGaussianBlur stdDeviation="0.073168" result="effect1_foregroundBlur_2_606"/>
</filter>
<filter id="filter15_f_2_606" x="53.8572" y="8.97767" width="2.48629" height="4.96627" filterUnits="userSpaceOnUse" color-interpolation-filters="sRGB">
<feFlood flood-opacity="0" result="BackgroundImageFix"/>
<feBlend mode="normal" in="SourceGraphic" in2="BackgroundImageFix" result="shape"/>
<feGaussianBlur stdDeviation="0.292242" result="effect1_foregroundBlur_2_606"/>
</filter>
<filter id="filter16_f_2_606" x="49.1068" y="8.58" width="2.26526" height="2.15756" filterUnits="userSpaceOnUse" color-interpolation-filters="sRGB">
<feFlood flood-opacity="0" result="BackgroundImageFix"/>
<feBlend mode="normal" in="SourceGraphic" in2="BackgroundImageFix" result="shape"/>
<feGaussianBlur stdDeviation="0.147995" result="effect1_foregroundBlur_2_606"/>
</filter>
<filter id="filter17_f_2_606" x="51.4265" y="8.26535" width="3.49555" height="2.72238" filterUnits="userSpaceOnUse" color-interpolation-filters="sRGB">
<feFlood flood-opacity="0" result="BackgroundImageFix"/>
<feBlend mode="normal" in="SourceGraphic" in2="BackgroundImageFix" result="shape"/>
<feGaussianBlur stdDeviation="0.243791" result="effect1_foregroundBlur_2_606"/>
</filter>
<filter id="filter18_f_2_606" x="50.5777" y="8.61717" width="1.68928" height="1.75951" filterUnits="userSpaceOnUse" color-interpolation-filters="sRGB">
<feFlood flood-opacity="0" result="BackgroundImageFix"/>
<feBlend mode="normal" in="SourceGraphic" in2="BackgroundImageFix" result="shape"/>
<feGaussianBlur stdDeviation="0.168169" result="effect1_foregroundBlur_2_606"/>
</filter>
<filter id="filter19_f_2_606" x="50.3465" y="9.92962" width="1.43813" height="4.05229" filterUnits="userSpaceOnUse" color-interpolation-filters="sRGB">
<feFlood flood-opacity="0" result="BackgroundImageFix"/>
<feBlend mode="normal" in="SourceGraphic" in2="BackgroundImageFix" result="shape"/>
<feGaussianBlur stdDeviation="0.309774" result="effect1_foregroundBlur_2_606"/>
</filter>
<filter id="filter20_f_2_606" x="53.361" y="6.85448" width="1.3427" height="1.40751" filterUnits="userSpaceOnUse" color-interpolation-filters="sRGB">
<feFlood flood-opacity="0" result="BackgroundImageFix"/>
<feBlend mode="normal" in="SourceGraphic" in2="BackgroundImageFix" result="shape"/>
<feGaussianBlur stdDeviation="0.193019" result="effect1_foregroundBlur_2_606"/>
</filter>
<filter id="filter21_f_2_606" x="52.7296" y="12.381" width="5.26481" height="5.56068" filterUnits="userSpaceOnUse" color-interpolation-filters="sRGB">
<feFlood flood-opacity="0" result="BackgroundImageFix"/>
<feBlend mode="normal" in="SourceGraphic" in2="BackgroundImageFix" result="shape"/>
<feGaussianBlur stdDeviation="0.479548" result="effect1_foregroundBlur_2_606"/>
</filter>
<filter id="filter22_f_2_606" x="52.0796" y="10.8547" width="7.80148" height="7.85363" filterUnits="userSpaceOnUse" color-interpolation-filters="sRGB">
<feFlood flood-opacity="0" result="BackgroundImageFix"/>
<feBlend mode="normal" in="SourceGraphic" in2="BackgroundImageFix" result="shape"/>
<feGaussianBlur stdDeviation="1.0238" result="effect1_foregroundBlur_2_606"/>
</filter>
<filter id="filter23_f_2_606" x="52.6655" y="11.0064" width="6.76387" height="6.74609" filterUnits="userSpaceOnUse" color-interpolation-filters="sRGB">
<feFlood flood-opacity="0" result="BackgroundImageFix"/>
<feBlend mode="normal" in="SourceGraphic" in2="BackgroundImageFix" result="shape"/>
<feGaussianBlur stdDeviation="0.806721" result="effect1_foregroundBlur_2_606"/>
</filter>
<filter id="filter24_f_2_606" x="54.0323" y="12.7452" width="2.98926" height="0.827644" filterUnits="userSpaceOnUse" color-interpolation-filters="sRGB">
<feFlood flood-opacity="0" result="BackgroundImageFix"/>
<feBlend mode="normal" in="SourceGraphic" in2="BackgroundImageFix" result="shape"/>
<feGaussianBlur stdDeviation="0.102615" result="effect1_foregroundBlur_2_606"/>
</filter>
<filter id="filter25_f_2_606" x="53.8695" y="9.24556" width="2.43647" height="2.44656" filterUnits="userSpaceOnUse" color-interpolation-filters="sRGB">
<feFlood flood-opacity="0" result="BackgroundImageFix"/>
<feBlend mode="normal" in="SourceGraphic" in2="BackgroundImageFix" result="shape"/>
<feGaussianBlur stdDeviation="0.491044" result="effect1_foregroundBlur_2_606"/>
</filter>
<filter id="filter26_f_2_606" x="49.6508" y="8.05334" width="0.744248" height="0.750314" filterUnits="userSpaceOnUse" color-interpolation-filters="sRGB">
<feFlood flood-opacity="0" result="BackgroundImageFix"/>
<feBlend mode="normal" in="SourceGraphic" in2="BackgroundImageFix" result="shape"/>
<feGaussianBlur stdDeviation="0.137066" result="effect1_foregroundBlur_2_606"/>
</filter>
<filter id="filter27_f_2_606" x="53.5602" y="11.8636" width="4.0327" height="3.80338" filterUnits="userSpaceOnUse" color-interpolation-filters="sRGB">
<feFlood flood-opacity="0" result="BackgroundImageFix"/>
<feBlend mode="normal" in="SourceGraphic" in2="BackgroundImageFix" result="shape"/>
<feGaussianBlur stdDeviation="0.609264" result="effect1_foregroundBlur_2_606"/>
</filter>
<filter id="filter28_f_2_606" x="54.3062" y="12.614" width="2.54062" height="1.93273" filterUnits="userSpaceOnUse" color-interpolation-filters="sRGB">
<feFlood flood-opacity="0" result="BackgroundImageFix"/>
<feBlend mode="normal" in="SourceGraphic" in2="BackgroundImageFix" result="shape"/>
<feGaussianBlur stdDeviation="0.236245" result="effect1_foregroundBlur_2_606"/>
</filter>
<filter id="filter29_f_2_606" x="54.4565" y="11.954" width="2.51505" height="1.64399" filterUnits="userSpaceOnUse" color-interpolation-filters="sRGB">
<feFlood flood-opacity="0" result="BackgroundImageFix"/>
<feBlend mode="normal" in="SourceGraphic" in2="BackgroundImageFix" result="shape"/>
<feGaussianBlur stdDeviation="0.219584" result="effect1_foregroundBlur_2_606"/>
</filter>
<filter id="filter30_f_2_606" x="54.4565" y="11.954" width="2.51505" height="1.64399" filterUnits="userSpaceOnUse" color-interpolation-filters="sRGB">
<feFlood flood-opacity="0" result="BackgroundImageFix"/>
<feBlend mode="normal" in="SourceGraphic" in2="BackgroundImageFix" result="shape"/>
<feGaussianBlur stdDeviation="0.219584" result="effect1_foregroundBlur_2_606"/>
</filter>
<filter id="filter31_f_2_606" x="47.9355" y="9.36505" width="2.23028" height="3.95412" filterUnits="userSpaceOnUse" color-interpolation-filters="sRGB">
<feFlood flood-opacity="0" result="BackgroundImageFix"/>
<feBlend mode="normal" in="SourceGraphic" in2="BackgroundImageFix" result="shape"/>
<feGaussianBlur stdDeviation="0.242506" result="effect1_foregroundBlur_2_606"/>
</filter>
<filter id="filter32_f_2_606" x="44.794" y="11.0322" width="7.46732" height="7.43" filterUnits="userSpaceOnUse" color-interpolation-filters="sRGB">
<feFlood flood-opacity="0" result="BackgroundImageFix"/>
<feBlend mode="normal" in="SourceGraphic" in2="BackgroundImageFix" result="shape"/>
<feGaussianBlur stdDeviation="0.840631" result="effect1_foregroundBlur_2_606"/>
</filter>
<filter id="filter33_f_2_606" x="45.5825" y="11.5004" width="5.70557" height="5.92918" filterUnits="userSpaceOnUse" color-interpolation-filters="sRGB">
<feFlood flood-opacity="0" result="BackgroundImageFix"/>
<feBlend mode="normal" in="SourceGraphic" in2="BackgroundImageFix" result="shape"/>
<feGaussianBlur stdDeviation="0.517366" result="effect1_foregroundBlur_2_606"/>
</filter>
<filter id="filter34_f_2_606" x="48.9233" y="13.1504" width="1.55033" height="2.55399" filterUnits="userSpaceOnUse" color-interpolation-filters="sRGB">
<feFlood flood-opacity="0" result="BackgroundImageFix"/>
<feBlend mode="normal" in="SourceGraphic" in2="BackgroundImageFix" result="shape"/>
<feGaussianBlur stdDeviation="0.0792644" result="effect1_foregroundBlur_2_606"/>
</filter>
<radialGradient id="paint0_radial_2_606" cx="0" cy="0" r="1" gradientUnits="userSpaceOnUse" gradientTransform="translate(226.018 267.018) rotate(-2.41004) scale(11.6631 28.5471)">
<stop stop-color="#FEFEFC"/>
<stop offset="0.757" stop-color="#FEFEFC"/>
<stop offset="1" stop-color="#D4D4D4"/>
</radialGradient>
<radialGradient id="paint1_radial_2_606" cx="0" cy="0" r="1" gradientUnits="userSpaceOnUse" gradientTransform="translate(369.933 279.514) rotate(-1.81001) scale(20.881 30.175)">
<stop stop-color="#FEFEFC"/>
<stop offset="0.757" stop-color="#FEFEFC"/>
<stop offset="1" stop-color="#D4D4D4"/>
</radialGradient>
<radialGradient id="paint2_radial_2_606" cx="0" cy="0" r="1" gradientUnits="userSpaceOnUse" gradientTransform="translate(391.638 -88.2168) rotate(-36.0085) scale(19.1305 12.6908)">
<stop stop-color="#020204"/>
<stop offset="0.734" stop-color="#020204"/>
<stop offset="1" stop-color="#5C5C5C"/>
</radialGradient>
<linearGradient id="paint3_linear_2_606" x1="151.7" y1="48.4564" x2="153.859" y2="51.0507" gradientUnits="userSpaceOnUse">
<stop stop-color="#949494" stop-opacity="0.392"/>
<stop offset="0.5" stop-color="#949494"/>
<stop offset="1" stop-color="#949494" stop-opacity="0.392"/>
</linearGradient>
<linearGradient id="paint4_linear_2_606" x1="250.609" y1="198.962" x2="289.641" y2="231.023" gradientUnits="userSpaceOnUse">
<stop stop-color="#747474"/>
<stop offset="0.125" stop-color="#8C8C8C"/>
<stop offset="0.25" stop-color="#A4A4A4"/>
<stop offset="0.5" stop-color="#D4D4D4"/>
<stop offset="0.619" stop-color="#D4D4D4"/>
<stop offset="1" stop-color="#7C7C7C"/>
</linearGradient>
<linearGradient id="paint5_linear_2_606" x1="63.8772" y1="74.8252" x2="73.3323" y2="84.4986" gradientUnits="userSpaceOnUse">
<stop stop-color="#646464" stop-opacity="0"/>
<stop offset="0.306" stop-color="#646464" stop-opacity="0.583"/>
<stop offset="0.47" stop-color="#646464"/>
<stop offset="0.728" stop-color="#646464" stop-opacity="0.257"/>
<stop offset="1" stop-color="#646464" stop-opacity="0"/>
</linearGradient>
<linearGradient id="paint6_linear_2_606" x1="33.4647" y1="67.8964" x2="41.354" y2="76.541" gradientUnits="userSpaceOnUse">
<stop stop-color="#646464" stop-opacity="0"/>
<stop offset="0.306" stop-color="#646464" stop-opacity="0.583"/>
<stop offset="0.47" stop-color="#646464"/>
<stop offset="0.728" stop-color="#646464" stop-opacity="0.257"/>
<stop offset="1" stop-color="#646464" stop-opacity="0"/>
</linearGradient>
<linearGradient id="paint7_linear_2_606" x1="91.2118" y1="57.8396" x2="93.898" y2="60.8324" gradientUnits="userSpaceOnUse">
<stop stop-color="#757574" stop-opacity="0"/>
<stop offset="0.263" stop-color="#757574"/>
<stop offset="0.5" stop-color="#757574"/>
<stop offset="1" stop-color="#757574" stop-opacity="0"/>
</linearGradient>
<radialGradient id="paint8_radial_2_606" cx="0" cy="0" r="1" gradientUnits="userSpaceOnUse" gradientTransform="translate(903.626 -135.607) rotate(-22.428) scale(90.1348 31.3145)">
<stop stop-color="#D2940A"/>
<stop offset="0.751" stop-color="#D89C08"/>
<stop offset="0.866" stop-color="#B67E07"/>
<stop offset="1" stop-color="#946106"/>
</radialGradient>
<linearGradient id="paint9_linear_2_606" x1="182.883" y1="231.712" x2="342.482" y2="229.235" gradientUnits="userSpaceOnUse">
<stop stop-color="#AD780A"/>
<stop offset="0.12" stop-color="#D89E08"/>
<stop offset="0.255" stop-color="#EDB80B"/>
<stop offset="0.392" stop-color="#EBC80D"/>
<stop offset="0.527" stop-color="#F5D838"/>
<stop offset="0.769" stop-color="#F6D811"/>
<stop offset="1" stop-color="#F5CD31"/>
</linearGradient>
<radialGradient id="paint10_radial_2_606" cx="0" cy="0" r="1" gradientUnits="userSpaceOnUse" gradientTransform="translate(72.4564 18.2595) scale(0.857384 0.262485)">
<stop stop-color="#3A2903"/>
<stop offset="0.555" stop-color="#735208"/>
<stop offset="1" stop-color="#AC8C04"/>
</radialGradient>
<radialGradient id="paint11_radial_2_606" cx="0" cy="0" r="1" gradientUnits="userSpaceOnUse" gradientTransform="translate(57.9394 24.9249) scale(0.163597 0.193935)">
<stop stop-color="#3A2903"/>
<stop offset="0.555" stop-color="#735208"/>
<stop offset="1" stop-color="#AC8C04"/>
</radialGradient>
<linearGradient id="paint12_linear_2_606" x1="112.298" y1="58.6972" x2="112.467" y2="59.5783" gradientUnits="userSpaceOnUse">
<stop stop-color="#F5CE2D"/>
<stop offset="1" stop-color="#D79B08"/>
</linearGradient>
<radialGradient id="paint13_radial_2_606" cx="0" cy="0" r="1" gradientUnits="userSpaceOnUse" gradientTransform="translate(231.529 12.409) rotate(-9.34942) scale(23.7859 10.2026)">
<stop stop-color="#C8C8C8"/>
<stop offset="1" stop-color="#797978"/>
</radialGradient>
<radialGradient id="paint14_radial_2_606" cx="0" cy="0" r="1" gradientUnits="userSpaceOnUse" gradientTransform="translate(-327.928 272.56) rotate(180) scale(32.0114 32.7349)">
<stop/>
<stop offset="1" stop-opacity="0.25"/>
</radialGradient>
<radialGradient id="paint15_radial_2_606" cx="0" cy="0" r="1" gradientUnits="userSpaceOnUse" gradientTransform="translate(825.098 323.834) scale(69.036 36.5328)">
<stop/>
<stop offset="1" stop-opacity="0.25"/>
</radialGradient>
<radialGradient id="paint16_radial_2_606" cx="0" cy="0" r="1" gradientUnits="userSpaceOnUse" gradientTransform="translate(317.495 270.09) scale(11.0249 12.6027)">
<stop/>
<stop offset="1" stop-opacity="0.25"/>
</radialGradient>
<linearGradient id="paint17_linear_2_606" x1="148.352" y1="1193.14" x2="162.957" y2="1293.3" gradientUnits="userSpaceOnUse">
<stop/>
<stop offset="1" stop-opacity="0"/>
</linearGradient>
<linearGradient id="paint18_linear_2_606" x1="1845.43" y1="1565.88" x2="2049.15" y2="1245.64" gradientUnits="userSpaceOnUse">
<stop stop-color="#3E2A06"/>
<stop offset="1" stop-color="#AD780A"/>
</linearGradient>
<linearGradient id="paint19_linear_2_606" x1="170.706" y1="133.762" x2="170.609" y2="139.136" gradientUnits="userSpaceOnUse">
<stop stop-color="#F3CD0C"/>
<stop offset="1" stop-color="#F3CD0C" stop-opacity="0"/>
</linearGradient>
<radialGradient id="paint20_radial_2_606" cx="0" cy="0" r="1" gradientUnits="userSpaceOnUse" gradientTransform="translate(641.651 780.045) rotate(15) scale(36.4048 32.7226)">
<stop stop-color="#110800"/>
<stop offset="0.591" stop-color="#A65A00" stop-opacity="0.8"/>
<stop offset="1" stop-color="#FF921E" stop-opacity="0"/>
</radialGradient>
<radialGradient id="paint21_radial_2_606" cx="0" cy="0" r="1" gradientUnits="userSpaceOnUse" gradientTransform="translate(641.651 567.543) rotate(10.9628) scale(35.818 24.0436)">
<stop stop-color="#110800"/>
<stop offset="0.591" stop-color="#A65A00" stop-opacity="0.8"/>
<stop offset="1" stop-color="#FF921E" stop-opacity="0"/>
</radialGradient>
<radialGradient id="paint22_radial_2_606" cx="0" cy="0" r="1" gradientUnits="userSpaceOnUse" gradientTransform="translate(267.342 142.263) rotate(23.5217) scale(13.2071 2.85535)">
<stop stop-color="#7C7C7C"/>
<stop offset="1" stop-color="#7C7C7C" stop-opacity="0.33"/>
</radialGradient>
<linearGradient id="paint23_linear_2_606" x1="641.653" y1="226.288" x2="646.533" y2="225.854" gradientUnits="userSpaceOnUse">
<stop stop-color="#7C7C7C"/>
<stop offset="1" stop-color="#7C7C7C" stop-opacity="0.33"/>
</linearGradient>
<linearGradient id="paint24_linear_2_606" x1="596.223" y1="1344.63" x2="805.967" y2="1700.41" gradientUnits="userSpaceOnUse">
<stop stop-color="#B98309"/>
<stop offset="1" stop-color="#382605"/>
</linearGradient>
<linearGradient id="paint25_linear_2_606" x1="260.022" y1="734.099" x2="300.557" y2="776.167" gradientUnits="userSpaceOnUse">
<stop stop-color="#EBC40C"/>
<stop offset="1" stop-color="#EBC40C" stop-opacity="0"/>
</linearGradient>
<linearGradient id="paint26_linear_2_606" x1="0" y1="0" x2="0" y2="20" gradientUnits="userSpaceOnUse">
<stop stop-color="#BBBBBB" stop-opacity="0.1"/>
<stop offset="1" stop-opacity="0.1"/>
</linearGradient>
<clipPath id="clip0_2_606">
<rect width="14" height="14" fill="white" transform="translate(45 3)"/>
</clipPath>
</defs>
</svg>
