<svg width="99" height="20" viewBox="0 0 99 20" fill="none" xmlns="http://www.w3.org/2000/svg">
<rect width="99" height="20" rx="3" fill="#555555"/>
<mask id="path-2-inside-1_8_277" fill="white">
<path d="M10.2383 6V15H8.82031V6H10.2383ZM11.6356 11.9004V11.7656C11.6356 11.3086 11.702 10.8848 11.8348 10.4941C11.9677 10.0996 12.1591 9.75781 12.4091 9.46875C12.663 9.17578 12.9716 8.94922 13.3348 8.78906C13.702 8.625 14.1161 8.54297 14.577 8.54297C15.0419 8.54297 15.4559 8.625 15.8192 8.78906C16.1864 8.94922 16.497 9.17578 16.7509 9.46875C17.0048 9.75781 17.1981 10.0996 17.3309 10.4941C17.4637 10.8848 17.5302 11.3086 17.5302 11.7656V11.9004C17.5302 12.3574 17.4637 12.7812 17.3309 13.1719C17.1981 13.5625 17.0048 13.9043 16.7509 14.1973C16.497 14.4863 16.1884 14.7129 15.8251 14.877C15.4618 15.0371 15.0497 15.1172 14.5887 15.1172C14.1239 15.1172 13.7079 15.0371 13.3407 14.877C12.9774 14.7129 12.6688 14.4863 12.4149 14.1973C12.161 13.9043 11.9677 13.5625 11.8348 13.1719C11.702 12.7812 11.6356 12.3574 11.6356 11.9004ZM13.0477 11.7656V11.9004C13.0477 12.1855 13.077 12.4551 13.1356 12.709C13.1942 12.9629 13.286 13.1855 13.411 13.377C13.536 13.5684 13.6962 13.7188 13.8915 13.8281C14.0868 13.9375 14.3192 13.9922 14.5887 13.9922C14.8505 13.9922 15.077 13.9375 15.2684 13.8281C15.4637 13.7188 15.6239 13.5684 15.7489 13.377C15.8739 13.1855 15.9657 12.9629 16.0243 12.709C16.0868 12.4551 16.118 12.1855 16.118 11.9004V11.7656C16.118 11.4844 16.0868 11.2188 16.0243 10.9688C15.9657 10.7148 15.872 10.4902 15.743 10.2949C15.618 10.0996 15.4579 9.94727 15.2626 9.83789C15.0712 9.72461 14.8427 9.66797 14.577 9.66797C14.3114 9.66797 14.0809 9.72461 13.8856 9.83789C13.6942 9.94727 13.536 10.0996 13.411 10.2949C13.286 10.4902 13.1942 10.7148 13.1356 10.9688C13.077 11.2188 13.0477 11.4844 13.0477 11.7656ZM22.8943 8.66016H24.1775V14.8242C24.1775 15.3945 24.0564 15.8789 23.8142 16.2773C23.572 16.6758 23.2341 16.9785 22.8005 17.1855C22.367 17.3965 21.865 17.502 21.2947 17.502C21.0525 17.502 20.783 17.4668 20.4861 17.3965C20.1931 17.3262 19.908 17.2129 19.6306 17.0566C19.3572 16.9043 19.1287 16.7031 18.9451 16.4531L19.6072 15.6211C19.8337 15.8906 20.0837 16.0879 20.3572 16.2129C20.6306 16.3379 20.9177 16.4004 21.2185 16.4004C21.5427 16.4004 21.8181 16.3398 22.0447 16.2188C22.2752 16.1016 22.4529 15.9277 22.5779 15.6973C22.7029 15.4668 22.7654 15.1855 22.7654 14.8535V10.0957L22.8943 8.66016ZM18.5877 11.9004V11.7773C18.5877 11.2969 18.6462 10.8594 18.7634 10.4648C18.8806 10.0664 19.0486 9.72461 19.2673 9.43945C19.4861 9.15039 19.7517 8.92969 20.0642 8.77734C20.3767 8.62109 20.7302 8.54297 21.1248 8.54297C21.5349 8.54297 21.8845 8.61719 22.1736 8.76562C22.4666 8.91406 22.7107 9.12695 22.906 9.4043C23.1013 9.67773 23.2537 10.0059 23.363 10.3887C23.4763 10.7676 23.5603 11.1895 23.615 11.6543V12.0469C23.5642 12.5 23.4783 12.9141 23.3572 13.2891C23.2361 13.6641 23.0759 13.9883 22.8767 14.2617C22.6775 14.5352 22.4314 14.7461 22.1384 14.8945C21.8494 15.043 21.5076 15.1172 21.113 15.1172C20.7263 15.1172 20.3767 15.0371 20.0642 14.877C19.7556 14.7168 19.49 14.4922 19.2673 14.2031C19.0486 13.9141 18.8806 13.5742 18.7634 13.1836C18.6462 12.7891 18.5877 12.3613 18.5877 11.9004ZM19.9998 11.7773V11.9004C19.9998 12.1895 20.0271 12.459 20.0818 12.709C20.1404 12.959 20.2283 13.1797 20.3455 13.3711C20.4666 13.5586 20.6189 13.707 20.8025 13.8164C20.99 13.9219 21.2107 13.9746 21.4646 13.9746C21.7966 13.9746 22.0681 13.9043 22.2791 13.7637C22.4939 13.623 22.658 13.4336 22.7712 13.1953C22.8884 12.9531 22.9705 12.6836 23.0173 12.3867V11.3262C22.9939 11.0957 22.9451 10.8809 22.8709 10.6816C22.8005 10.4824 22.7048 10.3086 22.5837 10.1602C22.4627 10.0078 22.3103 9.89062 22.1267 9.80859C21.9431 9.72266 21.7263 9.67969 21.4763 9.67969C21.2224 9.67969 21.0017 9.73438 20.8142 9.84375C20.6267 9.95312 20.4724 10.1035 20.3513 10.2949C20.2341 10.4863 20.1462 10.709 20.0877 10.9629C20.0291 11.2168 19.9998 11.4883 19.9998 11.7773ZM25.4928 11.9004V11.7656C25.4928 11.3086 25.5592 10.8848 25.692 10.4941C25.8248 10.0996 26.0163 9.75781 26.2663 9.46875C26.5202 9.17578 26.8288 8.94922 27.192 8.78906C27.5592 8.625 27.9733 8.54297 28.4342 8.54297C28.8991 8.54297 29.3131 8.625 29.6764 8.78906C30.0436 8.94922 30.3541 9.17578 30.608 9.46875C30.862 9.75781 31.0553 10.0996 31.1881 10.4941C31.3209 10.8848 31.3873 11.3086 31.3873 11.7656V11.9004C31.3873 12.3574 31.3209 12.7812 31.1881 13.1719C31.0553 13.5625 30.862 13.9043 30.608 14.1973C30.3541 14.4863 30.0455 14.7129 29.6823 14.877C29.319 15.0371 28.9069 15.1172 28.4459 15.1172C27.9811 15.1172 27.5651 15.0371 27.1979 14.877C26.8346 14.7129 26.526 14.4863 26.2721 14.1973C26.0182 13.9043 25.8248 13.5625 25.692 13.1719C25.5592 12.7812 25.4928 12.3574 25.4928 11.9004ZM26.9049 11.7656V11.9004C26.9049 12.1855 26.9342 12.4551 26.9928 12.709C27.0514 12.9629 27.1432 13.1855 27.2682 13.377C27.3932 13.5684 27.5534 13.7188 27.7487 13.8281C27.944 13.9375 28.1764 13.9922 28.4459 13.9922C28.7077 13.9922 28.9342 13.9375 29.1256 13.8281C29.3209 13.7188 29.4811 13.5684 29.6061 13.377C29.7311 13.1855 29.8229 12.9629 29.8815 12.709C29.944 12.4551 29.9752 12.1855 29.9752 11.9004V11.7656C29.9752 11.4844 29.944 11.2188 29.8815 10.9688C29.8229 10.7148 29.7291 10.4902 29.6002 10.2949C29.4752 10.0996 29.3151 9.94727 29.1198 9.83789C28.9284 9.72461 28.6998 9.66797 28.4342 9.66797C28.1686 9.66797 27.9381 9.72461 27.7428 9.83789C27.5514 9.94727 27.3932 10.0996 27.2682 10.2949C27.1432 10.4902 27.0514 10.7148 26.9928 10.9688C26.9342 11.2188 26.9049 11.4844 26.9049 11.7656ZM39.6664 13.6875V6H41.0844V15H39.8012L39.6664 13.6875ZM35.5414 11.9004V11.7773C35.5414 11.2969 35.598 10.8594 35.7113 10.4648C35.8246 10.0664 35.9887 9.72461 36.2035 9.43945C36.4184 9.15039 36.6801 8.92969 36.9887 8.77734C37.2973 8.62109 37.6449 8.54297 38.0316 8.54297C38.4145 8.54297 38.7504 8.61719 39.0395 8.76562C39.3285 8.91406 39.5746 9.12695 39.7777 9.4043C39.9809 9.67773 40.143 10.0059 40.2641 10.3887C40.3852 10.7676 40.4711 11.1895 40.5219 11.6543V12.0469C40.4711 12.5 40.3852 12.9141 40.2641 13.2891C40.143 13.6641 39.9809 13.9883 39.7777 14.2617C39.5746 14.5352 39.3266 14.7461 39.0336 14.8945C38.7445 15.043 38.4066 15.1172 38.0199 15.1172C37.6371 15.1172 37.2914 15.0371 36.9828 14.877C36.6781 14.7168 36.4184 14.4922 36.2035 14.2031C35.9887 13.9141 35.8246 13.5742 35.7113 13.1836C35.598 12.7891 35.5414 12.3613 35.5414 11.9004ZM36.9535 11.7773V11.9004C36.9535 12.1895 36.9789 12.459 37.0297 12.709C37.0844 12.959 37.1684 13.1797 37.2816 13.3711C37.3949 13.5586 37.5414 13.707 37.7211 13.8164C37.9047 13.9219 38.1234 13.9746 38.3773 13.9746C38.6977 13.9746 38.9613 13.9043 39.1684 13.7637C39.3754 13.623 39.5375 13.4336 39.6547 13.1953C39.7758 12.9531 39.8578 12.6836 39.9008 12.3867V11.3262C39.8773 11.0957 39.8285 10.8809 39.7543 10.6816C39.684 10.4824 39.5883 10.3086 39.4672 10.1602C39.3461 10.0078 39.1957 9.89062 39.016 9.80859C38.8402 9.72266 38.6313 9.67969 38.3891 9.67969C38.1313 9.67969 37.9125 9.73438 37.7328 9.84375C37.5531 9.95312 37.4047 10.1035 37.2875 10.2949C37.1742 10.4863 37.0902 10.709 37.0355 10.9629C36.9809 11.2168 36.9535 11.4883 36.9535 11.7773ZM45.4759 15.1172C45.0071 15.1172 44.5833 15.041 44.2044 14.8887C43.8294 14.7324 43.5091 14.5156 43.2434 14.2383C42.9817 13.9609 42.7805 13.6348 42.6399 13.2598C42.4993 12.8848 42.429 12.4805 42.429 12.0469V11.8125C42.429 11.3164 42.5013 10.8672 42.6458 10.4648C42.7903 10.0625 42.9915 9.71875 43.2493 9.43359C43.5071 9.14453 43.8118 8.92383 44.1634 8.77148C44.5149 8.61914 44.8958 8.54297 45.3059 8.54297C45.7591 8.54297 46.1555 8.61914 46.4954 8.77148C46.8352 8.92383 47.1165 9.13867 47.3391 9.41602C47.5657 9.68945 47.7337 10.0156 47.843 10.3945C47.9563 10.7734 48.013 11.1914 48.013 11.6484V12.252H43.1145V11.2383H46.6184V11.127C46.6106 10.873 46.5598 10.6348 46.4661 10.4121C46.3763 10.1895 46.2376 10.0098 46.0501 9.87305C45.8626 9.73633 45.6126 9.66797 45.3001 9.66797C45.0657 9.66797 44.8567 9.71875 44.6731 9.82031C44.4934 9.91797 44.343 10.0605 44.222 10.248C44.1009 10.4355 44.0071 10.6621 43.9407 10.9277C43.8782 11.1895 43.847 11.4844 43.847 11.8125V12.0469C43.847 12.3242 43.8841 12.582 43.9583 12.8203C44.0364 13.0547 44.1497 13.2598 44.2981 13.4355C44.4466 13.6113 44.6263 13.75 44.8372 13.8516C45.0481 13.9492 45.2884 13.998 45.5579 13.998C45.8977 13.998 46.2005 13.9297 46.4661 13.793C46.7317 13.6562 46.9622 13.4629 47.1575 13.2129L47.9016 13.9336C47.7649 14.1328 47.5872 14.3242 47.3684 14.5078C47.1497 14.6875 46.8821 14.834 46.5657 14.9473C46.2532 15.0605 45.8899 15.1172 45.4759 15.1172ZM52.7912 13.2832C52.7912 13.1426 52.756 13.0156 52.6857 12.9023C52.6154 12.7852 52.4806 12.6797 52.2814 12.5859C52.0861 12.4922 51.797 12.4062 51.4142 12.3281C51.0783 12.2539 50.7697 12.166 50.4884 12.0645C50.2111 11.959 49.9728 11.832 49.7736 11.6836C49.5744 11.5352 49.4201 11.3594 49.3107 11.1562C49.2013 10.9531 49.1466 10.7188 49.1466 10.4531C49.1466 10.1953 49.2033 9.95117 49.3166 9.7207C49.4298 9.49023 49.592 9.28711 49.8029 9.11133C50.0138 8.93555 50.2697 8.79688 50.5705 8.69531C50.8752 8.59375 51.215 8.54297 51.59 8.54297C52.1213 8.54297 52.5763 8.63281 52.9552 8.8125C53.338 8.98828 53.631 9.22852 53.8341 9.5332C54.0373 9.83398 54.1388 10.1738 54.1388 10.5527H52.7267C52.7267 10.3848 52.6838 10.2285 52.5978 10.084C52.5158 9.93555 52.3908 9.81641 52.2228 9.72656C52.0548 9.63281 51.8439 9.58594 51.59 9.58594C51.3478 9.58594 51.1466 9.625 50.9865 9.70312C50.8302 9.77734 50.713 9.875 50.6349 9.99609C50.5607 10.1172 50.5236 10.25 50.5236 10.3945C50.5236 10.5 50.5431 10.5957 50.5822 10.6816C50.6252 10.7637 50.6955 10.8398 50.7931 10.9102C50.8908 10.9766 51.0236 11.0391 51.1916 11.0977C51.3634 11.1562 51.5783 11.2129 51.8361 11.2676C52.3205 11.3691 52.7365 11.5 53.0841 11.6602C53.4357 11.8164 53.7052 12.0195 53.8927 12.2695C54.0802 12.5156 54.174 12.8281 54.174 13.207C54.174 13.4883 54.1134 13.7461 53.9923 13.9805C53.8752 14.2109 53.7033 14.4121 53.4767 14.584C53.2502 14.752 52.9787 14.8828 52.6623 14.9766C52.3498 15.0703 51.9982 15.1172 51.6076 15.1172C51.0334 15.1172 50.547 15.0156 50.1486 14.8125C49.7502 14.6055 49.4474 14.3418 49.2404 14.0215C49.0373 13.6973 48.9357 13.3613 48.9357 13.0137H50.3009C50.3166 13.2754 50.3888 13.4844 50.5177 13.6406C50.6505 13.793 50.8146 13.9043 51.0099 13.9746C51.2091 14.041 51.4142 14.0742 51.6252 14.0742C51.8791 14.0742 52.092 14.041 52.2638 13.9746C52.4357 13.9043 52.5666 13.8105 52.6564 13.6934C52.7463 13.5723 52.7912 13.4355 52.7912 13.2832ZM57.042 8.66016V15H55.6241V8.66016H57.042ZM55.5303 6.99609C55.5303 6.78125 55.6006 6.60352 55.7412 6.46289C55.8858 6.31836 56.085 6.24609 56.3389 6.24609C56.5889 6.24609 56.7862 6.31836 56.9307 6.46289C57.0752 6.60352 57.1475 6.78125 57.1475 6.99609C57.1475 7.20703 57.0752 7.38281 56.9307 7.52344C56.7862 7.66406 56.5889 7.73438 56.3389 7.73438C56.085 7.73438 55.8858 7.66406 55.7412 7.52344C55.6006 7.38281 55.5303 7.20703 55.5303 6.99609ZM62.7695 8.66016H64.0527V14.8242C64.0527 15.3945 63.9316 15.8789 63.6894 16.2773C63.4472 16.6758 63.1093 16.9785 62.6757 17.1855C62.2421 17.3965 61.7402 17.502 61.1698 17.502C60.9277 17.502 60.6581 17.4668 60.3613 17.3965C60.0683 17.3262 59.7831 17.2129 59.5058 17.0566C59.2323 16.9043 59.0038 16.7031 58.8202 16.4531L59.4823 15.6211C59.7089 15.8906 59.9589 16.0879 60.2323 16.2129C60.5058 16.3379 60.7929 16.4004 61.0937 16.4004C61.4179 16.4004 61.6933 16.3398 61.9198 16.2188C62.1503 16.1016 62.328 15.9277 62.453 15.6973C62.578 15.4668 62.6405 15.1855 62.6405 14.8535V10.0957L62.7695 8.66016ZM58.4628 11.9004V11.7773C58.4628 11.2969 58.5214 10.8594 58.6386 10.4648C58.7558 10.0664 58.9238 9.72461 59.1425 9.43945C59.3613 9.15039 59.6269 8.92969 59.9394 8.77734C60.2519 8.62109 60.6054 8.54297 60.9999 8.54297C61.4101 8.54297 61.7597 8.61719 62.0488 8.76562C62.3417 8.91406 62.5859 9.12695 62.7812 9.4043C62.9765 9.67773 63.1288 10.0059 63.2382 10.3887C63.3515 10.7676 63.4355 11.1895 63.4902 11.6543V12.0469C63.4394 12.5 63.3534 12.9141 63.2323 13.2891C63.1113 13.6641 62.9511 13.9883 62.7519 14.2617C62.5527 14.5352 62.3066 14.7461 62.0136 14.8945C61.7245 15.043 61.3827 15.1172 60.9882 15.1172C60.6015 15.1172 60.2519 15.0371 59.9394 14.877C59.6308 14.7168 59.3652 14.4922 59.1425 14.2031C58.9238 13.9141 58.7558 13.5742 58.6386 13.1836C58.5214 12.7891 58.4628 12.3613 58.4628 11.9004ZM59.8749 11.7773V11.9004C59.8749 12.1895 59.9023 12.459 59.957 12.709C60.0155 12.959 60.1034 13.1797 60.2206 13.3711C60.3417 13.5586 60.4941 13.707 60.6777 13.8164C60.8652 13.9219 61.0859 13.9746 61.3398 13.9746C61.6718 13.9746 61.9433 13.9043 62.1542 13.7637C62.3691 13.623 62.5331 13.4336 62.6464 13.1953C62.7636 12.9531 62.8456 12.6836 62.8925 12.3867V11.3262C62.8691 11.0957 62.8202 10.8809 62.746 10.6816C62.6757 10.4824 62.58 10.3086 62.4589 10.1602C62.3378 10.0078 62.1855 9.89062 62.0019 9.80859C61.8183 9.72266 61.6015 9.67969 61.3515 9.67969C61.0976 9.67969 60.8769 9.73438 60.6894 9.84375C60.5019 9.95312 60.3476 10.1035 60.2265 10.2949C60.1093 10.4863 60.0214 10.709 59.9628 10.9629C59.9042 11.2168 59.8749 11.4883 59.8749 11.7773ZM67.0379 10.0137V15H65.6258V8.66016H66.9559L67.0379 10.0137ZM66.7859 11.5957L66.3289 11.5898C66.3328 11.1406 66.3953 10.7285 66.5164 10.3535C66.6414 9.97852 66.8133 9.65625 67.032 9.38672C67.2547 9.11719 67.5203 8.91016 67.8289 8.76562C68.1375 8.61719 68.4813 8.54297 68.8602 8.54297C69.1648 8.54297 69.4402 8.58594 69.6863 8.67188C69.9363 8.75391 70.1492 8.88867 70.325 9.07617C70.5047 9.26367 70.6414 9.50781 70.7352 9.80859C70.8289 10.1055 70.8758 10.4707 70.8758 10.9043V15H69.4578V10.8984C69.4578 10.5938 69.4129 10.3535 69.323 10.1777C69.2371 9.99805 69.1102 9.87109 68.9422 9.79688C68.7781 9.71875 68.573 9.67969 68.327 9.67969C68.0848 9.67969 67.868 9.73047 67.6766 9.83203C67.4852 9.93359 67.323 10.0723 67.1902 10.248C67.0613 10.4238 66.9617 10.627 66.8914 10.8574C66.8211 11.0879 66.7859 11.334 66.7859 11.5957Z"/>
</mask>
<path d="M10.2383 6V15H8.82031V6H10.2383ZM11.6356 11.9004V11.7656C11.6356 11.3086 11.702 10.8848 11.8348 10.4941C11.9677 10.0996 12.1591 9.75781 12.4091 9.46875C12.663 9.17578 12.9716 8.94922 13.3348 8.78906C13.702 8.625 14.1161 8.54297 14.577 8.54297C15.0419 8.54297 15.4559 8.625 15.8192 8.78906C16.1864 8.94922 16.497 9.17578 16.7509 9.46875C17.0048 9.75781 17.1981 10.0996 17.3309 10.4941C17.4637 10.8848 17.5302 11.3086 17.5302 11.7656V11.9004C17.5302 12.3574 17.4637 12.7812 17.3309 13.1719C17.1981 13.5625 17.0048 13.9043 16.7509 14.1973C16.497 14.4863 16.1884 14.7129 15.8251 14.877C15.4618 15.0371 15.0497 15.1172 14.5887 15.1172C14.1239 15.1172 13.7079 15.0371 13.3407 14.877C12.9774 14.7129 12.6688 14.4863 12.4149 14.1973C12.161 13.9043 11.9677 13.5625 11.8348 13.1719C11.702 12.7812 11.6356 12.3574 11.6356 11.9004ZM13.0477 11.7656V11.9004C13.0477 12.1855 13.077 12.4551 13.1356 12.709C13.1942 12.9629 13.286 13.1855 13.411 13.377C13.536 13.5684 13.6962 13.7188 13.8915 13.8281C14.0868 13.9375 14.3192 13.9922 14.5887 13.9922C14.8505 13.9922 15.077 13.9375 15.2684 13.8281C15.4637 13.7188 15.6239 13.5684 15.7489 13.377C15.8739 13.1855 15.9657 12.9629 16.0243 12.709C16.0868 12.4551 16.118 12.1855 16.118 11.9004V11.7656C16.118 11.4844 16.0868 11.2188 16.0243 10.9688C15.9657 10.7148 15.872 10.4902 15.743 10.2949C15.618 10.0996 15.4579 9.94727 15.2626 9.83789C15.0712 9.72461 14.8427 9.66797 14.577 9.66797C14.3114 9.66797 14.0809 9.72461 13.8856 9.83789C13.6942 9.94727 13.536 10.0996 13.411 10.2949C13.286 10.4902 13.1942 10.7148 13.1356 10.9688C13.077 11.2188 13.0477 11.4844 13.0477 11.7656ZM22.8943 8.66016H24.1775V14.8242C24.1775 15.3945 24.0564 15.8789 23.8142 16.2773C23.572 16.6758 23.2341 16.9785 22.8005 17.1855C22.367 17.3965 21.865 17.502 21.2947 17.502C21.0525 17.502 20.783 17.4668 20.4861 17.3965C20.1931 17.3262 19.908 17.2129 19.6306 17.0566C19.3572 16.9043 19.1287 16.7031 18.9451 16.4531L19.6072 15.6211C19.8337 15.8906 20.0837 16.0879 20.3572 16.2129C20.6306 16.3379 20.9177 16.4004 21.2185 16.4004C21.5427 16.4004 21.8181 16.3398 22.0447 16.2188C22.2752 16.1016 22.4529 15.9277 22.5779 15.6973C22.7029 15.4668 22.7654 15.1855 22.7654 14.8535V10.0957L22.8943 8.66016ZM18.5877 11.9004V11.7773C18.5877 11.2969 18.6462 10.8594 18.7634 10.4648C18.8806 10.0664 19.0486 9.72461 19.2673 9.43945C19.4861 9.15039 19.7517 8.92969 20.0642 8.77734C20.3767 8.62109 20.7302 8.54297 21.1248 8.54297C21.5349 8.54297 21.8845 8.61719 22.1736 8.76562C22.4666 8.91406 22.7107 9.12695 22.906 9.4043C23.1013 9.67773 23.2537 10.0059 23.363 10.3887C23.4763 10.7676 23.5603 11.1895 23.615 11.6543V12.0469C23.5642 12.5 23.4783 12.9141 23.3572 13.2891C23.2361 13.6641 23.0759 13.9883 22.8767 14.2617C22.6775 14.5352 22.4314 14.7461 22.1384 14.8945C21.8494 15.043 21.5076 15.1172 21.113 15.1172C20.7263 15.1172 20.3767 15.0371 20.0642 14.877C19.7556 14.7168 19.49 14.4922 19.2673 14.2031C19.0486 13.9141 18.8806 13.5742 18.7634 13.1836C18.6462 12.7891 18.5877 12.3613 18.5877 11.9004ZM19.9998 11.7773V11.9004C19.9998 12.1895 20.0271 12.459 20.0818 12.709C20.1404 12.959 20.2283 13.1797 20.3455 13.3711C20.4666 13.5586 20.6189 13.707 20.8025 13.8164C20.99 13.9219 21.2107 13.9746 21.4646 13.9746C21.7966 13.9746 22.0681 13.9043 22.2791 13.7637C22.4939 13.623 22.658 13.4336 22.7712 13.1953C22.8884 12.9531 22.9705 12.6836 23.0173 12.3867V11.3262C22.9939 11.0957 22.9451 10.8809 22.8709 10.6816C22.8005 10.4824 22.7048 10.3086 22.5837 10.1602C22.4627 10.0078 22.3103 9.89062 22.1267 9.80859C21.9431 9.72266 21.7263 9.67969 21.4763 9.67969C21.2224 9.67969 21.0017 9.73438 20.8142 9.84375C20.6267 9.95312 20.4724 10.1035 20.3513 10.2949C20.2341 10.4863 20.1462 10.709 20.0877 10.9629C20.0291 11.2168 19.9998 11.4883 19.9998 11.7773ZM25.4928 11.9004V11.7656C25.4928 11.3086 25.5592 10.8848 25.692 10.4941C25.8248 10.0996 26.0163 9.75781 26.2663 9.46875C26.5202 9.17578 26.8288 8.94922 27.192 8.78906C27.5592 8.625 27.9733 8.54297 28.4342 8.54297C28.8991 8.54297 29.3131 8.625 29.6764 8.78906C30.0436 8.94922 30.3541 9.17578 30.608 9.46875C30.862 9.75781 31.0553 10.0996 31.1881 10.4941C31.3209 10.8848 31.3873 11.3086 31.3873 11.7656V11.9004C31.3873 12.3574 31.3209 12.7812 31.1881 13.1719C31.0553 13.5625 30.862 13.9043 30.608 14.1973C30.3541 14.4863 30.0455 14.7129 29.6823 14.877C29.319 15.0371 28.9069 15.1172 28.4459 15.1172C27.9811 15.1172 27.5651 15.0371 27.1979 14.877C26.8346 14.7129 26.526 14.4863 26.2721 14.1973C26.0182 13.9043 25.8248 13.5625 25.692 13.1719C25.5592 12.7812 25.4928 12.3574 25.4928 11.9004ZM26.9049 11.7656V11.9004C26.9049 12.1855 26.9342 12.4551 26.9928 12.709C27.0514 12.9629 27.1432 13.1855 27.2682 13.377C27.3932 13.5684 27.5534 13.7188 27.7487 13.8281C27.944 13.9375 28.1764 13.9922 28.4459 13.9922C28.7077 13.9922 28.9342 13.9375 29.1256 13.8281C29.3209 13.7188 29.4811 13.5684 29.6061 13.377C29.7311 13.1855 29.8229 12.9629 29.8815 12.709C29.944 12.4551 29.9752 12.1855 29.9752 11.9004V11.7656C29.9752 11.4844 29.944 11.2188 29.8815 10.9688C29.8229 10.7148 29.7291 10.4902 29.6002 10.2949C29.4752 10.0996 29.3151 9.94727 29.1198 9.83789C28.9284 9.72461 28.6998 9.66797 28.4342 9.66797C28.1686 9.66797 27.9381 9.72461 27.7428 9.83789C27.5514 9.94727 27.3932 10.0996 27.2682 10.2949C27.1432 10.4902 27.0514 10.7148 26.9928 10.9688C26.9342 11.2188 26.9049 11.4844 26.9049 11.7656ZM39.6664 13.6875V6H41.0844V15H39.8012L39.6664 13.6875ZM35.5414 11.9004V11.7773C35.5414 11.2969 35.598 10.8594 35.7113 10.4648C35.8246 10.0664 35.9887 9.72461 36.2035 9.43945C36.4184 9.15039 36.6801 8.92969 36.9887 8.77734C37.2973 8.62109 37.6449 8.54297 38.0316 8.54297C38.4145 8.54297 38.7504 8.61719 39.0395 8.76562C39.3285 8.91406 39.5746 9.12695 39.7777 9.4043C39.9809 9.67773 40.143 10.0059 40.2641 10.3887C40.3852 10.7676 40.4711 11.1895 40.5219 11.6543V12.0469C40.4711 12.5 40.3852 12.9141 40.2641 13.2891C40.143 13.6641 39.9809 13.9883 39.7777 14.2617C39.5746 14.5352 39.3266 14.7461 39.0336 14.8945C38.7445 15.043 38.4066 15.1172 38.0199 15.1172C37.6371 15.1172 37.2914 15.0371 36.9828 14.877C36.6781 14.7168 36.4184 14.4922 36.2035 14.2031C35.9887 13.9141 35.8246 13.5742 35.7113 13.1836C35.598 12.7891 35.5414 12.3613 35.5414 11.9004ZM36.9535 11.7773V11.9004C36.9535 12.1895 36.9789 12.459 37.0297 12.709C37.0844 12.959 37.1684 13.1797 37.2816 13.3711C37.3949 13.5586 37.5414 13.707 37.7211 13.8164C37.9047 13.9219 38.1234 13.9746 38.3773 13.9746C38.6977 13.9746 38.9613 13.9043 39.1684 13.7637C39.3754 13.623 39.5375 13.4336 39.6547 13.1953C39.7758 12.9531 39.8578 12.6836 39.9008 12.3867V11.3262C39.8773 11.0957 39.8285 10.8809 39.7543 10.6816C39.684 10.4824 39.5883 10.3086 39.4672 10.1602C39.3461 10.0078 39.1957 9.89062 39.016 9.80859C38.8402 9.72266 38.6313 9.67969 38.3891 9.67969C38.1313 9.67969 37.9125 9.73438 37.7328 9.84375C37.5531 9.95312 37.4047 10.1035 37.2875 10.2949C37.1742 10.4863 37.0902 10.709 37.0355 10.9629C36.9809 11.2168 36.9535 11.4883 36.9535 11.7773ZM45.4759 15.1172C45.0071 15.1172 44.5833 15.041 44.2044 14.8887C43.8294 14.7324 43.5091 14.5156 43.2434 14.2383C42.9817 13.9609 42.7805 13.6348 42.6399 13.2598C42.4993 12.8848 42.429 12.4805 42.429 12.0469V11.8125C42.429 11.3164 42.5013 10.8672 42.6458 10.4648C42.7903 10.0625 42.9915 9.71875 43.2493 9.43359C43.5071 9.14453 43.8118 8.92383 44.1634 8.77148C44.5149 8.61914 44.8958 8.54297 45.3059 8.54297C45.7591 8.54297 46.1555 8.61914 46.4954 8.77148C46.8352 8.92383 47.1165 9.13867 47.3391 9.41602C47.5657 9.68945 47.7337 10.0156 47.843 10.3945C47.9563 10.7734 48.013 11.1914 48.013 11.6484V12.252H43.1145V11.2383H46.6184V11.127C46.6106 10.873 46.5598 10.6348 46.4661 10.4121C46.3763 10.1895 46.2376 10.0098 46.0501 9.87305C45.8626 9.73633 45.6126 9.66797 45.3001 9.66797C45.0657 9.66797 44.8567 9.71875 44.6731 9.82031C44.4934 9.91797 44.343 10.0605 44.222 10.248C44.1009 10.4355 44.0071 10.6621 43.9407 10.9277C43.8782 11.1895 43.847 11.4844 43.847 11.8125V12.0469C43.847 12.3242 43.8841 12.582 43.9583 12.8203C44.0364 13.0547 44.1497 13.2598 44.2981 13.4355C44.4466 13.6113 44.6263 13.75 44.8372 13.8516C45.0481 13.9492 45.2884 13.998 45.5579 13.998C45.8977 13.998 46.2005 13.9297 46.4661 13.793C46.7317 13.6562 46.9622 13.4629 47.1575 13.2129L47.9016 13.9336C47.7649 14.1328 47.5872 14.3242 47.3684 14.5078C47.1497 14.6875 46.8821 14.834 46.5657 14.9473C46.2532 15.0605 45.8899 15.1172 45.4759 15.1172ZM52.7912 13.2832C52.7912 13.1426 52.756 13.0156 52.6857 12.9023C52.6154 12.7852 52.4806 12.6797 52.2814 12.5859C52.0861 12.4922 51.797 12.4062 51.4142 12.3281C51.0783 12.2539 50.7697 12.166 50.4884 12.0645C50.2111 11.959 49.9728 11.832 49.7736 11.6836C49.5744 11.5352 49.4201 11.3594 49.3107 11.1562C49.2013 10.9531 49.1466 10.7188 49.1466 10.4531C49.1466 10.1953 49.2033 9.95117 49.3166 9.7207C49.4298 9.49023 49.592 9.28711 49.8029 9.11133C50.0138 8.93555 50.2697 8.79688 50.5705 8.69531C50.8752 8.59375 51.215 8.54297 51.59 8.54297C52.1213 8.54297 52.5763 8.63281 52.9552 8.8125C53.338 8.98828 53.631 9.22852 53.8341 9.5332C54.0373 9.83398 54.1388 10.1738 54.1388 10.5527H52.7267C52.7267 10.3848 52.6838 10.2285 52.5978 10.084C52.5158 9.93555 52.3908 9.81641 52.2228 9.72656C52.0548 9.63281 51.8439 9.58594 51.59 9.58594C51.3478 9.58594 51.1466 9.625 50.9865 9.70312C50.8302 9.77734 50.713 9.875 50.6349 9.99609C50.5607 10.1172 50.5236 10.25 50.5236 10.3945C50.5236 10.5 50.5431 10.5957 50.5822 10.6816C50.6252 10.7637 50.6955 10.8398 50.7931 10.9102C50.8908 10.9766 51.0236 11.0391 51.1916 11.0977C51.3634 11.1562 51.5783 11.2129 51.8361 11.2676C52.3205 11.3691 52.7365 11.5 53.0841 11.6602C53.4357 11.8164 53.7052 12.0195 53.8927 12.2695C54.0802 12.5156 54.174 12.8281 54.174 13.207C54.174 13.4883 54.1134 13.7461 53.9923 13.9805C53.8752 14.2109 53.7033 14.4121 53.4767 14.584C53.2502 14.752 52.9787 14.8828 52.6623 14.9766C52.3498 15.0703 51.9982 15.1172 51.6076 15.1172C51.0334 15.1172 50.547 15.0156 50.1486 14.8125C49.7502 14.6055 49.4474 14.3418 49.2404 14.0215C49.0373 13.6973 48.9357 13.3613 48.9357 13.0137H50.3009C50.3166 13.2754 50.3888 13.4844 50.5177 13.6406C50.6505 13.793 50.8146 13.9043 51.0099 13.9746C51.2091 14.041 51.4142 14.0742 51.6252 14.0742C51.8791 14.0742 52.092 14.041 52.2638 13.9746C52.4357 13.9043 52.5666 13.8105 52.6564 13.6934C52.7463 13.5723 52.7912 13.4355 52.7912 13.2832ZM57.042 8.66016V15H55.6241V8.66016H57.042ZM55.5303 6.99609C55.5303 6.78125 55.6006 6.60352 55.7412 6.46289C55.8858 6.31836 56.085 6.24609 56.3389 6.24609C56.5889 6.24609 56.7862 6.31836 56.9307 6.46289C57.0752 6.60352 57.1475 6.78125 57.1475 6.99609C57.1475 7.20703 57.0752 7.38281 56.9307 7.52344C56.7862 7.66406 56.5889 7.73438 56.3389 7.73438C56.085 7.73438 55.8858 7.66406 55.7412 7.52344C55.6006 7.38281 55.5303 7.20703 55.5303 6.99609ZM62.7695 8.66016H64.0527V14.8242C64.0527 15.3945 63.9316 15.8789 63.6894 16.2773C63.4472 16.6758 63.1093 16.9785 62.6757 17.1855C62.2421 17.3965 61.7402 17.502 61.1698 17.502C60.9277 17.502 60.6581 17.4668 60.3613 17.3965C60.0683 17.3262 59.7831 17.2129 59.5058 17.0566C59.2323 16.9043 59.0038 16.7031 58.8202 16.4531L59.4823 15.6211C59.7089 15.8906 59.9589 16.0879 60.2323 16.2129C60.5058 16.3379 60.7929 16.4004 61.0937 16.4004C61.4179 16.4004 61.6933 16.3398 61.9198 16.2188C62.1503 16.1016 62.328 15.9277 62.453 15.6973C62.578 15.4668 62.6405 15.1855 62.6405 14.8535V10.0957L62.7695 8.66016ZM58.4628 11.9004V11.7773C58.4628 11.2969 58.5214 10.8594 58.6386 10.4648C58.7558 10.0664 58.9238 9.72461 59.1425 9.43945C59.3613 9.15039 59.6269 8.92969 59.9394 8.77734C60.2519 8.62109 60.6054 8.54297 60.9999 8.54297C61.4101 8.54297 61.7597 8.61719 62.0488 8.76562C62.3417 8.91406 62.5859 9.12695 62.7812 9.4043C62.9765 9.67773 63.1288 10.0059 63.2382 10.3887C63.3515 10.7676 63.4355 11.1895 63.4902 11.6543V12.0469C63.4394 12.5 63.3534 12.9141 63.2323 13.2891C63.1113 13.6641 62.9511 13.9883 62.7519 14.2617C62.5527 14.5352 62.3066 14.7461 62.0136 14.8945C61.7245 15.043 61.3827 15.1172 60.9882 15.1172C60.6015 15.1172 60.2519 15.0371 59.9394 14.877C59.6308 14.7168 59.3652 14.4922 59.1425 14.2031C58.9238 13.9141 58.7558 13.5742 58.6386 13.1836C58.5214 12.7891 58.4628 12.3613 58.4628 11.9004ZM59.8749 11.7773V11.9004C59.8749 12.1895 59.9023 12.459 59.957 12.709C60.0155 12.959 60.1034 13.1797 60.2206 13.3711C60.3417 13.5586 60.4941 13.707 60.6777 13.8164C60.8652 13.9219 61.0859 13.9746 61.3398 13.9746C61.6718 13.9746 61.9433 13.9043 62.1542 13.7637C62.3691 13.623 62.5331 13.4336 62.6464 13.1953C62.7636 12.9531 62.8456 12.6836 62.8925 12.3867V11.3262C62.8691 11.0957 62.8202 10.8809 62.746 10.6816C62.6757 10.4824 62.58 10.3086 62.4589 10.1602C62.3378 10.0078 62.1855 9.89062 62.0019 9.80859C61.8183 9.72266 61.6015 9.67969 61.3515 9.67969C61.0976 9.67969 60.8769 9.73438 60.6894 9.84375C60.5019 9.95312 60.3476 10.1035 60.2265 10.2949C60.1093 10.4863 60.0214 10.709 59.9628 10.9629C59.9042 11.2168 59.8749 11.4883 59.8749 11.7773ZM67.0379 10.0137V15H65.6258V8.66016H66.9559L67.0379 10.0137ZM66.7859 11.5957L66.3289 11.5898C66.3328 11.1406 66.3953 10.7285 66.5164 10.3535C66.6414 9.97852 66.8133 9.65625 67.032 9.38672C67.2547 9.11719 67.5203 8.91016 67.8289 8.76562C68.1375 8.61719 68.4813 8.54297 68.8602 8.54297C69.1648 8.54297 69.4402 8.58594 69.6863 8.67188C69.9363 8.75391 70.1492 8.88867 70.325 9.07617C70.5047 9.26367 70.6414 9.50781 70.7352 9.80859C70.8289 10.1055 70.8758 10.4707 70.8758 10.9043V15H69.4578V10.8984C69.4578 10.5938 69.4129 10.3535 69.323 10.1777C69.2371 9.99805 69.1102 9.87109 68.9422 9.79688C68.7781 9.71875 68.573 9.67969 68.327 9.67969C68.0848 9.67969 67.868 9.73047 67.6766 9.83203C67.4852 9.93359 67.323 10.0723 67.1902 10.248C67.0613 10.4238 66.9617 10.627 66.8914 10.8574C66.8211 11.0879 66.7859 11.334 66.7859 11.5957Z" fill="#010101" fill-opacity="0.3"/>
<path d="M10.2383 6H10.4383V5.8H10.2383V6ZM10.2383 15V15.2H10.4383V15H10.2383ZM8.82031 15H8.62031V15.2H8.82031V15ZM8.82031 6V5.8H8.62031V6H8.82031ZM10.0383 6V15H10.4383V6H10.0383ZM10.2383 14.8H8.82031V15.2H10.2383V14.8ZM9.02031 15V6H8.62031V15H9.02031ZM8.82031 6.2H10.2383V5.8H8.82031V6.2ZM11.8348 10.4941L12.0242 10.5585L12.0244 10.5579L11.8348 10.4941ZM12.4091 9.46875L12.2579 9.33776L12.2578 9.33792L12.4091 9.46875ZM13.3348 8.78906L13.4155 8.97207L13.4164 8.97166L13.3348 8.78906ZM15.8192 8.78906L15.7369 8.97135L15.7393 8.97238L15.8192 8.78906ZM16.7509 9.46875L16.5997 9.59974L16.6006 9.60074L16.7509 9.46875ZM17.3309 10.4941L17.1414 10.5579L17.1416 10.5585L17.3309 10.4941ZM16.7509 14.1973L16.9011 14.3293L16.902 14.3283L16.7509 14.1973ZM15.8251 14.877L15.9058 15.06L15.9074 15.0592L15.8251 14.877ZM13.3407 14.877L13.2584 15.0592L13.2607 15.0603L13.3407 14.877ZM12.4149 14.1973L12.2638 14.3283L12.2647 14.3293L12.4149 14.1973ZM15.2684 13.8281L15.1707 13.6536L15.1692 13.6545L15.2684 13.8281ZM16.0243 12.709L15.8301 12.6612L15.8294 12.664L16.0243 12.709ZM16.0243 10.9688L15.8294 11.0137L15.8303 11.0173L16.0243 10.9688ZM15.743 10.2949L15.5746 10.4027L15.5761 10.4051L15.743 10.2949ZM15.2626 9.83789L15.1607 10.0101L15.1649 10.0124L15.2626 9.83789ZM13.8856 9.83789L13.9849 10.0115L13.986 10.0109L13.8856 9.83789ZM13.1356 10.9688L13.3303 11.0144L13.3305 11.0137L13.1356 10.9688ZM11.8356 11.9004V11.7656H11.4356V11.9004H11.8356ZM11.8356 11.7656C11.8356 11.3281 11.8992 10.9263 12.0242 10.5585L11.6455 10.4298C11.5049 10.8432 11.4356 11.289 11.4356 11.7656H11.8356ZM12.0244 10.5579C12.1497 10.1858 12.3288 9.86731 12.5603 9.59958L12.2578 9.33792C11.9893 9.64832 11.7856 10.0134 11.6453 10.4303L12.0244 10.5579ZM12.5602 9.59974C12.7943 9.32965 13.0786 9.1206 13.4155 8.97207L13.2542 8.60606C12.8645 8.77784 12.5317 9.02192 12.2579 9.33776L12.5602 9.59974ZM13.4164 8.97166C13.7545 8.82063 14.1401 8.74297 14.577 8.74297V8.34297C14.0921 8.34297 13.6496 8.42937 13.2533 8.60646L13.4164 8.97166ZM14.577 8.74297C15.0182 8.74297 15.4034 8.82074 15.7369 8.97134L15.9015 8.60679C15.5084 8.42926 15.0656 8.34297 14.577 8.34297V8.74297ZM15.7393 8.97238C16.0801 9.12103 16.366 9.33006 16.5997 9.59974L16.902 9.33776C16.6279 9.0215 16.2928 8.77741 15.8992 8.60574L15.7393 8.97238ZM16.6006 9.60074C16.8356 9.86832 17.0163 10.1864 17.1414 10.5579L17.5205 10.4303C17.3799 10.0128 17.1739 9.64731 16.9011 9.33676L16.6006 9.60074ZM17.1416 10.5585C17.2666 10.9263 17.3302 11.3281 17.3302 11.7656H17.7302C17.7302 11.289 17.6609 10.8432 17.5203 10.4298L17.1416 10.5585ZM17.3302 11.7656V11.9004H17.7302V11.7656H17.3302ZM17.3302 11.9004C17.3302 12.3379 17.2666 12.7397 17.1416 13.1075L17.5203 13.2363C17.6609 12.8228 17.7302 12.377 17.7302 11.9004H17.3302ZM17.1416 13.1075C17.0165 13.4752 16.8356 13.7941 16.5997 14.0663L16.902 14.3283C17.1739 14.0145 17.3797 13.6498 17.5203 13.2363L17.1416 13.1075ZM16.6006 14.0653C16.3662 14.3322 16.081 14.5419 15.7428 14.6947L15.9074 15.0592C16.2957 14.8839 16.6277 14.6405 16.9011 14.3293L16.6006 14.0653ZM15.7444 14.6939C15.4103 14.8412 15.0263 14.9172 14.5887 14.9172V15.3172C15.073 15.3172 15.5133 15.233 15.9058 15.06L15.7444 14.6939ZM14.5887 14.9172C14.147 14.9172 13.7589 14.8412 13.4207 14.6936L13.2607 15.0603C13.6569 15.2331 14.1008 15.3172 14.5887 15.3172V14.9172ZM13.423 14.6947C13.0848 14.5419 12.7996 14.3322 12.5652 14.0653L12.2647 14.3293C12.5381 14.6405 12.8701 14.8839 13.2584 15.0592L13.423 14.6947ZM12.5661 14.0663C12.3301 13.7941 12.1492 13.4752 12.0242 13.1075L11.6455 13.2363C11.7861 13.6498 11.9919 14.0145 12.2638 14.3283L12.5661 14.0663ZM12.0242 13.1075C11.8992 12.7397 11.8356 12.3379 11.8356 11.9004H11.4356C11.4356 12.377 11.5049 12.8228 11.6455 13.2363L12.0242 13.1075ZM12.8477 11.7656V11.9004H13.2477V11.7656H12.8477ZM12.8477 11.9004C12.8477 12.1993 12.8784 12.484 12.9407 12.754L13.3305 12.664C13.2756 12.4262 13.2477 12.1718 13.2477 11.9004H12.8477ZM12.9407 12.754C13.0039 13.0276 13.104 13.2727 13.2436 13.4863L13.5785 13.2676C13.468 13.0984 13.3845 12.8982 13.3305 12.664L12.9407 12.754ZM13.2436 13.4863C13.3858 13.7041 13.5697 13.8771 13.7938 14.0026L13.9892 13.6536C13.8227 13.5604 13.6862 13.4326 13.5785 13.2676L13.2436 13.4863ZM13.7938 14.0026C14.0245 14.1318 14.292 14.1922 14.5887 14.1922V13.7922C14.3465 13.7922 14.1491 13.7432 13.9892 13.6536L13.7938 14.0026ZM14.5887 14.1922C14.8787 14.1922 15.1408 14.1314 15.3677 14.0018L15.1692 13.6545C15.0132 13.7436 14.8222 13.7922 14.5887 13.7922V14.1922ZM15.3662 14.0026C15.5902 13.8771 15.7741 13.7041 15.9164 13.4863L15.5815 13.2676C15.4737 13.4326 15.3373 13.5604 15.1707 13.6536L15.3662 14.0026ZM15.9164 13.4863C16.0559 13.2727 16.156 13.0276 16.2192 12.754L15.8294 12.664C15.7754 12.8982 15.6919 13.0984 15.5815 13.2676L15.9164 13.4863ZM16.2185 12.7568C16.2852 12.4859 16.318 12.2002 16.318 11.9004H15.918C15.918 12.1709 15.8884 12.4243 15.8301 12.6612L16.2185 12.7568ZM16.318 11.9004V11.7656H15.918V11.9004H16.318ZM16.318 11.7656C16.318 11.4695 16.2851 11.1875 16.2183 10.9202L15.8303 11.0173C15.8885 11.25 15.918 11.4993 15.918 11.7656H16.318ZM16.2192 10.9238C16.1558 10.6493 16.0534 10.4021 15.91 10.1848L15.5761 10.4051C15.6905 10.5784 15.7756 10.7804 15.8294 11.0137L16.2192 10.9238ZM15.9115 10.1871C15.7694 9.96512 15.5854 9.78943 15.3603 9.66339L15.1649 10.0124C15.3304 10.1051 15.4667 10.2341 15.5746 10.4027L15.9115 10.1871ZM15.3644 9.66578C15.1367 9.53098 14.8715 9.46797 14.577 9.46797V9.86797C14.8138 9.86797 15.0057 9.91824 15.1607 10.01L15.3644 9.66578ZM14.577 9.46797C14.2824 9.46797 14.0161 9.53102 13.7853 9.66488L13.986 10.0109C14.1458 9.9182 14.3404 9.86797 14.577 9.86797V9.46797ZM13.7864 9.66424C13.5655 9.79048 13.384 9.96604 13.2426 10.1871L13.5795 10.4027C13.688 10.2332 13.823 10.104 13.9849 10.0115L13.7864 9.66424ZM13.2426 10.1871C13.1038 10.4039 13.0039 10.6503 12.9407 10.9238L13.3305 11.0137C13.3846 10.7794 13.4682 10.5765 13.5795 10.4027L13.2426 10.1871ZM12.9409 10.9231C12.8785 11.1894 12.8477 11.4705 12.8477 11.7656H13.2477C13.2477 11.4983 13.2756 11.2481 13.3303 11.0144L12.9409 10.9231ZM22.8943 8.66016V8.46016H22.7115L22.6951 8.64227L22.8943 8.66016ZM24.1775 8.66016H24.3775V8.46016H24.1775V8.66016ZM22.8005 17.1855L22.7144 17.0051L22.7131 17.0057L22.8005 17.1855ZM20.4861 17.3965L20.4394 17.591L20.44 17.5911L20.4861 17.3965ZM19.6306 17.0566L19.7288 16.8824L19.728 16.8819L19.6306 17.0566ZM18.9451 16.4531L18.7886 16.3286L18.6934 16.4482L18.7839 16.5715L18.9451 16.4531ZM19.6072 15.6211L19.7603 15.4924L19.6029 15.3052L19.4507 15.4966L19.6072 15.6211ZM22.0447 16.2188L21.954 16.0404L21.9504 16.0424L22.0447 16.2188ZM22.7654 10.0957L22.5662 10.0778L22.5654 10.0867V10.0957H22.7654ZM18.7634 10.4648L18.9552 10.5218L18.9553 10.5213L18.7634 10.4648ZM19.2673 9.43945L19.426 9.56119L19.4268 9.56014L19.2673 9.43945ZM20.0642 8.77734L20.1519 8.95713L20.1537 8.95623L20.0642 8.77734ZM22.1736 8.76562L22.0822 8.94354L22.0832 8.94403L22.1736 8.76562ZM22.906 9.4043L22.7425 9.51946L22.7433 9.52054L22.906 9.4043ZM23.363 10.3887L23.1707 10.4436L23.1714 10.446L23.363 10.3887ZM23.615 11.6543H23.815V11.6426L23.8136 11.6309L23.615 11.6543ZM23.615 12.0469L23.8138 12.0691L23.815 12.058V12.0469H23.615ZM22.1384 14.8945L22.048 14.7161L22.0471 14.7166L22.1384 14.8945ZM20.0642 14.877L19.9721 15.0545L19.973 15.0549L20.0642 14.877ZM19.2673 14.2031L19.1079 14.3238L19.1089 14.3252L19.2673 14.2031ZM18.7634 13.1836L18.5717 13.2405L18.5719 13.2411L18.7634 13.1836ZM20.0818 12.709L19.8864 12.7517L19.8871 12.7546L20.0818 12.709ZM20.3455 13.3711L20.1748 13.4756L20.1775 13.4796L20.3455 13.3711ZM20.8025 13.8164L20.7001 13.9883L20.7044 13.9907L20.8025 13.8164ZM22.2791 13.7637L22.1695 13.5963L22.1681 13.5973L22.2791 13.7637ZM22.7712 13.1953L22.5912 13.1082L22.5906 13.1094L22.7712 13.1953ZM23.0173 12.3867L23.2149 12.4179L23.2173 12.4024V12.3867H23.0173ZM23.0173 11.3262H23.2173V11.316L23.2163 11.3059L23.0173 11.3262ZM22.8709 10.6816L22.6822 10.7482L22.6834 10.7515L22.8709 10.6816ZM22.5837 10.1602L22.4272 10.2846L22.4288 10.2866L22.5837 10.1602ZM22.1267 9.80859L22.0419 9.98976L22.0451 9.9912L22.1267 9.80859ZM20.3513 10.2949L20.1823 10.188L20.1808 10.1905L20.3513 10.2949ZM22.8943 8.86016H24.1775V8.46016H22.8943V8.86016ZM23.9775 8.66016V14.8242H24.3775V8.66016H23.9775ZM23.9775 14.8242C23.9775 15.3661 23.8626 15.8126 23.6433 16.1735L23.9851 16.3812C24.2502 15.9452 24.3775 15.423 24.3775 14.8242H23.9775ZM23.6433 16.1735C23.422 16.5376 23.114 16.8142 22.7144 17.0051L22.8867 17.366C23.3543 17.1428 23.7221 16.8139 23.9851 16.3812L23.6433 16.1735ZM22.7131 17.0057C22.3113 17.2012 21.8402 17.302 21.2947 17.302V17.702C21.8898 17.702 22.4226 17.5918 22.888 17.3654L22.7131 17.0057ZM21.2947 17.302C21.0714 17.302 20.8177 17.2695 20.5322 17.2019L20.44 17.5911C20.7483 17.6641 21.0336 17.702 21.2947 17.702V17.302ZM20.5328 17.202C20.2588 17.1363 19.9909 17.0301 19.7288 16.8824L19.5325 17.2309C19.825 17.3957 20.1274 17.5161 20.4394 17.591L20.5328 17.202ZM19.728 16.8819C19.4794 16.7434 19.2727 16.5614 19.1063 16.3347L18.7839 16.5715C18.9846 16.8449 19.235 17.0652 19.5333 17.2314L19.728 16.8819ZM19.1016 16.5777L19.7637 15.7456L19.4507 15.4966L18.7886 16.3286L19.1016 16.5777ZM19.4541 15.7498C19.6965 16.0382 19.9694 16.2555 20.274 16.3948L20.4403 16.031C20.1981 15.9203 19.971 15.7431 19.7603 15.4924L19.4541 15.7498ZM20.274 16.3948C20.5736 16.5317 20.8891 16.6004 21.2185 16.6004V16.2004C20.9464 16.2004 20.6877 16.1441 20.4403 16.031L20.274 16.3948ZM21.2185 16.6004C21.5672 16.6004 21.8768 16.5353 22.139 16.3951L21.9504 16.0424C21.7595 16.1444 21.5183 16.2004 21.2185 16.2004V16.6004ZM22.1353 16.397C22.4025 16.2612 22.6097 16.0582 22.7537 15.7926L22.4021 15.6019C22.2961 15.7973 22.1478 15.9419 21.954 16.0405L22.1353 16.397ZM22.7537 15.7926C22.8983 15.5261 22.9654 15.2102 22.9654 14.8535H22.5654C22.5654 15.1609 22.5075 15.4075 22.4021 15.6019L22.7537 15.7926ZM22.9654 14.8535V10.0957H22.5654V14.8535H22.9654ZM22.9646 10.1136L23.0935 8.67804L22.6951 8.64227L22.5662 10.0778L22.9646 10.1136ZM18.7877 11.9004V11.7773H18.3877V11.9004H18.7877ZM18.7877 11.7773C18.7877 11.313 18.8443 10.895 18.9552 10.5218L18.5717 10.4079C18.4482 10.8237 18.3877 11.2807 18.3877 11.7773H18.7877ZM18.9553 10.5213C19.0666 10.1428 19.2244 9.82401 19.426 9.56119L19.1087 9.31772C18.8728 9.6252 18.6946 9.98997 18.5716 10.4084L18.9553 10.5213ZM19.4268 9.56014C19.6274 9.29504 19.8688 9.09509 20.1519 8.95712L19.9766 8.59757C19.6346 8.76428 19.3447 9.00574 19.1079 9.31876L19.4268 9.56014ZM20.1537 8.95623C20.435 8.81557 20.7572 8.74297 21.1248 8.74297V8.34297C20.7032 8.34297 20.3185 8.42662 19.9748 8.59846L20.1537 8.95623ZM21.1248 8.74297C21.5113 8.74297 21.8279 8.81292 22.0822 8.94354L22.265 8.58771C21.9412 8.42145 21.5586 8.34297 21.1248 8.34297V8.74297ZM22.0832 8.94403C22.346 9.07719 22.5654 9.26794 22.7425 9.51945L23.0695 9.28914C22.856 8.98596 22.5871 8.75094 22.264 8.58722L22.0832 8.94403ZM22.7433 9.52054C22.9231 9.77231 23.0665 10.0788 23.1707 10.4436L23.5554 10.3337C23.4408 9.9329 23.2796 9.58316 23.0688 9.28805L22.7433 9.52054ZM23.1714 10.446C23.2809 10.812 23.3628 11.2223 23.4164 11.6777L23.8136 11.6309C23.7578 11.1566 23.6718 10.7232 23.5547 10.3314L23.1714 10.446ZM23.415 11.6543V12.0469H23.815V11.6543H23.415ZM23.4162 12.0246C23.3667 12.4664 23.2833 12.8672 23.1669 13.2276L23.5475 13.3505C23.6733 12.961 23.7617 12.5336 23.8138 12.0691L23.4162 12.0246ZM23.1669 13.2276C23.0512 13.5857 22.8999 13.8902 22.7151 14.1439L23.0384 14.3795C23.2519 14.0864 23.421 13.7424 23.5475 13.3505L23.1669 13.2276ZM22.7151 14.1439C22.5339 14.3926 22.3119 14.5824 22.048 14.7161L22.2288 15.0729C22.5509 14.9098 22.8211 14.6777 23.0384 14.3795L22.7151 14.1439ZM22.0471 14.7166C21.7917 14.8478 21.4825 14.9172 21.113 14.9172V15.3172C21.5326 15.3172 21.907 15.2382 22.2298 15.0724L22.0471 14.7166ZM21.113 14.9172C20.7548 14.9172 20.4369 14.8432 20.1554 14.699L19.973 15.0549C20.3165 15.231 20.6979 15.3172 21.113 15.3172V14.9172ZM20.1563 14.6994C19.8749 14.5534 19.6315 14.3482 19.4258 14.0811L19.1089 14.3252C19.3485 14.6362 19.6363 14.8802 19.9721 15.0545L20.1563 14.6994ZM19.4268 14.0824C19.2241 13.8146 19.0662 13.4968 18.955 13.1261L18.5719 13.2411C18.6951 13.6517 18.8731 14.0135 19.1079 14.3238L19.4268 14.0824ZM18.9552 13.1266C18.8441 12.7527 18.7877 12.3443 18.7877 11.9004H18.3877C18.3877 12.3783 18.4484 12.8255 18.5717 13.2405L18.9552 13.1266ZM19.7998 11.7773V11.9004H20.1998V11.7773H19.7998ZM19.7998 11.9004C19.7998 12.202 19.8283 12.486 19.8864 12.7517L20.2772 12.6662C20.2259 12.432 20.1998 12.1769 20.1998 11.9004H19.7998ZM19.8871 12.7546C19.9498 13.0224 20.0451 13.2635 20.1749 13.4755L20.516 13.2667C20.4115 13.0958 20.3309 12.8955 20.2765 12.6633L19.8871 12.7546ZM20.1775 13.4796C20.3145 13.6918 20.4889 13.8624 20.7001 13.9882L20.9049 13.6446C20.7489 13.5517 20.6186 13.4254 20.5135 13.2626L20.1775 13.4796ZM20.7044 13.9907C20.9269 14.1158 21.1826 14.1746 21.4646 14.1746V13.7746C21.2388 13.7746 21.0531 13.7279 20.9006 13.6421L20.7044 13.9907ZM21.4646 14.1746C21.8241 14.1746 22.1374 14.0985 22.39 13.9301L22.1681 13.5973C21.9988 13.7101 21.7692 13.7746 21.4646 13.7746V14.1746ZM22.3886 13.931C22.635 13.7697 22.8233 13.5517 22.9519 13.2812L22.5906 13.1094C22.4927 13.3155 22.3528 13.4764 22.1695 13.5963L22.3886 13.931ZM22.9513 13.2824C23.078 13.0206 23.1653 12.7319 23.2149 12.4179L22.8198 12.3555C22.7756 12.6352 22.6989 12.8856 22.5912 13.1082L22.9513 13.2824ZM23.2173 12.3867V11.3262H22.8173V12.3867H23.2173ZM23.2163 11.3059C23.1913 11.06 23.1389 10.8284 23.0583 10.6118L22.6834 10.7515C22.7512 10.9334 22.7965 11.1314 22.8184 11.3464L23.2163 11.3059ZM23.0595 10.6151C22.9823 10.3963 22.8758 10.2018 22.7387 10.0337L22.4288 10.2866C22.5339 10.4154 22.6188 10.5685 22.6823 10.7482L23.0595 10.6151ZM22.7403 10.0357C22.5986 9.85739 22.4202 9.72066 22.2083 9.62599L22.0451 9.9912C22.2004 10.0606 22.3267 10.1582 22.4272 10.2846L22.7403 10.0357ZM22.2115 9.62746C21.9959 9.52655 21.749 9.47969 21.4763 9.47969V9.87969C21.7037 9.87969 21.8903 9.91877 22.0419 9.98973L22.2115 9.62746ZM21.4763 9.47969C21.1931 9.47969 20.9364 9.54095 20.7134 9.67099L20.915 10.0165C21.0671 9.9278 21.2518 9.87969 21.4763 9.87969V9.47969ZM20.7134 9.67099C20.497 9.79723 20.3198 9.97071 20.1823 10.188L20.5203 10.4019C20.6251 10.2363 20.7564 10.109 20.915 10.0165L20.7134 9.67099ZM20.1808 10.1905C20.0507 10.403 19.9555 10.6463 19.8928 10.9179L20.2825 11.0079C20.337 10.7716 20.4176 10.5697 20.5219 10.3994L20.1808 10.1905ZM19.8928 10.9179C19.8304 11.1881 19.7998 11.4748 19.7998 11.7773H20.1998C20.1998 11.5018 20.2277 11.2455 20.2825 11.0079L19.8928 10.9179ZM25.692 10.4941L25.8814 10.5585L25.8816 10.5579L25.692 10.4941ZM26.2663 9.46875L26.1151 9.33776L26.115 9.33792L26.2663 9.46875ZM27.192 8.78906L27.2727 8.97207L27.2736 8.97166L27.192 8.78906ZM29.6764 8.78906L29.5941 8.97135L29.5964 8.97238L29.6764 8.78906ZM30.608 9.46875L30.4569 9.59974L30.4578 9.60074L30.608 9.46875ZM31.1881 10.4941L30.9986 10.5579L30.9988 10.5585L31.1881 10.4941ZM30.608 14.1973L30.7583 14.3293L30.7592 14.3283L30.608 14.1973ZM29.6823 14.877L29.7629 15.06L29.7646 15.0592L29.6823 14.877ZM27.1979 14.877L27.1156 15.0592L27.1179 15.0603L27.1979 14.877ZM26.2721 14.1973L26.121 14.3283L26.1218 14.3293L26.2721 14.1973ZM29.1256 13.8281L29.0279 13.6536L29.0264 13.6545L29.1256 13.8281ZM29.8815 12.709L29.6873 12.6612L29.6866 12.664L29.8815 12.709ZM29.8815 10.9688L29.6866 11.0137L29.6875 11.0173L29.8815 10.9688ZM29.6002 10.2949L29.4318 10.4027L29.4333 10.4051L29.6002 10.2949ZM29.1198 9.83789L29.0179 10.0101L29.022 10.0124L29.1198 9.83789ZM27.7428 9.83789L27.842 10.0115L27.8432 10.0109L27.7428 9.83789ZM26.9928 10.9688L27.1875 11.0144L27.1877 11.0137L26.9928 10.9688ZM25.6928 11.9004V11.7656H25.2928V11.9004H25.6928ZM25.6928 11.7656C25.6928 11.3281 25.7563 10.9263 25.8814 10.5585L25.5027 10.4298C25.3621 10.8432 25.2928 11.289 25.2928 11.7656H25.6928ZM25.8816 10.5579C26.0069 10.1858 26.186 9.86731 26.4175 9.59958L26.115 9.33792C25.8465 9.64832 25.6428 10.0134 25.5025 10.4303L25.8816 10.5579ZM26.4174 9.59974C26.6515 9.32965 26.9358 9.1206 27.2727 8.97207L27.1114 8.60606C26.7217 8.77784 26.3888 9.02192 26.1151 9.33776L26.4174 9.59974ZM27.2736 8.97166C27.6116 8.82063 27.9973 8.74297 28.4342 8.74297V8.34297C27.9493 8.34297 27.5068 8.42937 27.1104 8.60646L27.2736 8.97166ZM28.4342 8.74297C28.8754 8.74297 29.2606 8.82074 29.5941 8.97134L29.7587 8.60679C29.3656 8.42926 28.9228 8.34297 28.4342 8.34297V8.74297ZM29.5964 8.97238C29.9372 9.12103 30.2232 9.33006 30.4569 9.59974L30.7592 9.33776C30.4851 9.0215 30.1499 8.77741 29.7564 8.60574L29.5964 8.97238ZM30.4578 9.60074C30.6928 9.86832 30.8735 10.1864 30.9986 10.5579L31.3777 10.4303C31.2371 10.0128 31.0311 9.64731 30.7583 9.33676L30.4578 9.60074ZM30.9988 10.5585C31.1238 10.9263 31.1873 11.3281 31.1873 11.7656H31.5873C31.5873 11.289 31.5181 10.8432 31.3775 10.4298L30.9988 10.5585ZM31.1873 11.7656V11.9004H31.5873V11.7656H31.1873ZM31.1873 11.9004C31.1873 12.3379 31.1238 12.7397 30.9988 13.1075L31.3775 13.2363C31.5181 12.8228 31.5873 12.377 31.5873 11.9004H31.1873ZM30.9988 13.1075C30.8737 13.4752 30.6928 13.7941 30.4569 14.0663L30.7592 14.3283C31.0311 14.0145 31.2369 13.6498 31.3775 13.2363L30.9988 13.1075ZM30.4578 14.0653C30.2234 14.3322 29.9382 14.5419 29.5999 14.6947L29.7646 15.0592C30.1529 14.8839 30.4849 14.6405 30.7583 14.3293L30.4578 14.0653ZM29.6016 14.6939C29.2675 14.8412 28.8835 14.9172 28.4459 14.9172V15.3172C28.9302 15.3172 29.3705 15.233 29.7629 15.06L29.6016 14.6939ZM28.4459 14.9172C28.0042 14.9172 27.6161 14.8412 27.2779 14.6936L27.1179 15.0603C27.5141 15.2331 27.958 15.3172 28.4459 15.3172V14.9172ZM27.2802 14.6947C26.9419 14.5419 26.6568 14.3322 26.4224 14.0653L26.1218 14.3293C26.3952 14.6405 26.7273 14.8839 27.1156 15.0592L27.2802 14.6947ZM26.4232 14.0663C26.1873 13.7941 26.0064 13.4752 25.8814 13.1075L25.5027 13.2363C25.6433 13.6498 25.8491 14.0145 26.121 14.3283L26.4232 14.0663ZM25.8814 13.1075C25.7563 12.7397 25.6928 12.3379 25.6928 11.9004H25.2928C25.2928 12.377 25.3621 12.8228 25.5027 13.2363L25.8814 13.1075ZM26.7049 11.7656V11.9004H27.1049V11.7656H26.7049ZM26.7049 11.9004C26.7049 12.1993 26.7356 12.484 26.7979 12.754L27.1877 12.664C27.1328 12.4262 27.1049 12.1718 27.1049 11.9004H26.7049ZM26.7979 12.754C26.8611 13.0276 26.9612 13.2727 27.1007 13.4863L27.4357 13.2676C27.3252 13.0984 27.2417 12.8982 27.1877 12.664L26.7979 12.754ZM27.1007 13.4863C27.243 13.7041 27.4269 13.8771 27.651 14.0026L27.8464 13.6536C27.6799 13.5604 27.5434 13.4326 27.4357 13.2676L27.1007 13.4863ZM27.651 14.0026C27.8817 14.1318 28.1492 14.1922 28.4459 14.1922V13.7922C28.2037 13.7922 28.0063 13.7432 27.8464 13.6536L27.651 14.0026ZM28.4459 14.1922C28.7359 14.1922 28.998 14.1314 29.2249 14.0018L29.0264 13.6545C28.8704 13.7436 28.6794 13.7922 28.4459 13.7922V14.1922ZM29.2233 14.0026C29.4474 13.8771 29.6313 13.7041 29.7735 13.4863L29.4386 13.2676C29.3309 13.4326 29.1944 13.5604 29.0279 13.6536L29.2233 14.0026ZM29.7735 13.4863C29.9131 13.2727 30.0132 13.0276 30.0764 12.754L29.6866 12.664C29.6326 12.8982 29.5491 13.0984 29.4386 13.2676L29.7735 13.4863ZM30.0757 12.7568C30.1424 12.4859 30.1752 12.2002 30.1752 11.9004H29.7752C29.7752 12.1709 29.7456 12.4243 29.6873 12.6612L30.0757 12.7568ZM30.1752 11.9004V11.7656H29.7752V11.9004H30.1752ZM30.1752 11.7656C30.1752 11.4695 30.1423 11.1875 30.0755 10.9202L29.6875 11.0173C29.7456 11.25 29.7752 11.4993 29.7752 11.7656H30.1752ZM30.0764 10.9238C30.013 10.6493 29.9106 10.4021 29.7672 10.1848L29.4333 10.4051C29.5477 10.5784 29.6328 10.7804 29.6866 11.0137L30.0764 10.9238ZM29.7687 10.1871C29.6266 9.96512 29.4426 9.78943 29.2175 9.66339L29.022 10.0124C29.1876 10.1051 29.3239 10.2341 29.4318 10.4027L29.7687 10.1871ZM29.2216 9.66578C28.9939 9.53098 28.7287 9.46797 28.4342 9.46797V9.86797C28.671 9.86797 28.8628 9.91824 29.0179 10.01L29.2216 9.66578ZM28.4342 9.46797C28.1396 9.46797 27.8733 9.53102 27.6425 9.66488L27.8432 10.0109C28.003 9.9182 28.1976 9.86797 28.4342 9.86797V9.46797ZM27.6436 9.66424C27.4227 9.79048 27.2412 9.96604 27.0997 10.1871L27.4367 10.4027C27.5452 10.2332 27.6802 10.104 27.842 10.0115L27.6436 9.66424ZM27.0997 10.1871C26.961 10.4039 26.861 10.6503 26.7979 10.9238L27.1877 11.0137C27.2418 10.7794 27.3254 10.5765 27.4367 10.4027L27.0997 10.1871ZM26.7981 10.9231C26.7357 11.1894 26.7049 11.4705 26.7049 11.7656H27.1049C27.1049 11.4983 27.1328 11.2481 27.1875 11.0144L26.7981 10.9231ZM39.6664 13.6875H39.4664V13.6977L39.4675 13.7079L39.6664 13.6875ZM39.6664 6V5.8H39.4664V6H39.6664ZM41.0844 6H41.2844V5.8H41.0844V6ZM41.0844 15V15.2H41.2844V15H41.0844ZM39.8012 15L39.6022 15.0204L39.6207 15.2H39.8012V15ZM35.7113 10.4648L35.9036 10.52L35.9037 10.5195L35.7113 10.4648ZM36.2035 9.43945L36.3633 9.55981L36.364 9.55876L36.2035 9.43945ZM36.9887 8.77734L37.0772 8.95669L37.079 8.95578L36.9887 8.77734ZM39.7777 9.4043L39.6164 9.52247L39.6172 9.52356L39.7777 9.4043ZM40.2641 10.3887L40.0734 10.449L40.0736 10.4496L40.2641 10.3887ZM40.5219 11.6543H40.7219V11.6434L40.7207 11.6326L40.5219 11.6543ZM40.5219 12.0469L40.7206 12.0691L40.7219 12.058V12.0469H40.5219ZM39.0336 14.8945L38.9432 14.7161L38.9422 14.7166L39.0336 14.8945ZM36.9828 14.877L36.8898 15.054L36.8907 15.0545L36.9828 14.877ZM35.7113 13.1836L35.5191 13.2388L35.5192 13.2393L35.7113 13.1836ZM37.0297 12.709L36.8337 12.7488L36.8343 12.7517L37.0297 12.709ZM37.2816 13.3711L37.1095 13.473L37.1105 13.4745L37.2816 13.3711ZM37.7211 13.8164L37.6171 13.9873L37.6215 13.9898L37.7211 13.8164ZM39.6547 13.1953L39.4758 13.1059L39.4752 13.107L39.6547 13.1953ZM39.9008 12.3867L40.0987 12.4154L40.1008 12.4011V12.3867H39.9008ZM39.9008 11.3262H40.1008V11.316L40.0998 11.3059L39.9008 11.3262ZM39.7543 10.6816L39.5657 10.7482L39.5669 10.7515L39.7543 10.6816ZM39.4672 10.1602L39.3106 10.2846L39.3122 10.2866L39.4672 10.1602ZM39.016 9.80859L38.9281 9.98833L38.933 9.99053L39.016 9.80859ZM37.2875 10.2949L37.1169 10.1905L37.1154 10.1931L37.2875 10.2949ZM39.8664 13.6875V6H39.4664V13.6875H39.8664ZM39.6664 6.2H41.0844V5.8H39.6664V6.2ZM40.8844 6V15H41.2844V6H40.8844ZM41.0844 14.8H39.8012V15.2H41.0844V14.8ZM40.0001 14.9796L39.8654 13.6671L39.4675 13.7079L39.6022 15.0204L40.0001 14.9796ZM35.7414 11.9004V11.7773H35.3414V11.9004H35.7414ZM35.7414 11.7773C35.7414 11.3125 35.7962 10.8939 35.9036 10.52L35.5191 10.4096C35.3999 10.8249 35.3414 11.2813 35.3414 11.7773H35.7414ZM35.9037 10.5195C36.0113 10.1411 36.1654 9.82239 36.3633 9.5598L36.0438 9.3191C35.8119 9.62683 35.6379 9.99174 35.519 10.4101L35.9037 10.5195ZM36.364 9.55876C36.5609 9.29391 36.7984 9.09434 37.0772 8.95668L36.9001 8.59801C36.5618 8.76503 36.2758 9.00688 36.043 9.32015L36.364 9.55876ZM37.079 8.95578C37.3564 8.81531 37.6726 8.74297 38.0316 8.74297V8.34297C37.6173 8.34297 37.2381 8.42688 36.8983 8.59891L37.079 8.95578ZM38.0316 8.74297C38.3883 8.74297 38.6919 8.81199 38.9481 8.94354L39.1308 8.58771C38.8089 8.42238 38.4406 8.34297 38.0316 8.34297V8.74297ZM38.9481 8.94354C39.2079 9.07695 39.4305 9.26872 39.6164 9.52247L39.9391 9.28612C39.7187 8.98519 39.4491 8.75117 39.1308 8.58771L38.9481 8.94354ZM39.6172 9.52356C39.8049 9.7763 39.9578 10.0837 40.0734 10.449L40.4547 10.3284C40.3281 9.92805 40.1568 9.57917 39.9383 9.28503L39.6172 9.52356ZM40.0736 10.4496C40.1899 10.8137 40.2735 11.2222 40.3231 11.676L40.7207 11.6326C40.6687 11.1567 40.5804 10.7214 40.4546 10.3278L40.0736 10.4496ZM40.3219 11.6543V12.0469H40.7219V11.6543H40.3219ZM40.3231 12.0246C40.2736 12.4664 40.1901 12.8672 40.0737 13.2276L40.4544 13.3505C40.5802 12.961 40.6686 12.5336 40.7206 12.0691L40.3231 12.0246ZM40.0737 13.2276C39.9583 13.585 39.8054 13.889 39.6172 14.1425L39.9383 14.381C40.1563 14.0875 40.3276 13.7431 40.4544 13.3505L40.0737 13.2276ZM39.6172 14.1425C39.4318 14.392 39.2075 14.5822 38.9432 14.7161L39.124 15.0729C39.4456 14.91 39.7174 14.6784 39.9383 14.381L39.6172 14.1425ZM38.9422 14.7166C38.6863 14.848 38.3809 14.9172 38.0199 14.9172V15.3172C38.4324 15.3172 38.8027 15.2379 39.125 15.0724L38.9422 14.7166ZM38.0199 14.9172C37.6659 14.9172 37.3523 14.8434 37.0749 14.6994L36.8907 15.0545C37.2305 15.2308 37.6083 15.3172 38.0199 15.3172V14.9172ZM37.0759 14.6999C36.7989 14.5544 36.5619 14.35 36.364 14.0838L36.043 14.3224C36.2749 14.6344 36.5573 14.8792 36.8898 15.054L37.0759 14.6999ZM36.364 14.0838C36.1651 13.8162 36.0109 13.4985 35.9034 13.1279L35.5192 13.2393C35.6383 13.6499 35.8122 14.0119 36.043 14.3224L36.364 14.0838ZM35.9036 13.1284C35.796 12.7539 35.7414 12.3449 35.7414 11.9004H35.3414C35.3414 12.3777 35.4001 12.8243 35.5191 13.2388L35.9036 13.1284ZM36.7535 11.7773V11.9004H37.1535V11.7773H36.7535ZM36.7535 11.9004C36.7535 12.2011 36.7799 12.4841 36.8337 12.7488L37.2257 12.6692C37.1779 12.4339 37.1535 12.1778 37.1535 11.9004H36.7535ZM36.8343 12.7517C36.8929 13.0195 36.9839 13.2607 37.1095 13.473L37.4538 13.2692C37.3528 13.0987 37.2759 12.8985 37.2251 12.6662L36.8343 12.7517ZM37.1105 13.4745C37.2397 13.6884 37.4088 13.8604 37.6171 13.9872L37.8251 13.6456C37.674 13.5536 37.5502 13.4288 37.4528 13.2677L37.1105 13.4745ZM37.6215 13.9898C37.8409 14.1159 38.0954 14.1746 38.3773 14.1746V13.7746C38.1514 13.7746 37.9685 13.7279 37.8207 13.643L37.6215 13.9898ZM38.3773 14.1746C38.7266 14.1746 39.0324 14.0978 39.2807 13.9291L39.056 13.5982C38.8903 13.7108 38.6688 13.7746 38.3773 13.7746V14.1746ZM39.2807 13.9291C39.5182 13.7678 39.7026 13.551 39.8342 13.2836L39.4752 13.107C39.3724 13.3162 39.2326 13.4783 39.056 13.5982L39.2807 13.9291ZM39.8336 13.2848C39.9652 13.0215 40.053 12.7311 40.0987 12.4154L39.7028 12.3581C39.6626 12.6361 39.5864 12.8847 39.4758 13.1059L39.8336 13.2848ZM40.1008 12.3867V11.3262H39.7008V12.3867H40.1008ZM40.0998 11.3059C40.0747 11.06 40.0224 10.8284 39.9417 10.6118L39.5669 10.7515C39.6346 10.9334 39.6799 11.1314 39.7018 11.3464L40.0998 11.3059ZM39.9429 10.6151C39.8657 10.3963 39.7593 10.2018 39.6222 10.0337L39.3122 10.2866C39.4173 10.4154 39.5023 10.5685 39.5657 10.7482L39.9429 10.6151ZM39.6238 10.0357C39.4827 9.85829 39.307 9.72158 39.0991 9.62666L38.933 9.99053C39.0844 10.0597 39.2095 10.1573 39.3106 10.2846L39.6238 10.0357ZM39.1039 9.62892C38.895 9.52681 38.6546 9.47969 38.3891 9.47969V9.87969C38.6079 9.87969 38.7855 9.9185 38.9282 9.98827L39.1039 9.62892ZM38.3891 9.47969C38.1028 9.47969 37.8462 9.54058 37.6288 9.67291L37.8368 10.0146C37.9788 9.92817 38.1597 9.87969 38.3891 9.87969V9.47969ZM37.6288 9.67291C37.4202 9.79991 37.2496 9.97383 37.1169 10.1905L37.4581 10.3994C37.5598 10.2332 37.6861 10.1063 37.8368 10.0146L37.6288 9.67291ZM37.1154 10.1931C36.9895 10.4058 36.8985 10.6493 36.84 10.9208L37.2311 11.005C37.282 10.7687 37.359 10.5669 37.4596 10.3968L37.1154 10.1931ZM36.84 10.9208C36.782 11.19 36.7535 11.4757 36.7535 11.7773H37.1535C37.1535 11.5009 37.1797 11.2436 37.2311 11.005L36.84 10.9208ZM44.2044 14.8887L44.1274 15.0733L44.1298 15.0742L44.2044 14.8887ZM43.2434 14.2383L43.098 14.3755L43.099 14.3766L43.2434 14.2383ZM43.2493 9.43359L43.3977 9.56773L43.3986 9.56672L43.2493 9.43359ZM47.3391 9.41602L47.1832 9.54124L47.1851 9.54362L47.3391 9.41602ZM47.843 10.3945L47.6509 10.45L47.6514 10.4518L47.843 10.3945ZM48.013 12.252V12.452H48.213V12.252H48.013ZM43.1145 12.252H42.9145V12.452H43.1145V12.252ZM43.1145 11.2383V11.0383H42.9145V11.2383H43.1145ZM46.6184 11.2383V11.4383H46.8184V11.2383H46.6184ZM46.6184 11.127H46.8185L46.8183 11.1208L46.6184 11.127ZM46.4661 10.4121L46.2806 10.487L46.2818 10.4897L46.4661 10.4121ZM44.6731 9.82031L44.7686 9.99604L44.7699 9.99532L44.6731 9.82031ZM43.9407 10.9277L43.7467 10.8792L43.7462 10.8813L43.9407 10.9277ZM43.9583 12.8203L43.7673 12.8798L43.7685 12.8836L43.9583 12.8203ZM44.8372 13.8516L44.7504 14.0318L44.7532 14.0331L44.8372 13.8516ZM47.1575 13.2129L47.2966 13.0692L47.1368 12.9145L46.9999 13.0898L47.1575 13.2129ZM47.9016 13.9336L48.0665 14.0468L48.1621 13.9075L48.0408 13.7899L47.9016 13.9336ZM47.3684 14.5078L47.4954 14.6624L47.497 14.661L47.3684 14.5078ZM46.5657 14.9473L46.4983 14.759L46.4975 14.7592L46.5657 14.9473ZM45.4759 14.9172C45.0289 14.9172 44.6309 14.8446 44.279 14.7031L44.1298 15.0742C44.5356 15.2374 44.9853 15.3172 45.4759 15.3172V14.9172ZM44.2813 14.7041C43.9303 14.5578 43.6333 14.3562 43.3879 14.0999L43.099 14.3766C43.3848 14.675 43.7285 14.9071 44.1275 15.0733L44.2813 14.7041ZM43.3889 14.101C43.1463 13.844 42.959 13.5409 42.8272 13.1895L42.4527 13.33C42.6021 13.7286 42.8171 14.0779 43.098 14.3755L43.3889 14.101ZM42.8272 13.1895C42.6957 12.8388 42.629 12.4585 42.629 12.0469H42.229C42.229 12.5025 42.3029 12.9307 42.4527 13.33L42.8272 13.1895ZM42.629 12.0469V11.8125H42.229V12.0469H42.629ZM42.629 11.8125C42.629 11.3358 42.6984 10.9099 42.834 10.5325L42.4576 10.3972C42.3041 10.8244 42.229 11.297 42.229 11.8125H42.629ZM42.834 10.5325C42.9707 10.1519 43.1592 9.83146 43.3977 9.56772L43.1009 9.29946C42.8238 9.60604 42.6099 9.97308 42.4576 10.3972L42.834 10.5325ZM43.3986 9.56672C43.6373 9.29907 43.9182 9.09567 44.2429 8.955L44.0838 8.58797C43.7054 8.75198 43.3769 8.99 43.1 9.30047L43.3986 9.56672ZM44.2429 8.955C44.5676 8.81428 44.9212 8.74297 45.3059 8.74297V8.34297C44.8704 8.34297 44.4622 8.424 44.0838 8.58797L44.2429 8.955ZM45.3059 8.74297C45.7368 8.74297 46.1044 8.8154 46.4136 8.95399L46.5772 8.58898C46.2067 8.42289 45.7813 8.34297 45.3059 8.34297V8.74297ZM46.4136 8.95399C46.7259 9.094 46.9813 9.28975 47.1832 9.54122L47.4951 9.29081C47.2517 8.98759 46.9445 8.75365 46.5772 8.58898L46.4136 8.95399ZM47.1851 9.54362C47.3923 9.79366 47.5483 10.0946 47.6509 10.45L48.0352 10.3391C47.9191 9.93668 47.7391 9.58525 47.4931 9.28841L47.1851 9.54362ZM47.6514 10.4518C47.7584 10.8095 47.813 11.2079 47.813 11.6484H48.213C48.213 11.175 48.1543 10.7374 48.0347 10.3372L47.6514 10.4518ZM47.813 11.6484V12.252H48.213V11.6484H47.813ZM48.013 12.052H43.1145V12.452H48.013V12.052ZM43.3145 12.252V11.2383H42.9145V12.252H43.3145ZM43.1145 11.4383H46.6184V11.0383H43.1145V11.4383ZM46.8184 11.2383V11.127H46.4184V11.2383H46.8184ZM46.8183 11.1208C46.8098 10.8436 46.7542 10.581 46.6504 10.3345L46.2818 10.4897C46.3655 10.6886 46.4114 10.9025 46.4185 11.1331L46.8183 11.1208ZM46.6516 10.3373C46.5482 10.0812 46.3867 9.87098 46.1679 9.71145L45.9322 10.0346C46.0884 10.1485 46.2043 10.2977 46.2806 10.4869L46.6516 10.3373ZM46.1679 9.71145C45.9361 9.54241 45.6405 9.46797 45.3001 9.46797V9.86797C45.5847 9.86797 45.7891 9.93024 45.9322 10.0346L46.1679 9.71145ZM45.3001 9.46797C45.0359 9.46797 44.7929 9.5255 44.5763 9.64531L44.7699 9.99532C44.9206 9.912 45.0955 9.86797 45.3001 9.86797V9.46797ZM44.5776 9.64459C44.3659 9.75966 44.1915 9.92655 44.0539 10.1395L44.39 10.3566C44.4946 10.1945 44.621 10.0763 44.7686 9.99604L44.5776 9.64459ZM44.0539 10.1395C43.9186 10.3491 43.8172 10.597 43.7467 10.8792L44.1347 10.9762C44.197 10.7273 44.2831 10.522 44.39 10.3566L44.0539 10.1395ZM43.7462 10.8813C43.6794 11.1611 43.647 11.472 43.647 11.8125H44.047C44.047 11.4967 44.0771 11.2178 44.1352 10.9742L43.7462 10.8813ZM43.647 11.8125V12.0469H44.047V11.8125H43.647ZM43.647 12.0469C43.647 12.3422 43.6865 12.6202 43.7673 12.8798L44.1492 12.7608C44.0816 12.5438 44.047 12.3063 44.047 12.0469H43.647ZM43.7685 12.8836C43.8541 13.1402 43.9793 13.368 44.1453 13.5646L44.4509 13.3065C44.32 13.1515 44.2187 12.9692 44.148 12.7571L43.7685 12.8836ZM44.1453 13.5646C44.3123 13.7623 44.5146 13.9182 44.7504 14.0318L44.924 13.6714C44.7379 13.5818 44.5809 13.4604 44.4509 13.3065L44.1453 13.5646ZM44.7532 14.0331C44.9943 14.1447 45.2639 14.198 45.5579 14.198V13.798C45.3128 13.798 45.1019 13.7537 44.9212 13.6701L44.7532 14.0331ZM45.5579 14.198C45.9252 14.198 46.26 14.124 46.5576 13.9708L46.3746 13.6151C46.1409 13.7354 45.8703 13.798 45.5579 13.798V14.198ZM46.5576 13.9708C46.8505 13.82 47.1031 13.6074 47.3151 13.336L46.9999 13.0898C46.8213 13.3184 46.6129 13.4925 46.3746 13.6151L46.5576 13.9708ZM47.0184 13.3566L47.7625 14.0773L48.0408 13.7899L47.2966 13.0692L47.0184 13.3566ZM47.7367 13.8204C47.6119 14.0023 47.4472 14.1806 47.2399 14.3546L47.497 14.661C47.7272 14.4678 47.9179 14.2633 48.0665 14.0468L47.7367 13.8204ZM47.2415 14.3533C47.0435 14.5159 46.797 14.652 46.4983 14.759L46.6331 15.1356C46.9672 15.0159 47.2559 14.8591 47.4954 14.6624L47.2415 14.3533ZM46.4975 14.7592C46.2115 14.8629 45.8722 14.9172 45.4759 14.9172V15.3172C45.9077 15.3172 46.2949 15.2582 46.6339 15.1353L46.4975 14.7592ZM52.6857 12.9023L52.5142 13.0053L52.5158 13.0078L52.6857 12.9023ZM52.2814 12.5859L52.1949 12.7662L52.1962 12.7669L52.2814 12.5859ZM51.4142 12.3281L51.3711 12.5234L51.3742 12.5241L51.4142 12.3281ZM50.4884 12.0645L50.4173 12.2514L50.4205 12.2526L50.4884 12.0645ZM50.5705 8.69531L50.5072 8.50557L50.5065 8.50582L50.5705 8.69531ZM52.9552 8.8125L52.8695 8.99322L52.8718 8.99425L52.9552 8.8125ZM53.8341 9.5332L53.6677 9.64415L53.6684 9.64513L53.8341 9.5332ZM54.1388 10.5527V10.7527H54.3388V10.5527H54.1388ZM52.7267 10.5527H52.5267V10.7527H52.7267V10.5527ZM52.5978 10.084L52.4227 10.1808L52.4259 10.1862L52.5978 10.084ZM52.2228 9.72656L52.1253 9.90123L52.1285 9.90292L52.2228 9.72656ZM50.9865 9.70312L51.0723 9.88379L51.0742 9.88288L50.9865 9.70312ZM50.6349 9.99609L50.4668 9.88764L50.4644 9.89158L50.6349 9.99609ZM50.5822 10.6816L50.3998 10.7645L50.405 10.7744L50.5822 10.6816ZM50.7931 10.9102L50.6762 11.0725L50.6807 11.0755L50.7931 10.9102ZM51.1916 11.0977L51.1257 11.2865L51.127 11.287L51.1916 11.0977ZM51.8361 11.2676L51.7946 11.4632L51.7951 11.4633L51.8361 11.2676ZM53.0841 11.6602L53.0005 11.8418L53.0029 11.8429L53.0841 11.6602ZM53.8927 12.2695L53.7327 12.3895L53.7336 12.3907L53.8927 12.2695ZM53.9923 13.9805L53.8147 13.8887L53.8141 13.8898L53.9923 13.9805ZM53.4767 14.584L53.5958 14.7447L53.5976 14.7433L53.4767 14.584ZM52.6623 14.9766L52.6054 14.7848L52.6048 14.785L52.6623 14.9766ZM50.1486 14.8125L50.0564 14.99L50.0578 14.9907L50.1486 14.8125ZM49.2404 14.0215L49.0709 14.1277L49.0724 14.13L49.2404 14.0215ZM48.9357 13.0137V12.8137H48.7357V13.0137H48.9357ZM50.3009 13.0137L50.5006 13.0018L50.4894 12.8137H50.3009V13.0137ZM50.5177 13.6406L50.3634 13.7679L50.367 13.7721L50.5177 13.6406ZM51.0099 13.9746L50.9422 14.1628L50.9467 14.1643L51.0099 13.9746ZM52.2638 13.9746L52.3359 14.1612L52.3396 14.1597L52.2638 13.9746ZM52.6564 13.6934L52.8151 13.8151L52.817 13.8125L52.6564 13.6934ZM52.9912 13.2832C52.9912 13.1074 52.9467 12.9436 52.8556 12.7969L52.5158 13.0078C52.5653 13.0877 52.5912 13.1777 52.5912 13.2832H52.9912ZM52.8572 12.7994C52.7575 12.6333 52.5817 12.5062 52.3666 12.405L52.1962 12.7669C52.3796 12.8532 52.4733 12.937 52.5142 13.0052L52.8572 12.7994ZM52.368 12.4056C52.1505 12.3012 51.8425 12.2114 51.4542 12.1322L51.3742 12.5241C51.7516 12.6011 52.0217 12.6831 52.1949 12.7662L52.368 12.4056ZM51.4574 12.1328C51.1286 12.0602 50.8284 11.9746 50.5564 11.8763L50.4205 12.2526C50.711 12.3574 51.028 12.4476 51.3711 12.5234L51.4574 12.1328ZM50.5595 11.8775C50.2962 11.7774 50.0749 11.6587 49.8931 11.5232L49.6541 11.844C49.8707 12.0054 50.126 12.1406 50.4173 12.2514L50.5595 11.8775ZM49.8931 11.5232C49.7155 11.3909 49.5813 11.2369 49.4868 11.0614L49.1346 11.2511C49.2589 11.4819 49.4333 11.6794 49.6541 11.844L49.8931 11.5232ZM49.4868 11.0614C49.3953 10.8916 49.3466 10.6907 49.3466 10.4531H48.9466C48.9466 10.7468 49.0073 11.0147 49.1346 11.2511L49.4868 11.0614ZM49.3466 10.4531C49.3466 10.2258 49.3963 10.0118 49.4961 9.80893L49.1371 9.63248C49.0102 9.89051 48.9466 10.1648 48.9466 10.4531H49.3466ZM49.4961 9.80893C49.5961 9.60534 49.74 9.42406 49.9309 9.26497L49.6749 8.95768C49.4439 9.15016 49.2636 9.37512 49.1371 9.63248L49.4961 9.80893ZM49.9309 9.26497C50.1202 9.10725 50.3534 8.97969 50.6345 8.8848L50.5065 8.50582C50.1859 8.61406 49.9075 8.76384 49.6749 8.95768L49.9309 9.26497ZM50.6337 8.88505C50.9149 8.79131 51.233 8.74297 51.59 8.74297V8.34297C51.197 8.34297 50.8354 8.39619 50.5072 8.50558L50.6337 8.88505ZM51.59 8.74297C52.0993 8.74297 52.5236 8.82914 52.8695 8.99321L53.0409 8.63179C52.6291 8.43648 52.1432 8.34297 51.59 8.34297V8.74297ZM52.8718 8.99425C53.2261 9.15694 53.4881 9.3747 53.6677 9.64414L54.0006 9.42226C53.7739 9.08233 53.45 8.81962 53.0387 8.63075L52.8718 8.99425ZM53.6684 9.64513C53.8482 9.91135 53.9388 10.2119 53.9388 10.5527H54.3388C54.3388 10.1358 54.2264 9.75662 53.9999 9.42127L53.6684 9.64513ZM54.1388 10.3527H52.7267V10.7527H54.1388V10.3527ZM52.9267 10.5527C52.9267 10.3487 52.874 10.1572 52.7697 9.98177L52.4259 10.1862C52.4935 10.2998 52.5267 10.4208 52.5267 10.5527H52.9267ZM52.7729 9.98725C52.6699 9.80099 52.5148 9.65593 52.3171 9.55021L52.1285 9.90292C52.2668 9.97688 52.3616 10.0701 52.4228 10.1807L52.7729 9.98725ZM52.3203 9.55192C52.1145 9.43706 51.8675 9.38594 51.59 9.38594V9.78594C51.8203 9.78594 51.9952 9.82857 52.1253 9.9012L52.3203 9.55192ZM51.59 9.38594C51.3278 9.38594 51.0942 9.42803 50.8988 9.52337L51.0742 9.88288C51.199 9.82197 51.3679 9.78594 51.59 9.78594V9.38594ZM50.9007 9.52247C50.7176 9.60943 50.5689 9.72956 50.4669 9.88767L50.803 10.1045C50.8572 10.0204 50.9429 9.94526 51.0723 9.88378L50.9007 9.52247ZM50.4644 9.89158C50.3706 10.0447 50.3236 10.2138 50.3236 10.3945H50.7236C50.7236 10.2862 50.7509 10.1897 50.8054 10.1006L50.4644 9.89158ZM50.3236 10.3945C50.3236 10.5252 50.3479 10.6496 50.4001 10.7644L50.7643 10.5989C50.7383 10.5418 50.7236 10.4748 50.7236 10.3945H50.3236ZM50.405 10.7744C50.4661 10.891 50.5607 10.9892 50.6763 11.0725L50.91 10.7478C50.8303 10.6905 50.7842 10.6363 50.7594 10.5888L50.405 10.7744ZM50.6807 11.0755C50.7981 11.1554 50.9487 11.2247 51.1257 11.2865L51.2574 10.9088C51.0985 10.8534 50.9835 10.7977 50.9056 10.7448L50.6807 11.0755ZM51.127 11.287C51.309 11.349 51.5321 11.4076 51.7946 11.4632L51.8776 11.0719C51.6244 11.0182 51.4179 10.9635 51.2561 10.9084L51.127 11.287ZM51.7951 11.4633C52.2688 11.5626 52.6697 11.6895 53.0005 11.8418L53.1678 11.4785C52.8032 11.3105 52.3722 11.1756 51.8771 11.0718L51.7951 11.4633ZM53.0029 11.8429C53.3304 11.9885 53.5699 12.1725 53.7327 12.3895L54.0527 12.1495C53.8405 11.8666 53.541 11.6443 53.1654 11.4774L53.0029 11.8429ZM53.7336 12.3907C53.8891 12.5948 53.974 12.8618 53.974 13.207H54.374C54.374 12.7944 54.2714 12.4365 54.0518 12.1483L53.7336 12.3907ZM53.974 13.207C53.974 13.4585 53.9201 13.6845 53.8147 13.8887L54.17 14.0723C54.3067 13.8077 54.374 13.5181 54.374 13.207H53.974ZM53.8141 13.8898C53.7119 14.0907 53.5608 14.2692 53.3558 14.4246L53.5976 14.7433C53.8458 14.555 54.0384 14.3311 54.1706 14.0711L53.8141 13.8898ZM53.3576 14.4233C53.1527 14.5752 52.9032 14.6966 52.6054 14.7848L52.7191 15.1683C53.0542 15.069 53.3476 14.9287 53.5958 14.7446L53.3576 14.4233ZM52.6048 14.785C52.3142 14.8722 51.9824 14.9172 51.6076 14.9172V15.3172C52.014 15.3172 52.3853 15.2684 52.7197 15.1681L52.6048 14.785ZM51.6076 14.9172C51.0562 14.9172 50.6029 14.8196 50.2394 14.6343L50.0578 14.9907C50.4912 15.2116 51.0105 15.3172 51.6076 15.3172V14.9172ZM50.2408 14.635C49.8677 14.4411 49.5935 14.1993 49.4084 13.9129L49.0724 14.13C49.3014 14.4843 49.6326 14.7698 50.0564 14.99L50.2408 14.635ZM49.4099 13.9153C49.2246 13.6196 49.1357 13.32 49.1357 13.0137H48.7357C48.7357 13.4026 48.8499 13.7749 49.0709 14.1277L49.4099 13.9153ZM48.9357 13.2137H50.3009V12.8137H48.9357V13.2137ZM50.1013 13.0256C50.1187 13.3171 50.2006 13.5705 50.3635 13.7679L50.672 13.5133C50.577 13.3982 50.5144 13.2336 50.5006 13.0018L50.1013 13.0256ZM50.367 13.7721C50.5228 13.9508 50.7157 14.0813 50.9422 14.1628L51.0777 13.7864C50.9135 13.7273 50.7783 13.6351 50.6685 13.5092L50.367 13.7721ZM50.9467 14.1643C51.1664 14.2376 51.3928 14.2742 51.6252 14.2742V13.8742C51.4356 13.8742 51.2519 13.8445 51.0732 13.7849L50.9467 14.1643ZM51.6252 14.2742C51.895 14.2742 52.1341 14.2391 52.3359 14.1612L52.1917 13.788C52.0498 13.8429 51.8631 13.8742 51.6252 13.8742V14.2742ZM52.3396 14.1597C52.5359 14.0794 52.6988 13.9667 52.8151 13.815L52.4977 13.5717C52.4343 13.6544 52.3355 13.7292 52.1881 13.7895L52.3396 14.1597ZM52.817 13.8125C52.9327 13.6566 52.9912 13.478 52.9912 13.2832H52.5912C52.5912 13.3931 52.5598 13.4879 52.4958 13.5742L52.817 13.8125ZM57.042 8.66016H57.242V8.46016H57.042V8.66016ZM57.042 15V15.2H57.242V15H57.042ZM55.6241 15H55.4241V15.2H55.6241V15ZM55.6241 8.66016V8.46016H55.4241V8.66016H55.6241ZM56.9307 6.46289L56.7893 6.60433L56.7912 6.60624L56.9307 6.46289ZM55.7412 7.52344L55.5998 7.66487L55.6018 7.66678L55.7412 7.52344ZM56.842 8.66016V15H57.242V8.66016H56.842ZM57.042 14.8H55.6241V15.2H57.042V14.8ZM55.8241 15V8.66016H55.4241V15H55.8241ZM55.6241 8.86016H57.042V8.46016H55.6241V8.86016ZM55.7303 6.99609C55.7303 6.82959 55.7828 6.70423 55.8827 6.60431L55.5998 6.32147C55.4185 6.5028 55.3303 6.73291 55.3303 6.99609H55.7303ZM55.8827 6.60431C55.9811 6.50592 56.1244 6.44609 56.3389 6.44609V6.04609C56.0456 6.04609 55.7905 6.1308 55.5998 6.32147L55.8827 6.60431ZM56.3389 6.44609C56.5485 6.44609 56.6903 6.50534 56.7893 6.60431L57.0721 6.32147C56.882 6.13138 56.6294 6.04609 56.3389 6.04609V6.44609ZM56.7912 6.60624C56.8943 6.70655 56.9475 6.83131 56.9475 6.99609H57.3475C57.3475 6.73119 57.2561 6.50048 57.0702 6.31955L56.7912 6.60624ZM56.9475 6.99609C56.9475 7.15582 56.8951 7.27902 56.7912 7.38009L57.0702 7.66678C57.2554 7.48661 57.3475 7.25824 57.3475 6.99609H56.9475ZM56.7912 7.38009C56.6925 7.47614 56.55 7.53437 56.3389 7.53437V7.93438C56.6278 7.93438 56.8798 7.85199 57.0702 7.66678L56.7912 7.38009ZM56.3389 7.53437C56.1229 7.53437 55.9789 7.47558 55.8807 7.38009L55.6018 7.66678C55.7927 7.85254 56.0471 7.93438 56.3389 7.93438V7.53437ZM55.8827 7.38202C55.782 7.28135 55.7303 7.15756 55.7303 6.99609H55.3303C55.3303 7.2565 55.4192 7.48427 55.5998 7.66486L55.8827 7.38202ZM62.7695 8.66016V8.46016H62.5866L62.5703 8.64227L62.7695 8.66016ZM64.0527 8.66016H64.2527V8.46016H64.0527V8.66016ZM62.6757 17.1855L62.5895 17.0051L62.5882 17.0057L62.6757 17.1855ZM60.3613 17.3965L60.3146 17.591L60.3152 17.5911L60.3613 17.3965ZM59.5058 17.0566L59.604 16.8824L59.6031 16.8819L59.5058 17.0566ZM58.8202 16.4531L58.6637 16.3286L58.5685 16.4482L58.659 16.5715L58.8202 16.4531ZM59.4823 15.6211L59.6354 15.4924L59.4781 15.3052L59.3258 15.4966L59.4823 15.6211ZM61.9198 16.2188L61.8292 16.0404L61.8256 16.0424L61.9198 16.2188ZM62.6405 10.0957L62.4414 10.0778L62.4405 10.0867V10.0957H62.6405ZM58.6386 10.4648L58.8303 10.5218L58.8305 10.5213L58.6386 10.4648ZM59.1425 9.43945L59.3012 9.56119L59.302 9.56014L59.1425 9.43945ZM59.9394 8.77734L60.027 8.95713L60.0288 8.95623L59.9394 8.77734ZM62.0488 8.76562L61.9574 8.94354L61.9584 8.94403L62.0488 8.76562ZM62.7812 9.4043L62.6176 9.51946L62.6184 9.52054L62.7812 9.4043ZM63.2382 10.3887L63.0459 10.4436L63.0466 10.446L63.2382 10.3887ZM63.4902 11.6543H63.6902V11.6426L63.6888 11.6309L63.4902 11.6543ZM63.4902 12.0469L63.6889 12.0691L63.6902 12.058V12.0469H63.4902ZM62.0136 14.8945L61.9232 14.7161L61.9222 14.7166L62.0136 14.8945ZM59.9394 14.877L59.8472 15.0545L59.8482 15.0549L59.9394 14.877ZM59.1425 14.2031L58.983 14.3238L58.9841 14.3252L59.1425 14.2031ZM58.6386 13.1836L58.4469 13.2405L58.447 13.2411L58.6386 13.1836ZM59.957 12.709L59.7616 12.7517L59.7622 12.7546L59.957 12.709ZM60.2206 13.3711L60.05 13.4756L60.0526 13.4796L60.2206 13.3711ZM60.6777 13.8164L60.5753 13.9883L60.5796 13.9907L60.6777 13.8164ZM62.1542 13.7637L62.0447 13.5963L62.0433 13.5973L62.1542 13.7637ZM62.6464 13.1953L62.4664 13.1082L62.4658 13.1094L62.6464 13.1953ZM62.8925 12.3867L63.0901 12.4179L63.0925 12.4024V12.3867H62.8925ZM62.8925 11.3262H63.0925V11.316L63.0915 11.3059L62.8925 11.3262ZM62.746 10.6816L62.5574 10.7482L62.5586 10.7515L62.746 10.6816ZM62.4589 10.1602L62.3023 10.2846L62.3039 10.2866L62.4589 10.1602ZM62.0019 9.80859L61.9171 9.98976L61.9203 9.9912L62.0019 9.80859ZM60.2265 10.2949L60.0575 10.188L60.0559 10.1905L60.2265 10.2949ZM62.7695 8.86016H64.0527V8.46016H62.7695V8.86016ZM63.8527 8.66016V14.8242H64.2527V8.66016H63.8527ZM63.8527 14.8242C63.8527 15.3661 63.7378 15.8126 63.5185 16.1735L63.8603 16.3812C64.1253 15.9452 64.2527 15.423 64.2527 14.8242H63.8527ZM63.5185 16.1735C63.2971 16.5376 62.9892 16.8142 62.5895 17.0051L62.7619 17.366C63.2294 17.1428 63.5973 16.8139 63.8603 16.3812L63.5185 16.1735ZM62.5882 17.0057C62.1864 17.2012 61.7153 17.302 61.1698 17.302V17.702C61.765 17.702 62.2978 17.5918 62.7632 17.3654L62.5882 17.0057ZM61.1698 17.302C60.9466 17.302 60.6928 17.2695 60.4073 17.2019L60.3152 17.5911C60.6234 17.6641 60.9087 17.702 61.1698 17.702V17.302ZM60.4079 17.202C60.134 17.1363 59.8661 17.0301 59.604 16.8824L59.4076 17.2309C59.7002 17.3957 60.0026 17.5161 60.3146 17.591L60.4079 17.202ZM59.6031 16.8819C59.3545 16.7434 59.1479 16.5614 58.9814 16.3347L58.659 16.5715C58.8598 16.8449 59.1102 17.0652 59.4084 17.2314L59.6031 16.8819ZM58.9767 16.5777L59.6388 15.7456L59.3258 15.4966L58.6637 16.3286L58.9767 16.5777ZM59.3292 15.7498C59.5716 16.0382 59.8445 16.2555 60.1492 16.3948L60.3155 16.031C60.0733 15.9203 59.8462 15.7431 59.6354 15.4924L59.3292 15.7498ZM60.1492 16.3948C60.4487 16.5317 60.7642 16.6004 61.0937 16.6004V16.2004C60.8216 16.2004 60.5628 16.1441 60.3155 16.031L60.1492 16.3948ZM61.0937 16.6004C61.4423 16.6004 61.7519 16.5353 62.0141 16.3951L61.8256 16.0424C61.6346 16.1444 61.3934 16.2004 61.0937 16.2004V16.6004ZM62.0105 16.397C62.2776 16.2612 62.4848 16.0582 62.6289 15.7926L62.2772 15.6019C62.1713 15.7973 62.023 15.9419 61.8292 16.0405L62.0105 16.397ZM62.6289 15.7926C62.7734 15.5261 62.8405 15.2102 62.8405 14.8535H62.4405C62.4405 15.1609 62.3827 15.4075 62.2772 15.6019L62.6289 15.7926ZM62.8405 14.8535V10.0957H62.4405V14.8535H62.8405ZM62.8397 10.1136L62.9687 8.67804L62.5703 8.64227L62.4414 10.0778L62.8397 10.1136ZM58.6628 11.9004V11.7773H58.2628V11.9004H58.6628ZM58.6628 11.7773C58.6628 11.313 58.7194 10.895 58.8303 10.5218L58.4469 10.4079C58.3234 10.8237 58.2628 11.2807 58.2628 11.7773H58.6628ZM58.8305 10.5213C58.9418 10.1428 59.0996 9.82401 59.3012 9.56119L58.9838 9.31772C58.7479 9.6252 58.5698 9.98997 58.4467 10.4084L58.8305 10.5213ZM59.302 9.56014C59.5026 9.29504 59.744 9.09509 60.027 8.95712L59.8517 8.59757C59.5098 8.76428 59.2199 9.00574 58.983 9.31876L59.302 9.56014ZM60.0288 8.95623C60.3101 8.81557 60.6324 8.74297 60.9999 8.74297V8.34297C60.5784 8.34297 60.1936 8.42662 59.8499 8.59846L60.0288 8.95623ZM60.9999 8.74297C61.3864 8.74297 61.703 8.81292 61.9574 8.94354L62.1401 8.58771C61.8163 8.42145 61.4337 8.34297 60.9999 8.34297V8.74297ZM61.9584 8.94403C62.2212 9.07719 62.4405 9.26794 62.6177 9.51945L62.9447 9.28914C62.7312 8.98596 62.4623 8.75094 62.1391 8.58722L61.9584 8.94403ZM62.6184 9.52054C62.7983 9.77231 62.9417 10.0788 63.0459 10.4436L63.4305 10.3337C63.316 9.9329 63.1547 9.58316 62.9439 9.28805L62.6184 9.52054ZM63.0466 10.446C63.156 10.812 63.238 11.2223 63.2915 11.6777L63.6888 11.6309C63.633 11.1566 63.547 10.7232 63.4298 10.3314L63.0466 10.446ZM63.2902 11.6543V12.0469H63.6902V11.6543H63.2902ZM63.2914 12.0246C63.2419 12.4664 63.1584 12.8672 63.042 13.2276L63.4227 13.3505C63.5485 12.961 63.6369 12.5336 63.6889 12.0691L63.2914 12.0246ZM63.042 13.2276C62.9264 13.5857 62.7751 13.8902 62.5902 14.1439L62.9135 14.3795C63.1271 14.0864 63.2961 13.7424 63.4227 13.3505L63.042 13.2276ZM62.5902 14.1439C62.4091 14.3926 62.1871 14.5824 61.9232 14.7161L62.104 15.0729C62.426 14.9098 62.6963 14.6777 62.9135 14.3795L62.5902 14.1439ZM61.9222 14.7166C61.6669 14.8478 61.3577 14.9172 60.9882 14.9172V15.3172C61.4078 15.3172 61.7822 15.2382 62.105 15.0724L61.9222 14.7166ZM60.9882 14.9172C60.6299 14.9172 60.3121 14.8432 60.0306 14.699L59.8482 15.0549C60.1917 15.231 60.573 15.3172 60.9882 15.3172V14.9172ZM60.0315 14.6994C59.7501 14.5534 59.5067 14.3482 59.3009 14.0811L58.9841 14.3252C59.2236 14.6362 59.5115 14.8802 59.8472 15.0545L60.0315 14.6994ZM59.302 14.0824C59.0993 13.8146 58.9414 13.4968 58.8302 13.1261L58.447 13.2411C58.5702 13.6517 58.7482 14.0135 58.983 14.3238L59.302 14.0824ZM58.8303 13.1266C58.7192 12.7527 58.6628 12.3443 58.6628 11.9004H58.2628C58.2628 12.3783 58.3236 12.8255 58.4469 13.2405L58.8303 13.1266ZM59.6749 11.7773V11.9004H60.0749V11.7773H59.6749ZM59.6749 11.9004C59.6749 12.202 59.7035 12.486 59.7616 12.7517L60.1523 12.6662C60.1011 12.432 60.0749 12.1769 60.0749 11.9004H59.6749ZM59.7622 12.7546C59.825 13.0224 59.9203 13.2635 60.0501 13.4755L60.3912 13.2667C60.2866 13.0958 60.2061 12.8955 60.1517 12.6633L59.7622 12.7546ZM60.0526 13.4796C60.1897 13.6918 60.3641 13.8624 60.5753 13.9882L60.78 13.6446C60.6241 13.5517 60.4938 13.4254 60.3886 13.2626L60.0526 13.4796ZM60.5796 13.9907C60.802 14.1158 61.0577 14.1746 61.3398 14.1746V13.7746C61.114 13.7746 60.9283 13.7279 60.7757 13.6421L60.5796 13.9907ZM61.3398 14.1746C61.6992 14.1746 62.0126 14.0985 62.2652 13.9301L62.0433 13.5973C61.874 13.7101 61.6444 13.7746 61.3398 13.7746V14.1746ZM62.2638 13.931C62.5102 13.7697 62.6984 13.5517 62.827 13.2812L62.4658 13.1094C62.3678 13.3155 62.2279 13.4764 62.0447 13.5963L62.2638 13.931ZM62.8264 13.2824C62.9531 13.0206 63.0405 12.7319 63.0901 12.4179L62.6949 12.3555C62.6508 12.6352 62.5741 12.8856 62.4664 13.1082L62.8264 13.2824ZM63.0925 12.3867V11.3262H62.6925V12.3867H63.0925ZM63.0915 11.3059C63.0665 11.06 63.0141 10.8284 62.9334 10.6118L62.5586 10.7515C62.6264 10.9334 62.6717 11.1314 62.6935 11.3464L63.0915 11.3059ZM62.9346 10.6151C62.8574 10.3963 62.751 10.2018 62.6139 10.0337L62.3039 10.2866C62.409 10.4154 62.494 10.5685 62.5574 10.7482L62.9346 10.6151ZM62.6155 10.0357C62.4737 9.85739 62.2953 9.72066 62.0835 9.62599L61.9203 9.9912C62.0756 10.0606 62.2019 10.1582 62.3023 10.2846L62.6155 10.0357ZM62.0867 9.62746C61.8711 9.52655 61.6241 9.47969 61.3515 9.47969V9.87969C61.5789 9.87969 61.7655 9.91877 61.9171 9.98973L62.0867 9.62746ZM61.3515 9.47969C61.0682 9.47969 60.8115 9.54095 60.5886 9.67099L60.7902 10.0165C60.9422 9.9278 61.1269 9.87969 61.3515 9.87969V9.47969ZM60.5886 9.67099C60.3722 9.79723 60.1949 9.97071 60.0575 10.188L60.3955 10.4019C60.5002 10.2363 60.6316 10.109 60.7902 10.0165L60.5886 9.67099ZM60.0559 10.1905C59.9258 10.403 59.8306 10.6463 59.7679 10.9179L60.1577 11.0079C60.2122 10.7716 60.2928 10.5697 60.3971 10.3994L60.0559 10.1905ZM59.7679 10.9179C59.7056 11.1881 59.6749 11.4748 59.6749 11.7773H60.0749C60.0749 11.5018 60.1028 11.2455 60.1577 11.0079L59.7679 10.9179ZM67.0379 10.0137H67.2383L67.2375 10.0016L67.0379 10.0137ZM67.0379 15V15.2H67.2379V15H67.0379ZM65.6258 15H65.4258V15.2H65.6258V15ZM65.6258 8.66016V8.46016H65.4258V8.66016H65.6258ZM66.9559 8.66016L67.1555 8.64806L67.1441 8.46016H66.9559V8.66016ZM66.7859 11.5957L66.7834 11.7957L66.9859 11.7983V11.5957H66.7859ZM66.3289 11.5898L66.1289 11.5881L66.1272 11.7873L66.3263 11.7898L66.3289 11.5898ZM66.5164 10.3535L66.3267 10.2903L66.3261 10.2921L66.5164 10.3535ZM67.032 9.38672L66.8778 9.25934L66.8767 9.26068L67.032 9.38672ZM67.8289 8.76562L67.9137 8.94675L67.9156 8.94586L67.8289 8.76562ZM69.6863 8.67188L69.6204 8.86073L69.624 8.86191L69.6863 8.67188ZM70.325 9.07617L70.1791 9.21297L70.1806 9.21455L70.325 9.07617ZM70.7352 9.80859L70.5442 9.86811L70.5444 9.86882L70.7352 9.80859ZM70.8758 15V15.2H71.0758V15H70.8758ZM69.4578 15H69.2578V15.2H69.4578V15ZM69.323 10.1777L69.1426 10.2641L69.145 10.2688L69.323 10.1777ZM68.9422 9.79688L68.8562 9.97752L68.8614 9.97981L68.9422 9.79688ZM67.1902 10.248L67.0306 10.1275L67.029 10.1298L67.1902 10.248ZM66.8379 10.0137V15H67.2379V10.0137H66.8379ZM67.0379 14.8H65.6258V15.2H67.0379V14.8ZM65.8258 15V8.66016H65.4258V15H65.8258ZM65.6258 8.86016H66.9559V8.46016H65.6258V8.86016ZM66.7562 8.67226L66.8383 10.0258L67.2375 10.0016L67.1555 8.64806L66.7562 8.67226ZM66.7885 11.3957L66.3315 11.3899L66.3263 11.7898L66.7834 11.7957L66.7885 11.3957ZM66.5289 11.5916C66.5327 11.1599 66.5927 10.7682 66.7067 10.415L66.3261 10.2921C66.198 10.6888 66.133 11.1214 66.1289 11.5881L66.5289 11.5916ZM66.7061 10.4168C66.8246 10.0615 66.9857 9.76119 67.1873 9.51275L66.8767 9.26068C66.6409 9.55131 66.4582 9.89557 66.3267 10.2903L66.7061 10.4168ZM67.1862 9.5141C67.3905 9.26678 67.6327 9.07839 67.9137 8.94674L67.7441 8.58451C67.408 8.74193 67.1188 8.96759 66.8778 9.25934L67.1862 9.5141ZM67.9156 8.94586C68.1944 8.81176 68.508 8.74297 68.8602 8.74297V8.34297C68.4545 8.34297 68.0806 8.42261 67.7422 8.58539L67.9156 8.94586ZM68.8602 8.74297C69.1461 8.74297 69.3987 8.78329 69.6204 8.86069L69.7523 8.48306C69.4817 8.38859 69.1836 8.34297 68.8602 8.34297V8.74297ZM69.624 8.86191C69.8429 8.93374 70.0268 9.05053 70.1791 9.21296L70.4709 8.93938C70.2716 8.72681 70.0298 8.57408 69.7487 8.48184L69.624 8.86191ZM70.1806 9.21455C70.3348 9.37545 70.4577 9.59065 70.5442 9.86811L70.9261 9.74908C70.8251 9.42497 70.6746 9.15189 70.4694 8.93779L70.1806 9.21455ZM70.5444 9.86882C70.6302 10.1402 70.6758 10.4838 70.6758 10.9043H71.0758C71.0758 10.4577 71.0277 10.0707 70.9259 9.74837L70.5444 9.86882ZM70.6758 10.9043V15H71.0758V10.9043H70.6758ZM70.8758 14.8H69.4578V15.2H70.8758V14.8ZM69.6578 15V10.8984H69.2578V15H69.6578ZM69.6578 10.8984C69.6578 10.5777 69.6111 10.3019 69.5011 10.0867L69.145 10.2688C69.2147 10.4052 69.2578 10.6098 69.2578 10.8984H69.6578ZM69.5035 10.0914C69.3988 9.87262 69.2385 9.70914 69.023 9.61394L68.8614 9.97981C68.9818 10.033 69.0754 10.1235 69.1426 10.264L69.5035 10.0914ZM69.0282 9.6163C68.8295 9.52169 68.5928 9.47969 68.327 9.47969V9.87969C68.5533 9.87969 68.7268 9.91581 68.8562 9.97745L69.0282 9.6163ZM68.327 9.47969C68.056 9.47969 67.8064 9.53675 67.5828 9.65536L67.7703 10.0087C67.9296 9.92419 68.1135 9.87969 68.327 9.87969V9.47969ZM67.5828 9.65536C67.3652 9.77083 67.1808 9.92882 67.0307 10.1275L67.3498 10.3686C67.4653 10.2157 67.6051 10.0964 67.7703 10.0087L67.5828 9.65536ZM67.029 10.1298C66.8854 10.3255 66.7763 10.5493 66.7001 10.7991L67.0827 10.9158C67.1471 10.7046 67.2372 10.5222 67.3515 10.3663L67.029 10.1298ZM66.7001 10.7991C66.6236 11.05 66.5859 11.3159 66.5859 11.5957H66.9859C66.9859 11.3521 67.0186 11.1258 67.0827 10.9158L66.7001 10.7991Z" fill="#010101" fill-opacity="0.098" mask="url(#path-2-inside-1_8_277)"/>
<path d="M10.2383 5V14H8.82031V5H10.2383ZM11.6356 10.9004V10.7656C11.6356 10.3086 11.702 9.88477 11.8348 9.49414C11.9677 9.09961 12.1591 8.75781 12.4091 8.46875C12.663 8.17578 12.9716 7.94922 13.3348 7.78906C13.702 7.625 14.1161 7.54297 14.577 7.54297C15.0419 7.54297 15.4559 7.625 15.8192 7.78906C16.1864 7.94922 16.497 8.17578 16.7509 8.46875C17.0048 8.75781 17.1981 9.09961 17.3309 9.49414C17.4637 9.88477 17.5302 10.3086 17.5302 10.7656V10.9004C17.5302 11.3574 17.4637 11.7812 17.3309 12.1719C17.1981 12.5625 17.0048 12.9043 16.7509 13.1973C16.497 13.4863 16.1884 13.7129 15.8251 13.877C15.4618 14.0371 15.0497 14.1172 14.5887 14.1172C14.1239 14.1172 13.7079 14.0371 13.3407 13.877C12.9774 13.7129 12.6688 13.4863 12.4149 13.1973C12.161 12.9043 11.9677 12.5625 11.8348 12.1719C11.702 11.7812 11.6356 11.3574 11.6356 10.9004ZM13.0477 10.7656V10.9004C13.0477 11.1855 13.077 11.4551 13.1356 11.709C13.1942 11.9629 13.286 12.1855 13.411 12.377C13.536 12.5684 13.6962 12.7188 13.8915 12.8281C14.0868 12.9375 14.3192 12.9922 14.5887 12.9922C14.8505 12.9922 15.077 12.9375 15.2684 12.8281C15.4637 12.7188 15.6239 12.5684 15.7489 12.377C15.8739 12.1855 15.9657 11.9629 16.0243 11.709C16.0868 11.4551 16.118 11.1855 16.118 10.9004V10.7656C16.118 10.4844 16.0868 10.2188 16.0243 9.96875C15.9657 9.71484 15.872 9.49023 15.743 9.29492C15.618 9.09961 15.4579 8.94727 15.2626 8.83789C15.0712 8.72461 14.8427 8.66797 14.577 8.66797C14.3114 8.66797 14.0809 8.72461 13.8856 8.83789C13.6942 8.94727 13.536 9.09961 13.411 9.29492C13.286 9.49023 13.1942 9.71484 13.1356 9.96875C13.077 10.2188 13.0477 10.4844 13.0477 10.7656ZM22.8943 7.66016H24.1775V13.8242C24.1775 14.3945 24.0564 14.8789 23.8142 15.2773C23.572 15.6758 23.2341 15.9785 22.8005 16.1855C22.367 16.3965 21.865 16.502 21.2947 16.502C21.0525 16.502 20.783 16.4668 20.4861 16.3965C20.1931 16.3262 19.908 16.2129 19.6306 16.0566C19.3572 15.9043 19.1287 15.7031 18.9451 15.4531L19.6072 14.6211C19.8337 14.8906 20.0837 15.0879 20.3572 15.2129C20.6306 15.3379 20.9177 15.4004 21.2185 15.4004C21.5427 15.4004 21.8181 15.3398 22.0447 15.2188C22.2752 15.1016 22.4529 14.9277 22.5779 14.6973C22.7029 14.4668 22.7654 14.1855 22.7654 13.8535V9.0957L22.8943 7.66016ZM18.5877 10.9004V10.7773C18.5877 10.2969 18.6462 9.85938 18.7634 9.46484C18.8806 9.06641 19.0486 8.72461 19.2673 8.43945C19.4861 8.15039 19.7517 7.92969 20.0642 7.77734C20.3767 7.62109 20.7302 7.54297 21.1248 7.54297C21.5349 7.54297 21.8845 7.61719 22.1736 7.76562C22.4666 7.91406 22.7107 8.12695 22.906 8.4043C23.1013 8.67773 23.2537 9.00586 23.363 9.38867C23.4763 9.76758 23.5603 10.1895 23.615 10.6543V11.0469C23.5642 11.5 23.4783 11.9141 23.3572 12.2891C23.2361 12.6641 23.0759 12.9883 22.8767 13.2617C22.6775 13.5352 22.4314 13.7461 22.1384 13.8945C21.8494 14.043 21.5076 14.1172 21.113 14.1172C20.7263 14.1172 20.3767 14.0371 20.0642 13.877C19.7556 13.7168 19.49 13.4922 19.2673 13.2031C19.0486 12.9141 18.8806 12.5742 18.7634 12.1836C18.6462 11.7891 18.5877 11.3613 18.5877 10.9004ZM19.9998 10.7773V10.9004C19.9998 11.1895 20.0271 11.459 20.0818 11.709C20.1404 11.959 20.2283 12.1797 20.3455 12.3711C20.4666 12.5586 20.6189 12.707 20.8025 12.8164C20.99 12.9219 21.2107 12.9746 21.4646 12.9746C21.7966 12.9746 22.0681 12.9043 22.2791 12.7637C22.4939 12.623 22.658 12.4336 22.7712 12.1953C22.8884 11.9531 22.9705 11.6836 23.0173 11.3867V10.3262C22.9939 10.0957 22.9451 9.88086 22.8709 9.68164C22.8005 9.48242 22.7048 9.30859 22.5837 9.16016C22.4627 9.00781 22.3103 8.89062 22.1267 8.80859C21.9431 8.72266 21.7263 8.67969 21.4763 8.67969C21.2224 8.67969 21.0017 8.73438 20.8142 8.84375C20.6267 8.95312 20.4724 9.10352 20.3513 9.29492C20.2341 9.48633 20.1462 9.70898 20.0877 9.96289C20.0291 10.2168 19.9998 10.4883 19.9998 10.7773ZM25.4928 10.9004V10.7656C25.4928 10.3086 25.5592 9.88477 25.692 9.49414C25.8248 9.09961 26.0163 8.75781 26.2663 8.46875C26.5202 8.17578 26.8288 7.94922 27.192 7.78906C27.5592 7.625 27.9733 7.54297 28.4342 7.54297C28.8991 7.54297 29.3131 7.625 29.6764 7.78906C30.0436 7.94922 30.3541 8.17578 30.608 8.46875C30.862 8.75781 31.0553 9.09961 31.1881 9.49414C31.3209 9.88477 31.3873 10.3086 31.3873 10.7656V10.9004C31.3873 11.3574 31.3209 11.7812 31.1881 12.1719C31.0553 12.5625 30.862 12.9043 30.608 13.1973C30.3541 13.4863 30.0455 13.7129 29.6823 13.877C29.319 14.0371 28.9069 14.1172 28.4459 14.1172C27.9811 14.1172 27.5651 14.0371 27.1979 13.877C26.8346 13.7129 26.526 13.4863 26.2721 13.1973C26.0182 12.9043 25.8248 12.5625 25.692 12.1719C25.5592 11.7812 25.4928 11.3574 25.4928 10.9004ZM26.9049 10.7656V10.9004C26.9049 11.1855 26.9342 11.4551 26.9928 11.709C27.0514 11.9629 27.1432 12.1855 27.2682 12.377C27.3932 12.5684 27.5534 12.7188 27.7487 12.8281C27.944 12.9375 28.1764 12.9922 28.4459 12.9922C28.7077 12.9922 28.9342 12.9375 29.1256 12.8281C29.3209 12.7188 29.4811 12.5684 29.6061 12.377C29.7311 12.1855 29.8229 11.9629 29.8815 11.709C29.944 11.4551 29.9752 11.1855 29.9752 10.9004V10.7656C29.9752 10.4844 29.944 10.2188 29.8815 9.96875C29.8229 9.71484 29.7291 9.49023 29.6002 9.29492C29.4752 9.09961 29.3151 8.94727 29.1198 8.83789C28.9284 8.72461 28.6998 8.66797 28.4342 8.66797C28.1686 8.66797 27.9381 8.72461 27.7428 8.83789C27.5514 8.94727 27.3932 9.09961 27.2682 9.29492C27.1432 9.49023 27.0514 9.71484 26.9928 9.96875C26.9342 10.2188 26.9049 10.4844 26.9049 10.7656ZM39.6664 12.6875V5H41.0844V14H39.8012L39.6664 12.6875ZM35.5414 10.9004V10.7773C35.5414 10.2969 35.598 9.85938 35.7113 9.46484C35.8246 9.06641 35.9887 8.72461 36.2035 8.43945C36.4184 8.15039 36.6801 7.92969 36.9887 7.77734C37.2973 7.62109 37.6449 7.54297 38.0316 7.54297C38.4145 7.54297 38.7504 7.61719 39.0395 7.76562C39.3285 7.91406 39.5746 8.12695 39.7777 8.4043C39.9809 8.67773 40.143 9.00586 40.2641 9.38867C40.3852 9.76758 40.4711 10.1895 40.5219 10.6543V11.0469C40.4711 11.5 40.3852 11.9141 40.2641 12.2891C40.143 12.6641 39.9809 12.9883 39.7777 13.2617C39.5746 13.5352 39.3266 13.7461 39.0336 13.8945C38.7445 14.043 38.4066 14.1172 38.0199 14.1172C37.6371 14.1172 37.2914 14.0371 36.9828 13.877C36.6781 13.7168 36.4184 13.4922 36.2035 13.2031C35.9887 12.9141 35.8246 12.5742 35.7113 12.1836C35.598 11.7891 35.5414 11.3613 35.5414 10.9004ZM36.9535 10.7773V10.9004C36.9535 11.1895 36.9789 11.459 37.0297 11.709C37.0844 11.959 37.1684 12.1797 37.2816 12.3711C37.3949 12.5586 37.5414 12.707 37.7211 12.8164C37.9047 12.9219 38.1234 12.9746 38.3773 12.9746C38.6977 12.9746 38.9613 12.9043 39.1684 12.7637C39.3754 12.623 39.5375 12.4336 39.6547 12.1953C39.7758 11.9531 39.8578 11.6836 39.9008 11.3867V10.3262C39.8773 10.0957 39.8285 9.88086 39.7543 9.68164C39.684 9.48242 39.5883 9.30859 39.4672 9.16016C39.3461 9.00781 39.1957 8.89062 39.016 8.80859C38.8402 8.72266 38.6313 8.67969 38.3891 8.67969C38.1313 8.67969 37.9125 8.73438 37.7328 8.84375C37.5531 8.95312 37.4047 9.10352 37.2875 9.29492C37.1742 9.48633 37.0902 9.70898 37.0355 9.96289C36.9809 10.2168 36.9535 10.4883 36.9535 10.7773ZM45.4759 14.1172C45.0071 14.1172 44.5833 14.041 44.2044 13.8887C43.8294 13.7324 43.5091 13.5156 43.2434 13.2383C42.9817 12.9609 42.7805 12.6348 42.6399 12.2598C42.4993 11.8848 42.429 11.4805 42.429 11.0469V10.8125C42.429 10.3164 42.5013 9.86719 42.6458 9.46484C42.7903 9.0625 42.9915 8.71875 43.2493 8.43359C43.5071 8.14453 43.8118 7.92383 44.1634 7.77148C44.5149 7.61914 44.8958 7.54297 45.3059 7.54297C45.7591 7.54297 46.1555 7.61914 46.4954 7.77148C46.8352 7.92383 47.1165 8.13867 47.3391 8.41602C47.5657 8.68945 47.7337 9.01562 47.843 9.39453C47.9563 9.77344 48.013 10.1914 48.013 10.6484V11.252H43.1145V10.2383H46.6184V10.127C46.6106 9.87305 46.5598 9.63477 46.4661 9.41211C46.3763 9.18945 46.2376 9.00977 46.0501 8.87305C45.8626 8.73633 45.6126 8.66797 45.3001 8.66797C45.0657 8.66797 44.8567 8.71875 44.6731 8.82031C44.4934 8.91797 44.343 9.06055 44.222 9.24805C44.1009 9.43555 44.0071 9.66211 43.9407 9.92773C43.8782 10.1895 43.847 10.4844 43.847 10.8125V11.0469C43.847 11.3242 43.8841 11.582 43.9583 11.8203C44.0364 12.0547 44.1497 12.2598 44.2981 12.4355C44.4466 12.6113 44.6263 12.75 44.8372 12.8516C45.0481 12.9492 45.2884 12.998 45.5579 12.998C45.8977 12.998 46.2005 12.9297 46.4661 12.793C46.7317 12.6562 46.9622 12.4629 47.1575 12.2129L47.9016 12.9336C47.7649 13.1328 47.5872 13.3242 47.3684 13.5078C47.1497 13.6875 46.8821 13.834 46.5657 13.9473C46.2532 14.0605 45.8899 14.1172 45.4759 14.1172ZM52.7912 12.2832C52.7912 12.1426 52.756 12.0156 52.6857 11.9023C52.6154 11.7852 52.4806 11.6797 52.2814 11.5859C52.0861 11.4922 51.797 11.4062 51.4142 11.3281C51.0783 11.2539 50.7697 11.166 50.4884 11.0645C50.2111 10.959 49.9728 10.832 49.7736 10.6836C49.5744 10.5352 49.4201 10.3594 49.3107 10.1562C49.2013 9.95312 49.1466 9.71875 49.1466 9.45312C49.1466 9.19531 49.2033 8.95117 49.3166 8.7207C49.4298 8.49023 49.592 8.28711 49.8029 8.11133C50.0138 7.93555 50.2697 7.79688 50.5705 7.69531C50.8752 7.59375 51.215 7.54297 51.59 7.54297C52.1213 7.54297 52.5763 7.63281 52.9552 7.8125C53.338 7.98828 53.631 8.22852 53.8341 8.5332C54.0373 8.83398 54.1388 9.17383 54.1388 9.55273H52.7267C52.7267 9.38477 52.6838 9.22852 52.5978 9.08398C52.5158 8.93555 52.3908 8.81641 52.2228 8.72656C52.0548 8.63281 51.8439 8.58594 51.59 8.58594C51.3478 8.58594 51.1466 8.625 50.9865 8.70312C50.8302 8.77734 50.713 8.875 50.6349 8.99609C50.5607 9.11719 50.5236 9.25 50.5236 9.39453C50.5236 9.5 50.5431 9.5957 50.5822 9.68164C50.6252 9.76367 50.6955 9.83984 50.7931 9.91016C50.8908 9.97656 51.0236 10.0391 51.1916 10.0977C51.3634 10.1562 51.5783 10.2129 51.8361 10.2676C52.3205 10.3691 52.7365 10.5 53.0841 10.6602C53.4357 10.8164 53.7052 11.0195 53.8927 11.2695C54.0802 11.5156 54.174 11.8281 54.174 12.207C54.174 12.4883 54.1134 12.7461 53.9923 12.9805C53.8752 13.2109 53.7033 13.4121 53.4767 13.584C53.2502 13.752 52.9787 13.8828 52.6623 13.9766C52.3498 14.0703 51.9982 14.1172 51.6076 14.1172C51.0334 14.1172 50.547 14.0156 50.1486 13.8125C49.7502 13.6055 49.4474 13.3418 49.2404 13.0215C49.0373 12.6973 48.9357 12.3613 48.9357 12.0137H50.3009C50.3166 12.2754 50.3888 12.4844 50.5177 12.6406C50.6505 12.793 50.8146 12.9043 51.0099 12.9746C51.2091 13.041 51.4142 13.0742 51.6252 13.0742C51.8791 13.0742 52.092 13.041 52.2638 12.9746C52.4357 12.9043 52.5666 12.8105 52.6564 12.6934C52.7463 12.5723 52.7912 12.4355 52.7912 12.2832ZM57.042 7.66016V14H55.6241V7.66016H57.042ZM55.5303 5.99609C55.5303 5.78125 55.6006 5.60352 55.7412 5.46289C55.8858 5.31836 56.085 5.24609 56.3389 5.24609C56.5889 5.24609 56.7862 5.31836 56.9307 5.46289C57.0752 5.60352 57.1475 5.78125 57.1475 5.99609C57.1475 6.20703 57.0752 6.38281 56.9307 6.52344C56.7862 6.66406 56.5889 6.73438 56.3389 6.73438C56.085 6.73438 55.8858 6.66406 55.7412 6.52344C55.6006 6.38281 55.5303 6.20703 55.5303 5.99609ZM62.7695 7.66016H64.0527V13.8242C64.0527 14.3945 63.9316 14.8789 63.6894 15.2773C63.4472 15.6758 63.1093 15.9785 62.6757 16.1855C62.2421 16.3965 61.7402 16.502 61.1698 16.502C60.9277 16.502 60.6581 16.4668 60.3613 16.3965C60.0683 16.3262 59.7831 16.2129 59.5058 16.0566C59.2323 15.9043 59.0038 15.7031 58.8202 15.4531L59.4823 14.6211C59.7089 14.8906 59.9589 15.0879 60.2323 15.2129C60.5058 15.3379 60.7929 15.4004 61.0937 15.4004C61.4179 15.4004 61.6933 15.3398 61.9198 15.2188C62.1503 15.1016 62.328 14.9277 62.453 14.6973C62.578 14.4668 62.6405 14.1855 62.6405 13.8535V9.0957L62.7695 7.66016ZM58.4628 10.9004V10.7773C58.4628 10.2969 58.5214 9.85938 58.6386 9.46484C58.7558 9.06641 58.9238 8.72461 59.1425 8.43945C59.3613 8.15039 59.6269 7.92969 59.9394 7.77734C60.2519 7.62109 60.6054 7.54297 60.9999 7.54297C61.4101 7.54297 61.7597 7.61719 62.0488 7.76562C62.3417 7.91406 62.5859 8.12695 62.7812 8.4043C62.9765 8.67773 63.1288 9.00586 63.2382 9.38867C63.3515 9.76758 63.4355 10.1895 63.4902 10.6543V11.0469C63.4394 11.5 63.3534 11.9141 63.2323 12.2891C63.1113 12.6641 62.9511 12.9883 62.7519 13.2617C62.5527 13.5352 62.3066 13.7461 62.0136 13.8945C61.7245 14.043 61.3827 14.1172 60.9882 14.1172C60.6015 14.1172 60.2519 14.0371 59.9394 13.877C59.6308 13.7168 59.3652 13.4922 59.1425 13.2031C58.9238 12.9141 58.7558 12.5742 58.6386 12.1836C58.5214 11.7891 58.4628 11.3613 58.4628 10.9004ZM59.8749 10.7773V10.9004C59.8749 11.1895 59.9023 11.459 59.957 11.709C60.0155 11.959 60.1034 12.1797 60.2206 12.3711C60.3417 12.5586 60.4941 12.707 60.6777 12.8164C60.8652 12.9219 61.0859 12.9746 61.3398 12.9746C61.6718 12.9746 61.9433 12.9043 62.1542 12.7637C62.3691 12.623 62.5331 12.4336 62.6464 12.1953C62.7636 11.9531 62.8456 11.6836 62.8925 11.3867V10.3262C62.8691 10.0957 62.8202 9.88086 62.746 9.68164C62.6757 9.48242 62.58 9.30859 62.4589 9.16016C62.3378 9.00781 62.1855 8.89062 62.0019 8.80859C61.8183 8.72266 61.6015 8.67969 61.3515 8.67969C61.0976 8.67969 60.8769 8.73438 60.6894 8.84375C60.5019 8.95312 60.3476 9.10352 60.2265 9.29492C60.1093 9.48633 60.0214 9.70898 59.9628 9.96289C59.9042 10.2168 59.8749 10.4883 59.8749 10.7773ZM67.0379 9.01367V14H65.6258V7.66016H66.9559L67.0379 9.01367ZM66.7859 10.5957L66.3289 10.5898C66.3328 10.1406 66.3953 9.72852 66.5164 9.35352C66.6414 8.97852 66.8133 8.65625 67.032 8.38672C67.2547 8.11719 67.5203 7.91016 67.8289 7.76562C68.1375 7.61719 68.4813 7.54297 68.8602 7.54297C69.1648 7.54297 69.4402 7.58594 69.6863 7.67188C69.9363 7.75391 70.1492 7.88867 70.325 8.07617C70.5047 8.26367 70.6414 8.50781 70.7352 8.80859C70.8289 9.10547 70.8758 9.4707 70.8758 9.9043V14H69.4578V9.89844C69.4578 9.59375 69.4129 9.35352 69.323 9.17773C69.2371 8.99805 69.1102 8.87109 68.9422 8.79688C68.7781 8.71875 68.573 8.67969 68.327 8.67969C68.0848 8.67969 67.868 8.73047 67.6766 8.83203C67.4852 8.93359 67.323 9.07227 67.1902 9.24805C67.0613 9.42383 66.9617 9.62695 66.8914 9.85742C66.8211 10.0879 66.7859 10.334 66.7859 10.5957Z" fill="white"/>
<path d="M77 0H96C97.6569 0 99 1.34315 99 3V17C99 18.6569 97.6569 20 96 20H77V0Z" fill="#C9219A"/>
<path d="M87.8281 10.168H86.5625L86.5508 9.40625H87.6816C87.8535 9.40234 88.0137 9.375 88.1621 9.32422C88.3105 9.26953 88.4297 9.19141 88.5195 9.08984C88.6094 8.98438 88.6543 8.85547 88.6543 8.70312C88.6543 8.51172 88.6211 8.35938 88.5547 8.24609C88.4922 8.13281 88.3828 8.05273 88.2266 8.00586C88.0742 7.95508 87.8672 7.92969 87.6055 7.92969H86.8262V12.1426H85.9766V7.17383H87.6055C87.9922 7.17383 88.3262 7.23047 88.6074 7.34375C88.8926 7.45312 89.1113 7.62109 89.2637 7.84766C89.4199 8.07031 89.498 8.34961 89.498 8.68555C89.498 8.89648 89.4492 9.08398 89.3516 9.24805C89.2539 9.41211 89.1094 9.55469 88.918 9.67578C88.7305 9.79297 88.5 9.88867 88.2266 9.96289C88.2148 9.96289 88.2012 9.97656 88.1855 10.0039C88.1738 10.0312 88.1621 10.0449 88.1504 10.0449C88.084 10.084 88.041 10.1133 88.0215 10.1328C88.0059 10.1484 87.9883 10.1582 87.9688 10.1621C87.9531 10.166 87.9062 10.168 87.8281 10.168ZM87.7695 10.168L87.8926 9.58789C88.502 9.58789 88.918 9.7207 89.1406 9.98633C89.3633 10.248 89.4746 10.582 89.4746 10.9883V11.3047C89.4746 11.4492 89.4805 11.5879 89.4922 11.7207C89.5078 11.8496 89.5352 11.959 89.5742 12.0488V12.1426H88.7012C88.6621 12.041 88.6387 11.8965 88.6309 11.709C88.627 11.5215 88.625 11.3848 88.625 11.2988V10.9941C88.625 10.709 88.5605 10.5 88.4316 10.3672C88.3027 10.2344 88.082 10.168 87.7695 10.168ZM84.2129 9.72852C84.2129 10.248 84.3008 10.7324 84.4766 11.1816C84.6562 11.627 84.9062 12.0176 85.2266 12.3535C85.5469 12.6855 85.916 12.9453 86.334 13.1328C86.7559 13.3164 87.2051 13.4082 87.6816 13.4082C88.1621 13.4082 88.6113 13.3164 89.0293 13.1328C89.4473 12.9453 89.8145 12.6855 90.1309 12.3535C90.4473 12.0176 90.6953 11.627 90.875 11.1816C91.0547 10.7324 91.1445 10.248 91.1445 9.72852C91.1445 9.20898 91.0547 8.72656 90.875 8.28125C90.6953 7.83594 90.4473 7.44727 90.1309 7.11523C89.8145 6.7832 89.4473 6.52539 89.0293 6.3418C88.6113 6.1543 88.1621 6.06055 87.6816 6.06055C87.2051 6.06055 86.7559 6.1543 86.334 6.3418C85.916 6.52539 85.5469 6.7832 85.2266 7.11523C84.9062 7.44727 84.6562 7.83594 84.4766 8.28125C84.3008 8.72656 84.2129 9.20898 84.2129 9.72852ZM83.5215 9.72852C83.5215 9.10742 83.6289 8.53125 83.8438 8C84.0586 7.46875 84.3574 7.00586 84.7402 6.61133C85.123 6.21289 85.5645 5.9043 86.0645 5.68555C86.5684 5.46289 87.1074 5.35156 87.6816 5.35156C88.2559 5.35156 88.793 5.46289 89.293 5.68555C89.7969 5.9043 90.2383 6.21289 90.6172 6.61133C91 7.00586 91.2988 7.46875 91.5137 8C91.7324 8.53125 91.8418 9.10742 91.8418 9.72852C91.8418 10.3496 91.7324 10.9258 91.5137 11.457C91.2988 11.9883 91 12.4551 90.6172 12.8574C90.2383 13.2559 89.7969 13.5664 89.293 13.7891C88.793 14.0117 88.2559 14.123 87.6816 14.123C87.1074 14.123 86.5684 14.0117 86.0645 13.7891C85.5645 13.5664 85.123 13.2559 84.7402 12.8574C84.3574 12.4551 84.0586 11.9883 83.8438 11.457C83.6289 10.9258 83.5215 10.3496 83.5215 9.72852Z" fill="white"/>
<path d="M2.475 0H96.525C97.8919 0 99 1.34315 99 3V17C99 18.6569 97.8919 20 96.525 20H2.475C1.1081 20 0 18.6569 0 17V3C0 1.34315 1.1081 0 2.475 0Z" fill="url(#paint0_linear_8_277)"/>
<defs>
<linearGradient id="paint0_linear_8_277" x1="0" y1="0" x2="0" y2="20" gradientUnits="userSpaceOnUse">
<stop stop-color="#BBBBBB" stop-opacity="0.1"/>
<stop offset="1" stop-opacity="0.1"/>
</linearGradient>
</defs>
</svg>
