<svg width="80" height="20" viewBox="0 0 80 20" fill="none" xmlns="http://www.w3.org/2000/svg">
<rect width="80" height="20" rx="3" fill="#555555"/>
<mask id="path-2-inside-1_2_77" fill="white">
<path d="M10.1387 9.94922V15H8.72656V8.66016H10.0566L10.1387 9.94922ZM9.91016 11.5957L9.42969 11.5898C9.42969 11.1523 9.48438 10.748 9.59375 10.377C9.70312 10.0059 9.86328 9.68359 10.0742 9.41016C10.2852 9.13281 10.5469 8.91992 10.8594 8.77148C11.1758 8.61914 11.541 8.54297 11.9551 8.54297C12.2441 8.54297 12.5078 8.58594 12.7461 8.67188C12.9883 8.75391 13.1973 8.88477 13.373 9.06445C13.5527 9.24414 13.6895 9.47461 13.7832 9.75586C13.8809 10.0371 13.9297 10.377 13.9297 10.7754V15H12.5176V10.8984C12.5176 10.5898 12.4707 10.3477 12.377 10.1719C12.2871 9.99609 12.1562 9.87109 11.9844 9.79688C11.8164 9.71875 11.6152 9.67969 11.3809 9.67969C11.1152 9.67969 10.8887 9.73047 10.7012 9.83203C10.5176 9.93359 10.3672 10.0723 10.25 10.248C10.1328 10.4238 10.0469 10.627 9.99219 10.8574C9.9375 11.0879 9.91016 11.334 9.91016 11.5957ZM13.8418 11.2207L13.1797 11.3672C13.1797 10.9844 13.2324 10.623 13.3379 10.2832C13.4473 9.93945 13.6055 9.63867 13.8125 9.38086C14.0234 9.11914 14.2832 8.91406 14.5918 8.76562C14.9004 8.61719 15.2539 8.54297 15.6523 8.54297C15.9766 8.54297 16.2656 8.58789 16.5195 8.67773C16.7773 8.76367 16.9961 8.90039 17.1758 9.08789C17.3555 9.27539 17.4922 9.51953 17.5859 9.82031C17.6797 10.1172 17.7266 10.4766 17.7266 10.8984V15H16.3086V10.8926C16.3086 10.5723 16.2617 10.3242 16.168 10.1484C16.0781 9.97266 15.9492 9.85156 15.7812 9.78516C15.6133 9.71484 15.4121 9.67969 15.1777 9.67969C14.959 9.67969 14.7656 9.7207 14.5977 9.80273C14.4336 9.88086 14.2949 9.99219 14.1816 10.1367C14.0684 10.2773 13.9824 10.4395 13.9238 10.623C13.8691 10.8066 13.8418 11.0059 13.8418 11.2207ZM22.0946 15.1172C21.6259 15.1172 21.202 15.041 20.8231 14.8887C20.4481 14.7324 20.1278 14.5156 19.8622 14.2383C19.6005 13.9609 19.3993 13.6348 19.2587 13.2598C19.118 12.8848 19.0477 12.4805 19.0477 12.0469V11.8125C19.0477 11.3164 19.12 10.8672 19.2645 10.4648C19.4091 10.0625 19.6102 9.71875 19.868 9.43359C20.1259 9.14453 20.4305 8.92383 20.7821 8.77148C21.1337 8.61914 21.5145 8.54297 21.9247 8.54297C22.3778 8.54297 22.7743 8.61914 23.1141 8.77148C23.454 8.92383 23.7352 9.13867 23.9579 9.41602C24.1845 9.68945 24.3524 10.0156 24.4618 10.3945C24.5751 10.7734 24.6317 11.1914 24.6317 11.6484V12.252H19.7333V11.2383H23.2372V11.127C23.2294 10.873 23.1786 10.6348 23.0848 10.4121C22.995 10.1895 22.8563 10.0098 22.6688 9.87305C22.4813 9.73633 22.2313 9.66797 21.9188 9.66797C21.6845 9.66797 21.4755 9.71875 21.2919 9.82031C21.1122 9.91797 20.9618 10.0605 20.8407 10.248C20.7196 10.4355 20.6259 10.6621 20.5595 10.9277C20.497 11.1895 20.4657 11.4844 20.4657 11.8125V12.0469C20.4657 12.3242 20.5028 12.582 20.577 12.8203C20.6552 13.0547 20.7684 13.2598 20.9169 13.4355C21.0653 13.6113 21.245 13.75 21.4559 13.8516C21.6669 13.9492 21.9071 13.998 22.1766 13.998C22.5165 13.998 22.8192 13.9297 23.0848 13.793C23.3505 13.6562 23.5809 13.4629 23.7762 13.2129L24.5204 13.9336C24.3837 14.1328 24.2059 14.3242 23.9872 14.5078C23.7684 14.6875 23.5009 14.834 23.1845 14.9473C22.872 15.0605 22.5087 15.1172 22.0946 15.1172ZM27.2537 10.0137V15H25.8416V8.66016H27.1716L27.2537 10.0137ZM27.0017 11.5957L26.5447 11.5898C26.5486 11.1406 26.6111 10.7285 26.7322 10.3535C26.8572 9.97852 27.0291 9.65625 27.2478 9.38672C27.4705 9.11719 27.7361 8.91016 28.0447 8.76562C28.3533 8.61719 28.697 8.54297 29.0759 8.54297C29.3806 8.54297 29.656 8.58594 29.9021 8.67188C30.1521 8.75391 30.365 8.88867 30.5408 9.07617C30.7205 9.26367 30.8572 9.50781 30.9509 9.80859C31.0447 10.1055 31.0916 10.4707 31.0916 10.9043V15H29.6736V10.8984C29.6736 10.5938 29.6287 10.3535 29.5388 10.1777C29.4529 9.99805 29.3259 9.87109 29.158 9.79688C28.9939 9.71875 28.7888 9.67969 28.5427 9.67969C28.3005 9.67969 28.0837 9.73047 27.8923 9.83203C27.7009 9.93359 27.5388 10.0723 27.406 10.248C27.2771 10.4238 27.1775 10.627 27.1072 10.8574C27.0369 11.0879 27.0017 11.334 27.0017 11.5957ZM35.5592 8.66016V9.69141H31.985V8.66016H35.5592ZM33.0163 7.10742H34.4284V13.248C34.4284 13.4434 34.4557 13.5938 34.5104 13.6992C34.569 13.8008 34.6491 13.8691 34.7506 13.9043C34.8522 13.9395 34.9713 13.957 35.108 13.957C35.2057 13.957 35.2995 13.9512 35.3893 13.9395C35.4791 13.9277 35.5514 13.916 35.6061 13.9043L35.612 14.9824C35.4948 15.0176 35.358 15.0488 35.2018 15.0762C35.0495 15.1035 34.8737 15.1172 34.6745 15.1172C34.3502 15.1172 34.0631 15.0605 33.8131 14.9473C33.5631 14.8301 33.3678 14.6406 33.2272 14.3789C33.0866 14.1172 33.0163 13.7695 33.0163 13.3359V7.10742ZM39.564 15.1172C39.0952 15.1172 38.6714 15.041 38.2925 14.8887C37.9175 14.7324 37.5972 14.5156 37.3316 14.2383C37.0698 13.9609 36.8687 13.6348 36.728 13.2598C36.5874 12.8848 36.5171 12.4805 36.5171 12.0469V11.8125C36.5171 11.3164 36.5894 10.8672 36.7339 10.4648C36.8784 10.0625 37.0796 9.71875 37.3374 9.43359C37.5952 9.14453 37.8999 8.92383 38.2515 8.77148C38.603 8.61914 38.9839 8.54297 39.3941 8.54297C39.8472 8.54297 40.2437 8.61914 40.5835 8.77148C40.9234 8.92383 41.2046 9.13867 41.4273 9.41602C41.6538 9.68945 41.8218 10.0156 41.9312 10.3945C42.0445 10.7734 42.1011 11.1914 42.1011 11.6484V12.252H37.2027V11.2383H40.7066V11.127C40.6987 10.873 40.648 10.6348 40.5542 10.4121C40.4644 10.1895 40.3257 10.0098 40.1382 9.87305C39.9507 9.73633 39.7007 9.66797 39.3882 9.66797C39.1538 9.66797 38.9448 9.71875 38.7612 9.82031C38.5816 9.91797 38.4312 10.0605 38.3101 10.248C38.189 10.4355 38.0952 10.6621 38.0288 10.9277C37.9663 11.1895 37.9351 11.4844 37.9351 11.8125V12.0469C37.9351 12.3242 37.9722 12.582 38.0464 12.8203C38.1245 13.0547 38.2378 13.2598 38.3862 13.4355C38.5347 13.6113 38.7144 13.75 38.9253 13.8516C39.1362 13.9492 39.3765 13.998 39.646 13.998C39.9859 13.998 40.2886 13.9297 40.5542 13.793C40.8198 13.6562 41.0503 13.4629 41.2456 13.2129L41.9898 13.9336C41.853 14.1328 41.6753 14.3242 41.4566 14.5078C41.2378 14.6875 40.9702 14.834 40.6538 14.9473C40.3413 15.0605 39.978 15.1172 39.564 15.1172ZM46.1176 15.1172C45.6488 15.1172 45.225 15.041 44.8461 14.8887C44.4711 14.7324 44.1508 14.5156 43.8852 14.2383C43.6234 13.9609 43.4223 13.6348 43.2816 13.2598C43.141 12.8848 43.0707 12.4805 43.0707 12.0469V11.8125C43.0707 11.3164 43.143 10.8672 43.2875 10.4648C43.432 10.0625 43.6332 9.71875 43.891 9.43359C44.1488 9.14453 44.4535 8.92383 44.8051 8.77148C45.1566 8.61914 45.5375 8.54297 45.9477 8.54297C46.4008 8.54297 46.7973 8.61914 47.1371 8.77148C47.477 8.92383 47.7582 9.13867 47.9809 9.41602C48.2074 9.68945 48.3754 10.0156 48.4848 10.3945C48.598 10.7734 48.6547 11.1914 48.6547 11.6484V12.252H43.7562V11.2383H47.2602V11.127C47.2523 10.873 47.2016 10.6348 47.1078 10.4121C47.018 10.1895 46.8793 10.0098 46.6918 9.87305C46.5043 9.73633 46.2543 9.66797 45.9418 9.66797C45.7074 9.66797 45.4984 9.71875 45.3148 9.82031C45.1352 9.91797 44.9848 10.0605 44.8637 10.248C44.7426 10.4355 44.6488 10.6621 44.5824 10.9277C44.5199 11.1895 44.4887 11.4844 44.4887 11.8125V12.0469C44.4887 12.3242 44.5258 12.582 44.6 12.8203C44.6781 13.0547 44.7914 13.2598 44.9398 13.4355C45.0883 13.6113 45.268 13.75 45.4789 13.8516C45.6898 13.9492 45.9301 13.998 46.1996 13.998C46.5395 13.998 46.8422 13.9297 47.1078 13.793C47.3734 13.6562 47.6039 13.4629 47.7992 13.2129L48.5434 13.9336C48.4066 14.1328 48.2289 14.3242 48.0102 14.5078C47.7914 14.6875 47.5238 14.834 47.2074 14.9473C46.8949 15.0605 46.5316 15.1172 46.1176 15.1172ZM53.4329 13.2832C53.4329 13.1426 53.3977 13.0156 53.3274 12.9023C53.2571 12.7852 53.1223 12.6797 52.9231 12.5859C52.7278 12.4922 52.4388 12.4062 52.0559 12.3281C51.72 12.2539 51.4114 12.166 51.1302 12.0645C50.8528 11.959 50.6145 11.832 50.4153 11.6836C50.2161 11.5352 50.0618 11.3594 49.9524 11.1562C49.843 10.9531 49.7884 10.7188 49.7884 10.4531C49.7884 10.1953 49.845 9.95117 49.9583 9.7207C50.0716 9.49023 50.2337 9.28711 50.4446 9.11133C50.6555 8.93555 50.9114 8.79688 51.2122 8.69531C51.5169 8.59375 51.8567 8.54297 52.2317 8.54297C52.763 8.54297 53.218 8.63281 53.597 8.8125C53.9798 8.98828 54.2727 9.22852 54.4759 9.5332C54.679 9.83398 54.7805 10.1738 54.7805 10.5527H53.3684C53.3684 10.3848 53.3255 10.2285 53.2395 10.084C53.1575 9.93555 53.0325 9.81641 52.8645 9.72656C52.6966 9.63281 52.4856 9.58594 52.2317 9.58594C51.9895 9.58594 51.7884 9.625 51.6282 9.70312C51.472 9.77734 51.3548 9.875 51.2766 9.99609C51.2024 10.1172 51.1653 10.25 51.1653 10.3945C51.1653 10.5 51.1848 10.5957 51.2239 10.6816C51.2669 10.7637 51.3372 10.8398 51.4348 10.9102C51.5325 10.9766 51.6653 11.0391 51.8333 11.0977C52.0052 11.1562 52.22 11.2129 52.4778 11.2676C52.9622 11.3691 53.3782 11.5 53.7259 11.6602C54.0774 11.8164 54.347 12.0195 54.5345 12.2695C54.722 12.5156 54.8157 12.8281 54.8157 13.207C54.8157 13.4883 54.7552 13.7461 54.6341 13.9805C54.5169 14.2109 54.345 14.4121 54.1184 14.584C53.8919 14.752 53.6204 14.8828 53.304 14.9766C52.9915 15.0703 52.6399 15.1172 52.2493 15.1172C51.6751 15.1172 51.1888 15.0156 50.7903 14.8125C50.3919 14.6055 50.0891 14.3418 49.8821 14.0215C49.679 13.6973 49.5774 13.3613 49.5774 13.0137H50.9427C50.9583 13.2754 51.0305 13.4844 51.1595 13.6406C51.2923 13.793 51.4563 13.9043 51.6516 13.9746C51.8509 14.041 52.0559 14.0742 52.2669 14.0742C52.5208 14.0742 52.7337 14.041 52.9055 13.9746C53.0774 13.9043 53.2083 13.8105 53.2981 13.6934C53.388 13.5723 53.4329 13.4355 53.4329 13.2832Z"/>
</mask>
<path d="M10.1387 9.94922V15H8.72656V8.66016H10.0566L10.1387 9.94922ZM9.91016 11.5957L9.42969 11.5898C9.42969 11.1523 9.48438 10.748 9.59375 10.377C9.70312 10.0059 9.86328 9.68359 10.0742 9.41016C10.2852 9.13281 10.5469 8.91992 10.8594 8.77148C11.1758 8.61914 11.541 8.54297 11.9551 8.54297C12.2441 8.54297 12.5078 8.58594 12.7461 8.67188C12.9883 8.75391 13.1973 8.88477 13.373 9.06445C13.5527 9.24414 13.6895 9.47461 13.7832 9.75586C13.8809 10.0371 13.9297 10.377 13.9297 10.7754V15H12.5176V10.8984C12.5176 10.5898 12.4707 10.3477 12.377 10.1719C12.2871 9.99609 12.1562 9.87109 11.9844 9.79688C11.8164 9.71875 11.6152 9.67969 11.3809 9.67969C11.1152 9.67969 10.8887 9.73047 10.7012 9.83203C10.5176 9.93359 10.3672 10.0723 10.25 10.248C10.1328 10.4238 10.0469 10.627 9.99219 10.8574C9.9375 11.0879 9.91016 11.334 9.91016 11.5957ZM13.8418 11.2207L13.1797 11.3672C13.1797 10.9844 13.2324 10.623 13.3379 10.2832C13.4473 9.93945 13.6055 9.63867 13.8125 9.38086C14.0234 9.11914 14.2832 8.91406 14.5918 8.76562C14.9004 8.61719 15.2539 8.54297 15.6523 8.54297C15.9766 8.54297 16.2656 8.58789 16.5195 8.67773C16.7773 8.76367 16.9961 8.90039 17.1758 9.08789C17.3555 9.27539 17.4922 9.51953 17.5859 9.82031C17.6797 10.1172 17.7266 10.4766 17.7266 10.8984V15H16.3086V10.8926C16.3086 10.5723 16.2617 10.3242 16.168 10.1484C16.0781 9.97266 15.9492 9.85156 15.7812 9.78516C15.6133 9.71484 15.4121 9.67969 15.1777 9.67969C14.959 9.67969 14.7656 9.7207 14.5977 9.80273C14.4336 9.88086 14.2949 9.99219 14.1816 10.1367C14.0684 10.2773 13.9824 10.4395 13.9238 10.623C13.8691 10.8066 13.8418 11.0059 13.8418 11.2207ZM22.0946 15.1172C21.6259 15.1172 21.202 15.041 20.8231 14.8887C20.4481 14.7324 20.1278 14.5156 19.8622 14.2383C19.6005 13.9609 19.3993 13.6348 19.2587 13.2598C19.118 12.8848 19.0477 12.4805 19.0477 12.0469V11.8125C19.0477 11.3164 19.12 10.8672 19.2645 10.4648C19.4091 10.0625 19.6102 9.71875 19.868 9.43359C20.1259 9.14453 20.4305 8.92383 20.7821 8.77148C21.1337 8.61914 21.5145 8.54297 21.9247 8.54297C22.3778 8.54297 22.7743 8.61914 23.1141 8.77148C23.454 8.92383 23.7352 9.13867 23.9579 9.41602C24.1845 9.68945 24.3524 10.0156 24.4618 10.3945C24.5751 10.7734 24.6317 11.1914 24.6317 11.6484V12.252H19.7333V11.2383H23.2372V11.127C23.2294 10.873 23.1786 10.6348 23.0848 10.4121C22.995 10.1895 22.8563 10.0098 22.6688 9.87305C22.4813 9.73633 22.2313 9.66797 21.9188 9.66797C21.6845 9.66797 21.4755 9.71875 21.2919 9.82031C21.1122 9.91797 20.9618 10.0605 20.8407 10.248C20.7196 10.4355 20.6259 10.6621 20.5595 10.9277C20.497 11.1895 20.4657 11.4844 20.4657 11.8125V12.0469C20.4657 12.3242 20.5028 12.582 20.577 12.8203C20.6552 13.0547 20.7684 13.2598 20.9169 13.4355C21.0653 13.6113 21.245 13.75 21.4559 13.8516C21.6669 13.9492 21.9071 13.998 22.1766 13.998C22.5165 13.998 22.8192 13.9297 23.0848 13.793C23.3505 13.6562 23.5809 13.4629 23.7762 13.2129L24.5204 13.9336C24.3837 14.1328 24.2059 14.3242 23.9872 14.5078C23.7684 14.6875 23.5009 14.834 23.1845 14.9473C22.872 15.0605 22.5087 15.1172 22.0946 15.1172ZM27.2537 10.0137V15H25.8416V8.66016H27.1716L27.2537 10.0137ZM27.0017 11.5957L26.5447 11.5898C26.5486 11.1406 26.6111 10.7285 26.7322 10.3535C26.8572 9.97852 27.0291 9.65625 27.2478 9.38672C27.4705 9.11719 27.7361 8.91016 28.0447 8.76562C28.3533 8.61719 28.697 8.54297 29.0759 8.54297C29.3806 8.54297 29.656 8.58594 29.9021 8.67188C30.1521 8.75391 30.365 8.88867 30.5408 9.07617C30.7205 9.26367 30.8572 9.50781 30.9509 9.80859C31.0447 10.1055 31.0916 10.4707 31.0916 10.9043V15H29.6736V10.8984C29.6736 10.5938 29.6287 10.3535 29.5388 10.1777C29.4529 9.99805 29.3259 9.87109 29.158 9.79688C28.9939 9.71875 28.7888 9.67969 28.5427 9.67969C28.3005 9.67969 28.0837 9.73047 27.8923 9.83203C27.7009 9.93359 27.5388 10.0723 27.406 10.248C27.2771 10.4238 27.1775 10.627 27.1072 10.8574C27.0369 11.0879 27.0017 11.334 27.0017 11.5957ZM35.5592 8.66016V9.69141H31.985V8.66016H35.5592ZM33.0163 7.10742H34.4284V13.248C34.4284 13.4434 34.4557 13.5938 34.5104 13.6992C34.569 13.8008 34.6491 13.8691 34.7506 13.9043C34.8522 13.9395 34.9713 13.957 35.108 13.957C35.2057 13.957 35.2995 13.9512 35.3893 13.9395C35.4791 13.9277 35.5514 13.916 35.6061 13.9043L35.612 14.9824C35.4948 15.0176 35.358 15.0488 35.2018 15.0762C35.0495 15.1035 34.8737 15.1172 34.6745 15.1172C34.3502 15.1172 34.0631 15.0605 33.8131 14.9473C33.5631 14.8301 33.3678 14.6406 33.2272 14.3789C33.0866 14.1172 33.0163 13.7695 33.0163 13.3359V7.10742ZM39.564 15.1172C39.0952 15.1172 38.6714 15.041 38.2925 14.8887C37.9175 14.7324 37.5972 14.5156 37.3316 14.2383C37.0698 13.9609 36.8687 13.6348 36.728 13.2598C36.5874 12.8848 36.5171 12.4805 36.5171 12.0469V11.8125C36.5171 11.3164 36.5894 10.8672 36.7339 10.4648C36.8784 10.0625 37.0796 9.71875 37.3374 9.43359C37.5952 9.14453 37.8999 8.92383 38.2515 8.77148C38.603 8.61914 38.9839 8.54297 39.3941 8.54297C39.8472 8.54297 40.2437 8.61914 40.5835 8.77148C40.9234 8.92383 41.2046 9.13867 41.4273 9.41602C41.6538 9.68945 41.8218 10.0156 41.9312 10.3945C42.0445 10.7734 42.1011 11.1914 42.1011 11.6484V12.252H37.2027V11.2383H40.7066V11.127C40.6987 10.873 40.648 10.6348 40.5542 10.4121C40.4644 10.1895 40.3257 10.0098 40.1382 9.87305C39.9507 9.73633 39.7007 9.66797 39.3882 9.66797C39.1538 9.66797 38.9448 9.71875 38.7612 9.82031C38.5816 9.91797 38.4312 10.0605 38.3101 10.248C38.189 10.4355 38.0952 10.6621 38.0288 10.9277C37.9663 11.1895 37.9351 11.4844 37.9351 11.8125V12.0469C37.9351 12.3242 37.9722 12.582 38.0464 12.8203C38.1245 13.0547 38.2378 13.2598 38.3862 13.4355C38.5347 13.6113 38.7144 13.75 38.9253 13.8516C39.1362 13.9492 39.3765 13.998 39.646 13.998C39.9859 13.998 40.2886 13.9297 40.5542 13.793C40.8198 13.6562 41.0503 13.4629 41.2456 13.2129L41.9898 13.9336C41.853 14.1328 41.6753 14.3242 41.4566 14.5078C41.2378 14.6875 40.9702 14.834 40.6538 14.9473C40.3413 15.0605 39.978 15.1172 39.564 15.1172ZM46.1176 15.1172C45.6488 15.1172 45.225 15.041 44.8461 14.8887C44.4711 14.7324 44.1508 14.5156 43.8852 14.2383C43.6234 13.9609 43.4223 13.6348 43.2816 13.2598C43.141 12.8848 43.0707 12.4805 43.0707 12.0469V11.8125C43.0707 11.3164 43.143 10.8672 43.2875 10.4648C43.432 10.0625 43.6332 9.71875 43.891 9.43359C44.1488 9.14453 44.4535 8.92383 44.8051 8.77148C45.1566 8.61914 45.5375 8.54297 45.9477 8.54297C46.4008 8.54297 46.7973 8.61914 47.1371 8.77148C47.477 8.92383 47.7582 9.13867 47.9809 9.41602C48.2074 9.68945 48.3754 10.0156 48.4848 10.3945C48.598 10.7734 48.6547 11.1914 48.6547 11.6484V12.252H43.7562V11.2383H47.2602V11.127C47.2523 10.873 47.2016 10.6348 47.1078 10.4121C47.018 10.1895 46.8793 10.0098 46.6918 9.87305C46.5043 9.73633 46.2543 9.66797 45.9418 9.66797C45.7074 9.66797 45.4984 9.71875 45.3148 9.82031C45.1352 9.91797 44.9848 10.0605 44.8637 10.248C44.7426 10.4355 44.6488 10.6621 44.5824 10.9277C44.5199 11.1895 44.4887 11.4844 44.4887 11.8125V12.0469C44.4887 12.3242 44.5258 12.582 44.6 12.8203C44.6781 13.0547 44.7914 13.2598 44.9398 13.4355C45.0883 13.6113 45.268 13.75 45.4789 13.8516C45.6898 13.9492 45.9301 13.998 46.1996 13.998C46.5395 13.998 46.8422 13.9297 47.1078 13.793C47.3734 13.6562 47.6039 13.4629 47.7992 13.2129L48.5434 13.9336C48.4066 14.1328 48.2289 14.3242 48.0102 14.5078C47.7914 14.6875 47.5238 14.834 47.2074 14.9473C46.8949 15.0605 46.5316 15.1172 46.1176 15.1172ZM53.4329 13.2832C53.4329 13.1426 53.3977 13.0156 53.3274 12.9023C53.2571 12.7852 53.1223 12.6797 52.9231 12.5859C52.7278 12.4922 52.4388 12.4062 52.0559 12.3281C51.72 12.2539 51.4114 12.166 51.1302 12.0645C50.8528 11.959 50.6145 11.832 50.4153 11.6836C50.2161 11.5352 50.0618 11.3594 49.9524 11.1562C49.843 10.9531 49.7884 10.7188 49.7884 10.4531C49.7884 10.1953 49.845 9.95117 49.9583 9.7207C50.0716 9.49023 50.2337 9.28711 50.4446 9.11133C50.6555 8.93555 50.9114 8.79688 51.2122 8.69531C51.5169 8.59375 51.8567 8.54297 52.2317 8.54297C52.763 8.54297 53.218 8.63281 53.597 8.8125C53.9798 8.98828 54.2727 9.22852 54.4759 9.5332C54.679 9.83398 54.7805 10.1738 54.7805 10.5527H53.3684C53.3684 10.3848 53.3255 10.2285 53.2395 10.084C53.1575 9.93555 53.0325 9.81641 52.8645 9.72656C52.6966 9.63281 52.4856 9.58594 52.2317 9.58594C51.9895 9.58594 51.7884 9.625 51.6282 9.70312C51.472 9.77734 51.3548 9.875 51.2766 9.99609C51.2024 10.1172 51.1653 10.25 51.1653 10.3945C51.1653 10.5 51.1848 10.5957 51.2239 10.6816C51.2669 10.7637 51.3372 10.8398 51.4348 10.9102C51.5325 10.9766 51.6653 11.0391 51.8333 11.0977C52.0052 11.1562 52.22 11.2129 52.4778 11.2676C52.9622 11.3691 53.3782 11.5 53.7259 11.6602C54.0774 11.8164 54.347 12.0195 54.5345 12.2695C54.722 12.5156 54.8157 12.8281 54.8157 13.207C54.8157 13.4883 54.7552 13.7461 54.6341 13.9805C54.5169 14.2109 54.345 14.4121 54.1184 14.584C53.8919 14.752 53.6204 14.8828 53.304 14.9766C52.9915 15.0703 52.6399 15.1172 52.2493 15.1172C51.6751 15.1172 51.1888 15.0156 50.7903 14.8125C50.3919 14.6055 50.0891 14.3418 49.8821 14.0215C49.679 13.6973 49.5774 13.3613 49.5774 13.0137H50.9427C50.9583 13.2754 51.0305 13.4844 51.1595 13.6406C51.2923 13.793 51.4563 13.9043 51.6516 13.9746C51.8509 14.041 52.0559 14.0742 52.2669 14.0742C52.5208 14.0742 52.7337 14.041 52.9055 13.9746C53.0774 13.9043 53.2083 13.8105 53.2981 13.6934C53.388 13.5723 53.4329 13.4355 53.4329 13.2832Z" fill="#010101" fill-opacity="0.3"/>
<path d="M10.1387 9.94922H10.3391L10.3383 9.93652L10.1387 9.94922ZM10.1387 15V15.2H10.3387V15H10.1387ZM8.72656 15H8.52656V15.2H8.72656V15ZM8.72656 8.66016V8.46016H8.52656V8.66016H8.72656ZM10.0566 8.66016L10.2562 8.64745L10.2443 8.46016H10.0566V8.66016ZM9.91016 11.5957L9.90772 11.7957L10.1102 11.7982V11.5957H9.91016ZM9.42969 11.5898H9.22969V11.7874L9.42725 11.7898L9.42969 11.5898ZM10.0742 9.41016L10.2326 9.53232L10.2334 9.53123L10.0742 9.41016ZM10.8594 8.77148L10.9452 8.95214L10.9461 8.95168L10.8594 8.77148ZM12.7461 8.67188L12.6782 8.86005L12.6819 8.8613L12.7461 8.67188ZM13.373 9.06445L13.2301 9.20432L13.2316 9.20587L13.373 9.06445ZM13.7832 9.75586L13.5935 9.81911L13.5943 9.82146L13.7832 9.75586ZM13.9297 15V15.2H14.1297V15H13.9297ZM12.5176 15H12.3176V15.2H12.5176V15ZM12.377 10.1719L12.1988 10.2629L12.2005 10.266L12.377 10.1719ZM11.9844 9.79688L11.9 9.97829L11.9051 9.98049L11.9844 9.79688ZM10.7012 9.83203L10.6059 9.65617L10.6044 9.65702L10.7012 9.83203ZM13.8418 11.2207L13.885 11.416L14.0418 11.3813V11.2207H13.8418ZM13.1797 11.3672H12.9797V11.6163L13.2229 11.5625L13.1797 11.3672ZM13.3379 10.2832L13.1473 10.2226L13.1469 10.2239L13.3379 10.2832ZM13.8125 9.38086L13.6568 9.25535L13.6566 9.25563L13.8125 9.38086ZM16.5195 8.67773L16.4528 8.86631L16.4563 8.86747L16.5195 8.67773ZM17.5859 9.82031L17.395 9.87983L17.3952 9.88054L17.5859 9.82031ZM17.7266 15V15.2H17.9266V15H17.7266ZM16.3086 15H16.1086V15.2H16.3086V15ZM16.168 10.1484L15.9899 10.2395L15.9915 10.2426L16.168 10.1484ZM15.7812 9.78516L15.704 9.96968L15.7077 9.97115L15.7812 9.78516ZM14.5977 9.80273L14.6836 9.98332L14.6854 9.98245L14.5977 9.80273ZM14.1816 10.1367L14.3374 10.2622L14.3391 10.2601L14.1816 10.1367ZM13.9238 10.623L13.7333 10.5622L13.7322 10.566L13.9238 10.623ZM9.93867 9.94922V15H10.3387V9.94922H9.93867ZM10.1387 14.8H8.72656V15.2H10.1387V14.8ZM8.92656 15V8.66016H8.52656V15H8.92656ZM8.72656 8.86016H10.0566V8.46016H8.72656V8.86016ZM9.85704 8.67286L9.93908 9.96192L10.3383 9.93652L10.2562 8.64745L9.85704 8.67286ZM9.9126 11.3957L9.43213 11.3899L9.42725 11.7898L9.90772 11.7957L9.9126 11.3957ZM9.62969 11.5898C9.62969 11.169 9.68228 10.784 9.78559 10.4335L9.40191 10.3204C9.28647 10.7121 9.22969 11.1357 9.22969 11.5898H9.62969ZM9.78559 10.4335C9.8888 10.0833 10.0385 9.78393 10.2326 9.53232L9.91586 9.288C9.68809 9.58326 9.51745 9.9284 9.40191 10.3204L9.78559 10.4335ZM10.2334 9.53123C10.4251 9.27913 10.6618 9.08676 10.9452 8.95214L10.7736 8.59083C10.432 8.75308 10.1452 8.98649 9.91503 9.28908L10.2334 9.53123ZM10.9461 8.95168C11.231 8.81451 11.5657 8.74297 11.9551 8.74297V8.34297C11.5163 8.34297 11.1205 8.42377 10.7726 8.59128L10.9461 8.95168ZM11.9551 8.74297C12.2242 8.74297 12.4646 8.78295 12.6782 8.86001L12.8139 8.48374C12.5511 8.38893 12.2641 8.34297 11.9551 8.34297V8.74297ZM12.6819 8.8613C12.8949 8.93342 13.0767 9.04752 13.2301 9.20431L13.516 8.92459C13.3178 8.72202 13.0817 8.57439 12.8103 8.48245L12.6819 8.8613ZM13.2316 9.20587C13.386 9.36023 13.5079 9.56241 13.5935 9.8191L13.9729 9.69261C13.871 9.38681 13.7195 9.12806 13.5145 8.92303L13.2316 9.20587ZM13.5943 9.82146C13.6826 10.0758 13.7297 10.3922 13.7297 10.7754H14.1297C14.1297 10.3617 14.0791 9.99838 13.9721 9.69026L13.5943 9.82146ZM13.7297 10.7754V15H14.1297V10.7754H13.7297ZM13.9297 14.8H12.5176V15.2H13.9297V14.8ZM12.7176 15V10.8984H12.3176V15H12.7176ZM12.7176 10.8984C12.7176 10.5734 12.6688 10.2941 12.5534 10.0778L12.2005 10.266C12.2726 10.4012 12.3176 10.6063 12.3176 10.8984H12.7176ZM12.555 10.0809C12.4453 9.8661 12.2807 9.70698 12.0637 9.61326L11.9051 9.98049C12.0318 10.0352 12.1289 10.1261 12.1989 10.2629L12.555 10.0809ZM12.0687 9.61553C11.8683 9.52231 11.6369 9.47969 11.3809 9.47969V9.87969C11.5936 9.87969 11.7645 9.91519 11.9 9.97822L12.0687 9.61553ZM11.3809 9.47969C11.09 9.47969 10.829 9.53533 10.6059 9.65617L10.7964 10.0079C10.9483 9.9256 11.1405 9.87969 11.3809 9.87969V9.47969ZM10.6044 9.65702C10.3926 9.77418 10.2184 9.9349 10.0836 10.1371L10.4164 10.359C10.516 10.2096 10.6426 10.093 10.798 10.007L10.6044 9.65702ZM10.0836 10.1371C9.95174 10.3349 9.8571 10.5605 9.79759 10.8112L10.1868 10.9036C10.2367 10.6934 10.3139 10.5128 10.4164 10.359L10.0836 10.1371ZM9.79759 10.8112C9.73896 11.0583 9.71016 11.32 9.71016 11.5957H10.1102C10.1102 11.3479 10.136 11.1175 10.1868 10.9036L9.79759 10.8112ZM13.7986 11.0254L13.1365 11.1719L13.2229 11.5625L13.885 11.416L13.7986 11.0254ZM13.3797 11.3672C13.3797 11.003 13.4298 10.6617 13.5289 10.3425L13.1469 10.2239C13.035 10.5844 12.9797 10.9658 12.9797 11.3672H13.3797ZM13.5285 10.3438C13.6311 10.0214 13.7782 9.74301 13.9684 9.50609L13.6566 9.25563C13.4328 9.53433 13.2635 9.85748 13.1473 10.2226L13.5285 10.3438ZM13.9682 9.50636C14.1601 9.26824 14.3962 9.08166 14.6785 8.94586L14.5051 8.58539C14.1702 8.74647 13.8867 8.97005 13.6568 9.25535L13.9682 9.50636ZM14.6785 8.94586C14.9559 8.8124 15.279 8.74297 15.6523 8.74297V8.34297C15.2288 8.34297 14.8448 8.42198 14.5051 8.58539L14.6785 8.94586ZM15.6523 8.74297C15.9583 8.74297 16.2242 8.78538 16.4528 8.86628L16.5862 8.48919C16.3071 8.3904 15.9948 8.34297 15.6523 8.34297V8.74297ZM16.4563 8.86747C16.6848 8.94363 16.8752 9.06333 17.0314 9.22627L17.3202 8.94951C17.117 8.73745 16.8699 8.58372 16.5828 8.488L16.4563 8.86747ZM17.0314 9.22627C17.1856 9.38717 17.3085 9.60237 17.395 9.87983L17.7769 9.7608C17.6759 9.43669 17.5254 9.16361 17.3202 8.94951L17.0314 9.22627ZM17.3952 9.88054C17.4811 10.1524 17.5266 10.4903 17.5266 10.8984H17.9266C17.9266 10.4629 17.8783 10.082 17.7767 9.76009L17.3952 9.88054ZM17.5266 10.8984V15H17.9266V10.8984H17.5266ZM17.7266 14.8H16.3086V15.2H17.7266V14.8ZM16.5086 15V10.8926H16.1086V15H16.5086ZM16.5086 10.8926C16.5086 10.5573 16.4603 10.2715 16.3444 10.0543L15.9915 10.2426C16.0632 10.3769 16.1086 10.5872 16.1086 10.8926H16.5086ZM16.3461 10.0574C16.2363 9.84266 16.0723 9.68517 15.8548 9.59916L15.7077 9.97115C15.8261 10.018 15.92 10.1026 15.9899 10.2395L16.3461 10.0574ZM15.8585 9.60067C15.6601 9.51764 15.4313 9.47969 15.1777 9.47969V9.87969C15.3929 9.87969 15.5664 9.91205 15.704 9.96964L15.8585 9.60067ZM15.1777 9.47969C14.9337 9.47969 14.7095 9.52555 14.5099 9.62302L14.6854 9.98245C14.8218 9.91586 14.9842 9.87969 15.1777 9.87969V9.47969ZM14.5117 9.62216C14.3194 9.71372 14.1564 9.84475 14.0242 10.0133L14.3391 10.2601C14.4335 10.1396 14.5478 10.048 14.6836 9.98331L14.5117 9.62216ZM14.0259 10.0113C13.8961 10.1724 13.7989 10.3567 13.7333 10.5622L14.1144 10.6839C14.166 10.5222 14.2406 10.3823 14.3374 10.2622L14.0259 10.0113ZM13.7322 10.566C13.6713 10.7702 13.6418 10.9888 13.6418 11.2207H14.0418C14.0418 11.0229 14.067 10.8431 14.1155 10.6801L13.7322 10.566ZM20.8231 14.8887L20.7462 15.0733L20.7485 15.0742L20.8231 14.8887ZM19.8622 14.2383L19.7167 14.3755L19.7177 14.3766L19.8622 14.2383ZM19.868 9.43359L20.0164 9.56773L20.0173 9.56672L19.868 9.43359ZM23.9579 9.41602L23.8019 9.54124L23.8039 9.54362L23.9579 9.41602ZM24.4618 10.3945L24.2696 10.45L24.2702 10.4518L24.4618 10.3945ZM24.6317 12.252V12.452H24.8317V12.252H24.6317ZM19.7333 12.252H19.5333V12.452H19.7333V12.252ZM19.7333 11.2383V11.0383H19.5333V11.2383H19.7333ZM23.2372 11.2383V11.4383H23.4372V11.2383H23.2372ZM23.2372 11.127H23.4373L23.4371 11.1208L23.2372 11.127ZM23.0848 10.4121L22.8994 10.487L22.9005 10.4897L23.0848 10.4121ZM21.2919 9.82031L21.3874 9.99604L21.3887 9.99532L21.2919 9.82031ZM20.5595 10.9277L20.3654 10.8792L20.3649 10.8813L20.5595 10.9277ZM20.577 12.8203L20.386 12.8798L20.3873 12.8836L20.577 12.8203ZM21.4559 13.8516L21.3692 14.0318L21.3719 14.0331L21.4559 13.8516ZM23.7762 13.2129L23.9154 13.0692L23.7556 12.9145L23.6186 13.0898L23.7762 13.2129ZM24.5204 13.9336L24.6853 14.0468L24.7809 13.9075L24.6595 13.7899L24.5204 13.9336ZM23.9872 14.5078L24.1141 14.6624L24.1158 14.661L23.9872 14.5078ZM23.1845 14.9473L23.117 14.759L23.1163 14.7592L23.1845 14.9473ZM22.0946 14.9172C21.6477 14.9172 21.2497 14.8446 20.8977 14.7031L20.7485 15.0742C21.1544 15.2374 21.604 15.3172 22.0946 15.3172V14.9172ZM20.9 14.7041C20.549 14.5578 20.2521 14.3562 20.0066 14.0999L19.7177 14.3766C20.0035 14.675 20.3472 14.9071 20.7462 15.0733L20.9 14.7041ZM20.0076 14.101C19.7651 13.844 19.5777 13.5409 19.4459 13.1895L19.0714 13.33C19.2209 13.7286 19.4358 14.0779 19.7167 14.3755L20.0076 14.101ZM19.4459 13.1895C19.3144 12.8388 19.2477 12.4585 19.2477 12.0469H18.8477C18.8477 12.5025 18.9217 12.9307 19.0714 13.33L19.4459 13.1895ZM19.2477 12.0469V11.8125H18.8477V12.0469H19.2477ZM19.2477 11.8125C19.2477 11.3358 19.3172 10.9099 19.4528 10.5325L19.0763 10.3972C18.9228 10.8244 18.8477 11.297 18.8477 11.8125H19.2477ZM19.4528 10.5325C19.5895 10.1519 19.778 9.83146 20.0164 9.56772L19.7197 9.29946C19.4425 9.60604 19.2287 9.97308 19.0763 10.3972L19.4528 10.5325ZM20.0173 9.56672C20.256 9.29907 20.537 9.09567 20.8616 8.955L20.7026 8.58797C20.3241 8.75198 19.9957 8.99 19.7188 9.30047L20.0173 9.56672ZM20.8616 8.955C21.1864 8.81428 21.5399 8.74297 21.9247 8.74297V8.34297C21.4891 8.34297 21.081 8.424 20.7026 8.58797L20.8616 8.955ZM21.9247 8.74297C22.3556 8.74297 22.7232 8.8154 23.0323 8.95399L23.196 8.58898C22.8254 8.42289 22.4 8.34297 21.9247 8.34297V8.74297ZM23.0323 8.95399C23.3447 9.094 23.6 9.28975 23.8019 9.54122L24.1138 9.29081C23.8704 8.98759 23.5633 8.75365 23.196 8.58898L23.0323 8.95399ZM23.8039 9.54362C24.0111 9.79366 24.167 10.0946 24.2696 10.45L24.654 10.3391C24.5378 9.93668 24.3578 9.58525 24.1119 9.28841L23.8039 9.54362ZM24.2702 10.4518C24.3771 10.8095 24.4317 11.2079 24.4317 11.6484H24.8317C24.8317 11.175 24.773 10.7374 24.6534 10.3372L24.2702 10.4518ZM24.4317 11.6484V12.252H24.8317V11.6484H24.4317ZM24.6317 12.052H19.7333V12.452H24.6317V12.052ZM19.9333 12.252V11.2383H19.5333V12.252H19.9333ZM19.7333 11.4383H23.2372V11.0383H19.7333V11.4383ZM23.4372 11.2383V11.127H23.0372V11.2383H23.4372ZM23.4371 11.1208C23.4286 10.8436 23.3729 10.581 23.2692 10.3345L22.9005 10.4897C22.9842 10.6886 23.0302 10.9025 23.0373 11.1331L23.4371 11.1208ZM23.2703 10.3373C23.167 10.0812 23.0055 9.87098 22.7867 9.71145L22.551 10.0346C22.7072 10.1485 22.823 10.2977 22.8994 10.4869L23.2703 10.3373ZM22.7867 9.71145C22.5548 9.54241 22.2592 9.46797 21.9188 9.46797V9.86797C22.2035 9.86797 22.4078 9.93024 22.551 10.0346L22.7867 9.71145ZM21.9188 9.46797C21.6546 9.46797 21.4116 9.5255 21.1951 9.64531L21.3887 9.99532C21.5393 9.912 21.7143 9.86797 21.9188 9.86797V9.46797ZM21.1964 9.64459C20.9846 9.75966 20.8102 9.92655 20.6727 10.1395L21.0087 10.3566C21.1133 10.1945 21.2397 10.0763 21.3874 9.99604L21.1964 9.64459ZM20.6727 10.1395C20.5373 10.3491 20.436 10.597 20.3654 10.8792L20.7535 10.9762C20.8157 10.7273 20.9019 10.522 21.0087 10.3566L20.6727 10.1395ZM20.3649 10.8813C20.2981 11.1611 20.2657 11.472 20.2657 11.8125H20.6657C20.6657 11.4967 20.6958 11.2178 20.754 10.9742L20.3649 10.8813ZM20.2657 11.8125V12.0469H20.6657V11.8125H20.2657ZM20.2657 12.0469C20.2657 12.3422 20.3052 12.6202 20.3861 12.8798L20.768 12.7608C20.7004 12.5438 20.6657 12.3063 20.6657 12.0469H20.2657ZM20.3873 12.8836C20.4728 13.1402 20.5981 13.368 20.7641 13.5646L21.0697 13.3065C20.9388 13.1515 20.8375 12.9692 20.7668 12.7571L20.3873 12.8836ZM20.7641 13.5646C20.931 13.7623 21.1333 13.9182 21.3692 14.0318L21.5427 13.6714C21.3567 13.5818 21.1996 13.4604 21.0697 13.3065L20.7641 13.5646ZM21.3719 14.0331C21.6131 14.1447 21.8827 14.198 22.1766 14.198V13.798C21.9315 13.798 21.7207 13.7537 21.54 13.6701L21.3719 14.0331ZM22.1766 14.198C22.5439 14.198 22.8788 14.124 23.1764 13.9708L22.9933 13.6151C22.7597 13.7354 22.4891 13.798 22.1766 13.798V14.198ZM23.1764 13.9708C23.4693 13.82 23.7219 13.6074 23.9339 13.336L23.6186 13.0898C23.44 13.3184 23.2316 13.4925 22.9933 13.6151L23.1764 13.9708ZM23.6371 13.3566L24.3812 14.0773L24.6595 13.7899L23.9154 13.0692L23.6371 13.3566ZM24.3555 13.8204C24.2307 14.0023 24.0659 14.1806 23.8586 14.3546L24.1158 14.661C24.3459 14.4678 24.5367 14.2633 24.6853 14.0468L24.3555 13.8204ZM23.8602 14.3533C23.6622 14.5159 23.4158 14.652 23.117 14.759L23.2519 15.1356C23.586 15.0159 23.8747 14.8591 24.1141 14.6624L23.8602 14.3533ZM23.1163 14.7592C22.8303 14.8629 22.4909 14.9172 22.0946 14.9172V15.3172C22.5264 15.3172 22.9136 15.2582 23.2526 15.1353L23.1163 14.7592ZM27.2537 10.0137H27.454L27.4533 10.0016L27.2537 10.0137ZM27.2537 15V15.2H27.4537V15H27.2537ZM25.8416 15H25.6416V15.2H25.8416V15ZM25.8416 8.66016V8.46016H25.6416V8.66016H25.8416ZM27.1716 8.66016L27.3713 8.64806L27.3599 8.46016H27.1716V8.66016ZM27.0017 11.5957L26.9992 11.7957L27.2017 11.7983V11.5957H27.0017ZM26.5447 11.5898L26.3447 11.5881L26.343 11.7873L26.5421 11.7898L26.5447 11.5898ZM26.7322 10.3535L26.5424 10.2903L26.5419 10.2921L26.7322 10.3535ZM27.2478 9.38672L27.0936 9.25934L27.0925 9.26068L27.2478 9.38672ZM28.0447 8.76562L28.1295 8.94675L28.1314 8.94586L28.0447 8.76562ZM29.9021 8.67188L29.8362 8.86073L29.8398 8.86191L29.9021 8.67188ZM30.5408 9.07617L30.3949 9.21297L30.3964 9.21455L30.5408 9.07617ZM30.9509 9.80859L30.76 9.86811L30.7602 9.86882L30.9509 9.80859ZM31.0916 15V15.2H31.2916V15H31.0916ZM29.6736 15H29.4736V15.2H29.6736V15ZM29.5388 10.1777L29.3583 10.2641L29.3607 10.2688L29.5388 10.1777ZM29.158 9.79688L29.0719 9.97752L29.0771 9.97981L29.158 9.79688ZM27.406 10.248L27.2464 10.1275L27.2447 10.1298L27.406 10.248ZM27.0537 10.0137V15H27.4537V10.0137H27.0537ZM27.2537 14.8H25.8416V15.2H27.2537V14.8ZM26.0416 15V8.66016H25.6416V15H26.0416ZM25.8416 8.86016H27.1716V8.46016H25.8416V8.86016ZM26.972 8.67226L27.054 10.0258L27.4533 10.0016L27.3713 8.64806L26.972 8.67226ZM27.0043 11.3957L26.5473 11.3899L26.5421 11.7898L26.9992 11.7957L27.0043 11.3957ZM26.7447 11.5916C26.7484 11.1599 26.8085 10.7682 26.9225 10.415L26.5419 10.2921C26.4137 10.6888 26.3488 11.1214 26.3447 11.5881L26.7447 11.5916ZM26.9219 10.4168C27.0404 10.0615 27.2015 9.76119 27.4031 9.51275L27.0925 9.26068C26.8567 9.55131 26.674 9.89557 26.5425 10.2903L26.9219 10.4168ZM27.402 9.5141C27.6063 9.26678 27.8484 9.07839 28.1295 8.94674L27.9599 8.58451C27.6237 8.74193 27.3346 8.96759 27.0936 9.25934L27.402 9.5141ZM28.1314 8.94586C28.4102 8.81176 28.7238 8.74297 29.0759 8.74297V8.34297C28.6702 8.34297 28.2964 8.42261 27.958 8.58539L28.1314 8.94586ZM29.0759 8.74297C29.3619 8.74297 29.6145 8.78329 29.8362 8.86069L29.968 8.48306C29.6975 8.38859 29.3994 8.34297 29.0759 8.34297V8.74297ZM29.8398 8.86191C30.0587 8.93374 30.2426 9.05053 30.3949 9.21296L30.6867 8.93938C30.4874 8.72681 30.2456 8.57408 29.9645 8.48184L29.8398 8.86191ZM30.3964 9.21455C30.5506 9.37545 30.6735 9.59065 30.76 9.86811L31.1419 9.74908C31.0409 9.42497 30.8904 9.15189 30.6852 8.93779L30.3964 9.21455ZM30.7602 9.86882C30.8459 10.1402 30.8916 10.4838 30.8916 10.9043H31.2916C31.2916 10.4577 31.2434 10.0707 31.1417 9.74837L30.7602 9.86882ZM30.8916 10.9043V15H31.2916V10.9043H30.8916ZM31.0916 14.8H29.6736V15.2H31.0916V14.8ZM29.8736 15V10.8984H29.4736V15H29.8736ZM29.8736 10.8984C29.8736 10.5777 29.8269 10.3019 29.7169 10.0867L29.3607 10.2688C29.4305 10.4052 29.4736 10.6098 29.4736 10.8984H29.8736ZM29.7193 10.0914C29.6146 9.87262 29.4543 9.70914 29.2388 9.61394L29.0771 9.97981C29.1976 10.033 29.2912 10.1235 29.3584 10.264L29.7193 10.0914ZM29.244 9.6163C29.0453 9.52169 28.8086 9.47969 28.5427 9.47969V9.87969C28.7691 9.87969 28.9425 9.91581 29.072 9.97745L29.244 9.6163ZM28.5427 9.47969C28.2718 9.47969 28.0221 9.53675 27.7986 9.65536L27.9861 10.0087C28.1454 9.92419 28.3293 9.87969 28.5427 9.87969V9.47969ZM27.7986 9.65536C27.581 9.77083 27.3965 9.92882 27.2464 10.1275L27.5656 10.3686C27.6811 10.2157 27.8209 10.0964 27.9861 10.0087L27.7986 9.65536ZM27.2447 10.1298C27.1012 10.3255 26.9921 10.5493 26.9159 10.7991L27.2985 10.9158C27.3629 10.7046 27.453 10.5222 27.5673 10.3663L27.2447 10.1298ZM26.9159 10.7991C26.8393 11.05 26.8017 11.3159 26.8017 11.5957H27.2017C27.2017 11.3521 27.2344 11.1258 27.2985 10.9158L26.9159 10.7991ZM35.5592 8.66016H35.7592V8.46016H35.5592V8.66016ZM35.5592 9.69141V9.89141H35.7592V9.69141H35.5592ZM31.985 9.69141H31.785V9.89141H31.985V9.69141ZM31.985 8.66016V8.46016H31.785V8.66016H31.985ZM33.0163 7.10742V6.90742H32.8163V7.10742H33.0163ZM34.4284 7.10742H34.6284V6.90742H34.4284V7.10742ZM34.5104 13.6992L34.3327 13.7914L34.3372 13.7992L34.5104 13.6992ZM35.6061 13.9043L35.8061 13.9032L35.8048 13.6572L35.5642 13.7087L35.6061 13.9043ZM35.612 14.9824L35.6694 15.174L35.8128 15.131L35.812 14.9813L35.612 14.9824ZM35.2018 15.0762L35.1673 14.8792L35.1665 14.8793L35.2018 15.0762ZM33.8131 14.9473L33.7282 15.1284L33.7306 15.1294L33.8131 14.9473ZM35.3592 8.66016V9.69141H35.7592V8.66016H35.3592ZM35.5592 9.49141H31.985V9.89141H35.5592V9.49141ZM32.185 9.69141V8.66016H31.785V9.69141H32.185ZM31.985 8.86016H35.5592V8.46016H31.985V8.86016ZM33.0163 7.30742H34.4284V6.90742H33.0163V7.30742ZM34.2284 7.10742V13.248H34.6284V7.10742H34.2284ZM34.2284 13.248C34.2284 13.4571 34.2568 13.6447 34.3328 13.7913L34.6879 13.6072C34.6546 13.5428 34.6284 13.4296 34.6284 13.248H34.2284ZM34.3372 13.7992C34.4174 13.9383 34.5339 14.0409 34.6852 14.0933L34.816 13.7153C34.7642 13.6974 34.7205 13.6632 34.6836 13.5993L34.3372 13.7992ZM34.6852 14.0933C34.8126 14.1374 34.9548 14.157 35.108 14.157V13.757C34.9878 13.757 34.8917 13.7415 34.816 13.7153L34.6852 14.0933ZM35.108 14.157C35.2137 14.157 35.3161 14.1507 35.4152 14.1378L35.3634 13.7411C35.2828 13.7517 35.1977 13.757 35.108 13.757V14.157ZM35.4152 14.1378C35.5075 14.1257 35.5858 14.1132 35.648 14.0999L35.5642 13.7087C35.517 13.7188 35.4507 13.7297 35.3634 13.7411L35.4152 14.1378ZM35.4061 13.9054L35.412 14.9835L35.812 14.9813L35.8061 13.9032L35.4061 13.9054ZM35.5545 14.7909C35.4467 14.8232 35.3179 14.8528 35.1673 14.8792L35.2363 15.2732C35.3981 15.2448 35.5429 15.212 35.6694 15.174L35.5545 14.7909ZM35.1665 14.8793C35.0285 14.9041 34.865 14.9172 34.6745 14.9172V15.3172C34.8823 15.3172 35.0704 15.303 35.2371 15.273L35.1665 14.8793ZM34.6745 14.9172C34.3736 14.9172 34.1155 14.8647 33.8957 14.7651L33.7306 15.1294C34.0108 15.2564 34.3269 15.3172 34.6745 15.3172V14.9172ZM33.898 14.7662C33.69 14.6687 33.5253 14.5111 33.4034 14.2842L33.051 14.4736C33.2103 14.7701 33.4363 14.9915 33.7282 15.1284L33.898 14.7662ZM33.4034 14.2842C33.2839 14.0619 33.2163 13.7506 33.2163 13.3359H32.8163C32.8163 13.7885 32.8892 14.1724 33.051 14.4736L33.4034 14.2842ZM33.2163 13.3359V7.10742H32.8163V13.3359H33.2163ZM38.2925 14.8887L38.2156 15.0733L38.2179 15.0742L38.2925 14.8887ZM37.3316 14.2383L37.1861 14.3755L37.1871 14.3766L37.3316 14.2383ZM37.3374 9.43359L37.4858 9.56773L37.4867 9.56672L37.3374 9.43359ZM41.4273 9.41602L41.2713 9.54124L41.2733 9.54362L41.4273 9.41602ZM41.9312 10.3945L41.739 10.45L41.7396 10.4518L41.9312 10.3945ZM42.1011 12.252V12.452H42.3011V12.252H42.1011ZM37.2027 12.252H37.0027V12.452H37.2027V12.252ZM37.2027 11.2383V11.0383H37.0027V11.2383H37.2027ZM40.7066 11.2383V11.4383H40.9066V11.2383H40.7066ZM40.7066 11.127H40.9067L40.9065 11.1208L40.7066 11.127ZM40.5542 10.4121L40.3687 10.487L40.3699 10.4897L40.5542 10.4121ZM38.7612 9.82031L38.8568 9.99604L38.8581 9.99532L38.7612 9.82031ZM38.0288 10.9277L37.8348 10.8792L37.8343 10.8813L38.0288 10.9277ZM38.0464 12.8203L37.8554 12.8798L37.8567 12.8836L38.0464 12.8203ZM38.9253 13.8516L38.8385 14.0318L38.8413 14.0331L38.9253 13.8516ZM41.2456 13.2129L41.3848 13.0692L41.225 12.9145L41.088 13.0898L41.2456 13.2129ZM41.9898 13.9336L42.1547 14.0468L42.2503 13.9075L42.1289 13.7899L41.9898 13.9336ZM41.4566 14.5078L41.5835 14.6624L41.5851 14.661L41.4566 14.5078ZM40.6538 14.9473L40.5864 14.759L40.5857 14.7592L40.6538 14.9473ZM39.564 14.9172C39.1171 14.9172 38.7191 14.8446 38.3671 14.7031L38.2179 15.0742C38.6238 15.2374 39.0734 15.3172 39.564 15.3172V14.9172ZM38.3694 14.7041C38.0184 14.5578 37.7215 14.3562 37.476 14.0999L37.1871 14.3766C37.4729 14.675 37.8166 14.9071 38.2156 15.0733L38.3694 14.7041ZM37.477 14.101C37.2345 13.844 37.0471 13.5409 36.9153 13.1895L36.5408 13.33C36.6903 13.7286 36.9052 14.0779 37.1861 14.3755L37.477 14.101ZM36.9153 13.1895C36.7838 12.8388 36.7171 12.4585 36.7171 12.0469H36.3171C36.3171 12.5025 36.3911 12.9307 36.5408 13.33L36.9153 13.1895ZM36.7171 12.0469V11.8125H36.3171V12.0469H36.7171ZM36.7171 11.8125C36.7171 11.3358 36.7865 10.9099 36.9221 10.5325L36.5457 10.3972C36.3922 10.8244 36.3171 11.297 36.3171 11.8125H36.7171ZM36.9221 10.5325C37.0588 10.1519 37.2473 9.83146 37.4858 9.56772L37.1891 9.29946C36.9119 9.60604 36.698 9.97308 36.5457 10.3972L36.9221 10.5325ZM37.4867 9.56672C37.7254 9.29907 38.0064 9.09567 38.331 8.955L38.172 8.58797C37.7935 8.75198 37.4651 8.99 37.1882 9.30047L37.4867 9.56672ZM38.331 8.955C38.6557 8.81428 39.0093 8.74297 39.3941 8.74297V8.34297C38.9585 8.34297 38.5504 8.424 38.172 8.58797L38.331 8.955ZM39.3941 8.74297C39.825 8.74297 40.1925 8.8154 40.5017 8.95399L40.6653 8.58898C40.2948 8.42289 39.8694 8.34297 39.3941 8.34297V8.74297ZM40.5017 8.95399C40.814 9.094 41.0694 9.28975 41.2713 9.54122L41.5832 9.29081C41.3398 8.98759 41.0327 8.75365 40.6653 8.58898L40.5017 8.95399ZM41.2733 9.54362C41.4804 9.79366 41.6364 10.0946 41.739 10.45L42.1233 10.3391C42.0072 9.93668 41.8272 9.58525 41.5813 9.28841L41.2733 9.54362ZM41.7396 10.4518C41.8465 10.8095 41.9011 11.2079 41.9011 11.6484H42.3011C42.3011 11.175 42.2424 10.7374 42.1228 10.3372L41.7396 10.4518ZM41.9011 11.6484V12.252H42.3011V11.6484H41.9011ZM42.1011 12.052H37.2027V12.452H42.1011V12.052ZM37.4027 12.252V11.2383H37.0027V12.252H37.4027ZM37.2027 11.4383H40.7066V11.0383H37.2027V11.4383ZM40.9066 11.2383V11.127H40.5066V11.2383H40.9066ZM40.9065 11.1208C40.8979 10.8436 40.8423 10.581 40.7385 10.3345L40.3699 10.4897C40.4536 10.6886 40.4996 10.9025 40.5067 11.1331L40.9065 11.1208ZM40.7397 10.3373C40.6364 10.0812 40.4748 9.87098 40.256 9.71145L40.0204 10.0346C40.1766 10.1485 40.2924 10.2977 40.3687 10.4869L40.7397 10.3373ZM40.256 9.71145C40.0242 9.54241 39.7286 9.46797 39.3882 9.46797V9.86797C39.6728 9.86797 39.8772 9.93024 40.0204 10.0346L40.256 9.71145ZM39.3882 9.46797C39.124 9.46797 38.881 9.5255 38.6644 9.64531L38.8581 9.99532C39.0087 9.912 39.1837 9.86797 39.3882 9.86797V9.46797ZM38.6657 9.64459C38.454 9.75966 38.2796 9.92655 38.1421 10.1395L38.4781 10.3566C38.5827 10.1945 38.7091 10.0763 38.8568 9.99604L38.6657 9.64459ZM38.1421 10.1395C38.0067 10.3491 37.9054 10.597 37.8348 10.8792L38.2229 10.9762C38.2851 10.7273 38.3712 10.522 38.4781 10.3566L38.1421 10.1395ZM37.8343 10.8813C37.7675 11.1611 37.7351 11.472 37.7351 11.8125H38.1351C38.1351 11.4967 38.1652 11.2178 38.2234 10.9742L37.8343 10.8813ZM37.7351 11.8125V12.0469H38.1351V11.8125H37.7351ZM37.7351 12.0469C37.7351 12.3422 37.7746 12.6202 37.8555 12.8798L38.2374 12.7608C38.1698 12.5438 38.1351 12.3063 38.1351 12.0469H37.7351ZM37.8567 12.8836C37.9422 13.1402 38.0675 13.368 38.2334 13.5646L38.5391 13.3065C38.4082 13.1515 38.3068 12.9692 38.2361 12.7571L37.8567 12.8836ZM38.2334 13.5646C38.4004 13.7623 38.6027 13.9182 38.8385 14.0318L39.0121 13.6714C38.826 13.5818 38.669 13.4604 38.5391 13.3065L38.2334 13.5646ZM38.8413 14.0331C39.0824 14.1447 39.3521 14.198 39.646 14.198V13.798C39.4009 13.798 39.1901 13.7537 39.0093 13.6701L38.8413 14.0331ZM39.646 14.198C40.0133 14.198 40.3481 14.124 40.6457 13.9708L40.4627 13.6151C40.2291 13.7354 39.9584 13.798 39.646 13.798V14.198ZM40.6457 13.9708C40.9387 13.82 41.1912 13.6074 41.4032 13.336L41.088 13.0898C40.9094 13.3184 40.701 13.4925 40.4627 13.6151L40.6457 13.9708ZM41.1065 13.3566L41.8506 14.0773L42.1289 13.7899L41.3848 13.0692L41.1065 13.3566ZM41.8249 13.8204C41.7 14.0023 41.5353 14.1806 41.328 14.3546L41.5851 14.661C41.8153 14.4678 42.006 14.2633 42.1547 14.0468L41.8249 13.8204ZM41.3296 14.3533C41.1316 14.5159 40.8851 14.652 40.5864 14.759L40.7212 15.1356C41.0553 15.0159 41.344 14.8591 41.5835 14.6624L41.3296 14.3533ZM40.5857 14.7592C40.2996 14.8629 39.9603 14.9172 39.564 14.9172V15.3172C39.9958 15.3172 40.383 15.2582 40.722 15.1353L40.5857 14.7592ZM44.8461 14.8887L44.7692 15.0733L44.7715 15.0742L44.8461 14.8887ZM43.8852 14.2383L43.7397 14.3755L43.7407 14.3766L43.8852 14.2383ZM43.891 9.43359L44.0394 9.56773L44.0403 9.56672L43.891 9.43359ZM47.9809 9.41602L47.8249 9.54124L47.8269 9.54362L47.9809 9.41602ZM48.4848 10.3945L48.2926 10.45L48.2931 10.4518L48.4848 10.3945ZM48.6547 12.252V12.452H48.8547V12.252H48.6547ZM43.7562 12.252H43.5562V12.452H43.7562V12.252ZM43.7562 11.2383V11.0383H43.5562V11.2383H43.7562ZM47.2602 11.2383V11.4383H47.4602V11.2383H47.2602ZM47.2602 11.127H47.4602L47.4601 11.1208L47.2602 11.127ZM47.1078 10.4121L46.9223 10.487L46.9235 10.4897L47.1078 10.4121ZM45.3148 9.82031L45.4103 9.99604L45.4117 9.99532L45.3148 9.82031ZM44.5824 10.9277L44.3884 10.8792L44.3879 10.8813L44.5824 10.9277ZM44.6 12.8203L44.409 12.8798L44.4103 12.8836L44.6 12.8203ZM45.4789 13.8516L45.3921 14.0318L45.3949 14.0331L45.4789 13.8516ZM47.7992 13.2129L47.9384 13.0692L47.7786 12.9145L47.6416 13.0898L47.7992 13.2129ZM48.5434 13.9336L48.7083 14.0468L48.8039 13.9075L48.6825 13.7899L48.5434 13.9336ZM48.0102 14.5078L48.1371 14.6624L48.1387 14.661L48.0102 14.5078ZM47.2074 14.9473L47.14 14.759L47.1393 14.7592L47.2074 14.9473ZM46.1176 14.9172C45.6706 14.9172 45.2726 14.8446 44.9207 14.7031L44.7715 15.0742C45.1773 15.2374 45.627 15.3172 46.1176 15.3172V14.9172ZM44.923 14.7041C44.572 14.5578 44.2751 14.3562 44.0296 14.0999L43.7407 14.3766C44.0265 14.675 44.3702 14.9071 44.7692 15.0733L44.923 14.7041ZM44.0306 14.101C43.7881 13.844 43.6007 13.5409 43.4689 13.1895L43.0944 13.33C43.2439 13.7286 43.4588 14.0779 43.7397 14.3755L44.0306 14.101ZM43.4689 13.1895C43.3374 12.8388 43.2707 12.4585 43.2707 12.0469H42.8707C42.8707 12.5025 42.9447 12.9307 43.0944 13.33L43.4689 13.1895ZM43.2707 12.0469V11.8125H42.8707V12.0469H43.2707ZM43.2707 11.8125C43.2707 11.3358 43.3401 10.9099 43.4757 10.5325L43.0993 10.3972C42.9458 10.8244 42.8707 11.297 42.8707 11.8125H43.2707ZM43.4757 10.5325C43.6124 10.1519 43.8009 9.83146 44.0394 9.56772L43.7427 9.29946C43.4655 9.60604 43.2516 9.97308 43.0993 10.3972L43.4757 10.5325ZM44.0403 9.56672C44.279 9.29907 44.56 9.09567 44.8846 8.955L44.7256 8.58797C44.3471 8.75198 44.0187 8.99 43.7418 9.30047L44.0403 9.56672ZM44.8846 8.955C45.2093 8.81428 45.5629 8.74297 45.9477 8.74297V8.34297C45.5121 8.34297 45.104 8.424 44.7256 8.58797L44.8846 8.955ZM45.9477 8.74297C46.3786 8.74297 46.7461 8.8154 47.0553 8.95399L47.2189 8.58898C46.8484 8.42289 46.423 8.34297 45.9477 8.34297V8.74297ZM47.0553 8.95399C47.3676 9.094 47.623 9.28975 47.8249 9.54122L48.1368 9.29081C47.8934 8.98759 47.5863 8.75365 47.2189 8.58898L47.0553 8.95399ZM47.8269 9.54362C48.034 9.79366 48.19 10.0946 48.2926 10.45L48.6769 10.3391C48.5608 9.93668 48.3808 9.58525 48.1349 9.28841L47.8269 9.54362ZM48.2931 10.4518C48.4001 10.8095 48.4547 11.2079 48.4547 11.6484H48.8547C48.8547 11.175 48.796 10.7374 48.6764 10.3372L48.2931 10.4518ZM48.4547 11.6484V12.252H48.8547V11.6484H48.4547ZM48.6547 12.052H43.7562V12.452H48.6547V12.052ZM43.9562 12.252V11.2383H43.5562V12.252H43.9562ZM43.7562 11.4383H47.2602V11.0383H43.7562V11.4383ZM47.4602 11.2383V11.127H47.0602V11.2383H47.4602ZM47.4601 11.1208C47.4515 10.8436 47.3959 10.581 47.2921 10.3345L46.9235 10.4897C47.0072 10.6886 47.0532 10.9025 47.0602 11.1331L47.4601 11.1208ZM47.2933 10.3373C47.19 10.0812 47.0284 9.87098 46.8096 9.71145L46.574 10.0346C46.7302 10.1485 46.846 10.2977 46.9223 10.4869L47.2933 10.3373ZM46.8096 9.71145C46.5778 9.54241 46.2822 9.46797 45.9418 9.46797V9.86797C46.2264 9.86797 46.4308 9.93024 46.574 10.0346L46.8096 9.71145ZM45.9418 9.46797C45.6776 9.46797 45.4346 9.5255 45.218 9.64531L45.4117 9.99532C45.5623 9.912 45.7372 9.86797 45.9418 9.86797V9.46797ZM45.2193 9.64459C45.0076 9.75966 44.8332 9.92655 44.6957 10.1395L45.0317 10.3566C45.1363 10.1945 45.2627 10.0763 45.4103 9.99604L45.2193 9.64459ZM44.6957 10.1395C44.5603 10.3491 44.459 10.597 44.3884 10.8792L44.7764 10.9762C44.8387 10.7273 44.9248 10.522 45.0317 10.3566L44.6957 10.1395ZM44.3879 10.8813C44.3211 11.1611 44.2887 11.472 44.2887 11.8125H44.6887C44.6887 11.4967 44.7188 11.2178 44.777 10.9742L44.3879 10.8813ZM44.2887 11.8125V12.0469H44.6887V11.8125H44.2887ZM44.2887 12.0469C44.2887 12.3422 44.3282 12.6202 44.409 12.8798L44.791 12.7608C44.7234 12.5438 44.6887 12.3063 44.6887 12.0469H44.2887ZM44.4103 12.8836C44.4958 13.1402 44.621 13.368 44.787 13.5646L45.0926 13.3065C44.9618 13.1515 44.8604 12.9692 44.7897 12.7571L44.4103 12.8836ZM44.787 13.5646C44.954 13.7623 45.1563 13.9182 45.3921 14.0318L45.5657 13.6714C45.3796 13.5818 45.2226 13.4604 45.0926 13.3065L44.787 13.5646ZM45.3949 14.0331C45.636 14.1447 45.9057 14.198 46.1996 14.198V13.798C45.9545 13.798 45.7437 13.7537 45.5629 13.6701L45.3949 14.0331ZM46.1996 14.198C46.5669 14.198 46.9017 14.124 47.1993 13.9708L47.0163 13.6151C46.7826 13.7354 46.512 13.798 46.1996 13.798V14.198ZM47.1993 13.9708C47.4923 13.82 47.7448 13.6074 47.9568 13.336L47.6416 13.0898C47.463 13.3184 47.2546 13.4925 47.0163 13.6151L47.1993 13.9708ZM47.6601 13.3566L48.4042 14.0773L48.6825 13.7899L47.9384 13.0692L47.6601 13.3566ZM48.3785 13.8204C48.2536 14.0023 48.0889 14.1806 47.8816 14.3546L48.1387 14.661C48.3689 14.4678 48.5596 14.2633 48.7083 14.0468L48.3785 13.8204ZM47.8832 14.3533C47.6852 14.5159 47.4387 14.652 47.14 14.759L47.2748 15.1356C47.6089 15.0159 47.8976 14.8591 48.1371 14.6624L47.8832 14.3533ZM47.1393 14.7592C46.8532 14.8629 46.5139 14.9172 46.1176 14.9172V15.3172C46.5494 15.3172 46.9366 15.2582 47.2756 15.1353L47.1393 14.7592ZM53.3274 12.9023L53.1559 13.0053L53.1575 13.0078L53.3274 12.9023ZM52.9231 12.5859L52.8366 12.7662L52.838 12.7669L52.9231 12.5859ZM52.0559 12.3281L52.0128 12.5234L52.0159 12.5241L52.0559 12.3281ZM51.1302 12.0645L51.0591 12.2514L51.0622 12.2526L51.1302 12.0645ZM51.2122 8.69531L51.1489 8.50557L51.1482 8.50582L51.2122 8.69531ZM53.597 8.8125L53.5113 8.99322L53.5135 8.99425L53.597 8.8125ZM54.4759 9.5332L54.3094 9.64415L54.3101 9.64513L54.4759 9.5332ZM54.7805 10.5527V10.7527H54.9805V10.5527H54.7805ZM53.3684 10.5527H53.1684V10.7527H53.3684V10.5527ZM53.2395 10.084L53.0644 10.1808L53.0676 10.1862L53.2395 10.084ZM52.8645 9.72656L52.767 9.90123L52.7702 9.90292L52.8645 9.72656ZM51.6282 9.70312L51.714 9.88379L51.7159 9.88288L51.6282 9.70312ZM51.2766 9.99609L51.1085 9.88764L51.1061 9.89158L51.2766 9.99609ZM51.2239 10.6816L51.0415 10.7645L51.0467 10.7744L51.2239 10.6816ZM51.4348 10.9102L51.3179 11.0725L51.3224 11.0755L51.4348 10.9102ZM51.8333 11.0977L51.7674 11.2865L51.7687 11.287L51.8333 11.0977ZM52.4778 11.2676L52.4363 11.4632L52.4368 11.4633L52.4778 11.2676ZM53.7259 11.6602L53.6422 11.8418L53.6446 11.8429L53.7259 11.6602ZM54.5345 12.2695L54.3744 12.3895L54.3754 12.3907L54.5345 12.2695ZM54.6341 13.9805L54.4564 13.8887L54.4558 13.8898L54.6341 13.9805ZM54.1184 14.584L54.2376 14.7447L54.2393 14.7433L54.1184 14.584ZM53.304 14.9766L53.2472 14.7848L53.2465 14.785L53.304 14.9766ZM50.7903 14.8125L50.6981 14.99L50.6995 14.9907L50.7903 14.8125ZM49.8821 14.0215L49.7126 14.1277L49.7141 14.13L49.8821 14.0215ZM49.5774 13.0137V12.8137H49.3774V13.0137H49.5774ZM50.9427 13.0137L51.1423 13.0018L51.1311 12.8137H50.9427V13.0137ZM51.1595 13.6406L51.0051 13.7679L51.0087 13.7721L51.1595 13.6406ZM51.6516 13.9746L51.5839 14.1628L51.5884 14.1643L51.6516 13.9746ZM52.9055 13.9746L52.9776 14.1612L52.9813 14.1597L52.9055 13.9746ZM53.2981 13.6934L53.4569 13.8151L53.4587 13.8125L53.2981 13.6934ZM53.6329 13.2832C53.6329 13.1074 53.5884 12.9436 53.4974 12.7969L53.1575 13.0078C53.2071 13.0877 53.2329 13.1777 53.2329 13.2832H53.6329ZM53.4989 12.7994C53.3992 12.6333 53.2234 12.5062 53.0083 12.405L52.838 12.7669C53.0213 12.8532 53.115 12.937 53.1559 13.0052L53.4989 12.7994ZM53.0097 12.4056C52.7922 12.3012 52.4842 12.2114 52.0959 12.1322L52.0159 12.5241C52.3933 12.6011 52.6634 12.6831 52.8366 12.7662L53.0097 12.4056ZM52.0991 12.1328C51.7703 12.0602 51.4701 11.9746 51.1981 11.8763L51.0622 12.2526C51.3527 12.3574 51.6697 12.4476 52.0128 12.5234L52.0991 12.1328ZM51.2012 11.8775C50.9379 11.7774 50.7167 11.6587 50.5348 11.5232L50.2958 11.844C50.5124 12.0054 50.7677 12.1406 51.0591 12.2514L51.2012 11.8775ZM50.5348 11.5232C50.3572 11.3909 50.223 11.2369 50.1285 11.0614L49.7763 11.2511C49.9006 11.4819 50.075 11.6794 50.2958 11.844L50.5348 11.5232ZM50.1285 11.0614C50.0371 10.8916 49.9884 10.6907 49.9884 10.4531H49.5884C49.5884 10.7468 49.649 11.0147 49.7763 11.2511L50.1285 11.0614ZM49.9884 10.4531C49.9884 10.2258 50.038 10.0118 50.1378 9.80893L49.7788 9.63248C49.652 9.89051 49.5884 10.1648 49.5884 10.4531H49.9884ZM50.1378 9.80893C50.2378 9.60534 50.3817 9.42406 50.5726 9.26497L50.3166 8.95768C50.0856 9.15016 49.9053 9.37512 49.7788 9.63248L50.1378 9.80893ZM50.5726 9.26497C50.7619 9.10725 50.9952 8.97969 51.2762 8.8848L51.1482 8.50582C50.8276 8.61406 50.5492 8.76384 50.3166 8.95768L50.5726 9.26497ZM51.2754 8.88505C51.5566 8.79131 51.8747 8.74297 52.2317 8.74297V8.34297C51.8387 8.34297 51.4771 8.39619 51.1489 8.50558L51.2754 8.88505ZM52.2317 8.74297C52.741 8.74297 53.1653 8.82914 53.5113 8.99321L53.6827 8.63179C53.2708 8.43648 52.7849 8.34297 52.2317 8.34297V8.74297ZM53.5135 8.99425C53.8678 9.15694 54.1298 9.3747 54.3095 9.64414L54.6423 9.42226C54.4157 9.08233 54.0917 8.81962 53.6804 8.63075L53.5135 8.99425ZM54.3101 9.64513C54.4899 9.91135 54.5805 10.2119 54.5805 10.5527H54.9805C54.9805 10.1358 54.8681 9.75662 54.6416 9.42127L54.3101 9.64513ZM54.7805 10.3527H53.3684V10.7527H54.7805V10.3527ZM53.5684 10.5527C53.5684 10.3487 53.5157 10.1572 53.4114 9.98177L53.0676 10.1862C53.1352 10.2998 53.1684 10.4208 53.1684 10.5527H53.5684ZM53.4146 9.98725C53.3116 9.80099 53.1565 9.65593 52.9589 9.55021L52.7702 9.90292C52.9085 9.97688 53.0034 10.0701 53.0645 10.1807L53.4146 9.98725ZM52.962 9.55192C52.7562 9.43706 52.5092 9.38594 52.2317 9.38594V9.78594C52.4621 9.78594 52.6369 9.82857 52.7671 9.9012L52.962 9.55192ZM52.2317 9.38594C51.9695 9.38594 51.736 9.42803 51.5405 9.52337L51.7159 9.88288C51.8408 9.82197 52.0096 9.78594 52.2317 9.78594V9.38594ZM51.5424 9.52247C51.3593 9.60943 51.2106 9.72956 51.1086 9.88767L51.4447 10.1045C51.4989 10.0204 51.5846 9.94526 51.714 9.88378L51.5424 9.52247ZM51.1061 9.89158C51.0123 10.0447 50.9653 10.2138 50.9653 10.3945H51.3653C51.3653 10.2862 51.3926 10.1897 51.4472 10.1006L51.1061 9.89158ZM50.9653 10.3945C50.9653 10.5252 50.9896 10.6496 51.0418 10.7644L51.406 10.5989C51.38 10.5418 51.3653 10.4748 51.3653 10.3945H50.9653ZM51.0467 10.7744C51.1078 10.891 51.2024 10.9892 51.318 11.0725L51.5517 10.7478C51.472 10.6905 51.426 10.6363 51.4011 10.5888L51.0467 10.7744ZM51.3224 11.0755C51.4398 11.1554 51.5904 11.2247 51.7674 11.2865L51.8992 10.9088C51.7402 10.8534 51.6252 10.7977 51.5473 10.7448L51.3224 11.0755ZM51.7687 11.287C51.9507 11.349 52.1738 11.4076 52.4363 11.4632L52.5193 11.0719C52.2662 11.0182 52.0596 10.9635 51.8978 10.9084L51.7687 11.287ZM52.4368 11.4633C52.9105 11.5626 53.3115 11.6895 53.6422 11.8418L53.8095 11.4785C53.445 11.3105 53.0139 11.1756 52.5189 11.0718L52.4368 11.4633ZM53.6446 11.8429C53.9721 11.9885 54.2117 12.1725 54.3745 12.3895L54.6945 12.1495C54.4823 11.8666 54.1827 11.6443 53.8071 11.4774L53.6446 11.8429ZM54.3754 12.3907C54.5308 12.5948 54.6157 12.8618 54.6157 13.207H55.0157C55.0157 12.7944 54.9131 12.4365 54.6935 12.1483L54.3754 12.3907ZM54.6157 13.207C54.6157 13.4585 54.5618 13.6845 54.4564 13.8887L54.8117 14.0723C54.9485 13.8077 55.0157 13.5181 55.0157 13.207H54.6157ZM54.4558 13.8898C54.3536 14.0907 54.2025 14.2692 53.9976 14.4246L54.2393 14.7433C54.4875 14.555 54.6801 14.3311 54.8123 14.0711L54.4558 13.8898ZM53.9993 14.4233C53.7944 14.5752 53.5449 14.6966 53.2472 14.7848L53.3608 15.1683C53.6959 15.069 53.9893 14.9287 54.2376 14.7446L53.9993 14.4233ZM53.2465 14.785C52.9559 14.8722 52.6242 14.9172 52.2493 14.9172V15.3172C52.6557 15.3172 53.0271 15.2684 53.3615 15.1681L53.2465 14.785ZM52.2493 14.9172C51.698 14.9172 51.2446 14.8196 50.8812 14.6343L50.6995 14.9907C51.1329 15.2116 51.6522 15.3172 52.2493 15.3172V14.9172ZM50.8825 14.635C50.5094 14.4411 50.2352 14.1993 50.0501 13.9129L49.7141 14.13C49.9431 14.4843 50.2743 14.7698 50.6981 14.99L50.8825 14.635ZM50.0516 13.9153C49.8663 13.6196 49.7774 13.32 49.7774 13.0137H49.3774C49.3774 13.4026 49.4916 13.7749 49.7126 14.1277L50.0516 13.9153ZM49.5774 13.2137H50.9427V12.8137H49.5774V13.2137ZM50.743 13.0256C50.7604 13.3171 50.8423 13.5705 51.0052 13.7679L51.3137 13.5133C51.2188 13.3982 51.1561 13.2336 51.1423 13.0018L50.743 13.0256ZM51.0087 13.7721C51.1645 13.9508 51.3574 14.0813 51.5839 14.1628L51.7194 13.7864C51.5552 13.7273 51.42 13.6351 51.3102 13.5092L51.0087 13.7721ZM51.5884 14.1643C51.8081 14.2376 52.0345 14.2742 52.2669 14.2742V13.8742C52.0773 13.8742 51.8936 13.8445 51.7149 13.7849L51.5884 14.1643ZM52.2669 14.2742C52.5368 14.2742 52.7759 14.2391 52.9776 14.1612L52.8335 13.788C52.6915 13.8429 52.5048 13.8742 52.2669 13.8742V14.2742ZM52.9813 14.1597C53.1776 14.0794 53.3406 13.9667 53.4568 13.815L53.1394 13.5717C53.076 13.6544 52.9772 13.7292 52.8298 13.7895L52.9813 14.1597ZM53.4587 13.8125C53.5744 13.6566 53.6329 13.478 53.6329 13.2832H53.2329C53.2329 13.3931 53.2015 13.4879 53.1375 13.5742L53.4587 13.8125Z" fill="#010101" fill-opacity="0.098" mask="url(#path-2-inside-1_2_77)"/>
<path d="M10.1387 8.94922V14H8.72656V7.66016H10.0566L10.1387 8.94922ZM9.91016 10.5957L9.42969 10.5898C9.42969 10.1523 9.48438 9.74805 9.59375 9.37695C9.70312 9.00586 9.86328 8.68359 10.0742 8.41016C10.2852 8.13281 10.5469 7.91992 10.8594 7.77148C11.1758 7.61914 11.541 7.54297 11.9551 7.54297C12.2441 7.54297 12.5078 7.58594 12.7461 7.67188C12.9883 7.75391 13.1973 7.88477 13.373 8.06445C13.5527 8.24414 13.6895 8.47461 13.7832 8.75586C13.8809 9.03711 13.9297 9.37695 13.9297 9.77539V14H12.5176V9.89844C12.5176 9.58984 12.4707 9.34766 12.377 9.17188C12.2871 8.99609 12.1562 8.87109 11.9844 8.79688C11.8164 8.71875 11.6152 8.67969 11.3809 8.67969C11.1152 8.67969 10.8887 8.73047 10.7012 8.83203C10.5176 8.93359 10.3672 9.07227 10.25 9.24805C10.1328 9.42383 10.0469 9.62695 9.99219 9.85742C9.9375 10.0879 9.91016 10.334 9.91016 10.5957ZM13.8418 10.2207L13.1797 10.3672C13.1797 9.98438 13.2324 9.62305 13.3379 9.2832C13.4473 8.93945 13.6055 8.63867 13.8125 8.38086C14.0234 8.11914 14.2832 7.91406 14.5918 7.76562C14.9004 7.61719 15.2539 7.54297 15.6523 7.54297C15.9766 7.54297 16.2656 7.58789 16.5195 7.67773C16.7773 7.76367 16.9961 7.90039 17.1758 8.08789C17.3555 8.27539 17.4922 8.51953 17.5859 8.82031C17.6797 9.11719 17.7266 9.47656 17.7266 9.89844V14H16.3086V9.89258C16.3086 9.57227 16.2617 9.32422 16.168 9.14844C16.0781 8.97266 15.9492 8.85156 15.7812 8.78516C15.6133 8.71484 15.4121 8.67969 15.1777 8.67969C14.959 8.67969 14.7656 8.7207 14.5977 8.80273C14.4336 8.88086 14.2949 8.99219 14.1816 9.13672C14.0684 9.27734 13.9824 9.43945 13.9238 9.62305C13.8691 9.80664 13.8418 10.0059 13.8418 10.2207ZM22.0946 14.1172C21.6259 14.1172 21.202 14.041 20.8231 13.8887C20.4481 13.7324 20.1278 13.5156 19.8622 13.2383C19.6005 12.9609 19.3993 12.6348 19.2587 12.2598C19.118 11.8848 19.0477 11.4805 19.0477 11.0469V10.8125C19.0477 10.3164 19.12 9.86719 19.2645 9.46484C19.4091 9.0625 19.6102 8.71875 19.868 8.43359C20.1259 8.14453 20.4305 7.92383 20.7821 7.77148C21.1337 7.61914 21.5145 7.54297 21.9247 7.54297C22.3778 7.54297 22.7743 7.61914 23.1141 7.77148C23.454 7.92383 23.7352 8.13867 23.9579 8.41602C24.1845 8.68945 24.3524 9.01562 24.4618 9.39453C24.5751 9.77344 24.6317 10.1914 24.6317 10.6484V11.252H19.7333V10.2383H23.2372V10.127C23.2294 9.87305 23.1786 9.63477 23.0848 9.41211C22.995 9.18945 22.8563 9.00977 22.6688 8.87305C22.4813 8.73633 22.2313 8.66797 21.9188 8.66797C21.6845 8.66797 21.4755 8.71875 21.2919 8.82031C21.1122 8.91797 20.9618 9.06055 20.8407 9.24805C20.7196 9.43555 20.6259 9.66211 20.5595 9.92773C20.497 10.1895 20.4657 10.4844 20.4657 10.8125V11.0469C20.4657 11.3242 20.5028 11.582 20.577 11.8203C20.6552 12.0547 20.7684 12.2598 20.9169 12.4355C21.0653 12.6113 21.245 12.75 21.4559 12.8516C21.6669 12.9492 21.9071 12.998 22.1766 12.998C22.5165 12.998 22.8192 12.9297 23.0848 12.793C23.3505 12.6562 23.5809 12.4629 23.7762 12.2129L24.5204 12.9336C24.3837 13.1328 24.2059 13.3242 23.9872 13.5078C23.7684 13.6875 23.5009 13.834 23.1845 13.9473C22.872 14.0605 22.5087 14.1172 22.0946 14.1172ZM27.2537 9.01367V14H25.8416V7.66016H27.1716L27.2537 9.01367ZM27.0017 10.5957L26.5447 10.5898C26.5486 10.1406 26.6111 9.72852 26.7322 9.35352C26.8572 8.97852 27.0291 8.65625 27.2478 8.38672C27.4705 8.11719 27.7361 7.91016 28.0447 7.76562C28.3533 7.61719 28.697 7.54297 29.0759 7.54297C29.3806 7.54297 29.656 7.58594 29.9021 7.67188C30.1521 7.75391 30.365 7.88867 30.5408 8.07617C30.7205 8.26367 30.8572 8.50781 30.9509 8.80859C31.0447 9.10547 31.0916 9.4707 31.0916 9.9043V14H29.6736V9.89844C29.6736 9.59375 29.6287 9.35352 29.5388 9.17773C29.4529 8.99805 29.3259 8.87109 29.158 8.79688C28.9939 8.71875 28.7888 8.67969 28.5427 8.67969C28.3005 8.67969 28.0837 8.73047 27.8923 8.83203C27.7009 8.93359 27.5388 9.07227 27.406 9.24805C27.2771 9.42383 27.1775 9.62695 27.1072 9.85742C27.0369 10.0879 27.0017 10.334 27.0017 10.5957ZM35.5592 7.66016V8.69141H31.985V7.66016H35.5592ZM33.0163 6.10742H34.4284V12.248C34.4284 12.4434 34.4557 12.5938 34.5104 12.6992C34.569 12.8008 34.6491 12.8691 34.7506 12.9043C34.8522 12.9395 34.9713 12.957 35.108 12.957C35.2057 12.957 35.2995 12.9512 35.3893 12.9395C35.4791 12.9277 35.5514 12.916 35.6061 12.9043L35.612 13.9824C35.4948 14.0176 35.358 14.0488 35.2018 14.0762C35.0495 14.1035 34.8737 14.1172 34.6745 14.1172C34.3502 14.1172 34.0631 14.0605 33.8131 13.9473C33.5631 13.8301 33.3678 13.6406 33.2272 13.3789C33.0866 13.1172 33.0163 12.7695 33.0163 12.3359V6.10742ZM39.564 14.1172C39.0952 14.1172 38.6714 14.041 38.2925 13.8887C37.9175 13.7324 37.5972 13.5156 37.3316 13.2383C37.0698 12.9609 36.8687 12.6348 36.728 12.2598C36.5874 11.8848 36.5171 11.4805 36.5171 11.0469V10.8125C36.5171 10.3164 36.5894 9.86719 36.7339 9.46484C36.8784 9.0625 37.0796 8.71875 37.3374 8.43359C37.5952 8.14453 37.8999 7.92383 38.2515 7.77148C38.603 7.61914 38.9839 7.54297 39.3941 7.54297C39.8472 7.54297 40.2437 7.61914 40.5835 7.77148C40.9234 7.92383 41.2046 8.13867 41.4273 8.41602C41.6538 8.68945 41.8218 9.01562 41.9312 9.39453C42.0445 9.77344 42.1011 10.1914 42.1011 10.6484V11.252H37.2027V10.2383H40.7066V10.127C40.6987 9.87305 40.648 9.63477 40.5542 9.41211C40.4644 9.18945 40.3257 9.00977 40.1382 8.87305C39.9507 8.73633 39.7007 8.66797 39.3882 8.66797C39.1538 8.66797 38.9448 8.71875 38.7612 8.82031C38.5816 8.91797 38.4312 9.06055 38.3101 9.24805C38.189 9.43555 38.0952 9.66211 38.0288 9.92773C37.9663 10.1895 37.9351 10.4844 37.9351 10.8125V11.0469C37.9351 11.3242 37.9722 11.582 38.0464 11.8203C38.1245 12.0547 38.2378 12.2598 38.3862 12.4355C38.5347 12.6113 38.7144 12.75 38.9253 12.8516C39.1362 12.9492 39.3765 12.998 39.646 12.998C39.9859 12.998 40.2886 12.9297 40.5542 12.793C40.8198 12.6562 41.0503 12.4629 41.2456 12.2129L41.9898 12.9336C41.853 13.1328 41.6753 13.3242 41.4566 13.5078C41.2378 13.6875 40.9702 13.834 40.6538 13.9473C40.3413 14.0605 39.978 14.1172 39.564 14.1172ZM46.1176 14.1172C45.6488 14.1172 45.225 14.041 44.8461 13.8887C44.4711 13.7324 44.1508 13.5156 43.8852 13.2383C43.6234 12.9609 43.4223 12.6348 43.2816 12.2598C43.141 11.8848 43.0707 11.4805 43.0707 11.0469V10.8125C43.0707 10.3164 43.143 9.86719 43.2875 9.46484C43.432 9.0625 43.6332 8.71875 43.891 8.43359C44.1488 8.14453 44.4535 7.92383 44.8051 7.77148C45.1566 7.61914 45.5375 7.54297 45.9477 7.54297C46.4008 7.54297 46.7973 7.61914 47.1371 7.77148C47.477 7.92383 47.7582 8.13867 47.9809 8.41602C48.2074 8.68945 48.3754 9.01562 48.4848 9.39453C48.598 9.77344 48.6547 10.1914 48.6547 10.6484V11.252H43.7562V10.2383H47.2602V10.127C47.2523 9.87305 47.2016 9.63477 47.1078 9.41211C47.018 9.18945 46.8793 9.00977 46.6918 8.87305C46.5043 8.73633 46.2543 8.66797 45.9418 8.66797C45.7074 8.66797 45.4984 8.71875 45.3148 8.82031C45.1352 8.91797 44.9848 9.06055 44.8637 9.24805C44.7426 9.43555 44.6488 9.66211 44.5824 9.92773C44.5199 10.1895 44.4887 10.4844 44.4887 10.8125V11.0469C44.4887 11.3242 44.5258 11.582 44.6 11.8203C44.6781 12.0547 44.7914 12.2598 44.9398 12.4355C45.0883 12.6113 45.268 12.75 45.4789 12.8516C45.6898 12.9492 45.9301 12.998 46.1996 12.998C46.5395 12.998 46.8422 12.9297 47.1078 12.793C47.3734 12.6562 47.6039 12.4629 47.7992 12.2129L48.5434 12.9336C48.4066 13.1328 48.2289 13.3242 48.0102 13.5078C47.7914 13.6875 47.5238 13.834 47.2074 13.9473C46.8949 14.0605 46.5316 14.1172 46.1176 14.1172ZM53.4329 12.2832C53.4329 12.1426 53.3977 12.0156 53.3274 11.9023C53.2571 11.7852 53.1223 11.6797 52.9231 11.5859C52.7278 11.4922 52.4388 11.4062 52.0559 11.3281C51.72 11.2539 51.4114 11.166 51.1302 11.0645C50.8528 10.959 50.6145 10.832 50.4153 10.6836C50.2161 10.5352 50.0618 10.3594 49.9524 10.1562C49.843 9.95312 49.7884 9.71875 49.7884 9.45312C49.7884 9.19531 49.845 8.95117 49.9583 8.7207C50.0716 8.49023 50.2337 8.28711 50.4446 8.11133C50.6555 7.93555 50.9114 7.79688 51.2122 7.69531C51.5169 7.59375 51.8567 7.54297 52.2317 7.54297C52.763 7.54297 53.218 7.63281 53.597 7.8125C53.9798 7.98828 54.2727 8.22852 54.4759 8.5332C54.679 8.83398 54.7805 9.17383 54.7805 9.55273H53.3684C53.3684 9.38477 53.3255 9.22852 53.2395 9.08398C53.1575 8.93555 53.0325 8.81641 52.8645 8.72656C52.6966 8.63281 52.4856 8.58594 52.2317 8.58594C51.9895 8.58594 51.7884 8.625 51.6282 8.70312C51.472 8.77734 51.3548 8.875 51.2766 8.99609C51.2024 9.11719 51.1653 9.25 51.1653 9.39453C51.1653 9.5 51.1848 9.5957 51.2239 9.68164C51.2669 9.76367 51.3372 9.83984 51.4348 9.91016C51.5325 9.97656 51.6653 10.0391 51.8333 10.0977C52.0052 10.1562 52.22 10.2129 52.4778 10.2676C52.9622 10.3691 53.3782 10.5 53.7259 10.6602C54.0774 10.8164 54.347 11.0195 54.5345 11.2695C54.722 11.5156 54.8157 11.8281 54.8157 12.207C54.8157 12.4883 54.7552 12.7461 54.6341 12.9805C54.5169 13.2109 54.345 13.4121 54.1184 13.584C53.8919 13.752 53.6204 13.8828 53.304 13.9766C52.9915 14.0703 52.6399 14.1172 52.2493 14.1172C51.6751 14.1172 51.1888 14.0156 50.7903 13.8125C50.3919 13.6055 50.0891 13.3418 49.8821 13.0215C49.679 12.6973 49.5774 12.3613 49.5774 12.0137H50.9427C50.9583 12.2754 51.0305 12.4844 51.1595 12.6406C51.2923 12.793 51.4563 12.9043 51.6516 12.9746C51.8509 13.041 52.0559 13.0742 52.2669 13.0742C52.5208 13.0742 52.7337 13.041 52.9055 12.9746C53.0774 12.9043 53.2083 12.8105 53.2981 12.6934C53.388 12.5723 53.4329 12.4355 53.4329 12.2832Z" fill="white"/>
<path d="M61 0H77C78.6569 0 80 1.34315 80 3V17C80 18.6569 78.6569 20 77 20H61V0Z" fill="#B121C9"/>
<mask id="path-6-inside-2_2_77" fill="white">
<path d="M73.5215 11.959V13.084H67.3691L67.3223 12.2344L71.002 6.46875H72.1328L70.9082 8.56641L68.793 11.959H73.5215ZM72.4551 6.46875V15H71.043V6.46875H72.4551Z"/>
</mask>
<path d="M73.5215 11.959V13.084H67.3691L67.3223 12.2344L71.002 6.46875H72.1328L70.9082 8.56641L68.793 11.959H73.5215ZM72.4551 6.46875V15H71.043V6.46875H72.4551Z" fill="#010101" fill-opacity="0.3"/>
<path d="M73.5215 11.959H73.7215V11.759H73.5215V11.959ZM73.5215 13.084V13.284H73.7215V13.084H73.5215ZM67.3691 13.084L67.1694 13.095L67.1799 13.284H67.3691V13.084ZM67.3223 12.2344L67.1537 12.1268L67.119 12.1811L67.1226 12.2454L67.3223 12.2344ZM71.002 6.46875V6.26875H70.8923L70.8334 6.36115L71.002 6.46875ZM72.1328 6.46875L72.3055 6.56958L72.4812 6.26875H72.1328V6.46875ZM70.9082 8.56641L71.078 8.67227L71.0809 8.66724L70.9082 8.56641ZM68.793 11.959L68.6233 11.8532L68.4326 12.159H68.793V11.959ZM72.4551 6.46875H72.6551V6.26875H72.4551V6.46875ZM72.4551 15V15.2H72.6551V15H72.4551ZM71.043 15H70.843V15.2H71.043V15ZM71.043 6.46875V6.26875H70.843V6.46875H71.043ZM73.3215 11.959V13.084H73.7215V11.959H73.3215ZM73.5215 12.884H67.3691V13.284H73.5215V12.884ZM67.5688 13.073L67.522 12.2234L67.1226 12.2454L67.1694 13.095L67.5688 13.073ZM67.4909 12.342L71.1705 6.57635L70.8334 6.36115L67.1537 12.1268L67.4909 12.342ZM71.002 6.66875H72.1328V6.26875H71.002V6.66875ZM71.9601 6.36792L70.7355 8.46557L71.0809 8.66724L72.3055 6.56958L71.9601 6.36792ZM70.7385 8.46059L68.6233 11.8532L68.9627 12.0648L71.0779 8.67222L70.7385 8.46059ZM68.793 12.159H73.5215V11.759H68.793V12.159ZM72.2551 6.46875V15H72.6551V6.46875H72.2551ZM72.4551 14.8H71.043V15.2H72.4551V14.8ZM71.243 15V6.46875H70.843V15H71.243ZM71.043 6.66875H72.4551V6.26875H71.043V6.66875Z" fill="#010101" fill-opacity="0.098" mask="url(#path-6-inside-2_2_77)"/>
<path d="M73.5215 10.959V12.084H67.3691L67.3223 11.2344L71.002 5.46875H72.1328L70.9082 7.56641L68.793 10.959H73.5215ZM72.4551 5.46875V14H71.043V5.46875H72.4551Z" fill="white"/>
<path d="M2 0H78C79.1046 0 80 1.34315 80 3V17C80 18.6569 79.1046 20 78 20H2C0.89543 20 0 18.6569 0 17V3C0 1.34315 0.89543 0 2 0Z" fill="url(#paint0_linear_2_77)"/>
<defs>
<linearGradient id="paint0_linear_2_77" x1="0" y1="0" x2="0" y2="20" gradientUnits="userSpaceOnUse">
<stop stop-color="#BBBBBB" stop-opacity="0.1"/>
<stop offset="1" stop-opacity="0.1"/>
</linearGradient>
</defs>
</svg>
