<svg width="91" height="20" viewBox="0 0 91 20" fill="none" xmlns="http://www.w3.org/2000/svg">
<rect width="91" height="20" rx="3" fill="#555555"/>
<mask id="path-2-inside-1_2_97" fill="white">
<path d="M10.1445 9.87891V17.4375H8.73242V8.66016H10.0332L10.1445 9.87891ZM14.2754 11.7715V11.8945C14.2754 12.3555 14.2207 12.7832 14.1113 13.1777C14.0059 13.5684 13.8477 13.9102 13.6367 14.2031C13.4297 14.4922 13.1738 14.7168 12.8691 14.877C12.5645 15.0371 12.2129 15.1172 11.8145 15.1172C11.4199 15.1172 11.0742 15.0449 10.7773 14.9004C10.4844 14.752 10.2363 14.543 10.0332 14.2734C9.83008 14.0039 9.66602 13.6875 9.54102 13.3242C9.41992 12.957 9.33398 12.5547 9.2832 12.1172V11.6426C9.33398 11.1777 9.41992 10.7559 9.54102 10.377C9.66602 9.99805 9.83008 9.67188 10.0332 9.39844C10.2363 9.125 10.4844 8.91406 10.7773 8.76562C11.0703 8.61719 11.4121 8.54297 11.8027 8.54297C12.2012 8.54297 12.5547 8.62109 12.8633 8.77734C13.1719 8.92969 13.4316 9.14844 13.6426 9.43359C13.8535 9.71484 14.0117 10.0547 14.1172 10.4531C14.2227 10.8477 14.2754 11.2871 14.2754 11.7715ZM12.8633 11.8945V11.7715C12.8633 11.4785 12.8359 11.207 12.7812 10.957C12.7266 10.7031 12.6406 10.4805 12.5234 10.2891C12.4062 10.0977 12.2559 9.94922 12.0723 9.84375C11.8926 9.73438 11.6758 9.67969 11.4219 9.67969C11.1719 9.67969 10.957 9.72266 10.7773 9.80859C10.5977 9.89062 10.4473 10.0059 10.3262 10.1543C10.2051 10.3027 10.1113 10.4766 10.0449 10.6758C9.97852 10.8711 9.93164 11.084 9.9043 11.3145V12.4512C9.95117 12.7324 10.0312 12.9902 10.1445 13.2246C10.2578 13.459 10.418 13.6465 10.625 13.7871C10.8359 13.9238 11.1055 13.9922 11.4336 13.9922C11.6875 13.9922 11.9043 13.9375 12.084 13.8281C12.2637 13.7188 12.4102 13.5684 12.5234 13.377C12.6406 13.1816 12.7266 12.957 12.7812 12.7031C12.8359 12.4492 12.8633 12.1797 12.8633 11.8945ZM17.0145 9.86719V15H15.6024V8.66016H16.9501L17.0145 9.86719ZM18.954 8.61914L18.9423 9.93164C18.8563 9.91602 18.7626 9.9043 18.661 9.89648C18.5634 9.88867 18.4657 9.88477 18.368 9.88477C18.1259 9.88477 17.913 9.91992 17.7294 9.99023C17.5458 10.0566 17.3915 10.1543 17.2665 10.2832C17.1454 10.4082 17.0516 10.5605 16.9852 10.7402C16.9188 10.9199 16.8798 11.1211 16.868 11.3438L16.5458 11.3672C16.5458 10.9688 16.5848 10.5996 16.663 10.2598C16.7411 9.91992 16.8583 9.62109 17.0145 9.36328C17.1747 9.10547 17.3739 8.9043 17.6122 8.75977C17.8544 8.61523 18.1337 8.54297 18.4501 8.54297C18.536 8.54297 18.6278 8.55078 18.7255 8.56641C18.827 8.58203 18.9032 8.59961 18.954 8.61914ZM19.5369 11.9004V11.7656C19.5369 11.3086 19.6033 10.8848 19.7361 10.4941C19.8689 10.0996 20.0603 9.75781 20.3103 9.46875C20.5642 9.17578 20.8728 8.94922 21.2361 8.78906C21.6033 8.625 22.0173 8.54297 22.4783 8.54297C22.9431 8.54297 23.3572 8.625 23.7205 8.78906C24.0877 8.94922 24.3982 9.17578 24.6521 9.46875C24.906 9.75781 25.0994 10.0996 25.2322 10.4941C25.365 10.8848 25.4314 11.3086 25.4314 11.7656V11.9004C25.4314 12.3574 25.365 12.7812 25.2322 13.1719C25.0994 13.5625 24.906 13.9043 24.6521 14.1973C24.3982 14.4863 24.0896 14.7129 23.7263 14.877C23.363 15.0371 22.9509 15.1172 22.49 15.1172C22.0252 15.1172 21.6091 15.0371 21.242 14.877C20.8787 14.7129 20.5701 14.4863 20.3162 14.1973C20.0623 13.9043 19.8689 13.5625 19.7361 13.1719C19.6033 12.7812 19.5369 12.3574 19.5369 11.9004ZM20.949 11.7656V11.9004C20.949 12.1855 20.9783 12.4551 21.0369 12.709C21.0955 12.9629 21.1873 13.1855 21.3123 13.377C21.4373 13.5684 21.5974 13.7188 21.7927 13.8281C21.988 13.9375 22.2205 13.9922 22.49 13.9922C22.7517 13.9922 22.9783 13.9375 23.1697 13.8281C23.365 13.7188 23.5252 13.5684 23.6502 13.377C23.7752 13.1855 23.867 12.9629 23.9255 12.709C23.988 12.4551 24.0193 12.1855 24.0193 11.9004V11.7656C24.0193 11.4844 23.988 11.2188 23.9255 10.9688C23.867 10.7148 23.7732 10.4902 23.6443 10.2949C23.5193 10.0996 23.3591 9.94727 23.1638 9.83789C22.9724 9.72461 22.7439 9.66797 22.4783 9.66797C22.2127 9.66797 21.9822 9.72461 21.7869 9.83789C21.5955 9.94727 21.4373 10.0996 21.3123 10.2949C21.1873 10.4902 21.0955 10.7148 21.0369 10.9688C20.9783 11.2188 20.949 11.4844 20.949 11.7656ZM26.8053 8.66016H28.2233V15.5508C28.2233 15.9844 28.1491 16.3496 28.0006 16.6465C27.8522 16.9473 27.6334 17.1738 27.3444 17.3262C27.0553 17.4824 26.7018 17.5605 26.2838 17.5605C26.1588 17.5605 26.0299 17.5508 25.8971 17.5312C25.7604 17.5156 25.6315 17.4922 25.5104 17.4609L25.5163 16.3594C25.5983 16.375 25.6862 16.3867 25.7799 16.3945C25.8698 16.4062 25.9557 16.4121 26.0377 16.4121C26.2057 16.4121 26.3463 16.3828 26.4596 16.3242C26.5729 16.2656 26.6588 16.1738 26.7174 16.0488C26.776 15.9238 26.8053 15.7578 26.8053 15.5508V8.66016ZM26.6823 6.99609C26.6823 6.78125 26.7545 6.60352 26.8991 6.46289C27.0436 6.31836 27.2409 6.24609 27.4909 6.24609C27.7448 6.24609 27.942 6.31836 28.0827 6.46289C28.2272 6.60352 28.2995 6.78125 28.2995 6.99609C28.2995 7.20703 28.2272 7.38281 28.0827 7.52344C27.942 7.66406 27.7448 7.73438 27.4909 7.73438C27.2409 7.73438 27.0436 7.66406 26.8991 7.52344C26.7545 7.38281 26.6823 7.20703 26.6823 6.99609ZM32.6616 15.1172C32.1929 15.1172 31.7691 15.041 31.3902 14.8887C31.0152 14.7324 30.6948 14.5156 30.4292 14.2383C30.1675 13.9609 29.9663 13.6348 29.8257 13.2598C29.6851 12.8848 29.6148 12.4805 29.6148 12.0469V11.8125C29.6148 11.3164 29.687 10.8672 29.8316 10.4648C29.9761 10.0625 30.1773 9.71875 30.4351 9.43359C30.6929 9.14453 30.9976 8.92383 31.3491 8.77148C31.7007 8.61914 32.0816 8.54297 32.4917 8.54297C32.9448 8.54297 33.3413 8.61914 33.6812 8.77148C34.021 8.92383 34.3023 9.13867 34.5249 9.41602C34.7515 9.68945 34.9195 10.0156 35.0288 10.3945C35.1421 10.7734 35.1987 11.1914 35.1987 11.6484V12.252H30.3003V11.2383H33.8042V11.127C33.7964 10.873 33.7456 10.6348 33.6519 10.4121C33.562 10.1895 33.4234 10.0098 33.2359 9.87305C33.0484 9.73633 32.7984 9.66797 32.4859 9.66797C32.2515 9.66797 32.0425 9.71875 31.8589 9.82031C31.6792 9.91797 31.5288 10.0605 31.4077 10.248C31.2866 10.4355 31.1929 10.6621 31.1265 10.9277C31.064 11.1895 31.0327 11.4844 31.0327 11.8125V12.0469C31.0327 12.3242 31.0698 12.582 31.1441 12.8203C31.2222 13.0547 31.3355 13.2598 31.4839 13.4355C31.6323 13.6113 31.812 13.75 32.023 13.8516C32.2339 13.9492 32.4741 13.998 32.7437 13.998C33.0835 13.998 33.3862 13.9297 33.6519 13.793C33.9175 13.6562 34.148 13.4629 34.3433 13.2129L35.0874 13.9336C34.9507 14.1328 34.773 14.3242 34.5542 14.5078C34.3355 14.6875 34.0679 14.834 33.7515 14.9473C33.439 15.0605 33.0757 15.1172 32.6616 15.1172ZM39.0102 13.9922C39.2406 13.9922 39.4477 13.9473 39.6313 13.8574C39.8188 13.7637 39.9691 13.6348 40.0824 13.4707C40.1996 13.3066 40.2641 13.1172 40.2758 12.9023H41.6059C41.598 13.3125 41.477 13.6855 41.2426 14.0215C41.0082 14.3574 40.6977 14.625 40.3109 14.8242C39.9242 15.0195 39.4965 15.1172 39.0277 15.1172C38.5434 15.1172 38.1215 15.0352 37.7621 14.8711C37.4027 14.7031 37.1039 14.4727 36.8656 14.1797C36.6273 13.8867 36.4477 13.5488 36.3266 13.166C36.2094 12.7832 36.1508 12.373 36.1508 11.9355V11.7305C36.1508 11.293 36.2094 10.8828 36.3266 10.5C36.4477 10.1133 36.6273 9.77344 36.8656 9.48047C37.1039 9.1875 37.4027 8.95898 37.7621 8.79492C38.1215 8.62695 38.5414 8.54297 39.0219 8.54297C39.5297 8.54297 39.975 8.64453 40.3578 8.84766C40.7406 9.04688 41.0414 9.32617 41.2602 9.68555C41.4828 10.041 41.598 10.4551 41.6059 10.9277H40.2758C40.2641 10.6934 40.2055 10.4824 40.1 10.2949C39.9984 10.1035 39.8539 9.95117 39.6664 9.83789C39.4828 9.72461 39.2621 9.66797 39.0043 9.66797C38.7191 9.66797 38.4828 9.72656 38.2953 9.84375C38.1078 9.95703 37.9613 10.1133 37.8559 10.3125C37.7504 10.5078 37.6742 10.7285 37.6273 10.9746C37.5844 11.2168 37.5629 11.4688 37.5629 11.7305V11.9355C37.5629 12.1973 37.5844 12.4512 37.6273 12.6973C37.6703 12.9434 37.7445 13.1641 37.85 13.3594C37.9594 13.5508 38.1078 13.7051 38.2953 13.8223C38.4828 13.9355 38.7211 13.9922 39.0102 13.9922ZM45.7161 8.66016V9.69141H42.1419V8.66016H45.7161ZM43.1731 7.10742H44.5852V13.248C44.5852 13.4434 44.6126 13.5938 44.6673 13.6992C44.7259 13.8008 44.8059 13.8691 44.9075 13.9043C45.0091 13.9395 45.1282 13.957 45.2649 13.957C45.3626 13.957 45.4563 13.9512 45.5462 13.9395C45.636 13.9277 45.7083 13.916 45.763 13.9043L45.7688 14.9824C45.6516 15.0176 45.5149 15.0488 45.3587 15.0762C45.2063 15.1035 45.0305 15.1172 44.8313 15.1172C44.5071 15.1172 44.22 15.0605 43.97 14.9473C43.72 14.8301 43.5247 14.6406 43.3841 14.3789C43.2434 14.1172 43.1731 13.7695 43.1731 13.3359V7.10742ZM50.4826 13.2832C50.4826 13.1426 50.4474 13.0156 50.3771 12.9023C50.3068 12.7852 50.172 12.6797 49.9728 12.5859C49.7775 12.4922 49.4884 12.4062 49.1056 12.3281C48.7697 12.2539 48.4611 12.166 48.1798 12.0645C47.9025 11.959 47.6642 11.832 47.465 11.6836C47.2658 11.5352 47.1115 11.3594 47.0021 11.1562C46.8927 10.9531 46.838 10.7188 46.838 10.4531C46.838 10.1953 46.8947 9.95117 47.008 9.7207C47.1213 9.49023 47.2834 9.28711 47.4943 9.11133C47.7052 8.93555 47.9611 8.79688 48.2619 8.69531C48.5666 8.59375 48.9064 8.54297 49.2814 8.54297C49.8127 8.54297 50.2677 8.63281 50.6466 8.8125C51.0295 8.98828 51.3224 9.22852 51.5255 9.5332C51.7287 9.83398 51.8302 10.1738 51.8302 10.5527H50.4181C50.4181 10.3848 50.3752 10.2285 50.2892 10.084C50.2072 9.93555 50.0822 9.81641 49.9142 9.72656C49.7463 9.63281 49.5353 9.58594 49.2814 9.58594C49.0392 9.58594 48.838 9.625 48.6779 9.70312C48.5216 9.77734 48.4045 9.875 48.3263 9.99609C48.2521 10.1172 48.215 10.25 48.215 10.3945C48.215 10.5 48.2345 10.5957 48.2736 10.6816C48.3166 10.7637 48.3869 10.8398 48.4845 10.9102C48.5822 10.9766 48.715 11.0391 48.883 11.0977C49.0548 11.1562 49.2697 11.2129 49.5275 11.2676C50.0119 11.3691 50.4279 11.5 50.7755 11.6602C51.1271 11.8164 51.3966 12.0195 51.5841 12.2695C51.7716 12.5156 51.8654 12.8281 51.8654 13.207C51.8654 13.4883 51.8048 13.7461 51.6838 13.9805C51.5666 14.2109 51.3947 14.4121 51.1681 14.584C50.9416 14.752 50.6701 14.8828 50.3537 14.9766C50.0412 15.0703 49.6896 15.1172 49.299 15.1172C48.7248 15.1172 48.2384 15.0156 47.84 14.8125C47.4416 14.6055 47.1388 14.3418 46.9318 14.0215C46.7287 13.6973 46.6271 13.3613 46.6271 13.0137H47.9923C48.008 13.2754 48.0802 13.4844 48.2091 13.6406C48.342 13.793 48.506 13.9043 48.7013 13.9746C48.9005 14.041 49.1056 14.0742 49.3166 14.0742C49.5705 14.0742 49.7834 14.041 49.9552 13.9746C50.1271 13.9043 50.258 13.8105 50.3478 13.6934C50.4377 13.5723 50.4826 13.4355 50.4826 13.2832Z"/>
</mask>
<path d="M10.1445 9.87891V17.4375H8.73242V8.66016H10.0332L10.1445 9.87891ZM14.2754 11.7715V11.8945C14.2754 12.3555 14.2207 12.7832 14.1113 13.1777C14.0059 13.5684 13.8477 13.9102 13.6367 14.2031C13.4297 14.4922 13.1738 14.7168 12.8691 14.877C12.5645 15.0371 12.2129 15.1172 11.8145 15.1172C11.4199 15.1172 11.0742 15.0449 10.7773 14.9004C10.4844 14.752 10.2363 14.543 10.0332 14.2734C9.83008 14.0039 9.66602 13.6875 9.54102 13.3242C9.41992 12.957 9.33398 12.5547 9.2832 12.1172V11.6426C9.33398 11.1777 9.41992 10.7559 9.54102 10.377C9.66602 9.99805 9.83008 9.67188 10.0332 9.39844C10.2363 9.125 10.4844 8.91406 10.7773 8.76562C11.0703 8.61719 11.4121 8.54297 11.8027 8.54297C12.2012 8.54297 12.5547 8.62109 12.8633 8.77734C13.1719 8.92969 13.4316 9.14844 13.6426 9.43359C13.8535 9.71484 14.0117 10.0547 14.1172 10.4531C14.2227 10.8477 14.2754 11.2871 14.2754 11.7715ZM12.8633 11.8945V11.7715C12.8633 11.4785 12.8359 11.207 12.7812 10.957C12.7266 10.7031 12.6406 10.4805 12.5234 10.2891C12.4062 10.0977 12.2559 9.94922 12.0723 9.84375C11.8926 9.73438 11.6758 9.67969 11.4219 9.67969C11.1719 9.67969 10.957 9.72266 10.7773 9.80859C10.5977 9.89062 10.4473 10.0059 10.3262 10.1543C10.2051 10.3027 10.1113 10.4766 10.0449 10.6758C9.97852 10.8711 9.93164 11.084 9.9043 11.3145V12.4512C9.95117 12.7324 10.0312 12.9902 10.1445 13.2246C10.2578 13.459 10.418 13.6465 10.625 13.7871C10.8359 13.9238 11.1055 13.9922 11.4336 13.9922C11.6875 13.9922 11.9043 13.9375 12.084 13.8281C12.2637 13.7188 12.4102 13.5684 12.5234 13.377C12.6406 13.1816 12.7266 12.957 12.7812 12.7031C12.8359 12.4492 12.8633 12.1797 12.8633 11.8945ZM17.0145 9.86719V15H15.6024V8.66016H16.9501L17.0145 9.86719ZM18.954 8.61914L18.9423 9.93164C18.8563 9.91602 18.7626 9.9043 18.661 9.89648C18.5634 9.88867 18.4657 9.88477 18.368 9.88477C18.1259 9.88477 17.913 9.91992 17.7294 9.99023C17.5458 10.0566 17.3915 10.1543 17.2665 10.2832C17.1454 10.4082 17.0516 10.5605 16.9852 10.7402C16.9188 10.9199 16.8798 11.1211 16.868 11.3438L16.5458 11.3672C16.5458 10.9688 16.5848 10.5996 16.663 10.2598C16.7411 9.91992 16.8583 9.62109 17.0145 9.36328C17.1747 9.10547 17.3739 8.9043 17.6122 8.75977C17.8544 8.61523 18.1337 8.54297 18.4501 8.54297C18.536 8.54297 18.6278 8.55078 18.7255 8.56641C18.827 8.58203 18.9032 8.59961 18.954 8.61914ZM19.5369 11.9004V11.7656C19.5369 11.3086 19.6033 10.8848 19.7361 10.4941C19.8689 10.0996 20.0603 9.75781 20.3103 9.46875C20.5642 9.17578 20.8728 8.94922 21.2361 8.78906C21.6033 8.625 22.0173 8.54297 22.4783 8.54297C22.9431 8.54297 23.3572 8.625 23.7205 8.78906C24.0877 8.94922 24.3982 9.17578 24.6521 9.46875C24.906 9.75781 25.0994 10.0996 25.2322 10.4941C25.365 10.8848 25.4314 11.3086 25.4314 11.7656V11.9004C25.4314 12.3574 25.365 12.7812 25.2322 13.1719C25.0994 13.5625 24.906 13.9043 24.6521 14.1973C24.3982 14.4863 24.0896 14.7129 23.7263 14.877C23.363 15.0371 22.9509 15.1172 22.49 15.1172C22.0252 15.1172 21.6091 15.0371 21.242 14.877C20.8787 14.7129 20.5701 14.4863 20.3162 14.1973C20.0623 13.9043 19.8689 13.5625 19.7361 13.1719C19.6033 12.7812 19.5369 12.3574 19.5369 11.9004ZM20.949 11.7656V11.9004C20.949 12.1855 20.9783 12.4551 21.0369 12.709C21.0955 12.9629 21.1873 13.1855 21.3123 13.377C21.4373 13.5684 21.5974 13.7188 21.7927 13.8281C21.988 13.9375 22.2205 13.9922 22.49 13.9922C22.7517 13.9922 22.9783 13.9375 23.1697 13.8281C23.365 13.7188 23.5252 13.5684 23.6502 13.377C23.7752 13.1855 23.867 12.9629 23.9255 12.709C23.988 12.4551 24.0193 12.1855 24.0193 11.9004V11.7656C24.0193 11.4844 23.988 11.2188 23.9255 10.9688C23.867 10.7148 23.7732 10.4902 23.6443 10.2949C23.5193 10.0996 23.3591 9.94727 23.1638 9.83789C22.9724 9.72461 22.7439 9.66797 22.4783 9.66797C22.2127 9.66797 21.9822 9.72461 21.7869 9.83789C21.5955 9.94727 21.4373 10.0996 21.3123 10.2949C21.1873 10.4902 21.0955 10.7148 21.0369 10.9688C20.9783 11.2188 20.949 11.4844 20.949 11.7656ZM26.8053 8.66016H28.2233V15.5508C28.2233 15.9844 28.1491 16.3496 28.0006 16.6465C27.8522 16.9473 27.6334 17.1738 27.3444 17.3262C27.0553 17.4824 26.7018 17.5605 26.2838 17.5605C26.1588 17.5605 26.0299 17.5508 25.8971 17.5312C25.7604 17.5156 25.6315 17.4922 25.5104 17.4609L25.5163 16.3594C25.5983 16.375 25.6862 16.3867 25.7799 16.3945C25.8698 16.4062 25.9557 16.4121 26.0377 16.4121C26.2057 16.4121 26.3463 16.3828 26.4596 16.3242C26.5729 16.2656 26.6588 16.1738 26.7174 16.0488C26.776 15.9238 26.8053 15.7578 26.8053 15.5508V8.66016ZM26.6823 6.99609C26.6823 6.78125 26.7545 6.60352 26.8991 6.46289C27.0436 6.31836 27.2409 6.24609 27.4909 6.24609C27.7448 6.24609 27.942 6.31836 28.0827 6.46289C28.2272 6.60352 28.2995 6.78125 28.2995 6.99609C28.2995 7.20703 28.2272 7.38281 28.0827 7.52344C27.942 7.66406 27.7448 7.73438 27.4909 7.73438C27.2409 7.73438 27.0436 7.66406 26.8991 7.52344C26.7545 7.38281 26.6823 7.20703 26.6823 6.99609ZM32.6616 15.1172C32.1929 15.1172 31.7691 15.041 31.3902 14.8887C31.0152 14.7324 30.6948 14.5156 30.4292 14.2383C30.1675 13.9609 29.9663 13.6348 29.8257 13.2598C29.6851 12.8848 29.6148 12.4805 29.6148 12.0469V11.8125C29.6148 11.3164 29.687 10.8672 29.8316 10.4648C29.9761 10.0625 30.1773 9.71875 30.4351 9.43359C30.6929 9.14453 30.9976 8.92383 31.3491 8.77148C31.7007 8.61914 32.0816 8.54297 32.4917 8.54297C32.9448 8.54297 33.3413 8.61914 33.6812 8.77148C34.021 8.92383 34.3023 9.13867 34.5249 9.41602C34.7515 9.68945 34.9195 10.0156 35.0288 10.3945C35.1421 10.7734 35.1987 11.1914 35.1987 11.6484V12.252H30.3003V11.2383H33.8042V11.127C33.7964 10.873 33.7456 10.6348 33.6519 10.4121C33.562 10.1895 33.4234 10.0098 33.2359 9.87305C33.0484 9.73633 32.7984 9.66797 32.4859 9.66797C32.2515 9.66797 32.0425 9.71875 31.8589 9.82031C31.6792 9.91797 31.5288 10.0605 31.4077 10.248C31.2866 10.4355 31.1929 10.6621 31.1265 10.9277C31.064 11.1895 31.0327 11.4844 31.0327 11.8125V12.0469C31.0327 12.3242 31.0698 12.582 31.1441 12.8203C31.2222 13.0547 31.3355 13.2598 31.4839 13.4355C31.6323 13.6113 31.812 13.75 32.023 13.8516C32.2339 13.9492 32.4741 13.998 32.7437 13.998C33.0835 13.998 33.3862 13.9297 33.6519 13.793C33.9175 13.6562 34.148 13.4629 34.3433 13.2129L35.0874 13.9336C34.9507 14.1328 34.773 14.3242 34.5542 14.5078C34.3355 14.6875 34.0679 14.834 33.7515 14.9473C33.439 15.0605 33.0757 15.1172 32.6616 15.1172ZM39.0102 13.9922C39.2406 13.9922 39.4477 13.9473 39.6313 13.8574C39.8188 13.7637 39.9691 13.6348 40.0824 13.4707C40.1996 13.3066 40.2641 13.1172 40.2758 12.9023H41.6059C41.598 13.3125 41.477 13.6855 41.2426 14.0215C41.0082 14.3574 40.6977 14.625 40.3109 14.8242C39.9242 15.0195 39.4965 15.1172 39.0277 15.1172C38.5434 15.1172 38.1215 15.0352 37.7621 14.8711C37.4027 14.7031 37.1039 14.4727 36.8656 14.1797C36.6273 13.8867 36.4477 13.5488 36.3266 13.166C36.2094 12.7832 36.1508 12.373 36.1508 11.9355V11.7305C36.1508 11.293 36.2094 10.8828 36.3266 10.5C36.4477 10.1133 36.6273 9.77344 36.8656 9.48047C37.1039 9.1875 37.4027 8.95898 37.7621 8.79492C38.1215 8.62695 38.5414 8.54297 39.0219 8.54297C39.5297 8.54297 39.975 8.64453 40.3578 8.84766C40.7406 9.04688 41.0414 9.32617 41.2602 9.68555C41.4828 10.041 41.598 10.4551 41.6059 10.9277H40.2758C40.2641 10.6934 40.2055 10.4824 40.1 10.2949C39.9984 10.1035 39.8539 9.95117 39.6664 9.83789C39.4828 9.72461 39.2621 9.66797 39.0043 9.66797C38.7191 9.66797 38.4828 9.72656 38.2953 9.84375C38.1078 9.95703 37.9613 10.1133 37.8559 10.3125C37.7504 10.5078 37.6742 10.7285 37.6273 10.9746C37.5844 11.2168 37.5629 11.4688 37.5629 11.7305V11.9355C37.5629 12.1973 37.5844 12.4512 37.6273 12.6973C37.6703 12.9434 37.7445 13.1641 37.85 13.3594C37.9594 13.5508 38.1078 13.7051 38.2953 13.8223C38.4828 13.9355 38.7211 13.9922 39.0102 13.9922ZM45.7161 8.66016V9.69141H42.1419V8.66016H45.7161ZM43.1731 7.10742H44.5852V13.248C44.5852 13.4434 44.6126 13.5938 44.6673 13.6992C44.7259 13.8008 44.8059 13.8691 44.9075 13.9043C45.0091 13.9395 45.1282 13.957 45.2649 13.957C45.3626 13.957 45.4563 13.9512 45.5462 13.9395C45.636 13.9277 45.7083 13.916 45.763 13.9043L45.7688 14.9824C45.6516 15.0176 45.5149 15.0488 45.3587 15.0762C45.2063 15.1035 45.0305 15.1172 44.8313 15.1172C44.5071 15.1172 44.22 15.0605 43.97 14.9473C43.72 14.8301 43.5247 14.6406 43.3841 14.3789C43.2434 14.1172 43.1731 13.7695 43.1731 13.3359V7.10742ZM50.4826 13.2832C50.4826 13.1426 50.4474 13.0156 50.3771 12.9023C50.3068 12.7852 50.172 12.6797 49.9728 12.5859C49.7775 12.4922 49.4884 12.4062 49.1056 12.3281C48.7697 12.2539 48.4611 12.166 48.1798 12.0645C47.9025 11.959 47.6642 11.832 47.465 11.6836C47.2658 11.5352 47.1115 11.3594 47.0021 11.1562C46.8927 10.9531 46.838 10.7188 46.838 10.4531C46.838 10.1953 46.8947 9.95117 47.008 9.7207C47.1213 9.49023 47.2834 9.28711 47.4943 9.11133C47.7052 8.93555 47.9611 8.79688 48.2619 8.69531C48.5666 8.59375 48.9064 8.54297 49.2814 8.54297C49.8127 8.54297 50.2677 8.63281 50.6466 8.8125C51.0295 8.98828 51.3224 9.22852 51.5255 9.5332C51.7287 9.83398 51.8302 10.1738 51.8302 10.5527H50.4181C50.4181 10.3848 50.3752 10.2285 50.2892 10.084C50.2072 9.93555 50.0822 9.81641 49.9142 9.72656C49.7463 9.63281 49.5353 9.58594 49.2814 9.58594C49.0392 9.58594 48.838 9.625 48.6779 9.70312C48.5216 9.77734 48.4045 9.875 48.3263 9.99609C48.2521 10.1172 48.215 10.25 48.215 10.3945C48.215 10.5 48.2345 10.5957 48.2736 10.6816C48.3166 10.7637 48.3869 10.8398 48.4845 10.9102C48.5822 10.9766 48.715 11.0391 48.883 11.0977C49.0548 11.1562 49.2697 11.2129 49.5275 11.2676C50.0119 11.3691 50.4279 11.5 50.7755 11.6602C51.1271 11.8164 51.3966 12.0195 51.5841 12.2695C51.7716 12.5156 51.8654 12.8281 51.8654 13.207C51.8654 13.4883 51.8048 13.7461 51.6838 13.9805C51.5666 14.2109 51.3947 14.4121 51.1681 14.584C50.9416 14.752 50.6701 14.8828 50.3537 14.9766C50.0412 15.0703 49.6896 15.1172 49.299 15.1172C48.7248 15.1172 48.2384 15.0156 47.84 14.8125C47.4416 14.6055 47.1388 14.3418 46.9318 14.0215C46.7287 13.6973 46.6271 13.3613 46.6271 13.0137H47.9923C48.008 13.2754 48.0802 13.4844 48.2091 13.6406C48.342 13.793 48.506 13.9043 48.7013 13.9746C48.9005 14.041 49.1056 14.0742 49.3166 14.0742C49.5705 14.0742 49.7834 14.041 49.9552 13.9746C50.1271 13.9043 50.258 13.8105 50.3478 13.6934C50.4377 13.5723 50.4826 13.4355 50.4826 13.2832Z" fill="#010101" fill-opacity="0.3"/>
<path d="M10.1445 9.87891H10.3445V9.86979L10.3437 9.86071L10.1445 9.87891ZM10.1445 17.4375V17.6375H10.3445V17.4375H10.1445ZM8.73242 17.4375H8.53242V17.6375H8.73242V17.4375ZM8.73242 8.66016V8.46016H8.53242V8.66016H8.73242ZM10.0332 8.66016L10.2324 8.64196L10.2158 8.46016H10.0332V8.66016ZM14.1113 13.1777L13.9186 13.1243L13.9182 13.1256L14.1113 13.1777ZM13.6367 14.2031L13.4744 14.0863L13.4741 14.0867L13.6367 14.2031ZM10.7773 14.9004L10.6869 15.0788L10.6898 15.0802L10.7773 14.9004ZM9.54102 13.3242L9.35106 13.3869L9.3519 13.3893L9.54102 13.3242ZM9.2832 12.1172H9.0832V12.1288L9.08454 12.1402L9.2832 12.1172ZM9.2832 11.6426L9.08439 11.6209L9.0832 11.6317V11.6426H9.2832ZM9.54102 10.377L9.35108 10.3143L9.35051 10.3161L9.54102 10.377ZM12.8633 8.77734L12.7729 8.95578L12.7747 8.95668L12.8633 8.77734ZM13.6426 9.43359L13.4818 9.55254L13.4826 9.55359L13.6426 9.43359ZM14.1172 10.4531L13.9238 10.5043L13.924 10.5048L14.1172 10.4531ZM12.7812 10.957L12.5857 10.9991L12.5859 10.9998L12.7812 10.957ZM12.0723 9.84375L11.9682 10.0146L11.9726 10.0172L12.0723 9.84375ZM10.7773 9.80859L10.8604 9.99056L10.8636 9.98902L10.7773 9.80859ZM10.0449 10.6758L10.2343 10.7402L10.2347 10.739L10.0449 10.6758ZM9.9043 11.3145L9.70569 11.2909L9.7043 11.3026V11.3145H9.9043ZM9.9043 12.4512H9.7043V12.4677L9.70702 12.4841L9.9043 12.4512ZM10.625 13.7871L10.5126 13.9526L10.5162 13.9549L10.625 13.7871ZM12.5234 13.377L12.3519 13.2741L12.3513 13.2751L12.5234 13.377ZM9.94453 9.87891V17.4375H10.3445V9.87891H9.94453ZM10.1445 17.2375H8.73242V17.6375H10.1445V17.2375ZM8.93242 17.4375V8.66016H8.53242V17.4375H8.93242ZM8.73242 8.86016H10.0332V8.46016H8.73242V8.86016ZM9.83403 8.67835L9.94536 9.8971L10.3437 9.86071L10.2324 8.64196L9.83403 8.67835ZM14.0754 11.7715V11.8945H14.4754V11.7715H14.0754ZM14.0754 11.8945C14.0754 12.3396 14.0226 12.7492 13.9186 13.1243L14.3041 13.2312C14.4188 12.8172 14.4754 12.3713 14.4754 11.8945H14.0754ZM13.9182 13.1256C13.8183 13.4958 13.6697 13.8151 13.4744 14.0863L13.799 14.32C14.0256 14.0053 14.1934 13.641 14.3044 13.2299L13.9182 13.1256ZM13.4741 14.0867C13.2846 14.3513 13.0523 14.5547 12.7761 14.6999L12.9622 15.054C13.2954 14.8788 13.5748 14.6331 13.7993 14.3196L13.4741 14.0867ZM12.7761 14.6999C12.5043 14.8428 12.1856 14.9172 11.8145 14.9172V15.3172C12.2402 15.3172 12.6246 15.2314 12.9622 15.054L12.7761 14.6999ZM11.8145 14.9172C11.4444 14.9172 11.1297 14.8495 10.8649 14.7206L10.6898 15.0802C11.0188 15.2404 11.3954 15.3172 11.8145 15.3172V14.9172ZM10.8677 14.722C10.6028 14.5877 10.3782 14.3989 10.1929 14.1531L9.87348 14.3938C10.0945 14.687 10.366 14.9162 10.687 15.0788L10.8677 14.722ZM10.1929 14.1531C10.0041 13.9025 9.84923 13.6053 9.73013 13.2591L9.3519 13.3893C9.4828 13.7697 9.6561 14.1054 9.87348 14.3938L10.1929 14.1531ZM9.73095 13.2616C9.61464 12.9089 9.5313 12.52 9.48187 12.0941L9.08454 12.1402C9.13667 12.5894 9.2252 13.0052 9.35108 13.3869L9.73095 13.2616ZM9.4832 12.1172V11.6426H9.0832V12.1172H9.4832ZM9.48202 11.6643C9.53159 11.2105 9.61514 10.802 9.73152 10.4378L9.35051 10.3161C9.22471 10.7097 9.13637 11.145 9.08439 11.6209L9.48202 11.6643ZM9.73095 10.4396C9.85036 10.0776 10.0054 9.77131 10.1938 9.5177L9.87265 9.27917C9.6548 9.57244 9.48167 9.91847 9.35108 10.3143L9.73095 10.4396ZM10.1938 9.5177C10.3791 9.2682 10.6035 9.07793 10.8677 8.94403L10.687 8.58722C10.3653 8.75019 10.0936 8.9818 9.87265 9.27917L10.1938 9.5177ZM10.8677 8.94403C11.1279 8.81224 11.4376 8.74297 11.8027 8.74297V8.34297C11.3866 8.34297 11.0128 8.42214 10.687 8.58722L10.8677 8.94403ZM11.8027 8.74297C12.1746 8.74297 12.4963 8.81572 12.7729 8.95578L12.9536 8.59891C12.6131 8.42647 12.2278 8.34297 11.8027 8.34297V8.74297ZM12.7747 8.95668C13.0539 9.09449 13.2892 9.29216 13.4818 9.55253L13.8034 9.31465C13.5741 9.00471 13.2899 8.76488 12.9518 8.59801L12.7747 8.95668ZM13.4826 9.55359C13.6757 9.81104 13.8238 10.1265 13.9238 10.5043L14.3105 10.4019C14.1996 9.98286 14.0314 9.61865 13.8026 9.31359L13.4826 9.55359ZM13.924 10.5048C14.0242 10.8797 14.0754 11.3014 14.0754 11.7715H14.4754C14.4754 11.2728 14.4211 10.8156 14.3104 10.4015L13.924 10.5048ZM13.0633 11.8945V11.7715H12.6633V11.8945H13.0633ZM13.0633 11.7715C13.0633 11.4662 13.0348 11.1802 12.9766 10.9143L12.5859 10.9998C12.6371 11.2339 12.6633 11.4909 12.6633 11.7715H13.0633ZM12.9768 10.9149C12.9181 10.6424 12.8247 10.398 12.694 10.1846L12.3529 10.3935C12.4566 10.5629 12.5351 10.7639 12.5857 10.9991L12.9768 10.9149ZM12.694 10.1846C12.5604 9.96642 12.3863 9.79349 12.1719 9.67033L11.9726 10.0172C12.1254 10.1049 12.2521 10.2289 12.3529 10.3935L12.694 10.1846ZM12.1763 9.67291C11.9593 9.54085 11.7048 9.47969 11.4219 9.47969V9.87969C11.6467 9.87969 11.8259 9.9279 11.9683 10.0146L12.1763 9.67291ZM11.4219 9.47969C11.1494 9.47969 10.9037 9.52649 10.6911 9.62817L10.8636 9.98902C11.0104 9.91882 11.1943 9.87969 11.4219 9.87969V9.47969ZM10.6943 9.62666C10.4876 9.72102 10.3123 9.85491 10.1712 10.0279L10.4811 10.2807C10.5822 10.1568 10.7077 10.0602 10.8604 9.99053L10.6943 9.62666ZM10.1712 10.0279C10.0334 10.1968 9.92852 10.3925 9.85519 10.6125L10.2347 10.739C10.2941 10.5606 10.3768 10.4087 10.4811 10.2807L10.1712 10.0279ZM9.85557 10.6114C9.78414 10.8215 9.73448 11.0482 9.70569 11.2909L10.1029 11.338C10.1288 11.1197 10.1729 10.9207 10.2343 10.7402L9.85557 10.6114ZM9.7043 11.3145V12.4512H10.1043V11.3145H9.7043ZM9.70702 12.4841C9.75673 12.7823 9.84215 13.0586 9.96446 13.3116L10.3246 13.1376C10.2204 12.9219 10.1456 12.6825 10.1016 12.4183L9.70702 12.4841ZM9.96446 13.3116C10.0924 13.5763 10.2753 13.7914 10.5126 13.9526L10.7374 13.6217C10.5606 13.5016 10.4232 13.3416 10.3246 13.1376L9.96446 13.3116ZM10.5162 13.9549C10.7681 14.1182 11.0785 14.1922 11.4336 14.1922V13.7922C11.1325 13.7922 10.9038 13.7295 10.7338 13.6193L10.5162 13.9549ZM11.4336 14.1922C11.7166 14.1922 11.971 14.131 12.188 13.999L11.98 13.6573C11.8376 13.744 11.6584 13.7922 11.4336 13.7922V14.1922ZM12.188 13.999C12.3973 13.8716 12.5666 13.6968 12.6956 13.4788L12.3513 13.2751C12.2538 13.4399 12.13 13.5659 11.98 13.6573L12.188 13.999ZM12.6949 13.4799C12.8249 13.2633 12.9181 13.0176 12.9768 12.7452L12.5857 12.661C12.535 12.8964 12.4564 13.1 12.3519 13.2741L12.6949 13.4799ZM12.9768 12.7452C13.0347 12.4762 13.0633 12.1925 13.0633 11.8945H12.6633C12.6633 12.1669 12.6372 12.4222 12.5857 12.661L12.9768 12.7452ZM17.0145 9.86719H17.2148L17.2142 9.85652L17.0145 9.86719ZM17.0145 15V15.2H17.2145V15H17.0145ZM15.6024 15H15.4024V15.2H15.6024V15ZM15.6024 8.66016V8.46016H15.4024V8.66016H15.6024ZM16.9501 8.66016L17.1498 8.64949L17.1397 8.46016H16.9501V8.66016ZM18.954 8.61914L19.154 8.62093L19.1552 8.48225L19.0258 8.43247L18.954 8.61914ZM18.9423 9.93164L18.9065 10.1284L19.1401 10.1709L19.1423 9.93343L18.9423 9.93164ZM18.661 9.89648L18.6451 10.0958L18.6457 10.0959L18.661 9.89648ZM17.7294 9.99023L17.7974 10.1783L17.8009 10.177L17.7294 9.99023ZM17.2665 10.2832L17.1229 10.144L17.1228 10.144L17.2665 10.2832ZM16.868 11.3438L16.8826 11.5432L17.0585 11.5304L17.0678 11.3543L16.868 11.3438ZM16.5458 11.3672H16.3458V11.5823L16.5603 11.5667L16.5458 11.3672ZM17.0145 9.36328L16.8446 9.25774L16.8435 9.25962L17.0145 9.36328ZM17.6122 8.75977L17.5097 8.58802L17.5085 8.58876L17.6122 8.75977ZM18.7255 8.56641L18.6939 8.7639L18.6951 8.76408L18.7255 8.56641ZM16.8145 9.86719V15H17.2145V9.86719H16.8145ZM17.0145 14.8H15.6024V15.2H17.0145V14.8ZM15.8024 15V8.66016H15.4024V15H15.8024ZM15.6024 8.86016H16.9501V8.46016H15.6024V8.86016ZM16.7504 8.67082L16.8148 9.87785L17.2142 9.85652L17.1498 8.64949L16.7504 8.67082ZM18.754 8.61735L18.7423 9.92985L19.1423 9.93343L19.154 8.62093L18.754 8.61735ZM18.978 9.73487C18.8843 9.71783 18.7837 9.70533 18.6764 9.69707L18.6457 10.0959C18.7415 10.1033 18.8283 10.1142 18.9065 10.1284L18.978 9.73487ZM18.677 9.69712C18.574 9.68889 18.471 9.68477 18.368 9.68477V10.0848C18.4604 10.0848 18.5527 10.0885 18.6451 10.0958L18.677 9.69712ZM18.368 9.68477C18.1069 9.68477 17.8689 9.72264 17.6578 9.80346L17.8009 10.177C17.9571 10.1172 18.1448 10.0848 18.368 10.0848V9.68477ZM17.6613 9.80216C17.4517 9.87798 17.2709 9.9914 17.1229 10.144L17.4101 10.4224C17.5121 10.3172 17.6398 10.2353 17.7974 10.1783L17.6613 9.80216ZM17.1228 10.144C16.9805 10.2909 16.8727 10.4678 16.7976 10.6709L17.1728 10.8096C17.2306 10.6533 17.3103 10.5255 17.4101 10.4224L17.1228 10.144ZM16.7976 10.6709C16.7232 10.8723 16.6809 11.0937 16.6683 11.3332L17.0678 11.3543C17.0786 11.1485 17.1144 10.9676 17.1728 10.8096L16.7976 10.6709ZM16.8535 11.1443L16.5313 11.1677L16.5603 11.5667L16.8826 11.5432L16.8535 11.1443ZM16.7458 11.3672C16.7458 10.9817 16.7836 10.6278 16.8579 10.3046L16.4681 10.215C16.3861 10.5714 16.3458 10.9558 16.3458 11.3672H16.7458ZM16.8579 10.3046C16.932 9.98231 17.0419 9.70393 17.1856 9.46694L16.8435 9.25962C16.6746 9.53825 16.5502 9.85754 16.4681 10.215L16.8579 10.3046ZM17.1844 9.46882C17.3295 9.2353 17.5069 9.05756 17.7159 8.93077L17.5085 8.58876C17.2409 8.75103 17.0199 8.97564 16.8446 9.25774L17.1844 9.46882ZM17.7147 8.93151C17.9222 8.80765 18.1653 8.74297 18.4501 8.74297V8.34297C18.1021 8.34297 17.7865 8.42282 17.5097 8.58802L17.7147 8.93151ZM18.4501 8.74297C18.524 8.74297 18.6051 8.7497 18.6939 8.76389L18.7571 8.36892C18.6505 8.35187 18.548 8.34297 18.4501 8.34297V8.74297ZM18.6951 8.76408C18.7926 8.77909 18.8518 8.79411 18.8822 8.80581L19.0258 8.43247C18.9546 8.4051 18.8615 8.38498 18.7559 8.36873L18.6951 8.76408ZM19.7361 10.4941L19.9254 10.5585L19.9256 10.5579L19.7361 10.4941ZM20.3103 9.46875L20.1592 9.33776L20.159 9.33792L20.3103 9.46875ZM21.2361 8.78906L21.3168 8.97207L21.3177 8.97166L21.2361 8.78906ZM23.7205 8.78906L23.6381 8.97135L23.6405 8.97238L23.7205 8.78906ZM24.6521 9.46875L24.501 9.59974L24.5018 9.60074L24.6521 9.46875ZM25.2322 10.4941L25.0426 10.5579L25.0428 10.5585L25.2322 10.4941ZM24.6521 14.1973L24.8024 14.3293L24.8032 14.3283L24.6521 14.1973ZM23.7263 14.877L23.807 15.06L23.8086 15.0592L23.7263 14.877ZM21.242 14.877L21.1596 15.0592L21.162 15.0603L21.242 14.877ZM20.3162 14.1973L20.165 14.3283L20.1659 14.3293L20.3162 14.1973ZM23.1697 13.8281L23.072 13.6536L23.0705 13.6545L23.1697 13.8281ZM23.9255 12.709L23.7313 12.6612L23.7307 12.664L23.9255 12.709ZM23.9255 10.9688L23.7306 11.0137L23.7315 11.0173L23.9255 10.9688ZM23.6443 10.2949L23.4758 10.4027L23.4774 10.4051L23.6443 10.2949ZM23.1638 9.83789L23.0619 10.0101L23.0661 10.0124L23.1638 9.83789ZM21.7869 9.83789L21.8861 10.0115L21.8872 10.0109L21.7869 9.83789ZM21.0369 10.9688L21.2316 11.0144L21.2318 11.0137L21.0369 10.9688ZM19.7369 11.9004V11.7656H19.3369V11.9004H19.7369ZM19.7369 11.7656C19.7369 11.3281 19.8004 10.9263 19.9254 10.5585L19.5467 10.4298C19.4062 10.8432 19.3369 11.289 19.3369 11.7656H19.7369ZM19.9256 10.5579C20.0509 10.1858 20.23 9.86731 20.4616 9.59958L20.159 9.33792C19.8906 9.64832 19.6869 10.0134 19.5465 10.4303L19.9256 10.5579ZM20.4615 9.59974C20.6955 9.32965 20.9799 9.1206 21.3168 8.97207L21.1554 8.60606C20.7658 8.77784 20.4329 9.02192 20.1592 9.33776L20.4615 9.59974ZM21.3177 8.97166C21.6557 8.82063 22.0414 8.74297 22.4783 8.74297V8.34297C21.9933 8.34297 21.5509 8.42937 21.1545 8.60646L21.3177 8.97166ZM22.4783 8.74297C22.9194 8.74297 23.3047 8.82074 23.6382 8.97134L23.8028 8.60679C23.4097 8.42926 22.9668 8.34297 22.4783 8.34297V8.74297ZM23.6405 8.97238C23.9813 9.12103 24.2673 9.33006 24.501 9.59974L24.8032 9.33776C24.5292 9.0215 24.194 8.77741 23.8004 8.60574L23.6405 8.97238ZM24.5018 9.60074C24.7369 9.86832 24.9176 10.1864 25.0426 10.5579L25.4217 10.4303C25.2812 10.0128 25.0751 9.64731 24.8024 9.33676L24.5018 9.60074ZM25.0428 10.5585C25.1679 10.9263 25.2314 11.3281 25.2314 11.7656H25.6314C25.6314 11.289 25.5621 10.8432 25.4215 10.4298L25.0428 10.5585ZM25.2314 11.7656V11.9004H25.6314V11.7656H25.2314ZM25.2314 11.9004C25.2314 12.3379 25.1679 12.7397 25.0428 13.1075L25.4215 13.2363C25.5621 12.8228 25.6314 12.377 25.6314 11.9004H25.2314ZM25.0428 13.1075C24.9178 13.4752 24.7369 13.7941 24.501 14.0663L24.8032 14.3283C25.0751 14.0145 25.281 13.6498 25.4215 13.2363L25.0428 13.1075ZM24.5018 14.0653C24.2674 14.3322 23.9823 14.5419 23.644 14.6947L23.8086 15.0592C24.1969 14.8839 24.529 14.6405 24.8024 14.3293L24.5018 14.0653ZM23.6456 14.6939C23.3116 14.8412 22.9276 14.9172 22.49 14.9172V15.3172C22.9743 15.3172 23.4145 15.233 23.807 15.06L23.6456 14.6939ZM22.49 14.9172C22.0483 14.9172 21.6602 14.8412 21.3219 14.6936L21.162 15.0603C21.5581 15.2331 22.002 15.3172 22.49 15.3172V14.9172ZM21.3243 14.6947C20.986 14.5419 20.7009 14.3322 20.4664 14.0653L20.1659 14.3293C20.4393 14.6405 20.7713 14.8839 21.1596 15.0592L21.3243 14.6947ZM20.4673 14.0663C20.2314 13.7941 20.0505 13.4752 19.9254 13.1075L19.5467 13.2363C19.6873 13.6498 19.8931 14.0145 20.165 14.3283L20.4673 14.0663ZM19.9254 13.1075C19.8004 12.7397 19.7369 12.3379 19.7369 11.9004H19.3369C19.3369 12.377 19.4062 12.8228 19.5467 13.2363L19.9254 13.1075ZM20.749 11.7656V11.9004H21.149V11.7656H20.749ZM20.749 11.9004C20.749 12.1993 20.7797 12.484 20.842 12.754L21.2318 12.664C21.1769 12.4262 21.149 12.1718 21.149 11.9004H20.749ZM20.842 12.754C20.9051 13.0276 21.0053 13.2727 21.1448 13.4863L21.4797 13.2676C21.3692 13.0984 21.2858 12.8982 21.2318 12.664L20.842 12.754ZM21.1448 13.4863C21.2871 13.7041 21.4709 13.8771 21.695 14.0026L21.8905 13.6536C21.7239 13.5604 21.5875 13.4326 21.4797 13.2676L21.1448 13.4863ZM21.695 14.0026C21.9257 14.1318 22.1932 14.1922 22.49 14.1922V13.7922C22.2477 13.7922 22.0504 13.7432 21.8905 13.6536L21.695 14.0026ZM22.49 14.1922C22.78 14.1922 23.0421 14.1314 23.2689 14.0018L23.0705 13.6545C22.9145 13.7436 22.7235 13.7922 22.49 13.7922V14.1922ZM23.2674 14.0026C23.4915 13.8771 23.6754 13.7041 23.8176 13.4863L23.4827 13.2676C23.375 13.4326 23.2385 13.5604 23.072 13.6536L23.2674 14.0026ZM23.8176 13.4863C23.9571 13.2727 24.0573 13.0276 24.1204 12.754L23.7307 12.664C23.6766 12.8982 23.5932 13.0984 23.4827 13.2676L23.8176 13.4863ZM24.1197 12.7568C24.1864 12.4859 24.2193 12.2002 24.2193 11.9004H23.8193C23.8193 12.1709 23.7897 12.4243 23.7313 12.6612L24.1197 12.7568ZM24.2193 11.9004V11.7656H23.8193V11.9004H24.2193ZM24.2193 11.7656C24.2193 11.4695 24.1864 11.1875 24.1196 10.9202L23.7315 11.0173C23.7897 11.25 23.8193 11.4993 23.8193 11.7656H24.2193ZM24.1204 10.9238C24.0571 10.6493 23.9547 10.4021 23.8112 10.1848L23.4774 10.4051C23.5917 10.5784 23.6768 10.7804 23.7307 11.0137L24.1204 10.9238ZM23.8128 10.1871C23.6707 9.96512 23.4866 9.78943 23.2615 9.66339L23.0661 10.0124C23.2317 10.1051 23.3679 10.2341 23.4758 10.4027L23.8128 10.1871ZM23.2657 9.66578C23.0379 9.53098 22.7728 9.46797 22.4783 9.46797V9.86797C22.7151 9.86797 22.9069 9.91824 23.062 10.01L23.2657 9.66578ZM22.4783 9.46797C22.1837 9.46797 21.9173 9.53102 21.6865 9.66488L21.8872 10.0109C22.047 9.9182 22.2416 9.86797 22.4783 9.86797V9.46797ZM21.6876 9.66424C21.4667 9.79048 21.2853 9.96604 21.1438 10.1871L21.4807 10.4027C21.5892 10.2332 21.7242 10.104 21.8861 10.0115L21.6876 9.66424ZM21.1438 10.1871C21.005 10.4039 20.9051 10.6503 20.842 10.9238L21.2318 11.0137C21.2858 10.7794 21.3695 10.5765 21.4807 10.4027L21.1438 10.1871ZM20.8422 10.9231C20.7797 11.1894 20.749 11.4705 20.749 11.7656H21.149C21.149 11.4983 21.1768 11.2481 21.2316 11.0144L20.8422 10.9231ZM26.8053 8.66016V8.46016H26.6053V8.66016H26.8053ZM28.2233 8.66016H28.4233V8.46016H28.2233V8.66016ZM28.0006 16.6465L27.8217 16.557L27.8213 16.558L28.0006 16.6465ZM27.3444 17.3262L27.2511 17.1492L27.2493 17.1502L27.3444 17.3262ZM25.8971 17.5312L25.9262 17.3333L25.9198 17.3325L25.8971 17.5312ZM25.5104 17.4609L25.3104 17.4599L25.3096 17.6157L25.4604 17.6546L25.5104 17.4609ZM25.5163 16.3594L25.5537 16.1629L25.3175 16.1179L25.3163 16.3583L25.5163 16.3594ZM25.7799 16.3945L25.8058 16.196L25.7965 16.1952L25.7799 16.3945ZM26.8991 6.46289L27.0385 6.60625L27.0405 6.60431L26.8991 6.46289ZM28.0827 6.46289L27.9393 6.60241L27.9432 6.60624L28.0827 6.46289ZM28.0827 7.52344L27.9432 7.38008L27.9412 7.38202L28.0827 7.52344ZM26.8053 8.86016H28.2233V8.46016H26.8053V8.86016ZM28.0233 8.66016V15.5508H28.4233V8.66016H28.0233ZM28.0233 15.5508C28.0233 15.9625 27.9527 16.2951 27.8217 16.557L28.1795 16.7359C28.3454 16.4041 28.4233 16.0063 28.4233 15.5508H28.0233ZM27.8213 16.558C27.691 16.822 27.5018 17.0171 27.2511 17.1492L27.4376 17.5031C27.765 17.3305 28.0134 17.0725 28.18 16.735L27.8213 16.558ZM27.2493 17.1502C26.9963 17.287 26.6774 17.3605 26.2838 17.3605V17.7605C26.7262 17.7605 27.1143 17.6779 27.4395 17.5021L27.2493 17.1502ZM26.2838 17.3605C26.1693 17.3605 26.0501 17.3516 25.9262 17.3334L25.868 17.7291C26.0098 17.75 26.1484 17.7605 26.2838 17.7605V17.3605ZM25.9198 17.3325C25.7914 17.3179 25.6717 17.296 25.5604 17.2673L25.4604 17.6546C25.5913 17.6884 25.7294 17.7134 25.8744 17.73L25.9198 17.3325ZM25.7104 17.462L25.7162 16.3604L25.3163 16.3583L25.3104 17.4599L25.7104 17.462ZM25.4788 16.5558C25.5685 16.5729 25.6634 16.5855 25.7633 16.5938L25.7965 16.1952C25.7089 16.1879 25.628 16.1771 25.5537 16.1629L25.4788 16.5558ZM25.7541 16.5929C25.8516 16.6056 25.9462 16.6121 26.0377 16.6121V16.2121C25.9652 16.2121 25.8879 16.2069 25.8058 16.1962L25.7541 16.5929ZM26.0377 16.6121C26.2279 16.6121 26.4023 16.5791 26.5515 16.5019L26.3677 16.1466C26.2904 16.1866 26.1835 16.2121 26.0377 16.2121V16.6121ZM26.5515 16.5019C26.7072 16.4213 26.8229 16.2951 26.8985 16.1337L26.5363 15.9639C26.4948 16.0525 26.4386 16.1099 26.3677 16.1466L26.5515 16.5019ZM26.8985 16.1337C26.9742 15.9722 27.0053 15.7738 27.0053 15.5508H26.6053C26.6053 15.7418 26.5778 15.8754 26.5363 15.9639L26.8985 16.1337ZM27.0053 15.5508V8.66016H26.6053V15.5508H27.0053ZM26.8823 6.99609C26.8823 6.83131 26.9354 6.70655 27.0385 6.60624L26.7596 6.31955C26.5736 6.50048 26.4823 6.73119 26.4823 6.99609H26.8823ZM27.0405 6.60431C27.1395 6.50534 27.2813 6.44609 27.4909 6.44609V6.04609C27.2004 6.04609 26.9477 6.13138 26.7576 6.32147L27.0405 6.60431ZM27.4909 6.44609C27.7056 6.44609 27.8455 6.50599 27.9393 6.60236L28.226 6.32342C28.0385 6.13073 27.784 6.04609 27.4909 6.04609V6.44609ZM27.9432 6.60624C28.0463 6.70655 28.0995 6.83131 28.0995 6.99609H28.4995C28.4995 6.73119 28.4081 6.50048 28.2221 6.31955L27.9432 6.60624ZM28.0995 6.99609C28.0995 7.15582 28.0471 7.27902 27.9432 7.38009L28.2221 7.66678C28.4073 7.48661 28.4995 7.25824 28.4995 6.99609H28.0995ZM27.9412 7.38202C27.8478 7.47549 27.7071 7.53437 27.4909 7.53437V7.93438C27.7824 7.93438 28.0363 7.85263 28.2241 7.66486L27.9412 7.38202ZM27.4909 7.53437C27.2798 7.53437 27.1372 7.47614 27.0385 7.38009L26.7596 7.66678C26.9499 7.85199 27.2019 7.93438 27.4909 7.93438V7.53437ZM27.0385 7.38009C26.9346 7.27902 26.8823 7.15582 26.8823 6.99609H26.4823C26.4823 7.25824 26.5744 7.48661 26.7596 7.66678L27.0385 7.38009ZM31.3902 14.8887L31.3132 15.0733L31.3155 15.0742L31.3902 14.8887ZM30.4292 14.2383L30.2838 14.3755L30.2848 14.3766L30.4292 14.2383ZM30.4351 9.43359L30.5834 9.56773L30.5843 9.56672L30.4351 9.43359ZM34.5249 9.41602L34.3689 9.54124L34.3709 9.54362L34.5249 9.41602ZM35.0288 10.3945L34.8367 10.45L34.8372 10.4518L35.0288 10.3945ZM35.1987 12.252V12.452H35.3987V12.252H35.1987ZM30.3003 12.252H30.1003V12.452H30.3003V12.252ZM30.3003 11.2383V11.0383H30.1003V11.2383H30.3003ZM33.8042 11.2383V11.4383H34.0042V11.2383H33.8042ZM33.8042 11.127H34.0043L34.0041 11.1208L33.8042 11.127ZM33.6519 10.4121L33.4664 10.487L33.4675 10.4897L33.6519 10.4121ZM31.8589 9.82031L31.9544 9.99604L31.9557 9.99532L31.8589 9.82031ZM31.1265 10.9277L30.9324 10.8792L30.932 10.8813L31.1265 10.9277ZM31.1441 12.8203L30.9531 12.8798L30.9543 12.8836L31.1441 12.8203ZM32.023 13.8516L31.9362 14.0318L31.9389 14.0331L32.023 13.8516ZM34.3433 13.2129L34.4824 13.0692L34.3226 12.9145L34.1857 13.0898L34.3433 13.2129ZM35.0874 13.9336L35.2523 14.0468L35.3479 13.9075L35.2266 13.7899L35.0874 13.9336ZM34.5542 14.5078L34.6812 14.6624L34.6828 14.661L34.5542 14.5078ZM33.7515 14.9473L33.6841 14.759L33.6833 14.7592L33.7515 14.9473ZM32.6616 14.9172C32.2147 14.9172 31.8167 14.8446 31.4648 14.7031L31.3155 15.0742C31.7214 15.2374 32.1711 15.3172 32.6616 15.3172V14.9172ZM31.4671 14.7041C31.116 14.5578 30.8191 14.3562 30.5737 14.0999L30.2848 14.3766C30.5706 14.675 30.9143 14.9071 31.3132 15.0733L31.4671 14.7041ZM30.5747 14.101C30.3321 13.844 30.1447 13.5409 30.013 13.1895L29.6384 13.33C29.7879 13.7286 30.0029 14.0779 30.2838 14.3755L30.5747 14.101ZM30.013 13.1895C29.8814 12.8388 29.8148 12.4585 29.8148 12.0469H29.4148C29.4148 12.5025 29.4887 12.9307 29.6384 13.33L30.013 13.1895ZM29.8148 12.0469V11.8125H29.4148V12.0469H29.8148ZM29.8148 11.8125C29.8148 11.3358 29.8842 10.9099 30.0198 10.5325L29.6433 10.3972C29.4899 10.8244 29.4148 11.297 29.4148 11.8125H29.8148ZM30.0198 10.5325C30.1565 10.1519 30.345 9.83146 30.5834 9.56772L30.2867 9.29946C30.0095 9.60604 29.7957 9.97308 29.6433 10.3972L30.0198 10.5325ZM30.5843 9.56672C30.8231 9.29907 31.104 9.09567 31.4287 8.955L31.2696 8.58797C30.8911 8.75198 30.5627 8.99 30.2858 9.30047L30.5843 9.56672ZM31.4287 8.955C31.7534 8.81428 32.107 8.74297 32.4917 8.74297V8.34297C32.0562 8.34297 31.648 8.424 31.2696 8.58797L31.4287 8.955ZM32.4917 8.74297C32.9226 8.74297 33.2902 8.8154 33.5994 8.95399L33.763 8.58898C33.3925 8.42289 32.9671 8.34297 32.4917 8.34297V8.74297ZM33.5994 8.95399C33.9117 9.094 34.1671 9.28975 34.369 9.54122L34.6809 9.29081C34.4375 8.98759 34.1303 8.75365 33.763 8.58898L33.5994 8.95399ZM34.3709 9.54362C34.5781 9.79366 34.7341 10.0946 34.8367 10.45L35.221 10.3391C35.1048 9.93668 34.9249 9.58525 34.6789 9.28841L34.3709 9.54362ZM34.8372 10.4518C34.9441 10.8095 34.9987 11.2079 34.9987 11.6484H35.3987C35.3987 11.175 35.3401 10.7374 35.2204 10.3372L34.8372 10.4518ZM34.9987 11.6484V12.252H35.3987V11.6484H34.9987ZM35.1987 12.052H30.3003V12.452H35.1987V12.052ZM30.5003 12.252V11.2383H30.1003V12.252H30.5003ZM30.3003 11.4383H33.8042V11.0383H30.3003V11.4383ZM34.0042 11.2383V11.127H33.6042V11.2383H34.0042ZM34.0041 11.1208C33.9956 10.8436 33.94 10.581 33.8362 10.3345L33.4675 10.4897C33.5513 10.6886 33.5972 10.9025 33.6043 11.1331L34.0041 11.1208ZM33.8373 10.3373C33.734 10.0812 33.5725 9.87098 33.3537 9.71145L33.118 10.0346C33.2742 10.1485 33.39 10.2977 33.4664 10.4869L33.8373 10.3373ZM33.3537 9.71145C33.1219 9.54241 32.8262 9.46797 32.4859 9.46797V9.86797C32.7705 9.86797 32.9748 9.93024 33.118 10.0346L33.3537 9.71145ZM32.4859 9.46797C32.2217 9.46797 31.9787 9.5255 31.7621 9.64531L31.9557 9.99532C32.1063 9.912 32.2813 9.86797 32.4859 9.86797V9.46797ZM31.7634 9.64459C31.5517 9.75966 31.3773 9.92655 31.2397 10.1395L31.5757 10.3566C31.6804 10.1945 31.8068 10.0763 31.9544 9.99604L31.7634 9.64459ZM31.2397 10.1395C31.1044 10.3491 31.003 10.597 30.9325 10.8792L31.3205 10.9762C31.3828 10.7273 31.4689 10.522 31.5757 10.3566L31.2397 10.1395ZM30.932 10.8813C30.8651 11.1611 30.8327 11.472 30.8327 11.8125H31.2327C31.2327 11.4967 31.2628 11.2178 31.321 10.9742L30.932 10.8813ZM30.8327 11.8125V12.0469H31.2327V11.8125H30.8327ZM30.8327 12.0469C30.8327 12.3422 30.8723 12.6202 30.9531 12.8798L31.335 12.7608C31.2674 12.5438 31.2327 12.3063 31.2327 12.0469H30.8327ZM30.9543 12.8836C31.0399 13.1402 31.1651 13.368 31.3311 13.5646L31.6367 13.3065C31.5058 13.1515 31.4045 12.9692 31.3338 12.7571L30.9543 12.8836ZM31.3311 13.5646C31.498 13.7623 31.7004 13.9182 31.9362 14.0318L32.1097 13.6714C31.9237 13.5818 31.7667 13.4604 31.6367 13.3065L31.3311 13.5646ZM31.9389 14.0331C32.1801 14.1447 32.4497 14.198 32.7437 14.198V13.798C32.4986 13.798 32.2877 13.7537 32.107 13.6701L31.9389 14.0331ZM32.7437 14.198C33.1109 14.198 33.4458 14.124 33.7434 13.9708L33.5603 13.6151C33.3267 13.7354 33.0561 13.798 32.7437 13.798V14.198ZM33.7434 13.9708C34.0363 13.82 34.2889 13.6074 34.5009 13.336L34.1857 13.0898C34.007 13.3184 33.7987 13.4925 33.5603 13.6151L33.7434 13.9708ZM34.2041 13.3566L34.9483 14.0773L35.2266 13.7899L34.4824 13.0692L34.2041 13.3566ZM34.9225 13.8204C34.7977 14.0023 34.633 14.1806 34.4256 14.3546L34.6828 14.661C34.913 14.4678 35.1037 14.2633 35.2523 14.0468L34.9225 13.8204ZM34.4273 14.3533C34.2293 14.5159 33.9828 14.652 33.6841 14.759L33.8189 15.1356C34.153 15.0159 34.4417 14.8591 34.6812 14.6624L34.4273 14.3533ZM33.6833 14.7592C33.3973 14.8629 33.0579 14.9172 32.6616 14.9172V15.3172C33.0935 15.3172 33.4807 15.2582 33.8196 15.1353L33.6833 14.7592ZM39.6313 13.8574L39.7192 14.0371L39.7207 14.0363L39.6313 13.8574ZM40.0824 13.4707L39.9197 13.3544L39.9178 13.3571L40.0824 13.4707ZM40.2758 12.9023V12.7023H40.0864L40.0761 12.8915L40.2758 12.9023ZM41.6059 12.9023L41.8058 12.9062L41.8097 12.7023H41.6059V12.9023ZM40.3109 14.8242L40.4011 15.0027L40.4025 15.002L40.3109 14.8242ZM37.7621 14.8711L37.6774 15.0523L37.6791 15.053L37.7621 14.8711ZM36.3266 13.166L36.1353 13.2246L36.1359 13.2263L36.3266 13.166ZM36.3266 10.5L36.1357 10.4402L36.1353 10.4415L36.3266 10.5ZM37.7621 8.79492L37.8452 8.97687L37.8468 8.97611L37.7621 8.79492ZM40.3578 8.84766L40.2641 9.02433L40.2655 9.02507L40.3578 8.84766ZM41.2602 9.68555L41.0893 9.78954L41.0907 9.79171L41.2602 9.68555ZM41.6059 10.9277V11.1277H41.8092L41.8058 10.9244L41.6059 10.9277ZM40.2758 10.9277L40.076 10.9377L40.0855 11.1277H40.2758V10.9277ZM40.1 10.2949L39.9233 10.3887L39.9257 10.393L40.1 10.2949ZM39.6664 9.83789L39.5614 10.0081L39.563 10.0091L39.6664 9.83789ZM38.2953 9.84375L38.3987 10.015L38.4013 10.0133L38.2953 9.84375ZM37.8559 10.3125L38.0318 10.4075L38.0326 10.4061L37.8559 10.3125ZM37.6273 10.9746L37.4309 10.9372L37.4304 10.9397L37.6273 10.9746ZM37.85 13.3594L37.674 13.4544L37.6764 13.4586L37.85 13.3594ZM38.2953 13.8223L38.1893 13.9919L38.1919 13.9934L38.2953 13.8223ZM39.0102 14.1922C39.2672 14.1922 39.5049 14.1419 39.7192 14.0371L39.5433 13.6778C39.3904 13.7526 39.2141 13.7922 39.0102 13.7922V14.1922ZM39.7207 14.0363C39.9367 13.9283 40.1136 13.7776 40.247 13.5843L39.9178 13.3571C39.8247 13.492 39.7008 13.5991 39.5418 13.6785L39.7207 14.0363ZM40.2452 13.587C40.3859 13.3899 40.4618 13.1633 40.4755 12.9132L40.0761 12.8915C40.0663 13.071 40.0133 13.2234 39.9197 13.3545L40.2452 13.587ZM40.2758 13.1023H41.6059V12.7023H40.2758V13.1023ZM41.4059 12.8985C41.3988 13.2691 41.2902 13.6037 41.0786 13.907L41.4066 14.1359C41.6637 13.7674 41.7973 13.3559 41.8058 12.9062L41.4059 12.8985ZM41.0786 13.907C40.864 14.2146 40.579 14.4612 40.2193 14.6464L40.4025 15.002C40.8163 14.7888 41.1524 14.5002 41.4066 14.1359L41.0786 13.907ZM40.2208 14.6457C39.8643 14.8258 39.4678 14.9172 39.0277 14.9172V15.3172C39.5252 15.3172 39.9842 15.2133 40.4011 15.0027L40.2208 14.6457ZM39.0277 14.9172C38.5657 14.9172 38.1733 14.8389 37.8452 14.6892L37.6791 15.053C38.0697 15.2314 38.521 15.3172 39.0277 15.3172V14.9172ZM37.8468 14.6899C37.5133 14.5341 37.2391 14.3219 37.0208 14.0535L36.7105 14.3059C36.9688 14.6234 37.2921 14.8722 37.6774 15.0523L37.8468 14.6899ZM37.0208 14.0535C36.7994 13.7813 36.6312 13.466 36.5172 13.1057L36.1359 13.2263C36.2641 13.6316 36.4553 13.9922 36.7105 14.3059L37.0208 14.0535ZM36.5178 13.1075C36.4069 12.7453 36.3508 12.355 36.3508 11.9355H35.9508C35.9508 12.3911 36.0118 12.8211 36.1353 13.2246L36.5178 13.1075ZM36.3508 11.9355V11.7305H35.9508V11.9355H36.3508ZM36.3508 11.7305C36.3508 11.311 36.4069 10.9207 36.5178 10.5585L36.1353 10.4415C36.0118 10.8449 35.9508 11.275 35.9508 11.7305H36.3508ZM36.5174 10.5598C36.6315 10.1955 36.7996 9.87855 37.0208 9.60667L36.7105 9.35427C36.455 9.66832 36.2638 10.0311 36.1357 10.4402L36.5174 10.5598ZM37.0208 9.60667C37.2387 9.33869 37.5125 9.12874 37.8452 8.97686L37.6791 8.61298C37.293 8.78922 36.9691 9.03631 36.7105 9.35427L37.0208 9.60667ZM37.8468 8.97611C38.1747 8.82287 38.5646 8.74297 39.0219 8.74297V8.34297C38.5182 8.34297 38.0683 8.43104 37.6774 8.61374L37.8468 8.97611ZM39.0219 8.74297C39.5026 8.74297 39.9147 8.83896 40.2641 9.02433L40.4516 8.67099C40.0353 8.45011 39.5567 8.34297 39.0219 8.34297V8.74297ZM40.2655 9.02507C40.6168 9.20789 40.8901 9.46218 41.0893 9.78954L41.431 9.58156C41.1928 9.19017 40.8645 8.88586 40.4501 8.67024L40.2655 9.02507ZM41.0907 9.79171C41.2916 10.1125 41.3986 10.4901 41.4059 10.931L41.8058 10.9244C41.7975 10.4201 41.674 9.9695 41.4297 9.57938L41.0907 9.79171ZM41.6059 10.7277H40.2758V11.1277H41.6059V10.7277ZM40.4755 10.9177C40.4624 10.6553 40.3963 10.4137 40.2743 10.1969L39.9257 10.393C40.0146 10.5511 40.0657 10.7314 40.076 10.9377L40.4755 10.9177ZM40.2767 10.2012C40.158 9.97744 39.9879 9.79848 39.7698 9.66671L39.563 10.0091C39.7199 10.1039 39.8389 10.2296 39.9233 10.3887L40.2767 10.2012ZM39.7714 9.66768C39.5506 9.53142 39.2919 9.46797 39.0043 9.46797V9.86797C39.2323 9.86797 39.415 9.9178 39.5614 10.0081L39.7714 9.66768ZM39.0043 9.46797C38.6924 9.46797 38.4166 9.5321 38.1893 9.67415L38.4013 10.0133C38.549 9.92102 38.7459 9.86797 39.0043 9.86797V9.46797ZM38.1919 9.67257C37.9724 9.80516 37.801 9.98864 37.6791 10.2189L38.0326 10.4061C38.1216 10.2379 38.2432 10.1089 38.3987 10.0149L38.1919 9.67257ZM37.6799 10.2175C37.5635 10.433 37.4811 10.6735 37.4309 10.9372L37.8238 11.012C37.8673 10.7835 37.9373 10.5827 38.0318 10.4075L37.6799 10.2175ZM37.4304 10.9397C37.3853 11.1941 37.3629 11.4578 37.3629 11.7305H37.7629C37.7629 11.4797 37.7835 11.2395 37.8243 11.0095L37.4304 10.9397ZM37.3629 11.7305V11.9355H37.7629V11.7305H37.3629ZM37.3629 11.9355C37.3629 12.2083 37.3853 12.4737 37.4303 12.7317L37.8244 12.6629C37.7835 12.4287 37.7629 12.1863 37.7629 11.9355H37.3629ZM37.4303 12.7317C37.4765 12.9963 37.5571 13.2379 37.674 13.4544L38.026 13.2643C37.9319 13.0902 37.8641 12.8904 37.8244 12.6629L37.4303 12.7317ZM37.6764 13.4586C37.8022 13.6788 37.9739 13.8572 38.1893 13.9919L38.4013 13.6527C38.2417 13.5529 38.1166 13.4228 38.0236 13.2601L37.6764 13.4586ZM38.1919 13.9934C38.4191 14.1307 38.696 14.1922 39.0102 14.1922V13.7922C38.7462 13.7922 38.5466 13.7404 38.3987 13.6511L38.1919 13.9934ZM45.7161 8.66016H45.9161V8.46016H45.7161V8.66016ZM45.7161 9.69141V9.89141H45.9161V9.69141H45.7161ZM42.1419 9.69141H41.9419V9.89141H42.1419V9.69141ZM42.1419 8.66016V8.46016H41.9419V8.66016H42.1419ZM43.1731 7.10742V6.90742H42.9731V7.10742H43.1731ZM44.5852 7.10742H44.7852V6.90742H44.5852V7.10742ZM44.6673 13.6992L44.4895 13.7914L44.494 13.7992L44.6673 13.6992ZM45.763 13.9043L45.963 13.9032L45.9616 13.6572L45.7211 13.7087L45.763 13.9043ZM45.7688 14.9824L45.8263 15.174L45.9696 15.131L45.9688 14.9813L45.7688 14.9824ZM45.3587 15.0762L45.3242 14.8792L45.3233 14.8793L45.3587 15.0762ZM43.97 14.9473L43.8851 15.1284L43.8875 15.1294L43.97 14.9473ZM45.5161 8.66016V9.69141H45.9161V8.66016H45.5161ZM45.7161 9.49141H42.1419V9.89141H45.7161V9.49141ZM42.3419 9.69141V8.66016H41.9419V9.69141H42.3419ZM42.1419 8.86016H45.7161V8.46016H42.1419V8.86016ZM43.1731 7.30742H44.5852V6.90742H43.1731V7.30742ZM44.3852 7.10742V13.248H44.7852V7.10742H44.3852ZM44.3852 13.248C44.3852 13.4571 44.4137 13.6447 44.4897 13.7913L44.8448 13.6072C44.8115 13.5428 44.7852 13.4296 44.7852 13.248H44.3852ZM44.494 13.7992C44.5743 13.9383 44.6908 14.0409 44.8421 14.0933L44.9729 13.7153C44.9211 13.6974 44.8774 13.6632 44.8405 13.5993L44.494 13.7992ZM44.8421 14.0933C44.9695 14.1374 45.1117 14.157 45.2649 14.157V13.757C45.1447 13.757 45.0486 13.7415 44.9729 13.7153L44.8421 14.0933ZM45.2649 14.157C45.3706 14.157 45.473 14.1507 45.572 14.1378L45.5203 13.7411C45.4397 13.7517 45.3546 13.757 45.2649 13.757V14.157ZM45.572 14.1378C45.6644 14.1257 45.7427 14.1132 45.8049 14.0999L45.7211 13.7087C45.6739 13.7188 45.6076 13.7297 45.5203 13.7411L45.572 14.1378ZM45.563 13.9054L45.5688 14.9835L45.9688 14.9813L45.963 13.9032L45.563 13.9054ZM45.7114 14.7909C45.6036 14.8232 45.4748 14.8528 45.3242 14.8792L45.3931 15.2732C45.555 15.2448 45.6997 15.212 45.8263 15.174L45.7114 14.7909ZM45.3233 14.8793C45.1854 14.9041 45.0219 14.9172 44.8313 14.9172V15.3172C45.0392 15.3172 45.2272 15.303 45.394 15.273L45.3233 14.8793ZM44.8313 14.9172C44.5305 14.9172 44.2723 14.8647 44.0525 14.7651L43.8875 15.1294C44.1677 15.2564 44.4837 15.3172 44.8313 15.3172V14.9172ZM44.0549 14.7662C43.8468 14.6687 43.6822 14.5111 43.5602 14.2842L43.2079 14.4736C43.3672 14.7701 43.5932 14.9915 43.8851 15.1284L44.0549 14.7662ZM43.5602 14.2842C43.4408 14.0619 43.3731 13.7506 43.3731 13.3359H42.9731C42.9731 13.7885 43.0461 14.1724 43.2079 14.4736L43.5602 14.2842ZM43.3731 13.3359V7.10742H42.9731V13.3359H43.3731ZM50.3771 12.9023L50.2056 13.0053L50.2072 13.0078L50.3771 12.9023ZM49.9728 12.5859L49.8863 12.7662L49.8877 12.7669L49.9728 12.5859ZM49.1056 12.3281L49.0625 12.5234L49.0656 12.5241L49.1056 12.3281ZM48.1798 12.0645L48.1087 12.2514L48.1119 12.2526L48.1798 12.0645ZM48.2619 8.69531L48.1986 8.50557L48.1979 8.50582L48.2619 8.69531ZM50.6466 8.8125L50.5609 8.99322L50.5632 8.99425L50.6466 8.8125ZM51.5255 9.5332L51.3591 9.64415L51.3598 9.64513L51.5255 9.5332ZM51.8302 10.5527V10.7527H52.0302V10.5527H51.8302ZM50.4181 10.5527H50.2181V10.7527H50.4181V10.5527ZM50.2892 10.084L50.1141 10.1808L50.1173 10.1862L50.2892 10.084ZM49.9142 9.72656L49.8167 9.90123L49.8199 9.90292L49.9142 9.72656ZM48.6779 9.70312L48.7637 9.88379L48.7656 9.88288L48.6779 9.70312ZM48.3263 9.99609L48.1582 9.88764L48.1558 9.89158L48.3263 9.99609ZM48.2736 10.6816L48.0912 10.7645L48.0964 10.7744L48.2736 10.6816ZM48.4845 10.9102L48.3676 11.0725L48.3721 11.0755L48.4845 10.9102ZM48.883 11.0977L48.8171 11.2865L48.8184 11.287L48.883 11.0977ZM49.5275 11.2676L49.486 11.4632L49.4865 11.4633L49.5275 11.2676ZM50.7755 11.6602L50.6919 11.8418L50.6943 11.8429L50.7755 11.6602ZM51.5841 12.2695L51.4241 12.3895L51.4251 12.3907L51.5841 12.2695ZM51.6838 13.9805L51.5061 13.8887L51.5055 13.8898L51.6838 13.9805ZM51.1681 14.584L51.2872 14.7447L51.289 14.7433L51.1681 14.584ZM50.3537 14.9766L50.2969 14.7848L50.2962 14.785L50.3537 14.9766ZM47.84 14.8125L47.7478 14.99L47.7492 14.9907L47.84 14.8125ZM46.9318 14.0215L46.7623 14.1277L46.7638 14.13L46.9318 14.0215ZM46.6271 13.0137V12.8137H46.4271V13.0137H46.6271ZM47.9923 13.0137L48.192 13.0018L48.1808 12.8137H47.9923V13.0137ZM48.2091 13.6406L48.0548 13.7679L48.0584 13.7721L48.2091 13.6406ZM48.7013 13.9746L48.6336 14.1628L48.6381 14.1643L48.7013 13.9746ZM49.9552 13.9746L50.0273 14.1612L50.031 14.1597L49.9552 13.9746ZM50.3478 13.6934L50.5066 13.8151L50.5084 13.8125L50.3478 13.6934ZM50.6826 13.2832C50.6826 13.1074 50.6381 12.9436 50.547 12.7969L50.2072 13.0078C50.2567 13.0877 50.2826 13.1777 50.2826 13.2832H50.6826ZM50.5486 12.7994C50.4489 12.6333 50.2731 12.5062 50.058 12.405L49.8877 12.7669C50.071 12.8532 50.1647 12.937 50.2056 13.0052L50.5486 12.7994ZM50.0594 12.4056C49.8419 12.3012 49.5339 12.2114 49.1456 12.1322L49.0656 12.5241C49.443 12.6011 49.7131 12.6831 49.8863 12.7662L50.0594 12.4056ZM49.1488 12.1328C48.82 12.0602 48.5198 11.9746 48.2478 11.8763L48.1119 12.2526C48.4024 12.3574 48.7194 12.4476 49.0625 12.5234L49.1488 12.1328ZM48.2509 11.8775C47.9876 11.7774 47.7663 11.6587 47.5845 11.5232L47.3455 11.844C47.5621 12.0054 47.8174 12.1406 48.1088 12.2514L48.2509 11.8775ZM47.5845 11.5232C47.4069 11.3909 47.2727 11.2369 47.1782 11.0614L46.826 11.2511C46.9503 11.4819 47.1247 11.6794 47.3455 11.844L47.5845 11.5232ZM47.1782 11.0614C47.0868 10.8916 47.038 10.6907 47.038 10.4531H46.638C46.638 10.7468 46.6987 11.0147 46.826 11.2511L47.1782 11.0614ZM47.038 10.4531C47.038 10.2258 47.0877 10.0118 47.1875 9.80893L46.8285 9.63248C46.7016 9.89051 46.638 10.1648 46.638 10.4531H47.038ZM47.1875 9.80893C47.2875 9.60534 47.4314 9.42406 47.6223 9.26497L47.3663 8.95768C47.1353 9.15016 46.955 9.37512 46.8285 9.63248L47.1875 9.80893ZM47.6223 9.26497C47.8116 9.10725 48.0449 8.97969 48.3259 8.8848L48.1979 8.50582C47.8773 8.61406 47.5989 8.76384 47.3663 8.95768L47.6223 9.26497ZM48.3251 8.88505C48.6063 8.79131 48.9244 8.74297 49.2814 8.74297V8.34297C48.8884 8.34297 48.5268 8.39619 48.1986 8.50558L48.3251 8.88505ZM49.2814 8.74297C49.7907 8.74297 50.215 8.82914 50.5609 8.99321L50.7323 8.63179C50.3205 8.43648 49.8346 8.34297 49.2814 8.34297V8.74297ZM50.5632 8.99425C50.9175 9.15694 51.1795 9.3747 51.3591 9.64414L51.692 9.42226C51.4653 9.08233 51.1414 8.81962 50.7301 8.63075L50.5632 8.99425ZM51.3598 9.64513C51.5396 9.91135 51.6302 10.2119 51.6302 10.5527H52.0302C52.0302 10.1358 51.9178 9.75662 51.6913 9.42127L51.3598 9.64513ZM51.8302 10.3527H50.4181V10.7527H51.8302V10.3527ZM50.6181 10.5527C50.6181 10.3487 50.5654 10.1572 50.4611 9.98177L50.1173 10.1862C50.1849 10.2998 50.2181 10.4208 50.2181 10.5527H50.6181ZM50.4643 9.98725C50.3613 9.80099 50.2062 9.65593 50.0085 9.55021L49.8199 9.90292C49.9582 9.97688 50.053 10.0701 50.1142 10.1807L50.4643 9.98725ZM50.0117 9.55192C49.8059 9.43706 49.5589 9.38594 49.2814 9.38594V9.78594C49.5118 9.78594 49.6866 9.82857 49.8167 9.9012L50.0117 9.55192ZM49.2814 9.38594C49.0192 9.38594 48.7857 9.42803 48.5902 9.52337L48.7656 9.88288C48.8904 9.82197 49.0593 9.78594 49.2814 9.78594V9.38594ZM48.5921 9.52247C48.409 9.60943 48.2603 9.72956 48.1583 9.88767L48.4944 10.1045C48.5486 10.0204 48.6343 9.94526 48.7637 9.88378L48.5921 9.52247ZM48.1558 9.89158C48.062 10.0447 48.015 10.2138 48.015 10.3945H48.415C48.415 10.2862 48.4423 10.1897 48.4968 10.1006L48.1558 9.89158ZM48.015 10.3945C48.015 10.5252 48.0393 10.6496 48.0915 10.7644L48.4557 10.5989C48.4297 10.5418 48.415 10.4748 48.415 10.3945H48.015ZM48.0964 10.7744C48.1575 10.891 48.2521 10.9892 48.3677 11.0725L48.6014 10.7478C48.5217 10.6905 48.4756 10.6363 48.4508 10.5888L48.0964 10.7744ZM48.3721 11.0755C48.4895 11.1554 48.6401 11.2247 48.8171 11.2865L48.9488 10.9088C48.7899 10.8534 48.6749 10.7977 48.597 10.7448L48.3721 11.0755ZM48.8184 11.287C49.0004 11.349 49.2235 11.4076 49.486 11.4632L49.569 11.0719C49.3158 11.0182 49.1093 10.9635 48.9475 10.9084L48.8184 11.287ZM49.4865 11.4633C49.9602 11.5626 50.3611 11.6895 50.6919 11.8418L50.8592 11.4785C50.4946 11.3105 50.0636 11.1756 49.5685 11.0718L49.4865 11.4633ZM50.6943 11.8429C51.0218 11.9885 51.2613 12.1725 51.4241 12.3895L51.7441 12.1495C51.5319 11.8666 51.2324 11.6443 50.8568 11.4774L50.6943 11.8429ZM51.4251 12.3907C51.5805 12.5948 51.6654 12.8618 51.6654 13.207H52.0654C52.0654 12.7944 51.9628 12.4365 51.7432 12.1483L51.4251 12.3907ZM51.6654 13.207C51.6654 13.4585 51.6115 13.6845 51.5061 13.8887L51.8614 14.0723C51.9982 13.8077 52.0654 13.5181 52.0654 13.207H51.6654ZM51.5055 13.8898C51.4033 14.0907 51.2522 14.2692 51.0472 14.4246L51.289 14.7433C51.5372 14.555 51.7298 14.3311 51.862 14.0711L51.5055 13.8898ZM51.049 14.4233C50.8441 14.5752 50.5946 14.6966 50.2969 14.7848L50.4105 15.1683C50.7456 15.069 51.039 14.9287 51.2872 14.7446L51.049 14.4233ZM50.2962 14.785C50.0056 14.8722 49.6739 14.9172 49.299 14.9172V15.3172C49.7054 15.3172 50.0767 15.2684 50.4111 15.1681L50.2962 14.785ZM49.299 14.9172C48.7476 14.9172 48.2943 14.8196 47.9308 14.6343L47.7492 14.9907C48.1826 15.2116 48.7019 15.3172 49.299 15.3172V14.9172ZM47.9322 14.635C47.5591 14.4411 47.2849 14.1993 47.0998 13.9129L46.7638 14.13C46.9928 14.4843 47.324 14.7698 47.7478 14.99L47.9322 14.635ZM47.1013 13.9153C46.916 13.6196 46.8271 13.32 46.8271 13.0137H46.4271C46.4271 13.4026 46.5413 13.7749 46.7623 14.1277L47.1013 13.9153ZM46.6271 13.2137H47.9923V12.8137H46.6271V13.2137ZM47.7927 13.0256C47.8101 13.3171 47.892 13.5705 48.0549 13.7679L48.3634 13.5133C48.2684 13.3982 48.2058 13.2336 48.192 13.0018L47.7927 13.0256ZM48.0584 13.7721C48.2142 13.9508 48.4071 14.0813 48.6336 14.1628L48.7691 13.7864C48.6049 13.7273 48.4697 13.6351 48.3599 13.5092L48.0584 13.7721ZM48.6381 14.1643C48.8578 14.2376 49.0842 14.2742 49.3166 14.2742V13.8742C49.127 13.8742 48.9433 13.8445 48.7646 13.7849L48.6381 14.1643ZM49.3166 14.2742C49.5864 14.2742 49.8255 14.2391 50.0273 14.1612L49.8832 13.788C49.7412 13.8429 49.5545 13.8742 49.3166 13.8742V14.2742ZM50.031 14.1597C50.2273 14.0794 50.3902 13.9667 50.5065 13.815L50.1891 13.5717C50.1257 13.6544 50.0269 13.7292 49.8795 13.7895L50.031 14.1597ZM50.5084 13.8125C50.6241 13.6566 50.6826 13.478 50.6826 13.2832H50.2826C50.2826 13.3931 50.2512 13.4879 50.1872 13.5742L50.5084 13.8125Z" fill="#010101" fill-opacity="0.098" mask="url(#path-2-inside-1_2_97)"/>
<path d="M10.1445 8.87891V16.4375H8.73242V7.66016H10.0332L10.1445 8.87891ZM14.2754 10.7715V10.8945C14.2754 11.3555 14.2207 11.7832 14.1113 12.1777C14.0059 12.5684 13.8477 12.9102 13.6367 13.2031C13.4297 13.4922 13.1738 13.7168 12.8691 13.877C12.5645 14.0371 12.2129 14.1172 11.8145 14.1172C11.4199 14.1172 11.0742 14.0449 10.7773 13.9004C10.4844 13.752 10.2363 13.543 10.0332 13.2734C9.83008 13.0039 9.66602 12.6875 9.54102 12.3242C9.41992 11.957 9.33398 11.5547 9.2832 11.1172V10.6426C9.33398 10.1777 9.41992 9.75586 9.54102 9.37695C9.66602 8.99805 9.83008 8.67188 10.0332 8.39844C10.2363 8.125 10.4844 7.91406 10.7773 7.76562C11.0703 7.61719 11.4121 7.54297 11.8027 7.54297C12.2012 7.54297 12.5547 7.62109 12.8633 7.77734C13.1719 7.92969 13.4316 8.14844 13.6426 8.43359C13.8535 8.71484 14.0117 9.05469 14.1172 9.45312C14.2227 9.84766 14.2754 10.2871 14.2754 10.7715ZM12.8633 10.8945V10.7715C12.8633 10.4785 12.8359 10.207 12.7812 9.95703C12.7266 9.70312 12.6406 9.48047 12.5234 9.28906C12.4062 9.09766 12.2559 8.94922 12.0723 8.84375C11.8926 8.73438 11.6758 8.67969 11.4219 8.67969C11.1719 8.67969 10.957 8.72266 10.7773 8.80859C10.5977 8.89062 10.4473 9.00586 10.3262 9.1543C10.2051 9.30273 10.1113 9.47656 10.0449 9.67578C9.97852 9.87109 9.93164 10.084 9.9043 10.3145V11.4512C9.95117 11.7324 10.0312 11.9902 10.1445 12.2246C10.2578 12.459 10.418 12.6465 10.625 12.7871C10.8359 12.9238 11.1055 12.9922 11.4336 12.9922C11.6875 12.9922 11.9043 12.9375 12.084 12.8281C12.2637 12.7188 12.4102 12.5684 12.5234 12.377C12.6406 12.1816 12.7266 11.957 12.7812 11.7031C12.8359 11.4492 12.8633 11.1797 12.8633 10.8945ZM17.0145 8.86719V14H15.6024V7.66016H16.9501L17.0145 8.86719ZM18.954 7.61914L18.9423 8.93164C18.8563 8.91602 18.7626 8.9043 18.661 8.89648C18.5634 8.88867 18.4657 8.88477 18.368 8.88477C18.1259 8.88477 17.913 8.91992 17.7294 8.99023C17.5458 9.05664 17.3915 9.1543 17.2665 9.2832C17.1454 9.4082 17.0516 9.56055 16.9852 9.74023C16.9188 9.91992 16.8798 10.1211 16.868 10.3438L16.5458 10.3672C16.5458 9.96875 16.5848 9.59961 16.663 9.25977C16.7411 8.91992 16.8583 8.62109 17.0145 8.36328C17.1747 8.10547 17.3739 7.9043 17.6122 7.75977C17.8544 7.61523 18.1337 7.54297 18.4501 7.54297C18.536 7.54297 18.6278 7.55078 18.7255 7.56641C18.827 7.58203 18.9032 7.59961 18.954 7.61914ZM19.5369 10.9004V10.7656C19.5369 10.3086 19.6033 9.88477 19.7361 9.49414C19.8689 9.09961 20.0603 8.75781 20.3103 8.46875C20.5642 8.17578 20.8728 7.94922 21.2361 7.78906C21.6033 7.625 22.0173 7.54297 22.4783 7.54297C22.9431 7.54297 23.3572 7.625 23.7205 7.78906C24.0877 7.94922 24.3982 8.17578 24.6521 8.46875C24.906 8.75781 25.0994 9.09961 25.2322 9.49414C25.365 9.88477 25.4314 10.3086 25.4314 10.7656V10.9004C25.4314 11.3574 25.365 11.7812 25.2322 12.1719C25.0994 12.5625 24.906 12.9043 24.6521 13.1973C24.3982 13.4863 24.0896 13.7129 23.7263 13.877C23.363 14.0371 22.9509 14.1172 22.49 14.1172C22.0252 14.1172 21.6091 14.0371 21.242 13.877C20.8787 13.7129 20.5701 13.4863 20.3162 13.1973C20.0623 12.9043 19.8689 12.5625 19.7361 12.1719C19.6033 11.7812 19.5369 11.3574 19.5369 10.9004ZM20.949 10.7656V10.9004C20.949 11.1855 20.9783 11.4551 21.0369 11.709C21.0955 11.9629 21.1873 12.1855 21.3123 12.377C21.4373 12.5684 21.5974 12.7188 21.7927 12.8281C21.988 12.9375 22.2205 12.9922 22.49 12.9922C22.7517 12.9922 22.9783 12.9375 23.1697 12.8281C23.365 12.7188 23.5252 12.5684 23.6502 12.377C23.7752 12.1855 23.867 11.9629 23.9255 11.709C23.988 11.4551 24.0193 11.1855 24.0193 10.9004V10.7656C24.0193 10.4844 23.988 10.2188 23.9255 9.96875C23.867 9.71484 23.7732 9.49023 23.6443 9.29492C23.5193 9.09961 23.3591 8.94727 23.1638 8.83789C22.9724 8.72461 22.7439 8.66797 22.4783 8.66797C22.2127 8.66797 21.9822 8.72461 21.7869 8.83789C21.5955 8.94727 21.4373 9.09961 21.3123 9.29492C21.1873 9.49023 21.0955 9.71484 21.0369 9.96875C20.9783 10.2188 20.949 10.4844 20.949 10.7656ZM26.8053 7.66016H28.2233V14.5508C28.2233 14.9844 28.1491 15.3496 28.0006 15.6465C27.8522 15.9473 27.6334 16.1738 27.3444 16.3262C27.0553 16.4824 26.7018 16.5605 26.2838 16.5605C26.1588 16.5605 26.0299 16.5508 25.8971 16.5312C25.7604 16.5156 25.6315 16.4922 25.5104 16.4609L25.5163 15.3594C25.5983 15.375 25.6862 15.3867 25.7799 15.3945C25.8698 15.4062 25.9557 15.4121 26.0377 15.4121C26.2057 15.4121 26.3463 15.3828 26.4596 15.3242C26.5729 15.2656 26.6588 15.1738 26.7174 15.0488C26.776 14.9238 26.8053 14.7578 26.8053 14.5508V7.66016ZM26.6823 5.99609C26.6823 5.78125 26.7545 5.60352 26.8991 5.46289C27.0436 5.31836 27.2409 5.24609 27.4909 5.24609C27.7448 5.24609 27.942 5.31836 28.0827 5.46289C28.2272 5.60352 28.2995 5.78125 28.2995 5.99609C28.2995 6.20703 28.2272 6.38281 28.0827 6.52344C27.942 6.66406 27.7448 6.73438 27.4909 6.73438C27.2409 6.73438 27.0436 6.66406 26.8991 6.52344C26.7545 6.38281 26.6823 6.20703 26.6823 5.99609ZM32.6616 14.1172C32.1929 14.1172 31.7691 14.041 31.3902 13.8887C31.0152 13.7324 30.6948 13.5156 30.4292 13.2383C30.1675 12.9609 29.9663 12.6348 29.8257 12.2598C29.6851 11.8848 29.6148 11.4805 29.6148 11.0469V10.8125C29.6148 10.3164 29.687 9.86719 29.8316 9.46484C29.9761 9.0625 30.1773 8.71875 30.4351 8.43359C30.6929 8.14453 30.9976 7.92383 31.3491 7.77148C31.7007 7.61914 32.0816 7.54297 32.4917 7.54297C32.9448 7.54297 33.3413 7.61914 33.6812 7.77148C34.021 7.92383 34.3023 8.13867 34.5249 8.41602C34.7515 8.68945 34.9195 9.01562 35.0288 9.39453C35.1421 9.77344 35.1987 10.1914 35.1987 10.6484V11.252H30.3003V10.2383H33.8042V10.127C33.7964 9.87305 33.7456 9.63477 33.6519 9.41211C33.562 9.18945 33.4234 9.00977 33.2359 8.87305C33.0484 8.73633 32.7984 8.66797 32.4859 8.66797C32.2515 8.66797 32.0425 8.71875 31.8589 8.82031C31.6792 8.91797 31.5288 9.06055 31.4077 9.24805C31.2866 9.43555 31.1929 9.66211 31.1265 9.92773C31.064 10.1895 31.0327 10.4844 31.0327 10.8125V11.0469C31.0327 11.3242 31.0698 11.582 31.1441 11.8203C31.2222 12.0547 31.3355 12.2598 31.4839 12.4355C31.6323 12.6113 31.812 12.75 32.023 12.8516C32.2339 12.9492 32.4741 12.998 32.7437 12.998C33.0835 12.998 33.3862 12.9297 33.6519 12.793C33.9175 12.6562 34.148 12.4629 34.3433 12.2129L35.0874 12.9336C34.9507 13.1328 34.773 13.3242 34.5542 13.5078C34.3355 13.6875 34.0679 13.834 33.7515 13.9473C33.439 14.0605 33.0757 14.1172 32.6616 14.1172ZM39.0102 12.9922C39.2406 12.9922 39.4477 12.9473 39.6313 12.8574C39.8188 12.7637 39.9691 12.6348 40.0824 12.4707C40.1996 12.3066 40.2641 12.1172 40.2758 11.9023H41.6059C41.598 12.3125 41.477 12.6855 41.2426 13.0215C41.0082 13.3574 40.6977 13.625 40.3109 13.8242C39.9242 14.0195 39.4965 14.1172 39.0277 14.1172C38.5434 14.1172 38.1215 14.0352 37.7621 13.8711C37.4027 13.7031 37.1039 13.4727 36.8656 13.1797C36.6273 12.8867 36.4477 12.5488 36.3266 12.166C36.2094 11.7832 36.1508 11.373 36.1508 10.9355V10.7305C36.1508 10.293 36.2094 9.88281 36.3266 9.5C36.4477 9.11328 36.6273 8.77344 36.8656 8.48047C37.1039 8.1875 37.4027 7.95898 37.7621 7.79492C38.1215 7.62695 38.5414 7.54297 39.0219 7.54297C39.5297 7.54297 39.975 7.64453 40.3578 7.84766C40.7406 8.04688 41.0414 8.32617 41.2602 8.68555C41.4828 9.04102 41.598 9.45508 41.6059 9.92773H40.2758C40.2641 9.69336 40.2055 9.48242 40.1 9.29492C39.9984 9.10352 39.8539 8.95117 39.6664 8.83789C39.4828 8.72461 39.2621 8.66797 39.0043 8.66797C38.7191 8.66797 38.4828 8.72656 38.2953 8.84375C38.1078 8.95703 37.9613 9.11328 37.8559 9.3125C37.7504 9.50781 37.6742 9.72852 37.6273 9.97461C37.5844 10.2168 37.5629 10.4688 37.5629 10.7305V10.9355C37.5629 11.1973 37.5844 11.4512 37.6273 11.6973C37.6703 11.9434 37.7445 12.1641 37.85 12.3594C37.9594 12.5508 38.1078 12.7051 38.2953 12.8223C38.4828 12.9355 38.7211 12.9922 39.0102 12.9922ZM45.7161 7.66016V8.69141H42.1419V7.66016H45.7161ZM43.1731 6.10742H44.5852V12.248C44.5852 12.4434 44.6126 12.5938 44.6673 12.6992C44.7259 12.8008 44.8059 12.8691 44.9075 12.9043C45.0091 12.9395 45.1282 12.957 45.2649 12.957C45.3626 12.957 45.4563 12.9512 45.5462 12.9395C45.636 12.9277 45.7083 12.916 45.763 12.9043L45.7688 13.9824C45.6516 14.0176 45.5149 14.0488 45.3587 14.0762C45.2063 14.1035 45.0305 14.1172 44.8313 14.1172C44.5071 14.1172 44.22 14.0605 43.97 13.9473C43.72 13.8301 43.5247 13.6406 43.3841 13.3789C43.2434 13.1172 43.1731 12.7695 43.1731 12.3359V6.10742ZM50.4826 12.2832C50.4826 12.1426 50.4474 12.0156 50.3771 11.9023C50.3068 11.7852 50.172 11.6797 49.9728 11.5859C49.7775 11.4922 49.4884 11.4062 49.1056 11.3281C48.7697 11.2539 48.4611 11.166 48.1798 11.0645C47.9025 10.959 47.6642 10.832 47.465 10.6836C47.2658 10.5352 47.1115 10.3594 47.0021 10.1562C46.8927 9.95312 46.838 9.71875 46.838 9.45312C46.838 9.19531 46.8947 8.95117 47.008 8.7207C47.1213 8.49023 47.2834 8.28711 47.4943 8.11133C47.7052 7.93555 47.9611 7.79688 48.2619 7.69531C48.5666 7.59375 48.9064 7.54297 49.2814 7.54297C49.8127 7.54297 50.2677 7.63281 50.6466 7.8125C51.0295 7.98828 51.3224 8.22852 51.5255 8.5332C51.7287 8.83398 51.8302 9.17383 51.8302 9.55273H50.4181C50.4181 9.38477 50.3752 9.22852 50.2892 9.08398C50.2072 8.93555 50.0822 8.81641 49.9142 8.72656C49.7463 8.63281 49.5353 8.58594 49.2814 8.58594C49.0392 8.58594 48.838 8.625 48.6779 8.70312C48.5216 8.77734 48.4045 8.875 48.3263 8.99609C48.2521 9.11719 48.215 9.25 48.215 9.39453C48.215 9.5 48.2345 9.5957 48.2736 9.68164C48.3166 9.76367 48.3869 9.83984 48.4845 9.91016C48.5822 9.97656 48.715 10.0391 48.883 10.0977C49.0548 10.1562 49.2697 10.2129 49.5275 10.2676C50.0119 10.3691 50.4279 10.5 50.7755 10.6602C51.1271 10.8164 51.3966 11.0195 51.5841 11.2695C51.7716 11.5156 51.8654 11.8281 51.8654 12.207C51.8654 12.4883 51.8048 12.7461 51.6838 12.9805C51.5666 13.2109 51.3947 13.4121 51.1681 13.584C50.9416 13.752 50.6701 13.8828 50.3537 13.9766C50.0412 14.0703 49.6896 14.1172 49.299 14.1172C48.7248 14.1172 48.2384 14.0156 47.84 13.8125C47.4416 13.6055 47.1388 13.3418 46.9318 13.0215C46.7287 12.6973 46.6271 12.3613 46.6271 12.0137H47.9923C48.008 12.2754 48.0802 12.4844 48.2091 12.6406C48.342 12.793 48.506 12.9043 48.7013 12.9746C48.9005 13.041 49.1056 13.0742 49.3166 13.0742C49.5705 13.0742 49.7834 13.041 49.9552 12.9746C50.1271 12.9043 50.258 12.8105 50.3478 12.6934C50.4377 12.5723 50.4826 12.4355 50.4826 12.2832Z" fill="white"/>
<path d="M58 0H88C89.6569 0 91 1.34315 91 3V17C91 18.6569 89.6569 20 88 20H58V0Z" fill="#C92121"/>
<mask id="path-6-inside-2_2_97" fill="white">
<path d="M68.5 6.43945V15H67.0879V8.11523L64.9961 8.82422V7.6582L68.3301 6.43945H68.5ZM73.0673 11.0332L71.9423 10.7578L72.4052 6.46875H77.0048V7.66406H73.577L73.3427 9.75586C73.4755 9.67773 73.6591 9.60156 73.8934 9.52734C74.1278 9.44922 74.3954 9.41016 74.6962 9.41016C75.0985 9.41016 75.4579 9.47656 75.7743 9.60938C76.0946 9.73828 76.3661 9.92773 76.5887 10.1777C76.8114 10.4238 76.9813 10.7246 77.0985 11.0801C77.2157 11.4316 77.2743 11.8281 77.2743 12.2695C77.2743 12.6641 77.2157 13.0332 77.0985 13.377C76.9852 13.7207 76.8134 14.0234 76.5829 14.2852C76.3524 14.5469 76.0614 14.752 75.7098 14.9004C75.3622 15.0449 74.9501 15.1172 74.4735 15.1172C74.118 15.1172 73.7762 15.0664 73.4481 14.9648C73.1239 14.8594 72.8329 14.7051 72.5751 14.502C72.3173 14.2949 72.1102 14.041 71.954 13.7402C71.7977 13.4355 71.7079 13.0859 71.6845 12.6914H73.0673C73.1024 12.9688 73.1786 13.2051 73.2958 13.4004C73.4169 13.5918 73.577 13.7383 73.7762 13.8398C73.9755 13.9414 74.2059 13.9922 74.4677 13.9922C74.7059 13.9922 74.911 13.9512 75.0829 13.8691C75.2548 13.7832 75.3973 13.6621 75.5106 13.5059C75.6278 13.3457 75.7137 13.1582 75.7684 12.9434C75.827 12.7285 75.8563 12.4902 75.8563 12.2285C75.8563 11.9785 75.8231 11.75 75.7567 11.543C75.6942 11.3359 75.5985 11.1562 75.4696 11.0039C75.3446 10.8516 75.1864 10.7344 74.995 10.6523C74.8036 10.5664 74.5829 10.5234 74.3329 10.5234C73.997 10.5234 73.7391 10.5723 73.5595 10.6699C73.3837 10.7676 73.2196 10.8887 73.0673 11.0332ZM84.115 10.3242V11.5957H78.2673V10.3242H84.115ZM81.8767 7.93359V14.1445H80.5115V7.93359H81.8767Z"/>
</mask>
<path d="M68.5 6.43945V15H67.0879V8.11523L64.9961 8.82422V7.6582L68.3301 6.43945H68.5ZM73.0673 11.0332L71.9423 10.7578L72.4052 6.46875H77.0048V7.66406H73.577L73.3427 9.75586C73.4755 9.67773 73.6591 9.60156 73.8934 9.52734C74.1278 9.44922 74.3954 9.41016 74.6962 9.41016C75.0985 9.41016 75.4579 9.47656 75.7743 9.60938C76.0946 9.73828 76.3661 9.92773 76.5887 10.1777C76.8114 10.4238 76.9813 10.7246 77.0985 11.0801C77.2157 11.4316 77.2743 11.8281 77.2743 12.2695C77.2743 12.6641 77.2157 13.0332 77.0985 13.377C76.9852 13.7207 76.8134 14.0234 76.5829 14.2852C76.3524 14.5469 76.0614 14.752 75.7098 14.9004C75.3622 15.0449 74.9501 15.1172 74.4735 15.1172C74.118 15.1172 73.7762 15.0664 73.4481 14.9648C73.1239 14.8594 72.8329 14.7051 72.5751 14.502C72.3173 14.2949 72.1102 14.041 71.954 13.7402C71.7977 13.4355 71.7079 13.0859 71.6845 12.6914H73.0673C73.1024 12.9688 73.1786 13.2051 73.2958 13.4004C73.4169 13.5918 73.577 13.7383 73.7762 13.8398C73.9755 13.9414 74.2059 13.9922 74.4677 13.9922C74.7059 13.9922 74.911 13.9512 75.0829 13.8691C75.2548 13.7832 75.3973 13.6621 75.5106 13.5059C75.6278 13.3457 75.7137 13.1582 75.7684 12.9434C75.827 12.7285 75.8563 12.4902 75.8563 12.2285C75.8563 11.9785 75.8231 11.75 75.7567 11.543C75.6942 11.3359 75.5985 11.1562 75.4696 11.0039C75.3446 10.8516 75.1864 10.7344 74.995 10.6523C74.8036 10.5664 74.5829 10.5234 74.3329 10.5234C73.997 10.5234 73.7391 10.5723 73.5595 10.6699C73.3837 10.7676 73.2196 10.8887 73.0673 11.0332ZM84.115 10.3242V11.5957H78.2673V10.3242H84.115ZM81.8767 7.93359V14.1445H80.5115V7.93359H81.8767Z" fill="#010101" fill-opacity="0.3"/>
<path d="M68.5 6.43945H68.7V6.23945H68.5V6.43945ZM68.5 15V15.2H68.7V15H68.5ZM67.0879 15H66.8879V15.2H67.0879V15ZM67.0879 8.11523H67.2879V7.83627L67.0237 7.92582L67.0879 8.11523ZM64.9961 8.82422H64.7961V9.10318L65.0603 9.01363L64.9961 8.82422ZM64.9961 7.6582L64.9274 7.47036L64.7961 7.51837V7.6582H64.9961ZM68.3301 6.43945V6.23945H68.2947L68.2614 6.25161L68.3301 6.43945ZM68.3 6.43945V15H68.7V6.43945H68.3ZM68.5 14.8H67.0879V15.2H68.5V14.8ZM67.2879 15V8.11523H66.8879V15H67.2879ZM67.0237 7.92582L64.9319 8.6348L65.0603 9.01363L67.1521 8.30465L67.0237 7.92582ZM65.1961 8.82422V7.6582H64.7961V8.82422H65.1961ZM65.0648 7.84605L68.3987 6.6273L68.2614 6.25161L64.9274 7.47036L65.0648 7.84605ZM68.3301 6.63945H68.5V6.23945H68.3301V6.63945ZM73.0673 11.0332L73.0197 11.2275L73.1257 11.2534L73.2049 11.1783L73.0673 11.0332ZM71.9423 10.7578L71.7434 10.7364L71.7246 10.9104L71.8947 10.9521L71.9423 10.7578ZM72.4052 6.46875V6.26875H72.2256L72.2063 6.44729L72.4052 6.46875ZM77.0048 6.46875H77.2048V6.26875H77.0048V6.46875ZM77.0048 7.66406V7.86406H77.2048V7.66406H77.0048ZM73.577 7.66406V7.46406H73.3982L73.3783 7.64179L73.577 7.66406ZM73.3427 9.75586L73.1439 9.73359L73.0994 10.131L73.4441 9.92825L73.3427 9.75586ZM73.8934 9.52734L73.9538 9.71803L73.9567 9.71708L73.8934 9.52734ZM75.7743 9.60938L75.6969 9.79381L75.6996 9.79491L75.7743 9.60938ZM76.5887 10.1777L76.4394 10.3108L76.4404 10.3119L76.5887 10.1777ZM77.0985 11.0801L76.9086 11.1427L76.9088 11.1433L77.0985 11.0801ZM77.0985 13.377L76.9092 13.3124L76.9086 13.3144L77.0985 13.377ZM75.7098 14.9004L75.7866 15.0851L75.7876 15.0846L75.7098 14.9004ZM73.4481 14.9648L73.3862 15.1551L73.389 15.1559L73.4481 14.9648ZM72.5751 14.502L72.4498 14.6579L72.4513 14.6591L72.5751 14.502ZM71.954 13.7402L71.776 13.8315L71.7765 13.8324L71.954 13.7402ZM71.6845 12.6914V12.4914H71.4722L71.4848 12.7033L71.6845 12.6914ZM73.0673 12.6914L73.2657 12.6663L73.2435 12.4914H73.0673V12.6914ZM73.2958 13.4004L73.1242 13.5033L73.1268 13.5073L73.2958 13.4004ZM75.0829 13.8691L75.1691 14.0497L75.1723 14.048L75.0829 13.8691ZM75.5106 13.5059L75.3492 13.3878L75.3487 13.3885L75.5106 13.5059ZM75.7684 12.9434L75.5755 12.8907L75.5746 12.894L75.7684 12.9434ZM75.7567 11.543L75.5652 11.6008L75.5663 11.6041L75.7567 11.543ZM75.4696 11.0039L75.315 11.1308L75.3169 11.1331L75.4696 11.0039ZM74.995 10.6523L74.9131 10.8348L74.9162 10.8362L74.995 10.6523ZM73.5595 10.6699L73.4639 10.4942L73.4623 10.4951L73.5595 10.6699ZM73.1148 10.8389L71.9898 10.5635L71.8947 10.9521L73.0197 11.2275L73.1148 10.8389ZM72.1411 10.7793L72.604 6.49021L72.2063 6.44729L71.7434 10.7364L72.1411 10.7793ZM72.4052 6.66875H77.0048V6.26875H72.4052V6.66875ZM76.8048 6.46875V7.66406H77.2048V6.46875H76.8048ZM77.0048 7.46406H73.577V7.86406H77.0048V7.46406ZM73.3783 7.64179L73.1439 9.73359L73.5414 9.77813L73.7758 7.68633L73.3783 7.64179ZM73.4441 9.92825C73.5586 9.86086 73.7264 9.79004 73.9538 9.71801L73.8331 9.33668C73.5918 9.41309 73.3923 9.49461 73.2413 9.58347L73.4441 9.92825ZM73.9567 9.71708C74.1668 9.64705 74.4124 9.61016 74.6962 9.61016V9.21016C74.3784 9.21016 74.0888 9.25139 73.8302 9.33761L73.9567 9.71708ZM74.6962 9.61016C75.0765 9.61016 75.4088 9.67288 75.6969 9.79379L75.8517 9.42496C75.5069 9.28025 75.1206 9.21016 74.6962 9.21016V9.61016ZM75.6996 9.79491C75.9923 9.91268 76.2379 10.0845 76.4394 10.3108L76.7381 10.0447C76.4943 9.77095 76.197 9.56388 75.849 9.42384L75.6996 9.79491ZM76.4404 10.3119C76.6421 10.5348 76.799 10.8103 76.9086 11.1427L77.2885 11.0175C77.1637 10.6389 76.9807 10.3128 76.7371 10.0436L76.4404 10.3119ZM76.9088 11.1433C77.018 11.471 77.0743 11.8456 77.0743 12.2695H77.4743C77.4743 11.8106 77.4134 11.3923 77.2883 11.0168L76.9088 11.1433ZM77.0743 12.2695C77.0743 12.644 77.0187 12.9912 76.9092 13.3124L77.2878 13.4415C77.4127 13.0752 77.4743 12.6841 77.4743 12.2695H77.0743ZM76.9086 13.3144C76.8034 13.6335 76.6447 13.9123 76.4328 14.153L76.733 14.4173C76.982 14.1346 77.1671 13.808 77.2885 13.4396L76.9086 13.3144ZM76.4328 14.153C76.224 14.3901 75.9586 14.5783 75.632 14.7161L75.7876 15.0846C76.1643 14.9256 76.4808 14.7037 76.733 14.4173L76.4328 14.153ZM75.6331 14.7157C75.3153 14.8478 74.9305 14.9172 74.4735 14.9172V15.3172C74.9697 15.3172 75.4091 15.242 75.7866 15.0851L75.6331 14.7157ZM74.4735 14.9172C74.1374 14.9172 73.8156 14.8692 73.5073 14.7738L73.389 15.1559C73.7369 15.2636 74.0987 15.3172 74.4735 15.3172V14.9172ZM73.51 14.7747C73.2073 14.6762 72.9374 14.5328 72.6989 14.3449L72.4513 14.6591C72.7284 14.8773 73.0405 15.0426 73.3863 15.155L73.51 14.7747ZM72.7003 14.346C72.4647 14.1568 72.2752 13.9248 72.1315 13.648L71.7765 13.8324C71.9452 14.1572 72.1698 14.433 72.4499 14.6579L72.7003 14.346ZM72.1319 13.649C71.9902 13.3725 71.9061 13.0506 71.8841 12.6795L71.4848 12.7033C71.5096 13.1212 71.6053 13.4986 71.776 13.8315L72.1319 13.649ZM71.6845 12.8914H73.0673V12.4914H71.6845V12.8914ZM72.8689 12.7166C72.9067 13.0153 72.99 13.2794 73.1243 13.5033L73.4673 13.2975C73.3672 13.1307 73.2981 12.9222 73.2657 12.6663L72.8689 12.7166ZM73.1268 13.5073C73.2668 13.7287 73.4538 13.8999 73.6854 14.018L73.8671 13.6617C73.7003 13.5766 73.567 13.4549 73.4648 13.2935L73.1268 13.5073ZM73.6854 14.018C73.9172 14.1362 74.1797 14.1922 74.4677 14.1922V13.7922C74.2321 13.7922 74.0337 13.7466 73.8671 13.6617L73.6854 14.018ZM74.4677 14.1922C74.7285 14.1922 74.9644 14.1473 75.169 14.0496L74.9967 13.6886C74.8577 13.755 74.6834 13.7922 74.4677 13.7922V14.1922ZM75.1723 14.048C75.3731 13.9476 75.5405 13.8054 75.6725 13.6233L75.3487 13.3885C75.2542 13.5188 75.1364 13.6188 74.9934 13.6903L75.1723 14.048ZM75.672 13.624C75.806 13.4409 75.902 13.2294 75.9623 12.9927L75.5746 12.894C75.5255 13.087 75.4496 13.2505 75.3492 13.3878L75.672 13.624ZM75.9614 12.996C76.0254 12.7613 76.0563 12.505 76.0563 12.2285H75.6563C75.6563 12.4755 75.6287 12.6957 75.5755 12.8907L75.9614 12.996ZM76.0563 12.2285C76.0563 11.9608 76.0208 11.7114 75.9472 11.4819L75.5663 11.6041C75.6255 11.7886 75.6563 11.9962 75.6563 12.2285H76.0563ZM75.9482 11.4852C75.8784 11.2542 75.7703 11.0496 75.6223 10.8747L75.3169 11.1331C75.4267 11.2629 75.51 11.4177 75.5653 11.6008L75.9482 11.4852ZM75.6242 10.877C75.4777 10.6985 75.2929 10.5624 75.0738 10.4685L74.9162 10.8362C75.0799 10.9063 75.2115 11.0046 75.315 11.1308L75.6242 10.877ZM75.0769 10.4699C74.8553 10.3704 74.6058 10.3234 74.3329 10.3234V10.7234C74.56 10.7234 74.7519 10.7624 74.9131 10.8348L75.0769 10.4699ZM74.3329 10.3234C73.9826 10.3234 73.6861 10.3735 73.464 10.4942L73.655 10.8456C73.7922 10.771 74.0113 10.7234 74.3329 10.7234V10.3234ZM73.4623 10.4951C73.2712 10.6013 73.0936 10.7325 72.9296 10.8881L73.2049 11.1783C73.3456 11.0448 73.4961 10.9339 73.6566 10.8448L73.4623 10.4951ZM84.115 10.3242H84.315V10.1242H84.115V10.3242ZM84.115 11.5957V11.7957H84.315V11.5957H84.115ZM78.2673 11.5957H78.0673V11.7957H78.2673V11.5957ZM78.2673 10.3242V10.1242H78.0673V10.3242H78.2673ZM81.8767 7.93359H82.0767V7.73359H81.8767V7.93359ZM81.8767 14.1445V14.3445H82.0767V14.1445H81.8767ZM80.5115 14.1445H80.3115V14.3445H80.5115V14.1445ZM80.5115 7.93359V7.73359H80.3115V7.93359H80.5115ZM83.915 10.3242V11.5957H84.315V10.3242H83.915ZM84.115 11.3957H78.2673V11.7957H84.115V11.3957ZM78.4673 11.5957V10.3242H78.0673V11.5957H78.4673ZM78.2673 10.5242H84.115V10.1242H78.2673V10.5242ZM81.6767 7.93359V14.1445H82.0767V7.93359H81.6767ZM81.8767 13.9445H80.5115V14.3445H81.8767V13.9445ZM80.7115 14.1445V7.93359H80.3115V14.1445H80.7115ZM80.5115 8.13359H81.8767V7.73359H80.5115V8.13359Z" fill="#010101" fill-opacity="0.098" mask="url(#path-6-inside-2_2_97)"/>
<path d="M68.5 5.43945V14H67.0879V7.11523L64.9961 7.82422V6.6582L68.3301 5.43945H68.5ZM73.0673 10.0332L71.9423 9.75781L72.4052 5.46875H77.0048V6.66406H73.577L73.3427 8.75586C73.4755 8.67773 73.6591 8.60156 73.8934 8.52734C74.1278 8.44922 74.3954 8.41016 74.6962 8.41016C75.0985 8.41016 75.4579 8.47656 75.7743 8.60938C76.0946 8.73828 76.3661 8.92773 76.5887 9.17773C76.8114 9.42383 76.9813 9.72461 77.0985 10.0801C77.2157 10.4316 77.2743 10.8281 77.2743 11.2695C77.2743 11.6641 77.2157 12.0332 77.0985 12.377C76.9852 12.7207 76.8134 13.0234 76.5829 13.2852C76.3524 13.5469 76.0614 13.752 75.7098 13.9004C75.3622 14.0449 74.9501 14.1172 74.4735 14.1172C74.118 14.1172 73.7762 14.0664 73.4481 13.9648C73.1239 13.8594 72.8329 13.7051 72.5751 13.502C72.3173 13.2949 72.1102 13.041 71.954 12.7402C71.7977 12.4355 71.7079 12.0859 71.6845 11.6914H73.0673C73.1024 11.9688 73.1786 12.2051 73.2958 12.4004C73.4169 12.5918 73.577 12.7383 73.7762 12.8398C73.9755 12.9414 74.2059 12.9922 74.4677 12.9922C74.7059 12.9922 74.911 12.9512 75.0829 12.8691C75.2548 12.7832 75.3973 12.6621 75.5106 12.5059C75.6278 12.3457 75.7137 12.1582 75.7684 11.9434C75.827 11.7285 75.8563 11.4902 75.8563 11.2285C75.8563 10.9785 75.8231 10.75 75.7567 10.543C75.6942 10.3359 75.5985 10.1562 75.4696 10.0039C75.3446 9.85156 75.1864 9.73438 74.995 9.65234C74.8036 9.56641 74.5829 9.52344 74.3329 9.52344C73.997 9.52344 73.7391 9.57227 73.5595 9.66992C73.3837 9.76758 73.2196 9.88867 73.0673 10.0332ZM84.115 9.32422V10.5957H78.2673V9.32422H84.115ZM81.8767 6.93359V13.1445H80.5115V6.93359H81.8767Z" fill="white"/>
<path d="M2.275 0H88.725C89.9814 0 91 1.34315 91 3V17C91 18.6569 89.9814 20 88.725 20H2.275C1.01855 20 0 18.6569 0 17V3C0 1.34315 1.01855 0 2.275 0Z" fill="url(#paint0_linear_2_97)"/>
<defs>
<linearGradient id="paint0_linear_2_97" x1="0" y1="0" x2="0" y2="20" gradientUnits="userSpaceOnUse">
<stop stop-color="#BBBBBB" stop-opacity="0.1"/>
<stop offset="1" stop-opacity="0.1"/>
</linearGradient>
</defs>
</svg>
