<svg width="109" height="20" viewBox="0 0 109 20" fill="none" xmlns="http://www.w3.org/2000/svg">
<rect width="108.333" height="20" rx="3" fill="#555555"/>
<mask id="path-2-inside-1_8_125" fill="white">
<path d="M10.4492 13.5938L11.9141 8.66016H12.8164L12.5703 10.1367L11.0938 15H10.2852L10.4492 13.5938ZM9.58789 8.66016L10.7305 13.6172L10.8242 15H9.92188L8.20508 8.66016H9.58789ZM14.1875 13.5586L15.2949 8.66016H16.6719L14.9609 15H14.0586L14.1875 13.5586ZM12.9688 8.66016L14.416 13.5352L14.5977 15H13.7891L12.2949 10.1309L12.0488 8.66016H12.9688ZM19.2645 8.66016V15H17.8466V8.66016H19.2645ZM17.7528 6.99609C17.7528 6.78125 17.8231 6.60352 17.9637 6.46289C18.1083 6.31836 18.3075 6.24609 18.5614 6.24609C18.8114 6.24609 19.0087 6.31836 19.1532 6.46289C19.2977 6.60352 19.37 6.78125 19.37 6.99609C19.37 7.20703 19.2977 7.38281 19.1532 7.52344C19.0087 7.66406 18.8114 7.73438 18.5614 7.73438C18.3075 7.73438 18.1083 7.66406 17.9637 7.52344C17.8231 7.38281 17.7528 7.20703 17.7528 6.99609ZM22.3494 9.86719V15H20.9373V8.66016H22.2849L22.3494 9.86719ZM24.2888 8.61914L24.2771 9.93164C24.1912 9.91602 24.0974 9.9043 23.9959 9.89648C23.8982 9.88867 23.8005 9.88477 23.7029 9.88477C23.4607 9.88477 23.2478 9.91992 23.0642 9.99023C22.8806 10.0566 22.7263 10.1543 22.6013 10.2832C22.4802 10.4082 22.3865 10.5605 22.3201 10.7402C22.2537 10.9199 22.2146 11.1211 22.2029 11.3438L21.8806 11.3672C21.8806 10.9688 21.9197 10.5996 21.9978 10.2598C22.0759 9.91992 22.1931 9.62109 22.3494 9.36328C22.5095 9.10547 22.7087 8.9043 22.947 8.75977C23.1892 8.61523 23.4685 8.54297 23.7849 8.54297C23.8709 8.54297 23.9627 8.55078 24.0603 8.56641C24.1619 8.58203 24.238 8.59961 24.2888 8.61914ZM27.9713 15.1172C27.5026 15.1172 27.0788 15.041 26.6998 14.8887C26.3248 14.7324 26.0045 14.5156 25.7389 14.2383C25.4772 13.9609 25.276 13.6348 25.1354 13.2598C24.9948 12.8848 24.9245 12.4805 24.9245 12.0469V11.8125C24.9245 11.3164 24.9967 10.8672 25.1413 10.4648C25.2858 10.0625 25.487 9.71875 25.7448 9.43359C26.0026 9.14453 26.3073 8.92383 26.6588 8.77148C27.0104 8.61914 27.3913 8.54297 27.8014 8.54297C28.2545 8.54297 28.651 8.61914 28.9909 8.77148C29.3307 8.92383 29.612 9.13867 29.8346 9.41602C30.0612 9.68945 30.2291 10.0156 30.3385 10.3945C30.4518 10.7734 30.5084 11.1914 30.5084 11.6484V12.252H25.61V11.2383H29.1139V11.127C29.1061 10.873 29.0553 10.6348 28.9616 10.4121C28.8717 10.1895 28.733 10.0098 28.5455 9.87305C28.358 9.73633 28.108 9.66797 27.7955 9.66797C27.5612 9.66797 27.3522 9.71875 27.1686 9.82031C26.9889 9.91797 26.8385 10.0605 26.7174 10.248C26.5963 10.4355 26.5026 10.6621 26.4362 10.9277C26.3737 11.1895 26.3424 11.4844 26.3424 11.8125V12.0469C26.3424 12.3242 26.3795 12.582 26.4538 12.8203C26.5319 13.0547 26.6452 13.2598 26.7936 13.4355C26.942 13.6113 27.1217 13.75 27.3327 13.8516C27.5436 13.9492 27.7838 13.998 28.0534 13.998C28.3932 13.998 28.6959 13.9297 28.9616 13.793C29.2272 13.6562 29.4577 13.4629 29.653 13.2129L30.3971 13.9336C30.2604 14.1328 30.0827 14.3242 29.8639 14.5078C29.6452 14.6875 29.3776 14.834 29.0612 14.9473C28.7487 15.0605 28.3854 15.1172 27.9713 15.1172ZM33.6402 15H32.228V8.05078C32.228 7.57812 32.3159 7.18164 32.4917 6.86133C32.6714 6.53711 32.9273 6.29297 33.2593 6.12891C33.5913 5.96094 33.9839 5.87695 34.437 5.87695C34.5777 5.87695 34.7163 5.88672 34.853 5.90625C34.9898 5.92188 35.1226 5.94727 35.2515 5.98242L35.2163 7.07227C35.1382 7.05273 35.0523 7.03906 34.9585 7.03125C34.8687 7.02344 34.771 7.01953 34.6655 7.01953C34.4507 7.01953 34.2652 7.06055 34.1089 7.14258C33.9566 7.2207 33.8394 7.33594 33.7573 7.48828C33.6792 7.64062 33.6402 7.82812 33.6402 8.05078V15ZM34.9468 8.66016V9.69141H31.2554V8.66016H34.9468ZM37.5102 9.86719V15H36.098V8.66016H37.4457L37.5102 9.86719ZM39.4496 8.61914L39.4379 9.93164C39.352 9.91602 39.2582 9.9043 39.1566 9.89648C39.059 9.88867 38.9613 9.88477 38.8637 9.88477C38.6215 9.88477 38.4086 9.91992 38.225 9.99023C38.0414 10.0566 37.8871 10.1543 37.7621 10.2832C37.641 10.4082 37.5473 10.5605 37.4809 10.7402C37.4145 10.9199 37.3754 11.1211 37.3637 11.3438L37.0414 11.3672C37.0414 10.9688 37.0805 10.5996 37.1586 10.2598C37.2367 9.91992 37.3539 9.62109 37.5102 9.36328C37.6703 9.10547 37.8695 8.9043 38.1078 8.75977C38.35 8.61523 38.6293 8.54297 38.9457 8.54297C39.0316 8.54297 39.1234 8.55078 39.2211 8.56641C39.3227 8.58203 39.3988 8.59961 39.4496 8.61914ZM43.8177 13.7285V10.7051C43.8177 10.4785 43.7766 10.2832 43.6946 10.1191C43.6126 9.95508 43.4876 9.82812 43.3196 9.73828C43.1555 9.64844 42.9485 9.60352 42.6985 9.60352C42.468 9.60352 42.2688 9.64258 42.1009 9.7207C41.9329 9.79883 41.802 9.9043 41.7083 10.0371C41.6145 10.1699 41.5677 10.3203 41.5677 10.4883H40.1614C40.1614 10.2383 40.222 9.99609 40.343 9.76172C40.4641 9.52734 40.6399 9.31836 40.8704 9.13477C41.1009 8.95117 41.3762 8.80664 41.6966 8.70117C42.0169 8.5957 42.3762 8.54297 42.7747 8.54297C43.2512 8.54297 43.6731 8.62305 44.0403 8.7832C44.4114 8.94336 44.7024 9.18555 44.9134 9.50977C45.1282 9.83008 45.2356 10.2324 45.2356 10.7168V13.5352C45.2356 13.8242 45.2552 14.084 45.2942 14.3145C45.3372 14.541 45.3977 14.7383 45.4759 14.9062V15H44.0286C43.9622 14.8477 43.9095 14.6543 43.8704 14.4199C43.8352 14.1816 43.8177 13.9512 43.8177 13.7285ZM44.0227 11.1445L44.0345 12.0176H43.0208C42.7591 12.0176 42.5286 12.043 42.3294 12.0938C42.1302 12.1406 41.9641 12.2109 41.8313 12.3047C41.6985 12.3984 41.5989 12.5117 41.5325 12.6445C41.4661 12.7773 41.4329 12.9277 41.4329 13.0957C41.4329 13.2637 41.472 13.418 41.5501 13.5586C41.6282 13.6953 41.7415 13.8027 41.8899 13.8809C42.0423 13.959 42.2259 13.998 42.4407 13.998C42.7298 13.998 42.9817 13.9395 43.1966 13.8223C43.4153 13.7012 43.5872 13.5547 43.7122 13.3828C43.8372 13.207 43.9036 13.041 43.9114 12.8848L44.3684 13.5117C44.3216 13.6719 44.2415 13.8438 44.1282 14.0273C44.0149 14.2109 43.8665 14.3867 43.6829 14.5547C43.5032 14.7188 43.2864 14.8535 43.0325 14.959C42.7825 15.0645 42.4934 15.1172 42.1653 15.1172C41.7512 15.1172 41.3821 15.0352 41.0579 14.8711C40.7337 14.7031 40.4798 14.4785 40.2962 14.1973C40.1126 13.9121 40.0208 13.5898 40.0208 13.2305C40.0208 12.8945 40.0833 12.5977 40.2083 12.3398C40.3372 12.0781 40.5247 11.8594 40.7708 11.6836C41.0208 11.5078 41.3255 11.375 41.6848 11.2852C42.0442 11.1914 42.4544 11.1445 42.9153 11.1445H44.0227ZM48.2443 9.94922V15H46.8322V8.66016H48.1623L48.2443 9.94922ZM48.0158 11.5957L47.5353 11.5898C47.5353 11.1523 47.59 10.748 47.6994 10.377C47.8088 10.0059 47.9689 9.68359 48.1798 9.41016C48.3908 9.13281 48.6525 8.91992 48.965 8.77148C49.2814 8.61914 49.6466 8.54297 50.0607 8.54297C50.3498 8.54297 50.6134 8.58594 50.8517 8.67188C51.0939 8.75391 51.3029 8.88477 51.4787 9.06445C51.6584 9.24414 51.7951 9.47461 51.8888 9.75586C51.9865 10.0371 52.0353 10.377 52.0353 10.7754V15H50.6232V10.8984C50.6232 10.5898 50.5763 10.3477 50.4826 10.1719C50.3927 9.99609 50.2619 9.87109 50.09 9.79688C49.922 9.71875 49.7209 9.67969 49.4865 9.67969C49.2209 9.67969 48.9943 9.73047 48.8068 9.83203C48.6232 9.93359 48.4728 10.0723 48.3556 10.248C48.2384 10.4238 48.1525 10.627 48.0978 10.8574C48.0431 11.0879 48.0158 11.334 48.0158 11.5957ZM51.9474 11.2207L51.2853 11.3672C51.2853 10.9844 51.338 10.623 51.4435 10.2832C51.5529 9.93945 51.7111 9.63867 51.9181 9.38086C52.1291 9.11914 52.3888 8.91406 52.6974 8.76562C53.006 8.61719 53.3595 8.54297 53.758 8.54297C54.0822 8.54297 54.3713 8.58789 54.6252 8.67773C54.883 8.76367 55.1017 8.90039 55.2814 9.08789C55.4611 9.27539 55.5978 9.51953 55.6916 9.82031C55.7853 10.1172 55.8322 10.4766 55.8322 10.8984V15H54.4142V10.8926C54.4142 10.5723 54.3673 10.3242 54.2736 10.1484C54.1838 9.97266 54.0548 9.85156 53.8869 9.78516C53.7189 9.71484 53.5177 9.67969 53.2834 9.67969C53.0646 9.67969 52.8713 9.7207 52.7033 9.80273C52.5392 9.88086 52.4005 9.99219 52.2873 10.1367C52.174 10.2773 52.088 10.4395 52.0295 10.623C51.9748 10.8066 51.9474 11.0059 51.9474 11.2207ZM58.917 8.66016V15H57.4991V8.66016H58.917ZM57.4053 6.99609C57.4053 6.78125 57.4756 6.60352 57.6162 6.46289C57.7608 6.31836 57.96 6.24609 58.2139 6.24609C58.4639 6.24609 58.6612 6.31836 58.8057 6.46289C58.9502 6.60352 59.0225 6.78125 59.0225 6.99609C59.0225 7.20703 58.9502 7.38281 58.8057 7.52344C58.6612 7.66406 58.4639 7.73438 58.2139 7.73438C57.96 7.73438 57.7608 7.66406 57.6162 7.52344C57.4756 7.38281 57.4053 7.20703 57.4053 6.99609ZM61.9843 10.0137V15H60.5722V8.66016H61.9023L61.9843 10.0137ZM61.7323 11.5957L61.2753 11.5898C61.2792 11.1406 61.3417 10.7285 61.4628 10.3535C61.5878 9.97852 61.7597 9.65625 61.9784 9.38672C62.2011 9.11719 62.4667 8.91016 62.7753 8.76562C63.0839 8.61719 63.4277 8.54297 63.8066 8.54297C64.1113 8.54297 64.3866 8.58594 64.6327 8.67188C64.8827 8.75391 65.0956 8.88867 65.2714 9.07617C65.4511 9.26367 65.5878 9.50781 65.6816 9.80859C65.7753 10.1055 65.8222 10.4707 65.8222 10.9043V15H64.4042V10.8984C64.4042 10.5938 64.3593 10.3535 64.2695 10.1777C64.1835 9.99805 64.0566 9.87109 63.8886 9.79688C63.7245 9.71875 63.5195 9.67969 63.2734 9.67969C63.0312 9.67969 62.8144 9.73047 62.623 9.83203C62.4316 9.93359 62.2695 10.0723 62.1366 10.248C62.0077 10.4238 61.9081 10.627 61.8378 10.8574C61.7675 11.0879 61.7323 11.334 61.7323 11.5957ZM71.4441 8.66016H72.7273V14.8242C72.7273 15.3945 72.6063 15.8789 72.3641 16.2773C72.1219 16.6758 71.784 16.9785 71.3504 17.1855C70.9168 17.3965 70.4148 17.502 69.8445 17.502C69.6023 17.502 69.3328 17.4668 69.0359 17.3965C68.743 17.3262 68.4578 17.2129 68.1805 17.0566C67.907 16.9043 67.6785 16.7031 67.4949 16.4531L68.157 15.6211C68.3836 15.8906 68.6336 16.0879 68.907 16.2129C69.1805 16.3379 69.4676 16.4004 69.7684 16.4004C70.0926 16.4004 70.368 16.3398 70.5945 16.2188C70.825 16.1016 71.0027 15.9277 71.1277 15.6973C71.2527 15.4668 71.3152 15.1855 71.3152 14.8535V10.0957L71.4441 8.66016ZM67.1375 11.9004V11.7773C67.1375 11.2969 67.1961 10.8594 67.3133 10.4648C67.4305 10.0664 67.5984 9.72461 67.8172 9.43945C68.0359 9.15039 68.3016 8.92969 68.6141 8.77734C68.9266 8.62109 69.2801 8.54297 69.6746 8.54297C70.0848 8.54297 70.4344 8.61719 70.7234 8.76562C71.0164 8.91406 71.2605 9.12695 71.4559 9.4043C71.6512 9.67773 71.8035 10.0059 71.9129 10.3887C72.0262 10.7676 72.1102 11.1895 72.1648 11.6543V12.0469C72.1141 12.5 72.0281 12.9141 71.907 13.2891C71.7859 13.6641 71.6258 13.9883 71.4266 14.2617C71.2273 14.5352 70.9813 14.7461 70.6883 14.8945C70.3992 15.043 70.0574 15.1172 69.6629 15.1172C69.2762 15.1172 68.9266 15.0371 68.6141 14.877C68.3055 14.7168 68.0398 14.4922 67.8172 14.2031C67.5984 13.9141 67.4305 13.5742 67.3133 13.1836C67.1961 12.7891 67.1375 12.3613 67.1375 11.9004ZM68.5496 11.7773V11.9004C68.5496 12.1895 68.577 12.459 68.6316 12.709C68.6902 12.959 68.7781 13.1797 68.8953 13.3711C69.0164 13.5586 69.1688 13.707 69.3523 13.8164C69.5398 13.9219 69.7605 13.9746 70.0145 13.9746C70.3465 13.9746 70.618 13.9043 70.8289 13.7637C71.0438 13.623 71.2078 13.4336 71.3211 13.1953C71.4383 12.9531 71.5203 12.6836 71.5672 12.3867V11.3262C71.5438 11.0957 71.4949 10.8809 71.4207 10.6816C71.3504 10.4824 71.2547 10.3086 71.1336 10.1602C71.0125 10.0078 70.8602 9.89062 70.6766 9.80859C70.493 9.72266 70.2762 9.67969 70.0262 9.67969C69.7723 9.67969 69.5516 9.73438 69.3641 9.84375C69.1766 9.95312 69.0223 10.1035 68.9012 10.2949C68.784 10.4863 68.6961 10.709 68.6375 10.9629C68.5789 11.2168 68.5496 11.4883 68.5496 11.7773Z"/>
</mask>
<path d="M10.4492 13.5938L11.9141 8.66016H12.8164L12.5703 10.1367L11.0938 15H10.2852L10.4492 13.5938ZM9.58789 8.66016L10.7305 13.6172L10.8242 15H9.92188L8.20508 8.66016H9.58789ZM14.1875 13.5586L15.2949 8.66016H16.6719L14.9609 15H14.0586L14.1875 13.5586ZM12.9688 8.66016L14.416 13.5352L14.5977 15H13.7891L12.2949 10.1309L12.0488 8.66016H12.9688ZM19.2645 8.66016V15H17.8466V8.66016H19.2645ZM17.7528 6.99609C17.7528 6.78125 17.8231 6.60352 17.9637 6.46289C18.1083 6.31836 18.3075 6.24609 18.5614 6.24609C18.8114 6.24609 19.0087 6.31836 19.1532 6.46289C19.2977 6.60352 19.37 6.78125 19.37 6.99609C19.37 7.20703 19.2977 7.38281 19.1532 7.52344C19.0087 7.66406 18.8114 7.73438 18.5614 7.73438C18.3075 7.73438 18.1083 7.66406 17.9637 7.52344C17.8231 7.38281 17.7528 7.20703 17.7528 6.99609ZM22.3494 9.86719V15H20.9373V8.66016H22.2849L22.3494 9.86719ZM24.2888 8.61914L24.2771 9.93164C24.1912 9.91602 24.0974 9.9043 23.9959 9.89648C23.8982 9.88867 23.8005 9.88477 23.7029 9.88477C23.4607 9.88477 23.2478 9.91992 23.0642 9.99023C22.8806 10.0566 22.7263 10.1543 22.6013 10.2832C22.4802 10.4082 22.3865 10.5605 22.3201 10.7402C22.2537 10.9199 22.2146 11.1211 22.2029 11.3438L21.8806 11.3672C21.8806 10.9688 21.9197 10.5996 21.9978 10.2598C22.0759 9.91992 22.1931 9.62109 22.3494 9.36328C22.5095 9.10547 22.7087 8.9043 22.947 8.75977C23.1892 8.61523 23.4685 8.54297 23.7849 8.54297C23.8709 8.54297 23.9627 8.55078 24.0603 8.56641C24.1619 8.58203 24.238 8.59961 24.2888 8.61914ZM27.9713 15.1172C27.5026 15.1172 27.0788 15.041 26.6998 14.8887C26.3248 14.7324 26.0045 14.5156 25.7389 14.2383C25.4772 13.9609 25.276 13.6348 25.1354 13.2598C24.9948 12.8848 24.9245 12.4805 24.9245 12.0469V11.8125C24.9245 11.3164 24.9967 10.8672 25.1413 10.4648C25.2858 10.0625 25.487 9.71875 25.7448 9.43359C26.0026 9.14453 26.3073 8.92383 26.6588 8.77148C27.0104 8.61914 27.3913 8.54297 27.8014 8.54297C28.2545 8.54297 28.651 8.61914 28.9909 8.77148C29.3307 8.92383 29.612 9.13867 29.8346 9.41602C30.0612 9.68945 30.2291 10.0156 30.3385 10.3945C30.4518 10.7734 30.5084 11.1914 30.5084 11.6484V12.252H25.61V11.2383H29.1139V11.127C29.1061 10.873 29.0553 10.6348 28.9616 10.4121C28.8717 10.1895 28.733 10.0098 28.5455 9.87305C28.358 9.73633 28.108 9.66797 27.7955 9.66797C27.5612 9.66797 27.3522 9.71875 27.1686 9.82031C26.9889 9.91797 26.8385 10.0605 26.7174 10.248C26.5963 10.4355 26.5026 10.6621 26.4362 10.9277C26.3737 11.1895 26.3424 11.4844 26.3424 11.8125V12.0469C26.3424 12.3242 26.3795 12.582 26.4538 12.8203C26.5319 13.0547 26.6452 13.2598 26.7936 13.4355C26.942 13.6113 27.1217 13.75 27.3327 13.8516C27.5436 13.9492 27.7838 13.998 28.0534 13.998C28.3932 13.998 28.6959 13.9297 28.9616 13.793C29.2272 13.6562 29.4577 13.4629 29.653 13.2129L30.3971 13.9336C30.2604 14.1328 30.0827 14.3242 29.8639 14.5078C29.6452 14.6875 29.3776 14.834 29.0612 14.9473C28.7487 15.0605 28.3854 15.1172 27.9713 15.1172ZM33.6402 15H32.228V8.05078C32.228 7.57812 32.3159 7.18164 32.4917 6.86133C32.6714 6.53711 32.9273 6.29297 33.2593 6.12891C33.5913 5.96094 33.9839 5.87695 34.437 5.87695C34.5777 5.87695 34.7163 5.88672 34.853 5.90625C34.9898 5.92188 35.1226 5.94727 35.2515 5.98242L35.2163 7.07227C35.1382 7.05273 35.0523 7.03906 34.9585 7.03125C34.8687 7.02344 34.771 7.01953 34.6655 7.01953C34.4507 7.01953 34.2652 7.06055 34.1089 7.14258C33.9566 7.2207 33.8394 7.33594 33.7573 7.48828C33.6792 7.64062 33.6402 7.82812 33.6402 8.05078V15ZM34.9468 8.66016V9.69141H31.2554V8.66016H34.9468ZM37.5102 9.86719V15H36.098V8.66016H37.4457L37.5102 9.86719ZM39.4496 8.61914L39.4379 9.93164C39.352 9.91602 39.2582 9.9043 39.1566 9.89648C39.059 9.88867 38.9613 9.88477 38.8637 9.88477C38.6215 9.88477 38.4086 9.91992 38.225 9.99023C38.0414 10.0566 37.8871 10.1543 37.7621 10.2832C37.641 10.4082 37.5473 10.5605 37.4809 10.7402C37.4145 10.9199 37.3754 11.1211 37.3637 11.3438L37.0414 11.3672C37.0414 10.9688 37.0805 10.5996 37.1586 10.2598C37.2367 9.91992 37.3539 9.62109 37.5102 9.36328C37.6703 9.10547 37.8695 8.9043 38.1078 8.75977C38.35 8.61523 38.6293 8.54297 38.9457 8.54297C39.0316 8.54297 39.1234 8.55078 39.2211 8.56641C39.3227 8.58203 39.3988 8.59961 39.4496 8.61914ZM43.8177 13.7285V10.7051C43.8177 10.4785 43.7766 10.2832 43.6946 10.1191C43.6126 9.95508 43.4876 9.82812 43.3196 9.73828C43.1555 9.64844 42.9485 9.60352 42.6985 9.60352C42.468 9.60352 42.2688 9.64258 42.1009 9.7207C41.9329 9.79883 41.802 9.9043 41.7083 10.0371C41.6145 10.1699 41.5677 10.3203 41.5677 10.4883H40.1614C40.1614 10.2383 40.222 9.99609 40.343 9.76172C40.4641 9.52734 40.6399 9.31836 40.8704 9.13477C41.1009 8.95117 41.3762 8.80664 41.6966 8.70117C42.0169 8.5957 42.3762 8.54297 42.7747 8.54297C43.2512 8.54297 43.6731 8.62305 44.0403 8.7832C44.4114 8.94336 44.7024 9.18555 44.9134 9.50977C45.1282 9.83008 45.2356 10.2324 45.2356 10.7168V13.5352C45.2356 13.8242 45.2552 14.084 45.2942 14.3145C45.3372 14.541 45.3977 14.7383 45.4759 14.9062V15H44.0286C43.9622 14.8477 43.9095 14.6543 43.8704 14.4199C43.8352 14.1816 43.8177 13.9512 43.8177 13.7285ZM44.0227 11.1445L44.0345 12.0176H43.0208C42.7591 12.0176 42.5286 12.043 42.3294 12.0938C42.1302 12.1406 41.9641 12.2109 41.8313 12.3047C41.6985 12.3984 41.5989 12.5117 41.5325 12.6445C41.4661 12.7773 41.4329 12.9277 41.4329 13.0957C41.4329 13.2637 41.472 13.418 41.5501 13.5586C41.6282 13.6953 41.7415 13.8027 41.8899 13.8809C42.0423 13.959 42.2259 13.998 42.4407 13.998C42.7298 13.998 42.9817 13.9395 43.1966 13.8223C43.4153 13.7012 43.5872 13.5547 43.7122 13.3828C43.8372 13.207 43.9036 13.041 43.9114 12.8848L44.3684 13.5117C44.3216 13.6719 44.2415 13.8438 44.1282 14.0273C44.0149 14.2109 43.8665 14.3867 43.6829 14.5547C43.5032 14.7188 43.2864 14.8535 43.0325 14.959C42.7825 15.0645 42.4934 15.1172 42.1653 15.1172C41.7512 15.1172 41.3821 15.0352 41.0579 14.8711C40.7337 14.7031 40.4798 14.4785 40.2962 14.1973C40.1126 13.9121 40.0208 13.5898 40.0208 13.2305C40.0208 12.8945 40.0833 12.5977 40.2083 12.3398C40.3372 12.0781 40.5247 11.8594 40.7708 11.6836C41.0208 11.5078 41.3255 11.375 41.6848 11.2852C42.0442 11.1914 42.4544 11.1445 42.9153 11.1445H44.0227ZM48.2443 9.94922V15H46.8322V8.66016H48.1623L48.2443 9.94922ZM48.0158 11.5957L47.5353 11.5898C47.5353 11.1523 47.59 10.748 47.6994 10.377C47.8088 10.0059 47.9689 9.68359 48.1798 9.41016C48.3908 9.13281 48.6525 8.91992 48.965 8.77148C49.2814 8.61914 49.6466 8.54297 50.0607 8.54297C50.3498 8.54297 50.6134 8.58594 50.8517 8.67188C51.0939 8.75391 51.3029 8.88477 51.4787 9.06445C51.6584 9.24414 51.7951 9.47461 51.8888 9.75586C51.9865 10.0371 52.0353 10.377 52.0353 10.7754V15H50.6232V10.8984C50.6232 10.5898 50.5763 10.3477 50.4826 10.1719C50.3927 9.99609 50.2619 9.87109 50.09 9.79688C49.922 9.71875 49.7209 9.67969 49.4865 9.67969C49.2209 9.67969 48.9943 9.73047 48.8068 9.83203C48.6232 9.93359 48.4728 10.0723 48.3556 10.248C48.2384 10.4238 48.1525 10.627 48.0978 10.8574C48.0431 11.0879 48.0158 11.334 48.0158 11.5957ZM51.9474 11.2207L51.2853 11.3672C51.2853 10.9844 51.338 10.623 51.4435 10.2832C51.5529 9.93945 51.7111 9.63867 51.9181 9.38086C52.1291 9.11914 52.3888 8.91406 52.6974 8.76562C53.006 8.61719 53.3595 8.54297 53.758 8.54297C54.0822 8.54297 54.3713 8.58789 54.6252 8.67773C54.883 8.76367 55.1017 8.90039 55.2814 9.08789C55.4611 9.27539 55.5978 9.51953 55.6916 9.82031C55.7853 10.1172 55.8322 10.4766 55.8322 10.8984V15H54.4142V10.8926C54.4142 10.5723 54.3673 10.3242 54.2736 10.1484C54.1838 9.97266 54.0548 9.85156 53.8869 9.78516C53.7189 9.71484 53.5177 9.67969 53.2834 9.67969C53.0646 9.67969 52.8713 9.7207 52.7033 9.80273C52.5392 9.88086 52.4005 9.99219 52.2873 10.1367C52.174 10.2773 52.088 10.4395 52.0295 10.623C51.9748 10.8066 51.9474 11.0059 51.9474 11.2207ZM58.917 8.66016V15H57.4991V8.66016H58.917ZM57.4053 6.99609C57.4053 6.78125 57.4756 6.60352 57.6162 6.46289C57.7608 6.31836 57.96 6.24609 58.2139 6.24609C58.4639 6.24609 58.6612 6.31836 58.8057 6.46289C58.9502 6.60352 59.0225 6.78125 59.0225 6.99609C59.0225 7.20703 58.9502 7.38281 58.8057 7.52344C58.6612 7.66406 58.4639 7.73438 58.2139 7.73438C57.96 7.73438 57.7608 7.66406 57.6162 7.52344C57.4756 7.38281 57.4053 7.20703 57.4053 6.99609ZM61.9843 10.0137V15H60.5722V8.66016H61.9023L61.9843 10.0137ZM61.7323 11.5957L61.2753 11.5898C61.2792 11.1406 61.3417 10.7285 61.4628 10.3535C61.5878 9.97852 61.7597 9.65625 61.9784 9.38672C62.2011 9.11719 62.4667 8.91016 62.7753 8.76562C63.0839 8.61719 63.4277 8.54297 63.8066 8.54297C64.1113 8.54297 64.3866 8.58594 64.6327 8.67188C64.8827 8.75391 65.0956 8.88867 65.2714 9.07617C65.4511 9.26367 65.5878 9.50781 65.6816 9.80859C65.7753 10.1055 65.8222 10.4707 65.8222 10.9043V15H64.4042V10.8984C64.4042 10.5938 64.3593 10.3535 64.2695 10.1777C64.1835 9.99805 64.0566 9.87109 63.8886 9.79688C63.7245 9.71875 63.5195 9.67969 63.2734 9.67969C63.0312 9.67969 62.8144 9.73047 62.623 9.83203C62.4316 9.93359 62.2695 10.0723 62.1366 10.248C62.0077 10.4238 61.9081 10.627 61.8378 10.8574C61.7675 11.0879 61.7323 11.334 61.7323 11.5957ZM71.4441 8.66016H72.7273V14.8242C72.7273 15.3945 72.6063 15.8789 72.3641 16.2773C72.1219 16.6758 71.784 16.9785 71.3504 17.1855C70.9168 17.3965 70.4148 17.502 69.8445 17.502C69.6023 17.502 69.3328 17.4668 69.0359 17.3965C68.743 17.3262 68.4578 17.2129 68.1805 17.0566C67.907 16.9043 67.6785 16.7031 67.4949 16.4531L68.157 15.6211C68.3836 15.8906 68.6336 16.0879 68.907 16.2129C69.1805 16.3379 69.4676 16.4004 69.7684 16.4004C70.0926 16.4004 70.368 16.3398 70.5945 16.2188C70.825 16.1016 71.0027 15.9277 71.1277 15.6973C71.2527 15.4668 71.3152 15.1855 71.3152 14.8535V10.0957L71.4441 8.66016ZM67.1375 11.9004V11.7773C67.1375 11.2969 67.1961 10.8594 67.3133 10.4648C67.4305 10.0664 67.5984 9.72461 67.8172 9.43945C68.0359 9.15039 68.3016 8.92969 68.6141 8.77734C68.9266 8.62109 69.2801 8.54297 69.6746 8.54297C70.0848 8.54297 70.4344 8.61719 70.7234 8.76562C71.0164 8.91406 71.2605 9.12695 71.4559 9.4043C71.6512 9.67773 71.8035 10.0059 71.9129 10.3887C72.0262 10.7676 72.1102 11.1895 72.1648 11.6543V12.0469C72.1141 12.5 72.0281 12.9141 71.907 13.2891C71.7859 13.6641 71.6258 13.9883 71.4266 14.2617C71.2273 14.5352 70.9813 14.7461 70.6883 14.8945C70.3992 15.043 70.0574 15.1172 69.6629 15.1172C69.2762 15.1172 68.9266 15.0371 68.6141 14.877C68.3055 14.7168 68.0398 14.4922 67.8172 14.2031C67.5984 13.9141 67.4305 13.5742 67.3133 13.1836C67.1961 12.7891 67.1375 12.3613 67.1375 11.9004ZM68.5496 11.7773V11.9004C68.5496 12.1895 68.577 12.459 68.6316 12.709C68.6902 12.959 68.7781 13.1797 68.8953 13.3711C69.0164 13.5586 69.1688 13.707 69.3523 13.8164C69.5398 13.9219 69.7605 13.9746 70.0145 13.9746C70.3465 13.9746 70.618 13.9043 70.8289 13.7637C71.0438 13.623 71.2078 13.4336 71.3211 13.1953C71.4383 12.9531 71.5203 12.6836 71.5672 12.3867V11.3262C71.5438 11.0957 71.4949 10.8809 71.4207 10.6816C71.3504 10.4824 71.2547 10.3086 71.1336 10.1602C71.0125 10.0078 70.8602 9.89062 70.6766 9.80859C70.493 9.72266 70.2762 9.67969 70.0262 9.67969C69.7723 9.67969 69.5516 9.73438 69.3641 9.84375C69.1766 9.95312 69.0223 10.1035 68.9012 10.2949C68.784 10.4863 68.6961 10.709 68.6375 10.9629C68.5789 11.2168 68.5496 11.4883 68.5496 11.7773Z" fill="#010101" fill-opacity="0.3"/>
<path d="M10.4492 13.5938L10.2575 13.5368L10.2526 13.5534L10.2506 13.5706L10.4492 13.5938ZM11.9141 8.66016V8.46016H11.7648L11.7223 8.60323L11.9141 8.66016ZM12.8164 8.66016L13.0137 8.69304L13.0525 8.46016H12.8164V8.66016ZM12.5703 10.1367L12.7617 10.1948L12.7655 10.1824L12.7676 10.1696L12.5703 10.1367ZM11.0938 15V15.2H11.242L11.2851 15.0581L11.0938 15ZM10.2852 15L10.0865 14.9768L10.0605 15.2H10.2852V15ZM9.58789 8.66016L9.78278 8.61523L9.74704 8.46016H9.58789V8.66016ZM10.7305 13.6172L10.93 13.6037L10.9289 13.5878L10.9254 13.5723L10.7305 13.6172ZM10.8242 15V15.2H11.0382L11.0238 14.9865L10.8242 15ZM9.92188 15L9.72883 15.0523L9.76883 15.2H9.92188V15ZM8.20508 8.66016V8.46016H7.94372L8.01203 8.71243L8.20508 8.66016ZM14.1875 13.5586L13.9924 13.5145L13.9895 13.5275L13.9883 13.5408L14.1875 13.5586ZM15.2949 8.66016V8.46016H15.1351L15.0998 8.61605L15.2949 8.66016ZM16.6719 8.66016L16.865 8.71227L16.933 8.46016H16.6719V8.66016ZM14.9609 15V15.2H15.1141L15.154 15.0521L14.9609 15ZM14.0586 15L13.8594 14.9822L13.8399 15.2H14.0586V15ZM12.9688 8.66016L13.1605 8.60324L13.118 8.46016H12.9688V8.66016ZM14.416 13.5352L14.6145 13.5105L14.6125 13.4941L14.6077 13.4782L14.416 13.5352ZM14.5977 15V15.2H14.824L14.7961 14.9754L14.5977 15ZM13.7891 15L13.5979 15.0587L13.6412 15.2H13.7891V15ZM12.2949 10.1309L12.0977 10.1639L12.0998 10.1769L12.1037 10.1895L12.2949 10.1309ZM12.0488 8.66016V8.46016H11.8126L11.8516 8.69316L12.0488 8.66016ZM10.6409 13.6507L12.1058 8.71708L11.7223 8.60323L10.2575 13.5368L10.6409 13.6507ZM11.9141 8.86016H12.8164V8.46016H11.9141V8.86016ZM12.6191 8.62728L12.373 10.1038L12.7676 10.1696L13.0137 8.69304L12.6191 8.62728ZM12.3789 10.0786L10.9024 14.9419L11.2851 15.0581L12.7617 10.1948L12.3789 10.0786ZM11.0938 14.8H10.2852V15.2H11.0938V14.8ZM10.4838 15.0232L10.6479 13.6169L10.2506 13.5706L10.0865 14.9768L10.4838 15.0232ZM9.393 8.70508L10.5356 13.6621L10.9254 13.5723L9.78278 8.61523L9.393 8.70508ZM10.5309 13.6307L10.6247 15.0135L11.0238 14.9865L10.93 13.6037L10.5309 13.6307ZM10.8242 14.8H9.92188V15.2H10.8242V14.8ZM10.1149 14.9477L8.39813 8.60788L8.01203 8.71243L9.72883 15.0523L10.1149 14.9477ZM8.20508 8.86016H9.58789V8.46016H8.20508V8.86016ZM14.3826 13.6027L15.49 8.70426L15.0998 8.61605L13.9924 13.5145L14.3826 13.6027ZM15.2949 8.86016H16.6719V8.46016H15.2949V8.86016ZM16.4788 8.60805L14.7678 14.9479L15.154 15.0521L16.865 8.71227L16.4788 8.60805ZM14.9609 14.8H14.0586V15.2H14.9609V14.8ZM14.2578 15.0178L14.3867 13.5764L13.9883 13.5408L13.8594 14.9822L14.2578 15.0178ZM12.777 8.71708L14.2243 13.5921L14.6077 13.4782L13.1605 8.60324L12.777 8.71708ZM14.2175 13.5598L14.3992 15.0246L14.7961 14.9754L14.6145 13.5105L14.2175 13.5598ZM14.5977 14.8H13.7891V15.2H14.5977V14.8ZM13.9803 14.9413L12.4861 10.0722L12.1037 10.1895L13.5979 15.0587L13.9803 14.9413ZM12.4922 10.0979L12.2461 8.62715L11.8516 8.69316L12.0977 10.1639L12.4922 10.0979ZM12.0488 8.86016H12.9688V8.46016H12.0488V8.86016ZM19.2645 8.66016H19.4645V8.46016H19.2645V8.66016ZM19.2645 15V15.2H19.4645V15H19.2645ZM17.8466 15H17.6466V15.2H17.8466V15ZM17.8466 8.66016V8.46016H17.6466V8.66016H17.8466ZM19.1532 6.46289L19.0118 6.60433L19.0137 6.60624L19.1532 6.46289ZM17.9637 7.52344L17.8223 7.66487L17.8243 7.66678L17.9637 7.52344ZM19.0645 8.66016V15H19.4645V8.66016H19.0645ZM19.2645 14.8H17.8466V15.2H19.2645V14.8ZM18.0466 15V8.66016H17.6466V15H18.0466ZM17.8466 8.86016H19.2645V8.46016H17.8466V8.86016ZM17.9528 6.99609C17.9528 6.82959 18.0053 6.70423 18.1052 6.60431L17.8223 6.32147C17.641 6.5028 17.5528 6.73291 17.5528 6.99609H17.9528ZM18.1052 6.60431C18.2036 6.50592 18.3469 6.44609 18.5614 6.44609V6.04609C18.2681 6.04609 18.013 6.1308 17.8223 6.32147L18.1052 6.60431ZM18.5614 6.44609C18.771 6.44609 18.9128 6.50534 19.0118 6.60431L19.2946 6.32147C19.1045 6.13138 18.8519 6.04609 18.5614 6.04609V6.44609ZM19.0137 6.60624C19.1168 6.70655 19.17 6.83131 19.17 6.99609H19.57C19.57 6.73119 19.4786 6.50048 19.2927 6.31955L19.0137 6.60624ZM19.17 6.99609C19.17 7.15582 19.1176 7.27902 19.0137 7.38009L19.2927 7.66678C19.4779 7.48661 19.57 7.25824 19.57 6.99609H19.17ZM19.0137 7.38009C18.915 7.47614 18.7725 7.53437 18.5614 7.53437V7.93438C18.8503 7.93438 19.1023 7.85199 19.2927 7.66678L19.0137 7.38009ZM18.5614 7.53437C18.3454 7.53437 18.2014 7.47558 18.1032 7.38009L17.8243 7.66678C18.0152 7.85254 18.2696 7.93438 18.5614 7.93438V7.53437ZM18.1052 7.38202C18.0045 7.28135 17.9528 7.15756 17.9528 6.99609H17.5528C17.5528 7.2565 17.6417 7.48427 17.8223 7.66486L18.1052 7.38202ZM22.3494 9.86719H22.5497L22.5491 9.85652L22.3494 9.86719ZM22.3494 15V15.2H22.5494V15H22.3494ZM20.9373 15H20.7373V15.2H20.9373V15ZM20.9373 8.66016V8.46016H20.7373V8.66016H20.9373ZM22.2849 8.66016L22.4846 8.64949L22.4745 8.46016H22.2849V8.66016ZM24.2888 8.61914L24.4888 8.62093L24.4901 8.48225L24.3606 8.43247L24.2888 8.61914ZM24.2771 9.93164L24.2413 10.1284L24.475 10.1709L24.4771 9.93343L24.2771 9.93164ZM23.9959 9.89648L23.9799 10.0958L23.9805 10.0959L23.9959 9.89648ZM23.0642 9.99023L23.1323 10.1783L23.1357 10.177L23.0642 9.99023ZM22.6013 10.2832L22.4577 10.144L22.4577 10.144L22.6013 10.2832ZM22.2029 11.3438L22.2174 11.5432L22.3933 11.5304L22.4026 11.3543L22.2029 11.3438ZM21.8806 11.3672H21.6806V11.5823L21.8951 11.5667L21.8806 11.3672ZM22.3494 9.36328L22.1795 9.25774L22.1783 9.25962L22.3494 9.36328ZM22.947 8.75977L22.8445 8.58802L22.8433 8.58876L22.947 8.75977ZM24.0603 8.56641L24.0287 8.7639L24.0299 8.76408L24.0603 8.56641ZM22.1494 9.86719V15H22.5494V9.86719H22.1494ZM22.3494 14.8H20.9373V15.2H22.3494V14.8ZM21.1373 15V8.66016H20.7373V15H21.1373ZM20.9373 8.86016H22.2849V8.46016H20.9373V8.86016ZM22.0852 8.67082L22.1497 9.87785L22.5491 9.85652L22.4846 8.64949L22.0852 8.67082ZM24.0888 8.61735L24.0771 9.92985L24.4771 9.93343L24.4888 8.62093L24.0888 8.61735ZM24.3129 9.73487C24.2192 9.71783 24.1185 9.70533 24.0112 9.69707L23.9805 10.0959C24.0763 10.1033 24.1632 10.1142 24.2413 10.1284L24.3129 9.73487ZM24.0118 9.69712C23.9089 9.68889 23.8059 9.68477 23.7029 9.68477V10.0848C23.7952 10.0848 23.8875 10.0885 23.9799 10.0958L24.0118 9.69712ZM23.7029 9.68477C23.4417 9.68477 23.2037 9.72264 22.9927 9.80346L23.1357 10.177C23.2919 10.1172 23.4797 10.0848 23.7029 10.0848V9.68477ZM22.9962 9.80216C22.7866 9.87798 22.6057 9.9914 22.4577 10.144L22.7449 10.4224C22.847 10.3172 22.9747 10.2353 23.1322 10.1783L22.9962 9.80216ZM22.4577 10.144C22.3154 10.2909 22.2075 10.4678 22.1325 10.6709L22.5077 10.8096C22.5654 10.6533 22.6451 10.5255 22.745 10.4224L22.4577 10.144ZM22.1325 10.6709C22.0581 10.8723 22.0158 11.0937 22.0032 11.3332L22.4026 11.3543C22.4134 11.1485 22.4493 10.9676 22.5077 10.8096L22.1325 10.6709ZM22.1884 11.1443L21.8661 11.1677L21.8951 11.5667L22.2174 11.5432L22.1884 11.1443ZM22.0806 11.3672C22.0806 10.9817 22.1184 10.6278 22.1927 10.3046L21.8029 10.215C21.721 10.5714 21.6806 10.9558 21.6806 11.3672H22.0806ZM22.1927 10.3046C22.2668 9.98231 22.3768 9.70393 22.5204 9.46694L22.1783 9.25962C22.0095 9.53825 21.8851 9.85754 21.8029 10.215L22.1927 10.3046ZM22.5193 9.46882C22.6643 9.2353 22.8417 9.05756 23.0508 8.93077L22.8433 8.58876C22.5758 8.75103 22.3547 8.97564 22.1795 9.25774L22.5193 9.46882ZM23.0495 8.93151C23.2571 8.80765 23.5001 8.74297 23.7849 8.74297V8.34297C23.4369 8.34297 23.1214 8.42282 22.8445 8.58802L23.0495 8.93151ZM23.7849 8.74297C23.8588 8.74297 23.94 8.7497 24.0287 8.76389L24.0919 8.36892C23.9853 8.35187 23.8829 8.34297 23.7849 8.34297V8.74297ZM24.0299 8.76408C24.1274 8.77909 24.1866 8.79411 24.217 8.80581L24.3606 8.43247C24.2895 8.4051 24.1963 8.38498 24.0907 8.36873L24.0299 8.76408ZM26.6998 14.8887L26.6229 15.0733L26.6252 15.0742L26.6998 14.8887ZM25.7389 14.2383L25.5934 14.3755L25.5945 14.3766L25.7389 14.2383ZM25.7448 9.43359L25.8931 9.56773L25.894 9.56672L25.7448 9.43359ZM29.8346 9.41602L29.6786 9.54124L29.6806 9.54362L29.8346 9.41602ZM30.3385 10.3945L30.1464 10.45L30.1469 10.4518L30.3385 10.3945ZM30.5084 12.252V12.452H30.7084V12.252H30.5084ZM25.61 12.252H25.41V12.452H25.61V12.252ZM25.61 11.2383V11.0383H25.41V11.2383H25.61ZM29.1139 11.2383V11.4383H29.3139V11.2383H29.1139ZM29.1139 11.127H29.314L29.3138 11.1208L29.1139 11.127ZM28.9616 10.4121L28.7761 10.487L28.7772 10.4897L28.9616 10.4121ZM27.1686 9.82031L27.2641 9.99604L27.2654 9.99532L27.1686 9.82031ZM26.4362 10.9277L26.2421 10.8792L26.2416 10.8813L26.4362 10.9277ZM26.4538 12.8203L26.2628 12.8798L26.264 12.8836L26.4538 12.8203ZM27.3327 13.8516L27.2459 14.0318L27.2486 14.0331L27.3327 13.8516ZM29.653 13.2129L29.7921 13.0692L29.6323 12.9145L29.4954 13.0898L29.653 13.2129ZM30.3971 13.9336L30.562 14.0468L30.6576 13.9075L30.5363 13.7899L30.3971 13.9336ZM29.8639 14.5078L29.9909 14.6624L29.9925 14.661L29.8639 14.5078ZM29.0612 14.9473L28.9938 14.759L28.993 14.7592L29.0612 14.9473ZM27.9713 14.9172C27.5244 14.9172 27.1264 14.8446 26.7745 14.7031L26.6252 15.0742C27.0311 15.2374 27.4808 15.3172 27.9713 15.3172V14.9172ZM26.7768 14.7041C26.4257 14.5578 26.1288 14.3562 25.8833 14.0999L25.5945 14.3766C25.8803 14.675 26.224 14.9071 26.6229 15.0733L26.7768 14.7041ZM25.8844 14.101C25.6418 13.844 25.4544 13.5409 25.3227 13.1895L24.9481 13.33C25.0976 13.7286 25.3126 14.0779 25.5934 14.3755L25.8844 14.101ZM25.3227 13.1895C25.1911 12.8388 25.1245 12.4585 25.1245 12.0469H24.7245C24.7245 12.5025 24.7984 12.9307 24.9481 13.33L25.3227 13.1895ZM25.1245 12.0469V11.8125H24.7245V12.0469H25.1245ZM25.1245 11.8125C25.1245 11.3358 25.1939 10.9099 25.3295 10.5325L24.953 10.3972C24.7996 10.8244 24.7245 11.297 24.7245 11.8125H25.1245ZM25.3295 10.5325C25.4662 10.1519 25.6547 9.83146 25.8931 9.56772L25.5964 9.29946C25.3192 9.60604 25.1054 9.97308 24.953 10.3972L25.3295 10.5325ZM25.894 9.56672C26.1327 9.29907 26.4137 9.09567 26.7384 8.955L26.5793 8.58797C26.2008 8.75198 25.8724 8.99 25.5955 9.30047L25.894 9.56672ZM26.7384 8.955C27.0631 8.81428 27.4167 8.74297 27.8014 8.74297V8.34297C27.3658 8.34297 26.9577 8.424 26.5793 8.58797L26.7384 8.955ZM27.8014 8.74297C28.2323 8.74297 28.5999 8.8154 28.909 8.95399L29.0727 8.58898C28.7021 8.42289 28.2768 8.34297 27.8014 8.34297V8.74297ZM28.909 8.95399C29.2214 9.094 29.4768 9.28975 29.6787 9.54122L29.9906 9.29081C29.7471 8.98759 29.44 8.75365 29.0727 8.58898L28.909 8.95399ZM29.6806 9.54362C29.8878 9.79366 30.0438 10.0946 30.1464 10.45L30.5307 10.3391C30.4145 9.93668 30.2346 9.58525 29.9886 9.28841L29.6806 9.54362ZM30.1469 10.4518C30.2538 10.8095 30.3084 11.2079 30.3084 11.6484H30.7084C30.7084 11.175 30.6498 10.7374 30.5301 10.3372L30.1469 10.4518ZM30.3084 11.6484V12.252H30.7084V11.6484H30.3084ZM30.5084 12.052H25.61V12.452H30.5084V12.052ZM25.81 12.252V11.2383H25.41V12.252H25.81ZM25.61 11.4383H29.1139V11.0383H25.61V11.4383ZM29.3139 11.2383V11.127H28.9139V11.2383H29.3139ZM29.3138 11.1208C29.3053 10.8436 29.2497 10.581 29.1459 10.3345L28.7772 10.4897C28.861 10.6886 28.9069 10.9025 28.914 11.1331L29.3138 11.1208ZM29.147 10.3373C29.0437 10.0812 28.8822 9.87098 28.6634 9.71145L28.4277 10.0346C28.5839 10.1485 28.6997 10.2977 28.7761 10.4869L29.147 10.3373ZM28.6634 9.71145C28.4316 9.54241 28.1359 9.46797 27.7955 9.46797V9.86797C28.0802 9.86797 28.2845 9.93024 28.4277 10.0346L28.6634 9.71145ZM27.7955 9.46797C27.5313 9.46797 27.2884 9.5255 27.0718 9.64531L27.2654 9.99532C27.416 9.912 27.591 9.86797 27.7955 9.86797V9.46797ZM27.0731 9.64459C26.8614 9.75966 26.687 9.92655 26.5494 10.1395L26.8854 10.3566C26.9901 10.1945 27.1165 10.0763 27.2641 9.99604L27.0731 9.64459ZM26.5494 10.1395C26.4141 10.3491 26.3127 10.597 26.2421 10.8792L26.6302 10.9762C26.6924 10.7273 26.7786 10.522 26.8854 10.3566L26.5494 10.1395ZM26.2416 10.8813C26.1748 11.1611 26.1424 11.472 26.1424 11.8125H26.5424C26.5424 11.4967 26.5725 11.2178 26.6307 10.9742L26.2416 10.8813ZM26.1424 11.8125V12.0469H26.5424V11.8125H26.1424ZM26.1424 12.0469C26.1424 12.3422 26.182 12.6202 26.2628 12.8798L26.6447 12.7608C26.5771 12.5438 26.5424 12.3063 26.5424 12.0469H26.1424ZM26.264 12.8836C26.3496 13.1402 26.4748 13.368 26.6408 13.5646L26.9464 13.3065C26.8155 13.1515 26.7142 12.9692 26.6435 12.7571L26.264 12.8836ZM26.6408 13.5646C26.8077 13.7623 27.01 13.9182 27.2459 14.0318L27.4194 13.6714C27.2334 13.5818 27.0763 13.4604 26.9464 13.3065L26.6408 13.5646ZM27.2486 14.0331C27.4898 14.1447 27.7594 14.198 28.0534 14.198V13.798C27.8082 13.798 27.5974 13.7537 27.4167 13.6701L27.2486 14.0331ZM28.0534 14.198C28.4206 14.198 28.7555 14.124 29.0531 13.9708L28.87 13.6151C28.6364 13.7354 28.3658 13.798 28.0534 13.798V14.198ZM29.0531 13.9708C29.346 13.82 29.5986 13.6074 29.8106 13.336L29.4954 13.0898C29.3167 13.3184 29.1084 13.4925 28.87 13.6151L29.0531 13.9708ZM29.5138 13.3566L30.258 14.0773L30.5363 13.7899L29.7921 13.0692L29.5138 13.3566ZM30.2322 13.8204C30.1074 14.0023 29.9427 14.1806 29.7353 14.3546L29.9925 14.661C30.2227 14.4678 30.4134 14.2633 30.562 14.0468L30.2322 13.8204ZM29.737 14.3533C29.5389 14.5159 29.2925 14.652 28.9938 14.759L29.1286 15.1356C29.4627 15.0159 29.7514 14.8591 29.9909 14.6624L29.737 14.3533ZM28.993 14.7592C28.707 14.8629 28.3676 14.9172 27.9713 14.9172V15.3172C28.4031 15.3172 28.7904 15.2582 29.1293 15.1353L28.993 14.7592ZM33.6402 15V15.2H33.8402V15H33.6402ZM32.228 15H32.028V15.2H32.228V15ZM32.4917 6.86133L32.3168 6.76438L32.3164 6.76511L32.4917 6.86133ZM33.2593 6.12891L33.3479 6.30822L33.3496 6.30737L33.2593 6.12891ZM34.853 5.90625L34.8248 6.10432L34.8303 6.10496L34.853 5.90625ZM35.2515 5.98242L35.4514 5.98887L35.4565 5.83102L35.3041 5.78947L35.2515 5.98242ZM35.2163 7.07227L35.1678 7.26629L35.4082 7.3264L35.4162 7.07871L35.2163 7.07227ZM34.9585 7.03125L34.9412 7.2305L34.9419 7.23056L34.9585 7.03125ZM34.1089 7.14258L34.2002 7.32055L34.2019 7.31966L34.1089 7.14258ZM33.7573 7.48828L33.5812 7.39344L33.5794 7.39702L33.7573 7.48828ZM34.9468 8.66016H35.1468V8.46016H34.9468V8.66016ZM34.9468 9.69141V9.89141H35.1468V9.69141H34.9468ZM31.2554 9.69141H31.0554V9.89141H31.2554V9.69141ZM31.2554 8.66016V8.46016H31.0554V8.66016H31.2554ZM33.6402 14.8H32.228V15.2H33.6402V14.8ZM32.428 15V8.05078H32.028V15H32.428ZM32.428 8.05078C32.428 7.60215 32.5115 7.24096 32.6671 6.95755L32.3164 6.76511C32.1204 7.12232 32.028 7.5541 32.028 8.05078H32.428ZM32.6666 6.95828C32.8266 6.66962 33.0524 6.45423 33.3479 6.30821L33.1707 5.9496C32.8021 6.13171 32.5162 6.4046 32.3168 6.76438L32.6666 6.95828ZM33.3496 6.30737C33.6482 6.15632 34.0085 6.07695 34.437 6.07695V5.67695C33.9593 5.67695 33.5345 5.76556 33.169 5.95044L33.3496 6.30737ZM34.437 6.07695C34.5684 6.07695 34.6976 6.08607 34.8248 6.10424L34.8813 5.70826C34.7351 5.68737 34.5869 5.67695 34.437 5.67695V6.07695ZM34.8303 6.10496C34.9573 6.11946 35.0801 6.14297 35.1989 6.17537L35.3041 5.78947C35.1651 5.75156 35.0223 5.72429 34.8758 5.70754L34.8303 6.10496ZM35.0516 5.97597L35.0164 7.06582L35.4162 7.07871L35.4514 5.98887L35.0516 5.97597ZM35.2648 6.87824C35.1747 6.8557 35.0779 6.8405 34.9751 6.83194L34.9419 7.23056C35.0266 7.23762 35.1017 7.24977 35.1678 7.26629L35.2648 6.87824ZM34.9758 6.832C34.8794 6.82361 34.7759 6.81953 34.6655 6.81953V7.21953C34.7662 7.21953 34.858 7.22326 34.9412 7.2305L34.9758 6.832ZM34.6655 6.81953C34.4253 6.81953 34.2065 6.86548 34.0159 6.9655L34.2019 7.31966C34.3239 7.25562 34.4761 7.21953 34.6655 7.21953V6.81953ZM34.0176 6.96461C33.8288 7.06143 33.6823 7.20586 33.5812 7.39346L33.9334 7.5831C33.9965 7.46602 34.0843 7.37997 34.2002 7.32054L34.0176 6.96461ZM33.5794 7.39702C33.4831 7.5848 33.4402 7.8056 33.4402 8.05078H33.8402C33.8402 7.85065 33.8754 7.69645 33.9353 7.57954L33.5794 7.39702ZM33.4402 8.05078V15H33.8402V8.05078H33.4402ZM34.7468 8.66016V9.69141H35.1468V8.66016H34.7468ZM34.9468 9.49141H31.2554V9.89141H34.9468V9.49141ZM31.4554 9.69141V8.66016H31.0554V9.69141H31.4554ZM31.2554 8.86016H34.9468V8.46016H31.2554V8.86016ZM37.5102 9.86719H37.7104L37.7099 9.85652L37.5102 9.86719ZM37.5102 15V15.2H37.7102V15H37.5102ZM36.098 15H35.898V15.2H36.098V15ZM36.098 8.66016V8.46016H35.898V8.66016H36.098ZM37.4457 8.66016L37.6454 8.64949L37.6353 8.46016H37.4457V8.66016ZM39.4496 8.61914L39.6496 8.62093L39.6508 8.48225L39.5214 8.43247L39.4496 8.61914ZM39.4379 9.93164L39.4021 10.1284L39.6358 10.1709L39.6379 9.93343L39.4379 9.93164ZM39.1566 9.89648L39.1407 10.0958L39.1413 10.0959L39.1566 9.89648ZM38.225 9.99023L38.293 10.1783L38.2965 10.177L38.225 9.99023ZM37.7621 10.2832L37.6185 10.144L37.6185 10.144L37.7621 10.2832ZM37.3637 11.3438L37.3782 11.5432L37.5541 11.5304L37.5634 11.3543L37.3637 11.3438ZM37.0414 11.3672H36.8414V11.5823L37.0559 11.5667L37.0414 11.3672ZM37.5102 9.36328L37.3403 9.25774L37.3391 9.25962L37.5102 9.36328ZM38.1078 8.75977L38.0053 8.58802L38.0041 8.58876L38.1078 8.75977ZM39.2211 8.56641L39.1895 8.7639L39.1907 8.76408L39.2211 8.56641ZM37.3102 9.86719V15H37.7102V9.86719H37.3102ZM37.5102 14.8H36.098V15.2H37.5102V14.8ZM36.298 15V8.66016H35.898V15H36.298ZM36.098 8.86016H37.4457V8.46016H36.098V8.86016ZM37.246 8.67082L37.3104 9.87785L37.7099 9.85652L37.6454 8.64949L37.246 8.67082ZM39.2496 8.61735L39.2379 9.92985L39.6379 9.93343L39.6496 8.62093L39.2496 8.61735ZM39.4737 9.73487C39.38 9.71783 39.2793 9.70533 39.172 9.69707L39.1413 10.0959C39.2371 10.1033 39.3239 10.1142 39.4021 10.1284L39.4737 9.73487ZM39.1726 9.69712C39.0696 9.68889 38.9667 9.68477 38.8637 9.68477V10.0848C38.956 10.0848 39.0483 10.0885 39.1407 10.0958L39.1726 9.69712ZM38.8637 9.68477C38.6025 9.68477 38.3645 9.72264 38.1535 9.80346L38.2965 10.177C38.4527 10.1172 38.6405 10.0848 38.8637 10.0848V9.68477ZM38.157 9.80216C37.9473 9.87798 37.7665 9.9914 37.6185 10.144L37.9057 10.4224C38.0077 10.3172 38.1355 10.2353 38.293 10.1783L38.157 9.80216ZM37.6185 10.144C37.4762 10.2909 37.3683 10.4678 37.2933 10.6709L37.6685 10.8096C37.7262 10.6533 37.8059 10.5255 37.9058 10.4224L37.6185 10.144ZM37.2933 10.6709C37.2188 10.8723 37.1766 11.0937 37.1639 11.3332L37.5634 11.3543C37.5742 11.1485 37.6101 10.9676 37.6685 10.8096L37.2933 10.6709ZM37.3492 11.1443L37.0269 11.1677L37.0559 11.5667L37.3782 11.5432L37.3492 11.1443ZM37.2414 11.3672C37.2414 10.9817 37.2792 10.6278 37.3535 10.3046L36.9637 10.215C36.8817 10.5714 36.8414 10.9558 36.8414 11.3672H37.2414ZM37.3535 10.3046C37.4276 9.98231 37.5376 9.70393 37.6812 9.46694L37.3391 9.25962C37.1702 9.53825 37.0458 9.85754 36.9637 10.215L37.3535 10.3046ZM37.68 9.46882C37.8251 9.2353 38.0025 9.05756 38.2115 8.93077L38.0041 8.58876C37.7366 8.75103 37.5155 8.97564 37.3403 9.25774L37.68 9.46882ZM38.2103 8.93151C38.4179 8.80765 38.6609 8.74297 38.9457 8.74297V8.34297C38.5977 8.34297 38.2822 8.42282 38.0053 8.58802L38.2103 8.93151ZM38.9457 8.74297C39.0196 8.74297 39.1008 8.7497 39.1895 8.76389L39.2527 8.36892C39.1461 8.35187 39.0437 8.34297 38.9457 8.34297V8.74297ZM39.1907 8.76408C39.2882 8.77909 39.3474 8.79411 39.3778 8.80581L39.5214 8.43247C39.4502 8.4051 39.3571 8.38498 39.2515 8.36873L39.1907 8.76408ZM43.3196 9.73828L43.2235 9.91371L43.2253 9.91464L43.3196 9.73828ZM41.5677 10.4883V10.6883H41.7677V10.4883H41.5677ZM40.1614 10.4883H39.9614V10.6883H40.1614V10.4883ZM44.0403 8.7832L43.9604 8.96653L43.9611 8.96683L44.0403 8.7832ZM44.9134 9.50977L44.7457 9.61884L44.7473 9.62117L44.9134 9.50977ZM45.2942 14.3145L45.097 14.3479L45.0977 14.3517L45.2942 14.3145ZM45.4759 14.9062H45.6759V14.862L45.6572 14.8219L45.4759 14.9062ZM45.4759 15V15.2H45.6759V15H45.4759ZM44.0286 15L43.8453 15.0799L43.8976 15.2H44.0286V15ZM43.8704 14.4199L43.6725 14.4491L43.6731 14.4528L43.8704 14.4199ZM44.0227 11.1445L44.2227 11.1418L44.2201 10.9445H44.0227V11.1445ZM44.0345 12.0176V12.2176H44.2372L44.2344 12.0149L44.0345 12.0176ZM42.3294 12.0938L42.3752 12.2885L42.3788 12.2876L42.3294 12.0938ZM41.5501 13.5586L41.3752 13.6557L41.3764 13.6578L41.5501 13.5586ZM41.8899 13.8809L41.7968 14.0579L41.7987 14.0588L41.8899 13.8809ZM43.1966 13.8223L43.2923 13.9978L43.2934 13.9972L43.1966 13.8223ZM43.7122 13.3828L43.8739 13.5005L43.8752 13.4987L43.7122 13.3828ZM43.9114 12.8848L44.073 12.767L43.7399 12.31L43.7117 12.8748L43.9114 12.8848ZM44.3684 13.5117L44.5604 13.5679L44.588 13.4734L44.5301 13.3939L44.3684 13.5117ZM43.6829 14.5547L43.8177 14.7024L43.8179 14.7022L43.6829 14.5547ZM43.0325 14.959L42.9558 14.7743L42.9548 14.7747L43.0325 14.959ZM41.0579 14.8711L40.9659 15.0487L40.9676 15.0495L41.0579 14.8711ZM40.2962 14.1973L40.128 14.3055L40.1287 14.3066L40.2962 14.1973ZM40.2083 12.3398L40.0289 12.2515L40.0283 12.2526L40.2083 12.3398ZM40.7708 11.6836L40.6557 11.52L40.6545 11.5208L40.7708 11.6836ZM41.6848 11.2852L41.7334 11.4792L41.7353 11.4787L41.6848 11.2852ZM44.0177 13.7285V10.7051H43.6177V13.7285H44.0177ZM44.0177 10.7051C44.0177 10.4546 43.9723 10.2273 43.8735 10.0297L43.5157 10.2086C43.581 10.3391 43.6177 10.5024 43.6177 10.7051H44.0177ZM43.8735 10.0297C43.7722 9.82712 43.6169 9.67049 43.4139 9.56192L43.2253 9.91464C43.3582 9.98576 43.4529 10.083 43.5157 10.2086L43.8735 10.0297ZM43.4157 9.56286C43.2139 9.45237 42.9712 9.40352 42.6985 9.40352V9.80352C42.9258 9.80352 43.0972 9.8445 43.2235 9.9137L43.4157 9.56286ZM42.6985 9.40352C42.4458 9.40352 42.2165 9.44633 42.0165 9.53936L42.1852 9.90205C42.3211 9.83883 42.4903 9.80352 42.6985 9.80352V9.40352ZM42.0165 9.53936C41.8214 9.63012 41.6614 9.75665 41.5449 9.92177L41.8717 10.1524C41.9426 10.0519 42.0444 9.96753 42.1852 9.90205L42.0165 9.53936ZM41.5449 9.92177C41.4265 10.0895 41.3677 10.2805 41.3677 10.4883H41.7677C41.7677 10.3602 41.8026 10.2503 41.8717 10.1524L41.5449 9.92177ZM41.5677 10.2883H40.1614V10.6883H41.5677V10.2883ZM40.3614 10.4883C40.3614 10.272 40.4135 10.0611 40.5207 9.85352L40.1654 9.66991C40.0304 9.93106 39.9614 10.2046 39.9614 10.4883H40.3614ZM40.5207 9.85352C40.6274 9.64697 40.784 9.45929 40.995 9.2912L40.7458 8.97833C40.4958 9.17743 40.3008 9.40772 40.1654 9.66991L40.5207 9.85352ZM40.995 9.2912C41.2045 9.12434 41.4581 8.99025 41.7591 8.89114L41.634 8.5112C41.2944 8.62303 40.9973 8.778 40.7458 8.97833L40.995 9.2912ZM41.7591 8.89114C42.056 8.7934 42.3937 8.74297 42.7747 8.74297V8.34297C42.3588 8.34297 41.9778 8.39801 41.634 8.5112L41.7591 8.89114ZM42.7747 8.74297C43.2289 8.74297 43.6227 8.81925 43.9604 8.96652L44.1203 8.59988C43.7235 8.42684 43.2736 8.34297 42.7747 8.34297V8.74297ZM43.9611 8.96683C44.2977 9.11212 44.5573 9.32916 44.7457 9.61883L45.081 9.4007C44.8476 9.04193 44.5251 8.7746 44.1196 8.59957L43.9611 8.96683ZM44.7473 9.62117C44.935 9.901 45.0356 10.2619 45.0356 10.7168H45.4356C45.4356 10.2029 45.3215 9.75915 45.0795 9.39836L44.7473 9.62117ZM45.0356 10.7168V13.5352H45.4356V10.7168H45.0356ZM45.0356 13.5352C45.0356 13.8329 45.0557 14.1041 45.097 14.3479L45.4914 14.281C45.4546 14.0638 45.4356 13.8155 45.4356 13.5352H45.0356ZM45.0977 14.3517C45.1431 14.5908 45.208 14.8045 45.2945 14.9906L45.6572 14.8219C45.5875 14.6721 45.5313 14.4913 45.4907 14.2772L45.0977 14.3517ZM45.2759 14.9062V15H45.6759V14.9062H45.2759ZM45.4759 14.8H44.0286V15.2H45.4759V14.8ZM44.2119 14.9201C44.1542 14.7877 44.1051 14.6115 44.0677 14.387L43.6731 14.4528C43.7138 14.6971 43.7701 14.9076 43.8453 15.0799L44.2119 14.9201ZM44.0682 14.3907C44.0344 14.1613 44.0177 13.9406 44.0177 13.7285H43.6177C43.6177 13.9617 43.6361 14.2019 43.6725 14.4491L44.0682 14.3907ZM43.8228 11.1472L43.8345 12.0203L44.2344 12.0149L44.2227 11.1418L43.8228 11.1472ZM44.0345 11.8176H43.0208V12.2176H44.0345V11.8176ZM43.0208 11.8176C42.7467 11.8176 42.499 11.8441 42.28 11.8999L42.3788 12.2876C42.5582 12.2418 42.7714 12.2176 43.0208 12.2176V11.8176ZM42.2836 11.8991C42.0656 11.9504 41.8744 12.0295 41.716 12.1413L41.9467 12.4681C42.0539 12.3924 42.1947 12.3309 42.3752 12.2884L42.2836 11.8991ZM41.716 12.1413C41.5588 12.2522 41.4361 12.39 41.3536 12.5551L41.7114 12.734C41.7617 12.6334 41.8382 12.5446 41.9467 12.4681L41.716 12.1413ZM41.3536 12.5551C41.2716 12.7191 41.2329 12.9008 41.2329 13.0957H41.6329C41.6329 12.9547 41.6606 12.8356 41.7114 12.734L41.3536 12.5551ZM41.2329 13.0957C41.2329 13.2961 41.2799 13.4841 41.3752 13.6557L41.7249 13.4615C41.664 13.3519 41.6329 13.2312 41.6329 13.0957H41.2329ZM41.3764 13.6578C41.4747 13.8298 41.6169 13.9632 41.7968 14.0578L41.9831 13.7039C41.866 13.6423 41.7817 13.5608 41.7237 13.4594L41.3764 13.6578ZM41.7987 14.0588C41.9855 14.1547 42.202 14.198 42.4407 14.198V13.798C42.2497 13.798 42.099 13.7633 41.9812 13.7029L41.7987 14.0588ZM42.4407 14.198C42.7572 14.198 43.0432 14.1337 43.2923 13.9978L43.1008 13.6467C42.9202 13.7452 42.7024 13.798 42.4407 13.798V14.198ZM43.2934 13.9972C43.5333 13.8645 43.729 13.6998 43.8739 13.5004L43.5504 13.2652C43.4454 13.4096 43.2974 13.5379 43.0997 13.6473L43.2934 13.9972ZM43.8752 13.4987C44.0142 13.3032 44.1008 13.101 44.1112 12.8948L43.7117 12.8748C43.7063 12.9811 43.6602 13.1109 43.5492 13.2669L43.8752 13.4987ZM43.7498 13.0026L44.2068 13.6295L44.5301 13.3939L44.073 12.767L43.7498 13.0026ZM44.1765 13.4555C44.1359 13.5944 44.0645 13.7498 43.958 13.9223L44.2984 14.1324C44.4185 13.9377 44.5073 13.7494 44.5604 13.5679L44.1765 13.4555ZM43.958 13.9223C43.8558 14.088 43.7199 14.2498 43.5479 14.4071L43.8179 14.7022C44.0131 14.5237 44.1741 14.3339 44.2984 14.1324L43.958 13.9223ZM43.548 14.407C43.3875 14.5536 43.1911 14.6766 42.9558 14.7743L43.1092 15.1437C43.3818 15.0305 43.6189 14.8839 43.8177 14.7024L43.548 14.407ZM42.9548 14.7747C42.7339 14.8679 42.4722 14.9172 42.1653 14.9172V15.3172C42.5147 15.3172 42.8311 15.261 43.1102 15.1433L42.9548 14.7747ZM42.1653 14.9172C41.7782 14.9172 41.4407 14.8407 41.1482 14.6926L40.9676 15.0495C41.3235 15.2296 41.7243 15.3172 42.1653 15.3172V14.9172ZM41.1499 14.6935C40.8535 14.54 40.6268 14.3378 40.4636 14.0879L40.1287 14.3066C40.3328 14.6192 40.6138 14.8663 40.9659 15.0487L41.1499 14.6935ZM40.4643 14.089C40.3028 13.8381 40.2208 13.5538 40.2208 13.2305H39.8208C39.8208 13.6258 39.9224 13.9861 40.128 14.3055L40.4643 14.089ZM40.2208 13.2305C40.2208 12.9196 40.2785 12.6534 40.3882 12.4271L40.0283 12.2526C39.888 12.5419 39.8208 12.8695 39.8208 13.2305H40.2208ZM40.3877 12.4282C40.5015 12.1972 40.6668 12.0037 40.887 11.8463L40.6545 11.5208C40.3826 11.7151 40.1729 11.959 40.0289 12.2515L40.3877 12.4282ZM40.8858 11.8472C41.1119 11.6882 41.3929 11.5643 41.7334 11.4792L41.6363 11.0911C41.258 11.1857 40.9296 11.3274 40.6557 11.52L40.8858 11.8472ZM41.7353 11.4787C42.0748 11.3901 42.4675 11.3445 42.9153 11.3445V10.9445C42.4412 10.9445 42.0136 10.9927 41.6344 11.0916L41.7353 11.4787ZM42.9153 11.3445H44.0227V10.9445H42.9153V11.3445ZM48.2443 9.94922H48.4447L48.4439 9.93652L48.2443 9.94922ZM48.2443 15V15.2H48.4443V15H48.2443ZM46.8322 15H46.6322V15.2H46.8322V15ZM46.8322 8.66016V8.46016H46.6322V8.66016H46.8322ZM48.1623 8.66016L48.3619 8.64745L48.3499 8.46016H48.1623V8.66016ZM48.0158 11.5957L48.0133 11.7957L48.2158 11.7982V11.5957H48.0158ZM47.5353 11.5898H47.3353V11.7874L47.5329 11.7898L47.5353 11.5898ZM48.1798 9.41016L48.3382 9.53232L48.339 9.53123L48.1798 9.41016ZM48.965 8.77148L49.0508 8.95214L49.0518 8.95168L48.965 8.77148ZM50.8517 8.67188L50.7839 8.86005L50.7876 8.8613L50.8517 8.67188ZM51.4787 9.06445L51.3357 9.20432L51.3373 9.20587L51.4787 9.06445ZM51.8888 9.75586L51.6991 9.81911L51.6999 9.82146L51.8888 9.75586ZM52.0353 15V15.2H52.2353V15H52.0353ZM50.6232 15H50.4232V15.2H50.6232V15ZM50.4826 10.1719L50.3045 10.2629L50.3061 10.266L50.4826 10.1719ZM50.09 9.79688L50.0056 9.97829L50.0107 9.98049L50.09 9.79688ZM48.8068 9.83203L48.7115 9.65617L48.71 9.65702L48.8068 9.83203ZM51.9474 11.2207L51.9906 11.416L52.1474 11.3813V11.2207H51.9474ZM51.2853 11.3672H51.0853V11.6163L51.3285 11.5625L51.2853 11.3672ZM51.4435 10.2832L51.2529 10.2226L51.2525 10.2239L51.4435 10.2832ZM51.9181 9.38086L51.7624 9.25535L51.7622 9.25563L51.9181 9.38086ZM54.6252 8.67773L54.5584 8.86631L54.5619 8.86747L54.6252 8.67773ZM55.6916 9.82031L55.5006 9.87983L55.5008 9.88054L55.6916 9.82031ZM55.8322 15V15.2H56.0322V15H55.8322ZM54.4142 15H54.2142V15.2H54.4142V15ZM54.2736 10.1484L54.0955 10.2395L54.0971 10.2426L54.2736 10.1484ZM53.8869 9.78516L53.8096 9.96968L53.8133 9.97115L53.8869 9.78516ZM52.7033 9.80273L52.7893 9.98332L52.791 9.98245L52.7033 9.80273ZM52.2873 10.1367L52.443 10.2622L52.4447 10.2601L52.2873 10.1367ZM52.0295 10.623L51.8389 10.5622L51.8378 10.566L52.0295 10.623ZM48.0443 9.94922V15H48.4443V9.94922H48.0443ZM48.2443 14.8H46.8322V15.2H48.2443V14.8ZM47.0322 15V8.66016H46.6322V15H47.0322ZM46.8322 8.86016H48.1623V8.46016H46.8322V8.86016ZM47.9627 8.67286L48.0447 9.96192L48.4439 9.93652L48.3619 8.64745L47.9627 8.67286ZM48.0182 11.3957L47.5378 11.3899L47.5329 11.7898L48.0133 11.7957L48.0182 11.3957ZM47.7353 11.5898C47.7353 11.169 47.7879 10.784 47.8912 10.4335L47.5075 10.3204C47.3921 10.7121 47.3353 11.1357 47.3353 11.5898H47.7353ZM47.8912 10.4335C47.9944 10.0833 48.1441 9.78393 48.3382 9.53232L48.0215 9.288C47.7937 9.58326 47.6231 9.9284 47.5075 10.3204L47.8912 10.4335ZM48.339 9.53123C48.5308 9.27913 48.7674 9.08676 49.0508 8.95214L48.8792 8.59083C48.5376 8.75308 48.2508 8.98649 48.0207 9.28908L48.339 9.53123ZM49.0518 8.95168C49.3367 8.81451 49.6713 8.74297 50.0607 8.74297V8.34297C49.6219 8.34297 49.2261 8.42377 48.8782 8.59128L49.0518 8.95168ZM50.0607 8.74297C50.3299 8.74297 50.5702 8.78295 50.7839 8.86001L50.9196 8.48374C50.6567 8.38893 50.3697 8.34297 50.0607 8.34297V8.74297ZM50.7876 8.8613C51.0005 8.93342 51.1823 9.04752 51.3357 9.20431L51.6216 8.92459C51.4235 8.72202 51.1873 8.57439 50.9159 8.48245L50.7876 8.8613ZM51.3373 9.20587C51.4916 9.36023 51.6135 9.56241 51.6991 9.8191L52.0786 9.69261C51.9766 9.38681 51.8251 9.12806 51.6201 8.92303L51.3373 9.20587ZM51.6999 9.82146C51.7882 10.0758 51.8353 10.3922 51.8353 10.7754H52.2353C52.2353 10.3617 52.1848 9.99838 52.0778 9.69026L51.6999 9.82146ZM51.8353 10.7754V15H52.2353V10.7754H51.8353ZM52.0353 14.8H50.6232V15.2H52.0353V14.8ZM50.8232 15V10.8984H50.4232V15H50.8232ZM50.8232 10.8984C50.8232 10.5734 50.7745 10.2941 50.659 10.0778L50.3061 10.266C50.3782 10.4012 50.4232 10.6063 50.4232 10.8984H50.8232ZM50.6607 10.0809C50.5509 9.8661 50.3863 9.70698 50.1693 9.61326L50.0107 9.98049C50.1374 10.0352 50.2346 10.1261 50.3045 10.2629L50.6607 10.0809ZM50.1743 9.61553C49.9739 9.52231 49.7425 9.47969 49.4865 9.47969V9.87969C49.6992 9.87969 49.8701 9.91519 50.0057 9.97822L50.1743 9.61553ZM49.4865 9.47969C49.1956 9.47969 48.9346 9.53533 48.7115 9.65617L48.9021 10.0079C49.054 9.9256 49.2461 9.87969 49.4865 9.87969V9.47969ZM48.71 9.65702C48.4982 9.77418 48.324 9.9349 48.1892 10.1371L48.522 10.359C48.6216 10.2096 48.7482 10.093 48.9036 10.007L48.71 9.65702ZM48.1892 10.1371C48.0574 10.3349 47.9627 10.5605 47.9032 10.8112L48.2924 10.9036C48.3423 10.6934 48.4195 10.5128 48.522 10.359L48.1892 10.1371ZM47.9032 10.8112C47.8446 11.0583 47.8158 11.32 47.8158 11.5957H48.2158C48.2158 11.3479 48.2417 11.1175 48.2924 10.9036L47.9032 10.8112ZM51.9042 11.0254L51.2421 11.1719L51.3285 11.5625L51.9906 11.416L51.9042 11.0254ZM51.4853 11.3672C51.4853 11.003 51.5355 10.6617 51.6345 10.3425L51.2525 10.2239C51.1406 10.5844 51.0853 10.9658 51.0853 11.3672H51.4853ZM51.6341 10.3438C51.7367 10.0214 51.8838 9.74301 52.0741 9.50609L51.7622 9.25563C51.5384 9.53433 51.3691 9.85748 51.2529 10.2226L51.6341 10.3438ZM52.0738 9.50636C52.2658 9.26824 52.5018 9.08166 52.7841 8.94586L52.6107 8.58539C52.2759 8.74647 51.9924 8.97005 51.7624 9.25535L52.0738 9.50636ZM52.7841 8.94586C53.0616 8.8124 53.3847 8.74297 53.758 8.74297V8.34297C53.3344 8.34297 52.9505 8.42198 52.6107 8.58539L52.7841 8.94586ZM53.758 8.74297C54.064 8.74297 54.3298 8.78538 54.5584 8.86628L54.6919 8.48919C54.4127 8.3904 54.1004 8.34297 53.758 8.34297V8.74297ZM54.5619 8.86747C54.7904 8.94363 54.9809 9.06333 55.137 9.22627L55.4258 8.94951C55.2226 8.73745 54.9756 8.58372 54.6884 8.488L54.5619 8.86747ZM55.137 9.22627C55.2912 9.38717 55.4141 9.60237 55.5006 9.87983L55.8825 9.7608C55.7815 9.43669 55.631 9.16361 55.4258 8.94951L55.137 9.22627ZM55.5008 9.88054C55.5867 10.1524 55.6322 10.4903 55.6322 10.8984H56.0322C56.0322 10.4629 55.9839 10.082 55.8823 9.76009L55.5008 9.88054ZM55.6322 10.8984V15H56.0322V10.8984H55.6322ZM55.8322 14.8H54.4142V15.2H55.8322V14.8ZM54.6142 15V10.8926H54.2142V15H54.6142ZM54.6142 10.8926C54.6142 10.5573 54.5659 10.2715 54.4501 10.0543L54.0971 10.2426C54.1688 10.3769 54.2142 10.5872 54.2142 10.8926H54.6142ZM54.4517 10.0574C54.3419 9.84266 54.178 9.68517 53.9604 9.59916L53.8133 9.97115C53.9317 10.018 54.0256 10.1026 54.0955 10.2395L54.4517 10.0574ZM53.9641 9.60067C53.7657 9.51764 53.537 9.47969 53.2834 9.47969V9.87969C53.4985 9.87969 53.6721 9.91205 53.8096 9.96964L53.9641 9.60067ZM53.2834 9.47969C53.0393 9.47969 52.8151 9.52555 52.6155 9.62302L52.791 9.98245C52.9274 9.91586 53.0899 9.87969 53.2834 9.87969V9.47969ZM52.6173 9.62216C52.425 9.71372 52.262 9.84475 52.1299 10.0133L52.4447 10.2601C52.5391 10.1396 52.6534 10.048 52.7893 9.98331L52.6173 9.62216ZM52.1315 10.0113C52.0017 10.1724 51.9045 10.3567 51.8389 10.5622L52.22 10.6839C52.2716 10.5222 52.3462 10.3823 52.443 10.2622L52.1315 10.0113ZM51.8378 10.566C51.7769 10.7702 51.7474 10.9888 51.7474 11.2207H52.1474C52.1474 11.0229 52.1726 10.8431 52.2211 10.6801L51.8378 10.566ZM58.917 8.66016H59.117V8.46016H58.917V8.66016ZM58.917 15V15.2H59.117V15H58.917ZM57.4991 15H57.2991V15.2H57.4991V15ZM57.4991 8.66016V8.46016H57.2991V8.66016H57.4991ZM58.8057 6.46289L58.6643 6.60433L58.6662 6.60624L58.8057 6.46289ZM57.6162 7.52344L57.4748 7.66487L57.4768 7.66678L57.6162 7.52344ZM58.717 8.66016V15H59.117V8.66016H58.717ZM58.917 14.8H57.4991V15.2H58.917V14.8ZM57.6991 15V8.66016H57.2991V15H57.6991ZM57.4991 8.86016H58.917V8.46016H57.4991V8.86016ZM57.6053 6.99609C57.6053 6.82959 57.6578 6.70423 57.7577 6.60431L57.4748 6.32147C57.2935 6.5028 57.2053 6.73291 57.2053 6.99609H57.6053ZM57.7577 6.60431C57.8561 6.50592 57.9994 6.44609 58.2139 6.44609V6.04609C57.9206 6.04609 57.6655 6.1308 57.4748 6.32147L57.7577 6.60431ZM58.2139 6.44609C58.4235 6.44609 58.5653 6.50534 58.6643 6.60431L58.9471 6.32147C58.757 6.13138 58.5044 6.04609 58.2139 6.04609V6.44609ZM58.6662 6.60624C58.7693 6.70655 58.8225 6.83131 58.8225 6.99609H59.2225C59.2225 6.73119 59.1311 6.50048 58.9452 6.31955L58.6662 6.60624ZM58.8225 6.99609C58.8225 7.15582 58.7701 7.27902 58.6662 7.38009L58.9452 7.66678C59.1304 7.48661 59.2225 7.25824 59.2225 6.99609H58.8225ZM58.6662 7.38009C58.5675 7.47614 58.425 7.53437 58.2139 7.53437V7.93438C58.5028 7.93438 58.7548 7.85199 58.9452 7.66678L58.6662 7.38009ZM58.2139 7.53437C57.9979 7.53437 57.8539 7.47558 57.7557 7.38009L57.4768 7.66678C57.6677 7.85254 57.9221 7.93438 58.2139 7.93438V7.53437ZM57.7577 7.38202C57.657 7.28135 57.6053 7.15756 57.6053 6.99609H57.2053C57.2053 7.2565 57.2942 7.48427 57.4748 7.66486L57.7577 7.38202ZM61.9843 10.0137H62.1847L62.1839 10.0016L61.9843 10.0137ZM61.9843 15V15.2H62.1843V15H61.9843ZM60.5722 15H60.3722V15.2H60.5722V15ZM60.5722 8.66016V8.46016H60.3722V8.66016H60.5722ZM61.9023 8.66016L62.1019 8.64806L62.0905 8.46016H61.9023V8.66016ZM61.7323 11.5957L61.7298 11.7957L61.9323 11.7983V11.5957H61.7323ZM61.2753 11.5898L61.0753 11.5881L61.0736 11.7873L61.2728 11.7898L61.2753 11.5898ZM61.4628 10.3535L61.2731 10.2903L61.2725 10.2921L61.4628 10.3535ZM61.9784 9.38672L61.8242 9.25934L61.8231 9.26068L61.9784 9.38672ZM62.7753 8.76562L62.8601 8.94675L62.862 8.94586L62.7753 8.76562ZM64.6327 8.67188L64.5668 8.86073L64.5704 8.86191L64.6327 8.67188ZM65.2714 9.07617L65.1255 9.21297L65.127 9.21455L65.2714 9.07617ZM65.6816 9.80859L65.4906 9.86811L65.4908 9.86882L65.6816 9.80859ZM65.8222 15V15.2H66.0222V15H65.8222ZM64.4042 15H64.2042V15.2H64.4042V15ZM64.2695 10.1777L64.089 10.2641L64.0914 10.2688L64.2695 10.1777ZM63.8886 9.79688L63.8026 9.97752L63.8078 9.97981L63.8886 9.79688ZM62.1366 10.248L61.9771 10.1275L61.9754 10.1298L62.1366 10.248ZM61.7843 10.0137V15H62.1843V10.0137H61.7843ZM61.9843 14.8H60.5722V15.2H61.9843V14.8ZM60.7722 15V8.66016H60.3722V15H60.7722ZM60.5722 8.86016H61.9023V8.46016H60.5722V8.86016ZM61.7026 8.67226L61.7847 10.0258L62.1839 10.0016L62.1019 8.64806L61.7026 8.67226ZM61.7349 11.3957L61.2779 11.3899L61.2728 11.7898L61.7298 11.7957L61.7349 11.3957ZM61.4753 11.5916C61.4791 11.1599 61.5391 10.7682 61.6531 10.415L61.2725 10.2921C61.1444 10.6888 61.0794 11.1214 61.0753 11.5881L61.4753 11.5916ZM61.6526 10.4168C61.771 10.0615 61.9321 9.76119 62.1337 9.51275L61.8231 9.26068C61.5873 9.55131 61.4046 9.89557 61.2731 10.2903L61.6526 10.4168ZM62.1326 9.5141C62.3369 9.26678 62.5791 9.07839 62.8601 8.94674L62.6905 8.58451C62.3544 8.74193 62.0653 8.96759 61.8242 9.25934L62.1326 9.5141ZM62.862 8.94586C63.1408 8.81176 63.4544 8.74297 63.8066 8.74297V8.34297C63.4009 8.34297 63.027 8.42261 62.6886 8.58539L62.862 8.94586ZM63.8066 8.74297C64.0925 8.74297 64.3451 8.78329 64.5668 8.86069L64.6987 8.48306C64.4281 8.38859 64.13 8.34297 63.8066 8.34297V8.74297ZM64.5704 8.86191C64.7893 8.93374 64.9732 9.05053 65.1255 9.21296L65.4173 8.93938C65.218 8.72681 64.9762 8.57408 64.6951 8.48184L64.5704 8.86191ZM65.127 9.21455C65.2812 9.37545 65.4041 9.59065 65.4906 9.86811L65.8725 9.74908C65.7715 9.42497 65.621 9.15189 65.4158 8.93779L65.127 9.21455ZM65.4908 9.86882C65.5766 10.1402 65.6222 10.4838 65.6222 10.9043H66.0222C66.0222 10.4577 65.9741 10.0707 65.8723 9.74837L65.4908 9.86882ZM65.6222 10.9043V15H66.0222V10.9043H65.6222ZM65.8222 14.8H64.4042V15.2H65.8222V14.8ZM64.6042 15V10.8984H64.2042V15H64.6042ZM64.6042 10.8984C64.6042 10.5777 64.5575 10.3019 64.4475 10.0867L64.0914 10.2688C64.1611 10.4052 64.2042 10.6098 64.2042 10.8984H64.6042ZM64.4499 10.0914C64.3452 9.87262 64.1849 9.70914 63.9694 9.61394L63.8078 9.97981C63.9282 10.033 64.0218 10.1235 64.089 10.264L64.4499 10.0914ZM63.9746 9.6163C63.7759 9.52169 63.5392 9.47969 63.2734 9.47969V9.87969C63.4997 9.87969 63.6732 9.91581 63.8026 9.97745L63.9746 9.6163ZM63.2734 9.47969C63.0024 9.47969 62.7528 9.53675 62.5292 9.65536L62.7167 10.0087C62.876 9.92419 63.06 9.87969 63.2734 9.87969V9.47969ZM62.5292 9.65536C62.3116 9.77083 62.1272 9.92882 61.9771 10.1275L62.2962 10.3686C62.4117 10.2157 62.5515 10.0964 62.7167 10.0087L62.5292 9.65536ZM61.9754 10.1298C61.8318 10.3255 61.7227 10.5493 61.6465 10.7991L62.0291 10.9158C62.0935 10.7046 62.1836 10.5222 62.2979 10.3663L61.9754 10.1298ZM61.6465 10.7991C61.57 11.05 61.5323 11.3159 61.5323 11.5957H61.9323C61.9323 11.3521 61.965 11.1258 62.0291 10.9158L61.6465 10.7991ZM71.4441 8.66016V8.46016H71.2613L71.2449 8.64227L71.4441 8.66016ZM72.7273 8.66016H72.9273V8.46016H72.7273V8.66016ZM71.3504 17.1855L71.2642 17.0051L71.2629 17.0057L71.3504 17.1855ZM69.0359 17.3965L68.9893 17.591L68.9898 17.5911L69.0359 17.3965ZM68.1805 17.0566L68.2786 16.8824L68.2778 16.8819L68.1805 17.0566ZM67.4949 16.4531L67.3384 16.3286L67.2432 16.4482L67.3337 16.5715L67.4949 16.4531ZM68.157 15.6211L68.3101 15.4924L68.1528 15.3052L68.0005 15.4966L68.157 15.6211ZM70.5945 16.2188L70.5039 16.0404L70.5003 16.0424L70.5945 16.2188ZM71.3152 10.0957L71.116 10.0778L71.1152 10.0867V10.0957H71.3152ZM67.3133 10.4648L67.505 10.5218L67.5052 10.5213L67.3133 10.4648ZM67.8172 9.43945L67.9759 9.56119L67.9767 9.56014L67.8172 9.43945ZM68.6141 8.77734L68.7017 8.95713L68.7035 8.95623L68.6141 8.77734ZM70.7234 8.76562L70.6321 8.94354L70.633 8.94403L70.7234 8.76562ZM71.4559 9.4043L71.2923 9.51946L71.2931 9.52054L71.4559 9.4043ZM71.9129 10.3887L71.7206 10.4436L71.7213 10.446L71.9129 10.3887ZM72.1648 11.6543H72.3648V11.6426L72.3635 11.6309L72.1648 11.6543ZM72.1648 12.0469L72.3636 12.0691L72.3648 12.058V12.0469H72.1648ZM70.6883 14.8945L70.5979 14.7161L70.5969 14.7166L70.6883 14.8945ZM68.6141 14.877L68.5219 15.0545L68.5228 15.0549L68.6141 14.877ZM67.8172 14.2031L67.6577 14.3238L67.6587 14.3252L67.8172 14.2031ZM67.3133 13.1836L67.1216 13.2405L67.1217 13.2411L67.3133 13.1836ZM68.6316 12.709L68.4362 12.7517L68.4369 12.7546L68.6316 12.709ZM68.8953 13.3711L68.7247 13.4756L68.7273 13.4796L68.8953 13.3711ZM69.3523 13.8164L69.25 13.9883L69.2543 13.9907L69.3523 13.8164ZM70.8289 13.7637L70.7194 13.5963L70.718 13.5973L70.8289 13.7637ZM71.3211 13.1953L71.1411 13.1082L71.1405 13.1094L71.3211 13.1953ZM71.5672 12.3867L71.7647 12.4179L71.7672 12.4024V12.3867H71.5672ZM71.5672 11.3262H71.7672V11.316L71.7662 11.3059L71.5672 11.3262ZM71.4207 10.6816L71.2321 10.7482L71.2333 10.7515L71.4207 10.6816ZM71.1336 10.1602L70.977 10.2846L70.9786 10.2866L71.1336 10.1602ZM70.6766 9.80859L70.5918 9.98976L70.595 9.9912L70.6766 9.80859ZM68.9012 10.2949L68.7321 10.188L68.7306 10.1905L68.9012 10.2949ZM71.4441 8.86016H72.7273V8.46016H71.4441V8.86016ZM72.5273 8.66016V14.8242H72.9273V8.66016H72.5273ZM72.5273 14.8242C72.5273 15.3661 72.4125 15.8126 72.1932 16.1735L72.535 16.3812C72.8 15.9452 72.9273 15.423 72.9273 14.8242H72.5273ZM72.1932 16.1735C71.9718 16.5376 71.6639 16.8142 71.2642 17.0051L71.4366 17.366C71.9041 17.1428 72.2719 16.8139 72.535 16.3812L72.1932 16.1735ZM71.2629 17.0057C70.8611 17.2012 70.39 17.302 69.8445 17.302V17.702C70.4397 17.702 70.9725 17.5918 71.4379 17.3654L71.2629 17.0057ZM69.8445 17.302C69.6213 17.302 69.3675 17.2695 69.082 17.2019L68.9898 17.5911C69.2981 17.6641 69.5834 17.702 69.8445 17.702V17.302ZM69.0826 17.202C68.8087 17.1363 68.5408 17.0301 68.2786 16.8824L68.0823 17.2309C68.3749 17.3957 68.6773 17.5161 68.9893 17.591L69.0826 17.202ZM68.2778 16.8819C68.0292 16.7434 67.8226 16.5614 67.6561 16.3347L67.3337 16.5715C67.5345 16.8449 67.7848 17.0652 68.0831 17.2314L68.2778 16.8819ZM67.6514 16.5777L68.3135 15.7456L68.0005 15.4966L67.3384 16.3286L67.6514 16.5777ZM68.0039 15.7498C68.2463 16.0382 68.5192 16.2555 68.8239 16.3948L68.9902 16.031C68.748 15.9203 68.5209 15.7431 68.3101 15.4924L68.0039 15.7498ZM68.8239 16.3948C69.1234 16.5317 69.4389 16.6004 69.7684 16.6004V16.2004C69.4963 16.2004 69.2375 16.1441 68.9902 16.031L68.8239 16.3948ZM69.7684 16.6004C70.117 16.6004 70.4266 16.5353 70.6888 16.3951L70.5003 16.0424C70.3093 16.1444 70.0681 16.2004 69.7684 16.2004V16.6004ZM70.6852 16.397C70.9523 16.2612 71.1595 16.0582 71.3035 15.7926L70.9519 15.6019C70.846 15.7973 70.6977 15.9419 70.5039 16.0405L70.6852 16.397ZM71.3035 15.7926C71.4481 15.5261 71.5152 15.2102 71.5152 14.8535H71.1152C71.1152 15.1609 71.0574 15.4075 70.9519 15.6019L71.3035 15.7926ZM71.5152 14.8535V10.0957H71.1152V14.8535H71.5152ZM71.5144 10.1136L71.6433 8.67804L71.2449 8.64227L71.116 10.0778L71.5144 10.1136ZM67.3375 11.9004V11.7773H66.9375V11.9004H67.3375ZM67.3375 11.7773C67.3375 11.313 67.3941 10.895 67.505 10.5218L67.1216 10.4079C66.9981 10.8237 66.9375 11.2807 66.9375 11.7773H67.3375ZM67.5052 10.5213C67.6165 10.1428 67.7743 9.82401 67.9759 9.56119L67.6585 9.31772C67.4226 9.6252 67.2445 9.98997 67.1214 10.4084L67.5052 10.5213ZM67.9767 9.56014C68.1773 9.29504 68.4187 9.09509 68.7017 8.95712L68.5264 8.59757C68.1844 8.76428 67.8946 9.00574 67.6577 9.31876L67.9767 9.56014ZM68.7035 8.95623C68.9848 8.81557 69.3071 8.74297 69.6746 8.74297V8.34297C69.2531 8.34297 68.8683 8.42662 68.5246 8.59846L68.7035 8.95623ZM69.6746 8.74297C70.0611 8.74297 70.3777 8.81292 70.6321 8.94354L70.8148 8.58771C70.491 8.42145 70.1084 8.34297 69.6746 8.34297V8.74297ZM70.633 8.94403C70.8959 9.07719 71.1152 9.26794 71.2923 9.51945L71.6194 9.28914C71.4059 8.98596 71.137 8.75094 70.8138 8.58722L70.633 8.94403ZM71.2931 9.52054C71.4729 9.77231 71.6164 10.0788 71.7206 10.4436L72.1052 10.3337C71.9907 9.9329 71.8294 9.58316 71.6186 9.28805L71.2931 9.52054ZM71.7213 10.446C71.8307 10.812 71.9126 11.2223 71.9662 11.6777L72.3635 11.6309C72.3077 11.1566 72.2216 10.7232 72.1045 10.3314L71.7213 10.446ZM71.9648 11.6543V12.0469H72.3648V11.6543H71.9648ZM71.9661 12.0246C71.9166 12.4664 71.8331 12.8672 71.7167 13.2276L72.0974 13.3505C72.2231 12.961 72.3116 12.5336 72.3636 12.0691L71.9661 12.0246ZM71.7167 13.2276C71.6011 13.5857 71.4498 13.8902 71.2649 14.1439L71.5882 14.3795C71.8018 14.0864 71.9708 13.7424 72.0974 13.3505L71.7167 13.2276ZM71.2649 14.1439C71.0837 14.3926 70.8618 14.5824 70.5979 14.7161L70.7787 15.0729C71.1007 14.9098 71.3709 14.6777 71.5882 14.3795L71.2649 14.1439ZM70.5969 14.7166C70.3416 14.8478 70.0324 14.9172 69.6629 14.9172V15.3172C70.0825 15.3172 70.4569 15.2382 70.7796 15.0724L70.5969 14.7166ZM69.6629 14.9172C69.3046 14.9172 68.9868 14.8432 68.7053 14.699L68.5228 15.0549C68.8663 15.231 69.2477 15.3172 69.6629 15.3172V14.9172ZM68.7062 14.6994C68.4248 14.5534 68.1814 14.3482 67.9756 14.0811L67.6587 14.3252C67.8983 14.6362 68.1862 14.8802 68.5219 15.0545L68.7062 14.6994ZM67.9767 14.0824C67.774 13.8146 67.616 13.4968 67.5048 13.1261L67.1217 13.2411C67.2449 13.6517 67.4229 14.0135 67.6577 14.3238L67.9767 14.0824ZM67.505 13.1266C67.3939 12.7527 67.3375 12.3443 67.3375 11.9004H66.9375C66.9375 12.3783 66.9983 12.8255 67.1216 13.2405L67.505 13.1266ZM68.3496 11.7773V11.9004H68.7496V11.7773H68.3496ZM68.3496 11.9004C68.3496 12.202 68.3781 12.486 68.4363 12.7517L68.827 12.6662C68.7758 12.432 68.7496 12.1769 68.7496 11.9004H68.3496ZM68.4369 12.7546C68.4997 13.0224 68.5949 13.2635 68.7247 13.4755L69.0659 13.2667C68.9613 13.0958 68.8808 12.8955 68.8264 12.6633L68.4369 12.7546ZM68.7273 13.4796C68.8643 13.6918 69.0387 13.8624 69.25 13.9882L69.4547 13.6446C69.2988 13.5517 69.1685 13.4254 69.0633 13.2626L68.7273 13.4796ZM69.2543 13.9907C69.4767 14.1158 69.7324 14.1746 70.0145 14.1746V13.7746C69.7887 13.7746 69.603 13.7279 69.4504 13.6421L69.2543 13.9907ZM70.0145 14.1746C70.3739 14.1746 70.6873 14.0985 70.9398 13.9301L70.718 13.5973C70.5487 13.7101 70.3191 13.7746 70.0145 13.7746V14.1746ZM70.9384 13.931C71.1849 13.7697 71.3731 13.5517 71.5017 13.2812L71.1405 13.1094C71.0425 13.3155 70.9026 13.4764 70.7194 13.5963L70.9384 13.931ZM71.5011 13.2824C71.6278 13.0206 71.7152 12.7319 71.7647 12.4179L71.3696 12.3555C71.3255 12.6352 71.2488 12.8856 71.1411 13.1082L71.5011 13.2824ZM71.7672 12.3867V11.3262H71.3672V12.3867H71.7672ZM71.7662 11.3059C71.7412 11.06 71.6888 10.8284 71.6081 10.6118L71.2333 10.7515C71.3011 10.9334 71.3463 11.1314 71.3682 11.3464L71.7662 11.3059ZM71.6093 10.6151C71.5321 10.3963 71.4257 10.2018 71.2886 10.0337L70.9786 10.2866C71.0837 10.4154 71.1687 10.5685 71.2321 10.7482L71.6093 10.6151ZM71.2902 10.0357C71.1484 9.85739 70.97 9.72066 70.7582 9.62599L70.595 9.9912C70.7503 10.0606 70.8766 10.1582 70.977 10.2846L71.2902 10.0357ZM70.7614 9.62746C70.5458 9.52655 70.2988 9.47969 70.0262 9.47969V9.87969C70.2535 9.87969 70.4402 9.91877 70.5918 9.98973L70.7614 9.62746ZM70.0262 9.47969C69.7429 9.47969 69.4862 9.54095 69.2633 9.67099L69.4648 10.0165C69.6169 9.9278 69.8016 9.87969 70.0262 9.87969V9.47969ZM69.2633 9.67099C69.0469 9.79723 68.8696 9.97071 68.7322 10.188L69.0702 10.4019C69.1749 10.2363 69.3062 10.109 69.4648 10.0165L69.2633 9.67099ZM68.7306 10.1905C68.6005 10.403 68.5053 10.6463 68.4426 10.9179L68.8324 11.0079C68.8869 10.7716 68.9675 10.5697 69.0717 10.3994L68.7306 10.1905ZM68.4426 10.9179C68.3803 11.1881 68.3496 11.4748 68.3496 11.7773H68.7496C68.7496 11.5018 68.7775 11.2455 68.8324 11.0079L68.4426 10.9179Z" fill="#010101" fill-opacity="0.098" mask="url(#path-2-inside-1_8_125)"/>
<path d="M10.4492 12.5938L11.9141 7.66016H12.8164L12.5703 9.13672L11.0938 14H10.2852L10.4492 12.5938ZM9.58789 7.66016L10.7305 12.6172L10.8242 14H9.92188L8.20508 7.66016H9.58789ZM14.1875 12.5586L15.2949 7.66016H16.6719L14.9609 14H14.0586L14.1875 12.5586ZM12.9688 7.66016L14.416 12.5352L14.5977 14H13.7891L12.2949 9.13086L12.0488 7.66016H12.9688ZM19.2645 7.66016V14H17.8466V7.66016H19.2645ZM17.7528 5.99609C17.7528 5.78125 17.8231 5.60352 17.9637 5.46289C18.1083 5.31836 18.3075 5.24609 18.5614 5.24609C18.8114 5.24609 19.0087 5.31836 19.1532 5.46289C19.2977 5.60352 19.37 5.78125 19.37 5.99609C19.37 6.20703 19.2977 6.38281 19.1532 6.52344C19.0087 6.66406 18.8114 6.73438 18.5614 6.73438C18.3075 6.73438 18.1083 6.66406 17.9637 6.52344C17.8231 6.38281 17.7528 6.20703 17.7528 5.99609ZM22.3494 8.86719V14H20.9373V7.66016H22.2849L22.3494 8.86719ZM24.2888 7.61914L24.2771 8.93164C24.1912 8.91602 24.0974 8.9043 23.9959 8.89648C23.8982 8.88867 23.8005 8.88477 23.7029 8.88477C23.4607 8.88477 23.2478 8.91992 23.0642 8.99023C22.8806 9.05664 22.7263 9.1543 22.6013 9.2832C22.4802 9.4082 22.3865 9.56055 22.3201 9.74023C22.2537 9.91992 22.2146 10.1211 22.2029 10.3438L21.8806 10.3672C21.8806 9.96875 21.9197 9.59961 21.9978 9.25977C22.0759 8.91992 22.1931 8.62109 22.3494 8.36328C22.5095 8.10547 22.7087 7.9043 22.947 7.75977C23.1892 7.61523 23.4685 7.54297 23.7849 7.54297C23.8709 7.54297 23.9627 7.55078 24.0603 7.56641C24.1619 7.58203 24.238 7.59961 24.2888 7.61914ZM27.9713 14.1172C27.5026 14.1172 27.0788 14.041 26.6998 13.8887C26.3248 13.7324 26.0045 13.5156 25.7389 13.2383C25.4772 12.9609 25.276 12.6348 25.1354 12.2598C24.9948 11.8848 24.9245 11.4805 24.9245 11.0469V10.8125C24.9245 10.3164 24.9967 9.86719 25.1413 9.46484C25.2858 9.0625 25.487 8.71875 25.7448 8.43359C26.0026 8.14453 26.3073 7.92383 26.6588 7.77148C27.0104 7.61914 27.3913 7.54297 27.8014 7.54297C28.2545 7.54297 28.651 7.61914 28.9909 7.77148C29.3307 7.92383 29.612 8.13867 29.8346 8.41602C30.0612 8.68945 30.2291 9.01562 30.3385 9.39453C30.4518 9.77344 30.5084 10.1914 30.5084 10.6484V11.252H25.61V10.2383H29.1139V10.127C29.1061 9.87305 29.0553 9.63477 28.9616 9.41211C28.8717 9.18945 28.733 9.00977 28.5455 8.87305C28.358 8.73633 28.108 8.66797 27.7955 8.66797C27.5612 8.66797 27.3522 8.71875 27.1686 8.82031C26.9889 8.91797 26.8385 9.06055 26.7174 9.24805C26.5963 9.43555 26.5026 9.66211 26.4362 9.92773C26.3737 10.1895 26.3424 10.4844 26.3424 10.8125V11.0469C26.3424 11.3242 26.3795 11.582 26.4538 11.8203C26.5319 12.0547 26.6452 12.2598 26.7936 12.4355C26.942 12.6113 27.1217 12.75 27.3327 12.8516C27.5436 12.9492 27.7838 12.998 28.0534 12.998C28.3932 12.998 28.6959 12.9297 28.9616 12.793C29.2272 12.6562 29.4577 12.4629 29.653 12.2129L30.3971 12.9336C30.2604 13.1328 30.0827 13.3242 29.8639 13.5078C29.6452 13.6875 29.3776 13.834 29.0612 13.9473C28.7487 14.0605 28.3854 14.1172 27.9713 14.1172ZM33.6402 14H32.228V7.05078C32.228 6.57812 32.3159 6.18164 32.4917 5.86133C32.6714 5.53711 32.9273 5.29297 33.2593 5.12891C33.5913 4.96094 33.9839 4.87695 34.437 4.87695C34.5777 4.87695 34.7163 4.88672 34.853 4.90625C34.9898 4.92188 35.1226 4.94727 35.2515 4.98242L35.2163 6.07227C35.1382 6.05273 35.0523 6.03906 34.9585 6.03125C34.8687 6.02344 34.771 6.01953 34.6655 6.01953C34.4507 6.01953 34.2652 6.06055 34.1089 6.14258C33.9566 6.2207 33.8394 6.33594 33.7573 6.48828C33.6792 6.64062 33.6402 6.82812 33.6402 7.05078V14ZM34.9468 7.66016V8.69141H31.2554V7.66016H34.9468ZM37.5102 8.86719V14H36.098V7.66016H37.4457L37.5102 8.86719ZM39.4496 7.61914L39.4379 8.93164C39.352 8.91602 39.2582 8.9043 39.1566 8.89648C39.059 8.88867 38.9613 8.88477 38.8637 8.88477C38.6215 8.88477 38.4086 8.91992 38.225 8.99023C38.0414 9.05664 37.8871 9.1543 37.7621 9.2832C37.641 9.4082 37.5473 9.56055 37.4809 9.74023C37.4145 9.91992 37.3754 10.1211 37.3637 10.3438L37.0414 10.3672C37.0414 9.96875 37.0805 9.59961 37.1586 9.25977C37.2367 8.91992 37.3539 8.62109 37.5102 8.36328C37.6703 8.10547 37.8695 7.9043 38.1078 7.75977C38.35 7.61523 38.6293 7.54297 38.9457 7.54297C39.0316 7.54297 39.1234 7.55078 39.2211 7.56641C39.3227 7.58203 39.3988 7.59961 39.4496 7.61914ZM43.8177 12.7285V9.70508C43.8177 9.47852 43.7766 9.2832 43.6946 9.11914C43.6126 8.95508 43.4876 8.82812 43.3196 8.73828C43.1555 8.64844 42.9485 8.60352 42.6985 8.60352C42.468 8.60352 42.2688 8.64258 42.1009 8.7207C41.9329 8.79883 41.802 8.9043 41.7083 9.03711C41.6145 9.16992 41.5677 9.32031 41.5677 9.48828H40.1614C40.1614 9.23828 40.222 8.99609 40.343 8.76172C40.4641 8.52734 40.6399 8.31836 40.8704 8.13477C41.1009 7.95117 41.3762 7.80664 41.6966 7.70117C42.0169 7.5957 42.3762 7.54297 42.7747 7.54297C43.2512 7.54297 43.6731 7.62305 44.0403 7.7832C44.4114 7.94336 44.7024 8.18555 44.9134 8.50977C45.1282 8.83008 45.2356 9.23242 45.2356 9.7168V12.5352C45.2356 12.8242 45.2552 13.084 45.2942 13.3145C45.3372 13.541 45.3977 13.7383 45.4759 13.9062V14H44.0286C43.9622 13.8477 43.9095 13.6543 43.8704 13.4199C43.8352 13.1816 43.8177 12.9512 43.8177 12.7285ZM44.0227 10.1445L44.0345 11.0176H43.0208C42.7591 11.0176 42.5286 11.043 42.3294 11.0938C42.1302 11.1406 41.9641 11.2109 41.8313 11.3047C41.6985 11.3984 41.5989 11.5117 41.5325 11.6445C41.4661 11.7773 41.4329 11.9277 41.4329 12.0957C41.4329 12.2637 41.472 12.418 41.5501 12.5586C41.6282 12.6953 41.7415 12.8027 41.8899 12.8809C42.0423 12.959 42.2259 12.998 42.4407 12.998C42.7298 12.998 42.9817 12.9395 43.1966 12.8223C43.4153 12.7012 43.5872 12.5547 43.7122 12.3828C43.8372 12.207 43.9036 12.041 43.9114 11.8848L44.3684 12.5117C44.3216 12.6719 44.2415 12.8438 44.1282 13.0273C44.0149 13.2109 43.8665 13.3867 43.6829 13.5547C43.5032 13.7188 43.2864 13.8535 43.0325 13.959C42.7825 14.0645 42.4934 14.1172 42.1653 14.1172C41.7512 14.1172 41.3821 14.0352 41.0579 13.8711C40.7337 13.7031 40.4798 13.4785 40.2962 13.1973C40.1126 12.9121 40.0208 12.5898 40.0208 12.2305C40.0208 11.8945 40.0833 11.5977 40.2083 11.3398C40.3372 11.0781 40.5247 10.8594 40.7708 10.6836C41.0208 10.5078 41.3255 10.375 41.6848 10.2852C42.0442 10.1914 42.4544 10.1445 42.9153 10.1445H44.0227ZM48.2443 8.94922V14H46.8322V7.66016H48.1623L48.2443 8.94922ZM48.0158 10.5957L47.5353 10.5898C47.5353 10.1523 47.59 9.74805 47.6994 9.37695C47.8088 9.00586 47.9689 8.68359 48.1798 8.41016C48.3908 8.13281 48.6525 7.91992 48.965 7.77148C49.2814 7.61914 49.6466 7.54297 50.0607 7.54297C50.3498 7.54297 50.6134 7.58594 50.8517 7.67188C51.0939 7.75391 51.3029 7.88477 51.4787 8.06445C51.6584 8.24414 51.7951 8.47461 51.8888 8.75586C51.9865 9.03711 52.0353 9.37695 52.0353 9.77539V14H50.6232V9.89844C50.6232 9.58984 50.5763 9.34766 50.4826 9.17188C50.3927 8.99609 50.2619 8.87109 50.09 8.79688C49.922 8.71875 49.7209 8.67969 49.4865 8.67969C49.2209 8.67969 48.9943 8.73047 48.8068 8.83203C48.6232 8.93359 48.4728 9.07227 48.3556 9.24805C48.2384 9.42383 48.1525 9.62695 48.0978 9.85742C48.0431 10.0879 48.0158 10.334 48.0158 10.5957ZM51.9474 10.2207L51.2853 10.3672C51.2853 9.98438 51.338 9.62305 51.4435 9.2832C51.5529 8.93945 51.7111 8.63867 51.9181 8.38086C52.1291 8.11914 52.3888 7.91406 52.6974 7.76562C53.006 7.61719 53.3595 7.54297 53.758 7.54297C54.0822 7.54297 54.3713 7.58789 54.6252 7.67773C54.883 7.76367 55.1017 7.90039 55.2814 8.08789C55.4611 8.27539 55.5978 8.51953 55.6916 8.82031C55.7853 9.11719 55.8322 9.47656 55.8322 9.89844V14H54.4142V9.89258C54.4142 9.57227 54.3673 9.32422 54.2736 9.14844C54.1838 8.97266 54.0548 8.85156 53.8869 8.78516C53.7189 8.71484 53.5177 8.67969 53.2834 8.67969C53.0646 8.67969 52.8713 8.7207 52.7033 8.80273C52.5392 8.88086 52.4005 8.99219 52.2873 9.13672C52.174 9.27734 52.088 9.43945 52.0295 9.62305C51.9748 9.80664 51.9474 10.0059 51.9474 10.2207ZM58.917 7.66016V14H57.4991V7.66016H58.917ZM57.4053 5.99609C57.4053 5.78125 57.4756 5.60352 57.6162 5.46289C57.7608 5.31836 57.96 5.24609 58.2139 5.24609C58.4639 5.24609 58.6612 5.31836 58.8057 5.46289C58.9502 5.60352 59.0225 5.78125 59.0225 5.99609C59.0225 6.20703 58.9502 6.38281 58.8057 6.52344C58.6612 6.66406 58.4639 6.73438 58.2139 6.73438C57.96 6.73438 57.7608 6.66406 57.6162 6.52344C57.4756 6.38281 57.4053 6.20703 57.4053 5.99609ZM61.9843 9.01367V14H60.5722V7.66016H61.9023L61.9843 9.01367ZM61.7323 10.5957L61.2753 10.5898C61.2792 10.1406 61.3417 9.72852 61.4628 9.35352C61.5878 8.97852 61.7597 8.65625 61.9784 8.38672C62.2011 8.11719 62.4667 7.91016 62.7753 7.76562C63.0839 7.61719 63.4277 7.54297 63.8066 7.54297C64.1113 7.54297 64.3866 7.58594 64.6327 7.67188C64.8827 7.75391 65.0956 7.88867 65.2714 8.07617C65.4511 8.26367 65.5878 8.50781 65.6816 8.80859C65.7753 9.10547 65.8222 9.4707 65.8222 9.9043V14H64.4042V9.89844C64.4042 9.59375 64.3593 9.35352 64.2695 9.17773C64.1835 8.99805 64.0566 8.87109 63.8886 8.79688C63.7245 8.71875 63.5195 8.67969 63.2734 8.67969C63.0312 8.67969 62.8144 8.73047 62.623 8.83203C62.4316 8.93359 62.2695 9.07227 62.1366 9.24805C62.0077 9.42383 61.9081 9.62695 61.8378 9.85742C61.7675 10.0879 61.7323 10.334 61.7323 10.5957ZM71.4441 7.66016H72.7273V13.8242C72.7273 14.3945 72.6063 14.8789 72.3641 15.2773C72.1219 15.6758 71.784 15.9785 71.3504 16.1855C70.9168 16.3965 70.4148 16.502 69.8445 16.502C69.6023 16.502 69.3328 16.4668 69.0359 16.3965C68.743 16.3262 68.4578 16.2129 68.1805 16.0566C67.907 15.9043 67.6785 15.7031 67.4949 15.4531L68.157 14.6211C68.3836 14.8906 68.6336 15.0879 68.907 15.2129C69.1805 15.3379 69.4676 15.4004 69.7684 15.4004C70.0926 15.4004 70.368 15.3398 70.5945 15.2188C70.825 15.1016 71.0027 14.9277 71.1277 14.6973C71.2527 14.4668 71.3152 14.1855 71.3152 13.8535V9.0957L71.4441 7.66016ZM67.1375 10.9004V10.7773C67.1375 10.2969 67.1961 9.85938 67.3133 9.46484C67.4305 9.06641 67.5984 8.72461 67.8172 8.43945C68.0359 8.15039 68.3016 7.92969 68.6141 7.77734C68.9266 7.62109 69.2801 7.54297 69.6746 7.54297C70.0848 7.54297 70.4344 7.61719 70.7234 7.76562C71.0164 7.91406 71.2605 8.12695 71.4559 8.4043C71.6512 8.67773 71.8035 9.00586 71.9129 9.38867C72.0262 9.76758 72.1102 10.1895 72.1648 10.6543V11.0469C72.1141 11.5 72.0281 11.9141 71.907 12.2891C71.7859 12.6641 71.6258 12.9883 71.4266 13.2617C71.2273 13.5352 70.9813 13.7461 70.6883 13.8945C70.3992 14.043 70.0574 14.1172 69.6629 14.1172C69.2762 14.1172 68.9266 14.0371 68.6141 13.877C68.3055 13.7168 68.0398 13.4922 67.8172 13.2031C67.5984 12.9141 67.4305 12.5742 67.3133 12.1836C67.1961 11.7891 67.1375 11.3613 67.1375 10.9004ZM68.5496 10.7773V10.9004C68.5496 11.1895 68.577 11.459 68.6316 11.709C68.6902 11.959 68.7781 12.1797 68.8953 12.3711C69.0164 12.5586 69.1688 12.707 69.3523 12.8164C69.5398 12.9219 69.7605 12.9746 70.0145 12.9746C70.3465 12.9746 70.618 12.9043 70.8289 12.7637C71.0438 12.623 71.2078 12.4336 71.3211 12.1953C71.4383 11.9531 71.5203 11.6836 71.5672 11.3867V10.3262C71.5438 10.0957 71.4949 9.88086 71.4207 9.68164C71.3504 9.48242 71.2547 9.30859 71.1336 9.16016C71.0125 9.00781 70.8602 8.89062 70.6766 8.80859C70.493 8.72266 70.2762 8.67969 70.0262 8.67969C69.7723 8.67969 69.5516 8.73438 69.3641 8.84375C69.1766 8.95312 69.0223 9.10352 68.9012 9.29492C68.784 9.48633 68.6961 9.70898 68.6375 9.96289C68.5789 10.2168 68.5496 10.4883 68.5496 10.7773Z" fill="white"/>
<path d="M79 0H105.333C106.99 0 108.333 1.34315 108.333 3V17C108.333 18.6569 106.99 20 105.333 20H79V0Z" fill="#2379DE"/>
<g clip-path="url(#clip0_8_125)">
<path fill-rule="evenodd" clip-rule="evenodd" d="M85 3.31974C85 3.13564 85.1492 2.9864 85.3333 2.9864H102C102.184 2.9864 102.333 3.13564 102.333 3.31974V16.6525C102.333 16.8366 102.184 16.9858 102 16.9858H85.3333C85.1492 16.9858 85 16.8366 85 16.6525V3.31974ZM85.6667 3.65307V16.3191H101.667V3.65307H85.6667Z" fill="white"/>
<path fill-rule="evenodd" clip-rule="evenodd" d="M85.3528 4.93754C85.3528 4.75344 85.502 4.6042 85.6861 4.6042H101.709C101.893 4.6042 102.042 4.75344 102.042 4.93754C102.042 5.12163 101.893 5.27087 101.709 5.27087H85.6861C85.502 5.27087 85.3528 5.12163 85.3528 4.93754Z" fill="white"/>
<path fill-rule="evenodd" clip-rule="evenodd" d="M90.75 4.6042C90.9341 4.6042 91.0833 4.75344 91.0833 4.93754V16.4413C91.0833 16.6254 90.9341 16.7746 90.75 16.7746C90.5659 16.7746 90.4167 16.6254 90.4167 16.4413V4.93754C90.4167 4.75344 90.5659 4.6042 90.75 4.6042Z" fill="white"/>
<path fill-rule="evenodd" clip-rule="evenodd" d="M86.3281 6.32937C86.3281 6.14528 86.4773 5.99604 86.6614 5.99604H89.3281C89.5122 5.99604 89.6614 6.14528 89.6614 6.32937V10.0238C89.6614 10.2079 89.5122 10.3571 89.3281 10.3571H86.6614C86.4773 10.3571 86.3281 10.2079 86.3281 10.0238V6.32937ZM86.9948 6.6627V9.69047H88.9948V6.6627H86.9948Z" fill="white"/>
<path fill-rule="evenodd" clip-rule="evenodd" d="M91.9673 6.5C91.9673 6.31591 92.1165 6.16667 92.3006 6.16667H100.477C100.661 6.16667 100.81 6.31591 100.81 6.5V15.3018C100.81 15.4859 100.661 15.6351 100.477 15.6351H92.3006C92.1165 15.6351 91.9673 15.4859 91.9673 15.3018V6.5ZM92.634 6.83334V14.9685H100.143V6.83334H92.634Z" fill="white"/>
<path fill-rule="evenodd" clip-rule="evenodd" d="M86.2977 12.2599C86.2977 12.0758 86.4469 11.9266 86.631 11.9266H88.3304C88.5145 11.9266 88.6637 12.0758 88.6637 12.2599C88.6637 12.444 88.5145 12.5932 88.3304 12.5932H86.631C86.4469 12.5932 86.2977 12.444 86.2977 12.2599Z" fill="white"/>
<path fill-rule="evenodd" clip-rule="evenodd" d="M86.2977 13.5932C86.2977 13.4091 86.4469 13.2599 86.631 13.2599H89.4003C89.5844 13.2599 89.7336 13.4091 89.7336 13.5932C89.7336 13.7773 89.5844 13.9266 89.4003 13.9266H86.631C86.4469 13.9266 86.2977 13.7773 86.2977 13.5932Z" fill="white"/>
<path fill-rule="evenodd" clip-rule="evenodd" d="M86.2977 14.9266C86.2977 14.7425 86.4469 14.5932 86.631 14.5932H88.3304C88.5145 14.5932 88.6637 14.7425 88.6637 14.9266C88.6637 15.1107 88.5145 15.2599 88.3304 15.2599H86.631C86.4469 15.2599 86.2977 15.1107 86.2977 14.9266Z" fill="white"/>
<path fill-rule="evenodd" clip-rule="evenodd" d="M100.703 6.25578C100.838 6.38107 100.846 6.59198 100.721 6.72686L92.5449 15.5287C92.4196 15.6635 92.2087 15.6713 92.0738 15.546C91.9389 15.4207 91.9311 15.2098 92.0564 15.0749L100.232 6.27314C100.358 6.13826 100.569 6.13049 100.703 6.25578Z" fill="white"/>
<path fill-rule="evenodd" clip-rule="evenodd" d="M92.0738 6.25578C92.2087 6.13049 92.4196 6.13826 92.5449 6.27314L100.721 15.0749C100.846 15.2098 100.838 15.4207 100.703 15.546C100.569 15.6713 100.358 15.6635 100.232 15.5287L92.0564 6.72686C91.9311 6.59198 91.9389 6.38107 92.0738 6.25578Z" fill="white"/>
</g>
<path d="M2.7 0H105.3C106.791 0 108 1.34315 108 3V17C108 18.6569 106.791 20 105.3 20H2.7C1.20883 20 0 18.6569 0 17V3C0 1.34315 1.20883 0 2.7 0Z" fill="url(#paint0_linear_8_125)"/>
<defs>
<linearGradient id="paint0_linear_8_125" x1="0" y1="0" x2="0" y2="20" gradientUnits="userSpaceOnUse">
<stop stop-color="#BBBBBB" stop-opacity="0.1"/>
<stop offset="1" stop-opacity="0.1"/>
</linearGradient>
<clipPath id="clip0_8_125">
<rect width="17.3333" height="14" fill="white" transform="translate(85 3)"/>
</clipPath>
</defs>
</svg>
